<?xml version="1.0" encoding="utf-8"?>
<!-- Generator: Adobe Illustrator 22.0.1, SVG Export Plug-In . SVG Version: 6.00 Build 0)  -->
<svg version="1.1" xmlns="http://www.w3.org/2000/svg" xmlns:xlink="http://www.w3.org/1999/xlink" x="0px" y="0px"
	 viewBox="0 0 240 30" style="enable-background:new 0 0 240 30;" xml:space="preserve">
<style type="text/css">
	.st0{display:none;fill:#2A2733;}
	.st1{display:none;fill:#0095D6;}
	.st2{fill:url(#SVGID_1_);}
	.st3{fill:none;stroke:#FFFFFF;stroke-width:4;stroke-miterlimit:10;}
	.st4{fill:#2BB6D6;}
	.st5{fill:#2A2733;}
	.st6{fill:#FFFFFF;stroke:#CCCCCC;stroke-miterlimit:10;}
	.st7{fill:#0095D6;}
	.st8{fill:#FEFEFF;}
	.st9{display:none;fill:none;stroke:#FEFEFF;stroke-width:8;stroke-miterlimit:10;}
	.st10{fill:none;stroke:#FEFEFF;stroke-width:8;stroke-miterlimit:10;}
	.st11{display:none;}
	.st12{display:inline;}
	.st13{fill:#24272A;}
	.st14{fill:#36B0C9;}
	.st15{fill:#0097CE;}
	.st16{fill:none;stroke:#8D8D8D;stroke-miterlimit:10;}
	.st17{fill:none;stroke:#8D8D8D;stroke-miterlimit:10;stroke-dasharray:8.0607,8.0607;}
	.st18{fill:none;stroke:#8D8D8D;stroke-miterlimit:10;stroke-dasharray:8.126,8.126;}
	.st19{fill:none;stroke:#8D8D8D;stroke-miterlimit:10;stroke-dasharray:8.0992,8.0992;}
	.st20{fill:none;stroke:#8D8D8D;stroke-miterlimit:10;stroke-dasharray:7.991,7.991;}
	.st21{fill:none;stroke:#8D8D8D;stroke-miterlimit:10;stroke-dasharray:7.9295,7.9295;}
	.st22{fill:none;stroke:#8D8D8D;stroke-miterlimit:10;stroke-dasharray:7.9285,7.9285;}
</style>
<g id="Logo1_no_space">
	<path class="st5" d="M4.2,21L21.6,3.4c0.1-0.1,0.2-0.2,0.3-0.3c0.8-0.8,1.6-1.7,2.8-1.7h3.5c1.3,0,2.4,1.1,2.4,2.4v21.9
		c0,1.3-1.1,2.4-2.4,2.4H6.4C5.1,28.1,4,27,4,25.7v-4.3C4,21.3,4.1,21.1,4.2,21z"/>
	<path class="st4" d="M30.6,21L13.1,3.4c-0.1-0.1-0.2-0.2-0.3-0.3C12,2.2,11.2,1.4,10,1.4H6.4C5.1,1.4,4,2.5,4,3.8v21.9
		c0,1.3,1.1,2.4,2.4,2.4h21.9c1.3,0,2.4-1.1,2.4-2.4v-4.3C30.7,21.3,30.7,21.1,30.6,21z"/>
	<path class="st7" d="M17.4,7.7L4.2,21C4.1,21.1,4,21.3,4,21.4v4.3c0,1.3,1.1,2.4,2.4,2.4h21.9c1.3,0,2.4-1.1,2.4-2.4v-4.3
		c0-0.1-0.1-0.3-0.2-0.4L17.4,7.7z"/>
	<g>
		<path class="st5" d="M55.1,10.7l-5.2,13.2h-1.7L43,10.7v13.2h-3.9V5.6h5.5L49,17l4.5-11.4H59v18.3h-3.9V10.7z"/>
		<path class="st5" d="M67.5,10.3c4,0,6.6,3,6.6,7.3v0.8h-9.9c0.2,1.7,1.6,3.1,3.8,3.1c1.2,0,2.7-0.5,3.5-1.3l1.5,2.3
			c-1.3,1.2-3.4,1.8-5.5,1.8c-4,0-7.1-2.7-7.1-7C60.6,13.4,63.4,10.3,67.5,10.3z M64.2,16h6.5c-0.1-1.3-1-2.9-3.3-2.9
			C65.3,13.1,64.3,14.7,64.2,16z"/>
		<path class="st5" d="M76.2,20.6v-6.9H74v-3h2.2V7h3.5v3.6h2.7v3h-2.7v6c0,0.8,0.4,1.5,1.2,1.5c0.5,0,1-0.2,1.2-0.4l0.7,2.6
			c-0.5,0.5-1.5,0.9-2.9,0.9C77.5,24.2,76.2,23,76.2,20.6z"/>
		<path class="st5" d="M83.7,10.6h3.5v1.8c0.9-1.2,2.6-2.1,4.2-2.1v3.4c-0.2-0.1-0.6-0.1-1-0.1c-1.2,0-2.7,0.6-3.3,1.5v8.8h-3.5
			V10.6z"/>
		<path class="st5" d="M91.7,17.2c0-3.8,2.6-7,7-7c4.4,0,7,3.2,7,7c0,3.8-2.6,7-7,7C94.3,24.2,91.7,21,91.7,17.2z M102.1,17.2
			c0-2.1-1.2-3.8-3.4-3.8c-2.2,0-3.4,1.8-3.4,3.8c0,2.1,1.2,3.9,3.4,3.9C100.8,21.1,102.1,19.3,102.1,17.2z"/>
		<path class="st5" d="M114,17.3h-2.9v6.6h-3.9V5.6h8.6c3.8,0,6.2,2.5,6.2,5.9c0,3.2-2,5-4,5.4l4.1,7h-4.5L114,17.3z M115.2,8.9
			h-4.1V14h4.1c1.6,0,2.7-1,2.7-2.5S116.8,8.9,115.2,8.9z"/>
		<path class="st5" d="M128.9,10.3c4,0,6.6,3,6.6,7.3v0.8h-9.9c0.2,1.7,1.6,3.1,3.8,3.1c1.2,0,2.7-0.5,3.5-1.3l1.5,2.3
			c-1.3,1.2-3.4,1.8-5.5,1.8c-4,0-7.1-2.7-7.1-7C122.1,13.4,124.9,10.3,128.9,10.3z M125.7,16h6.5c-0.1-1.3-1-2.9-3.3-2.9
			C126.8,13.1,125.8,14.7,125.7,16z"/>
		<path class="st5" d="M137.4,19.7c1,0.9,2.9,1.8,4.6,1.8c1.5,0,2.2-0.5,2.2-1.3c0-0.9-1.2-1.3-2.7-1.6c-2.3-0.4-5.2-1-5.2-4.1
			c0-2.2,2-4.2,5.4-4.2c2.3,0,4,0.8,5.3,1.8l-1.4,2.4c-0.8-0.9-2.3-1.5-3.9-1.5c-1.3,0-2.1,0.5-2.1,1.2c0,0.8,1,1.1,2.5,1.4
			c2.3,0.4,5.3,1,5.3,4.3c0,2.4-2.1,4.3-5.7,4.3c-2.3,0-4.5-0.8-5.9-2.1L137.4,19.7z"/>
		<path class="st5" d="M148.7,6.6c0-1.2,1-2.1,2.1-2.1c1.2,0,2.1,0.9,2.1,2.1c0,1.2-0.9,2.1-2.1,2.1C149.6,8.7,148.7,7.7,148.7,6.6z
			 M149,10.6h3.5v13.3H149V10.6z"/>
		<path class="st5" d="M164,22.2c-1,1.3-2.5,2-4.1,2c-3.4,0-5.9-2.5-5.9-7c0-4.3,2.5-7,5.9-7c1.6,0,3,0.7,4.1,2V5.6h3.5v18.3H164
			V22.2z M164,14.9c-0.6-0.9-1.8-1.5-3-1.5c-2,0-3.4,1.6-3.4,3.9c0,2.3,1.4,3.8,3.4,3.8c1.2,0,2.4-0.6,3-1.5V14.9z"/>
		<path class="st5" d="M175.9,10.3c4,0,6.6,3,6.6,7.3v0.8h-9.9c0.2,1.7,1.6,3.1,3.8,3.1c1.2,0,2.7-0.5,3.5-1.3l1.5,2.3
			c-1.3,1.2-3.4,1.8-5.5,1.8c-4,0-7.1-2.7-7.1-7C169,13.4,171.8,10.3,175.9,10.3z M172.6,16h6.5c-0.1-1.3-1-2.9-3.3-2.9
			C173.7,13.1,172.8,14.7,172.6,16z"/>
		<path class="st5" d="M192.9,15.9c0-1.8-1-2.5-2.4-2.5c-1.4,0-2.4,0.8-3,1.6v8.9H184V10.6h3.5v1.7c0.9-1,2.5-2.1,4.6-2.1
			c2.9,0,4.3,1.6,4.3,4.2v9.4h-3.5V15.9z"/>
		<path class="st5" d="M204.9,10.3c2.7,0,4.4,1.2,5.2,2.4l-2.3,2.1c-0.6-0.9-1.6-1.4-2.8-1.4c-2.1,0-3.6,1.5-3.6,3.8
			c0,2.3,1.5,3.9,3.6,3.9c1.2,0,2.2-0.5,2.8-1.4l2.3,2.1c-0.9,1.2-2.5,2.4-5.2,2.4c-4.1,0-7-2.9-7-7
			C197.9,13.2,200.8,10.3,204.9,10.3z"/>
		<path class="st5" d="M217.4,10.3c4,0,6.6,3,6.6,7.3v0.8h-9.9c0.2,1.7,1.6,3.1,3.8,3.1c1.2,0,2.7-0.5,3.5-1.3l1.5,2.3
			c-1.3,1.2-3.4,1.8-5.5,1.8c-4,0-7.1-2.7-7.1-7C210.5,13.4,213.3,10.3,217.4,10.3z M214.1,16h6.5c-0.1-1.3-1-2.9-3.3-2.9
			C215.2,13.1,214.3,14.7,214.1,16z"/>
		<path class="st5" d="M225.8,19.7c1,0.9,2.9,1.8,4.6,1.8c1.5,0,2.2-0.5,2.2-1.3c0-0.9-1.2-1.3-2.7-1.6c-2.3-0.4-5.2-1-5.2-4.1
			c0-2.2,2-4.2,5.4-4.2c2.3,0,4,0.8,5.3,1.8l-1.4,2.4c-0.8-0.9-2.3-1.5-3.9-1.5c-1.3,0-2.1,0.5-2.1,1.2c0,0.8,1,1.1,2.5,1.4
			c2.3,0.4,5.3,1,5.3,4.3c0,2.4-2.1,4.3-5.7,4.3c-2.3,0-4.5-0.8-5.9-2.1L225.8,19.7z"/>
	</g>
</g>
</svg>
