<!-- Generated by IcoMoon.io -->
<svg version="1.1" xmlns="http://www.w3.org/2000/svg" width="32" height="32" viewBox="0 0 32 32">
<title>360-view</title>
<path d="M12.28 28.696l0.715-0.767 4.475 4.072h-1.353c-8.715 0-15.792-7.089-15.792-15.792 0-6.764 4.293-12.761 10.693-14.946l0.338 0.989c-5.984 2.029-9.99 7.649-9.99 13.958 0 7.649 5.854 13.958 13.32 14.673l-2.406-2.185zM16.013 0.403c8.715 0 15.792 7.089 15.779 15.792 0 6.764-4.293 12.761-10.693 14.946l-0.338-0.989c5.984-2.029 9.99-7.649 9.99-13.958 0-7.649-5.854-13.958-13.32-14.673l2.407 2.185-0.702 0.767-4.475-4.072h1.353zM20.319 14.192c-1.197 0-2.159 0.976-2.159 2.159 0 1.197 0.976 2.159 2.159 2.159 1.197 0 2.159-0.976 2.159-2.159s-0.963-2.159-2.159-2.159zM20.319 17.483c-0.624 0-1.119-0.507-1.119-1.119 0-0.624 0.507-1.119 1.119-1.119 0.624 0 1.119 0.507 1.119 1.119s-0.494 1.119-1.119 1.119zM11.681 14.192c-1.197 0-2.159 0.976-2.159 2.159 0 1.197 0.976 2.159 2.159 2.159s2.159-0.976 2.159-2.159c0-1.184-0.963-2.159-2.159-2.159zM11.681 17.483c-0.624 0-1.119-0.507-1.119-1.119 0-0.624 0.507-1.119 1.119-1.119 0.624 0 1.119 0.507 1.119 1.119s-0.507 1.119-1.119 1.119zM25.886 19.408v-5.633c0-1.873-1.119-2.953-3.083-2.953h-13.138c-1.847 0-2.901 1.080-2.901 2.953v5.633c0 2.797 1.743 3.213 2.771 3.213h2.992c1.158 0 2.042-0.676 2.641-2.016l0.104-0.221c0.247-0.559 0.455-1.015 0.546-1.132 0.039 0 0.13 0 0.169 0 0.065 0 0.169 0 0.221 0.013 0.104 0.104 0.325 0.559 0.598 1.145l0.104 0.221c0.637 1.327 1.587 2.003 2.797 2.003h3.213c1.119-0.013 2.966-0.429 2.966-3.226zM17.86 20.163l-0.104-0.221c-0.702-1.47-0.833-1.743-1.756-1.743-0.898 0-1.028 0.299-1.678 1.756l-0.104 0.221c-0.624 1.405-1.405 1.405-1.691 1.405h-2.992c-1.535 0-1.73-1.158-1.73-2.172v-5.633c0-1.301 0.598-1.912 1.86-1.912h13.138c1.392 0 2.042 0.611 2.042 1.912v5.633c0 1.496-0.585 2.172-1.899 2.172h-3.213c-0.325 0-1.184 0-1.873-1.418z"></path>
</svg>
