<!-- Generated by IcoMoon.io -->
<svg version="1.1" xmlns="http://www.w3.org/2000/svg" width="32" height="32" viewBox="0 0 32 32">
<title>activity</title>
<path d="M8.778 20.025l8.14-2.544c0.395-0.123 0.789 0.193 0.753 0.606l-0.823 9.463 6.23-15.575-8.14 2.544c-0.395 0.123-0.789-0.193-0.753-0.606l0.823-9.463-6.23 15.575zM7.957 21.5c-0.468 0.146-0.896-0.316-0.714-0.771l8.145-20.362c0.249-0.622 1.178-0.4 1.12 0.266l-1.088 12.516 8.48-2.65c0.468-0.146 0.896 0.316 0.714 0.771l-8.145 20.362c-0.249 0.621-1.178 0.4-1.12-0.266l1.088-12.516-8.48 2.65z"></path>
</svg>
