<!-- Generated by IcoMoon.io -->
<svg version="1.1" xmlns="http://www.w3.org/2000/svg" width="48" height="32" viewBox="0 0 48 32">
<title>adaptive</title>
<path d="M41 12c-0.553 0-1-0.448-1-1v-3.707l-12.319 11.439c-0.006 0.006-0.014 0.007-0.020 0.013-0.004 0.004-0.006 0.009-0.011 0.013-0.054 0.047-0.117 0.072-0.178 0.105-0.042 0.023-0.079 0.056-0.123 0.072-0.113 0.043-0.231 0.065-0.349 0.065-0.138 0-0.274-0.030-0.402-0.086-0.041-0.019-0.073-0.055-0.112-0.079-0.076-0.047-0.155-0.086-0.218-0.155-0.005-0.005-0.006-0.012-0.011-0.018-0.005-0.005-0.011-0.006-0.016-0.011l-5.364-6.259-10.244 8.382c-0.186 0.151-0.409 0.226-0.632 0.226-0.29 0-0.577-0.126-0.775-0.367-0.35-0.428-0.286-1.058 0.141-1.407l11-9c0.052-0.042 0.113-0.059 0.17-0.089s0.11-0.072 0.171-0.091c0.065-0.020 0.132-0.017 0.2-0.023 0.060-0.006 0.12-0.022 0.18-0.017 0.066 0.006 0.127 0.034 0.191 0.053 0.059 0.017 0.12 0.024 0.176 0.052 0.068 0.035 0.123 0.093 0.183 0.144 0.039 0.033 0.086 0.054 0.121 0.094l0.011 0.014c0.001 0.001 0.003 0.002 0.004 0.003s0.001 0.003 0.002 0.004l5.306 6.189 11.372-10.56h-3.454c-0.553 0-1-0.447-1-0.999s0.447-1 1-1h6c0.006 0 0.012 0.003 0.018 0.003 0.081 0.002 0.157 0.027 0.235 0.048 0.049 0.013 0.101 0.014 0.146 0.034s0.083 0.058 0.127 0.085c0.067 0.043 0.137 0.081 0.192 0.138 0.004 0.004 0.010 0.006 0.014 0.011 0.034 0.036 0.048 0.082 0.075 0.122 0.044 0.063 0.091 0.123 0.12 0.195 0.027 0.070 0.032 0.143 0.043 0.216 0.008 0.050 0.030 0.095 0.030 0.148v6c0 0.552-0.447 1-1 1zM47 32.001h-46c-0.553 0-1-0.448-1-1v-30.002c0-0.552 0.447-0.999 1-0.999s1 0.447 1 0.999v29.002h45c0.553 0 1 0.448 1 1s-0.447 1-1 1z"></path>
</svg>
