<!-- Generated by IcoMoon.io -->
<svg version="1.1" xmlns="http://www.w3.org/2000/svg" width="32" height="32" viewBox="0 0 32 32">
<title>alert-help</title>
<path d="M17.6 21.867c0 0.882-0.718 1.6-1.6 1.6s-1.6-0.718-1.6-1.6c0-0.882 0.718-1.6 1.6-1.6s1.6 0.718 1.6 1.6zM16.8 17.866c0 0.090-0.021 0.171-0.050 0.249-0.022 0.066-0.056 0.123-0.093 0.182-0.030 0.046-0.051 0.098-0.089 0.138-0.039 0.038-0.090 0.059-0.136 0.088-0.059 0.038-0.117 0.071-0.183 0.094-0.078 0.030-0.16 0.051-0.249 0.051s-0.171-0.021-0.249-0.051c-0.118-0.039-0.23-0.096-0.319-0.182-0.086-0.090-0.142-0.202-0.182-0.32-0.030-0.078-0.050-0.159-0.050-0.248v-1.599c0-0.442 0.358-0.801 0.8-0.801 1.764 0 3.2-1.434 3.2-3.2 0-1.764-1.435-3.199-3.2-3.199s-3.2 1.435-3.2 3.199c0 0.442-0.358 0.801-0.8 0.801s-0.8-0.359-0.8-0.801c0-2.646 2.153-4.8 4.8-4.8s4.8 2.153 4.8 4.8c0 2.373-1.735 4.336-4 4.719v0.881zM1.333 16c0 8.088 6.579 14.668 14.667 14.668s14.667-6.579 14.667-14.668c0-8.087-6.579-14.666-14.667-14.666s-14.667 6.579-14.667 14.666zM0 16c0-8.822 7.178-16 16-16s16 7.178 16 16c0 8.823-7.178 16-16 16s-16-7.177-16-16z"></path>
</svg>
