<!-- Generated by IcoMoon.io -->
<svg version="1.1" xmlns="http://www.w3.org/2000/svg" width="27" height="32" viewBox="0 0 27 32">
<title>alert-bell</title>
<path d="M27.022 24.178c0-1.529-1.067-2.809-2.489-3.129 0-0.036 0-0.036 0-0.071v-6.329c0-2.738-1.031-5.369-2.916-7.36-1.316-1.422-3.022-2.418-4.871-2.951 0.107-0.32 0.142-0.64 0.142-0.96 0-1.849-1.529-3.378-3.378-3.378s-3.378 1.529-3.378 3.378c0 0.32 0.036 0.64 0.142 0.96-1.849 0.533-3.556 1.529-4.871 2.951-1.884 1.991-2.916 4.622-2.916 7.36v6.329c0 0.036 0 0.071 0 0.071-1.422 0.32-2.489 1.6-2.489 3.129 0 1.778 1.422 3.2 3.2 3.2h6.044c0 0.107 0 0.249 0 0.356 0 2.347 1.92 4.267 4.267 4.267s4.267-1.92 4.267-4.267c0-0.107 0-0.249 0-0.356h6.044c1.778 0 3.2-1.422 3.2-3.2zM13.511 1.422c1.067 0 1.956 0.889 1.956 1.956 0 0.213-0.036 0.427-0.107 0.64-0.32-0.036-0.64-0.071-0.996-0.107-0.036 0-0.107 0-0.142 0h-1.422c-0.036 0-0.107 0-0.142 0-0.32 0-0.676 0.036-0.996 0.107-0.071-0.213-0.107-0.427-0.107-0.64 0-1.067 0.889-1.956 1.956-1.956zM3.911 14.649c0-2.382 0.889-4.658 2.524-6.364 1.742-1.884 4.231-2.951 6.791-2.951h0.604c2.56 0 5.013 1.067 6.791 2.916 1.636 1.742 2.524 3.982 2.524 6.364v6.364h-19.236v-6.329zM13.511 30.578c-1.564 0-2.844-1.28-2.844-2.844 0-0.107 0-0.249 0.036-0.356h5.618c0 0.107 0.036 0.249 0.036 0.356 0 1.564-1.28 2.844-2.844 2.844zM3.2 25.956c-0.996 0-1.778-0.782-1.778-1.778s0.782-1.778 1.778-1.778h20.622c0.996 0 1.778 0.782 1.778 1.778s-0.782 1.778-1.778 1.778h-20.622z"></path>
</svg>
