<!-- Generated by IcoMoon.io -->
<svg version="1.1" xmlns="http://www.w3.org/2000/svg" width="32" height="32" viewBox="0 0 32 32">
<title>amenity-fridge</title>
<path d="M24.277 5.575v-0.067l-0.067 0.067-10.314-5.191h-0.067l-6.269 2.899-0.067-0.067v23.324h0.067l10.583 5.46 5.932-2.966 0.202-0.067 0.067-0.067-0.067-23.324zM23.469 27.686v0.674l-4.854 2.494v-0.741l4.854-2.427zM18.615 19.597v-10.314l4.854-2.427v10.314l-4.854 2.427zM23.469 18.383v8.359l-4.854 2.427v-8.359l4.854-2.427zM13.829 1.261l9.437 4.719-5.123 2.562-9.64-4.786 5.325-2.494zM8.301 26.068v-0.674l9.437 4.719v0.809l-9.437-4.854zM8.301 24.45v-8.359l9.437 4.719v8.359l-9.437-4.719zM8.301 15.013v-10.449l9.437 4.719v10.449l-9.437-4.719zM16.256 23.237v0 2.562l0.202 0.135 0.202-0.135 0.607-0.27v-0.202l-0.27-0.135-0.337 0.202v-1.955l0.607-0.27v-0.202l-0.27-0.135-0.741 0.404zM16.256 12.451v0 2.562l0.202 0.135 0.202-0.135 0.607-0.27v-0.202l-0.27-0.135-0.337 0.202v-1.955l0.607-0.27v-0.202l-0.27-0.135-0.741 0.404z"></path>
</svg>
