<!-- Generated by IcoMoon.io -->
<svg version="1.1" xmlns="http://www.w3.org/2000/svg" width="32" height="32" viewBox="0 0 32 32">
<title>amenity-furniture</title>
<path d="M28.8 11.52c-0.723 0-1.384 0.25-1.92 0.656v-0.016c0-3.176-2.584-5.76-5.76-5.76h-10.24c-3.176 0-5.76 2.584-5.76 5.76v0.016c-0.536-0.406-1.197-0.656-1.92-0.656-1.764 0-3.2 1.436-3.2 3.2v10.24c0 0.354 0.287 0.64 0.64 0.64h5.12c0.353 0 0.64-0.286 0.64-0.64v-1.92h19.2v1.92c0 0.354 0.286 0.64 0.64 0.64h5.12c0.354 0 0.64-0.286 0.64-0.64v-10.24c0-1.764-1.436-3.2-3.2-3.2zM25.6 12.16v4.48h-8.96v-8.96h4.48c2.47 0 4.48 2.010 4.48 4.48zM6.4 12.16c0-2.47 2.010-4.48 4.48-4.48h4.48v8.96h-8.96v-4.48zM30.72 24.32h-3.84v-1.92c0-0.354-0.286-0.64-0.64-0.64h-20.48c-0.353 0-0.64 0.286-0.64 0.64v1.92h-3.84v-9.6c0-1.059 0.861-1.92 1.92-1.92s1.92 0.861 1.92 1.92v2.56c0 0.354 0.287 0.64 0.64 0.64h20.48c0.354 0 0.64-0.286 0.64-0.64v-2.56c0-1.059 0.861-1.92 1.92-1.92s1.92 0.861 1.92 1.92v9.6z"></path>
</svg>
