<!-- Generated by IcoMoon.io -->
<svg version="1.1" xmlns="http://www.w3.org/2000/svg" width="33" height="32" viewBox="0 0 33 32">
<title>amenity-balcony</title>
<path d="M32.543 12.569l-1.505-0.869-1.419 0.824-0.006 1.809-6.040 3.51-0.835-0.482 0.002-0.664-1.505-0.869-0.574 0.334-7.82-4.515 0.034-10.433-1.505-0.869-1.419 0.824-0.010 1.823-6.867 3.993 0.005-1.634-1.505-0.869-1.419 0.824-0.034 11.992-0.001 0-0.006 2.099 21.173 12.223 11.218-6.519 0.006-2.097v-0.001l-0.001 0.001 0.034-10.433zM31.038 12.338l0.404 0.233-0.319 0.185-0.404-0.233 0.319-0.185zM30.168 12.841l0.682 0.394-0.006 1.798-0.682-0.394 0.006-1.798zM22.74 20.622l0.001-0.829 7.593-4.412-0.001 0.859-7.593 4.383zM27.437 18.549l-0.029 6.77-0.622 0.361 0.030-6.773 0.62-0.359zM26.263 19.227l-0.028 6.42-0.646-0.372 0.029-5.678 0.645-0.37zM29.603 17.298l-0.013 4.019-1.607-0.928 0.010-2.161 1.611-0.931zM27.979 21.236l1.608 0.929-0.002 0.793 0.771 0.445-2.394 1.391 0.016-3.559zM30.138 22.64l0.018-5.661 0.685-0.396-0.020 6.451-0.683-0.394zM22.736 18.209l0.104 0.060-0.104 0.061 0-0.121zM22.734 18.969l6.889-4.004 0.164 0.095-7.054 4.099 0-0.191zM22.728 21.27l2.339-1.351-0.032 5.674 0.779 0.45-3.106 1.805 0.019-6.578zM19.928 16.588l-0.111 0.065-0.001 0.448-8.206-4.739 0.498-0.289 7.82 4.515zM12.29 11.329l-0.594 0.342 0.031-9.793 0.594-0.342-0.031 9.793zM11.37 0.982l0.403 0.233-0.319 0.185-0.403-0.233 0.319-0.185zM10.5 1.485l0.672 0.39-0.009 1.803-0.672-0.388 0.009-1.805zM4.755 8.404l0.488 0.282 1.185-0.689-0.006 1.369-1.668-0.963zM6.981 7.676l0.622-0.362-0.012 2.727-0.619-0.357 0.008-2.008zM8.076 7.040l1.856-1.079-0.015 5.424-1.774-1.025 0.015-3.342-0.082 0.022zM4.692 8.368l-0.743-0.429 6.722-3.907-0.001 0.861-5.979 3.475zM10.484 5.64l0.674-0.392-0.017 6.425-0.672-0.39 0.015-5.644zM11.121 3.772l0.041-0.024v0.001l-0.041 0.023zM9.957 3.62l0.164 0.095-6.722 3.906 0.157 0.092-0.157-0.090-0.164-0.095 6.721-3.908zM19.814 17.643l-0.001 0.395-17.426-10.074 0.341-0.198 17.087 9.878zM17.456 25.658l0.033-6.942 2.318 1.339-0.022 7.748-3.019-1.743 0.69-0.401zM16.283 25.7l0.029-7.664 0.623 0.359-0.030 6.944-0.622 0.361zM1.925 9.198l0.001-0.97 17.885 10.327-0.003 0.969-17.884-10.326zM15.761 17.721h0l-0.031 7.947-0.646-0.372 0.030-7.976 0.646 0.402zM12.043 22.527l0.033-6.938 2.49 1.437-0.029 7.744-3.187-1.84 0.694-0.403zM10.87 22.57l0.029-7.659 0.623 0.359-0.030 6.939-0.622 0.361zM10.347 14.592l-0.030 7.945-0.646-0.372 0.029-7.946 0.647 0.373zM7.309 19.806l0.012-2.585 0.010-2.204 0.792-0.46 0.006-1.245 1.022 0.59-0.029 7.744-2.497-1.442 0.685-0.398zM6.137 19.848l0.029-7.671 0.623 0.359-0.030 6.95-0.622 0.361zM7.335 14.376l0.006-1.276 0.001-0.243 0.236 0.136-0.006 1.245-0.238 0.138zM5.615 11.86l-0.030 7.956-0.646-0.372 0.029-7.957 0.647 0.374zM3.044 17.343l0.003-0.896 1.355-0.787-0.013 3.253-2.030-1.172 0.685-0.398zM1.926 17.352l0.020-7.611 0.565 0.326-0.019 6.957-0.566 0.328zM3.049 15.595l0.015-5.209 1.355 0.782-0.014 3.638-1.356 0.788zM2.519 7.354l-0.567 0.329 0.004-1.684 0.567-0.328-0.004 1.682zM1.573 5.119l0.403 0.233-0.319 0.185-0.403-0.233 0.319-0.185zM0.703 6.259v-0.637l0.696 0.408-0.031 11.358-0.696-0.408 0.031-10.721zM20.996 30.606l-20.146-11.634 0.001-0.403v-0.849l20.146 11.633-0.001 1.253zM20.997 28.502l-0.661-0.382 0.029-10.376 0-0.086v-0.689l0.661 0.382-0.030 11.151zM20.917 16.651l0.319-0.185 0.404 0.233-0.319 0.185-0.404-0.233zM22.186 17.019l-0.030 11.094-0.612 0.333 0.030-11.094 0.612-0.333zM31.77 24.676l-10.227 5.93 0.001-1.244 10.226-5.93-0.001 1.244zM31.958 22.685l-0.587 0.341 0.031-9.793 0.587-0.341-0.031 9.793z"></path>
</svg>
