<!-- Generated by IcoMoon.io -->
<svg version="1.1" xmlns="http://www.w3.org/2000/svg" width="19" height="32" viewBox="0 0 19 32">
<title>amenity-bluetooth</title>
<path d="M10.325 2.078v12.447l7.428-5.847-7.428-6.599zM10.325 29.429l7.428-6.6-7.428-5.847v12.448zM19.166 9.227l-8.291 6.526 8.291 6.526c0.153 0.121 0.244 0.303 0.25 0.499s-0.075 0.384-0.22 0.513l-9.044 8.037c-0.001 0.001-0.003 0.002-0.003 0.003l-0.013 0.011c-0.015 0.013-0.033 0.018-0.048 0.029-0.046 0.036-0.094 0.070-0.151 0.091-0.073 0.028-0.15 0.043-0.227 0.043h-0.001c-0.357 0-0.683-0.261-0.683-0.623v-13.673l-7.98 6.282c-0.118 0.093-0.258 0.138-0.396 0.138-0.194 0-0.384-0.087-0.512-0.253-0.219-0.287-0.168-0.699 0.114-0.921l8.513-6.702-8.513-6.702c-0.282-0.222-0.333-0.634-0.114-0.92s0.626-0.338 0.909-0.116l7.98 6.282v-13.677c0-0.324 0.262-0.551 0.571-0.6 0.031-0.005 0.059-0.014 0.089-0.016 0.008 0 0.015-0.004 0.023-0.004 0.046 0 0.084 0.015 0.125 0.023 0.030 0.007 0.060 0.007 0.089 0.017 0.079 0.026 0.148 0.066 0.206 0.119 0.002 0.002 0.005 0.002 0.007 0.004l0.002 0.002c0.006 0.005 0.013 0.011 0.018 0.016l9.040 8.033c0.146 0.129 0.226 0.318 0.22 0.512-0.006 0.197-0.097 0.379-0.25 0.5z"></path>
</svg>
