<!-- Generated by IcoMoon.io -->
<svg version="1.1" xmlns="http://www.w3.org/2000/svg" width="32" height="32" viewBox="0 0 32 32">
<title>amenity-car</title>
<path d="M1.198 20.193l1.429 0.829v-0.788l-1.429-0.829v0.788zM28.299 15.795c-0.136-0.082-0.435-0.17-0.864 0.143-0.259 0.184-0.51 0.483-0.708 0.822-0.538 0.924-0.429 1.631-0.054 1.849 0.061 0.034 0.163 0.075 0.293 0.075 0.15 0 0.34-0.054 0.578-0.218 0.259-0.184 0.51-0.483 0.708-0.822 0.197-0.347 0.327-0.707 0.361-1.026 0.054-0.53-0.17-0.748-0.313-0.822zM28.067 16.557c-0.027 0.238-0.129 0.53-0.293 0.809s-0.361 0.517-0.558 0.659c-0.17 0.122-0.265 0.122-0.272 0.116-0.075-0.041-0.095-0.496 0.252-1.101 0.163-0.279 0.361-0.517 0.558-0.659 0.136-0.102 0.225-0.116 0.259-0.116 0.007 0 0.014 0 0.014 0 0.014 0.007 0.061 0.082 0.041 0.292zM16.786 23.646c0.061-0.605-0.204-0.856-0.374-0.952s-0.517-0.204-1.014 0.15c-0.272 0.197-0.538 0.503-0.748 0.87-0.211 0.36-0.34 0.748-0.381 1.081-0.061 0.605 0.204 0.856 0.374 0.952 0.102 0.061 0.225 0.088 0.347 0.088 0 0 0 0 0 0 0.483 0 1.007-0.415 1.408-1.108 0.218-0.367 0.354-0.748 0.388-1.081zM15.977 23.558c-0.020 0.218-0.122 0.496-0.272 0.754-0.245 0.421-0.497 0.612-0.619 0.68 0-0.027 0-0.068 0.007-0.122 0.020-0.218 0.122-0.496 0.272-0.754s0.34-0.483 0.517-0.612c0.041-0.027 0.075-0.048 0.102-0.061-0.007 0.027-0.007 0.068-0.007 0.116zM31.415 10.405l-8.75-5.043c-0.095-0.054-0.204-0.068-0.313-0.041l-1.34 0.367-3.198-1.856c-0.129-0.075-0.286-0.075-0.408 0l-9.471 5.458c-0.082 0.048-0.143 0.116-0.177 0.197l-1.701 4.201-5.886 4.207c-0.082 0.075-0.129 0.184-0.129 0.299v3.942c0 0.143 0.075 0.279 0.204 0.353l9.26 5.336c0.061 0.034 0.129 0.054 0.204 0.054 0.068 0 0.143-0.020 0.204-0.054 0.007 0 2.191-1.271 3.089-1.794 0.143 0.51 0.422 0.897 0.83 1.128 0.259 0.15 0.544 0.224 0.851 0.224 0.367 0 0.748-0.102 1.136-0.306 0.66-0.347 1.259-0.958 1.701-1.713 0.435-0.748 0.66-1.563 0.633-2.304l6.838-3.949c0.15 0.462 0.422 0.822 0.796 1.040 0.259 0.15 0.544 0.224 0.857 0.224 1.007 0 2.116-0.795 2.831-2.026 0.531-0.918 0.742-1.903 0.599-2.726l1.334-1.115c0.088-0.075 0.143-0.184 0.143-0.306l0.075-3.433c0-0.15-0.082-0.292-0.211-0.367zM9.295 26.297v0.469l-8.437-4.867v-0.503l8.437 4.901zM9.295 23.762v1.59l-8.437-4.901v-1.59l8.437 4.901zM26.21 16.468c0.361-0.625 0.851-1.121 1.374-1.4 0.265-0.143 0.524-0.211 0.755-0.211 0.163 0 0.313 0.041 0.442 0.109 0.32 0.184 0.503 0.605 0.51 1.149 0.007 0.571-0.184 1.237-0.524 1.828s-0.823 1.088-1.32 1.366c-0.476 0.265-0.932 0.319-1.252 0.136-0.313-0.177-0.49-0.564-0.51-1.088-0.027-0.598 0.163-1.264 0.524-1.89zM27.203 14.348c-0.66 0.347-1.259 0.958-1.701 1.713-0.408 0.707-0.633 1.475-0.64 2.175l-6.872 3.969c-0.157-0.415-0.415-0.734-0.762-0.931-1.116-0.639-2.735 0.15-3.688 1.801-0.075 0.129-0.143 0.258-0.204 0.394l-3.225 1.862v-1.59l5.743-4.092c0.020-0.014 0.034-0.027 0.054-0.048l12.73-7.341 2.143-0.884-0.054 2.624-0.966 0.809c-0.15-0.231-0.34-0.421-0.578-0.551-0.558-0.326-1.259-0.292-1.98 0.088zM14.235 26.453c-0.68-0.394-0.674-1.781 0.014-2.97 0.551-0.952 1.422-1.611 2.13-1.611 0.163 0 0.313 0.034 0.442 0.109 0.313 0.177 0.49 0.564 0.51 1.088 0.020 0.591-0.163 1.264-0.524 1.89s-0.851 1.122-1.374 1.4c-0.463 0.238-0.885 0.272-1.197 0.095zM20.801 13.491v2.345l-4.348 2.508 1.238-3.059 3.109-1.794zM28.619 11.391l-1.422-2.073c-0.034-0.054-0.075-0.095-0.129-0.129-0.020-0.014-3.055-1.767-5.062-2.929l0.395-0.109 7.886 4.547-1.667 0.693zM26.258 12.696l-0.476-2.080 0.939-0.544 1.157 1.686-1.619 0.938zM21.617 15.367v-2.352l3.422-1.978 0.476 2.073-3.899 2.257zM8.914 9.665l8.696-5.009 8.41 4.88-8.662 5.003-8.444-4.873zM6.92 13.736l1.402-3.473 8.532 4.921-1.402 3.473-8.532-4.921zM14.942 19.303l-5.253 3.745-8.464-4.914 5.226-3.725 8.491 4.894zM12.962 24.625c-0.034 0.177-0.048 0.347-0.054 0.517l-2.79 1.631v-0.503l2.844-1.645zM9.091 23.897v1.101l-1.701-0.992v-1.101l1.701 0.992z"></path>
</svg>
