<!-- Generated by IcoMoon.io -->
<svg version="1.1" xmlns="http://www.w3.org/2000/svg" width="32" height="32" viewBox="0 0 32 32">
<title>amenity-stove</title>
<path d="M15.665 19.784l-13.278-6.639v9.427l13.278 6.639v-9.427zM14.669 27.552l-11.286-5.643v-7.236l11.286 5.643v7.236zM14.071 16c-0.066 0-0.066-0.066 0-0.133 0-0.332 0.133-0.598 0.398-0.73 0.199-0.133 0.531-0.133 0.863 0 0.465 0.266 0.797 0.797 0.797 1.261 0 0.332-0.133 0.598-0.398 0.73-0.133 0.066-0.266 0.133-0.398 0.133s-0.332-0.066-0.465-0.133c-0.398-0.199-0.73-0.664-0.797-1.129zM10.021 14.739c-0.465-0.266-0.797-0.797-0.797-1.261 0-0.332 0.133-0.598 0.398-0.73 0.199-0.133 0.531-0.133 0.863 0 0.465 0.266 0.797 0.797 0.797 1.261 0 0.332-0.133 0.598-0.398 0.73-0.133 0.066-0.266 0.133-0.398 0.133s-0.332-0.066-0.465-0.133zM6.569 12.282c0-0.066 0-0.066 0-0.133 0-0.332 0.133-0.598 0.398-0.73 0.199-0.133 0.531-0.133 0.863 0 0.465 0.266 0.797 0.797 0.797 1.261 0 0.332-0.133 0.598-0.398 0.73-0.066 0.066-0.266 0.133-0.398 0.133s-0.332-0.066-0.465-0.133c-0.398-0.199-0.73-0.664-0.797-1.129zM2.984 11.22c-0.465-0.266-0.797-0.797-0.797-1.261 0-0.332 0.133-0.598 0.398-0.73 0.199-0.133 0.531-0.133 0.863 0 0.465 0.266 0.797 0.797 0.797 1.261 0 0.332-0.133 0.598-0.398 0.73-0.066 0.066-0.266 0.133-0.398 0.133s-0.332-0.066-0.465-0.133zM31.067 7.967l-16.465-7.967-13.876 6.639v17.129l16.531 8.232 14.008-7.037-0.199-16.996zM17.723 4.050c0 0.199-0.266 0.465-0.664 0.664-1.129 0.531-2.921 0.531-3.983 0-0.398-0.199-0.664-0.465-0.664-0.664s0.266-0.465 0.664-0.664c1.129-0.531 2.921-0.531 3.983 0 0.465 0.199 0.664 0.398 0.664 0.664zM16.727 30.672l-15.137-7.568v-11.353l15.137 7.568v11.353zM16.727 18.257l-15.137-7.568v-2.589l15.137 7.568v2.589zM17.191 14.805l-15.27-7.635 12.747-6.042 2.656 1.261c-1.394-0.531-3.319-0.531-4.581 0.133-0.797 0.398-1.195 0.929-1.195 1.527s0.398 1.195 1.195 1.527c0.664 0.332 1.527 0.531 2.456 0.531s1.793-0.199 2.456-0.531c0.664-0.398 1.062-0.929 1.062-1.527 0-0.531-0.332-1.062-0.929-1.394l12.083 5.842-12.681 6.307zM30.27 24.365l-12.548 6.307v-14.938l12.548-6.307v14.938zM18.387 9.095c-1.394-0.664-3.519-0.664-4.913 0-0.797 0.398-1.195 0.929-1.195 1.527s0.398 1.195 1.195 1.527c0.664 0.332 1.527 0.531 2.456 0.531s1.793-0.199 2.456-0.531c0.797-0.398 1.195-0.929 1.195-1.527s-0.465-1.129-1.195-1.527zM17.922 11.353c-1.129 0.531-2.921 0.531-3.983 0-0.398-0.199-0.664-0.465-0.664-0.664s0.266-0.465 0.664-0.664c1.129-0.531 2.921-0.531 3.983 0 0.398 0.199 0.664 0.465 0.664 0.664s-0.266 0.465-0.664 0.664zM11.017 5.577c-1.394-0.664-3.519-0.664-4.913 0-0.73 0.398-1.195 0.929-1.195 1.593s0.398 1.195 1.195 1.527c0.664 0.332 1.527 0.531 2.456 0.531s1.793-0.199 2.456-0.531c0.797-0.398 1.195-0.929 1.195-1.527s-0.465-1.195-1.195-1.593zM10.552 7.834c-1.129 0.531-2.921 0.531-3.983 0-0.398-0.199-0.664-0.465-0.664-0.664s0.266-0.465 0.664-0.664c0.531-0.266 1.261-0.398 1.992-0.398s1.461 0.133 1.992 0.398c0.398 0.199 0.664 0.465 0.664 0.664s-0.266 0.465-0.664 0.664zM24.959 6.108c-1.394-0.664-3.519-0.664-4.913 0-0.797 0.398-1.195 0.929-1.195 1.527s0.398 1.195 1.195 1.527c0.664 0.332 1.527 0.531 2.456 0.531s1.793-0.199 2.456-0.531c0.797-0.398 1.195-0.929 1.195-1.527s-0.398-1.129-1.195-1.527zM24.561 8.365c-1.129 0.531-2.921 0.531-3.983 0-0.398-0.199-0.664-0.465-0.664-0.664s0.266-0.465 0.664-0.664c1.129-0.531 2.921-0.531 3.983 0 0.398 0.199 0.664 0.465 0.664 0.664s-0.266 0.465-0.664 0.664z"></path>
</svg>
