<!-- Generated by IcoMoon.io -->
<svg version="1.1" xmlns="http://www.w3.org/2000/svg" width="32" height="32" viewBox="0 0 32 32">
<title>amenity-bed-1</title>
<path d="M32 17.854v-8.861c0-0.006 0-0.013-0.006-0.019 0-0.025-0.006-0.057-0.012-0.082-0.006-0.031-0.012-0.063-0.019-0.088-0.006-0.013-0.006-0.025-0.012-0.038 0-0.006 0-0.013-0.006-0.019-0.012-0.019-0.025-0.031-0.038-0.050-0.012-0.025-0.031-0.050-0.050-0.075-0.012-0.013-0.019-0.019-0.031-0.031-0.025-0.019-0.050-0.038-0.075-0.050-0.012-0.013-0.031-0.025-0.050-0.038l-10.131-5.084c-0.012-0.006-0.025-0.006-0.038-0.013-0.131-0.050-0.275-0.050-0.406 0-0.012 0.006-0.025 0.006-0.038 0.013l-2.131 1.075c-0.006 0-0.006 0.006-0.012 0.013s-0.019 0.006-0.031 0.013c-0.044 0.025-0.081 0.063-0.119 0.101-0.006 0.006-0.012 0.019-0.019 0.031-0.031 0.044-0.056 0.088-0.075 0.132-0.006 0.013-0.012 0.025-0.012 0.038-0.019 0.050-0.025 0.101-0.025 0.157v3.959l-14.281 7.164-1.744-0.88c-0.013-0.006-0.025-0.006-0.038-0.013-0.131-0.050-0.275-0.050-0.406 0-0.013 0.006-0.025 0.006-0.038 0.013l-1.863 0.936c-0.219 0.113-0.331 0.358-0.269 0.597-0.013 0.050-0.025 0.101-0.025 0.151v6.354l5.319 2.683c0-0.006 0 0.006 0 0l5.356 2.69 2.662-1.345 13.075-6.573 5.587-2.859zM16.95 11.111l0.663 0.333c-1.113 0.547-2.1 1.357-1.831 1.98l0.037 0.088 5.069 2.746c0.244 0.182 0.544 0.27 0.844 0.245 0.056 0 0.119 0 0.181-0.006 0.625-0.057 1.238-0.226 1.813-0.49 0.481-0.207 0.931-0.484 1.344-0.811l1.025 0.515-4.744 2.375-9.256-4.657 4.775-2.394c0.012 0.031 0.044 0.057 0.081 0.075zM26.4 16.151v0.993l-4.8 2.413v-0.999l4.8-2.407zM24.6 13.857c0.050-0.006 0.1-0.006 0.144-0.006 0.313 0 0.494 0.075 0.525 0.151 0.094 0.214-0.506 0.949-1.769 1.508-0.512 0.239-1.063 0.39-1.625 0.446-0.406 0.025-0.631-0.057-0.669-0.145-0.094-0.214 0.506-0.949 1.769-1.508 0.506-0.239 1.056-0.39 1.625-0.446zM22.756 13.813c-0.988 0.44-1.875 1.112-2.056 1.735l-4.425-2.401c0.069-0.226 0.644-0.817 1.819-1.339 0.6-0.295 1.256-0.465 1.931-0.496l4.1 2.068c-0.475 0.088-0.938 0.239-1.369 0.434zM19.2 9.86l9.262 4.657-1.775 0.892-1.219-0.61c0.288-0.251 0.4-0.647 0.288-1.012-0.081-0.17-0.219-0.295-0.394-0.364l0.006-0.013-5.262-2.627c-0.637 0.006-1.262 0.138-1.85 0.383l-0.825-0.415 1.769-0.892zM28.8 14.944v0.993l-1.869 0.936v-0.993l1.869-0.936zM19.731 5.838l9.069 4.556v3.092l-9.069-4.556v-3.092zM29.869 18.979v0zM29.869 10.401l1.069-0.534v7.378l-1.069 0.534v-7.378zM20.394 4.971l0.938-0.471 8.944 4.493-0.938 0.471-8.944-4.493zM13.331 24.308l15.469-7.774v1.785l-15.469 7.774v-1.785zM13.331 22.699l5.6-2.809v0.999l-5.6 2.815v-1.006zM18.613 19.456l-5.275 2.646v-1.175c0-0.050-0.006-0.107-0.025-0.157-0.006-0.013-0.012-0.025-0.012-0.038-0.019-0.050-0.044-0.094-0.075-0.132-0.006-0.013-0.012-0.019-0.019-0.031-0.031-0.038-0.075-0.075-0.119-0.101-0.006-0.006-0.019-0.006-0.031-0.013-0.006 0-0.006-0.006-0.012-0.013l-7.469-3.745 3.813-1.91 9.225 4.669zM11.2 28.361v0zM11.2 22.328l1.069-0.534v4.833l-1.069 0.534v-4.833zM1.456 16.773l0.937-0.471 9.206 4.632-0.938 0.471-9.206-4.632zM9.069 27.827v0zM3.2 24.88v0zM1.069 23.805v0zM1.069 22.605v-4.833l9.069 4.556v4.833l-9.069-4.556z"></path>
</svg>
