<!-- Generated by IcoMoon.io -->
<svg version="1.1" xmlns="http://www.w3.org/2000/svg" width="32" height="32" viewBox="0 0 32 32">
<title>amenity-tv</title>
<path d="M21.346 30.936l-0.004 0.002-14.224-7.080 14.228 7.078zM30.074 13.624l-27.247-13.624-0.93 0.465v16.534l9.862 4.913v0.322l-1.137-0.565-3.862 1.967v0.944l14.589 7.33 3.933-1.967v-0.944l-0.35-0.179-4.291-2.145v-0.336l8.575 4.277 0.365-0.157 0.501-0.215v-16.62h-0.007zM24.11 29.214l-1.43 0.715-1.294 0.615-13.438-6.679 2.71-1.38 1.137 0.565v1.395l7.981 4.048 0.858-0.601v-0.429l3.476 1.752zM12.474 24.036v-1.566l6.937 3.433v1.631l-6.937-3.497zM28.923 29.757l-26.224-13.116v-15.297l7.316 3.662 18.93 9.44-0.021 15.311z"></path>
</svg>
