<!-- Generated by IcoMoon.io -->
<svg version="1.1" xmlns="http://www.w3.org/2000/svg" width="40" height="32" viewBox="0 0 40 32">
<title>amenity-pool</title>
<path d="M20.001 4.783l-2.45 1.408c-0.157-0.352-0.329-0.686-0.548-0.97 0 0 0.001 0.001 0.001 0.002-0.356-0.462-0.831-0.799-1.548-0.898-0.023-0.004-0.073-0.003-0.073-0.003-0.96-0.029-1.424 0.572-1.611 1.093-0.206 0.533-0.252 1.141-0.255 1.626-0.355-0.455-0.828-0.788-1.538-0.885-0.020-0.004-0.074-0.003-0.074-0.003-0.957-0.028-1.424 0.571-1.612 1.093-0.212 0.55-0.251 1.183-0.251 1.673 0 0.45 0.037 0.781 0.039 0.789 0.026 0.226 0.292 0.401 0.592 0.395 0.040-0.001 0.075-0.014 0.112-0.021l-10.695 6.149 19.91 11.449 19.91-11.449-19.91-11.448zM17.435 9.946c0.069 0.363 0.139 0.739 0.208 1.117l-2.478 1.346c-0.070-0.38-0.142-0.756-0.211-1.115l2.481-1.348zM17.837 12.052c0.079 0.44 0.149 0.823 0.206 1.118l-2.478 1.346c-0.060-0.32-0.128-0.7-0.203-1.119l2.475-1.345zM14.814 5.683c0.187-0.444 0.382-0.564 0.57-0.545v-0.007c0.332 0.012 0.899 0.617 1.278 1.571l-2.026 1.165c-0-0.007 0.004-0.014 0.003-0.022 0-0.003-0.037-0.3-0.037-0.714-0-0.452 0.047-1.032 0.212-1.449zM15.64 8.647l1.378-0.741c0.081 0.355 0.17 0.781 0.263 1.249l-2.485 1.35c-0.092-0.45-0.18-0.848-0.259-1.172l-0.017-0.077 1.119-0.608zM11.124 8.962c0-0.451 0.051-1.031 0.216-1.448 0.184-0.444 0.379-0.564 0.566-0.544v-0.008c0.348 0.012 0.952 0.678 1.33 1.711l-2.147 1.234c0.052-0.068 0.086-0.143 0.075-0.23v-0.002c-0-0-0.040-0.298-0.040-0.713zM2.698 16.23l10.9-6.268c0.082 0.366 0.168 0.78 0.254 1.214l-9.971 5.734-1.183-0.68zM20.001 26.18l-14.817-8.52 8.926-5.132c0.238 1.289 0.45 2.507 0.562 2.975 0.045 0.198 0.277 0.345 0.535 0.355 0.031 0.002 0.062 0 0.097-0.003 0.251-0.023 0.43-0.177 0.445-0.359 0-0.002 0-0.003 0.001-0.005 0.002-0.031 0.001-0.061-0.007-0.093-0.007-0.026-0.014-0.058-0.021-0.093l2.579-1.401c0 0 0.006-0.001 0.015-0.003 0.099 0.072 0.228 0.119 0.368 0.125 0.034 0.001 0.065 0.001 0.096-0.003 0.245-0.023 0.421-0.171 0.445-0.348 0.001-0.007 0.003-0.014 0.004-0.021 0.002-0.029 0-0.059-0.007-0.089-0.128-0.525-0.392-2.077-0.677-3.588l1.459-0.839 14.818 8.52-14.819 8.52zM20.001 7.642l-1.724 0.992c-0.094-0.453-0.187-0.866-0.274-1.202l1.999-1.149 17.304 9.949-1.183 0.68-16.121-9.27zM19.453 15.602c0.137 0.035 0.22 0.175 0.184 0.312-0.254 0.994-0.743 1.676-1.452 2.029-0.073 0.036-0.148 0.069-0.222 0.096-0.755 0.284-1.516 0.138-1.911 0.023-0.3 0.724-0.75 1.229-1.34 1.5-0.054 0.024-0.105 0.046-0.158 0.065-0.315 0.119-0.631 0.161-0.924 0.161-0.719 0-1.29-0.257-1.323-0.273-0.129-0.059-0.185-0.211-0.126-0.339l0.102-0.223c0.058-0.127 0.206-0.185 0.336-0.128 0.039 0.017 0.966 0.414 1.778 0.047 0.507-0.234 0.876-0.74 1.096-1.504 0.019-0.065 0.062-0.12 0.122-0.153s0.13-0.040 0.196-0.022l0.214 0.062c0.018 0.004 0.035 0.009 0.053 0.016 0.007 0.003 0.973 0.39 1.772-0.007 0.501-0.249 0.856-0.766 1.053-1.537 0.017-0.065 0.059-0.122 0.118-0.157s0.128-0.045 0.194-0.027l0.238 0.061zM21.789 19.721c-0.129-0.059-0.185-0.211-0.127-0.339l0.102-0.223c0.058-0.127 0.206-0.185 0.337-0.128 0.039 0.017 0.966 0.414 1.778 0.047 0.507-0.234 0.876-0.74 1.096-1.504 0.019-0.065 0.062-0.12 0.122-0.153s0.13-0.040 0.196-0.022l0.214 0.062c0.018 0.004 0.035 0.009 0.053 0.016 0.007 0.003 0.973 0.39 1.772-0.007 0.501-0.249 0.856-0.766 1.053-1.537 0.017-0.065 0.059-0.122 0.118-0.157s0.128-0.045 0.194-0.027l0.238 0.061c0.137 0.035 0.22 0.175 0.185 0.312-0.254 0.994-0.743 1.676-1.452 2.029-0.073 0.036-0.148 0.069-0.222 0.096-0.756 0.284-1.516 0.138-1.912 0.023-0.3 0.724-0.75 1.229-1.34 1.5-0.054 0.024-0.105 0.046-0.158 0.065-0.315 0.119-0.631 0.161-0.924 0.161-0.719 0-1.29-0.257-1.323-0.273z"></path>
</svg>
