<!-- Generated by IcoMoon.io -->
<svg version="1.1" xmlns="http://www.w3.org/2000/svg" width="25" height="32" viewBox="0 0 25 32">
<title>amenity-elevator</title>
<path d="M0.050 5.446l-0.050 17.399 15.946 9.156 0.176-0.11 8.534-5.008 0.049-17.501v-0.352l-15.641-9.030-9.014 5.24-0.001 0.206zM10.013 17.57l-0.028 9.777-2.533-1.463 0.028-9.778 2.533 1.463zM6.545 15.576l-0.028 9.77-2.536-1.464 0.028-9.771 2.536 1.464zM3.134 12.589l-0.031 10.786-2.009-1.16 0.043-16.139 14.223 8.212-0.043 16.136-4.45-2.569 0.031-10.79-7.764-4.477zM22.92 9.26l-7.019 4.079-13.854-7.999 7.020-4.079 13.853 7.999zM23.821 10l-0.043 16.128-7.365 4.287 0.043-16.136 7.365-4.279zM8.882 12.703l-3.24-1.87c-0.428-0.247-0.775-0.049-0.776 0.443l-0.001 0.574c-0.001 0.491 0.344 1.089 0.771 1.336l3.24 1.871c0.425 0.246 0.775 0.049 0.776-0.442l0.001-0.574c0.001-0.492-0.346-1.091-0.771-1.337zM9.136 14.315c-0 0.163-0.117 0.229-0.259 0.147l-3.24-1.87c-0.142-0.082-0.258-0.282-0.257-0.446l0.001-0.574c0-0.163 0.117-0.229 0.259-0.147l3.24 1.871c0.142 0.082 0.258 0.282 0.257 0.446l-0.001 0.574zM11.547 22.099c-0.041-0.024-0.083-0.066-0.114-0.121-0.063-0.11-0.063-0.227 0.001-0.263l0.488-0.278c0.032-0.018 0.073-0.012 0.115 0.011s0.083 0.066 0.114 0.121l0.485 0.839c0.063 0.11 0.063 0.227-0.001 0.263-0.031 0.019-0.072 0.014-0.114-0.010s-0.083-0.066-0.113-0.12l-0.373-0.643-0.373 0.213c-0.032 0.018-0.073 0.013-0.115-0.011zM11.914 23.917l-0.485-0.843c-0.063-0.11-0.063-0.227 0.001-0.263 0.032-0.017 0.073-0.010 0.115 0.014s0.083 0.065 0.114 0.119l0.37 0.645 0.376-0.214c0.030-0.018 0.072-0.011 0.113 0.013s0.083 0.065 0.113 0.118c0.063 0.11 0.063 0.227-0.001 0.263l-0.488 0.281c-0.032 0.017-0.073 0.010-0.115-0.014s-0.083-0.065-0.114-0.119z"></path>
</svg>
