<!-- Generated by IcoMoon.io -->
<svg version="1.1" xmlns="http://www.w3.org/2000/svg" width="32" height="32" viewBox="0 0 32 32">
<title>amenity-disabled</title>
<path d="M21.869 27.555c0.681 0 1.41-0.221 2.165-0.657 2.581-1.491 4.681-5.128 4.681-8.109 0-2.136-1.093-3.516-2.785-3.516-0.681 0-1.41 0.221-2.165 0.657-2.581 1.491-4.682 5.128-4.682 8.109 0 2.136 1.093 3.516 2.785 3.516zM27.727 17.276c0.173 0.423 0.262 0.934 0.262 1.513 0 2.75-1.937 6.106-4.318 7.48-1.047 0.604-2.048 0.726-2.749 0.318 0.714 0.116 1.531-0.082 2.388-0.576 2.482-1.433 4.501-4.931 4.501-7.797 0-0.333-0.028-0.646-0.083-0.938zM22.884 25.573c-0.925 0.534-1.784 0.72-2.535 0.489-0.353-0.489-0.539-1.189-0.539-2.025 0-2.75 1.937-6.105 4.318-7.48 1.108-0.641 2.16-0.741 2.881-0.233 0.189 0.456 0.285 0.997 0.285 1.609-0 2.808-1.979 6.235-4.41 7.639zM27.982 14.341l-1.994-1.15c-0.206-0.119-0.43-0.213-0.667-0.281l0.637-6.247c0.039-0.385-0.080-0.688-0.327-0.831l-9.964-5.753c-0.049-0.028-0.102-0.048-0.165-0.062-0.014-0.003-0.028-0.005-0.043-0.006l-0.026 0.089-0.008-0.094c-0.035-0.006-0.087-0.007-0.095-0.003-0.047 0.002-0.097 0.011-0.164 0.026-0.018 0.003-0.036 0.007-0.053 0.012-0.078 0.024-0.151 0.056-0.221 0.097l-1.326 0.766c-0.189 0.109-0.376 0.278-0.539 0.488-0.105 0.135-0.198 0.282-0.275 0.437-0.038 0.077-0.073 0.156-0.102 0.236-0.061 0.165-0.1 0.327-0.116 0.479l-0.28 2.743c-1.119-0.502-2.532-0.296-3.947 0.522-3.153 1.821-5.718 6.264-5.718 9.906 0 1.438 0.394 2.595 1.139 3.348v0.591c0 0.346 0.131 0.612 0.369 0.75l0.232 0.134c-1.15 0.687-2.080 2.311-2.080 3.644 0 0.711 0.254 1.25 0.715 1.516l1.603 0.927c0.455 0.262 1.060 0.215 1.671-0.139 1.155-0.666 2.097-2.284 2.116-3.625l3.959 2.286 0.235 1.265c-0.776 0.835-1.276 2-1.276 2.979 0 0.711 0.254 1.25 0.715 1.516l1.603 0.927c0.193 0.111 0.412 0.168 0.651 0.168 0.324 0 0.668-0.103 1.019-0.307 1.165-0.671 2.115-2.315 2.117-3.666 0-0.7-0.246-1.233-0.699-1.506l-1.255-0.726 0.881-0.509c0.284 0.932 0.808 1.639 1.519 2.049l1.994 1.151c0.469 0.27 1.003 0.407 1.588 0.407 0.826 0 1.711-0.269 2.629-0.799 3.153-1.821 5.719-6.264 5.719-9.906 0.001-1.823-0.628-3.19-1.77-3.849zM24.081 15.282c0.82-0.474 1.598-0.714 2.312-0.714 0.473 0 0.901 0.108 1.272 0.322 0.937 0.541 1.454 1.712 1.454 3.299 0 3.44-2.423 7.637-5.402 9.357-0.82 0.474-1.598 0.714-2.311 0.714-0.473 0-0.901-0.108-1.271-0.323-0.938-0.541-1.454-1.712-1.454-3.299-0-3.44 2.423-7.637 5.401-9.356zM12.797 30.642l-0.494-0.285c-0.257-0.148-0.397-0.491-0.397-0.966 0-1.145 0.807-2.543 1.799-3.116 0.251-0.145 0.494-0.222 0.703-0.222 0.126 0 0.238 0.028 0.334 0.083l0.494 0.286c-0.097 0.042-0.195 0.091-0.293 0.147-1.214 0.701-2.164 2.347-2.164 3.748 0 0.111 0.006 0.22 0.018 0.325zM13.119 25.611l0.047 0.256c-0.051 0.035-0.101 0.073-0.152 0.113l-0.089-0.48 0.194 0.112zM14.409 25.419c-0.027 0-0.055 0.001-0.084 0.003 0-0.005 0-0.011 0-0.016v-1.689c0-0.373 0.294-0.882 0.616-1.068l1.26-0.727c-0.1 0.556-0.151 1.083-0.151 1.566 0 0.4 0.032 0.789 0.096 1.157l-1.412 0.815c-0.11-0.027-0.217-0.041-0.326-0.041zM13.596 23.717v1.439l-0.931-0.541-0.019-0.010-8.232-4.753c-0.020-0.011-0.052-0.076-0.052-0.2v-1.689c0-0.373 0.294-0.882 0.616-1.068l6.868-3.965 6.598 3.81c-0.923 1.297-1.621 2.751-2.022 4.212l-1.845 1.065c-0.55 0.317-0.982 1.064-0.982 1.7zM11.553 12.367l-6.274 3.622c0.362-3.298 2.632-6.918 5.339-8.481 0.496-0.287 0.99-0.489 1.47-0.603l-0.534 5.238c-0.007 0.073-0.008 0.145-0.001 0.223zM12.166 6.147c-0.629 0.115-1.272 0.359-1.912 0.729-3.050 1.761-5.568 5.962-5.749 9.58-0.452 0.345-0.777 0.972-0.777 1.507v0.032c-0.331-0.603-0.506-1.384-0.506-2.281 0-3.44 2.423-7.637 5.402-9.357 0.82-0.474 1.598-0.714 2.311-0.714 0.464 0 0.885 0.104 1.25 0.31l-0.020 0.193zM23.436 6.494c-0.561 0.324-1.055 1.107-1.125 1.783l-0.541 5.304h-0c-0.986 0.569-1.961 1.433-2.825 2.5l-6.671-3.852c0-0.004 0.001-0.008 0.001-0.013l0.98-9.6c0.039-0.388 0.36-0.905 0.673-1.085l1.326-0.766c0.038-0.022 0.068-0.033 0.085-0.038l9.043 5.221-0.946 0.546zM22.087 14.131c0.82-0.474 1.598-0.714 2.311-0.714 0.473 0 0.901 0.108 1.272 0.323l0.224 0.129c-0.696 0.085-1.427 0.347-2.178 0.781-3.18 1.836-5.767 6.317-5.767 9.988 0 0.867 0.138 1.632 0.411 2.277l-0.222-0.128c-0.938-0.541-1.454-1.713-1.454-3.3-0-3.44 2.423-7.637 5.402-9.356zM25.327 6.598l-0.632 6.2c-0.103-0.009-0.199-0.014-0.292-0.014-0.588 0-1.213 0.138-1.86 0.412l0.495-4.856c0.042-0.412 0.384-0.963 0.719-1.155l1.326-0.778c0.037-0.022 0.092-0.026 0.138-0.026 0.030 0 0.055 0.002 0.071 0.003l0.020 0.001c0.012 0.027 0.028 0.095 0.016 0.213zM16.676 28.592c-0.011-0.403-0.158-0.711-0.426-0.865-0.116-0.067-0.249-0.101-0.391-0.101-0.192 0-0.401 0.061-0.612 0.182-0.704 0.407-1.255 1.361-1.255 2.174 0 0.426 0.153 0.749 0.43 0.909 0.116 0.067 0.249 0.101 0.392 0.101h0.001c0.173 0 0.354-0.052 0.54-0.148-0.134 0.113-0.271 0.217-0.414 0.3-0.403 0.234-0.783 0.285-1.037 0.139-0.257-0.148-0.397-0.491-0.397-0.966 0-1.145 0.807-2.543 1.799-3.116 0.251-0.145 0.495-0.222 0.703-0.222 0.126 0 0.238 0.028 0.334 0.083v0c0.257 0.148 0.397 0.491 0.397 0.966 0.001 0.183-0.026 0.372-0.065 0.564zM15.2 30.418c-0.139 0.080-0.272 0.123-0.384 0.123-0.064 0-0.12-0.014-0.167-0.041-0.13-0.075-0.205-0.264-0.205-0.518 0-0.644 0.471-1.46 1.029-1.782 0.139-0.080 0.272-0.123 0.384-0.123 0.064 0 0.12 0.014 0.167 0.041 0.13 0.075 0.205 0.264 0.205 0.518 0 0.644-0.471 1.461-1.029 1.783zM6.15 21.588l0.048 0.028c-0.012 0.009-0.026 0.017-0.038 0.026l-0.010-0.054zM6.568 23.837l-0.292-1.573c0.076-0.067 0.151-0.134 0.23-0.191l-0.058-0.313 0.077 0.044 0.069 2.019-0.025 0.015zM5.088 23.226l0.143 0.77c0.015 0.078 0.063 0.145 0.13 0.183l0.806 0.46 0.024 0.016c0.089 0.041 0.231 0.031 0.312-0.050l0.595-0.344c0.087-0.050 0.139-0.143 0.135-0.243l-0.063-1.842 0.514 0.296c0.023 0.118 0.034 0.231 0.034 0.345 0 1.146-0.807 2.544-1.799 3.116-0.404 0.233-0.783 0.285-1.037 0.139-0.257-0.148-0.398-0.492-0.398-0.966 0-0.591 0.218-1.266 0.602-1.881zM3.774 25.432l-0.494-0.285c-0.257-0.148-0.398-0.492-0.398-0.966 0-1.145 0.807-2.543 1.799-3.116 0.001-0.001 0.002-0.001 0.004-0.002l0.218 1.171c-0.709 0.834-1.148 1.931-1.148 2.873 0.001 0.111 0.007 0.22 0.019 0.325z"></path>
</svg>
