<!-- Generated by IcoMoon.io -->
<svg version="1.1" xmlns="http://www.w3.org/2000/svg" width="32" height="32" viewBox="0 0 32 32">
<title>amenity-water-kettle</title>
<path d="M27.471 1.096l-1.147-0.688-0.138-0.046-0.321-0.092-0.321 0.046-0.321 0.092-2.752 1.605c-0.138-0.092-0.275-0.183-0.413-0.229-3.945-2.248-10.412-2.248-14.403 0-2.798 1.605-3.027 3.807-2.982 4.679v4.954l-0.917 0.55 0.092 0.183c0.275 0.55 0.55 1.147 0.826 1.789v6.743c-0.092 0.321-0.092 0.642-0.092 0.963 0 0.138 0 0.321 0 0.505v2.752c0 0.138-0.046 0.321-0.046 0.505s0 0.367 0.046 0.505v0.138c0.229 1.514 1.284 2.844 3.073 3.899 1.927 1.147 4.495 1.789 7.201 1.789s5.275-0.642 7.201-1.789c1.743-1.055 2.844-2.385 3.073-3.899l0.046-0.459c0-0.046 0-0.092 0-0.183s0-0.138 0-0.183v-3.303c0-0.092 0-0.138 0-0.229 0-0.275 0-0.596-0.046-0.826v-2.844l1.422-0.826c0.413-0.229 0.78-0.642 1.055-1.147s0.459-1.009 0.459-1.514v-12.339c-0.046-0.55-0.229-0.917-0.596-1.101zM6.372 10.454l-0.78 0.459v-1.33c0.229 0.321 0.459 0.596 0.78 0.872zM9.903 12.426v6.513l-2.523-5.137 2.431-1.422c0.046 0.046 0.046 0.046 0.092 0.046zM8.573 11.921l-1.743 1.009c-0.963-0.367-1.422-0.642-1.605-0.872l1.835-1.055c0.275 0.183 0.505 0.367 0.78 0.505 0.229 0.138 0.459 0.275 0.734 0.413zM6.28 13.802l3.486 7.018c-0.321-0.138-0.826-0.413-1.514-1.055l-2.844-6.376c0.275 0.183 0.596 0.367 0.872 0.413zM10.591 21.829l0.046-0.229c0 0-0.046 0-0.046 0v-8.99c3.807 1.055 8.394 0.596 11.376-1.147 0.963-0.55 1.697-1.193 2.202-1.927v12.155c0 0.138 0 0.275 0 0.413v0.092c-0.138 1.238-1.055 2.385-2.615 3.257-3.67 2.11-9.678 2.11-13.348 0-1.56-0.872-2.477-2.064-2.615-3.303v-6.192l0.138 0.321c0.642 1.422 1.33 2.89 1.926 4.128l0.046 0.046c0.734 0.78 1.697 1.33 2.798 1.651l0.092-0.275c0 0 0 0 0 0zM25.407 13.573v0.275l-0.092 0.413-0.183 0.367v-8.532c0-0.046-0.092-1.238-0.688-2.248l0.963-0.596v10.321zM21.417 2.472c1.697 1.009 2.615 2.293 2.615 3.67s-0.917 2.66-2.615 3.67c-3.578 2.11-9.357 2.11-12.935 0-1.697-1.009-2.615-2.293-2.615-3.67s0.917-2.706 2.615-3.67c1.789-1.055 4.128-1.56 6.468-1.56s4.679 0.505 6.468 1.56zM5.592 26.279c-0.046-0.092-0.046-0.183-0.046-0.229l-0.046-0.092c-0.092-0.367-0.092-0.734-0.046-1.101 0.55 0.734 1.284 1.376 2.248 1.927 1.926 1.101 4.495 1.697 7.201 1.697s5.275-0.596 7.201-1.697c0.963-0.55 1.697-1.193 2.248-1.927 0.092 0.734-0.092 1.468-0.459 2.156-0.046 0.092-0.092 0.183-0.183 0.321-0.459 0.688-1.147 1.284-2.018 1.835-1.101 0.642-2.431 1.147-3.945 1.376h-0.092c-0.046 0-0.092 0-0.138 0h-0.092c-0.826 0.138-1.651 0.183-2.477 0.183 0 0 0 0 0 0s0 0 0 0c-2.569 0-4.954-0.596-6.743-1.651-1.422-0.78-2.293-1.743-2.615-2.798zM11.692 6.371c0.138 0.413 0.459 0.826 0.963 1.101 0.642 0.367 1.422 0.55 2.293 0.55 0.367 0 0.734-0.046 1.055-0.092l0.275-0.092c0.092-0.046 0.229-0.046 0.321-0.092 0.046 0 0.092-0.046 0.183-0.046 0.183-0.092 0.321-0.138 0.459-0.229 0.183-0.092 0.229-0.138 0.321-0.229l0.092-0.092c0.275-0.229 0.459-0.505 0.55-0.826h0.046v-1.193c0-0.138 0-0.275-0.046-0.413-0.092-0.505-0.459-1.009-1.055-1.33-1.238-0.688-3.211-0.688-4.449 0-0.55 0.321-0.917 0.78-1.009 1.238-0.046 0.183-0.046 0.321-0.046 0.459v1.055l0.046 0.229zM17.197 4.858c0 0.321-0.229 0.596-0.596 0.826-0.917 0.505-2.385 0.505-3.303 0-0.413-0.229-0.596-0.505-0.596-0.826s0.229-0.596 0.596-0.826c0.459-0.275 1.055-0.413 1.651-0.413s1.193 0.138 1.651 0.413c0.413 0.229 0.596 0.505 0.596 0.826z"></path>
</svg>
