<!-- Generated by IcoMoon.io -->
<svg version="1.1" xmlns="http://www.w3.org/2000/svg" width="32" height="32" viewBox="0 0 32 32">
<title>amenity-toaster</title>
<path d="M3.397 7.146l14.444 8.354 3.573-2.063-14.393-8.354-3.623 2.063zM5.41 7.146l1.107-0.654v1.258l-1.107-0.604zM7.524 8.354v-1.862l11.978 6.945-1.61 0.906-10.367-5.989zM1.082 7.65v0.201l-0.050 12.682-0.050-0.050 0.050 0.906v0.302l0.151 0.352 0.201 0.201 16.658 9.612h0.050c0.151 0.101 0.302 0.101 0.453 0.101 0.201 0 0.403-0.050 0.604-0.151l10.82-6.241c0.302-0.151 0.554-0.453 0.755-0.755 0.201-0.352 0.302-0.705 0.302-1.007v-13.186c0-0.403-0.151-0.755-0.503-0.956l-16.608-9.562-0.403-0.101-0.352 0.050-11.122 6.391-0.403 0.302-0.050 0.050-0.503 0.856zM13.462 1.007l15.551 8.958-10.468 6.039h-0.050c-0.050 0.050-0.101 0.050-0.201 0.151-0.050 0.050-0.151 0.101-0.201 0.201l-15.551-9.008 10.921-6.341zM18.596 30.75v-12.984c0-0.050 0-0.151 0-0.151l0.201-0.453 0.101-0.151 10.267-5.989 0.805-0.453h0.050c0 0 0 0.050 0 0.050v13.135c0 0.151-0.050 0.352-0.151 0.554s-0.252 0.352-0.403 0.403l-10.871 6.241v-0.201zM2.038 21.087v-12.934l15.652 9.008c-0.050 0.101-0.050 0.201-0.050 0.302s0 0.201 0 0.252v12.28l-15.601-8.908zM29.768 14.393l-2.315-1.309-6.844 3.976v2.869l2.315 1.308 6.844-3.976v-2.869zM27.453 14.242l0.805 0.453-5.385 3.12-0.805-0.453 5.385-3.12zM23.427 19.778v-1.157l5.385-3.12v1.158l-5.385 3.12zM21.615 19.325v-1.157l0.805 0.453v1.157l-0.805-0.453zM24.534 11.676l3.573-2.063-14.444-8.354-3.623 2.063 14.494 8.354zM24.534 10.518l-10.418-5.989v-1.862l11.978 6.945-1.56 0.906zM12.053 3.322l1.107-0.654v1.258l-1.107-0.604z"></path>
</svg>
