<!-- Generated by IcoMoon.io -->
<svg version="1.1" xmlns="http://www.w3.org/2000/svg" width="32" height="32" viewBox="0 0 32 32">
<title>amenity-bed</title>
<path d="M31.36 14.080h-3.84c-0.354 0-0.64 0.287-0.64 0.64v1.92h-21.76v-9.6c0-0.353-0.287-0.64-0.64-0.64h-3.84c-0.353 0-0.64 0.287-0.64 0.64v17.92c0 0.354 0.287 0.64 0.64 0.64h3.84c0.353 0 0.64-0.286 0.64-0.64v-1.92h21.76v1.92c0 0.354 0.286 0.64 0.64 0.64h3.84c0.354 0 0.64-0.286 0.64-0.64v-10.24c0-0.353-0.286-0.64-0.64-0.64zM3.84 24.32h-2.56v-16.64h2.56v16.64zM5.12 21.76v-3.84h21.76v3.84h-21.76zM30.72 24.32h-2.56v-8.96h2.56v8.96zM9.148 13.892l-1.28-1.28c-0.25-0.25-0.25-0.655 0-0.905s0.655-0.25 0.905 0l1.28 1.28c0.25 0.25 0.25 0.655 0 0.905-0.125 0.125-0.289 0.188-0.452 0.188s-0.328-0.063-0.452-0.188zM13.44 14.080c-0.353 0-0.64-0.287-0.64-0.64s0.287-0.64 0.64-0.64h10.24c0.354 0 0.64 0.287 0.64 0.64s-0.286 0.64-0.64 0.64h-10.24z"></path>
</svg>
