<!-- Generated by IcoMoon.io -->
<svg version="1.1" xmlns="http://www.w3.org/2000/svg" width="32" height="32" viewBox="0 0 32 32">
<title>amenity-dryer</title>
<path d="M13.762 0l-9.782 4.738h-0.083v20.031l14.341 7.231v-0.083l9.782-4.488h0.083v-20.281l-14.341-7.148zM27.025 8.229v18.452l-8.787 4.073v-18.286l8.787-4.239zM17.161 12.551v17.87l-12.268-6.234v-17.87l12.268 6.234zM5.141 5.319l8.621-4.239 12.6 6.317-8.704 4.239-12.517-6.317zM10.943 9.891l-5.637-2.826v2.743l5.637 2.909v-2.826zM6.301 9.226v-0.499l3.647 1.829v0.499l-3.647-1.829zM10.861 13.631c-0.829-0.416-1.658-0.665-2.404-0.665-1.824 0-3.067 1.33-3.067 3.408 0 2.992 2.404 6.649 5.388 8.145 0.829 0.416 1.658 0.665 2.404 0.665 1.824 0 3.067-1.33 3.067-3.408 0-2.992-2.404-6.649-5.388-8.145zM15.254 21.777c0 1.496-0.746 2.41-2.072 2.41-0.58 0-1.243-0.166-1.989-0.499-2.653-1.33-4.808-4.655-4.808-7.231 0-1.496 0.746-2.41 2.072-2.41 0.58 0 1.243 0.166 1.989 0.499 2.57 1.33 4.808 4.655 4.808 7.231zM10.032 14.712c-0.663-0.249-1.243-0.332-1.741-0.249-0.58 0.083-1.078 0.499-1.326 0.997-0.249 0.582-0.332 1.33-0.166 2.161 0.414 2.41 2.57 5.070 4.808 5.901 0.497 0.166 0.912 0.249 1.243 0.249 0.166 0 0.332 0 0.414 0 0.58-0.083 1.078-0.499 1.326-0.997 0.249-0.582 0.332-1.33 0.166-2.161-0.332-2.41-2.487-5.070-4.725-5.901zM9.783 15.709c1.907 0.748 3.813 2.992 4.145 5.070 0.083 0.332 0.083 0.748 0 1.164s-0.414 0.665-0.829 0.748c-0.332 0.083-0.829 0-1.326-0.166-1.907-0.748-3.813-2.992-4.145-5.070-0.083-0.332-0.083-0.748 0-1.164s0.414-0.665 0.829-0.748c0.083 0 0.166 0 0.332 0 0.332 0 0.663 0 0.995 0.166zM15.917 14.379c-0.414-0.166-0.746-0.665-0.746-1.081 0-0.332 0.249-0.499 0.497-0.499 0.083 0 0.249 0 0.332 0.083 0.414 0.166 0.746 0.665 0.746 1.081 0 0.332-0.249 0.499-0.497 0.499-0.083 0-0.249 0-0.332-0.083zM13.762 13.299c-0.414-0.249-0.746-0.748-0.746-1.081s0.249-0.499 0.497-0.499c0.083 0 0.249 0 0.332 0.083 0.414 0.166 0.746 0.665 0.746 1.081 0 0.332-0.249 0.499-0.497 0.499-0.083 0-0.249 0-0.332-0.083z"></path>
</svg>
