<!-- Generated by IcoMoon.io -->
<svg version="1.1" xmlns="http://www.w3.org/2000/svg" width="32" height="32" viewBox="0 0 32 32">
<title>amenity-security</title>
<path d="M5.688 18.769c-0.246-0.142-0.493-0.219-0.718-0.219-0.149 0-0.29 0.034-0.415 0.105-0.628 0.357-0.631 1.522-0.007 2.602 0.311 0.54 0.721 0.956 1.131 1.193 0.247 0.142 0.493 0.219 0.719 0.219 0.149 0 0.29-0.034 0.415-0.105 0.627-0.357 0.631-1.522 0.008-2.602-0.312-0.541-0.721-0.957-1.131-1.194zM6.397 21.857c-0.029 0-0.135-0.008-0.313-0.11-0.302-0.175-0.606-0.501-0.834-0.897-0.45-0.779-0.387-1.393-0.3-1.487 0 0 0.006-0.001 0.019-0.001 0.029 0 0.135 0.008 0.313 0.111 0.302 0.174 0.606 0.501 0.834 0.896 0.449 0.778 0.386 1.393 0.28 1.489zM27.202 13.137l-1.547 0.901 0.695 0.401 0.85-0.489 4.088 2.382-0.828 0.481-4.805-2.774-0.009 3.036-5.347 3.788c-0.108-0.090-0.235-0.171-0.376-0.244l0.022-2.572 3.961-2.294c0.931-0.531 1.189-1.786 0.937-3.19 0.337-1.822-1.209-4.627-3.577-5.995-0.486-0.28-1.24-0.413-1.937-0.413-0.586 0-1.132 0.094-1.445 0.271l-17.267 9.975c0 0-1.079 0.805-0.387 2.226 0.189 0.388 0.523 0.543 0.922 0.543 0.327 0 0.699-0.107 1.072-0.274 0.057 0.96 0.389 2.060 1.003 3.124 0.679 1.176 1.571 2.083 2.465 2.599 0.538 0.311 1.076 0.479 1.569 0.479 0.325 0 0.63-0.073 0.903-0.229 0.008-0.005 0.015-0.012 0.024-0.017l-0.002 0.004 8.436-4.887-0.006 0.698c0 0-0 0-0 0-0.439 0.253-0.712 0.602-0.715 0.989 0 0.007 0.001 0.013 0.002 0.020l-0.001-0.002 0.011 2.767c-0.005 0.786 1.099 1.403 2.404 1.403 0.191 0 0.385-0.013 0.582-0.041 0.788-0.11 1.844-0.561 1.849-1.356l-0.001-0.355 5.020-1.37 4.669 2.696 1.54-0.895 0.024-8.607-4.799-2.781zM18.234 7.037c0.157-0.089 0.556-0.179 1.096-0.179 0.628 0 1.25 0.125 1.585 0.319 1.578 0.911 3.278 3.032 3.273 4.869-0.002 0.608-0.214 1.037-0.634 1.277l-10.636 6.165c-0.729 0.299-1.367 0.444-1.951 0.444-1.395 0-2.356-0.858-3.572-1.944-0.103-0.092-0.211-0.186-0.316-0.28-0.422-0.45-0.872-0.817-1.325-1.084-0.74-0.533-1.464-0.911-2.167-1.126l14.645-8.461zM2.246 18.11l-0.082 0.039c-0.395 0.205-0.754 0.318-1.011 0.318-0.218 0-0.255-0.075-0.29-0.148-0.373-0.766-0.002-1.198 0.152-1.334l1.712-0.962c0.237 0.034 0.491 0.094 0.762 0.183l-0.245 0.142c0.068-0.039 0.138-0.073 0.21-0.101-0.072 0.029-0.142 0.062-0.21 0.101-0.571 0.327-0.902 0.963-0.998 1.762zM8.351 23.388c-0.11 0.404-0.302 0.687-0.574 0.841-0.157 0.090-0.342 0.135-0.549 0.135-0.356 0-0.773-0.132-1.204-0.381-0.809-0.467-1.607-1.315-2.19-2.325-0.779-1.349-1.093-2.816-0.818-3.829 0.11-0.404 0.302-0.687 0.574-0.841 0.157-0.090 0.341-0.135 0.549-0.135 0.356 0 0.772 0.132 1.204 0.381 0.181 0.105 0.362 0.231 0.539 0.371 0.061 0.050 0.121 0.101 0.181 0.151 0.549 0.473 1.063 1.097 1.471 1.804 0.779 1.348 1.092 2.815 0.818 3.828zM9.088 23.519c0.247-1.006 0.049-2.366-0.597-3.722 0.732 0.501 1.511 0.838 2.477 0.838 0.655 0 1.395-0.154 2.262-0.515l10.676-6.189c0.12-0.068 0.226-0.147 0.322-0.233-0.024 0.53-0.167 1.156-0.675 1.445l-14.466 8.375zM19.239 18.456l-0.027 3.201c-0.018 0.021-0.060 0.061-0.137 0.104-0.206 0.116-0.484 0.18-0.784 0.18-0.545 0-0.902-0.198-0.978-0.293l0.018-2.087 1.909-1.106zM18.8 25.108c-0.16 0.023-0.322 0.034-0.483 0.034-0.756 0-1.341-0.248-1.586-0.494-0.043-0.044-0.115-0.127-0.115-0.209l-0.003-1.786c0.435 0.251 1.034 0.407 1.697 0.408 0.667 0.001 1.273-0.155 1.712-0.408 0.007-0.004 0.012-0.008 0.019-0.012v0.783l0.004 1.020c-0.002 0.222-0.557 0.568-1.244 0.664zM20.948 23.31l-0.001-0.334 7.679-3.439 0.003 1.677-7.681 2.096zM29.735 24.204l-3.014-1.74 2.611-0.712-0.007-3.298-8.587 3.846-0.002-0.635c0-0.077-0.013-0.152-0.034-0.226l5.56-3.939 2.271 1.309 0.793-0.355-2.976-1.716 0.004-1.483 3.401 1.964-0.020 6.986zM31.273 24.12l-0.131 0.076 0.020-6.977 0.131-0.076-0.020 6.977z"></path>
</svg>
