<!-- Generated by IcoMoon.io -->
<svg version="1.1" xmlns="http://www.w3.org/2000/svg" width="32" height="32" viewBox="0 0 32 32">
<title>amenity-microwave</title>
<path d="M30.638 12.016l-18.113-9.056-12.078 5.927-0.447-0.895 12.526-6.263 19.236 9.618-0.064 0.143 0.064-0.032v12.302l-12.414 6.263-0.559-1.007 11.855-5.927v-9.842l-11.184 5.592-0.559-1.007 11.738-5.818zM4.026 17.051c0.112 0 0.335 0 0.447 0.112 0.447 0.335 0.895 0.895 0.895 1.454 0 0.335-0.224 0.559-0.559 0.559-0.112 0-0.335 0-0.447-0.112-0.447-0.335-0.895-0.895-0.895-1.454 0-0.335 0.224-0.559 0.559-0.559zM0 7.881l19.348 9.73v12.414l-19.348-9.73v-12.414zM1.118 9.782v9.842l17.111 8.611v-9.842l-17.111-8.611zM3.020 13.193l2.908 1.454v-0.951l-2.908-1.454v0.951zM3.020 14.535v4.529l2.908 1.454v-4.529l-2.908-1.454zM6.598 14.032v6.822l9.842 4.921v-6.822l-9.842-4.921zM2.125 10.565c0.112 0 0.112 0 0.224 0.112l14.651 7.493c0.224 0.112 0.447 0.447 0.447 0.671v8.388c0 0.112-0.112 0.224-0.224 0.224s-0.112-0.112-0.224-0.112l-14.65-7.381c-0.224-0.112-0.447-0.447-0.447-0.671v-8.388c0-0.224 0.112-0.335 0.224-0.335z"></path>
</svg>
