<!-- Generated by IcoMoon.io -->
<svg version="1.1" xmlns="http://www.w3.org/2000/svg" width="32" height="32" viewBox="0 0 32 32">
<title>amenity-carpark</title>
<path d="M23.68 17.867h-0.847l-2.399-5.998c-0.098-0.243-0.333-0.402-0.595-0.402h-7.68c-0.262 0-0.497 0.159-0.595 0.402l-2.399 5.998h-0.847c-0.353 0-0.64 0.286-0.64 0.64v5.12c0 0.354 0.287 0.64 0.64 0.64h0.64v1.92c0 0.354 0.287 0.64 0.64 0.64s0.64-0.286 0.64-0.64v-1.92h11.52v1.92c0 0.354 0.286 0.64 0.64 0.64s0.64-0.286 0.64-0.64v-1.92h0.64c0.354 0 0.64-0.286 0.64-0.64v-5.12c0-0.354-0.286-0.64-0.64-0.64zM12.593 12.747h6.813l2.048 5.12h-10.909l2.048-5.12zM23.040 22.987h-14.080v-3.84h14.080v3.84zM31.36 5.067c0.354 0 0.64 0.287 0.64 0.64s-0.286 0.64-0.64 0.64h-1.92v19.84c0 0.354-0.286 0.64-0.64 0.64s-0.64-0.286-0.64-0.64v-19.84h-24.32v19.84c0 0.354-0.287 0.64-0.64 0.64s-0.64-0.286-0.64-0.64v-19.84h-1.92c-0.353 0-0.64-0.287-0.64-0.64s0.287-0.64 0.64-0.64h30.72z"></path>
</svg>
