<!-- Generated by IcoMoon.io -->
<svg version="1.1" xmlns="http://www.w3.org/2000/svg" width="25" height="32" viewBox="0 0 25 32">
<title>amenity-washer</title>
<path d="M9.891 0l-9.808 4.738h-0.083v20.031l14.379 7.231v-0.083l9.808-4.488h0.083v-20.28l-14.379-7.148zM13.299 30.421l-12.301-6.234v-17.87l12.301 6.234v17.87h-0zM13.798 11.636l-12.551-6.317 8.644-4.239 12.634 6.317-8.727 4.239zM23.19 26.681l-8.81 4.072v-18.285l8.81-4.239v18.452zM7.152 10.012l-5.721-2.861v2.776l5.721 2.945v-2.861zM6.142 11.19l-3.702-1.851v-0.505l3.702 1.851v0.505zM7.068 13.798c-0.841-0.421-1.683-0.673-2.44-0.673-1.851 0-3.113 1.346-3.113 3.45 0 3.029 2.44 6.731 5.469 8.245 0.841 0.421 1.683 0.673 2.44 0.673 1.851 0 3.113-1.346 3.113-3.45 0-3.029-2.44-6.731-5.469-8.245zM9.424 24.484c-0.589 0-1.262-0.168-2.019-0.505-2.692-1.346-4.88-4.711-4.88-7.32 0-1.515 0.757-2.44 2.103-2.44 0.589 0 1.262 0.168 2.019 0.505 2.608 1.346 4.88 4.712 4.88 7.32 0 1.515-0.757 2.44-2.103 2.44zM7.915 19.355c-0.016 0.023-0.399 0.576-0.989 0.321-0.78-0.339-0.614-0.934-0.593-0.998 0.044-0.129-0.020-0.27-0.147-0.321-0.127-0.050-0.271 0.007-0.329 0.131-0.109 0.238-0.476 0.304-0.64 0.275-0.378-0.069-0.414-0.475-0.417-0.521l-0.256 0.014-0.256 0.012c0.014 0.295 0.207 0.883 0.837 0.999 0.189 0.035 0.456 0.011 0.699-0.095 0.082 0.349 0.329 0.729 0.898 0.976 0.522 0.228 0.972 0.070 1.277-0.156 0.092 0.21 0.24 0.441 0.461 0.626 0.2 0.166 0.522 0.343 0.99 0.343 0.117 0 0.243-0.011 0.379-0.036l-0.093-0.504c-0.382 0.069-0.697 0.007-0.937-0.187-0.329-0.265-0.415-0.681-0.416-0.733 0-0.113-0.073-0.212-0.182-0.245-0.107-0.033-0.224 0.008-0.287 0.102zM6.226 14.892c-0.673-0.252-1.262-0.336-1.767-0.252-0.589 0.084-1.094 0.505-1.346 1.010-0.252 0.589-0.336 1.346-0.168 2.188 0.421 2.44 2.608 5.132 4.88 5.974 0.505 0.168 0.925 0.252 1.262 0.252 0.168 0 0.336 0 0.421 0 0.589-0.084 1.094-0.505 1.346-1.010 0.252-0.589 0.336-1.346 0.168-2.188-0.336-2.44-2.524-5.133-4.796-5.974zM10.181 22.212c-0.084 0.421-0.421 0.673-0.841 0.757-0.336 0.084-0.841 0-1.346-0.168-1.935-0.757-3.87-3.029-4.207-5.132-0.084-0.336-0.084-0.757 0-1.178s0.421-0.673 0.841-0.757c0.084 0 0.168 0 0.336 0 0.336 0 0.673 0 1.010 0.168 1.935 0.757 3.87 3.029 4.207 5.132 0.084 0.336 0.084 0.757 0 1.178zM10.012 13.462c-0.421-0.252-0.757-0.757-0.757-1.094s0.253-0.505 0.505-0.505c0.084 0 0.252 0 0.336 0.084 0.421 0.168 0.757 0.673 0.757 1.094 0 0.337-0.253 0.505-0.505 0.505-0.084 0-0.252 0-0.336-0.084zM12.2 14.556c-0.421-0.168-0.757-0.673-0.757-1.094 0-0.337 0.253-0.505 0.505-0.505 0.084 0 0.252 0 0.336 0.084 0.421 0.168 0.757 0.673 0.757 1.094 0 0.337-0.253 0.505-0.505 0.505-0.084 0-0.252 0-0.336-0.084z"></path>
</svg>
