<!-- Generated by IcoMoon.io -->
<svg version="1.1" xmlns="http://www.w3.org/2000/svg" width="31" height="32" viewBox="0 0 31 32">
<title>amenity-oven</title>
<path d="M30.609 8.023l-16.31-7.892-13.745 6.577v5.524l-0.395 0.263c0.066 0.066 0.197 0.132 0.329 0.197-0.066-0.066-0.197-0.132-0.263-0.197 0 0-0.066 0-0.066 0s0 0 0 0.066v0.526c0 0 0 0.066 0 0.066s0.066 0.066 0.066 0.066 0.197 0.066 0.329 0.132v10.325l16.376 8.155 13.877-6.971-0.197-16.836zM1.409 13.087c0.197 0.132 0.395 0.197 0.592 0.263-0.197-0.066-0.395-0.197-0.592-0.263zM2.79 11.246c-0.46-0.263-0.789-0.789-0.789-1.25 0-0.329 0.132-0.592 0.395-0.723 0.197-0.132 0.526-0.132 0.855 0 0.46 0.263 0.789 0.789 0.789 1.25 0 0.329-0.132 0.592-0.395 0.723-0.066 0.066-0.263 0.132-0.395 0.132s-0.329-0.066-0.46-0.132zM7.131 13.416c-0.395-0.197-0.723-0.658-0.789-1.118 0-0.066 0-0.066 0-0.132 0-0.329 0.132-0.592 0.395-0.723 0.197-0.132 0.526-0.132 0.855 0 0.46 0.263 0.789 0.789 0.789 1.25 0 0.329-0.132 0.592-0.395 0.723-0.066 0.066-0.263 0.132-0.395 0.132s-0.329-0.066-0.46-0.132zM14.562 17.099c-0.395-0.197-0.723-0.658-0.789-1.118-0.066 0-0.066-0.066 0-0.132 0-0.329 0.132-0.592 0.395-0.723 0.197-0.132 0.526-0.132 0.855 0 0.46 0.263 0.789 0.789 0.789 1.25 0 0.329-0.132 0.592-0.395 0.723-0.132 0.066-0.263 0.132-0.395 0.132s-0.329-0.066-0.46-0.132zM9.761 14.732c-0.46-0.263-0.789-0.789-0.789-1.25 0-0.329 0.132-0.592 0.395-0.723 0.197-0.132 0.526-0.132 0.855 0 0.46 0.263 0.789 0.789 0.789 1.25 0 0.329-0.132 0.592-0.395 0.723-0.132 0.066-0.263 0.132-0.395 0.132s-0.329-0.066-0.46-0.132zM16.404 30.515l-14.995-7.497v-9.207c0.263 0.132 0.526 0.263 0.789 0.395v8.286l13.153 6.577v-8.352l1.052-0.658c0 1.315 0 10.457 0 10.457zM3.185 21.834v-7.103c3.486 1.776 8.878 4.406 11.18 5.59v7.103l-11.18-5.59zM16.404 19.335l-1.71-0.921-0.658 0.395-10.917-5.393 0.066-0.066v-0.526l-1.644-0.855 14.863 7.366c0-0.066 0 0 0 0zM16.404 18.217l-14.995-7.497v-2.565l14.995 7.497v2.565zM16.864 14.797l-15.126-7.563 12.627-5.985 2.631 1.25 0.46 0.263 11.969 5.787-12.561 6.248zM29.82 24.268l-12.43 6.248v-14.797l12.43-6.248v14.797z"></path>
</svg>
