<!-- Generated by IcoMoon.io -->
<svg version="1.1" xmlns="http://www.w3.org/2000/svg" width="32" height="32" viewBox="0 0 32 32">
<title>amenity-wifi</title>
<path d="M16.273 27.16c1.286 0 2.333-1.043 2.333-2.324 0-1.282-1.047-2.324-2.333-2.324s-2.333 1.042-2.333 2.324c0 1.28 1.047 2.324 2.333 2.324zM16.273 21.184c2.022 0 3.667 1.638 3.667 3.652 0 2.013-1.645 3.652-3.667 3.652s-3.666-1.639-3.666-3.652c0-2.014 1.644-3.652 3.666-3.652zM16.278 15.207c3.365 0 6.467 1.675 8.299 4.48 0.201 0.307 0.113 0.719-0.195 0.919-0.112 0.073-0.238 0.107-0.363 0.107-0.218 0-0.432-0.106-0.56-0.302-1.585-2.427-4.269-3.875-7.181-3.875s-5.595 1.448-7.18 3.875c-0.201 0.307-0.614 0.395-0.922 0.195s-0.396-0.611-0.195-0.919c1.831-2.805 4.933-4.48 8.298-4.48zM16.319 9.231c4.616 0 9.012 1.978 12.063 5.426 0.244 0.275 0.217 0.695-0.060 0.938s-0.697 0.216-0.941-0.059c-2.798-3.162-6.83-4.976-11.062-4.976-4.226 0-8.258 1.818-11.062 4.987-0.132 0.149-0.315 0.224-0.501 0.224-0.157 0-0.313-0.054-0.44-0.166-0.276-0.242-0.303-0.661-0.059-0.937 3.057-3.455 7.453-5.436 12.062-5.436zM31.804 10.681c-0.13 0.128-0.3 0.193-0.47 0.193-0.171 0-0.343-0.065-0.473-0.196-3.962-3.966-9.26-6.15-14.917-6.15-5.589 0-10.847 2.147-14.808 6.045-0.262 0.258-0.684 0.255-0.943-0.005-0.259-0.261-0.256-0.682 0.006-0.939 4.212-4.146 9.804-6.428 15.745-6.428 6.014 0 11.647 2.324 15.862 6.542 0.259 0.259 0.258 0.68-0.003 0.94z"></path>
</svg>
