<!-- Generated by IcoMoon.io -->
<svg version="1.1" xmlns="http://www.w3.org/2000/svg" width="25" height="32" viewBox="0 0 25 32">
<title>amenity-pet-friendly</title>
<path d="M24.437 19.325c-0.989-0.994-1.677-2.817-2.068-4.106 0.030-0.287 0.051-0.577 0.051-0.873 0-1.109-0.224-2.162-0.618-3.13 0.347-1.137 0.729-2.637 0.656-4.088-0.058-1.154-0.114-1.883-0.804-1.883-0.227 0-0.522 0.079-0.909 0.247-0.85 0.371-1.894 1.11-2.556 1.597-0.913-0.521-1.93-0.879-3.015-1.026-0.73-1.248-3.584-5.75-5.409-5.75-1.016 0-1.325 5.736-0.929 7.52-1.532 1.232-2.624 2.987-2.992 4.999-0.018 0.1-0.034 0.201-0.048 0.302-0 0.001-0.001 0.003-0.002 0.004-0.204 1.016-0.853 3.759-2.242 4.757-1.063 0.764-1.967 1.41-2.333 1.671-0.050 0.033-0.098 0.067-0.145 0.104-0.018 0.013-0.031 0.022-0.031 0.022s0.001 0.001 0.001 0.001c-0.508 0.399-0.871 0.974-0.991 1.635-0.029 0.158-0.044 0.322-0.044 0.489 0 1.134 0.7 2.104 1.692 2.504-0.184 0.647-0.289 1.502 0.088 2.222-0.168 0.658-0.182 1.414 0.196 2.169 0.363 0.724 1.019 1.074 1.76 1.074 0.096 0 0.194-0.006 0.292-0.018 0.815-0.097 1.528-0.577 1.697-1.853 1.463-0.175 3.631-1.002 6.835-3.79-0.833 3.123-0.544 7.41 0.214 7.473 0.476 0.040 0.932 0.059 1.37 0.059 11.136 0 10.284-12.334 10.284-12.334zM17.704 8.51l0.055-0.047c0.017-0.014 1.861-1.588 3.313-2.221 0.226-0.098 0.374-0.143 0.466-0.163 0.061 0.254 0.087 0.764 0.103 1.090 0.137 2.734-1.1 5.275-1.613 6.091-0.712-0.394-1.865-1.792-2.828-3.805-0.138-0.289-0.193-0.539 0.441-0.909l0.062-0.037zM10.032 1.195c0.966 0.405 2.619 2.264 4.067 4.654l-0.589 0.166c-1.197 0.078-2.322 0.409-3.329 0.939l-0.644 0.181c-0.187-1.645 0.096-4.866 0.495-5.94zM4.947 27.651c-0.084 1.054-0.534 1.251-1.007 1.307-0.066 0.008-0.132 0.012-0.196 0.012-0.476 0-0.822-0.21-1.029-0.623-0.52-1.036-0.008-2.145 0.384-2.761 0.42 0.698 1.145 1.189 1.992 1.289-0.070 0.249-0.121 0.507-0.143 0.775zM2.357 25.228c0.018-0.232 0.067-0.462 0.127-0.676 0.009 0 0.018 0.004 0.027 0.004 0.069 0 0.134-0.015 0.197-0.037 0 0 0 0 0 0 0.007 0 0.014-0.001 0.021-0.001 0.006 0.049 0.016 0.096 0.024 0.144-0.090 0.111-0.238 0.308-0.396 0.567zM5.886 27.053c0.021-0.071 0.044-0.139 0.069-0.206 0.125-0.023 0.247-0.053 0.366-0.097 0 0 0 0 0 0 0.001 0 0.039-0.018 0.040-0.019 0.216-0.083 1.659-0.7 3.403-1.451-1.444 0.988-2.739 1.578-3.878 1.773zM6.081 25.963l-0.061 0.025-0.009 0.004c-0.173 0.058-0.371 0.087-0.603 0.087-0.952 0-1.755-0.712-1.868-1.657l-0.076-0.635c0.582 0.043 1.046-0.111 1.193-0.452 0.234-0.542-0.419-1.344-1.457-1.792s-2.020-0.464-2.253 0.078c-0.176 0.408 0.123 1.016 0.726 1.483-0.029 0.076-0.048 0.158-0.060 0.242-0.476-0.342-0.789-0.898-0.789-1.527 0-0.115 0.010-0.23 0.031-0.342 0.082-0.448 0.328-0.852 0.692-1.138l0.010-0.008 0.001-0.001 0.010-0.008c0.033-0.025 0.067-0.049 0.101-0.073l0.012-0.008 0.011-0.008c0.367-0.262 1.271-0.908 2.335-1.673 0.983-0.706 1.635-2.054 2.057-3.322 0.156 0.091 0.335 0.146 0.529 0.146 0.584 0 1.057-0.473 1.057-1.057s-0.473-1.057-1.057-1.057c-0.004 0-0.008 0.001-0.012 0.001l0.003-0.019c0.013-0.091 0.027-0.182 0.043-0.272 0.139-0.757 0.393-1.467 0.734-2.121 0.163 0.252 0.388 0.493 0.692 0.625 0.283 0.122 0.744 0.196 1.338-0.154 0.353-0.208 0.635-0.399 0.861-0.553 0.679-0.46 0.801-0.543 1.329-0.294 0.495 0.233 0.503 0.578 0.475 1.167-0.005 0.105-0.010 0.207-0.010 0.303 0 0.405 0.162 0.757 0.456 0.991 0.448 0.356 1.151 0.426 2.090 0.208 0.749-0.173 1.698 0.257 2.363 1.071 0.623 0.764 1.863 2.977 0.004 7.072-0.176 0.074-0.351 0.168-0.534 0.229l-0.041 0.013-0.039 0.018c-0.71 0.323-9.784 4.215-10.285 4.407zM19.269 29.47c-1.377 0.927-3.444 1.278-5.396 1.278-0.225 0-0.456-0.006-0.691-0.017-0.232-1.028-0.323-4.891 0.522-7.153 0.451-0.195 0.874-0.379 1.255-0.544 0.139 0.205 0.46 0.607 1.038 0.958-0.581 0.504-1.116 1.317-0.773 2.308 0.563 1.624 2.118 1.456 2.704 1.393l0.075-0.008c0.752-0.078 1.268 0.041 1.455 0.334 0.174 0.272 0.084 0.944-0.21 1.438l0.020 0.012zM20.689 28.090c-0.054 0.096-0.274 0.288-0.341 0.38-0.015-0.257-0.071-0.69-0.201-0.892-0.257-0.401-0.852-0.849-2.227-0.707l-0.080 0.009c-0.755 0.082-1.52 0.084-1.842-0.847-0.354-1.023 0.939-1.707 0.993-1.736l0.817-0.418-0.857-0.328c-0.672-0.257-1.045-0.629-1.222-0.85 0.521-0.227 0.877-0.382 0.973-0.426 0.278-0.092 0.546-0.203 0.81-0.323 0.029-0.054 0.375-0.704 0.652-1.413 1.362-3.827 0.105-6.024-0.553-6.831-0.871-1.067-2.119-1.598-3.181-1.35-0.93 0.215-1.287 0.035-1.396-0.052-0.036-0.029-0.147-0.117-0.147-0.351 0-0.083 0.005-0.172 0.009-0.263 0.027-0.549 0.072-1.468-0.943-1.947-0.95-0.448-1.422-0.128-2.137 0.357-0.228 0.154-0.487 0.33-0.818 0.525-0.359 0.211-0.537 0.134-0.595 0.109-0.247-0.107-0.423-0.443-0.521-0.704 1.374-1.967 3.651-3.224 6.183-3.224 1.23 0 2.388 0.302 3.415 0.828-0.156 0.125-0.249 0.204-0.249 0.204-0.307 0.179-1.329 0.792-0.767 1.968s2.297 4.252 3.817 4.379c0.001 0 0.003 0 0.004 0 0.144 0 0.615-0.665 1.070-1.734 0.16 0.605 0.249 1.238 0.249 1.893 0 0.21-0.009 0.419-0.026 0.625l0-0c0 0 0.070 1.316 0.629 2.406 0.442 0.877 1.096 2.151 1.363 2.475 0.012 1.303-0.36 5.539-2.88 8.239zM12.271 15.386c0.584 0 1.057 0.473 1.057 1.057s-0.473 1.057-1.057 1.057c-0.584 0-1.057-0.473-1.057-1.057s0.473-1.057 1.057-1.057z"></path>
</svg>
