<!-- Generated by IcoMoon.io -->
<svg version="1.1" xmlns="http://www.w3.org/2000/svg" width="32" height="32" viewBox="0 0 32 32">
<title>amenity-bed-2</title>
<path d="M31.406 8.378c0.001-0.458-0.32-1.015-0.72-1.246l-12.182-7.033c-0.116-0.067-0.226-0.099-0.324-0.099-0.071 0-0.135 0.017-0.19 0.049l-1.903 1.133c0.006-0.004 0.013-0.005 0.019-0.008-0.14 0.071-0.229 0.233-0.23 0.471l-0.010 4.531c-0.725 0.44-1.311 1.015-1.752 1.731l-13.068 7.594c-0.122 0.071-0.182 0.163-0.182 0.256 0 0 0-0 0-0v2.44l-0.865 0.503v5.557l0.922 0.532v0.001l0.917-0.533v-2.047l10.912 6.342v2.917l0.922 0.533 0.916-0.379v-3.064l14.489-8.401v1.85l0.923 0.532 0.916-0.532v-2.964l0.255-0.152c0.052-0.030 0.093-0.078 0.128-0.134 0.030-0.049 0.055-0.104 0.068-0.171 0.010-0.048 0.015-0.101 0.015-0.158v0l0.022-10.050zM16.277 1.132c0.097 0 0.207 0.032 0.324 0.099-0.116-0.067-0.226-0.099-0.324-0.099zM26.807 12.766c-0.017 0.026-0.037 0.059-0.057 0.091-0.007 0.011-0.014 0.022-0.021 0.034-0.027 0.043-0.058 0.090-0.091 0.14-0.001 0.001-0.001 0.002-0.002 0.003-0.032 0.047-0.067 0.098-0.104 0.15-0.006 0.008-0.012 0.016-0.017 0.024-0.039 0.054-0.081 0.11-0.126 0.167-0.315 0.399-0.764 0.83-1.329 0.941 0.278-0.448 0.608-0.826 0.981-1.143 0.207-0.176 0.428-0.334 0.667-0.466 0.035-0.019 0.065-0.043 0.101-0.062l0.054 0.034c-0.015 0.022-0.034 0.052-0.055 0.086zM25.621 12.497c-0 0-0.001 0.001-0.001 0.001-0.102 0.083-0.201 0.17-0.297 0.262 0 0 0 0 0 0-0.516 0.492-0.957 1.112-1.318 1.863l-2.324-1.454-1.327-0.822c-0.079-0.049-0.109-0.149-0.069-0.229 0.313-0.623 0.73-1.131 1.257-1.541 0.106-0.083 0.218-0.161 0.334-0.235 0.001-0.001 0.002-0.001 0.003-0.002 0.116-0.074 0.236-0.144 0.361-0.211 0.064-0.034 0.127-0.070 0.194-0.102 0.028-0.013 0.058-0.020 0.088-0.020 0.033 0.001 0.063 0.009 0.090 0.026l3.438 2.146c-0.149 0.096-0.292 0.204-0.431 0.317zM21.024 9.427c-0.1 0.159-0.245 0.379-0.431 0.602-0.309 0.371-0.732 0.747-1.255 0.85 0.255-0.41 0.552-0.762 0.886-1.063 0.201-0.181 0.418-0.338 0.649-0.476 0.072-0.043 0.139-0.092 0.214-0.131l0.054 0.033c-0.027 0.041-0.067 0.106-0.117 0.185zM20.108 8.898c0 0 0 0 0 0-0.104 0.076-0.206 0.156-0.305 0.241 0 0 0 0 0 0-0.604 0.518-1.113 1.199-1.519 2.047l-2.324-1.454-1.327-0.822c-0.079-0.049-0.109-0.149-0.069-0.229 0.047-0.094 0.098-0.184 0.15-0.273 0.109-0.186 0.228-0.36 0.358-0.524 0.007-0.009 0.014-0.018 0.022-0.027 0.4-0.499 0.899-0.899 1.509-1.209 0.037-0.019 0.072-0.040 0.11-0.058 0.028-0.013 0.058-0.020 0.088-0.020 0.033 0.001 0.063 0.009 0.090 0.026l3.438 2.146c-0.076 0.050-0.148 0.103-0.222 0.156zM13.796 8.942c0.050 0.251 0.198 0.481 0.43 0.625l4.422 2.755c0-0.001 0-0.001 0.001-0.001l0.003 0.002c0.334-0.172 0.646-0.354 0.94-0.541-0.213 0.437-0.058 0.966 0.356 1.223l4.422 2.755c0-0.001 0-0.001 0.001-0.001l0.003 0.002c1.176-0.605 2.113-1.329 2.698-1.991l0.57 0.329-14.088 8.188c-0.007 0.003-0.037 0.011-0.081 0.011-0.042 0-0.072-0.008-0.075-0.008 0 0-0 0-0 0l-11.321-6.536 11.72-6.811zM27.993 14.747v2.266l-14.158 8.226v-2.266l14.158-8.226zM1.635 16.35l11.394 6.578c0.036 0.021 0.080 0.043 0.122 0.058l0.026 0.015v2.273l-11.575-6.678 0.033-2.247zM0.922 24.361l-0.553-0.319v-2.688l0.553 0.321v2.686zM13.673 31.574l-0.001 0-0.553-0.32v-2.49l0.554 0.322v2.487zM13.475 28.075v0.046l-12.738-7.405v-0.736l12.738 7.404v0.692zM28.648 19.579l-14.683 8.49v-0.74l14.683-8.49v0.74zM28.746 17.931l-15.073 8.713-12.936-7.52 0.182-0.105c0.029 0.038 0.067 0.075 0.122 0.106l11.988 6.916c0.123 0.071 0.283 0.106 0.443 0.106s0.32-0.035 0.442-0.106l14.756-8.575c0.013-0.008 0.023-0.017 0.035-0.025l0.005-0.003v-0.001c0.012-0.008 0.025-0.016 0.036-0.025l-0.002 0.52zM28.755 13.904c-0.025-0.022-0.053-0.044-0.087-0.064l-1.154-0.666c0.199-0.342 0.275-0.645 0.2-0.876l-4.693-2.921c-0.148-0.092-0.315-0.139-0.483-0.142-0.149-0.003-0.298 0.029-0.437 0.096-0.053 0.025-0.102 0.054-0.153 0.081 0.076-0.209 0.095-0.397 0.045-0.551l-4.692-2.921c-0.148-0.092-0.315-0.139-0.483-0.142-0.071-0.001-0.141 0.006-0.211 0.021l0.009-3.728 11.8 6.813c0.171 0.099 0.351 0.41 0.351 0.606l-0.011 4.396zM30.002 22.112l-0.001 0-0.553-0.319v-1.851l0.554-0.32v2.49h0zM30.662 8.82l-0.008 3.764 0.005-0.029-0.013 5.934-1.167 0.668 0.009-0.050-0.011 0.007 0.021-9.665c-0.001-0.007-0.001-0.013-0.001-0.020-0.006-0.297-0.125-0.51-0.228-0.665-0.128-0.209-0.297-0.391-0.485-0.499l-11.754-6.786 1.177-0.7 12.111 6.992c0.083 0.048 0.169 0.146 0.235 0.257 0 0 0.090 0.305 0.109 0.662l0.001-0.001v0.032c0.001 0.032 0.003 0.064 0.003 0.097l-0.003 0.002z"></path>
</svg>
