<!-- Generated by IcoMoon.io -->
<svg version="1.1" xmlns="http://www.w3.org/2000/svg" width="32" height="32" viewBox="0 0 32 32">
<title>amenity-bathroom</title>
<path d="M31.36 17.76h-28.8v-12.16c0-1.059 0.861-1.92 1.92-1.92 0.6 0 1.155 0.273 1.522 0.749 0.216 0.28 0.618 0.332 0.897 0.117 0.28-0.216 0.333-0.618 0.117-0.897-0.611-0.794-1.535-1.249-2.536-1.249-1.764 0-3.2 1.436-3.2 3.2v12.16h-0.64c-0.353 0-0.64 0.286-0.64 0.64s0.287 0.64 0.64 0.64h0.673c0.189 2.846 1.62 5.352 3.759 6.986l-1.164 2.328c-0.158 0.316-0.030 0.701 0.286 0.859 0.092 0.045 0.189 0.067 0.285 0.067 0.235 0 0.461-0.129 0.573-0.354l1.093-2.186c1.398 0.797 3.012 1.26 4.734 1.26h10.24c1.722 0 3.336-0.462 4.735-1.26l1.092 2.186c0.113 0.225 0.339 0.354 0.573 0.354 0.096 0 0.194-0.022 0.285-0.067 0.316-0.158 0.444-0.543 0.286-0.859l-1.164-2.328c2.139-1.634 3.57-4.14 3.759-6.986h0.673c0.354 0 0.64-0.286 0.64-0.64s-0.286-0.64-0.64-0.64zM21.12 26.72h-10.24c-4.372 0-7.968-3.39-8.296-7.68h26.831c-0.328 4.29-3.923 7.68-8.296 7.68zM5.107 7.613c-0.25-0.25-0.25-0.655 0-0.906l4.12-4.12c0.25-0.25 0.655-0.25 0.905 0s0.25 0.655 0 0.905l-4.12 4.12c-0.125 0.125-0.289 0.188-0.452 0.188s-0.328-0.063-0.452-0.188zM8.772 10.268l1.28 1.28c0.25 0.25 0.25 0.655 0 0.905-0.125 0.125-0.289 0.188-0.452 0.188s-0.328-0.063-0.452-0.188l-1.28-1.28c-0.25-0.25-0.25-0.655 0-0.905s0.655-0.25 0.905 0zM12.988 11.173l-1.28-1.28c-0.25-0.25-0.25-0.655 0-0.905s0.655-0.25 0.905 0l1.28 1.28c0.25 0.25 0.25 0.655 0 0.905-0.125 0.125-0.289 0.188-0.452 0.188s-0.328-0.063-0.452-0.188zM14.268 7.333l-1.28-1.28c-0.25-0.25-0.25-0.655 0-0.905s0.655-0.25 0.905 0l1.28 1.28c0.25 0.25 0.25 0.655 0 0.905-0.125 0.125-0.289 0.188-0.452 0.188s-0.328-0.063-0.452-0.188z"></path>
</svg>
