<!-- Generated by IcoMoon.io -->
<svg version="1.1" xmlns="http://www.w3.org/2000/svg" width="32" height="32" viewBox="0 0 32 32">
<title>arrow-down</title>
<path d="M24.894 22.454l-8.419 9.333c-0.003 0.003-0.007 0.004-0.010 0.007-0.047 0.050-0.104 0.086-0.164 0.12-0.017 0.009-0.029 0.024-0.046 0.031-0.078 0.035-0.164 0.055-0.255 0.055-0.090 0-0.174-0.019-0.25-0.053-0.084-0.037-0.161-0.090-0.223-0.159l-8.42-9.333c-0.243-0.269-0.228-0.692 0.034-0.942s0.673-0.236 0.915 0.035l7.321 8.115v-28.996c0-0.369 0.266-0.667 0.623-0.667s0.647 0.298 0.647 0.667v28.969l7.298-8.089c0.244-0.27 0.652-0.285 0.916-0.035 0.261 0.25 0.276 0.673 0.033 0.942z"></path>
</svg>
