<!-- Generated by IcoMoon.io -->
<svg version="1.1" xmlns="http://www.w3.org/2000/svg" width="32" height="32" viewBox="0 0 32 32">
<title>arrow-right</title>
<path d="M0.667 15.333h28.969l-8.090-7.512c-0.269-0.251-0.284-0.673-0.034-0.942 0.131-0.141 0.31-0.213 0.489-0.213 0.163 0 0.325 0.059 0.454 0.179l9.334 8.667c0.002 0.003 0.004 0.006 0.006 0.010 0.049 0.046 0.083 0.103 0.116 0.163 0.010 0.019 0.027 0.033 0.035 0.052 0.035 0.081 0.055 0.169 0.055 0.263s-0.020 0.182-0.055 0.263c-0.009 0.020-0.026 0.035-0.036 0.053-0.033 0.058-0.067 0.116-0.115 0.162-0.003 0.003-0.004 0.007-0.007 0.011l-9.334 8.667c-0.27 0.251-0.691 0.235-0.942-0.035-0.25-0.27-0.235-0.691 0.034-0.942l8.090-7.512h-28.969c-0.368 0-0.667-0.299-0.667-0.667s0.299-0.667 0.667-0.667z"></path>
</svg>
