<!-- Generated by IcoMoon.io -->
<svg version="1.1" xmlns="http://www.w3.org/2000/svg" width="32" height="32" viewBox="0 0 32 32">
<title>arrow-twirl-right</title>
<path d="M10.914 10.271c0-0.243 0.114-0.5 0.314-0.671 0.371-0.3 0.914-0.243 1.2 0.129l4.7 5.786c0.257 0.314 0.257 0.771 0 1.086l-4.443 5.486c-0.3 0.371-0.843 0.429-1.2 0.129-0.371-0.3-0.429-0.843-0.129-1.2l4.014-4.957-4.271-5.243c-0.129-0.171-0.186-0.357-0.186-0.543zM16.014 10.271c0-0.243 0.114-0.5 0.314-0.671 0.371-0.3 0.914-0.243 1.2 0.129l4.7 5.786c0.257 0.314 0.257 0.771 0 1.086l-4.443 5.486c-0.3 0.371-0.843 0.429-1.2 0.129-0.371-0.3-0.429-0.843-0.129-1.2l4.014-4.957-4.271-5.243c-0.129-0.171-0.186-0.357-0.186-0.543zM0.2 15.9c0-8.771 7.129-15.9 15.9-15.9s15.9 7.129 15.9 15.9c0 8.771-7.143 15.9-15.9 15.9s-15.9-7.129-15.9-15.9zM30.286 15.9c0-7.829-6.371-14.186-14.186-14.186s-14.186 6.371-14.186 14.186c0 7.814 6.371 14.186 14.186 14.186s14.186-6.357 14.186-14.186z"></path>
</svg>
