<!-- Generated by IcoMoon.io -->
<svg version="1.1" xmlns="http://www.w3.org/2000/svg" width="32" height="32" viewBox="0 0 32 32">
<title>arrow-sort</title>
<path d="M27.22 12.488c-0.128 0-0.256-0.047-0.352-0.141l-10.867-10.644-10.867 10.644c-0.187 0.183-0.495 0.188-0.69 0.014s-0.201-0.465-0.015-0.647l11.22-10.989c0.184-0.181 0.52-0.181 0.704 0l11.22 10.989c0.186 0.182 0.18 0.472-0.015 0.647-0.094 0.085-0.216 0.127-0.338 0.127zM4.781 20.101c0.128 0 0.256 0.047 0.352 0.141l10.867 10.644 10.867-10.644c0.187-0.183 0.495-0.188 0.69-0.014s0.201 0.465 0.015 0.647l-11.22 10.989c-0.184 0.181-0.52 0.181-0.704 0l-11.22-10.989c-0.186-0.183-0.179-0.472 0.015-0.647 0.094-0.085 0.216-0.127 0.338-0.127z"></path>
</svg>
