<!-- Generated by IcoMoon.io -->
<svg version="1.1" xmlns="http://www.w3.org/2000/svg" width="32" height="32" viewBox="0 0 32 32">
<title>arrow-up</title>
<path d="M24.86 10.49c-0.125 0.119-0.283 0.178-0.441 0.178-0.174 0-0.347-0.071-0.475-0.213l-7.297-8.090v28.975c0 0.368-0.29 0.667-0.647 0.667s-0.627-0.297-0.627-0.666v-29l-7.318 8.114c-0.244 0.27-0.653 0.285-0.916 0.035-0.261-0.251-0.276-0.673-0.033-0.943l8.41-9.324c0.113-0.137 0.281-0.223 0.485-0.223 0.183 0 0.347 0.080 0.465 0.206 0.003 0.003 0.006 0.004 0.010 0.007l8.419 9.334c0.244 0.27 0.228 0.692-0.034 0.943z"></path>
</svg>
