<!-- Generated by IcoMoon.io -->
<svg version="1.1" xmlns="http://www.w3.org/2000/svg" width="32" height="32" viewBox="0 0 32 32">
<title>arrow-twirl-up</title>
<path d="M10.271 21.086c-0.243 0-0.5-0.114-0.671-0.314-0.3-0.371-0.243-0.914 0.129-1.2l5.786-4.7c0.314-0.257 0.771-0.257 1.086 0l5.486 4.443c0.371 0.3 0.429 0.843 0.129 1.2-0.3 0.371-0.843 0.429-1.2 0.129l-4.957-4.014-5.243 4.271c-0.171 0.129-0.357 0.186-0.543 0.186zM10.271 15.986c-0.243 0-0.5-0.114-0.671-0.314-0.3-0.371-0.243-0.914 0.129-1.2l5.786-4.7c0.314-0.257 0.771-0.257 1.086 0l5.486 4.443c0.371 0.3 0.429 0.843 0.129 1.2-0.3 0.371-0.843 0.429-1.2 0.129l-4.957-4.014-5.243 4.271c-0.171 0.129-0.357 0.186-0.543 0.186zM15.9 31.8c-8.771 0-15.9-7.129-15.9-15.9s7.129-15.9 15.9-15.9c8.771 0 15.9 7.143 15.9 15.9s-7.129 15.9-15.9 15.9zM15.9 1.714c-7.829 0-14.186 6.371-14.186 14.186s6.371 14.186 14.186 14.186c7.814 0 14.186-6.371 14.186-14.186s-6.357-14.186-14.186-14.186z"></path>
</svg>
