<!-- Generated by IcoMoon.io -->
<svg version="1.1" xmlns="http://www.w3.org/2000/svg" width="32" height="32" viewBox="0 0 32 32">
<title>building</title>
<path d="M29.867 30.72h-3.2v-30.080c0-0.353-0.286-0.64-0.64-0.64h-20.48c-0.353 0-0.64 0.287-0.64 0.64v30.080h-3.2c-0.353 0-0.64 0.286-0.64 0.64s0.287 0.64 0.64 0.64h28.16c0.354 0 0.64-0.286 0.64-0.64s-0.286-0.64-0.64-0.64zM6.187 30.72v-29.44h19.2v29.44h-19.2zM13.227 3.84h-3.84c-0.353 0-0.64 0.287-0.64 0.64v3.84c0 0.353 0.287 0.64 0.64 0.64h3.84c0.353 0 0.64-0.287 0.64-0.64v-3.84c0-0.353-0.287-0.64-0.64-0.64zM12.587 7.68h-2.56v-2.56h2.56v2.56zM22.187 3.84h-3.84c-0.354 0-0.64 0.287-0.64 0.64v3.84c0 0.353 0.286 0.64 0.64 0.64h3.84c0.354 0 0.64-0.287 0.64-0.64v-3.84c0-0.353-0.286-0.64-0.64-0.64zM21.547 7.68h-2.56v-2.56h2.56v2.56zM13.227 12.8h-3.84c-0.353 0-0.64 0.287-0.64 0.64v3.84c0 0.354 0.287 0.64 0.64 0.64h3.84c0.353 0 0.64-0.286 0.64-0.64v-3.84c0-0.353-0.287-0.64-0.64-0.64zM12.587 16.64h-2.56v-2.56h2.56v2.56zM22.187 12.8h-3.84c-0.354 0-0.64 0.287-0.64 0.64v3.84c0 0.354 0.286 0.64 0.64 0.64h3.84c0.354 0 0.64-0.286 0.64-0.64v-3.84c0-0.353-0.286-0.64-0.64-0.64zM21.547 16.64h-2.56v-2.56h2.56v2.56zM13.227 21.76h-3.84c-0.353 0-0.64 0.286-0.64 0.64v3.84c0 0.354 0.287 0.64 0.64 0.64h3.84c0.353 0 0.64-0.286 0.64-0.64v-3.84c0-0.354-0.287-0.64-0.64-0.64zM12.587 25.6h-2.56v-2.56h2.56v2.56zM22.187 21.76h-3.84c-0.354 0-0.64 0.286-0.64 0.64v3.84c0 0.354 0.286 0.64 0.64 0.64h3.84c0.354 0 0.64-0.286 0.64-0.64v-3.84c0-0.354-0.286-0.64-0.64-0.64zM21.547 25.6h-2.56v-2.56h2.56v2.56z"></path>
</svg>
