<!-- Generated by IcoMoon.io -->
<svg version="1.1" xmlns="http://www.w3.org/2000/svg" width="32" height="32" viewBox="0 0 32 32">
<title>calculator</title>
<path d="M22.667 26.667c0 0.735-0.599 1.333-1.333 1.333s-1.333-0.598-1.333-1.333 0.598-1.333 1.333-1.333c0.735 0 1.333 0.598 1.333 1.333zM22.667 21.333c0 0.735-0.599 1.334-1.333 1.334s-1.333-0.599-1.333-1.334 0.598-1.333 1.333-1.333c0.735 0 1.333 0.598 1.333 1.333zM22.667 16c0 0.736-0.599 1.333-1.333 1.333s-1.333-0.597-1.333-1.333c0-0.735 0.598-1.333 1.333-1.333s1.333 0.599 1.333 1.333zM17.333 26.667c0 0.735-0.599 1.333-1.333 1.333s-1.333-0.598-1.333-1.333 0.598-1.333 1.333-1.333c0.735 0 1.333 0.598 1.333 1.333zM17.333 21.333c0 0.735-0.599 1.334-1.333 1.334s-1.333-0.599-1.333-1.334 0.598-1.333 1.333-1.333c0.735 0 1.333 0.598 1.333 1.333zM17.333 16c0 0.736-0.599 1.333-1.333 1.333s-1.333-0.597-1.333-1.333c0-0.735 0.598-1.333 1.333-1.333s1.333 0.599 1.333 1.333zM12 26.667c0 0.735-0.599 1.333-1.333 1.333s-1.333-0.598-1.333-1.333 0.598-1.333 1.333-1.333c0.735 0 1.333 0.598 1.333 1.333zM12 21.333c0 0.735-0.599 1.334-1.333 1.334s-1.333-0.599-1.333-1.334 0.598-1.333 1.333-1.333c0.735 0 1.333 0.598 1.333 1.333zM12 16c0 0.736-0.599 1.333-1.333 1.333s-1.333-0.597-1.333-1.333c0-0.735 0.598-1.333 1.333-1.333s1.333 0.599 1.333 1.333zM22.667 5.333h-13.333v4.001h13.333v-4.001zM8.667 10.666c-0.369 0-0.667-0.299-0.667-0.667v-5.333c0-0.368 0.298-0.667 0.667-0.667h14.667c0.369 0 0.667 0.299 0.667 0.667v5.333c0 0.368-0.298 0.667-0.667 0.667h-14.667zM26.667 1.688c0-0.193-0.167-0.355-0.363-0.355h-20.607c-0.197 0-0.363 0.163-0.363 0.355v28.623c0 0.193 0.167 0.356 0.363 0.356h20.607c0.197 0 0.363-0.163 0.363-0.356v-28.623zM5.697 32.001c-0.935 0-1.697-0.758-1.697-1.689v-28.623c0-0.931 0.761-1.688 1.697-1.688h20.607c0.935 0 1.697 0.757 1.697 1.688v28.623c0 0.931-0.761 1.689-1.697 1.689h-20.607z"></path>
</svg>
