<!-- Generated by IcoMoon.io -->
<svg version="1.1" xmlns="http://www.w3.org/2000/svg" width="32" height="32" viewBox="0 0 32 32">
<title>calendar-create</title>
<path d="M28.305 11.504h-24.816v19.058h24.816v-19.058zM28.305 5.59h-6.531v1.97c0 0.363-0.292 0.658-0.653 0.658s-0.653-0.295-0.653-0.658v-1.97h-9.143v1.97c0 0.363-0.292 0.658-0.653 0.658s-0.653-0.295-0.653-0.658v-1.97h-6.531v4.6h24.816v-4.6zM9.977 20.075h5.365v-5.365c0-0.33 0.277-0.598 0.596-0.598 0.329 0 0.596 0.274 0.596 0.598v5.365h5.365c0.33 0 0.598 0.277 0.598 0.596 0 0.329-0.274 0.596-0.598 0.596h-5.365v5.365c0 0.33-0.277 0.598-0.596 0.598-0.329 0-0.596-0.274-0.596-0.598v-5.365h-5.365c-0.33 0-0.598-0.277-0.598-0.596 0-0.329 0.274-0.596 0.598-0.596zM28.958 31.875h-26.122c-0.361 0-0.653-0.294-0.653-0.657v-26.286c0-0.363 0.292-0.657 0.653-0.657h7.184v-3.286c0-0.363 0.292-0.657 0.653-0.657s0.653 0.294 0.653 0.657v3.286h9.143v-3.286c0-0.363 0.292-0.657 0.653-0.657s0.653 0.294 0.653 0.657v3.286h7.184c0.361 0 0.653 0.294 0.653 0.657v26.286c0 0.363-0.292 0.657-0.653 0.657z"></path>
</svg>
