<!-- Generated by IcoMoon.io -->
<svg version="1.1" xmlns="http://www.w3.org/2000/svg" width="32" height="32" viewBox="0 0 32 32">
<title>calendar-reminder</title>
<path d="M28.305 11.504h-24.816v19.058h24.816v-19.058zM28.305 5.59h-6.531v1.97c0 0.363-0.292 0.658-0.653 0.658s-0.653-0.295-0.653-0.658v-1.97h-9.143v1.97c0 0.363-0.292 0.658-0.653 0.658s-0.653-0.295-0.653-0.658v-1.97h-6.531v4.6h24.816v-4.6zM28.958 31.875h-26.122c-0.361 0-0.653-0.294-0.653-0.657v-26.286c0-0.363 0.292-0.657 0.653-0.657h7.184v-3.286c0-0.363 0.292-0.657 0.653-0.657s0.653 0.294 0.653 0.657v3.286h9.143v-3.286c0-0.363 0.292-0.657 0.653-0.657s0.653 0.294 0.653 0.657v3.286h7.184c0.361 0 0.653 0.294 0.653 0.657v26.286c0 0.363-0.292 0.657-0.653 0.657zM15.583 14.167c-3.741 0-6.783 3.042-6.783 6.783s3.042 6.783 6.783 6.783c3.741 0 6.783-3.042 6.783-6.783s-3.042-6.783-6.783-6.783zM15.583 15.071c3.252 0 5.879 2.627 5.879 5.879s-2.627 5.879-5.879 5.879c-3.252 0-5.879-2.627-5.879-5.879s2.627-5.879 5.879-5.879zM15.579 16.418c-0.121 0.001-0.236 0.051-0.32 0.137s-0.13 0.203-0.127 0.324v4.070c0.001 0.118 0.048 0.232 0.132 0.316l2.878 2.878c0.111 0.127 0.283 0.182 0.447 0.142s0.292-0.167 0.333-0.33c0.041-0.163-0.013-0.336-0.139-0.448l-2.746-2.746v-3.882c0.003-0.122-0.045-0.241-0.131-0.328s-0.204-0.135-0.326-0.134z"></path>
</svg>
