<!-- Generated by IcoMoon.io -->
<svg version="1.1" xmlns="http://www.w3.org/2000/svg" width="28" height="32" viewBox="0 0 28 32">
<title>calendar</title>
<path d="M26.438 11.504h-24.816v19.058h24.816v-19.058zM26.438 5.59h-6.531v1.97c0 0.363-0.292 0.658-0.653 0.658s-0.653-0.295-0.653-0.658v-1.97h-9.143v1.97c0 0.363-0.292 0.658-0.653 0.658s-0.653-0.295-0.653-0.658v-1.97h-6.531v4.6h24.816v-4.6zM27.091 31.875h-26.122c-0.361 0-0.653-0.294-0.653-0.657v-26.286c0-0.363 0.292-0.657 0.653-0.657h7.184v-3.286c0-0.363 0.292-0.657 0.653-0.657s0.653 0.294 0.653 0.657v3.286h9.143v-3.286c0-0.363 0.292-0.657 0.653-0.657s0.653 0.294 0.653 0.657v3.286h7.184c0.361 0 0.653 0.294 0.653 0.657v26.286c0 0.363-0.292 0.657-0.653 0.657z"></path>
</svg>
