<!-- Generated by IcoMoon.io -->
<svg version="1.1" xmlns="http://www.w3.org/2000/svg" width="32" height="32" viewBox="0 0 32 32">
<title>calendar-delete</title>
<path d="M28.305 11.504h-24.816v19.058h24.816v-19.058zM28.305 5.59h-6.531v1.97c0 0.363-0.292 0.658-0.653 0.658s-0.653-0.295-0.653-0.658v-1.97h-9.143v1.97c0 0.363-0.292 0.658-0.653 0.658s-0.653-0.295-0.653-0.658v-1.97h-6.531v4.6h24.816v-4.6zM12.145 16.034l3.794 3.794 3.794-3.794c0.233-0.233 0.618-0.227 0.844-0.001 0.233 0.233 0.228 0.615-0.001 0.844l-3.794 3.794 3.794 3.794c0.233 0.233 0.227 0.618 0.001 0.844-0.233 0.233-0.615 0.228-0.844-0.001l-3.794-3.794-3.794 3.794c-0.233 0.233-0.618 0.227-0.844 0.001-0.233-0.233-0.228-0.615 0.001-0.844l3.794-3.794-3.794-3.794c-0.233-0.233-0.227-0.618-0.001-0.844 0.233-0.233 0.615-0.228 0.844 0.001zM28.958 31.875h-26.122c-0.361 0-0.653-0.294-0.653-0.657v-26.286c0-0.363 0.292-0.657 0.653-0.657h7.184v-3.286c0-0.363 0.292-0.657 0.653-0.657s0.653 0.294 0.653 0.657v3.286h9.143v-3.286c0-0.363 0.292-0.657 0.653-0.657s0.653 0.294 0.653 0.657v3.286h7.184c0.361 0 0.653 0.294 0.653 0.657v26.286c0 0.363-0.292 0.657-0.653 0.657z"></path>
</svg>
