<!-- Generated by IcoMoon.io -->
<svg version="1.1" xmlns="http://www.w3.org/2000/svg" width="32" height="32" viewBox="0 0 32 32">
<title>card-menu</title>
<path d="M28 13.333c1.471 0 2.667 1.197 2.667 2.667s-1.196 2.667-2.667 2.667-2.667-1.196-2.667-2.667c0-1.47 1.196-2.667 2.667-2.667zM28 20c2.206 0 4-1.795 4-4.001s-1.794-4-4-4c-2.206 0-4 1.794-4 4s1.794 4.001 4 4.001zM16 13.333c1.471 0 2.667 1.197 2.667 2.667s-1.196 2.667-2.667 2.667-2.667-1.196-2.667-2.667c0-1.47 1.196-2.667 2.667-2.667zM16 20c2.206 0 4-1.795 4-4.001s-1.794-4-4-4c-2.206 0-4 1.794-4 4s1.794 4.001 4 4.001zM4 13.333c1.471 0 2.667 1.197 2.667 2.667s-1.196 2.667-2.667 2.667-2.667-1.196-2.667-2.667c0-1.47 1.196-2.667 2.667-2.667zM4 20c2.206 0 4-1.795 4-4.001s-1.794-4-4-4c-2.206 0-4 1.794-4 4s1.794 4.001 4 4.001z"></path>
</svg>
