<!-- Generated by IcoMoon.io -->
<svg version="1.1" xmlns="http://www.w3.org/2000/svg" width="32" height="32" viewBox="0 0 32 32">
<title>chart-line-down</title>
<path d="M27.951 18.91c-0.019 0.049-0.051 0.090-0.081 0.133-0.018 0.026-0.027 0.055-0.049 0.079-0.003 0.003-0.006 0.004-0.009 0.007-0.057 0.059-0.125 0.107-0.201 0.141-0.006 0.003-0.011 0.009-0.017 0.012-0.081 0.034-0.169 0.053-0.261 0.053h-4c-0.369 0-0.667-0.299-0.667-0.667s0.298-0.667 0.667-0.667h2.302l-7.581-7.040-3.549 4.141c-0.043 0.049-0.097 0.078-0.149 0.111-0.027 0.019-0.050 0.047-0.080 0.060-0.087 0.040-0.182 0.061-0.277 0.061h-0.001c-0.075 0-0.151-0.013-0.223-0.039-0.023-0.009-0.043-0.026-0.065-0.037-0.045-0.022-0.092-0.041-0.133-0.074l-7.333-6c-0.285-0.233-0.327-0.653-0.094-0.938s0.653-0.327 0.938-0.094l6.829 5.588 3.576-4.172c0.003-0.004 0.007-0.005 0.011-0.008s0.004-0.009 0.007-0.012c0.029-0.032 0.068-0.049 0.102-0.073s0.064-0.055 0.101-0.073c0.041-0.020 0.086-0.025 0.13-0.036 0.039-0.009 0.077-0.025 0.117-0.027 0.044-0.003 0.086 0.009 0.13 0.015 0.041 0.005 0.082 0.005 0.122 0.019 0.043 0.014 0.080 0.043 0.119 0.067 0.033 0.019 0.070 0.030 0.1 0.055 0.003 0.003 0.005 0.007 0.008 0.011s0.009 0.004 0.013 0.007l8.213 7.626v-2.471c0-0.369 0.298-0.667 0.667-0.667s0.667 0.298 0.667 0.667v4c0 0.035-0.015 0.065-0.020 0.098-0.007 0.049-0.011 0.097-0.029 0.144zM31.333 26.668h-30.667c-0.369 0-0.667-0.299-0.667-0.667v-20.001c0-0.368 0.298-0.667 0.667-0.667s0.667 0.299 0.667 0.667v19.333h30c0.369 0 0.667 0.299 0.667 0.667s-0.298 0.667-0.667 0.667z"></path>
</svg>
