<!-- Generated by IcoMoon.io -->
<svg version="1.1" xmlns="http://www.w3.org/2000/svg" width="32" height="32" viewBox="0 0 32 32">
<title>chart-circle</title>
<path d="M16.667 10.040c2.776 0.308 4.984 2.518 5.293 5.293h8.675c-0.343-7.553-6.413-13.624-13.967-13.966v8.673zM16 20.666c2.573 0 4.667-2.093 4.667-4.666s-2.094-4.667-4.667-4.667-4.667 2.094-4.667 4.667c0 2.573 2.094 4.666 4.667 4.666zM15.333 1.367c-7.777 0.352-14 6.771-14 14.633 0 8.087 6.579 14.667 14.667 14.667 3.806 0 7.265-1.467 9.87-3.854l-6.131-6.131c-1.027 0.822-2.325 1.319-3.739 1.319-3.309 0-6-2.692-6-6 0-3.083 2.337-5.627 5.333-5.96v-8.673zM26.811 25.869c2.236-2.455 3.661-5.663 3.821-9.202h-8.672c-0.128 1.155-0.588 2.209-1.278 3.073l6.129 6.129zM16 32.001c-8.822 0-16-7.178-16-16s7.178-16 16-16 16 7.177 16 16c0 4.397-1.785 8.386-4.667 11.281-2.948 2.935-6.935 4.719-11.333 4.719z"></path>
</svg>
