<!-- Generated by IcoMoon.io -->
<svg version="1.1" xmlns="http://www.w3.org/2000/svg" width="32" height="32" viewBox="0 0 32 32">
<title>chart-line-up</title>
<path d="M27.333 13.334c-0.369 0-0.667-0.299-0.667-0.667v-2.471l-8.213 7.626c-0.004 0.004-0.009 0.005-0.013 0.009-0.003 0.003-0.004 0.006-0.007 0.009-0.036 0.031-0.078 0.048-0.119 0.070-0.028 0.015-0.053 0.037-0.082 0.048-0.075 0.029-0.154 0.043-0.233 0.043-0.092 0-0.183-0.020-0.268-0.057-0.027-0.013-0.049-0.037-0.075-0.053-0.051-0.031-0.103-0.057-0.145-0.103-0.003-0.003-0.004-0.008-0.007-0.012s-0.007-0.004-0.011-0.007l-3.576-4.173-6.829 5.588c-0.124 0.101-0.273 0.151-0.421 0.151-0.193 0-0.385-0.084-0.517-0.245-0.233-0.285-0.191-0.705 0.094-0.938l7.333-6c0.035-0.028 0.075-0.039 0.113-0.059s0.073-0.048 0.114-0.061c0.043-0.013 0.088-0.011 0.133-0.015 0.040-0.004 0.080-0.015 0.12-0.011 0.044 0.004 0.085 0.023 0.127 0.035 0.039 0.011 0.080 0.016 0.117 0.035 0.045 0.023 0.082 0.062 0.122 0.096 0.026 0.022 0.057 0.036 0.081 0.063l0.007 0.009c0.001 0.001 0.002 0.001 0.003 0.002s0.001 0.002 0.001 0.003l3.537 4.126 7.581-7.040h-2.303c-0.369 0-0.667-0.298-0.667-0.666s0.298-0.667 0.667-0.667h4c0.004 0 0.008 0.002 0.012 0.002 0.054 0.001 0.105 0.018 0.157 0.032 0.033 0.009 0.067 0.009 0.097 0.023s0.055 0.039 0.085 0.057c0.045 0.029 0.091 0.054 0.128 0.092 0.003 0.003 0.007 0.004 0.009 0.007 0.023 0.024 0.032 0.055 0.050 0.081 0.029 0.042 0.061 0.082 0.080 0.13 0.018 0.047 0.021 0.095 0.029 0.144 0.005 0.033 0.020 0.063 0.020 0.099v4c0 0.368-0.298 0.667-0.667 0.667zM31.333 26.667h-30.667c-0.369 0-0.667-0.299-0.667-0.667v-20.001c0-0.368 0.298-0.666 0.667-0.666s0.667 0.298 0.667 0.666v19.335h30c0.369 0 0.667 0.299 0.667 0.667s-0.298 0.667-0.667 0.667z"></path>
</svg>
