<!-- Generated by IcoMoon.io -->
<svg version="1.1" xmlns="http://www.w3.org/2000/svg" width="32" height="32" viewBox="0 0 32 32">
<title>chat</title>
<path d="M4.667 11.334h9.333c0.367 0 0.667 0.298 0.667 0.666s-0.299 0.667-0.667 0.667h-9.333c-0.367 0-0.667-0.299-0.667-0.667s0.299-0.666 0.667-0.666zM18 8.667h-13.333c-0.367 0-0.667-0.299-0.667-0.667s0.299-0.667 0.667-0.667h13.333c0.367 0 0.667 0.299 0.667 0.667s-0.299 0.667-0.667 0.667zM21.333 3.333c0-0.367-0.299-0.666-0.667-0.666h-18.667c-0.367 0-0.667 0.299-0.667 0.666v13.333c0 0.368 0.299 0.667 0.667 0.667h4c0.367 0 0.667 0.298 0.667 0.667v3.723l4.193-4.192c0.062-0.063 0.137-0.113 0.22-0.147 0.075-0.030 0.155-0.045 0.235-0.047 0.006 0 0.012-0.003 0.019-0.003h9.334c0.367 0 0.667-0.299 0.667-0.667v-13.333zM20.667 18.667h-9.058l-5.138 5.137c-0.127 0.129-0.298 0.196-0.471 0.196-0.086 0-0.173-0.016-0.255-0.051-0.249-0.103-0.411-0.346-0.411-0.615v-4.667h-3.333c-1.103 0-2-0.898-2-2.001v-13.333c0-1.103 0.897-2 2-2h18.667c1.103 0 2 0.897 2 2v13.333c0 1.103-0.897 2.001-2 2.001zM30 25.334h-4.667v4.666c0 0.27-0.163 0.513-0.411 0.617-0.083 0.034-0.17 0.051-0.255 0.051-0.173 0-0.344-0.068-0.471-0.196l-5.137-5.137h-5.725c-0.735 0-1.333-0.598-1.333-1.334v-1.999c0-0.368 0.299-0.667 0.667-0.667s0.667 0.299 0.667 0.667v1.999h6c0.086 0 0.173 0.018 0.254 0.051s0.156 0.083 0.217 0.145l4.195 4.195v-3.724c0-0.368 0.299-0.667 0.667-0.667h5.333c0.367 0 0.667-0.299 0.667-0.666v-12c0-0.367-0.299-0.667-0.667-0.667h-4c-0.367 0-0.667-0.298-0.667-0.666s0.299-0.667 0.667-0.667h4c1.103 0 2 0.897 2 2v12c0 1.102-0.897 2-2 2z"></path>
</svg>
