<!-- Generated by IcoMoon.io -->
<svg version="1.1" xmlns="http://www.w3.org/2000/svg" width="32" height="32" viewBox="0 0 32 32">
<title>checklist</title>
<path d="M12.667 25.055h18.667c0.368 0 0.667 0.297 0.667 0.663 0 0.365-0.298 0.662-0.667 0.662h-18.667c-0.368 0-0.667-0.297-0.667-0.662 0-0.366 0.298-0.663 0.667-0.663zM4.2 8.206c-0.129 0.186-0.338 0.286-0.55 0.286-0.126 0-0.253-0.035-0.365-0.108l-2.984-1.949c-0.308-0.201-0.394-0.611-0.192-0.918s0.617-0.391 0.923-0.19l2.44 1.593 3.313-4.768c0.209-0.3 0.623-0.377 0.927-0.169 0.303 0.208 0.379 0.621 0.17 0.921l-3.682 5.301zM4 13.13c-1.47 0-2.667 1.189-2.667 2.65s1.197 2.65 2.667 2.65c1.471 0 2.667-1.189 2.667-2.65s-1.196-2.65-2.667-2.65zM4 19.755c-2.205 0-4-1.783-4-3.975s1.794-3.976 4-3.976c2.205 0 4 1.784 4 3.976s-1.794 3.975-4 3.975zM4 23.068c-1.47 0-2.667 1.188-2.667 2.65 0 1.461 1.197 2.65 2.667 2.65s2.667-1.189 2.667-2.65c0-1.462-1.196-2.65-2.667-2.65zM4 29.693c-2.205 0-4-1.784-4-3.975 0-2.192 1.794-3.976 4-3.976s4 1.783 4 3.976c0 2.191-1.794 3.975-4 3.975zM31.333 5.772h-18.719c-0.368 0-0.614-0.227-0.614-0.593s0.246-0.736 0.614-0.736h18.719c0.368 0 0.667 0.371 0.667 0.736s-0.298 0.593-0.667 0.593zM31.333 16.406h-18.719c-0.368 0-0.614-0.26-0.614-0.626s0.246-0.704 0.614-0.704h18.719c0.368 0 0.667 0.338 0.667 0.704s-0.298 0.626-0.667 0.626z"></path>
</svg>
