<!-- Generated by IcoMoon.io -->
<svg version="1.1" xmlns="http://www.w3.org/2000/svg" width="32" height="32" viewBox="0 0 32 32">
<title>checked</title>
<path d="M14.574 21.787c-0.123 0.133-0.293 0.209-0.473 0.213h-0.015c-0.175 0-0.343-0.069-0.468-0.192l-6.086-6.001c-0.262-0.258-0.265-0.68-0.007-0.943s0.681-0.265 0.943-0.006l5.597 5.518 9.447-10.164c0.25-0.271 0.673-0.285 0.942-0.035s0.285 0.673 0.034 0.943l-9.914 10.666zM16 1.333c-8.087 0-14.667 6.579-14.667 14.667s6.579 14.666 14.667 14.666 14.667-6.579 14.667-14.666c0-8.088-6.579-14.667-14.667-14.667zM16 32c-8.822 0-16-7.177-16-16s7.178-16 16-16 16 7.177 16 16c0 8.822-7.178 16-16 16z"></path>
</svg>
