<!-- Generated by IcoMoon.io -->
<svg version="1.1" xmlns="http://www.w3.org/2000/svg" width="32" height="32" viewBox="0 0 32 32">
<title>checkedbox</title>
<path d="M8.468 14.859l5.597 5.519 9.447-10.164c0.25-0.271 0.673-0.285 0.942-0.035s0.285 0.673 0.034 0.942l-9.914 10.668c-0.123 0.131-0.293 0.208-0.473 0.213h-0.015c-0.175 0-0.343-0.069-0.468-0.193l-6.086-6c-0.262-0.258-0.265-0.68-0.007-0.943s0.681-0.265 0.943-0.007zM30.667 1.334h-29.333v29.334h29.333v-29.334zM31.333 32.001h-30.667c-0.368 0-0.667-0.298-0.667-0.666v-30.667c0-0.368 0.299-0.667 0.667-0.667h30.667c0.368 0 0.667 0.299 0.667 0.667v30.667c0 0.368-0.299 0.666-0.667 0.666z"></path>
</svg>
