<!-- Generated by IcoMoon.io -->
<svg version="1.1" xmlns="http://www.w3.org/2000/svg" width="32" height="32" viewBox="0 0 32 32">
<title>circled-arrow-up</title>
<path d="M22.667 20.001c-0.171 0-0.341-0.065-0.471-0.195l-6.195-6.195-6.195 6.195c-0.261 0.261-0.682 0.261-0.943 0s-0.261-0.682 0-0.943l6.667-6.666c0.261-0.261 0.682-0.261 0.943 0l6.667 6.666c0.261 0.261 0.261 0.683 0 0.943-0.13 0.131-0.301 0.195-0.471 0.195zM16 1.334c-8.087 0-14.667 6.58-14.667 14.667 0 8.088 6.579 14.667 14.667 14.667s14.667-6.579 14.667-14.667c0-8.087-6.579-14.667-14.667-14.667zM16 32.001c-8.822 0-16-7.178-16-16s7.178-16.001 16-16.001c8.822 0 16 7.178 16 16.001s-7.178 16-16 16z"></path>
</svg>
