<!-- Generated by IcoMoon.io -->
<svg version="1.1" xmlns="http://www.w3.org/2000/svg" width="32" height="32" viewBox="0 0 32 32">
<title>clock</title>
<path d="M16 0c-8.824 0-16 7.176-16 16s7.176 16 16 16c8.824 0 16-7.176 16-16s-7.176-16-16-16zM16 2.133c7.671 0 13.867 6.196 13.867 13.867s-6.196 13.867-13.867 13.867c-7.671 0-13.867-6.196-13.867-13.867s6.196-13.867 13.867-13.867zM15.989 5.311c-0.285 0.003-0.557 0.12-0.755 0.324s-0.306 0.48-0.301 0.765v9.6c0.002 0.279 0.114 0.547 0.311 0.744l6.789 6.789c0.261 0.299 0.668 0.429 1.054 0.335s0.689-0.393 0.785-0.779c0.096-0.386-0.030-0.793-0.328-1.056l-6.478-6.478v-9.156c0.006-0.289-0.105-0.567-0.308-0.773s-0.481-0.319-0.769-0.316z"></path>
</svg>
