<!-- Generated by IcoMoon.io -->
<svg version="1.1" xmlns="http://www.w3.org/2000/svg" width="32" height="32" viewBox="0 0 32 32">
<title>close-cancel</title>
<path d="M16.929 16l14.616 14.862c0.256 0.261 0.256 0.682 0 0.942-0.128 0.13-0.296 0.195-0.463 0.195s-0.336-0.065-0.464-0.195l-14.616-14.862-14.616 14.862c-0.128 0.13-0.296 0.195-0.463 0.195s-0.336-0.065-0.464-0.195c-0.256-0.261-0.256-0.682 0-0.942l14.616-14.862-14.616-14.862c-0.256-0.26-0.256-0.683 0-0.943s0.671-0.26 0.927 0l14.615 14.862 14.615-14.862c0.256-0.261 0.671-0.261 0.927 0s0.256 0.682 0 0.943l-14.615 14.862z"></path>
</svg>
