<!-- Generated by IcoMoon.io -->
<svg version="1.1" xmlns="http://www.w3.org/2000/svg" width="32" height="32" viewBox="0 0 32 32">
<title>country</title>
<path d="M28.667 8.667h-5.253c0.743 2.091 1.155 4.332 1.224 6.666h6.006c-0.11-2.423-0.807-4.692-1.959-6.67-0.007 0-0.012 0.004-0.019 0.004zM19.239 1.706c1.534 1.666 2.743 3.568 3.641 5.627h4.924c-2.059-2.791-5.073-4.836-8.565-5.627zM16.667 1.367v5.966h4.747c-1.058-2.235-2.521-4.255-4.391-5.948-0.118-0.009-0.238-0.011-0.356-0.018zM10.019 8.667c-0.798 2.078-1.247 4.32-1.322 6.666h6.636v-6.666h-5.314zM15.333 1.367c-0.117 0.008-0.237 0.010-0.354 0.018-1.87 1.694-3.333 3.715-4.391 5.949h4.745v-5.967zM4.195 7.333h4.925c0.899-2.059 2.108-3.962 3.643-5.628-3.493 0.791-6.509 2.837-8.568 5.628zM3.314 8.663c-1.151 1.978-1.848 4.247-1.958 6.67h6.006c0.069-2.333 0.481-4.575 1.225-6.666h-5.253c-0.007 0-0.013-0.004-0.019-0.004zM3.333 23.333h5.277c-0.753-2.107-1.176-4.355-1.248-6.666h-6.007c0.11 2.423 0.807 4.692 1.958 6.67 0.007 0 0.013-0.004 0.019-0.004zM12.764 30.295c-1.511-1.654-2.716-3.565-3.617-5.629h-4.952c2.059 2.792 5.075 4.838 8.569 5.629zM15.333 30.633v-5.967h-4.748c1.057 2.235 2.519 4.255 4.387 5.949 0.119 0.008 0.241 0.010 0.361 0.018zM15.333 16.667h-6.636c0.075 2.347 0.523 4.588 1.32 6.666h5.316v-6.666zM21.981 23.333c0.797-2.078 1.246-4.32 1.321-6.666h-6.636v6.666h5.315zM16.667 30.633c0.119-0.008 0.238-0.010 0.357-0.018 1.869-1.694 3.332-3.714 4.39-5.949h-4.747v5.967zM27.805 24.666h-4.925c-0.898 2.059-2.107 3.962-3.641 5.628 3.492-0.791 6.507-2.837 8.565-5.628zM16.667 15.333h6.636c-0.075-2.346-0.524-4.588-1.321-6.666h-5.315v6.666zM28.686 23.337c1.151-1.978 1.848-4.247 1.958-6.67h-6.006c-0.069 2.334-0.481 4.575-1.224 6.666h5.253c0.007 0 0.013 0.004 0.019 0.004zM16 32c-8.822 0-16-7.177-16-16s7.178-16 16-16 16 7.177 16 16c0 8.823-7.178 16-16 16z"></path>
</svg>
