<!-- Generated by IcoMoon.io -->
<svg version="1.1" xmlns="http://www.w3.org/2000/svg" width="32" height="32" viewBox="0 0 32 32">
<title>credit-card</title>
<path d="M26.541 22.526h-3.934c-0.363 0-0.656-0.293-0.656-0.655s0.293-0.656 0.656-0.656h3.934c0.363 0 0.656 0.294 0.656 0.656s-0.293 0.655-0.656 0.655zM30.475 12.69h-28.852v11.148c0 0.723 0.608 1.311 1.355 1.311h26.143c0.747 0 1.355-0.588 1.355-1.311v-11.148zM30.475 8.1c0-0.723-0.608-1.312-1.355-1.312h-26.143c-0.747 0-1.355 0.588-1.355 1.312v1.967h28.852v-1.967zM29.12 26.461h-26.143c-1.47 0-2.666-1.176-2.666-2.623v-15.738c0-1.447 1.196-2.623 2.666-2.623h26.143c1.47 0 2.666 1.176 2.666 2.623v15.738c0 1.447-1.196 2.623-2.666 2.623z"></path>
</svg>
