<!-- Generated by IcoMoon.io -->
<svg version="1.1" xmlns="http://www.w3.org/2000/svg" width="32" height="32" viewBox="0 0 32 32">
<title>crop</title>
<path d="M7.512 25.224h17.429v-17.432l-17.429 17.432zM6.58 6.865v17.437l17.434-17.437h-17.434zM30.842 26.537h-4.59v4.59c0 0.363-0.293 0.656-0.656 0.656s-0.656-0.293-0.656-0.656v-4.59h-18.020c-0.911 0-1.652-0.742-1.652-1.652v-18.020h-4.59c-0.363 0-0.656-0.293-0.656-0.655s0.293-0.656 0.656-0.656h4.59v-4.591c0-0.362 0.293-0.656 0.656-0.656s0.656 0.294 0.656 0.656v4.591h18.020c0.215 0 0.418 0.044 0.607 0.119l3.861-3.862c0.256-0.256 0.671-0.256 0.927 0s0.256 0.671 0 0.927l-3.861 3.862c0.075 0.188 0.119 0.391 0.119 0.606v18.019h4.59c0.363 0 0.656 0.294 0.656 0.656s-0.293 0.656-0.656 0.656z"></path>
</svg>
