<!-- Generated by IcoMoon.io -->
<svg version="1.1" xmlns="http://www.w3.org/2000/svg" width="32" height="32" viewBox="0 0 32 32">
<title>delete</title>
<path d="M21.805 21.805c-0.13 0.13-0.301 0.195-0.471 0.195s-0.341-0.065-0.471-0.195l-4.862-4.863-4.862 4.863c-0.13 0.13-0.301 0.195-0.471 0.195s-0.341-0.065-0.471-0.195c-0.261-0.261-0.261-0.682 0-0.943l4.862-4.862-4.862-4.863c-0.261-0.26-0.261-0.682 0-0.943s0.682-0.26 0.943 0l4.862 4.863 4.862-4.863c0.261-0.26 0.682-0.26 0.943 0s0.261 0.683 0 0.943l-4.862 4.863 4.862 4.862c0.261 0.261 0.261 0.682 0 0.943zM16 1.333c-8.087 0-14.667 6.579-14.667 14.667s6.579 14.666 14.667 14.666 14.667-6.579 14.667-14.666c0-8.088-6.579-14.667-14.667-14.667zM16 32c-8.822 0-16-7.177-16-16s7.178-16 16-16 16 7.177 16 16c0 8.822-7.178 16-16 16z"></path>
</svg>
