<!-- Generated by IcoMoon.io -->
<svg version="1.1" xmlns="http://www.w3.org/2000/svg" width="32" height="32" viewBox="0 0 32 32">
<title>description</title>
<path d="M0.667 30.667h22.667c0.368 0 0.667 0.298 0.667 0.666s-0.299 0.667-0.667 0.667h-22.667c-0.368 0-0.667-0.298-0.667-0.667s0.299-0.666 0.667-0.666zM0.667 24h30.667c0.368 0 0.667 0.299 0.667 0.667s-0.299 0.667-0.667 0.667h-30.667c-0.368 0-0.667-0.299-0.667-0.667s0.299-0.667 0.667-0.667zM13.333 1.333h-12v10.668h12v-10.668zM14 13.333h-13.333c-0.368 0-0.667-0.298-0.667-0.666v-12c0-0.369 0.299-0.667 0.667-0.667h13.333c0.368 0 0.667 0.298 0.667 0.667v12c0 0.368-0.299 0.666-0.667 0.666zM31.333 1.333h-12.667c-0.368 0-0.667-0.298-0.667-0.666s0.299-0.667 0.667-0.667h12.667c0.368 0 0.667 0.298 0.667 0.667s-0.299 0.666-0.667 0.666zM31.333 7.333h-12.667c-0.368 0-0.667-0.299-0.667-0.667s0.299-0.667 0.667-0.667h12.667c0.368 0 0.667 0.299 0.667 0.667s-0.299 0.667-0.667 0.667zM31.333 13.333h-12.667c-0.368 0-0.667-0.298-0.667-0.666s0.299-0.667 0.667-0.667h12.667c0.368 0 0.667 0.298 0.667 0.667s-0.299 0.666-0.667 0.666zM31.333 19.333h-30.667c-0.368 0-0.667-0.297-0.667-0.666s0.299-0.667 0.667-0.667h30.667c0.368 0 0.667 0.299 0.667 0.667s-0.299 0.666-0.667 0.666z"></path>
</svg>
