<!-- Generated by IcoMoon.io -->
<svg version="1.1" xmlns="http://www.w3.org/2000/svg" width="32" height="32" viewBox="0 0 32 32">
<title>download</title>
<path d="M12.471 24.921l2.862 2.886v-10.48c0-0.371 0.299-0.672 0.667-0.672s0.667 0.3 0.667 0.672v10.48l2.862-2.886c0.261-0.263 0.682-0.263 0.943 0s0.261 0.688 0 0.951l-4 4.033c-0.061 0.062-0.135 0.111-0.217 0.145s-0.168 0.052-0.255 0.052-0.173-0.017-0.255-0.052c-0.082-0.034-0.155-0.083-0.217-0.145l-4-4.033c-0.261-0.263-0.261-0.688 0-0.951s0.682-0.263 0.943 0zM24.083 26.064c-0.028 0.003-0.057 0.005-0.085 0.005-0.331 0-0.617-0.248-0.66-0.588-0.046-0.368 0.213-0.705 0.578-0.752 3.785-0.481 6.75-3.839 6.75-7.645 0-4.213-3.37-7.64-7.512-7.64-0.148 0-0.297 0.009-0.445 0.026-0.313 0.030-0.603-0.151-0.705-0.448-1.199-3.476-4.434-5.812-8.049-5.812-4.706 0-8.534 3.893-8.534 8.679 0 0.403 0.034 0.814 0.105 1.254 0.052 0.326-0.138 0.641-0.448 0.745-2.24 0.752-3.745 2.871-3.745 5.273 0 3.067 2.452 5.562 5.466 5.562h1.201c0.368 0 0.667 0.3 0.667 0.672s-0.299 0.673-0.667 0.673h-1.201c-3.749 0-6.799-3.099-6.799-6.906 0-2.793 1.641-5.278 4.137-6.35-0.033-0.315-0.049-0.619-0.049-0.922 0-5.527 4.427-10.023 9.867-10.023 4.013 0 7.619 2.485 9.128 6.234 0.024-0.001 0.047-0.001 0.071-0.001 4.877 0 8.845 4.030 8.845 8.984 0 4.469-3.477 8.414-7.917 8.979z"></path>
</svg>
