<!-- Generated by IcoMoon.io -->
<svg version="1.1" xmlns="http://www.w3.org/2000/svg" width="32" height="32" viewBox="0 0 32 32">
<title>duplicate</title>
<path d="M5.565 5.565h-4.877c-0.375 0-0.688 0.308-0.688 0.688v25.059c0 0.375 0.308 0.688 0.688 0.688h25.059c0.375 0 0.688-0.308 0.688-0.688v-4.877h4.876c0.389 0 0.689-0.308 0.689-0.688v-25.059c0-0.375-0.308-0.688-0.688-0.688h-25.059c-0.375 0-0.688 0.309-0.688 0.689v4.876zM6.957 5.565v-4.174h23.652v23.652h-4.174v-18.79c0-0.375-0.308-0.688-0.688-0.688h-18.79zM1.391 30.609v-23.652h23.652v23.652h-23.652zM6.263 18.087c-0.378 0-0.697 0.311-0.697 0.696 0 0.373 0.312 0.696 0.697 0.696h6.259v6.259c0 0.378 0.311 0.697 0.696 0.697 0.373 0 0.696-0.312 0.696-0.697v-6.259h6.259c0.378 0 0.697-0.311 0.697-0.696 0-0.373-0.312-0.696-0.697-0.696h-6.259v-6.259c0-0.378-0.311-0.697-0.696-0.697-0.373 0-0.696 0.312-0.696 0.697v6.259h-6.259z"></path>
</svg>
