<!-- Generated by IcoMoon.io -->
<svg version="1.1" xmlns="http://www.w3.org/2000/svg" width="32" height="32" viewBox="0 0 32 32">
<title>edit</title>
<path d="M17.34 5.32h-16.006v25.346l25.188-0.001v-16.013c0-0.368 0.294-0.667 0.663-0.667s0.663 0.299 0.663 0.667v16.68c0 0.368-0.134 0.667-0.502 0.667h-26.678c-0.368 0-0.667-0.299-0.667-0.667v-26.68c0-0.368 0.299-0.667 0.667-0.667h16.673c0.368 0 0.667 0.298 0.667 0.667s-0.299 0.667-0.667 0.667zM29.969 2.060c-0.539-0.578-1.128-0.713-1.527-0.725-0.492-0.013-0.983 0.159-1.305 0.466h-0.001l-13.215 13.216-1.529 4.588 4.588-1.53 13.203-13.204c0.535-0.624 0.799-1.729-0.215-2.812zM31.181 5.757c-0.005 0.005-0.012 0.007-0.017 0.013-0.006 0.007-0.008 0.015-0.015 0.021l-13.338 13.34c-0.005 0.005-0.012 0.006-0.017 0.011-0.032 0.031-0.072 0.050-0.111 0.074s-0.074 0.051-0.115 0.066c-0.007 0.003-0.011 0.008-0.017 0.010l-6.002 2.002c-0.070 0.023-0.14 0.034-0.211 0.034-0.174 0-0.344-0.068-0.471-0.195-0.179-0.179-0.241-0.443-0.161-0.683l2.001-6.002c0.002-0.007 0.007-0.011 0.010-0.019 0.015-0.041 0.042-0.076 0.066-0.114s0.044-0.079 0.074-0.111c0.005-0.005 0.006-0.012 0.011-0.017l13.338-13.34c0.002-0.002 0.005-0.003 0.007-0.004s0.002-0.005 0.005-0.007c0.582-0.555 1.412-0.86 2.264-0.833 0.923 0.027 1.797 0.434 2.462 1.147 1.522 1.625 1.217 3.486 0.238 4.609z"></path>
</svg>
