<!-- Generated by IcoMoon.io -->
<svg version="1.1" xmlns="http://www.w3.org/2000/svg" width="32" height="32" viewBox="0 0 32 32">
<title>email-reply</title>
<path d="M26.319 15.17c-4.851-4.903-12.194-4.559-12.267-4.555-0.006 0.001-0.011-0.004-0.016-0.004-0.007 0.001-0.014 0.004-0.022 0.004-0.368 0-0.535-0.33-0.535-0.701v-6.067l-11.781 10.134 11.781 10.089v-6.067c0-0.372 0.167-0.658 0.535-0.658 6.569 0 11.484 1.607 14.611 4.774 0.799 0.81 1.406 1.648 1.867 2.457-0.463-3.917-1.86-7.069-4.173-9.407zM31.946 29.499c-0.020 0.357-0.315 0.634-0.667 0.634h-0.021c-0.362-0.011-0.648-0.311-0.647-0.676-0.001-0.431-0.206-10.41-15.787-10.749v6.711c0 0.262-0.296 0.504-0.532 0.614-0.089 0.041-0.185 0.061-0.279 0.061-0.156 0-0.31-0.054-0.432-0.159l-13.347-11.442c-0.149-0.127-0.235-0.315-0.235-0.512s0.086-0.385 0.235-0.513l13.347-11.442c0.198-0.17 0.476-0.208 0.711-0.098s0.532 0.307 0.532 0.57v6.763c2.184 0.043 8.105 0.584 12.429 4.947 3.488 3.519 5.066 8.663 4.692 15.291z"></path>
</svg>
