<!-- Generated by IcoMoon.io -->
<svg version="1.1" xmlns="http://www.w3.org/2000/svg" width="32" height="32" viewBox="0 0 32 32">
<title>email-inbox</title>
<path d="M26.014 1.606h-19.955c-0.367 0-0.666-0.3-0.666-0.67 0-0.369 0.298-0.669 0.666-0.669h19.955c0.367 0 0.665 0.3 0.665 0.669 0 0.37-0.298 0.67-0.665 0.67zM30.747 18.344h-8.762c-0.332 3.008-2.873 5.356-5.949 5.356s-5.618-2.348-5.95-5.356h-8.748v11.382c0 0.369 0.365 0.669 0.732 0.669h27.937c0.366 0 0.742-0.301 0.742-0.669v-11.382zM28.009 9.635v7.37h2.394l-2.394-7.37zM26.736 8.57c-0.036-0.084-0.057-0.173-0.057-0.269 0-0.097 0.021-0.186 0.057-0.268v-3.079h-21.389v3.116c0.027 0.073 0.046 0.149 0.046 0.231 0 0.082-0.020 0.158-0.046 0.231v8.473h5.367c0.366 0 0.665 0.3 0.665 0.67 0 2.584 2.089 4.686 4.656 4.686s4.656-2.102 4.656-4.686c0-0.37 0.298-0.67 0.665-0.67h5.38v-8.435zM4.063 9.635l-2.394 7.37h2.394v-7.37zM32 29.726c0 1.108-0.895 2.008-1.995 2.008h-27.937c-1.101 0-2.068-0.9-2.068-2.008v-12.052c0-0.15 0.075-0.271 0.173-0.373l2.991-9.209c0.090-0.275 0.345-0.461 0.633-0.461h0.266v-3.347c0-0.37 0.298-0.67 0.665-0.67h22.615c0.367 0 0.665 0.3 0.665 0.67v3.347h0.267c0.287 0 0.543 0.187 0.632 0.461l3.016 9.285c0.046 0.090 0.076 0.189 0.076 0.297 0 0.009-0.004 0.014-0.004 0.022s0.004 0.013 0.004 0.022v12.007z"></path>
</svg>
