<!-- Generated by IcoMoon.io -->
<svg version="1.1" xmlns="http://www.w3.org/2000/svg" width="32" height="32" viewBox="0 0 32 32">
<title>email-search</title>
<path d="M13.996 1.54l-12.342 10.471 6.539 8.41 4.585-3.984c0.69-0.578 1.751-0.572 2.426 0.007l4.11 3.93 7.091-8.293-12.408-10.541zM1.337 26.379l5.85-5.084-5.85-7.524v12.607zM27.343 18.674c-0.367 0-0.665-0.299-0.665-0.667v-4.199l-6.812 7.967c-0.004 0.005-0.010 0.006-0.014 0.011s-0.005 0.011-0.010 0.016c-0.049 0.051-0.108 0.084-0.166 0.116-0.017 0.009-0.030 0.025-0.047 0.033-0.083 0.037-0.171 0.055-0.261 0.056-0.003 0-0.006 0.002-0.008 0.002-0.079 0-0.157-0.014-0.233-0.043-0.013-0.005-0.025-0.017-0.039-0.023-0.057-0.026-0.113-0.053-0.161-0.095-0.005-0.004-0.007-0.010-0.011-0.014s-0.011-0.005-0.015-0.010l-4.591-4.39c-0.152-0.13-0.492-0.132-0.672 0.018l-11.383 9.893h16.44c0.367 0 0.666 0.299 0.666 0.667s-0.298 0.668-0.666 0.668h-16.63c-1.1 0-2.067-0.903-2.067-2.006v-14.697c0-0.14 0.067-0.268 0.155-0.384 0.006-0.012 0.019-0.020 0.026-0.032 0.033-0.040 0.059-0.085 0.099-0.121 0.011-0.010 0.015-0.023 0.027-0.034l13.26-11.249c0.249-0.21 0.612-0.21 0.86 0l13.348 11.338c0.001 0 0.001 0.001 0.001 0.002 0.001 0 0.002 0.001 0.002 0.001 0.039 0.033 0.061 0.076 0.090 0.116 0.004 0.004 0.007 0.009 0.010 0.013 0.001 0 0.001 0.001 0.001 0.001 0.045 0.064 0.077 0.132 0.097 0.205 0.001 0.002 0.001 0.003 0.001 0.005 0.001 0 0.001 0.001 0.001 0.001 0.012 0.047 0.027 0.093 0.029 0.142 0.001 0.009 0.004 0.016 0.004 0.025v6.003c0 0.368-0.298 0.667-0.666 0.667zM25.348 22.676c-1.467 0-2.66 1.197-2.66 2.668s1.194 2.668 2.66 2.668c1.467 0 2.661-1.197 2.661-2.668s-1.194-2.668-2.661-2.668zM31.805 31.818c-0.13 0.131-0.3 0.195-0.47 0.195-0.171 0-0.341-0.065-0.47-0.195l-3.212-3.22c-0.652 0.467-1.445 0.748-2.306 0.748-2.201 0-3.99-1.795-3.99-4.002s1.79-4.002 3.99-4.002c2.201 0 3.992 1.795 3.992 4.002 0 0.862-0.28 1.657-0.745 2.311l3.211 3.221c0.26 0.26 0.26 0.682 0 0.942z"></path>
</svg>
