<!-- Generated by IcoMoon.io -->
<svg version="1.1" xmlns="http://www.w3.org/2000/svg" width="31" height="32" viewBox="0 0 31 32">
<title>email-unread</title>
<path d="M30.164 15.176l-7.974 6.971 7.923 7.024c0.030-0.111 0.051-0.226 0.051-0.346v-13.649zM27.541 11.757v3.97l2.28-1.993-2.28-1.977zM5.246 5.248v11.636l5.016 4.398 4.276-3.791c0.675-0.579 1.722-0.58 2.389-0.007l4.272 3.787 5.029-4.397v-11.625h-20.983zM15.738 1.524l-2.782 2.412h5.564l-2.782-2.412zM1.655 13.734l2.28 1.999v-3.977l-2.28 1.978zM1.312 28.825c0 0.121 0.020 0.235 0.051 0.346l7.91-7.012-7.961-6.98v13.646zM2.667 30.176h26.142c0.136 0 0.265-0.027 0.389-0.064l-13.131-11.64c-0.165-0.142-0.494-0.142-0.667 0.007l-13.123 11.632c0.124 0.037 0.253 0.064 0.389 0.064zM28.809 31.488h-26.142c-1.47 0-2.667-1.195-2.667-2.663v-15.050c0-0.007 0.002-0.012 0.004-0.018-0.004-0.093 0.017-0.184 0.052-0.272 0.010-0.024 0.027-0.044 0.039-0.068 0.023-0.039 0.036-0.082 0.068-0.117 0.011-0.014 0.027-0.018 0.039-0.030 0.010-0.010 0.013-0.024 0.024-0.033l3.708-3.215v-5.429c0-0.362 0.294-0.657 0.656-0.657h6.363l4.356-3.775c0.247-0.213 0.612-0.213 0.859 0l4.356 3.775h6.363c0.362 0 0.655 0.294 0.655 0.657v5.428l3.709 3.216c0.011 0.009 0.014 0.023 0.024 0.033 0.013 0.012 0.029 0.017 0.040 0.031 0.031 0.035 0.046 0.078 0.068 0.117 0.012 0.023 0.029 0.044 0.039 0.068 0.035 0.087 0.055 0.178 0.052 0.27 0.002 0.007 0.004 0.013 0.004 0.019v15.050c0 1.468-1.196 2.663-2.666 2.663z"></path>
</svg>
