<!-- Generated by IcoMoon.io -->
<svg version="1.1" xmlns="http://www.w3.org/2000/svg" width="32" height="32" viewBox="0 0 32 32">
<title>email-read</title>
<path d="M2.71 6.667c-0.137 0-0.267 0.026-0.393 0.062l13.682 11.727 13.682-11.727c-0.125-0.036-0.255-0.062-0.393-0.062h-26.579zM1.333 24.001c0 0.735 0.618 1.333 1.377 1.333h26.579c0.759 0 1.377-0.597 1.377-1.333v-16.001c0-0.111-0.018-0.218-0.045-0.322l-14.188 12.162c-0.125 0.107-0.279 0.161-0.434 0.161s-0.309-0.053-0.434-0.161l-14.188-12.162c-0.027 0.103-0.045 0.211-0.045 0.322v16.001zM29.29 26.667h-26.579c-1.494 0-2.71-1.195-2.71-2.666v-16.001c0-1.47 1.216-2.667 2.71-2.667h26.579c1.494 0 2.71 1.197 2.71 2.667v16.001c0 1.471-1.216 2.666-2.71 2.666z"></path>
</svg>
