<!-- Generated by IcoMoon.io -->
<svg version="1.1" xmlns="http://www.w3.org/2000/svg" width="32" height="32" viewBox="0 0 32 32">
<title>error-prompt</title>
<path d="M16 31.789c8.716 0 15.789-7.074 15.789-15.789s-7.074-15.789-15.789-15.789c-8.716 0-15.789 7.074-15.789 15.789s7.074 15.789 15.789 15.789zM16 1.474c8 0 14.526 6.526 14.526 14.526s-6.526 14.526-14.526 14.526c-8 0-14.526-6.526-14.526-14.526s6.526-14.526 14.526-14.526zM15.789 18.316c0.337 0 0.632-0.295 0.632-0.632v-8c0-0.337-0.295-0.632-0.632-0.632s-0.632 0.295-0.632 0.632v8c0 0.337 0.295 0.632 0.632 0.632zM15.789 23.368c0.337 0 0.632-0.295 0.632-0.632v-1.263c0-0.337-0.295-0.632-0.632-0.632s-0.632 0.295-0.632 0.632v1.263c0 0.337 0.295 0.632 0.632 0.632z"></path>
</svg>
