<!-- Generated by IcoMoon.io -->
<svg version="1.1" xmlns="http://www.w3.org/2000/svg" width="32" height="32" viewBox="0 0 32 32">
<title>exit</title>
<path d="M16.221 10.762c-0.274-0.247-0.296-0.668-0.050-0.942 0.245-0.273 0.668-0.295 0.941-0.049l6.667 6c0.004 0.003 0.006 0.010 0.010 0.014 0.049 0.045 0.084 0.102 0.117 0.161 0.011 0.019 0.028 0.034 0.037 0.055 0.036 0.082 0.057 0.171 0.057 0.265 0 0.095-0.021 0.185-0.057 0.266-0.010 0.022-0.028 0.039-0.040 0.060-0.033 0.057-0.067 0.112-0.114 0.157-0.004 0.003-0.006 0.010-0.010 0.014l-6.667 6c-0.127 0.115-0.286 0.171-0.446 0.171-0.182 0-0.364-0.074-0.495-0.221-0.246-0.274-0.225-0.694 0.050-0.941l5.374-4.837h-20.929c-0.368 0-0.667-0.299-0.667-0.668 0-0.367 0.299-0.667 0.667-0.667h20.93l-5.376-4.837zM30.667 32h-18.667c-0.735 0-1.333-0.598-1.333-1.333v-9.333c0-0.369 0.299-0.667 0.667-0.667s0.667 0.299 0.667 0.667v9.333h18.667v-29.334h-18.667v9.333c0 0.369-0.299 0.667-0.667 0.667s-0.667-0.298-0.667-0.667v-9.333c0-0.735 0.598-1.333 1.333-1.333h18.667c0.735 0 1.333 0.598 1.333 1.333v29.334c0 0.735-0.598 1.333-1.333 1.333z"></path>
</svg>
