<!-- Generated by IcoMoon.io -->
<svg version="1.1" xmlns="http://www.w3.org/2000/svg" width="32" height="32" viewBox="0 0 32 32">
<title>expand</title>
<path d="M19.576 11.379l-8.909 0.001c-0.362 0-0.656-0.294-0.656-0.656s0.294-0.656 0.656-0.656h10.492c0.362 0 0.637 0.292 0.637 0.654v10.492c0 0.363-0.275 0.654-0.637 0.654s-0.677-0.292-0.677-0.654v-8.887l-19.187 19.187c-0.128 0.128-0.296 0.192-0.464 0.192s-0.335-0.064-0.463-0.192c-0.256-0.256-0.256-0.672 0-0.927l19.209-19.208zM30.995 31.707h-20.984c-0.362 0-0.656-0.294-0.656-0.656s0.294-0.656 0.656-0.656h20.328v-28.853h-28.912v20.985c0 0.362-0.235 0.655-0.597 0.655s-0.656-0.293-0.656-0.655v-21.64c0-0.362 0.294-0.655 0.656-0.655h30.165c0.362 0 0.656 0.293 0.656 0.655v30.165c0 0.362-0.294 0.656-0.656 0.656z"></path>
</svg>
