<!-- Generated by IcoMoon.io -->
<svg version="1.1" xmlns="http://www.w3.org/2000/svg" width="32" height="32" viewBox="0 0 32 32">
<title>export</title>
<path d="M15.318 0.516c0.003-0.005 0.009-0.006 0.012-0.010 0.045-0.046 0.099-0.079 0.155-0.111 0.020-0.012 0.036-0.029 0.058-0.039 0.080-0.035 0.168-0.055 0.26-0.055s0.18 0.020 0.26 0.055c0.021 0.009 0.037 0.027 0.057 0.038 0.056 0.032 0.111 0.066 0.155 0.111 0.003 0.004 0.009 0.005 0.012 0.010l6.557 7.213c0.243 0.268 0.224 0.683-0.044 0.927-0.268 0.243-0.683 0.224-0.927-0.044l-5.416-5.959v20.599c0 0.363-0.293 0.656-0.656 0.656s-0.656-0.294-0.656-0.656v-20.599l-5.416 5.959c-0.245 0.268-0.66 0.287-0.927 0.044-0.268-0.244-0.287-0.658-0.044-0.927l6.557-7.213zM30.229 31.777h-28.852c-0.723 0-1.311-0.589-1.311-1.312v-9.18c0-0.362 0.293-0.656 0.656-0.656s0.656 0.294 0.656 0.656v9.18h28.852v-9.18c0-0.362 0.293-0.656 0.656-0.656s0.656 0.294 0.656 0.656v9.18c0 0.723-0.589 1.312-1.311 1.312z"></path>
</svg>
