<!-- Generated by IcoMoon.io -->
<svg version="1.1" xmlns="http://www.w3.org/2000/svg" width="15" height="32" viewBox="0 0 15 32">
<title>fb</title>
<path d="M9.194 10.601c-0.015 0.001-0.027 0.009-0.042 0.009-0.373 0-0.675-0.293-0.675-0.656v-3.36c0-0.059 0.008-0.117 0.023-0.171 0.104-0.553 0.561-1.067 1.326-1.067h2.636v-3.934h-3.311c-3.1 0-4.721 2.31-4.721 4.59v3.935c0 0.363-0.302 0.655-0.675 0.655h-2.024v3.935h2.024c0.373 0 0.675 0.293 0.675 0.655v15.083h4.047v-15.083c0-0.362 0.302-0.655 0.675-0.655h3.373c0.060 0 0.168-0.081 0.183-0.139l0.976-3.796h-4.489zM15.038 10.742l-1.022 3.973c-0.165 0.645-0.807 1.133-1.492 1.133h-2.698v14.427c0 0.723-0.606 1.311-1.35 1.311h-4.047c-0.744 0-1.349-0.589-1.349-1.311v-14.427h-1.35c-0.743 0-1.349-0.588-1.349-1.312v-3.935c0-0.722 0.606-1.311 1.349-1.311h1.35v-3.279c0-2.861 2.127-5.902 6.070-5.902h4.047c0.372 0 0.605 0.293 0.605 0.656v5.246c0 0.362-0.233 0.656-0.605 0.656h-3.373v2.623h4.047c0.386 0 0.736 0.16 0.96 0.439s0.299 0.648 0.205 1.012z"></path>
</svg>
