<!-- Generated by IcoMoon.io -->
<svg version="1.1" xmlns="http://www.w3.org/2000/svg" width="32" height="32" viewBox="0 0 32 32">
<title>file</title>
<path d="M27.542 8.195l-7.822-8.001c-0.125-0.127-0.291-0.195-0.46-0.195-0.041 0-0.080 0.017-0.12 0.024-0.040-0.007-0.076-0.024-0.118-0.024h-12.799c-1.078 0-1.956 0.897-1.956 1.999v28.001c0 1.103 0.877 2 1.956 2h19.555c1.078 0 1.956-0.897 1.956-2v-21.155c0.020-0.279-0.041-0.495-0.191-0.649zM19.911 2.275l5.597 5.725h-5.597v-5.725zM26.48 30c0 0.369-0.344 0.667-0.703 0.667h-19.555c-0.359 0-0.652-0.299-0.652-0.667v-28.001c0-0.368 0.293-0.667 0.652-0.667h12.385v7.333c0 0.369 0.291 0.667 0.652 0.667h7.221v20.666z"></path>
</svg>
