<!-- Generated by IcoMoon.io -->
<svg version="1.1" xmlns="http://www.w3.org/2000/svg" width="32" height="32" viewBox="0 0 32 32">
<title>filter</title>
<path d="M17.966 3.541c0-1.085-0.882-1.967-1.967-1.967s-1.967 0.883-1.967 1.967c0 1.085 0.883 1.967 1.967 1.967s1.967-0.883 1.967-1.967zM12.787 4.197h-11.869c-0.363 0-0.656-0.294-0.656-0.656s0.293-0.656 0.656-0.656h11.869c0.305-1.494 1.63-2.623 3.213-2.623s2.908 1.129 3.213 2.623h11.87c0.362 0 0.656 0.294 0.656 0.656s-0.294 0.656-0.656 0.656h-11.87c-0.305 1.494-1.63 2.623-3.213 2.623s-2.908-1.129-3.213-2.623zM12.065 16c0-1.085-0.883-1.967-1.967-1.967s-1.968 0.883-1.968 1.967c0 1.085 0.883 1.967 1.968 1.967s1.967-0.883 1.967-1.967zM6.885 16.656h-5.968c-0.363 0-0.656-0.294-0.656-0.656s0.293-0.656 0.656-0.656h5.968c0.304-1.494 1.629-2.623 3.213-2.623s2.908 1.129 3.212 2.623h17.772c0.362 0 0.656 0.294 0.656 0.656s-0.294 0.656-0.656 0.656h-17.772c-0.304 1.494-1.628 2.623-3.212 2.623s-2.908-1.129-3.213-2.623zM23.869 28.459c0-1.085-0.883-1.967-1.968-1.967s-1.967 0.883-1.967 1.967 0.882 1.967 1.967 1.967c1.085 0 1.968-0.883 1.968-1.967zM18.689 29.115h-17.772c-0.363 0-0.656-0.294-0.656-0.656s0.293-0.656 0.656-0.656h17.772c0.304-1.494 1.628-2.623 3.212-2.623s2.908 1.129 3.213 2.623h5.968c0.362 0 0.656 0.294 0.656 0.656s-0.294 0.656-0.656 0.656h-5.968c-0.305 1.494-1.63 2.623-3.213 2.623s-2.908-1.129-3.212-2.623z"></path>
</svg>
