<!-- Generated by IcoMoon.io -->
<svg version="1.1" xmlns="http://www.w3.org/2000/svg" width="32" height="32" viewBox="0 0 32 32">
<title>finance-balance</title>
<path d="M22.002 17.334h-0.622c0.324 2.258 2.272 4 4.619 4s4.295-1.742 4.62-4h-8.617zM26 6.775l-3.076 9.226h6.151l-3.075-9.226zM2.925 16h6.151l-3.075-9.226-3.076 9.226zM2 17.334h-0.619c0.325 2.258 2.272 4 4.619 4s4.295-1.742 4.62-4h-8.62zM25.999 22.668c-3.309 0-6-2.692-6-6.001 0-0.368 0.298-0.667 0.667-0.667h0.853l3.556-10.667h-8.409v24.001h4.667c0.369 0 0.667 0.299 0.667 0.667s-0.298 0.667-0.667 0.667h-10.667c-0.369 0-0.667-0.299-0.667-0.667s0.298-0.667 0.667-0.667h4.667v-24.001h-8.408l3.555 10.667h0.853c0.369 0 0.667 0.299 0.667 0.667 0 3.309-2.692 6.001-6.001 6.001s-6-2.692-6-6.001c0-0.368 0.298-0.667 0.667-0.667h0.853l3.557-10.667h-2.365c-0.368 0-0.667-0.298-0.667-0.666s0.299-0.667 0.667-0.667h12.623v-2c0-0.369 0.298-0.667 0.667-0.667s0.667 0.298 0.667 0.667v2h12.622c0.369 0 0.667 0.299 0.667 0.667s-0.299 0.666-0.667 0.666h-2.364l3.555 10.667h0.853c0.369 0 0.667 0.299 0.667 0.667 0 3.309-2.692 6.001-6.001 6.001z"></path>
</svg>
