<!-- Generated by IcoMoon.io -->
<svg version="1.1" xmlns="http://www.w3.org/2000/svg" width="48" height="32" viewBox="0 0 48 32">
<title>fixed</title>
<path d="M47.714 15.536c0.013 0.026 0.036 0.044 0.047 0.070 0.053 0.121 0.083 0.254 0.083 0.395s-0.030 0.273-0.083 0.394c-0.010 0.022-0.029 0.038-0.040 0.060-0.051 0.096-0.108 0.187-0.186 0.262-0.004 0.005-0.006 0.010-0.010 0.014l-13.954 12.959c-0.193 0.179-0.435 0.266-0.679 0.266-0.269 0-0.534-0.108-0.73-0.319-0.375-0.404-0.352-1.034 0.050-1.409l12.095-11.231h-43.311c-0.552 0-0.997-0.447-0.997-0.996 0-0.551 0.445-0.998 0.997-0.998h43.311l-12.095-11.231c-0.403-0.376-0.425-1.005-0.050-1.409 0.372-0.403 1.004-0.427 1.408-0.051l13.954 12.957c0.005 0.005 0.006 0.011 0.011 0.016 0.073 0.072 0.128 0.159 0.177 0.251z"></path>
</svg>
