<!-- Generated by IcoMoon.io -->
<svg version="1.1" xmlns="http://www.w3.org/2000/svg" width="32" height="32" viewBox="0 0 32 32">
<title>form-budget</title>
<path d="M30.667 1.334h-29.333v29.334h29.333v-29.334zM31.333 32.001h-30.667c-0.368 0-0.667-0.298-0.667-0.666v-30.667c0-0.368 0.299-0.667 0.667-0.667h30.667c0.368 0 0.667 0.299 0.667 0.667v30.667c0 0.368-0.299 0.666-0.667 0.666zM16.212 15.182c1.697 0 3.078 1.382 3.078 3.081 0 1.431-0.985 2.627-2.309 2.971l0.001 1.65c0 0.426-0.344 0.77-0.769 0.771s-0.769-0.346-0.769-0.77l-0.001-1.542h-1.538c-0.425 0-0.769-0.345-0.769-0.77s0.344-0.77 0.769-0.77h2.307c0.849 0 1.539-0.691 1.539-1.54s-0.69-1.54-1.539-1.54c-1.697 0-3.076-1.383-3.076-3.082 0-1.431 0.984-2.627 2.308-2.971v-1.651c0-0.425 0.344-0.77 0.769-0.77s0.769 0.345 0.769 0.77v1.542h1.539c0.425 0 0.769 0.345 0.769 0.771s-0.344 0.77-0.769 0.77h-2.309c-0.848 0-1.538 0.69-1.538 1.539s0.69 1.541 1.538 1.541z"></path>
</svg>
