<!-- Generated by IcoMoon.io -->
<svg version="1.1" xmlns="http://www.w3.org/2000/svg" width="37" height="32" viewBox="0 0 37 32">
<title>furnished</title>
<path d="M36.552 11.527l-22.674-11.239-2.184 1.068-3.745 5.975 0.716 0.373 3.736-5.999 0.12 0.060-3.565 6.091 0.697 0.364 3.571-6.107-3.448 8.377-7.235 3.608v-1.464l6.466-3.219 0.645-1.195-1.703-0.888-7.897 3.949 0.657 0.33 7.239-3.62 1.076 0.538-7.269 3.605-1.703-0.852v7.897l0.716 0.358v1.69l0.988 0.494 0.988-0.494v-0.709l18.67 9.167v1.734l0.988 0.494 0.988-0.494v-0.744l0.174 0.087 10.467-5.22 0.979 0.49 0.988-0.494v-0.981l0.555-0.278v-12.75zM31.598 18.864v0zM2.54 15.475v-0.598l19.319 9.526v1.969l-19.319-9.522v-1.375zM29.896 18.633l1.080 0.54-7.417 3.69-1.042-0.521 7.379-3.709zM30.903 18.5l-0.291-0.152 3.627-5.824 0.125 0.062-3.461 5.914zM13.875 1.163l20.894 10.356-0.399 0.194-20.9-10.352 0.404-0.197zM13.927 2.464l19.605 9.711-3.636 5.801-1.569 0.788-17.547-8.652 3.147-7.648zM10.664 10.929l16.784 8.276-5.589 2.808v1.513l-0.002 0.001-18.335-9.040 7.142-3.557zM0.837 12.552l0.918 0.459v4.327l20.889 10.298v-4.352l0.593 0.291-0.003 6.141-1.034-0.517 0.001-0.002-21.363-10.504v-6.141zM23.847 23.581l6.967-3.45 0.785-1.267 0.001 0 3.522-6.023 0.645-0.226v11.175l-5.107 2.559-6.812 3.373v-6.142h-0z"></path>
</svg>
