<!-- Generated by IcoMoon.io -->
<svg version="1.1" xmlns="http://www.w3.org/2000/svg" width="32" height="32" viewBox="0 0 32 32">
<title>grid</title>
<path d="M9.228 0.975h-8.053v7.806h8.053v-7.806zM9.676 9.756h-8.948c-0.247 0-0.447-0.218-0.447-0.487v-8.781c0-0.27 0.2-0.488 0.447-0.488h8.948c0.247 0 0.447 0.218 0.447 0.488v8.781c0 0.269-0.2 0.487-0.447 0.487zM9.228 12.019h-8.053v7.806h8.053v-7.806zM9.676 20.8h-8.948c-0.247 0-0.447-0.218-0.447-0.487v-8.781c0-0.27 0.2-0.488 0.447-0.488h8.948c0.247 0 0.447 0.218 0.447 0.488v8.781c0 0.269-0.2 0.487-0.447 0.487zM9.228 23.063h-8.053v7.806h8.053v-7.806zM9.676 31.844h-8.948c-0.247 0-0.447-0.218-0.447-0.487v-8.781c0-0.27 0.2-0.488 0.447-0.488h8.948c0.247 0 0.447 0.218 0.447 0.488v8.781c0 0.269-0.2 0.487-0.447 0.487zM20.076 0.975h-8.053v7.806h8.053v-7.806zM20.523 9.756h-8.948c-0.247 0-0.447-0.218-0.447-0.487v-8.781c0-0.27 0.2-0.488 0.447-0.488h8.948c0.247 0 0.447 0.218 0.447 0.488v8.781c0 0.269-0.2 0.487-0.447 0.487zM20.076 12.019h-8.053v7.806h8.053v-7.806zM20.523 20.8h-8.948c-0.247 0-0.447-0.218-0.447-0.487v-8.781c0-0.27 0.2-0.488 0.447-0.488h8.948c0.247 0 0.447 0.218 0.447 0.488v8.781c0 0.269-0.2 0.487-0.447 0.487zM20.076 23.063h-8.053v7.806h8.053v-7.806zM20.523 31.844h-8.948c-0.247 0-0.447-0.218-0.447-0.487v-8.781c0-0.27 0.2-0.488 0.447-0.488h8.948c0.247 0 0.447 0.218 0.447 0.488v8.781c0 0.269-0.2 0.487-0.447 0.487zM30.923 0.975h-8.053v7.806h8.053v-7.806zM31.37 9.756h-8.948c-0.247 0-0.447-0.218-0.447-0.487v-8.781c0-0.27 0.2-0.488 0.447-0.488h8.948c0.247 0 0.447 0.218 0.447 0.488v8.781c0 0.269-0.2 0.487-0.447 0.487zM30.923 12.019h-8.053v7.806h8.053v-7.806zM31.37 20.8h-8.948c-0.247 0-0.447-0.218-0.447-0.487v-8.781c0-0.27 0.2-0.488 0.447-0.488h8.948c0.247 0 0.447 0.218 0.447 0.488v8.781c0 0.269-0.2 0.487-0.447 0.487zM30.923 23.063h-8.053v7.806h8.053v-7.806zM31.37 31.844h-8.948c-0.247 0-0.447-0.218-0.447-0.487v-8.781c0-0.27 0.2-0.488 0.447-0.488h8.948c0.247 0 0.447 0.218 0.447 0.488v8.781c0 0.269-0.2 0.487-0.447 0.487z"></path>
</svg>
