<!-- Generated by IcoMoon.io -->
<svg version="1.1" xmlns="http://www.w3.org/2000/svg" width="32" height="32" viewBox="0 0 32 32">
<title>guest</title>
<path d="M16 9.333c-2.941 0-5.333 2.393-5.333 5.333 0 0.011-0.006 0.021-0.007 0.031 0.001 0.011 0.007 0.020 0.007 0.031v5.271h2c0.031 0 0.058 0.013 0.088 0.017 0.045 0.007 0.087 0.011 0.129 0.027s0.079 0.037 0.118 0.059c0.035 0.021 0.068 0.040 0.098 0.066 0.035 0.030 0.061 0.065 0.089 0.101 0.024 0.032 0.048 0.063 0.067 0.099 0.021 0.041 0.031 0.084 0.043 0.129 0.008 0.029 0.025 0.054 0.029 0.085l1.261 10.082h2.823l1.261-10.082c0.004-0.031 0.021-0.057 0.029-0.087 0.012-0.043 0.023-0.086 0.043-0.126 0.019-0.039 0.045-0.071 0.071-0.105s0.051-0.066 0.082-0.094c0.033-0.029 0.069-0.050 0.107-0.073 0.036-0.021 0.070-0.041 0.109-0.055 0.043-0.015 0.087-0.021 0.133-0.027 0.030-0.004 0.057-0.017 0.087-0.017h2v-5.271c0-0.011 0.006-0.020 0.006-0.031s-0.006-0.020-0.006-0.031c0-2.94-2.393-5.333-5.333-5.333zM18.667 4.001c0-1.471-1.197-2.667-2.667-2.667s-2.667 1.196-2.667 2.667 1.196 2.667 2.667 2.667c1.47 0 2.667-1.197 2.667-2.667zM22.667 20.667c0 0.368-0.299 0.666-0.667 0.666h-2.078l-1.261 10.083c-0.041 0.333-0.325 0.584-0.661 0.584h-4c-0.336 0-0.62-0.251-0.661-0.584l-1.261-10.083h-2.078c-0.368 0-0.667-0.298-0.667-0.666v-5.938c0-0.011 0.006-0.020 0.006-0.031s-0.006-0.020-0.006-0.031c0-3.673 2.985-6.661 6.657-6.665-2.201-0.005-3.991-1.797-3.991-4.001 0-2.206 1.794-4.001 4-4.001s4 1.795 4 4.001c0 2.203-1.789 3.995-3.991 4.001 3.672 0.005 6.657 2.993 6.657 6.665 0 0.011-0.006 0.021-0.007 0.031 0.001 0.011 0.007 0.020 0.007 0.031v5.938z"></path>
</svg>
