<!-- Generated by IcoMoon.io -->
<svg version="1.1" xmlns="http://www.w3.org/2000/svg" width="36" height="32" viewBox="0 0 36 32">
<title>gym</title>
<path d="M34.794 14.424c-0.122-2.622-1.118-4.603-2.802-5.579l-2.508-1.448c-0.754-0.434-1.609-0.654-2.542-0.654-1.477 0-3.116 0.562-4.75 1.626 0.029-2.945-0.99-5.225-2.816-6.279l-2.496-1.441c-1.677-0.966-3.87-0.855-6.187 0.328-0.239-0.043-0.48-0.064-0.719-0.064-1.992 0-4.331 1.342-6.274 3.595l-0.020-0.012c-0.212-0.122-0.45-0.184-0.708-0.184-0.835 0-1.804 0.707-2.412 1.757-0.819 1.42-0.732 2.952 0.198 3.489l0.005 0.003c-1.141 3.21-0.989 6.235 0.4 7.928 0.133 2.597 1.129 4.559 2.805 5.528l2.507 1.444c0.752 0.433 1.606 0.652 2.538 0.652 1.465 0 3.097-0.559 4.73-1.618-0.001 0.046-0.002 0.092-0.002 0.137 0 2.899 1.006 5.077 2.832 6.131l2.501 1.443c0.753 0.433 1.609 0.653 2.542 0.653 1.157 0 2.401-0.341 3.696-1.012 0.211 0.029 0.395 0.042 0.575 0.042 2.138 0 4.616-1.509 6.634-4.037 0.729-0.19 1.484-0.836 1.981-1.695 0.365-0.632 0.566-1.318 0.566-1.931 0-0.216-0.033-0.43-0.1-0.652 1.25-3.264 1.183-6.38-0.175-8.153zM1.97 6.952c-0.282 0.488-0.546 1.009-0.785 1.553-0.185-0.311-0.166-1.074 0.308-1.896 0.41-0.709 1.061-1.242 1.506-1.22-0.378 0.508-0.724 1.033-1.029 1.562zM8.809 2.164c-1.909 1.432-3.682 3.482-5.037 5.829-1.382 2.391-2.252 4.891-2.535 7.269-0.53-2.082 0.092-5.051 1.662-7.772s3.837-4.745 5.909-5.326zM32.275 21.997c-0.031 0.023-0.061 0.048-0.091 0.074l-0.039 0.033c-0.077 0.064-0.153 0.13-0.227 0.202-0.043 0.042-0.084 0.085-0.125 0.129-0.081 0.086-0.159 0.177-0.234 0.273l-0.028 0.034c-0.018 0.022-0.035 0.043-0.052 0.066v0c-0.114 0.153-0.209 0.296-0.29 0.437-0.079 0.136-0.143 0.276-0.2 0.4l-0.023 0.046c-0.012 0.024-0.024 0.048-0.036 0.072-0.012 0.030-0.023 0.060-0.033 0.090l-0.019 0.054c-0.153 0.398-0.241 0.791-0.258 1.149l-1.201-0.693c-0.289-0.167-0.358-1.057 0.197-2.019 0.402-0.696 1.039-1.22 1.48-1.22 0.066 0 0.123 0.013 0.17 0.041l1.205 0.695c-0.065 0.042-0.131 0.088-0.196 0.137zM31.711 25.017l0.008-0.070c0.005-0.054 0.011-0.108 0.021-0.164 0.003-0.014 0.007-0.029 0.011-0.044l0.011-0.045c0.069-0.313 0.189-0.618 0.355-0.907 0.402-0.696 1.039-1.22 1.481-1.22 0.066 0 0.123 0.013 0.179 0.043 0.138 0.087 0.218 0.312 0.218 0.618 0 0.428-0.15 0.923-0.421 1.393-0.344 0.594-0.875 1.074-1.322 1.193-0.079 0.021-0.226 0.048-0.328-0.012-0.024-0.013-0.050-0.038-0.093-0.088-0.018-0.024-0.034-0.060-0.061-0.122-0.004-0.010-0.010-0.019-0.013-0.032-0.007-0.019-0.011-0.041-0.015-0.063l-0.010-0.046c-0.008-0.034-0.015-0.069-0.020-0.107-0.001-0.012-0.001-0.026-0.002-0.039l-0.001-0.035c-0.003-0.059-0.005-0.118-0.002-0.181 0.001-0.023 0.004-0.047 0.007-0.071zM28.685 21.807c-0.82 1.419-0.733 2.952 0.196 3.489l2.397 1.38c-1.716 1.97-3.723 3.141-5.391 3.141-0.529 0-1.009-0.121-1.432-0.366-0.082-0.047-0.156-0.104-0.23-0.161l-0.036-0.028c-0.020-0.015-0.040-0.029-0.061-0.043-0.024-0.016-0.048-0.033-0.086-0.068l-0.028-0.028c-0.784-0.709-1.199-1.896-1.199-3.433 0-1.43 0.363-3.022 1.050-4.603 0.101-0.231 0.211-0.463 0.326-0.694l0.040-0.087c0.133-0.264 0.276-0.528 0.425-0.786 1.773-3.071 4.379-5.221 6.638-5.476 0.145-0.016 0.292-0.025 0.437-0.025 0.131 0 0.262 0.008 0.389 0.023 0.332 0.040 0.652 0.14 0.951 0.298 0.016 0.009 0.033 0.016 0.049 0.024 0.014 0.007 0.028 0.012 0.040 0.020 1.743 1.009 2.15 3.903 1.027 7.228l-2.385-1.379c-0.212-0.122-0.45-0.184-0.707-0.184-0.836 0-1.805 0.707-2.411 1.758zM28.624 8.247c-0.116 0.015-0.231 0.035-0.349 0.056-0.112 0.021-0.223 0.042-0.337 0.068-0.117 0.027-0.234 0.059-0.352 0.091-0.113 0.031-0.226 0.063-0.34 0.1s-0.229 0.079-0.355 0.126c-0.114 0.042-0.228 0.084-0.342 0.132-0.119 0.050-0.238 0.104-0.356 0.159l-0.037 0.017c-0.102 0.047-0.204 0.093-0.305 0.145-0.108 0.054-0.217 0.114-0.325 0.174l-0.095 0.052c-0.092 0.050-0.185 0.101-0.277 0.156-0.109 0.064-0.218 0.133-0.327 0.204l-0.071 0.045c-0.099 0.062-0.197 0.125-0.296 0.191-0.1 0.069-0.199 0.14-0.298 0.212l-0.114 0.083c-0.092 0.066-0.183 0.132-0.274 0.203-0.096 0.073-0.192 0.152-0.288 0.23l-0.155 0.127c-0.078 0.063-0.157 0.127-0.234 0.193-0.090 0.077-0.179 0.158-0.268 0.24l-0.161 0.146c-0.079 0.071-0.157 0.142-0.235 0.216-0.089 0.085-0.177 0.174-0.265 0.263l-0.168 0.168c-0.072 0.072-0.145 0.145-0.216 0.22-0.090 0.096-0.179 0.194-0.267 0.294l-0.164 0.181c-0.067 0.073-0.134 0.147-0.199 0.224-0.090 0.104-0.178 0.213-0.265 0.322l-0.167 0.205c-0.059 0.071-0.118 0.143-0.176 0.217-0.096 0.124-0.19 0.252-0.284 0.38l-0.151 0.204c-0.050 0.067-0.1 0.133-0.149 0.203-0.111 0.158-0.219 0.321-0.327 0.483l-0.121 0.181c-0.037 0.054-0.073 0.108-0.109 0.163-0.182 0.284-0.36 0.575-0.527 0.865-1.699 2.943-2.635 6.101-2.635 8.892 0 0.363 0.017 0.72 0.052 1.091 0.006 0.057 0.014 0.11 0.023 0.165 0.006 0.036 0.012 0.073 0.016 0.11 0.030 0.243 0.065 0.5 0.114 0.743 0.014 0.068 0.031 0.133 0.049 0.199l0.030 0.114c0.050 0.202 0.104 0.416 0.171 0.618 0.027 0.082 0.059 0.159 0.090 0.238l0.037 0.093c0.039 0.101 0.076 0.193 0.113 0.28-1.37-0.895-2.121-2.693-2.121-5.093 0-2.606 0.885-5.573 2.49-8.356 2.576-4.461 6.448-7.459 9.635-7.459 0.667 0 1.278 0.138 1.82 0.411-0.047 0.006-0.093 0.011-0.14 0.017zM19.808 16.721c2.576-4.461 6.449-7.459 9.636-7.459 0.187 0 0.37 0.011 0.544 0.032 0.137 0.016 0.28 0.043 0.451 0.084l0.065 0.012c0.126 0.032 0.256 0.074 0.422 0.138 0.014 0.006 0.028 0.010 0.065 0.021 0.043 0.017 0.084 0.039 0.124 0.060l0.158 0.076c0.060 0.028 0.12 0.055 0.177 0.088 1.137 0.657 1.88 1.908 2.16 3.627l-2.414-1.392c-0.583-0.336-1.244-0.507-1.967-0.507-2.703 0-5.921 2.426-8.005 6.038-1.28 2.218-1.985 4.6-1.985 6.707 0 2.215 0.775 3.882 2.182 4.695l2.42 1.396c-1.641 0.619-3.083 0.595-4.229-0.062-0.077-0.045-0.148-0.098-0.219-0.151l-0.082-0.060c-0.028-0.021-0.058-0.040-0.086-0.060-0.050-0.034-0.101-0.068-0.148-0.108-0.062-0.053-0.12-0.113-0.177-0.172l-0.145-0.146c-0.045-0.043-0.090-0.086-0.132-0.134-0.051-0.060-0.098-0.128-0.145-0.194l-0.126-0.174c-0.041-0.054-0.082-0.109-0.119-0.169-0.041-0.066-0.077-0.138-0.113-0.21l-0.108-0.205c-0.036-0.066-0.072-0.131-0.103-0.203-0.032-0.073-0.060-0.152-0.087-0.231l-0.085-0.231c-0.030-0.076-0.059-0.153-0.084-0.234-0.025-0.086-0.046-0.177-0.066-0.268l-0.062-0.259c-0.020-0.079-0.041-0.159-0.057-0.243-0.024-0.128-0.039-0.263-0.055-0.397l-0.013-0.113c-0.005-0.045-0.012-0.089-0.019-0.133-0.010-0.064-0.020-0.129-0.025-0.196-0.025-0.293-0.038-0.598-0.038-0.907-0-2.607 0.884-5.573 2.49-8.356zM30.771 13.043c-0.032 0.005-0.063 0.010-0.095 0.016-0.169 0.036-0.34 0.080-0.509 0.132-0.035 0.010-0.070 0.023-0.105 0.036l-0.084 0.029c-0.11 0.036-0.219 0.073-0.329 0.117-0.049 0.019-0.099 0.041-0.148 0.063l-0.093 0.040c-0.093 0.040-0.185 0.079-0.278 0.124-0.060 0.029-0.12 0.060-0.179 0.092l-0.093 0.049c-0.082 0.043-0.164 0.085-0.246 0.132-0.070 0.040-0.139 0.082-0.208 0.125l-0.032 0.019c-0.092 0.055-0.184 0.111-0.276 0.171-0.078 0.050-0.155 0.104-0.242 0.165-0.090 0.062-0.18 0.126-0.269 0.192-0.081 0.060-0.161 0.122-0.241 0.184-0.088 0.069-0.176 0.139-0.264 0.211-0.080 0.066-0.159 0.134-0.239 0.203-0.086 0.076-0.173 0.153-0.258 0.231-0.078 0.072-0.155 0.144-0.232 0.218-0.086 0.084-0.171 0.168-0.255 0.254-0.075 0.076-0.149 0.153-0.224 0.231-0.085 0.091-0.169 0.184-0.252 0.278-0.071 0.080-0.142 0.159-0.213 0.241-0.077 0.090-0.152 0.183-0.228 0.276l-0.073 0.090c-0.049 0.061-0.099 0.122-0.147 0.184-0.084 0.108-0.166 0.22-0.259 0.347l-0.063 0.086c-0.036 0.049-0.073 0.098-0.108 0.149-0.098 0.139-0.192 0.282-0.287 0.425l-0.051 0.075c-0.024 0.036-0.049 0.072-0.072 0.109-0.134 0.21-0.265 0.424-0.39 0.642-1.28 2.217-1.985 4.6-1.985 6.708 0 0.895 0.127 1.704 0.377 2.411l-0.159-0.091c-1.060-0.612-1.645-1.948-1.645-3.763 0-1.922 0.654-4.112 1.84-6.17 1.899-3.29 4.743-5.5 7.075-5.5 0.53 0 1.011 0.122 1.429 0.363l0.164 0.094-0.052 0.010zM16.020 1.499c-0.116 0.015-0.232 0.035-0.35 0.056-0.111 0.021-0.222 0.042-0.334 0.067-0.119 0.027-0.238 0.059-0.357 0.092-0.111 0.031-0.222 0.062-0.335 0.099-0.12 0.039-0.241 0.084-0.38 0.135-0.106 0.039-0.21 0.078-0.316 0.122-0.122 0.050-0.245 0.107-0.389 0.173-0.103 0.048-0.206 0.095-0.31 0.147-0.112 0.056-0.224 0.118-0.336 0.179l-0.099 0.054c-0.087 0.048-0.174 0.096-0.262 0.148-0.114 0.067-0.227 0.14-0.341 0.212l-0.101 0.064c-0.084 0.053-0.168 0.107-0.252 0.163-0.105 0.071-0.209 0.147-0.313 0.223l-0.15 0.108c-0.075 0.054-0.15 0.108-0.224 0.166-0.107 0.082-0.212 0.168-0.318 0.255l-0.15 0.123c-0.070 0.056-0.139 0.113-0.208 0.172-0.105 0.090-0.209 0.185-0.313 0.28l-0.149 0.135c-0.068 0.061-0.136 0.123-0.203 0.187-0.103 0.098-0.204 0.201-0.305 0.304l-0.155 0.156c-0.063 0.063-0.126 0.126-0.189 0.192-0.102 0.109-0.203 0.221-0.304 0.334l-0.157 0.175c-0.057 0.063-0.114 0.126-0.17 0.191-0.102 0.119-0.202 0.242-0.302 0.366l-0.151 0.186c-0.052 0.063-0.105 0.127-0.156 0.192-0.103 0.132-0.203 0.269-0.303 0.406l-0.148 0.2c-0.045 0.060-0.090 0.12-0.133 0.181-0.131 0.185-0.257 0.376-0.392 0.582l-0.065 0.096c-0.034 0.049-0.068 0.099-0.1 0.15-0.182 0.285-0.36 0.576-0.527 0.866-1.7 2.942-2.636 6.101-2.636 8.892 0 0.36 0.018 0.727 0.052 1.091 0.005 0.054 0.013 0.106 0.021 0.157 0.006 0.035 0.011 0.070 0.016 0.107 0.030 0.246 0.065 0.507 0.117 0.757 0.013 0.063 0.029 0.124 0.046 0.185l0.027 0.106c0.051 0.21 0.108 0.433 0.179 0.644 0.024 0.072 0.052 0.141 0.079 0.21l0.037 0.094c0.036 0.093 0.076 0.194 0.12 0.299-1.369-0.895-2.12-2.693-2.12-5.092 0-2.606 0.885-5.573 2.49-8.356 2.576-4.461 6.448-7.459 9.635-7.459 0.667 0 1.278 0.138 1.82 0.411-0.046 0.005-0.093 0.011-0.139 0.016zM7.204 9.974c2.576-4.461 6.448-7.459 9.635-7.459 0.186 0 0.37 0.011 0.544 0.032 0.529 0.064 1.021 0.226 1.463 0.481l0.028 0.016c1.473 0.869 2.278 2.724 2.266 5.228-0.001 0.253-0.016 0.536-0.047 0.886-1.113 0.882-2.161 1.957-3.117 3.197l-3.224-1.928c-0.212-0.122-0.45-0.184-0.707-0.184-0.836 0-1.805 0.707-2.412 1.758-0.391 0.678-0.59 1.406-0.561 2.050 0.030 0.663 0.3 1.175 0.756 1.438l3.239 1.938c-0.651 1.602-1.067 3.187-1.238 4.714-1.673 1.242-3.338 1.898-4.816 1.898-0.741 0-1.415-0.171-2.009-0.513-0.064-0.037-0.123-0.082-0.182-0.125l-0.173-0.123c-0.061-0.041-0.122-0.082-0.178-0.13-0.053-0.046-0.103-0.097-0.152-0.148l-0.148-0.147c-0.052-0.050-0.105-0.1-0.153-0.157-0.046-0.053-0.086-0.112-0.128-0.171l-0.13-0.178c-0.046-0.060-0.091-0.121-0.132-0.187-0.037-0.061-0.070-0.127-0.103-0.193l-0.11-0.21c-0.038-0.070-0.077-0.14-0.11-0.215-0.031-0.070-0.057-0.145-0.083-0.219l-0.086-0.235c-0.030-0.079-0.061-0.157-0.086-0.241-0.025-0.086-0.046-0.177-0.066-0.268l-0.061-0.255c-0.021-0.081-0.042-0.162-0.058-0.247-0.023-0.123-0.038-0.253-0.053-0.383l-0.015-0.124c-0.006-0.044-0.012-0.087-0.019-0.13-0.010-0.067-0.020-0.133-0.026-0.204-0.025-0.293-0.038-0.598-0.038-0.907 0-2.606 0.885-5.573 2.491-8.354zM12.564 12.539c0.402-0.696 1.039-1.22 1.481-1.22 0.066 0 0.123 0.013 0.168 0.039l3.121 1.873c-0.347 0.501-0.669 1.008-0.958 1.509-0.3 0.518-0.587 1.074-0.876 1.697l-3.133-1.879c-0.289-0.167-0.358-1.057 0.196-2.019z"></path>
</svg>
