<!-- Generated by IcoMoon.io -->
<svg version="1.1" xmlns="http://www.w3.org/2000/svg" width="32" height="32" viewBox="0 0 32 32">
<title>heart-outline</title>
<path d="M8.101 1.867c-2.075 0-4.142 0.796-5.726 2.409-3.168 3.226-3.165 8.434 0 11.663l13.322 13.598c0.164 0.162 0.428 0.162 0.592 0 4.445-4.527 8.889-9.058 13.335-13.585 3.168-3.226 3.168-8.424 0-11.65s-8.297-3.226-11.466 0l-2.146 2.185-2.172-2.212c-1.584-1.613-3.665-2.409-5.739-2.409zM8.101 2.696c1.853 0 3.708 0.72 5.134 2.172l2.475 2.514c0.164 0.162 0.428 0.162 0.592 0l2.462-2.501c2.852-2.904 7.416-2.904 10.268 0s2.852 7.575 0 10.478c-4.345 4.425-8.686 8.857-13.032 13.282l-13.032-13.295c-2.849-2.907-2.852-7.575 0-10.478 1.426-1.452 3.28-2.172 5.134-2.172z"></path>
</svg>
