<!-- Generated by IcoMoon.io -->
<svg version="1.1" xmlns="http://www.w3.org/2000/svg" width="32" height="32" viewBox="0 0 32 32">
<title>hide</title>
<path d="M11.545 25.288c1.213 0.388 2.877 0.619 4.455 0.619 10.119 0 14.667-8.005 14.667-10.070 0-0.97-0.85-3.337-3.13-5.559-0.265-0.258-0.272-0.683-0.016-0.949s0.678-0.273 0.943-0.015c2.43 2.366 3.537 5.040 3.537 6.523 0 2.657-4.987 11.413-16 11.413-1.732 0-3.503-0.248-4.858-0.682-0.351-0.112-0.545-0.49-0.434-0.844s0.487-0.549 0.837-0.437zM15.999 21.879c-0.349 0-0.643-0.274-0.665-0.63-0.023-0.37 0.257-0.688 0.624-0.712 2.527-0.159 4.552-2.197 4.709-4.742 0.023-0.371 0.345-0.655 0.707-0.628 0.367 0.023 0.647 0.342 0.624 0.712-0.199 3.219-2.76 5.798-5.957 5.999-0.014 0.001-0.028 0.001-0.042 0.001zM16 5.766c-10.119 0-14.667 8.005-14.667 10.070 0 1.050 1.789 5.3 5.91 7.882l4.077-4.105c-0.854-1.069-1.32-2.386-1.32-3.777 0-3.332 2.692-6.042 6-6.042 1.379 0 2.691 0.468 3.752 1.327l3.787-3.813c-1.469-0.683-3.815-1.542-7.539-1.542zM12.281 18.646l6.508-6.554c-0.804-0.608-1.768-0.955-2.789-0.955-2.573 0-4.667 2.108-4.667 4.699 0 1.031 0.343 2 0.947 2.81zM2.485 30.41c-0.131 0.131-0.301 0.196-0.471 0.196s-0.341-0.065-0.471-0.196c-0.261-0.262-0.261-0.688 0-0.949l4.734-4.767c-4.335-2.855-6.276-7.477-6.276-8.857 0-2.658 4.987-11.413 16-11.413 4.379 0 7.073 1.155 8.541 1.875l5.001-5.035c0.26-0.262 0.682-0.262 0.943 0s0.26 0.687 0 0.949l-28 28.197z"></path>
</svg>
