<!-- Generated by IcoMoon.io -->
<svg version="1.1" xmlns="http://www.w3.org/2000/svg" width="32" height="32" viewBox="0 0 32 32">
<title>hourglass</title>
<path d="M28.509 0h-25.018v1.333h3.475v7.333c0 3.501 5.049 6.159 7.644 7.334-2.596 1.175-7.644 3.833-7.644 7.334v7.333h-3.475v1.333h25.018v-1.333h-3.475v-7.333c0-3.501-5.049-6.159-7.644-7.334 2.596-1.175 7.644-3.832 7.644-7.333v-7.333h3.475v-1.333zM23.644 23.334v7.333h-15.289v-7.333c0-2.925 5.225-5.706 7.644-6.667 2.42 0.962 7.644 3.743 7.644 6.667zM23.644 8.666c0 2.925-5.226 5.706-7.644 6.667-2.42-0.962-7.644-3.743-7.644-6.667v-7.333h15.289v7.333z"></path>
</svg>
