<!-- Generated by IcoMoon.io -->
<svg version="1.1" xmlns="http://www.w3.org/2000/svg" width="32" height="32" viewBox="0 0 32 32">
<title>housekeeping</title>
<path d="M20.992 8.602c0.285 0 0.516 0.231 0.516 0.516v22.366c0 0.285-0.231 0.516-0.516 0.516s-0.516-0.231-0.516-0.516v-22.366c0-0.285 0.231-0.516 0.516-0.516zM22.713 6.882c0.285 0 0.516 0.231 0.516 0.516s-0.231 0.516-0.516 0.516h-3.441c-0.285 0-0.516-0.231-0.516-0.516s0.231-0.516 0.516-0.516h3.441zM27.874 5.161c0.285 0 0.516 0.231 0.516 0.516s-0.231 0.516-0.516 0.516h-13.763c-0.285 0-0.516-0.231-0.516-0.516s0.231-0.516 0.516-0.516h13.763zM27.874 0c0.285 0 0.516 0.231 0.516 0.516v3.441c0 0.285-0.231 0.516-0.516 0.516s-0.516-0.231-0.516-0.516v-3.441c0-0.285 0.231-0.516 0.516-0.516zM26.154 4.473c-0.285 0-0.516-0.231-0.516-0.516v-3.441c0-0.285 0.231-0.516 0.516-0.516s0.516 0.231 0.516 0.516v3.441c0 0.285-0.231 0.516-0.516 0.516zM24.433 4.473c-0.285 0-0.516-0.231-0.516-0.516v-3.441c0-0.285 0.231-0.516 0.516-0.516s0.516 0.231 0.516 0.516v3.441c0 0.285-0.231 0.516-0.516 0.516zM22.713 4.473c-0.285 0-0.516-0.231-0.516-0.516v-3.441c0-0.285 0.231-0.516 0.516-0.516s0.516 0.231 0.516 0.516v3.441c0 0.285-0.231 0.516-0.516 0.516zM20.992 4.473c-0.285 0-0.516-0.231-0.516-0.516v-3.441c0-0.285 0.231-0.516 0.516-0.516s0.516 0.231 0.516 0.516v3.441c0 0.285-0.231 0.516-0.516 0.516zM19.272 4.473c-0.285 0-0.516-0.231-0.516-0.516v-3.441c0-0.285 0.231-0.516 0.516-0.516s0.516 0.231 0.516 0.516v3.441c0 0.285-0.231 0.516-0.516 0.516zM17.551 4.473c-0.285 0-0.516-0.231-0.516-0.516v-3.441c0-0.285 0.231-0.516 0.516-0.516s0.516 0.231 0.516 0.516v3.441c0 0.285-0.231 0.516-0.516 0.516zM15.831 4.473c-0.285 0-0.516-0.231-0.516-0.516v-3.441c0-0.285 0.231-0.516 0.516-0.516s0.516 0.231 0.516 0.516v3.441c0 0.285-0.231 0.516-0.516 0.516zM14.111 4.473c-0.285 0-0.516-0.231-0.516-0.516v-3.441c0-0.285 0.231-0.516 0.516-0.516s0.516 0.231 0.516 0.516v3.441c0 0.285-0.231 0.516-0.516 0.516zM12.544 23.153c0-1.836-1.368-3.355-3.137-3.601 0.008-0.036 0.013-0.073 0.013-0.111v-18.925c0-0.285-0.231-0.516-0.516-0.516s-0.516 0.231-0.516 0.516v18.925c0 0.038 0.005 0.076 0.013 0.111-1.769 0.246-3.137 1.765-3.137 3.601 0 6.712-1.796 7.867-1.797 7.869l0.231 0.978 11.627-0.003-0.846-0.875c-0.020-0.020-1.935-2.069-1.935-7.969zM8.904 20.546c1.438 0 2.608 1.17 2.608 2.607 0 0.18 0.004 0.352 0.007 0.525h-5.229c0.002-0.173 0.006-0.345 0.006-0.525-0-1.438 1.17-2.607 2.608-2.607zM12.303 30.968c-0.437-0.664-0.797-1.361-0.8-1.567-0.005-0.282-0.235-0.512-0.516-0.512-0.001 0-0.003 0-0.004 0-0.283 0.002-0.512 0.228-0.512 0.511 0 0.413 0.31 1.044 0.616 1.567h-1.666v-1.567c0-0.285-0.231-0.516-0.516-0.516s-0.516 0.231-0.516 0.516v1.567h-1.666c0.306-0.523 0.616-1.154 0.616-1.567 0-0.283-0.228-0.509-0.512-0.512-0.001 0-0.003 0-0.004 0-0.281 0-0.511 0.23-0.516 0.511-0.003 0.206-0.363 0.902-0.8 1.567h-0.663c0.587-0.955 1.262-2.792 1.419-6.257h5.296c0.196 3.294 0.989 5.248 1.565 6.257h-0.82z"></path>
</svg>
