<!-- Generated by IcoMoon.io -->
<svg version="1.1" xmlns="http://www.w3.org/2000/svg" width="32" height="32" viewBox="0 0 32 32">
<title>instant-booking</title>
<path d="M28.305 11.504h-24.816v19.058h24.816v-19.058zM28.305 5.59h-6.531v1.97c0 0.363-0.292 0.658-0.653 0.658s-0.653-0.295-0.653-0.658v-1.97h-9.143v1.97c0 0.363-0.292 0.658-0.653 0.658s-0.653-0.295-0.653-0.658v-1.97h-6.531v4.6h24.816v-4.6zM28.958 31.875h-26.122c-0.361 0-0.653-0.294-0.653-0.657v-26.286c0-0.363 0.292-0.657 0.653-0.657h7.184v-3.286c0-0.363 0.292-0.657 0.653-0.657s0.653 0.294 0.653 0.657v3.286h9.143v-3.286c0-0.363 0.292-0.657 0.653-0.657s0.653 0.294 0.653 0.657v3.286h7.184c0.361 0 0.653 0.294 0.653 0.657v26.286c0 0.363-0.292 0.657-0.653 0.657zM15.886 27.529c0.722 0 1.309-0.586 1.309-1.304 0-0.72-0.587-1.305-1.309-1.305s-1.309 0.585-1.309 1.305c0 0.719 0.587 1.304 1.309 1.304zM15.886 24.175c1.134 0 2.057 0.92 2.057 2.050s-0.923 2.050-2.057 2.050-2.057-0.92-2.057-2.050c0-1.131 0.923-2.050 2.057-2.050zM15.889 20.82c1.888 0 3.629 0.94 4.656 2.515 0.113 0.173 0.063 0.403-0.11 0.516-0.063 0.041-0.134 0.060-0.204 0.060-0.122 0-0.242-0.060-0.314-0.17-0.889-1.363-2.395-2.175-4.029-2.175s-3.139 0.813-4.029 2.175c-0.113 0.173-0.344 0.221-0.517 0.109s-0.222-0.343-0.11-0.516c1.027-1.575 2.768-2.515 4.656-2.515zM15.912 17.465c2.59 0 5.056 1.11 6.768 3.046 0.137 0.155 0.122 0.39-0.033 0.526s-0.391 0.121-0.528-0.033c-1.57-1.775-3.832-2.793-6.207-2.793-2.371 0-4.633 1.020-6.207 2.799-0.074 0.084-0.177 0.126-0.281 0.126-0.088 0-0.176-0.030-0.247-0.093-0.155-0.136-0.17-0.371-0.033-0.526 1.715-1.94 4.182-3.052 6.768-3.052zM24.6 18.279c-0.073 0.072-0.168 0.108-0.264 0.108s-0.192-0.037-0.265-0.11c-2.223-2.226-5.195-3.452-8.369-3.452-3.136 0-6.086 1.205-8.308 3.393-0.147 0.145-0.384 0.143-0.529-0.003s-0.144-0.383 0.003-0.527c2.363-2.327 5.501-3.608 8.834-3.608 3.374 0 6.535 1.304 8.9 3.672 0.145 0.146 0.145 0.382-0.002 0.527z"></path>
</svg>
