<!-- Generated by IcoMoon.io -->
<svg version="1.1" xmlns="http://www.w3.org/2000/svg" width="32" height="32" viewBox="0 0 32 32">
<title>invoice</title>
<path d="M8.667 23.334h8c0.369 0 0.667 0.298 0.667 0.666s-0.298 0.667-0.667 0.667h-8c-0.369 0-0.667-0.299-0.667-0.667s0.298-0.666 0.667-0.666zM8.667 18.667h8c0.369 0 0.667 0.299 0.667 0.667s-0.298 0.667-0.667 0.667h-8c-0.369 0-0.667-0.299-0.667-0.667s0.298-0.667 0.667-0.667zM17.333 14.667c0 0.368-0.298 0.667-0.667 0.667h-8c-0.369 0-0.667-0.299-0.667-0.667s0.298-0.667 0.667-0.667h8c0.369 0 0.667 0.299 0.667 0.667zM21.333 7.333h-10.667c-0.369 0-0.667-0.299-0.667-0.667s0.298-0.667 0.667-0.667h10.667c0.369 0 0.667 0.298 0.667 0.667s-0.298 0.667-0.667 0.667zM23.333 15.334h-2.667c-0.369 0-0.667-0.299-0.667-0.667s0.298-0.667 0.667-0.667h2.667c0.369 0 0.667 0.299 0.667 0.667s-0.298 0.667-0.667 0.667zM23.333 20h-2.667c-0.369 0-0.667-0.299-0.667-0.667s0.298-0.667 0.667-0.667h2.667c0.369 0 0.667 0.299 0.667 0.667s-0.298 0.667-0.667 0.667zM23.333 24.667h-2.667c-0.369 0-0.667-0.299-0.667-0.667s0.298-0.666 0.667-0.666h2.667c0.369 0 0.667 0.298 0.667 0.666s-0.298 0.667-0.667 0.667zM26.667 1.689c0-0.193-0.167-0.356-0.363-0.356h-20.607c-0.197 0-0.363 0.163-0.363 0.356v28.622c0 0.193 0.167 0.356 0.363 0.356h20.607c0.197 0 0.363-0.163 0.363-0.356v-28.622zM26.303 32.001h-20.607c-0.936 0-1.697-0.757-1.697-1.689v-28.622c0-0.932 0.761-1.689 1.697-1.689h20.607c0.935 0 1.697 0.757 1.697 1.689v28.622c0 0.932-0.761 1.689-1.697 1.689z"></path>
</svg>
