<!-- Generated by IcoMoon.io -->
<svg version="1.1" xmlns="http://www.w3.org/2000/svg" width="32" height="32" viewBox="0 0 32 32">
<title>key</title>
<path d="M24.333 7.333c-0.184 0-0.333 0.15-0.333 0.333s0.15 0.334 0.333 0.334c0.184 0 0.333-0.15 0.333-0.334s-0.149-0.333-0.333-0.333zM24.333 9.333c-0.918 0-1.667-0.747-1.667-1.667s0.748-1.667 1.667-1.667c0.919 0 1.667 0.748 1.667 1.667s-0.747 1.667-1.667 1.667zM22 1.333c-4.779 0-8.666 3.888-8.666 8.667 0 1.369 0.309 2.677 0.918 3.887 0.004 0.008 0.003 0.017 0.007 0.025 0.020 0.045 0.027 0.091 0.037 0.138 0.008 0.039 0.021 0.075 0.023 0.115 0.001 0.043-0.009 0.085-0.017 0.128-0.007 0.041-0.009 0.082-0.023 0.121s-0.039 0.071-0.060 0.107c-0.023 0.039-0.043 0.079-0.075 0.113-0.007 0.007-0.009 0.016-0.015 0.023l-12.796 12.865v3.144h4.666v-3.331c0-0.368 0.299-0.667 0.667-0.667h3.334v-3.333c0-0.368 0.298-0.667 0.667-0.667h3.333v-1.24c0-0.001 0.001-0.001 0.001-0.003 0-0.087 0.017-0.173 0.051-0.255s0.084-0.154 0.146-0.215c0.001-0.001 0.001-0.002 0.002-0.003l3.14-3.087c0.006-0.005 0.014-0.007 0.020-0.013 0.036-0.033 0.078-0.054 0.12-0.078 0.034-0.020 0.065-0.044 0.102-0.057 0.039-0.014 0.081-0.016 0.122-0.023 0.043-0.007 0.085-0.018 0.128-0.016 0.037 0.001 0.073 0.015 0.11 0.022 0.049 0.011 0.097 0.018 0.143 0.039 0.007 0.003 0.015 0.003 0.023 0.007 1.21 0.611 2.52 0.92 3.892 0.92 4.779 0 8.667-3.888 8.667-8.667s-3.888-8.667-8.667-8.667zM22 20.001c-1.417 0-2.772-0.303-4.045-0.869l-2.621 2.576v1.627c0 0.368-0.299 0.667-0.667 0.667h-3.333v3.333c0 0.369-0.299 0.667-0.667 0.667h-3.334v3.331c0 0.369-0.298 0.667-0.667 0.667h-6c-0.368 0-0.667-0.299-0.667-0.667v-4.086c0-0.010 0.005-0.018 0.006-0.028 0.003-0.077 0.015-0.154 0.045-0.227 0.027-0.064 0.069-0.119 0.113-0.171 0.012-0.014 0.017-0.031 0.030-0.045l12.671-12.739c-0.564-1.271-0.866-2.623-0.866-4.037 0-5.514 4.485-10 10-10s10 4.486 10 10c0 5.515-4.486 10.001-10 10.001z"></path>
</svg>
