<!-- Generated by IcoMoon.io -->
<svg version="1.1" xmlns="http://www.w3.org/2000/svg" width="33" height="32" viewBox="0 0 33 32">
<title>king-bed</title>
<path d="M24.351 7.391c-0.016-0.003-0.032-0.003-0.048 0h-0.557l-0.523-0.993c-0.018-0.035-0.045-0.064-0.078-0.085-0.022-0.017-0.053-0.017-0.075 0l-0.527 0.39-0.557-0.661-0.044-0.037c-0.022-0.009-0.046-0.009-0.068 0-0.031 0-0.044 0.054-0.031 0.105l0.384 1.695c0.011 0.058 0.045 0.108 0.095 0.139l1.634 0.942c0.044 0.027 0.085 0 0.099-0.027l0.391-1.241c0.010-0.049-0.001-0.099-0.031-0.139-0.012-0.035-0.034-0.066-0.065-0.088zM23.732 8.374l-1.183-0.678-0.238-1.034 0.34 0.38c0.010 0.012 0.021 0.022 0.034 0.030 0.019 0.012 0.042 0.012 0.061 0l0.401-0.298 0.391 0.753c0.013 0.028 0.034 0.052 0.061 0.068h0.374l-0.241 0.78zM32.877 18.622l-0.031-9.411c-0.027-0.475-0.28-0.908-0.68-1.166l-13.844-7.957c-0.091-0.056-0.195-0.087-0.302-0.088-0.059-0.002-0.116 0.014-0.166 0.044l-1.791 1.071h0.020c-0.151 0.093-0.235 0.265-0.214 0.441v4.245c-0.669 0.403-1.231 0.961-1.638 1.627l-13.253 7.77c-0.095 0.045-0.159 0.136-0.17 0.241v2.285l-0.809 0.475v2.288l0.092 2.909 0.853 0.512 0.846-0.519v-1.919l6.983 4.068 5.648 3.234v2.732l0.87 0.495 0.86-0.359v-2.855l14.568-8.533v1.732l0.87 0.495 0.856-0.505v-2.76l0.238-0.142c0.050-0.031 0.091-0.074 0.119-0.125 0.030-0.049 0.051-0.103 0.065-0.159 0.004-0.050 0.004-0.099 0-0.149l-0.027 0.017 0.037-0.034zM29.217 13.737c0.172-0.236 0.239-0.533 0.183-0.82l-5.522-3.383c-0.137-0.084-0.295-0.129-0.455-0.129-0.141-0.003-0.281 0.028-0.408 0.092l-0.146 0.075c0.071-0.162 0.085-0.344 0.041-0.515l-5.675-3.489c-0.137-0.084-0.294-0.129-0.455-0.132-0.066 0-0.132 0.007-0.197 0.020v-3.492l13.46 7.753c0.188 0.132 0.312 0.338 0.34 0.566v4.116c-0.025-0.022-0.052-0.041-0.082-0.058l-1.084-0.603zM29.686 17.331l-13.783 8.072v-2.122l13.773-8.089 0.010 2.139zM21.33 12.117c0.281-0.567 0.688-1.064 1.189-1.451 0.102-0.078 0.204-0.153 0.313-0.22 0.109-0.071 0.221-0.136 0.34-0.2l0.18-0.095c0.025-0.013 0.053-0.020 0.082-0.020 0.030 0.001 0.059 0.009 0.085 0.024l4.336 2.648c-0.141 0.091-0.276 0.191-0.404 0.298-0.095 0.078-0.187 0.159-0.279 0.247-0.522 0.5-0.947 1.092-1.254 1.746l-4.52-2.763c-0.075-0.043-0.104-0.136-0.068-0.214zM20.436 10.957c0.226-0.371 0.504-0.707 0.826-1 0.187-0.169 0.391-0.319 0.608-0.447 0.065-0.041 0.129-0.088 0.197-0.122l0.051 0.030-0.109 0.173c-0.121 0.198-0.255 0.387-0.401 0.566-0.289 0.391-0.702 0.673-1.172 0.8zM27.834 13.737c0.193-0.166 0.403-0.313 0.625-0.437l0.092-0.058 0.051 0.030-0.051 0.081-0.051 0.085-0.020 0.030-0.085 0.132-0.099 0.136v0.020c-0.037 0.051-0.075 0.105-0.119 0.159-0.297 0.431-0.736 0.744-1.24 0.885 0.242-0.399 0.545-0.758 0.897-1.065zM16.253 1.068c0.107 0.004 0.211 0.036 0.302 0.092-0.091-0.056-0.195-0.087-0.302-0.092zM14.68 8.147c0.045-0.088 0.093-0.173 0.143-0.254 0.1-0.174 0.214-0.339 0.34-0.495l0.020-0.024c0.381-0.478 0.863-0.868 1.41-1.143l0.102-0.054c0.027-0.011 0.056-0.017 0.085-0.017s0.058 0.007 0.082 0.024l4.503 2.77c-0.071 0.044-0.139 0.095-0.207 0.146-0.099 0.071-0.194 0.149-0.285 0.227-0.6 0.536-1.081 1.192-1.41 1.926l-4.71-2.892c-0.076-0.042-0.107-0.135-0.071-0.214zM13.959 8.394c0.045 0.247 0.192 0.463 0.404 0.597l5.437 3.322c0.313-0.163 0.605-0.339 0.88-0.512-0.198 0.412-0.051 0.907 0.34 1.146l5.26 3.21c0.947-0.471 1.802-1.107 2.525-1.878l0.537 0.309-14.194 8.33c-0.025 0.004-0.050 0.004-0.075 0-0.024 0.002-0.048 0.002-0.071 0l-13.018-7.486 11.975-7.038zM1.573 15.985l13.086 7.536c0.036 0.022 0.075 0.040 0.116 0.054h0.024v2.129l-13.253-7.628 0.027-2.092zM0.432 23.196v-2.519l0.523 0.298v2.519l-0.523-0.298zM0.771 20.080v-0.678l14.537 8.408v0.678l-14.537-8.408zM15.325 31.607l-0.52-0.295v-2.332l0.523 0.298v2.329h-0.003zM16.005 28.078v-0.678l14.303-8.377v0.678l-14.303 8.377zM15.281 26.996l-14.537-8.404 0.17-0.102c0.031 0.041 0.070 0.076 0.116 0.102l13.643 7.845c0.129 0.067 0.273 0.1 0.418 0.095 0.145 0.003 0.288-0.032 0.415-0.102l14.829-8.699c0.011-0.007 0.021-0.015 0.031-0.024l0.034-0.024v0.488l-15.118 8.825zM31.592 22.080l-0.52-0.295v-1.736l0.52-0.302v2.332zM31.089 19.314v-0.047l-0.027-9.052c-0.002-0.005-0.002-0.011 0-0.017-0.009-0.225-0.084-0.442-0.217-0.624-0.112-0.189-0.268-0.349-0.455-0.464l-5.753-3.265-7.676-4.455 1.101-0.678 13.762 7.94c0.091 0.063 0.166 0.145 0.221 0.241 0.056 0.203 0.091 0.411 0.105 0.62v0.027c0.002 0.030 0.002 0.061 0 0.092v9.052l-1.060 0.631z"></path>
</svg>
