<!-- Generated by IcoMoon.io -->
<svg version="1.1" xmlns="http://www.w3.org/2000/svg" width="33" height="32" viewBox="0 0 33 32">
<title>li-filled</title>
<path d="M33.185 19.619v12.381h-7.113v-11.552c0-2.902-1.029-4.882-3.603-4.882-1.965 0-3.135 1.335-3.649 2.626-0.188 0.462-0.236 1.104-0.236 1.75v12.058h-7.115c0 0 0.096-19.565 0-21.592h7.114v3.061c-0.014 0.023-0.033 0.048-0.047 0.070h0.047v-0.070c0.945-1.469 2.633-3.568 6.412-3.568 4.681-0 8.19 3.086 8.19 9.718zM4.026 0c-2.434 0-4.026 1.611-4.026 3.73 0 2.072 1.546 3.733 3.932 3.733h0.048c2.481 0 4.024-1.66 4.024-3.733-0.047-2.119-1.543-3.73-3.977-3.73zM0.423 32h7.112v-21.592h-7.112v21.592z"></path>
</svg>
