<!-- Generated by IcoMoon.io -->
<svg version="1.1" xmlns="http://www.w3.org/2000/svg" width="32" height="32" viewBox="0 0 32 32">
<title>lightbulb</title>
<path d="M27.557 20.315l2.623 2.623c0.256 0.256 0.256 0.671 0 0.927-0.128 0.128-0.296 0.193-0.464 0.193s-0.336-0.064-0.464-0.193l-2.623-2.624c-0.256-0.256-0.256-0.671 0-0.927s0.671-0.256 0.927 0zM3.486 12.252c0 0.362-0.293 0.626-0.656 0.626h-1.967c-0.363 0-0.656-0.264-0.656-0.626s0.293-0.688 0.656-0.688h1.967c0.363 0 0.656 0.326 0.656 0.688zM4.797 4.382c-0.168 0-0.336-0.064-0.464-0.193l-2.623-2.623c-0.256-0.256-0.256-0.671 0-0.927s0.671-0.256 0.927 0l2.623 2.623c0.256 0.256 0.256 0.672 0 0.927-0.128 0.128-0.296 0.193-0.464 0.193zM2.638 23.866c-0.128 0.128-0.296 0.193-0.464 0.193s-0.336-0.064-0.464-0.193c-0.256-0.256-0.256-0.672 0-0.927l2.623-2.623c0.256-0.256 0.671-0.256 0.927 0s0.256 0.671 0 0.927l-2.623 2.624zM15.944 3.727c-4.7 0-8.525 3.984-8.525 8.882 0 3.74 2.27 6.222 4.174 7.644 0.011 0.009 0.016 0.020 0.026 0.030 0.009 0.008 0.021 0.010 0.030 0.018 0.988 0.925 1.017 2.461 1.017 2.634v1.025c0.933 0.434 3.708 1.455 6.556 0.003v-1.028c0-0.177 0.029-1.747 1.028-2.644 0.008-0.007 0.017-0.009 0.025-0.014 0.009-0.007 0.012-0.017 0.021-0.024 1.904-1.423 4.173-3.904 4.173-7.644 0-4.898-3.824-8.882-8.525-8.882zM15.944 30.617c2.678 0 3.2-1.922 3.278-2.309v-2.896c-1.091 0.451-2.158 0.62-3.13 0.62-1.425 0-2.632-0.348-3.426-0.654v2.931c0.075 0.375 0.593 2.308 3.278 2.308zM21.124 21.269c-0.481 0.435-0.591 1.372-0.591 1.666v5.433c0 0.034-0.003 0.067-0.008 0.1-0.185 1.198-1.38 3.461-4.582 3.461s-4.397-2.263-4.582-3.461c-0.005-0.033-0.008-0.066-0.008-0.1v-5.431c-0.003-0.311-0.115-1.215-0.597-1.674-3.040-2.293-4.65-5.283-4.65-8.654 0-5.62 4.412-10.193 9.836-10.193s9.836 4.573 9.836 10.193c0 3.374-1.612 6.366-4.656 8.66zM27.556 4.19c-0.128 0.128-0.296 0.193-0.464 0.193s-0.336-0.064-0.464-0.193c-0.256-0.256-0.256-0.671 0-0.927l2.623-2.623c0.256-0.256 0.671-0.256 0.927 0s0.256 0.672 0 0.927l-2.623 2.623zM31.027 12.879h-1.967c-0.363 0-0.656-0.264-0.656-0.626s0.293-0.688 0.656-0.688h1.967c0.363 0 0.656 0.326 0.656 0.688s-0.293 0.626-0.656 0.626z"></path>
</svg>
