<!-- Generated by IcoMoon.io -->
<svg version="1.1" xmlns="http://www.w3.org/2000/svg" width="34" height="32" viewBox="0 0 34 32">
<title>list</title>
<path d="M9.552 0.975h-8.336v7.806h8.336v-7.806zM10.015 9.756h-9.262c-0.256 0-0.463-0.218-0.463-0.487v-8.781c0-0.27 0.207-0.488 0.463-0.488h9.262c0.256 0 0.463 0.218 0.463 0.488v8.781c0 0.269-0.207 0.487-0.463 0.487zM32.488 2.484h-19.453c-0.565 0-1.024-0.309-1.024-0.69s0.459-0.69 1.024-0.69h19.453c0.565 0 1.024 0.309 1.024 0.69s-0.459 0.69-1.024 0.69zM23.988 6.489h-11.378c-0.331 0-0.599-0.309-0.599-0.69s0.268-0.69 0.599-0.69h11.378c0.331 0 0.599 0.309 0.599 0.69s-0.268 0.69-0.599 0.69zM9.552 12.019h-8.336v7.806h8.336v-7.806zM10.015 20.8h-9.262c-0.256 0-0.463-0.218-0.463-0.487v-8.781c0-0.27 0.207-0.488 0.463-0.488h9.262c0.256 0 0.463 0.218 0.463 0.488v8.781c0 0.269-0.207 0.487-0.463 0.487zM32.488 13.528h-19.453c-0.565 0-1.024-0.309-1.024-0.69s0.459-0.69 1.024-0.69h19.453c0.565 0 1.024 0.309 1.024 0.69s-0.459 0.69-1.024 0.69zM23.988 17.532h-11.378c-0.331 0-0.599-0.309-0.599-0.69s0.268-0.69 0.599-0.69h11.378c0.331 0 0.599 0.309 0.599 0.69s-0.268 0.69-0.599 0.69zM9.552 23.063h-8.336v7.806h8.336v-7.806zM10.015 31.844h-9.262c-0.256 0-0.463-0.218-0.463-0.487v-8.781c0-0.27 0.207-0.488 0.463-0.488h9.262c0.256 0 0.463 0.218 0.463 0.488v8.781c0 0.269-0.207 0.487-0.463 0.487zM32.488 24.572h-19.453c-0.565 0-1.024-0.309-1.024-0.69s0.459-0.69 1.024-0.69h19.453c0.565 0 1.024 0.309 1.024 0.69s-0.459 0.69-1.024 0.69zM23.988 28.577h-11.378c-0.331 0-0.599-0.309-0.599-0.69s0.268-0.69 0.599-0.69h11.378c0.331 0 0.599 0.309 0.599 0.69s-0.268 0.69-0.599 0.69z"></path>
</svg>
