<!-- Generated by IcoMoon.io -->
<svg version="1.1" xmlns="http://www.w3.org/2000/svg" width="32" height="32" viewBox="0 0 32 32">
<title>location-pin</title>
<path d="M15.785 0c-6.504 0-11.785 5.282-11.785 11.786 0 2.325 0.54 3.921 1.749 5.709l9.681 14.311c0.077 0.121 0.211 0.195 0.355 0.195s0.278-0.074 0.355-0.195l9.681-14.311c1.209-1.788 1.749-3.384 1.749-5.709 0-6.504-5.282-11.786-11.785-11.786zM15.785 0.842c6.049 0 10.944 4.895 10.944 10.944 0 2.2-0.469 3.536-1.618 5.235l-9.326 13.785-9.326-13.785c-1.149-1.699-1.618-3.036-1.618-5.235 0-6.049 4.895-10.944 10.944-10.944zM15.785 6.314c-3.017 0-5.472 2.455-5.472 5.472s2.455 5.472 5.472 5.472 5.472-2.455 5.472-5.472c0-3.017-2.455-5.472-5.472-5.472zM15.785 7.155c2.562 0 4.63 2.068 4.63 4.63s-2.068 4.63-4.63 4.63-4.63-2.068-4.63-4.63c0-2.562 2.068-4.63 4.63-4.63z"></path>
</svg>
