<!-- Generated by IcoMoon.io -->
<svg version="1.1" xmlns="http://www.w3.org/2000/svg" width="32" height="32" viewBox="0 0 32 32">
<title>lock</title>
<path d="M16 17.965c-1.082 0-1.962 0.88-1.962 1.962 0 0.621 0.125 1.165 0.573 1.523 0.336 0.269 0.406 0.64 0.406 1.072l-0.979 3.277h3.92l-0.979-3.277c0-0.432 0.070-0.806 0.406-1.075 0.448-0.358 0.573-0.902 0.573-1.523 0.003-1.082-0.877-1.958-1.958-1.958v0z"></path>
<path d="M25.805 12.074h-1.962v-3.91c0-4.323-3.52-7.843-7.843-7.843s-7.843 3.52-7.843 7.843v3.91h-1.962c-1.082 0-1.962 0.886-1.962 1.971v15.686c0 1.082 0.88 1.949 1.962 1.949h19.606c1.082 0 1.962-0.867 1.962-1.949v-15.686c0-1.085-0.877-1.971-1.958-1.971zM10.118 8.163c0-3.242 2.64-5.882 5.882-5.882s5.882 2.64 5.882 5.882v3.91h-11.763v-3.91zM25.805 29.718h-19.61v-15.683h19.61v15.683z"></path>
</svg>
