<!-- Generated by IcoMoon.io -->
<svg version="1.1" xmlns="http://www.w3.org/2000/svg" width="32" height="32" viewBox="0 0 32 32">
<title>mail-forward</title>
<path d="M18.541 3.847v5.746c0.070 0.114 0.118 0.243 0.11 0.387-0.018 0.334-0.281 0.585-0.597 0.62-0.024 0.003-0.042 0.016-0.068 0.016-0.006 0-0.012-0.003-0.018-0.004-0.007 0-0.013 0.003-0.019 0.002-0.075-0.004-7.417-0.348-12.268 4.556-2.313 2.338-3.709 5.489-4.173 9.406 0.461-0.808 1.067-1.646 1.867-2.456 3.127-3.168 8.043-4.774 14.611-4.774 0.368 0 0.667 0.301 0.667 0.673 0 0.131-0.046 0.246-0.111 0.35v5.7l11.761-10.087-11.761-10.135zM31.764 14.494l-13.345 11.441c-0.124 0.105-0.277 0.161-0.433 0.161-0.095 0-0.19-0.020-0.279-0.062-0.237-0.11-0.511-0.354-0.511-0.617v-6.709c-15.601 0.331-15.807 10.32-15.809 10.752 0 0.364-0.288 0.663-0.649 0.673-0.006 0.001-0.012 0.001-0.019 0.001-0.353 0-0.645-0.277-0.666-0.634-0.374-6.627 1.205-11.771 4.692-15.291 4.34-4.379 10.284-4.907 12.45-4.947v-6.764c0-0.262 0.275-0.46 0.511-0.57 0.234-0.11 0.513-0.071 0.712 0.099l13.345 11.442c0.149 0.127 0.236 0.315 0.236 0.513 0 0.197-0.086 0.385-0.236 0.513z"></path>
</svg>
