<!-- Generated by IcoMoon.io -->
<svg version="1.1" xmlns="http://www.w3.org/2000/svg" width="32" height="32" viewBox="0 0 32 32">
<title>mail-create</title>
<path d="M24.928 26.079l5.318-5.321c0.012-0.013 0.028-0.017 0.042-0.028 0.013-0.015 0.017-0.034 0.031-0.047 0.225-0.223 0.348-0.519 0.348-0.835s-0.123-0.612-0.348-0.835c-0.223-0.224-0.519-0.347-0.835-0.347-0.317 0-0.613 0.123-0.836 0.346-0.013 0.013-0.029 0.017-0.042 0.028-0.013 0.014-0.018 0.033-0.030 0.047l-5.324 5.325-0.406 2.076 2.083-0.409zM22.012 23.882c0.011-0.034 0.024-0.063 0.039-0.096 0.025-0.051 0.055-0.096 0.092-0.139 0.011-0.011 0.014-0.026 0.024-0.037l5.465-5.466c0.013-0.013 0.029-0.018 0.042-0.029 0.012-0.014 0.017-0.032 0.030-0.045 0.476-0.476 1.107-0.738 1.78-0.738 0.672 0 1.302 0.262 1.778 0.738 0.475 0.473 0.738 1.106 0.738 1.778s-0.263 1.305-0.739 1.78c-0.013 0.012-0.029 0.017-0.042 0.028-0.012 0.013-0.017 0.032-0.030 0.045l-5.463 5.466c-0.018 0.018-0.041 0.026-0.061 0.041-0.030 0.024-0.060 0.044-0.094 0.063-0.046 0.025-0.091 0.044-0.14 0.058-0.018 0.005-0.031 0.017-0.050 0.021l-3.253 0.638c-0.043 0.008-0.085 0.013-0.128 0.013-0.175 0-0.346-0.069-0.471-0.196-0.157-0.157-0.225-0.381-0.182-0.599l0.637-3.254c0.005-0.025 0.021-0.044 0.029-0.069zM28.667 5.334h-25.333c-0.179 0-0.351 0.031-0.516 0.076l13.182 11.053 13.182-11.053c-0.165-0.045-0.337-0.076-0.516-0.076zM31.333 14.667c-0.368 0-0.667-0.298-0.667-0.666v-6.667c0-0.421-0.131-0.809-0.353-1.132l-13.885 11.643c-0.124 0.104-0.276 0.156-0.428 0.156s-0.305-0.052-0.429-0.156l-13.885-11.643c-0.222 0.323-0.353 0.711-0.353 1.132v14.667c0 1.102 0.897 1.999 2 1.999h14.667c0.367 0 0.667 0.299 0.667 0.667s-0.299 0.666-0.667 0.666h-14.667c-1.838 0-3.333-1.495-3.333-3.333v-14.667c0-1.838 1.495-3.333 3.333-3.333h25.333c1.838 0 3.333 1.495 3.333 3.333v6.667c0 0.368-0.299 0.666-0.667 0.666z"></path>
</svg>
