<!-- Generated by IcoMoon.io -->
<svg version="1.1" xmlns="http://www.w3.org/2000/svg" width="32" height="32" viewBox="0 0 32 32">
<title>mail-reply-all</title>
<path d="M1.66 14.329l10.113 8.804c0.277 0.241 0.305 0.66 0.063 0.937-0.132 0.149-0.317 0.226-0.502 0.226-0.156 0-0.313-0.053-0.439-0.164l-10.666-9.286c-0.141-0.124-0.224-0.301-0.228-0.487s0.074-0.367 0.211-0.495l10.667-9.948c0.269-0.252 0.691-0.238 0.943 0.029 0.251 0.268 0.238 0.687-0.031 0.939l-10.13 9.447zM25.904 14.22c-4.206-3.754-9.775-3.201-9.831-3.195-0.012 0.001-0.023-0.004-0.035-0.003-0.013 0.001-0.024 0.007-0.037 0.007-0.036 0-0.066-0.015-0.1-0.020-0.042-0.006-0.083-0.011-0.122-0.025-0.043-0.015-0.079-0.038-0.118-0.061-0.035-0.021-0.070-0.041-0.101-0.067-0.032-0.029-0.055-0.063-0.083-0.098-0.025-0.033-0.051-0.065-0.070-0.103-0.019-0.039-0.029-0.083-0.040-0.126-0.008-0.031-0.025-0.058-0.029-0.091-0.001-0.012 0.004-0.023 0.003-0.036s-0.006-0.022-0.006-0.036v-4.439l-9.007 8.402 9.007 7.842v-4.508c0-0.039 0.015-0.074 0.022-0.11 0.008-0.044 0.011-0.088 0.026-0.129s0.042-0.073 0.065-0.109c0.023-0.036 0.042-0.074 0.071-0.105 0.029-0.031 0.065-0.051 0.1-0.076s0.066-0.052 0.105-0.070c0.041-0.019 0.086-0.025 0.131-0.035 0.036-0.008 0.068-0.026 0.106-0.028 0.014-0.001 0.026 0 0.039-0.002h0.003c5.294-0.311 9.428 0.815 12.28 3.348 0.823 0.73 1.465 1.513 1.964 2.284-0.666-3.607-2.118-6.425-4.342-8.411zM31.352 28.274h-0.018c-0.353 0-0.647-0.274-0.666-0.627-0.002-0.035-0.245-3.635-3.292-6.327-2.471-2.184-6.081-3.186-10.709-3.013v5.324c0 0.261-0.153 0.496-0.391 0.604-0.089 0.040-0.182 0.060-0.276 0.060-0.158 0-0.315-0.057-0.439-0.164l-10.667-9.286c-0.141-0.124-0.224-0.301-0.227-0.487s0.073-0.367 0.211-0.495l10.667-9.948c0.194-0.181 0.478-0.23 0.721-0.125 0.244 0.105 0.402 0.344 0.402 0.609v5.27c1.773-0.038 6.38 0.221 10.127 3.566 3.455 3.084 5.206 7.922 5.206 14.378 0 0.359-0.287 0.653-0.649 0.663z"></path>
</svg>
