<!-- Generated by IcoMoon.io -->
<svg version="1.1" xmlns="http://www.w3.org/2000/svg" width="32" height="32" viewBox="0 0 32 32">
<title>mail-important</title>
<path d="M24.811 23.495c0.148 0.151 0.215 0.365 0.181 0.572l-0.329 2.023 1.682-0.931c0.101-0.055 0.212-0.084 0.323-0.084 0.11 0 0.222 0.028 0.322 0.084l1.683 0.931-0.329-2.023c-0.035-0.207 0.033-0.421 0.181-0.572l1.427-1.461-1.942-0.298c-0.22-0.033-0.409-0.174-0.503-0.376l-0.838-1.787-0.838 1.787c-0.095 0.202-0.283 0.343-0.503 0.376l-1.942 0.298 1.426 1.461zM21.9 20.913l2.874-0.44 1.291-2.752c0.109-0.234 0.345-0.383 0.603-0.383s0.493 0.15 0.603 0.383l1.291 2.752 2.874 0.44c0.247 0.037 0.452 0.21 0.531 0.447 0.079 0.237 0.020 0.498-0.155 0.677l-2.098 2.149 0.496 3.046c0.041 0.252-0.066 0.505-0.275 0.652-0.115 0.081-0.249 0.121-0.383 0.121-0.111 0-0.222-0.027-0.323-0.083l-2.561-1.418-2.561 1.418c-0.223 0.123-0.498 0.109-0.707-0.038s-0.315-0.401-0.274-0.652l0.497-3.046-2.098-2.149c-0.174-0.179-0.235-0.441-0.155-0.677 0.079-0.238 0.284-0.41 0.531-0.447zM28.668 5.333h-25.334c-0.18 0-0.35 0.032-0.517 0.076l13.183 11.057 13.184-11.057c-0.166-0.045-0.338-0.076-0.516-0.076zM31.334 18.027c-0.368 0-0.623-0.293-0.623-0.661v-10.020c0-0.428-0.145-0.826-0.383-1.154l-13.899 11.657c-0.124 0.103-0.276 0.156-0.429 0.156s-0.304-0.052-0.428-0.156l-13.886-11.646c-0.222 0.322-0.354 0.711-0.354 1.132v14.671c0 1.102 0.898 2.001 2.001 2.001h16.001c0.367 0 0.666 0.298 0.666 0.667 0 0.367-0.299 0.667-0.666 0.667h-16.001c-1.838 0-3.333-1.497-3.333-3.334v-14.671c0-1.838 1.495-3.334 3.333-3.334h25.334c1.838 0 3.333 1.495 3.333 3.334v10.026c0 0.368-0.298 0.667-0.667 0.667z"></path>
</svg>
