<!-- Generated by IcoMoon.io -->
<svg version="1.1" xmlns="http://www.w3.org/2000/svg" width="32" height="32" viewBox="0 0 32 32">
<title>maintenance</title>
<path d="M31.418 26.985l-9.503-9.503c-0.145-0.145-0.388-0.194-0.582-0.145l-2.279 0.679-2.133-2.133 3.248-3.297c2.133 0.63 4.412 0.049 6.012-1.552 1.552-1.552 2.133-3.83 1.552-6.012-0.049-0.194-0.194-0.339-0.339-0.388s-0.339-0.048-0.533 0l-3.636 1.891-1.358-1.503 1.988-3.394c0.097-0.145 0.097-0.339 0.049-0.533s-0.194-0.291-0.388-0.339c-2.133-0.582-4.461 0-6.012 1.551-1.6 1.6-2.182 3.879-1.552 6.012l-3.248 3.297-5.818-5.818 0.485-0.485c0.242-0.242 0.242-0.63 0-0.873l-2.715-2.715c-0.242-0.242-0.63-0.242-0.873 0l-1.794 1.794c-0.242 0.242-0.242 0.63 0 0.873l2.715 2.715c0.097 0.097 0.291 0.194 0.436 0.194s0.291-0.048 0.436-0.194l0.485-0.485 5.818 5.818-11.685 11.685c-0.145 0.145-0.194 0.291-0.194 0.485l0.242 3.103c0.048 0.291 0.242 0.533 0.533 0.533l3.103 0.242c0 0 0.049 0 0.049 0 0.145 0 0.291-0.049 0.436-0.194l11.685-11.685 2.133 2.133-0.679 2.279c-0.049 0.194 0 0.436 0.145 0.582l9.552 9.552c0.097 0.097 0.291 0.194 0.436 0.194s0.291-0.049 0.436-0.194l3.345-3.345c0.242-0.194 0.242-0.582 0-0.824zM3.248 3.955l0.921-0.921 1.842 1.842-0.873 0.97-1.891-1.891zM3.733 27.324l-2.327-0.194-0.194-2.327 15.855-15.855c0.145-0.145 0.242-0.388 0.145-0.63-0.63-1.794-0.194-3.782 1.164-5.139 1.067-1.067 2.521-1.552 4.024-1.406l-1.794 3.055c-0.145 0.242-0.097 0.533 0.097 0.727l1.988 2.182c0.194 0.194 0.485 0.242 0.727 0.145l3.297-1.745c0.194 1.503-0.339 3.006-1.406 4.073-1.358 1.358-3.297 1.794-5.139 1.164-0.242-0.097-0.485 0-0.63 0.145l-15.806 15.806zM27.636 29.943l-8.873-8.873 0.582-1.939 1.939-0.582 8.873 8.873-2.521 2.521z"></path>
</svg>
