<!-- Generated by IcoMoon.io -->
<svg version="1.1" xmlns="http://www.w3.org/2000/svg" width="32" height="32" viewBox="0 0 32 32">
<title>menu-grid</title>
<path d="M28 30.667c1.471 0 2.667-1.196 2.667-2.667s-1.196-2.667-2.667-2.667c-1.471 0-2.667 1.196-2.667 2.667s1.196 2.667 2.667 2.667zM28 24c2.206 0 4 1.795 4 4s-1.794 4-4 4-4-1.794-4-4c0-2.205 1.794-4 4-4zM4 1.333c-1.471 0-2.667 1.197-2.667 2.667s1.196 2.667 2.667 2.667 2.667-1.197 2.667-2.667c0-1.47-1.196-2.667-2.667-2.667zM4 8c-2.206 0-4-1.795-4-4s1.794-4 4-4 4 1.794 4 4c0 2.205-1.794 4-4 4zM4 13.334c-1.471 0-2.667 1.197-2.667 2.667s1.196 2.667 2.667 2.667 2.667-1.196 2.667-2.667c0-1.47-1.196-2.667-2.667-2.667zM4 20.001c-2.206 0-4-1.795-4-4.001s1.794-4 4-4c2.206 0 4 1.794 4 4s-1.794 4.001-4 4.001zM4 25.334c-1.471 0-2.667 1.196-2.667 2.667s1.196 2.667 2.667 2.667c1.471 0 2.667-1.196 2.667-2.667s-1.196-2.667-2.667-2.667zM4 32.001c-2.206 0-4-1.794-4-4s1.794-4 4-4 4 1.795 4 4c0 2.206-1.794 4-4 4zM16 1.333c-1.471 0-2.667 1.197-2.667 2.667s1.196 2.667 2.667 2.667 2.667-1.197 2.667-2.667c0-1.47-1.196-2.667-2.667-2.667zM16 8c-2.206 0-4-1.795-4-4s1.794-4 4-4 4 1.794 4 4c0 2.205-1.794 4-4 4zM16 13.334c-1.471 0-2.667 1.197-2.667 2.667s1.196 2.667 2.667 2.667 2.667-1.196 2.667-2.667c0-1.47-1.196-2.667-2.667-2.667zM16 20.001c-2.206 0-4-1.795-4-4.001s1.794-4 4-4c2.206 0 4 1.794 4 4s-1.794 4.001-4 4.001zM16 25.334c-1.471 0-2.667 1.196-2.667 2.667s1.196 2.667 2.667 2.667c1.471 0 2.667-1.196 2.667-2.667s-1.196-2.667-2.667-2.667zM16 32.001c-2.206 0-4-1.794-4-4s1.794-4 4-4 4 1.795 4 4c0 2.206-1.794 4-4 4zM28 1.333c-1.471 0-2.667 1.197-2.667 2.667s1.196 2.667 2.667 2.667 2.667-1.197 2.667-2.667c0-1.47-1.196-2.667-2.667-2.667zM28 8c-2.206 0-4-1.795-4-4s1.794-4 4-4 4 1.794 4 4c0 2.205-1.794 4-4 4zM28 13.334c-1.471 0-2.667 1.197-2.667 2.667s1.196 2.667 2.667 2.667 2.667-1.196 2.667-2.667c0-1.47-1.196-2.667-2.667-2.667zM28 20.001c-2.206 0-4-1.795-4-4.001s1.794-4 4-4c2.206 0 4 1.794 4 4s-1.794 4.001-4 4.001z"></path>
</svg>
