<!-- Generated by IcoMoon.io -->
<svg version="1.1" xmlns="http://www.w3.org/2000/svg" width="32" height="32" viewBox="0 0 32 32">
<title>menu-circled</title>
<path d="M9.057 10.4c-0.289 0-0.524-0.298-0.524-0.667s0.235-0.667 0.524-0.667h14.952c0.289 0 0.524 0.298 0.524 0.667s-0.235 0.667-0.524 0.667h-14.952zM9.057 16.8c-0.289 0-0.524-0.298-0.524-0.667s0.235-0.667 0.524-0.667h14.952c0.289 0 0.524 0.298 0.524 0.667s-0.235 0.667-0.524 0.667h-14.952zM9.057 23.2c-0.289 0-0.524-0.298-0.524-0.667s0.235-0.667 0.524-0.667h14.952c0.289 0 0.524 0.298 0.524 0.667s-0.235 0.667-0.524 0.667h-14.952zM16 1.334c-8.087 0-14.667 6.579-14.667 14.666 0 8.088 6.579 14.668 14.667 14.668s14.667-6.579 14.667-14.668c0-8.087-6.579-14.666-14.667-14.666zM0 16c0-8.822 7.178-16 16-16s16 7.178 16 16c0 8.823-7.178 16-16 16s-16-7.177-16-16z"></path>
</svg>
