<!-- Generated by IcoMoon.io -->
<svg version="1.1" xmlns="http://www.w3.org/2000/svg" width="46" height="32" viewBox="0 0 46 32">
<title>menu</title>
<path d="M2.035 30.078h42.174c0.832 0 1.506 0.424 1.506 0.948 0 0.521-0.674 0.946-1.506 0.946h-42.174c-0.832 0-1.506-0.424-1.506-0.946 0-0.523 0.674-0.948 1.506-0.948zM44.208 2.531h-42.292c-0.832 0-1.388-0.324-1.388-0.847s0.556-1.052 1.388-1.052h42.292c0.832 0 1.506 0.53 1.506 1.052s-0.674 0.847-1.506 0.847zM44.208 17.723h-42.292c-0.832 0-1.388-0.371-1.388-0.894s0.556-1.005 1.388-1.005h42.292c0.832 0 1.506 0.482 1.506 1.005s-0.674 0.894-1.506 0.894z"></path>
</svg>
