<!-- Generated by IcoMoon.io -->
<svg version="1.1" xmlns="http://www.w3.org/2000/svg" width="36" height="32" viewBox="0 0 36 32">
<title>minimise-arrow</title>
<path d="M1.729 31.715c-0.011 0.001-0.020-0.006-0.030-0.005-0.124-0.005-0.242-0.040-0.36-0.079-0.043-0.014-0.089-0.014-0.13-0.033-0.154-0.070-0.297-0.17-0.417-0.303s-0.204-0.286-0.258-0.446c-0.014-0.042-0.009-0.088-0.019-0.131-0.027-0.123-0.049-0.244-0.041-0.368 0.001-0.010-0.004-0.020-0.002-0.031l1.884-18.783c0.071-0.698 0.693-1.206 1.39-1.137 0.696 0.071 1.207 0.694 1.137 1.39l-1.557 15.516 29.644-26.691c0.522-0.47 1.324-0.429 1.794 0.093s0.427 1.324-0.095 1.794l-29.644 26.691 15.594 0.074c0.702 0.005 1.268 0.579 1.264 1.276-0.004 0.701-0.575 1.266-1.276 1.264l-18.877-0.090z"></path>
</svg>
