<!-- Generated by IcoMoon.io -->
<svg version="1.1" xmlns="http://www.w3.org/2000/svg" width="32" height="32" viewBox="0 0 32 32">
<title>moneybag</title>
<path d="M15.943 19.152c1.455 0 2.64 1.185 2.64 2.643 0 1.227-0.845 2.253-1.98 2.549l0.001 1.416c0 0.365-0.295 0.661-0.66 0.661s-0.66-0.296-0.66-0.661l-0.001-1.322h-1.319c-0.365 0-0.66-0.296-0.66-0.661s0.295-0.661 0.66-0.661h1.979c0.728 0 1.32-0.593 1.32-1.321s-0.592-1.321-1.32-1.321c-1.455 0-2.638-1.186-2.638-2.643 0-1.227 0.844-2.253 1.979-2.548v-1.416c0-0.364 0.295-0.66 0.66-0.66s0.66 0.296 0.66 0.66v1.322h1.32c0.365 0 0.66 0.296 0.66 0.661s-0.295 0.66-0.66 0.66h-1.98c-0.727 0-1.319 0.592-1.319 1.32s0.592 1.322 1.319 1.322zM19.974 9.228c-0.068 0.007-0.135 0.002-0.202-0.012h-7.583c-0.046 0.012-0.092 0.021-0.139 0.023-1.303 1.081-8.518 7.431-8.518 12.701 0 5.761 2.665 8.444 8.387 8.444h8.175c5.721 0 8.387-2.684 8.387-8.444 0-5.292-7.226-11.663-8.506-12.712zM22.455 1.484c-0.052-0.125-0.097-0.157-0.23-0.157-0.675 0-1.056 0.244-1.538 0.552-0.537 0.343-1.206 0.77-2.297 0.77-0.669 0-1.16-0.364-1.592-0.685-0.461-0.342-0.858-0.637-1.501-0.637-0.664 0-1.096 0.47-1.553 0.968-0.438 0.476-0.934 1.015-1.663 1.015-0.732 0-1.374-0.643-1.995-1.265-0.187-0.186-0.464-0.465-0.664-0.621-0.408 1.203 1.395 4.41 2.94 6.497h7.246c2.2-2.314 3.251-5.46 2.847-6.437zM29.799 21.94c0 6.48-3.265 9.765-9.706 9.765h-8.175c-6.441 0-9.706-3.285-9.706-9.765 0-5.641 6.989-11.893 8.896-13.494-1.241-1.717-4.099-6.082-2.633-8.026 0.189-0.251 0.455-0.4 0.75-0.421 0.649-0.046 1.175 0.491 1.793 1.111 0.297 0.298 0.85 0.852 1.066 0.878 0.146 0 0.446-0.327 0.687-0.589 0.541-0.588 1.281-1.394 2.524-1.394 1.078 0 1.776 0.518 2.286 0.896 0.355 0.265 0.584 0.425 0.807 0.425 0.706 0 1.095-0.248 1.587-0.562 0.557-0.355 1.188-0.759 2.247-0.759 0.666 0 1.194 0.355 1.449 0.972 0.676 1.634-0.633 5.062-2.788 7.515 2.008 1.681 8.913 7.863 8.913 13.447z"></path>
</svg>
