<!-- Generated by IcoMoon.io -->
<svg version="1.1" xmlns="http://www.w3.org/2000/svg" width="32" height="32" viewBox="0 0 32 32">
<title>people</title>
<path d="M6 10c0.368 0 0.667 0.299 0.667 0.667s-0.299 0.666-0.667 0.666c-3.441 0-4.667 2.962-4.667 5.733 0 0.012-0.006 0.022-0.007 0.034 0.001 0.011 0.007 0.021 0.007 0.033v3.533h1.333c0.027 0 0.049 0.012 0.075 0.015 0.047 0.005 0.092 0.013 0.136 0.027 0.038 0.013 0.071 0.029 0.106 0.049 0.040 0.022 0.077 0.045 0.112 0.076 0.031 0.026 0.056 0.055 0.081 0.086 0.028 0.034 0.053 0.069 0.073 0.108s0.034 0.080 0.047 0.123c0.007 0.026 0.023 0.047 0.027 0.073l1.241 7.443h2.857l0.585-4.085c0.053-0.364 0.394-0.615 0.754-0.565 0.365 0.053 0.618 0.391 0.566 0.755l-0.667 4.656c-0.047 0.329-0.328 0.572-0.66 0.572h-4c-0.326 0-0.604-0.235-0.657-0.557l-1.241-7.443h-1.435c-0.368 0-0.667-0.298-0.667-0.666v-4.2c0-0.012 0.006-0.022 0.007-0.033-0.001-0.012-0.007-0.022-0.007-0.034 0-4.293 2.355-7.067 6-7.067zM6.001 3.334c-1.471 0-2.667 1.196-2.667 2.667s1.197 2.666 2.667 2.666c1.47 0 2.666-1.195 2.666-2.666s-1.196-2.667-2.666-2.667zM6.001 10c-2.206 0-4.001-1.794-4.001-3.999s1.795-4 4.001-4c2.205 0 3.999 1.794 3.999 4s-1.794 3.999-3.999 3.999zM16 9.334c-2.941 0-5.333 2.392-5.333 5.333 0 0.011-0.006 0.020-0.007 0.031 0.001 0.011 0.007 0.020 0.007 0.031v5.271h2c0.031 0 0.059 0.013 0.089 0.018 0.045 0.006 0.087 0.011 0.128 0.025 0.043 0.015 0.081 0.037 0.12 0.061 0.034 0.021 0.067 0.039 0.097 0.065 0.035 0.030 0.062 0.065 0.089 0.102 0.025 0.032 0.048 0.062 0.067 0.098 0.021 0.041 0.031 0.085 0.043 0.13 0.008 0.029 0.025 0.053 0.029 0.085l1.261 10.083h2.823l1.261-10.083c0.004-0.031 0.021-0.057 0.029-0.086 0.012-0.044 0.022-0.087 0.043-0.127 0.019-0.038 0.044-0.070 0.070-0.104s0.051-0.067 0.083-0.095c0.032-0.029 0.068-0.049 0.105-0.071s0.071-0.042 0.111-0.057c0.043-0.015 0.086-0.020 0.132-0.027 0.030-0.004 0.057-0.017 0.088-0.017h2v-5.271c0-0.011 0.006-0.020 0.006-0.031s-0.006-0.020-0.006-0.031c0-2.941-2.393-5.333-5.333-5.333zM18.667 4c0-1.47-1.197-2.666-2.667-2.666s-2.667 1.196-2.667 2.666c0 1.471 1.196 2.668 2.667 2.668s2.667-1.197 2.667-2.668zM22.667 14.667c0 0.011-0.006 0.020-0.007 0.031 0.001 0.011 0.007 0.020 0.007 0.031v5.937c0 0.368-0.299 0.667-0.667 0.667h-2.078l-1.261 10.083c-0.041 0.333-0.325 0.584-0.661 0.584h-4c-0.336 0-0.62-0.251-0.661-0.584l-1.261-10.083h-2.078c-0.368 0-0.667-0.299-0.667-0.667v-5.937c0-0.011 0.006-0.020 0.006-0.031s-0.006-0.020-0.006-0.031c0-3.675 2.989-6.665 6.663-6.667-2.204-0.001-3.997-1.795-3.997-4.001s1.794-4 4-4 4 1.794 4 4c0 2.205-1.793 3.999-3.997 4.001 3.675 0.002 6.663 2.991 6.663 6.667zM25.999 3.334c-1.47 0-2.666 1.196-2.666 2.667s1.196 2.666 2.666 2.666c1.471 0 2.667-1.195 2.667-2.666s-1.197-2.667-2.667-2.667zM25.999 10c-2.205 0-3.999-1.794-3.999-3.999s1.794-4 3.999-4c2.206 0 4.001 1.794 4.001 4s-1.795 3.999-4.001 3.999zM32 21.334c0 0.368-0.299 0.666-0.667 0.666h-1.435l-1.241 7.443c-0.053 0.321-0.331 0.557-0.657 0.557h-4c-0.332 0-0.613-0.243-0.66-0.572l-0.667-4.656c-0.052-0.364 0.201-0.702 0.565-0.755 0.364-0.050 0.703 0.201 0.755 0.565l0.585 4.085h2.857l1.241-7.443c0.004-0.027 0.020-0.047 0.027-0.073 0.013-0.043 0.027-0.085 0.047-0.124s0.044-0.071 0.071-0.105 0.053-0.063 0.086-0.091c0.033-0.028 0.068-0.050 0.105-0.071s0.073-0.039 0.113-0.052c0.043-0.014 0.085-0.021 0.13-0.027 0.027-0.003 0.050-0.015 0.077-0.015h1.333v-3.533c0-0.012 0.006-0.022 0.007-0.033-0.001-0.012-0.007-0.022-0.007-0.034 0-2.771-1.226-5.733-4.667-5.733-0.368 0-0.667-0.298-0.667-0.666s0.299-0.667 0.667-0.667c3.645 0 6 2.774 6 7.067 0 0.012-0.006 0.022-0.007 0.034 0.001 0.011 0.007 0.021 0.007 0.033v4.2z"></path>
</svg>
