<!-- Generated by IcoMoon.io -->
<svg version="1.1" xmlns="http://www.w3.org/2000/svg" width="32" height="32" viewBox="0 0 32 32">
<title>phone-mute</title>
<path d="M13.148 23.546c6.379 5.675 12.315 8.14 13.651 6.801l3.596-4.26-6.416-5.245-4.254 3.037c-0.265 0.189-0.627 0.159-0.857-0.069l-2.666-2.644c-0.262-0.259-0.264-0.682-0.004-0.943s0.682-0.263 0.943-0.004l2.267 2.247 4.211-3.007c0.245-0.174 0.576-0.164 0.81 0.026l7.335 5.996c0.138 0.113 0.226 0.277 0.242 0.455s-0.039 0.355-0.154 0.491l-4.042 4.793c-0.015 0.015-0.057 0.059-0.072 0.075-0.489 0.487-1.181 0.71-2.023 0.71-3.305 0-8.907-3.419-13.453-7.463-0.275-0.245-0.3-0.666-0.054-0.941 0.244-0.275 0.666-0.3 0.941-0.055zM8.197 13.141c-0.23-0.23-0.26-0.594-0.071-0.859l3.038-4.253-5.262-6.416-4.213 3.579c-0.007 0.008-0.014 0.015-0.017 0.019-1.208 1.207 0.913 6.447 6.444 12.804 0.083 0.096 1.605 1.823 2.309 2.622l2.632-2.631-4.86-4.865zM31.813 1.138l-30.675 30.671c-0.13 0.13-0.301 0.196-0.471 0.196s-0.341-0.066-0.471-0.196c-0.26-0.261-0.26-0.682 0-0.942l9.285-9.284c-0.676-0.768-2.284-2.592-2.37-2.691-4.865-5.592-8.725-12.282-6.381-14.625 0.013-0.013 0.052-0.053 0.066-0.066l4.761-4.044c0.136-0.116 0.312-0.169 0.492-0.156 0.178 0.017 0.341 0.103 0.456 0.241l6.015 7.334c0.19 0.234 0.202 0.566 0.027 0.811l-3.006 4.209 4.46 4.465 16.871-16.868c0.26-0.26 0.682-0.26 0.942 0s0.261 0.683 0 0.943z"></path>
</svg>
