<!-- Generated by IcoMoon.io -->
<svg version="1.1" xmlns="http://www.w3.org/2000/svg" width="32" height="32" viewBox="0 0 32 32">
<title>phone</title>
<path d="M1.678 5.198c-1.518 1.632 1.892 8.444 9.211 15.761 6.377 6.377 12.307 9.713 14.869 9.713 0.475 0 0.825-0.108 1.041-0.324l3.596-4.26-6.418-5.245-4.254 3.038c-0.265 0.188-0.629 0.159-0.859-0.071l-10.671-10.668c-0.231-0.23-0.261-0.594-0.071-0.859l3.038-4.252-5.262-6.415-4.219 3.583zM25.758 32.005c-3.414 0-9.769-4.061-15.813-10.104-6.51-6.509-11.955-14.902-9.223-17.634 0.013-0.013 0.053-0.053 0.067-0.065l4.762-4.044c0.137-0.116 0.313-0.175 0.492-0.156 0.178 0.015 0.342 0.103 0.455 0.241l6.017 7.334c0.19 0.233 0.202 0.565 0.026 0.81l-3.006 4.208 9.872 9.869 4.209-3.005c0.244-0.175 0.577-0.165 0.81 0.026l7.337 5.995c0.138 0.113 0.225 0.276 0.242 0.454s-0.039 0.355-0.155 0.492l-4.042 4.792c-0.013 0.017-0.057 0.060-0.072 0.075-0.47 0.469-1.137 0.71-1.979 0.71z"></path>
</svg>
