<!-- Generated by IcoMoon.io -->
<svg version="1.1" xmlns="http://www.w3.org/2000/svg" width="32" height="32" viewBox="0 0 32 32">
<title>phone-transfer</title>
<path d="M30.019 3.954h-9.121l1.577 1.575c0.261 0.26 0.261 0.682 0 0.942-0.131 0.13-0.301 0.196-0.471 0.196-0.171 0-0.342-0.066-0.472-0.196l-2.668-2.667c-0.129-0.129-0.193-0.298-0.194-0.466-0.001-0.002-0.001-0.003-0.001-0.005v-0.001c0-0.086 0.017-0.172 0.051-0.253 0.047-0.122 0.131-0.222 0.231-0.304l2.581-2.581c0.26-0.26 0.683-0.26 0.943 0s0.261 0.682 0 0.943l-1.48 1.48h9.025c0.368 0 0.655 0.348 0.655 0.716s-0.287 0.62-0.655 0.62zM30.624 11.588c-0.006 0.014-0.018 0.023-0.025 0.037-0.033 0.065-0.068 0.129-0.121 0.182l-2.668 2.667c-0.131 0.13-0.301 0.195-0.471 0.195s-0.341-0.065-0.472-0.195c-0.26-0.261-0.26-0.682 0-0.943l1.56-1.559h-9.085c-0.367 0-0.667-0.3-0.667-0.668s0.3-0.668 0.667-0.668h9.021l-1.497-1.496c-0.26-0.261-0.26-0.682 0-0.943s0.683-0.26 0.943 0l2.585 2.585c0.165 0.13 0.279 0.331 0.279 0.554 0 0.004-0.002 0.007-0.002 0.011-0.001 0.083-0.017 0.164-0.048 0.243zM23.976 20.842l-4.254 3.038c-0.266 0.19-0.628 0.159-0.858-0.070l-10.671-10.668c-0.231-0.231-0.261-0.594-0.072-0.859l3.038-4.254-5.262-6.415-4.219 3.583c-1.506 1.655 1.905 8.457 9.21 15.763 6.377 6.376 12.307 9.713 14.87 9.713 0.475 0 0.825-0.109 1.041-0.325l3.596-4.261-6.418-5.245zM31.851 26.429l-4.043 4.793c-0.014 0.016-0.057 0.059-0.072 0.075-0.469 0.469-1.137 0.71-1.978 0.71-3.417 0-9.771-4.061-15.814-10.104-6.509-6.51-11.953-14.902-9.222-17.635 0.013-0.013 0.052-0.053 0.065-0.065l4.763-4.045c0.136-0.116 0.313-0.17 0.492-0.156 0.178 0.016 0.342 0.103 0.455 0.241l6.018 7.334c0.191 0.233 0.202 0.566 0.027 0.811l-3.006 4.209 9.873 9.868 4.209-3.005c0.246-0.174 0.577-0.163 0.81 0.027l7.337 5.996c0.138 0.113 0.225 0.276 0.242 0.454 0.016 0.178-0.039 0.355-0.154 0.491z"></path>
</svg>
