<!-- Generated by IcoMoon.io -->
<svg version="1.1" xmlns="http://www.w3.org/2000/svg" width="32" height="32" viewBox="0 0 32 32">
<title>phone-end</title>
<path d="M22.739 29.324c0.878 0.874 2.044 1.355 3.286 1.355 1.017 0 1.973-0.338 2.771-0.934l-6.48-6.449c-0.599 0.795-0.938 1.747-0.938 2.758 0.001 1.235 0.484 2.397 1.361 3.27zM29.312 22.784c-0.878-0.873-2.045-1.354-3.287-1.354-1.017 0-1.973 0.337-2.771 0.932l6.481 6.449c0.598-0.794 0.937-1.746 0.937-2.757 0-1.236-0.483-2.398-1.36-3.27zM26.025 20.109c1.597 0 3.098 0.619 4.226 1.741s1.749 2.616 1.749 4.205c-0.001 1.589-0.621 3.083-1.749 4.204-1.128 1.123-2.628 1.741-4.226 1.741s-3.097-0.619-4.225-1.742c-1.129-1.123-1.75-2.614-1.75-4.204 0-1.588 0.621-3.081 1.75-4.205 1.127-1.122 2.628-1.741 4.225-1.741zM26.69 1.668c-0.265-0.244-0.616-0.347-1.084-0.347-2.998 0-9.005 3.892-14.61 9.468-3.429 3.412-6.278 7.003-8.021 10.111-1.849 3.299-1.898 5.081-1.327 5.649l4.243 3.561 5.221-6.355-3.025-4.213c-0.188-0.263-0.159-0.623 0.071-0.851l10.621-10.57c0.229-0.229 0.591-0.259 0.855-0.070l4.235 3.010 6.387-5.214-3.567-4.178zM24.318 12.402c-0.231 0.189-0.562 0.201-0.806 0.028l-4.19-2.979-9.827 9.779 2.993 4.169c0.174 0.243 0.163 0.571-0.026 0.803l-5.969 7.265c-0.113 0.137-0.276 0.224-0.453 0.24-0.020 0.002-0.041 0.003-0.062 0.003-0.156 0-0.307-0.055-0.427-0.156l-4.772-4.004c-0.012-0.010-0.052-0.049-0.064-0.060-1.242-1.235-0.86-3.734 1.101-7.231 1.801-3.212 4.727-6.907 8.241-10.402 5.926-5.895 12.174-9.856 15.548-9.856 0.852 0 1.529 0.242 2.010 0.722 0.013 0.012 0.053 0.052 0.065 0.065l4.026 4.716c0.115 0.135 0.171 0.311 0.155 0.487s-0.102 0.339-0.241 0.451l-7.302 5.961z"></path>
</svg>
