<!-- Generated by IcoMoon.io -->
<svg version="1.1" xmlns="http://www.w3.org/2000/svg" width="32" height="32" viewBox="0 0 32 32">
<title>picture</title>
<path d="M19.829 4.8c1.349 0 2.447 1.098 2.447 2.447v1.462h6.289c1.306 0 2.369 1.062 2.369 2.369v13.477c0 1.306-1.062 2.369-2.369 2.369h-25.13c-1.306-0-2.369-1.063-2.369-2.369v-13.477c0-1.306 1.062-2.369 2.369-2.369h5.92v-1.462c0-1.349 1.098-2.447 2.447-2.447l8.026 0zM15.817 24.21c3.617 0 6.559-2.942 6.559-6.559s-2.942-6.56-6.559-6.56c-3.62 0-6.564 2.943-6.564 6.56s2.945 6.559 6.564 6.559zM19.829 3.733h-8.026c-1.933 0-3.514 1.581-3.514 3.514v0.395h-4.853c-1.889 0-3.435 1.546-3.435 3.435v13.477c0 1.889 1.546 3.435 3.435 3.435h25.129c1.889 0 3.435-1.546 3.435-3.435v-13.477c0-1.889-1.546-3.435-3.435-3.435h-5.222v-0.395c0-1.932-1.581-3.514-3.514-3.514zM15.817 23.143c-3.037 0-5.497-2.458-5.497-5.493s2.46-5.493 5.497-5.493c3.033 0 5.493 2.458 5.493 5.493s-2.46 5.493-5.493 5.493z"></path>
</svg>
