<!-- Generated by IcoMoon.io -->
<svg version="1.1" xmlns="http://www.w3.org/2000/svg" width="32" height="32" viewBox="0 0 32 32">
<title>pin-filled</title>
<path d="M31.343 13.022c-0.936 0.291-1.91 0.438-2.895 0.438-0.968 0-1.924-0.141-2.845-0.421l-6.702 6.702c1.259 2.838 1.446 6.015 0.519 8.999-0.068 0.219-0.246 0.387-0.469 0.442-0.053 0.014-0.105 0.020-0.157 0.020-0.172 0-0.339-0.068-0.464-0.192l-7.132-7.132-9.756 9.755c-0.128 0.128-0.296 0.192-0.464 0.192s-0.336-0.064-0.464-0.192c-0.256-0.256-0.256-0.672 0-0.928l9.755-9.755-7.131-7.131c-0.163-0.163-0.228-0.398-0.173-0.621s0.223-0.4 0.442-0.469c2.926-0.91 6.187-0.722 8.992 0.517l6.709-6.708c-0.561-1.861-0.555-3.882 0.021-5.734 0.068-0.22 0.246-0.387 0.469-0.442s0.459 0.011 0.621 0.173l11.393 11.395c0.163 0.162 0.228 0.399 0.173 0.622s-0.222 0.4-0.442 0.469z"></path>
</svg>
