<!-- Generated by IcoMoon.io -->
<svg version="1.1" xmlns="http://www.w3.org/2000/svg" width="32" height="32" viewBox="0 0 32 32">
<title>pin-outline</title>
<path d="M20.12 2.293c-0.235 1.402-0.116 2.862 0.355 4.21 0.083 0.238 0.022 0.502-0.155 0.68l-7.318 7.316c-0.198 0.198-0.498 0.248-0.751 0.125-2.262-1.102-4.916-1.432-7.375-0.921l13.57 13.569c0.52-2.491 0.202-5.074-0.924-7.381-0.123-0.252-0.072-0.554 0.126-0.751l7.311-7.313c0.179-0.179 0.444-0.238 0.681-0.155 1.349 0.473 2.812 0.596 4.216 0.359l-9.737-9.738zM31.343 13.022c-0.936 0.291-1.91 0.438-2.895 0.438-0.968 0-1.924-0.141-2.845-0.421l-6.702 6.702c1.259 2.838 1.446 6.015 0.519 8.999-0.068 0.219-0.246 0.387-0.469 0.442-0.053 0.014-0.105 0.020-0.157 0.020-0.172 0-0.339-0.068-0.464-0.192l-7.132-7.132-9.756 9.755c-0.128 0.128-0.296 0.192-0.464 0.192s-0.336-0.064-0.464-0.192c-0.256-0.256-0.256-0.672 0-0.928l9.755-9.755-7.131-7.131c-0.163-0.163-0.228-0.398-0.173-0.621s0.223-0.4 0.442-0.469c2.926-0.91 6.187-0.722 8.992 0.517l6.709-6.708c-0.561-1.861-0.555-3.882 0.021-5.734 0.068-0.22 0.246-0.387 0.469-0.442s0.459 0.011 0.621 0.173l11.393 11.395c0.163 0.162 0.228 0.399 0.173 0.622s-0.222 0.4-0.442 0.469z"></path>
</svg>
