<!-- Generated by IcoMoon.io -->
<svg version="1.1" xmlns="http://www.w3.org/2000/svg" width="32" height="32" viewBox="0 0 32 32">
<title>plane</title>
<path d="M30.34 1.663c-0.289-0.257-2.32-1.068-4.838 1.45l-7.013 7.349c-0.155 0.162-0.382 0.235-0.602 0.196l-14.328-2.604-1.691 1.691 11.707 4.443c0.204 0.078 0.358 0.251 0.41 0.462s-0.001 0.436-0.146 0.601l-6.577 7.506c-0.126 0.144-0.309 0.227-0.501 0.227h-3.832l-0.997 0.91 4.025 1.456c0.286-0.020 0.564 0.138 0.67 0.42l1.637 4.365 1.073-1.073v-3.724c0-0.188 0.080-0.368 0.218-0.494l7.336-6.667c0.164-0.15 0.391-0.207 0.608-0.154 0.215 0.053 0.39 0.209 0.467 0.417l4.308 11.691 1.684-1.683-2.605-14.325c-0.040-0.221 0.033-0.446 0.196-0.601l7.35-7.014c2.518-2.519 1.707-4.547 1.443-4.843zM29.839 7.45c-0.002 0.002-0.005 0.003-0.007 0.005s-0.003 0.004-0.005 0.006l-7.1 6.775 2.603 14.316c0.039 0.215-0.029 0.436-0.184 0.59l-2.667 2.667c-0.126 0.126-0.297 0.196-0.472 0.196-0.047 0-0.096-0.005-0.143-0.015-0.222-0.049-0.404-0.207-0.483-0.421l-4.326-11.74-6.385 5.804v3.705c0 0.176-0.070 0.346-0.195 0.472l-2.001 2c-0.16 0.16-0.39 0.229-0.613 0.18-0.221-0.047-0.403-0.206-0.483-0.418l-1.862-4.964-5.076-1.836c-0.219-0.079-0.382-0.267-0.427-0.497-0.045-0.229 0.032-0.465 0.205-0.622l2.003-1.829c0.123-0.112 0.283-0.174 0.45-0.174h3.787l5.745-6.556-11.773-4.469c-0.212-0.080-0.368-0.262-0.416-0.484-0.047-0.221 0.021-0.45 0.18-0.611l2.668-2.667c0.154-0.154 0.375-0.223 0.591-0.184l14.318 2.602 6.776-7.1c1.72-1.72 3.283-2.132 4.293-2.177 1.134-0.050 2.064 0.338 2.445 0.719s0.77 1.31 0.719 2.445c-0.045 1.010-0.457 2.572-2.166 4.281z"></path>
</svg>
