<!-- Generated by IcoMoon.io -->
<svg version="1.1" xmlns="http://www.w3.org/2000/svg" width="32" height="32" viewBox="0 0 32 32">
<title>add-another</title>
<path fill="none" stroke="#000" stroke-linejoin="miter" stroke-linecap="butt" stroke-miterlimit="4" stroke-width="1.3333" d="M0.4 0.4h31.2v31.2h-31.2v-31.2z"></path>
<path d="M8.929 15.42c-0.378 0-0.697 0.311-0.697 0.696 0 0.373 0.312 0.696 0.697 0.696h6.259v6.259c0 0.378 0.311 0.697 0.696 0.697 0.373 0 0.696-0.312 0.696-0.697v-6.259h6.259c0.378 0 0.697-0.311 0.697-0.696 0-0.373-0.312-0.696-0.697-0.696h-6.259v-6.259c0-0.378-0.311-0.697-0.696-0.697-0.373 0-0.696 0.312-0.696 0.697v6.259h-6.259z"></path>
</svg>
