<!-- Generated by IcoMoon.io -->
<svg version="1.1" xmlns="http://www.w3.org/2000/svg" width="32" height="32" viewBox="0 0 32 32">
<title>plus-circle</title>
<path d="M0.211 16c0 8.716 7.074 15.789 15.789 15.789s15.789-7.074 15.789-15.789c0-8.716-7.074-15.789-15.789-15.789s-15.789 7.074-15.789 15.789zM30.526 16c0 8-6.526 14.526-14.526 14.526s-14.526-6.526-14.526-14.526c0-8 6.526-14.526 14.526-14.526s14.526 6.526 14.526 14.526zM15.158 8.842v6.316h-6.316c-0.337 0-0.632 0.295-0.632 0.632s0.295 0.632 0.632 0.632h6.316v6.737c0 0.337 0.295 0.632 0.632 0.632s0.632-0.295 0.632-0.632v-6.737h6.737c0.337 0 0.632-0.295 0.632-0.632s-0.295-0.632-0.632-0.632h-6.737v-6.316c0-0.337-0.295-0.632-0.632-0.632s-0.632 0.295-0.632 0.632z"></path>
</svg>
