<!-- Generated by IcoMoon.io -->
<svg version="1.1" xmlns="http://www.w3.org/2000/svg" width="32" height="32" viewBox="0 0 32 32">
<title>printer</title>
<path d="M26.036 13.354h-1.311c-0.362 0-0.656-0.294-0.656-0.656s0.294-0.656 0.656-0.656h1.311c0.362 0 0.656 0.294 0.656 0.656s-0.294 0.656-0.656 0.656zM30.627 9.747c0-0.178-0.16-0.328-0.349-0.328h-28.153c-0.19 0-0.349 0.149-0.349 0.328v13.771c0 0.178 0.16 0.328 0.349 0.328h4.896v-5.902c0-0.363 0.294-0.656 0.656-0.656h17.049c0.362 0 0.656 0.293 0.656 0.656v5.902h4.896c0.189 0 0.349-0.15 0.349-0.328v-13.771zM24.069 1.551h-15.738v6.557h15.738v-6.557zM8.332 30.402h15.738v-11.803h-15.738v11.803zM30.277 25.157h-4.896v5.902c0 0.363-0.294 0.656-0.656 0.656h-17.049c-0.362 0-0.656-0.293-0.656-0.656v-5.902h-4.896c-0.916 0-1.661-0.735-1.661-1.639v-13.771c0-0.905 0.745-1.639 1.661-1.639h4.896v-7.214c0-0.363 0.294-0.655 0.656-0.655h17.049c0.362 0 0.656 0.292 0.656 0.655v7.214h4.896c0.916 0 1.661 0.734 1.661 1.639v13.771c0 0.904-0.745 1.639-1.661 1.639z"></path>
</svg>
