<!-- Generated by IcoMoon.io -->
<svg version="1.1" xmlns="http://www.w3.org/2000/svg" width="32" height="32" viewBox="0 0 32 32">
<title>private-room</title>
<path d="M29.867 30.72h-3.2v-30.080c0-0.353-0.286-0.64-0.64-0.64h-20.48c-0.353 0-0.64 0.287-0.64 0.64v30.080h-3.2c-0.353 0-0.64 0.286-0.64 0.64s0.287 0.64 0.64 0.64h28.16c0.354 0 0.64-0.286 0.64-0.64s-0.286-0.64-0.64-0.64zM6.187 30.72v-29.44h19.2v29.44h-2.56v-26.24c0-0.353-0.286-0.64-0.64-0.64h-12.8c-0.353 0-0.64 0.287-0.64 0.64v26.24h-2.56zM10.027 30.72v-25.6h11.52v25.6h-11.52zM13.227 18.56c0.707 0 1.28-0.573 1.28-1.28s-0.573-1.28-1.28-1.28c-0.707 0-1.28 0.573-1.28 1.28s0.573 1.28 1.28 1.28z"></path>
</svg>
