<!-- Generated by IcoMoon.io -->
<svg version="1.1" xmlns="http://www.w3.org/2000/svg" width="32" height="32" viewBox="0 0 32 32">
<title>promo-rate</title>
<path d="M10.849 11.359c-0.711 0-1.312 0.887-1.312 1.936s0.601 1.935 1.312 1.935 1.312-0.886 1.312-1.935c0-1.049-0.601-1.936-1.312-1.936zM10.849 16.52c-1.447 0-2.624-1.447-2.624-3.225 0-1.779 1.177-3.226 2.624-3.226s2.624 1.447 2.624 3.226c0 1.778-1.177 3.225-2.624 3.225zM14.751 21.886c-0.092 0.27-0.347 0.442-0.622 0.442-0.069 0-0.138-0.011-0.207-0.034-0.343-0.113-0.529-0.479-0.415-0.816l3.936-11.612c0.115-0.338 0.483-0.522 0.83-0.409 0.343 0.113 0.529 0.479 0.414 0.817l-3.936 11.613zM21.346 16.52c-0.711 0-1.313 0.887-1.313 1.936s0.602 1.935 1.313 1.935c0.711 0 1.311-0.886 1.311-1.935s-0.6-1.936-1.311-1.936zM21.346 21.681c-1.448 0-2.625-1.447-2.625-3.226s1.177-3.226 2.625-3.226c1.446 0 2.622 1.448 2.622 3.226s-1.177 3.226-2.622 3.226zM27.014 10.015c-0.177-0.113-0.288-0.302-0.299-0.51l-0.198-3.879-3.944-0.195c-0.211-0.010-0.403-0.119-0.518-0.294l-2.144-3.262-3.515 1.771c-0.188 0.094-0.409 0.094-0.598 0l-3.515-1.771-2.144 3.262c-0.115 0.174-0.307 0.283-0.518 0.294l-3.944 0.195-0.198 3.879c-0.011 0.207-0.123 0.397-0.299 0.51l-3.317 2.108 1.8 3.457c0.097 0.185 0.097 0.403 0 0.588l-1.8 3.456 3.317 2.108c0.177 0.113 0.288 0.302 0.299 0.51l0.198 3.879 3.944 0.195c0.211 0.010 0.403 0.119 0.518 0.294l2.144 3.262 3.515-1.771c0.094-0.047 0.196-0.071 0.299-0.071s0.205 0.023 0.299 0.071l3.515 1.771 2.144-3.262c0.115-0.174 0.307-0.283 0.518-0.294l3.944-0.195 0.198-3.879c0.011-0.207 0.123-0.396 0.299-0.51l3.317-2.108-1.8-3.456c-0.097-0.185-0.097-0.403 0-0.588l1.8-3.457-3.317-2.108zM29.851 15.874l1.917 3.682c0.154 0.295 0.055 0.656-0.227 0.836l-3.533 2.246-0.211 4.131c-0.017 0.331-0.285 0.596-0.622 0.612l-4.201 0.207-2.283 3.475c-0.125 0.19-0.335 0.295-0.552 0.295-0.1 0-0.203-0.023-0.299-0.071l-3.743-1.887-3.744 1.887c-0.302 0.15-0.667 0.053-0.85-0.224l-2.283-3.475-4.201-0.207c-0.337-0.016-0.605-0.281-0.622-0.612l-0.211-4.131-3.533-2.246c-0.283-0.18-0.381-0.541-0.227-0.836l1.917-3.682-1.917-3.681c-0.154-0.295-0.055-0.656 0.227-0.836l3.533-2.245 0.211-4.131c0.017-0.331 0.285-0.595 0.622-0.612l4.201-0.207 2.283-3.475c0.183-0.278 0.549-0.376 0.85-0.224l3.744 1.887 3.743-1.887c0.301-0.152 0.667-0.054 0.85 0.224l2.283 3.475 4.201 0.207c0.337 0.017 0.605 0.281 0.622 0.612l0.211 4.131 3.533 2.245c0.283 0.18 0.381 0.541 0.227 0.836l-1.917 3.681z"></path>
</svg>
