<!-- Generated by IcoMoon.io -->
<svg version="1.1" xmlns="http://www.w3.org/2000/svg" width="32" height="32" viewBox="0 0 32 32">
<title>radio-checked</title>
<path d="M16 29.333c7.364 0 13.333-5.97 13.333-13.333s-5.97-13.333-13.333-13.333c-7.364 0-13.333 5.97-13.333 13.333s5.97 13.333 13.333 13.333zM16 1.333c-8.087 0-14.667 6.579-14.667 14.667s6.579 14.666 14.667 14.666 14.667-6.579 14.667-14.666c0-8.088-6.579-14.667-14.667-14.667zM16 32c-8.822 0-16-7.177-16-16s7.178-16 16-16 16 7.177 16 16c0 8.822-7.178 16-16 16z"></path>
</svg>
