<!-- Generated by IcoMoon.io -->
<svg version="1.1" xmlns="http://www.w3.org/2000/svg" width="32" height="32" viewBox="0 0 32 32">
<title>refresh</title>
<path d="M28.192 12.571c-0.35 0.108-0.724-0.095-0.831-0.453-1.463-4.926-6.152-8.366-11.403-8.366-5.611 0-10.066 3.763-11.14 9.263l3.475-2.388c0.304-0.21 0.719-0.128 0.925 0.18 0.207 0.309 0.127 0.729-0.178 0.939l-4.918 3.379c-0.111 0.076-0.242 0.116-0.374 0.116-0.050 0-0.1-0.005-0.149-0.017-0.18-0.042-0.336-0.158-0.428-0.32l-3.082-5.408c-0.184-0.322-0.075-0.736 0.244-0.923s0.726-0.076 0.91 0.247l2.262 3.969c1.189-6.078 6.272-10.39 12.452-10.39 5.834 0 11.048 3.836 12.68 9.33 0.106 0.357-0.094 0.734-0.447 0.841zM31.667 23.262c-0.105 0.062-0.22 0.091-0.333 0.091-0.23 0-0.455-0.121-0.578-0.338l-2.262-3.969c-1.189 6.078-6.272 10.389-12.452 10.389-5.834 0-11.048-3.836-12.68-9.328-0.106-0.358 0.093-0.735 0.446-0.842s0.724 0.094 0.831 0.451c1.463 4.927 6.152 8.367 11.403 8.367 5.611 0 10.066-3.764 11.141-9.264l-3.475 2.389c-0.305 0.21-0.719 0.128-0.926-0.18s-0.127-0.729 0.178-0.939l4.918-3.379c0.154-0.105 0.344-0.141 0.524-0.099s0.335 0.157 0.428 0.321l3.082 5.406c0.184 0.323 0.075 0.737-0.243 0.923z"></path>
</svg>
