<!-- Generated by IcoMoon.io -->
<svg version="1.1" xmlns="http://www.w3.org/2000/svg" width="32" height="32" viewBox="0 0 32 32">
<title>report-search</title>
<path d="M24.003 30.668h5.394v-4.667h-5.394v4.667zM23.336 24.668h6.668c0.368 0 0.73 0.299 0.73 0.667v6c0 0.368-0.361 0.666-0.73 0.666h-6.668c-0.369 0-0.619-0.298-0.619-0.666v-6c0-0.368 0.251-0.667 0.619-0.667zM12.668 30.668h5.372v-10.668h-5.372v10.668zM12.001 18.667h6.668c0.368 0 0.667 0.299 0.667 0.667v12c0 0.368-0.299 0.666-0.667 0.666h-6.668c-0.368 0-0.641-0.298-0.641-0.666v-12c0-0.368 0.273-0.667 0.641-0.667zM6.668 12.001h-5.334v18.667h5.334v-18.667zM7.334 32.001h-6.668c-0.368 0-0.667-0.298-0.667-0.666v-20.001c0-0.369 0.299-0.667 0.667-0.667h6.668c0.368 0 0.667 0.299 0.667 0.667v20.001c0 0.368-0.299 0.666-0.667 0.666zM25.336 7.667c0-3.493-2.841-6.334-6.334-6.334s-6.334 2.841-6.334 6.334c0 3.492 2.842 6.334 6.334 6.334s6.334-2.841 6.334-6.334zM31.808 21.482c-0.13 0.131-0.301 0.195-0.471 0.195s-0.341-0.065-0.472-0.195l-7.511-7.51c-1.238 0.857-2.736 1.361-4.352 1.361-4.228 0-7.668-3.439-7.668-7.666s3.44-7.667 7.668-7.667c4.227 0 7.667 3.439 7.667 7.667 0 2.131-0.875 4.060-2.284 5.451l7.423 7.422c0.261 0.261 0.261 0.683 0 0.943z"></path>
</svg>
