<!-- Generated by IcoMoon.io -->
<svg version="1.1" xmlns="http://www.w3.org/2000/svg" width="31" height="32" viewBox="0 0 31 32">
<title>s-arrow</title>
<path d="M24.727 14.236c-0.128 0.127-0.296 0.191-0.463 0.191s-0.336-0.064-0.464-0.191c-0.256-0.257-0.256-0.672 0-0.928l5.48-5.48h-22.514c-0.066 0.022-0.135 0.042-0.209 0.042-2.892 0-5.246 2.354-5.246 5.245 0 2.893 2.354 5.246 5.246 5.246 0.024 0 0.044 0.011 0.067 0.013 0.022-0.002 0.041-0.013 0.064-0.013h18.1c0.016 0 0.030 0.009 0.046 0.010 0.030-0.004 0.055-0.017 0.085-0.017 3.616 0 6.558 2.941 6.558 6.558s-2.942 6.558-6.558 6.558c-0.016 0-0.029-0.008-0.044-0.009-0.030 0.005-0.056 0.018-0.087 0.018h-24.133c-0.362 0-0.656-0.294-0.656-0.656 0-0.361 0.294-0.656 0.656-0.656h24.133c0.016 0 0.030 0.008 0.045 0.009 0.029-0.004 0.055-0.017 0.086-0.017 2.892 0 5.246-2.353 5.246-5.246s-2.354-5.246-5.246-5.246c-0.016 0-0.030-0.009-0.045-0.009-0.030 0.004-0.056 0.017-0.086 0.017h-18.1c-0.024 0-0.045-0.011-0.068-0.014-0.022 0.003-0.041 0.013-0.064 0.013-3.616 0-6.558-2.942-6.558-6.558 0-3.545 2.829-6.434 6.347-6.546 0.065-0.034 0.139-0.056 0.225-0.056h22.621l-5.394-5.394c-0.256-0.256-0.256-0.671 0-0.927s0.671-0.256 0.927 0l6.373 6.373c0.233 0.104 0.376 0.365 0.377 0.646v0.003c0 0.197-0.073 0.356-0.194 0.465l-6.556 6.557z"></path>
</svg>
