<!-- Generated by IcoMoon.io -->
<svg version="1.1" xmlns="http://www.w3.org/2000/svg" width="32" height="32" viewBox="0 0 32 32">
<title>search</title>
<path d="M12.001 1.334c-5.882 0-10.668 4.784-10.668 10.666s4.786 10.668 10.668 10.668c5.883 0 10.669-4.785 10.669-10.668s-4.786-10.666-10.669-10.666zM31.807 31.805c-0.13 0.13-0.301 0.195-0.472 0.195s-0.341-0.065-0.471-0.195l-10.875-10.874c-2.124 1.902-4.919 3.070-7.989 3.070-6.617 0-12.001-5.384-12.001-12.001s5.384-12 12.001-12c6.618 0 12.002 5.383 12.002 12 0 3.069-1.168 5.863-3.070 7.988l10.874 10.874c0.261 0.261 0.261 0.683 0 0.943z"></path>
</svg>
