<!-- Generated by IcoMoon.io -->
<svg version="1.1" xmlns="http://www.w3.org/2000/svg" width="32" height="32" viewBox="0 0 32 32">
<title>settings-switch</title>
<path d="M8.058 30.661h11.718c-1.864-1.329-3.088-3.516-3.088-5.991 0-2.484 1.232-4.679 3.108-6.006h-11.738c-3.274 0-5.938 2.691-5.938 5.999s2.664 5.999 5.938 5.999zM29.883 24.669c0-3.307-2.664-5.999-5.938-5.999s-5.937 2.691-5.937 5.999c0 3.255 2.581 5.907 5.783 5.991h0.1c0.012 0 0.022 0.006 0.034 0.007 0.007 0 0.013 0.001 0.020 0.001 3.274 0 5.938-2.691 5.938-5.999zM8.058 17.33h15.834c0.015 0 0.027 0.007 0.042 0.008 0.004 0 0.008-0.001 0.012-0.001 4.002 0 7.258 3.289 7.258 7.331s-3.255 7.331-7.258 7.331c-0.049 0-0.096-0.006-0.145-0.007h-15.742c-4.002 0-7.258-3.289-7.258-7.331s3.256-7.332 7.258-7.332zM23.891 1.333h-11.631c1.876 1.327 3.109 3.523 3.109 6.007 0 2.474-1.223 4.661-3.086 5.99h11.609c3.274 0 5.937-2.691 5.937-5.999 0-3.307-2.663-5.997-5.937-5.997zM2.174 7.34c0 3.099 2.339 5.657 5.327 5.967 0.005 0.001 0.008-0.001 0.013-0.001 0.178 0.017 0.361 0.025 0.545 0.025h0.227c3.193-0.094 5.765-2.741 5.765-5.99 0-3.308-2.664-5.999-5.938-5.999s-5.937 2.691-5.937 5.999zM23.891 14.664h-15.616c-0.055 0.001-0.108 0.008-0.164 0.008-4.002 0-7.257-3.289-7.257-7.332 0-3.999 3.188-7.255 7.13-7.325 0.025-0.003 0.047-0.015 0.073-0.015h15.834c4.002 0 7.257 3.289 7.257 7.331 0 4.043-3.255 7.333-7.257 7.333z"></path>
</svg>
