<!-- Generated by IcoMoon.io -->
<svg version="1.1" xmlns="http://www.w3.org/2000/svg" width="32" height="32" viewBox="0 0 32 32">
<title>settings</title>
<path d="M10.601 15.981c0 2.942 2.392 5.334 5.334 5.334s5.333-2.392 5.333-5.334c0-2.941-2.392-5.333-5.333-5.333s-5.334 2.393-5.334 5.333zM9.267 15.981c0-3.676 2.991-6.667 6.667-6.667s6.667 2.991 6.667 6.667c0 3.677-2.991 6.667-6.667 6.667s-6.667-2.991-6.667-6.667zM30.656 14.539l-3.506-0.459c-0.275-0.036-0.5-0.239-0.562-0.51-0.279-1.197-0.756-2.329-1.419-3.365-0.15-0.235-0.138-0.537 0.029-0.761l2.142-2.846-2.014-2.001-2.855 2.175c-0.219 0.167-0.519 0.181-0.755 0.036-1.031-0.638-2.146-1.095-3.312-1.357-0.269-0.061-0.473-0.282-0.513-0.555l-0.519-3.561-2.837 0.009-0.457 3.546c-0.035 0.277-0.241 0.503-0.513 0.565-1.195 0.271-2.33 0.742-3.372 1.399-0.236 0.149-0.539 0.135-0.759-0.033l-2.835-2.157-1.995 2.007 2.169 2.774c0.174 0.223 0.189 0.531 0.037 0.77-0.663 1.039-1.141 2.175-1.419 3.375-0.062 0.267-0.28 0.468-0.55 0.509l-3.505 0.528 0.010 2.831 3.46 0.431c0.279 0.034 0.507 0.241 0.569 0.515 0.267 1.193 0.738 2.33 1.398 3.379 0.146 0.231 0.135 0.528-0.025 0.749l-2.093 2.866 2.023 2.007 2.823-2.129c0.118-0.090 0.259-0.135 0.401-0.135 0.122 0 0.243 0.034 0.352 0.101 1.033 0.64 2.151 1.099 3.322 1.365 0.268 0.061 0.471 0.278 0.512 0.549l0.537 3.511 2.838-0.011 0.464-3.497c0.037-0.275 0.241-0.499 0.512-0.562 1.183-0.271 2.307-0.739 3.34-1.388 0.232-0.145 0.529-0.134 0.75 0.027l2.868 2.109 2.005-2.018-2.143-2.809c-0.169-0.221-0.183-0.523-0.035-0.758 0.647-1.035 1.111-2.153 1.376-3.327 0.061-0.266 0.278-0.469 0.549-0.511l3.515-0.543-0.009-2.838zM27.792 19.169c-0.27 1.011-0.671 1.982-1.198 2.897l2.222 2.912c0.202 0.265 0.178 0.638-0.057 0.875l-2.82 2.838c-0.231 0.235-0.601 0.263-0.868 0.067l-2.972-2.185c-0.916 0.529-1.891 0.934-2.909 1.209l-0.481 3.625c-0.043 0.33-0.325 0.577-0.658 0.579l-3.995 0.015c-0.332 0-0.612-0.241-0.661-0.566l-0.557-3.639c-1.007-0.269-1.976-0.667-2.89-1.187l-2.927 2.207c-0.265 0.201-0.636 0.175-0.871-0.059l-2.841-2.819c-0.234-0.232-0.263-0.6-0.069-0.866l2.169-2.97c-0.539-0.931-0.949-1.919-1.223-2.949l-3.587-0.446c-0.333-0.041-0.583-0.324-0.585-0.659l-0.014-3.995c-0.001-0.331 0.24-0.612 0.567-0.662l3.636-0.547c0.281-1.033 0.694-2.021 1.235-2.945l-2.246-2.873c-0.207-0.265-0.184-0.643 0.053-0.881l2.82-2.838c0.235-0.238 0.612-0.262 0.876-0.061l2.94 2.237c0.924-0.535 1.908-0.942 2.934-1.217l0.473-3.675c0.043-0.331 0.325-0.581 0.659-0.581l4.001-0.011c0.333 0 0.613 0.243 0.661 0.571l0.536 3.689c1.001 0.267 1.965 0.662 2.876 1.179l2.96-2.253c0.263-0.201 0.637-0.179 0.873 0.058l2.838 2.819c0.237 0.235 0.263 0.607 0.063 0.874l-2.219 2.948c0.541 0.92 0.955 1.903 1.236 2.933l3.635 0.477c0.332 0.043 0.579 0.325 0.58 0.659l0.013 3.994c0.001 0.329-0.239 0.611-0.565 0.661l-3.643 0.561z"></path>
</svg>
