<!-- Generated by IcoMoon.io -->
<svg version="1.1" xmlns="http://www.w3.org/2000/svg" width="32" height="32" viewBox="0 0 32 32">
<title>show</title>
<path d="M16 11.176c-2.573 0-4.667 2.086-4.667 4.651s2.093 4.651 4.667 4.651c2.573 0 4.667-2.086 4.667-4.651s-2.093-4.651-4.667-4.651zM16 21.806c-3.308 0-6-2.683-6-5.979s2.692-5.979 6-5.979 6 2.682 6 5.979c0 3.297-2.692 5.979-6 5.979zM16 5.862c-10.119 0-14.667 7.921-14.667 9.965s4.548 9.965 14.667 9.965 14.667-7.921 14.667-9.965c0-2.044-4.548-9.965-14.667-9.965zM16 27.122c-11.013 0-16-8.664-16-11.295s4.987-11.293 16-11.293 16 8.663 16 11.293c0 2.631-4.987 11.295-16 11.295z"></path>
</svg>
