<!-- Generated by IcoMoon.io -->
<svg version="1.1" xmlns="http://www.w3.org/2000/svg" width="26" height="32" viewBox="0 0 26 32">
<title>signup</title>
<path d="M7.869 2.24l-5.63 5.631h5.63v-5.631zM22.951 5.247c-0.363 0-0.656-0.294-0.656-0.656v-2.93c0-0.19-0.471-0.386-0.665-0.386h-12.483v7.227c0 0.363-0.295 0.657-0.657 0.657h-7.227v20.365c0 0.189 0.211 0.646 0.405 0.646h20.269c0.193 0 0.357-0.16 0.357-0.349v-10.145c0-0.363 0.293-0.656 0.656-0.656s0.656 0.294 0.656 0.656v10.145c0 0.916-0.749 1.661-1.669 1.661h-20.269c-0.92 0-1.669-0.745-1.669-1.661v-21.121c0-0.024 0.011-0.045 0.014-0.068-0.034-0.206 0.027-0.418 0.178-0.57l7.869-7.871c0.158-0.159 0.384-0.217 0.598-0.171 0.035-0.005 0.066-0.020 0.103-0.020h13.175c0.92 0 1.669 0.745 1.669 1.661v2.93c0 0.362-0.294 0.656-0.656 0.656zM24.54 9.562c-0.49-0.491-1.339-0.49-1.827-0.001-0.015 0.015-0.035 0.021-0.051 0.034-0.011 0.014-0.016 0.031-0.029 0.044l-0.788 0.789 1.828 1.829 0.788-0.788c0.014-0.015 0.034-0.020 0.049-0.033 0.012-0.014 0.017-0.033 0.030-0.047 0.244-0.243 0.378-0.568 0.378-0.912s-0.135-0.671-0.378-0.914zM10.958 23.146l2.931-1.102 8.856-8.86-1.828-1.829-8.861 8.865-1.098 2.926zM25.467 12.318c-0.014 0.014-0.034 0.020-0.049 0.032-0.012 0.014-0.016 0.032-0.030 0.045l-10.675 10.68c-0.003 0.003-0.006 0.003-0.009 0.005-0.022 0.021-0.052 0.033-0.077 0.051-0.047 0.034-0.092 0.070-0.144 0.090-0.001 0.001-0.003 0.002-0.004 0.003l-4.414 1.657c-0.075 0.029-0.153 0.043-0.231 0.043h-5.901c-0.363 0-0.656-0.294-0.656-0.657s0.294-0.656 0.656-0.656h5.447l1.498-3.988c0.001-0.003 0.003-0.005 0.005-0.008 0.012-0.031 0.036-0.056 0.053-0.085 0.028-0.047 0.052-0.097 0.089-0.135 0.001-0.001 0.001-0.003 0.003-0.004l10.677-10.681c0.014-0.014 0.034-0.020 0.049-0.033 0.012-0.014 0.016-0.031 0.029-0.044 0.984-0.987 2.7-0.987 3.684 0 0.491 0.492 0.761 1.146 0.761 1.842s-0.271 1.35-0.763 1.841z"></path>
</svg>
