<!-- Generated by IcoMoon.io -->
<svg version="1.1" xmlns="http://www.w3.org/2000/svg" width="32" height="32" viewBox="0 0 32 32">
<title>size</title>
<path d="M28.431 22.083l-3.292 3.291c-0.13 0.13-0.301 0.195-0.471 0.195s-0.341-0.065-0.471-0.195c-0.261-0.261-0.261-0.682 0-0.943l3.292-3.291-2.572-2.572-1.518 1.518c-0.131 0.13-0.301 0.195-0.471 0.195s-0.341-0.065-0.471-0.195c-0.261-0.261-0.261-0.682 0-0.943l1.518-1.518-2.572-2.572-3.291 3.292c-0.13 0.13-0.301 0.195-0.471 0.195s-0.341-0.065-0.471-0.195c-0.261-0.261-0.261-0.682 0-0.943l3.291-3.292-2.572-2.572-1.518 1.519c-0.13 0.13-0.301 0.195-0.471 0.195s-0.341-0.065-0.471-0.195c-0.261-0.26-0.261-0.682 0-0.943l1.518-1.519-2.572-2.572-3.291 3.292c-0.13 0.13-0.301 0.195-0.471 0.195s-0.341-0.065-0.471-0.195c-0.261-0.26-0.261-0.682 0-0.943l3.291-3.292-2.571-2.571-1.518 1.518c-0.13 0.13-0.301 0.195-0.471 0.195s-0.341-0.065-0.471-0.195c-0.261-0.26-0.261-0.682 0-0.943l1.518-1.518-1.96-1.96-6.347 6.347 22.434 22.434 6.347-6.347-1.96-1.96zM24.043 32c-0.177 0-0.347-0.070-0.471-0.195l-23.377-23.377c-0.261-0.261-0.261-0.682 0-0.943l7.29-7.29c0.261-0.261 0.682-0.261 0.943 0l23.377 23.376c0.261 0.261 0.261 0.682 0 0.943l-7.29 7.291c-0.125 0.125-0.294 0.195-0.471 0.195z"></path>
</svg>
