<!-- Generated by IcoMoon.io -->
<svg version="1.1" xmlns="http://www.w3.org/2000/svg" width="18" height="32" viewBox="0 0 18 32">
<title>smart-phone</title>
<path d="M8.948 26.27c0.734 0 1.332 0.588 1.332 1.311s-0.597 1.311-1.332 1.311-1.332-0.589-1.332-1.311c0-0.723 0.597-1.311 1.332-1.311zM10.946 4.63h-3.995c-0.368 0-0.666-0.292-0.666-0.655s0.298-0.656 0.666-0.656h3.995c0.368 0 0.666 0.294 0.666 0.656s-0.298 0.655-0.666 0.655zM16.272 2.707c0-0.748-0.597-1.355-1.332-1.355h-11.985c-0.734 0-1.332 0.607-1.332 1.355v26.142c0 0.748 0.597 1.355 1.332 1.355h11.985c0.734 0 1.332-0.608 1.332-1.355v-26.142zM14.941 31.516h-11.985c-1.469 0-2.663-1.195-2.663-2.667v-26.142c0-1.47 1.194-2.667 2.663-2.667h11.985c1.469 0 2.663 1.197 2.663 2.667v26.142c0 1.471-1.195 2.667-2.663 2.667z"></path>
</svg>
