<!-- Generated by IcoMoon.io -->
<svg version="1.1" xmlns="http://www.w3.org/2000/svg" width="32" height="32" viewBox="0 0 32 32">
<title>star-filled</title>
<path d="M6.45 31.17c-0.118 0-0.237-0.037-0.336-0.109-0.176-0.128-0.264-0.345-0.227-0.559l1.766-10.296-7.481-7.291c-0.155-0.152-0.211-0.379-0.145-0.585s0.246-0.358 0.462-0.389l10.337-1.502 4.623-9.367c0.096-0.195 0.295-0.319 0.512-0.319s0.417 0.123 0.512 0.319l4.623 9.367 10.338 1.502c0.215 0.031 0.394 0.182 0.462 0.389 0.067 0.206 0.011 0.434-0.145 0.585l-7.481 7.292 1.766 10.295c0.037 0.214-0.051 0.431-0.227 0.559-0.176 0.129-0.41 0.146-0.602 0.043l-9.246-4.861-9.247 4.861c-0.083 0.043-0.175 0.065-0.266 0.065zM1.799 12.905l6.866 6.693c0.134 0.131 0.196 0.321 0.164 0.506l-1.621 9.45 8.488-4.462c0.166-0.088 0.365-0.088 0.532 0l8.487 4.462-1.621-9.45c-0.032-0.185 0.030-0.374 0.164-0.506l6.866-6.693-9.489-1.379c-0.186-0.027-0.347-0.144-0.43-0.313l-4.244-8.598-4.244 8.598c-0.083 0.169-0.244 0.286-0.43 0.313l-9.489 1.378zM6.45 31.17c-0.118 0-0.237-0.037-0.336-0.109-0.176-0.128-0.264-0.345-0.227-0.559l1.766-10.296-7.481-7.291c-0.155-0.152-0.211-0.379-0.145-0.585s0.246-0.358 0.462-0.389l10.337-1.502 4.623-9.367c0.096-0.195 0.295-0.319 0.512-0.319s0.417 0.123 0.512 0.319l4.623 9.367 10.338 1.502c0.215 0.031 0.394 0.182 0.462 0.389 0.067 0.206 0.011 0.434-0.145 0.585l-7.481 7.292 1.766 10.295c0.037 0.214-0.051 0.431-0.227 0.559-0.176 0.129-0.41 0.146-0.602 0.043l-9.246-4.861-9.247 4.861c-0.083 0.043-0.175 0.065-0.266 0.065z"></path>
</svg>
