<!-- Generated by IcoMoon.io -->
<svg version="1.1" xmlns="http://www.w3.org/2000/svg" width="32" height="32" viewBox="0 0 32 32">
<title>train-1</title>
<path d="M25.269 28.059c0.375 0 1.486-0.066 2.26-0.794 0.513-0.483 0.772-1.148 0.772-1.976l-0.001-18.915c0.005-0.062 0.102-1.529-1.282-3.023-1.933-2.089-5.64-3.149-11.017-3.149-5.395 0-9.108 1.062-11.034 3.154-1.375 1.494-1.27 2.959-1.267 2.987v19.448c0 1.249 1.016 2.265 2.265 2.265h2.080l-2.381 3.107c-0.133 0.173-0.1 0.421 0.073 0.554 0.072 0.055 0.156 0.081 0.24 0.081 0.119 0 0.236-0.053 0.314-0.155l0.888-1.159h17.639l0.888 1.159c0.078 0.102 0.195 0.155 0.314 0.155 0.084 0 0.168-0.026 0.24-0.081 0.173-0.133 0.206-0.381 0.073-0.554l-2.381-3.108h1.187c0.009 0.001 0.055 0.004 0.127 0.004zM4.489 8.61h23.021v8.732h-23.020l-0-8.732zM5.548 3.891c1.217-1.323 4.018-2.899 10.452-2.899 6.381 0 9.185 1.56 10.413 2.87 1.161 1.238 1.101 2.405 1.097 2.482v1.477h-23.021v-1.51c-0.001-0.011-0.084-1.178 1.059-2.42zM4.491 25.791l-0-7.659h23.020v7.157c0 0.6-0.175 1.070-0.52 1.397-0.672 0.636-1.791 0.583-1.825 0.58h-19.199c-0.813 0-1.475-0.661-1.475-1.475zM24.215 29.695h-16.428l1.255-1.639 13.917-0 1.256 1.639zM9.155 20.375c-1.194 0-2.166 0.972-2.166 2.166s0.971 2.166 2.166 2.166c1.194 0 2.166-0.971 2.166-2.166s-0.971-2.166-2.166-2.166zM9.155 23.917c-0.759 0-1.376-0.617-1.376-1.376s0.617-1.376 1.376-1.376 1.376 0.617 1.376 1.376c0 0.759-0.617 1.376-1.376 1.376zM22.794 20.375c-1.194 0-2.166 0.972-2.166 2.166s0.971 2.166 2.166 2.166c1.194 0 2.166-0.971 2.166-2.166s-0.971-2.166-2.166-2.166zM22.794 23.917c-0.759 0-1.376-0.617-1.376-1.376s0.617-1.376 1.376-1.376 1.376 0.617 1.376 1.376c0 0.759-0.617 1.376-1.376 1.376zM13.018 6.12h5.965c0.795 0 1.442-0.647 1.442-1.442v-0.106c0-0.795-0.647-1.442-1.442-1.442h-5.965c-0.795 0-1.442 0.647-1.442 1.442v0.106c0 0.795 0.647 1.442 1.442 1.442zM12.366 4.572c0-0.359 0.292-0.651 0.652-0.651h5.965c0.36 0 0.651 0.292 0.651 0.651v0.106c0 0.359-0.292 0.652-0.651 0.652h-5.965c-0.36 0-0.652-0.292-0.652-0.652v-0.106z"></path>
</svg>
