<!-- Generated by IcoMoon.io -->
<svg version="1.1" xmlns="http://www.w3.org/2000/svg" width="32" height="32" viewBox="0 0 32 32">
<title>train</title>
<path d="M10.232 0c-1.975 0-3.565 1.615-3.565 3.593v17.514c0 1.978 1.59 3.593 3.565 3.593h0.248c-0.112 0.188-0.248 0.425-0.422 0.726-0.385 0.651-0.882 1.528-1.379 2.392-0.994 1.728-1.963 3.443-1.963 3.443-0.1 0.163-0.037 0.4 0.124 0.488s0.398 0.025 0.497-0.138c0 0 0.534-0.939 0.783-1.402h15.664c0.261 0.463 0.795 1.402 0.795 1.402 0.087 0.176 0.323 0.238 0.484 0.138 0.161-0.088 0.224-0.325 0.137-0.488 0 0-0.994-1.715-1.975-3.443-0.497-0.864-0.994-1.74-1.367-2.392-0.174-0.3-0.31-0.538-0.422-0.726h0.236c1.975 0 3.565-1.615 3.565-3.593v-17.514c0-1.978-1.59-3.593-3.565-3.593h-11.441zM10.232 0.701h11.44c1.602 0 2.869 1.289 2.869 2.892v17.514c0 1.602-1.267 2.88-2.869 2.88h-11.44c-1.59 0-2.857-1.277-2.857-2.88v-17.514c0-1.602 1.267-2.892 2.857-2.892zM8.865 2.804c-0.161 0.025-0.286 0.188-0.286 0.351v8.788c0 0.188 0.161 0.351 0.348 0.351h6.348c0.186 0 0.36-0.163 0.36-0.351v-8.788c0-0.188-0.174-0.351-0.36-0.351h-6.348c-0.012 0-0.012 0-0.025 0s-0.024 0-0.037 0zM16.567 2.804c-0.161 0.025-0.286 0.188-0.286 0.351v8.788c0 0.188 0.174 0.351 0.348 0.351h6.347c0.186 0 0.36-0.163 0.36-0.351v-8.788c0-0.188-0.174-0.351-0.36-0.351h-6.348c0 0-0.012 0-0.025 0-0.012 0-0.024 0-0.036 0zM9.288 3.505h5.64v8.088h-5.64v-8.088zM16.989 3.505h5.639v8.088h-5.639v-8.088zM11.225 16.312c-1.18 0-2.137 0.976-2.137 2.153 0 1.189 0.956 2.153 2.137 2.153s2.136-0.964 2.136-2.153c0-1.176-0.956-2.153-2.136-2.153zM20.691 16.312c-1.18 0-2.149 0.976-2.149 2.153 0 1.189 0.969 2.153 2.149 2.153 1.168 0 2.124-0.964 2.124-2.153 0-1.176-0.956-2.153-2.124-2.153zM11.225 17.026c0.795 0 1.428 0.639 1.428 1.44s-0.633 1.452-1.428 1.452c-0.795 0-1.428-0.651-1.428-1.452s0.633-1.44 1.428-1.44zM20.691 17.026c0.783 0 1.416 0.639 1.416 1.44s-0.634 1.452-1.416 1.452c-0.795 0-1.441-0.651-1.441-1.452s0.646-1.44 1.441-1.44zM11.288 24.7h9.328c0.012 0 0.012 0.012 0.025 0.037 0.037 0.050 0.087 0.138 0.137 0.238 0.124 0.188 0.286 0.476 0.472 0.801 0.124 0.225 0.311 0.564 0.472 0.839h-11.528c0.149-0.276 0.335-0.614 0.472-0.839 0.186-0.325 0.348-0.613 0.46-0.801 0.062-0.1 0.1-0.188 0.136-0.238 0.013-0.025 0.025-0.037 0.025-0.037zM9.784 27.316h12.347c0.174 0.3 0.31 0.551 0.484 0.851 0.385 0.676 0.435 0.776 0.758 1.34h-14.844c0.323-0.564 0.385-0.664 0.77-1.34 0.174-0.3 0.311-0.551 0.484-0.851z"></path>
</svg>
