<!-- Generated by IcoMoon.io -->
<svg version="1.1" xmlns="http://www.w3.org/2000/svg" width="32" height="32" viewBox="0 0 32 32">
<title>trash</title>
<path d="M20.956 31.971h-10.78c-2.241 0-4.070-1.829-4.070-4.070v-18.684c0-0.487 0.398-0.885 0.885-0.885s0.885 0.398 0.885 0.885v18.699c0 1.268 1.032 2.3 2.3 2.3h10.78c1.268 0 2.3-1.032 2.3-2.3v-18.699c0-0.487 0.398-0.885 0.885-0.885s0.885 0.398 0.885 0.885v18.699c-0.015 2.241-1.829 4.055-4.070 4.055zM12.61 27.561c-0.487 0-0.885-0.398-0.885-0.885v-17.696c0-0.487 0.398-0.885 0.885-0.885s0.885 0.398 0.885 0.885v17.696c0 0.487-0.398 0.885-0.885 0.885zM19.098 27.561c-0.487 0-0.885-0.398-0.885-0.885v-17.696c0-0.487 0.398-0.885 0.885-0.885s0.885 0.398 0.885 0.885v17.696c0 0.487-0.398 0.885-0.885 0.885zM27.548 5.412c-0.147-0.044-2.979-0.811-7.403-1.165-0.206-2.359-2.183-4.203-4.586-4.203-2.418 0-4.409 1.873-4.586 4.247-4.129 0.369-6.665 1.091-6.813 1.135-0.472 0.133-0.737 0.619-0.605 1.091s0.634 0.737 1.091 0.605c0.044-0.015 4.498-1.268 11.104-1.268s11.281 1.253 11.325 1.268c0.074 0.029 0.162 0.029 0.236 0.029 0.383 0 0.737-0.265 0.855-0.649 0.133-0.472-0.147-0.959-0.619-1.091zM15.765 4.070c-1.047 0-2.050 0.029-2.994 0.074 0.236-1.327 1.386-2.345 2.787-2.345 1.386 0 2.551 1.003 2.787 2.33-0.811-0.029-1.681-0.059-2.581-0.059z"></path>
</svg>
