<!-- Generated by IcoMoon.io -->
<svg version="1.1" xmlns="http://www.w3.org/2000/svg" width="40" height="32" viewBox="0 0 40 32">
<title>twtr</title>
<path d="M26.677 0.127c-4.773 0-8.528 3.716-8.639 8.498-4.695-0.677-8.907-3-12.013-6.659-0.312-0.368-0.767-0.576-1.242-0.576-0.042 0-0.085 0.001-0.128 0.004-0.521 0.041-0.99 0.331-1.264 0.781-0.812 1.331-1.24 2.86-1.24 4.423 0 1.249 0.273 2.461 0.782 3.566-0.017 0.007-0.034 0.019-0.051 0.029-0.491 0.298-0.791 0.835-0.791 1.413v0.091c0 2.433 1.014 4.672 2.676 6.275-0.225 0.403-0.274 0.886-0.125 1.334 0.708 2.128 2.207 3.853 4.123 4.908-1.525 0.574-3.158 0.869-4.847 0.869-0.54 0-1.066-0.031-1.562-0.090-0.065-0.007-0.13-0.012-0.194-0.012-0.689 0-1.314 0.441-1.544 1.111-0.251 0.733 0.037 1.543 0.693 1.948 3.748 2.311 7.768 3.433 12.29 3.433 14.069 0 22.475-11.092 22.475-21.815v-0.089c1.276-0.993 2.391-2.164 3.324-3.492 0.211-0.277 0.337-0.625 0.337-1.001 0-0.807-0.572-1.478-1.329-1.623 0.090-0.215 0.173-0.432 0.247-0.653 0.215-0.648 0.012-1.362-0.51-1.797-0.299-0.25-0.668-0.378-1.040-0.378-0.276 0-0.554 0.071-0.805 0.215-1.056 0.605-2.202 1.062-3.412 1.365-1.634-1.299-3.931-2.080-6.212-2.080zM38.1 5.078h0.004zM26.677 1.776c2.12 0 4.402 0.839 5.751 2.221 1.675-0.323 3.257-0.907 4.678-1.72-0.549 1.653-1.719 3.041-3.24 3.918 1.489-0.173 2.915-0.552 4.235-1.118-0.99 1.42-2.238 2.669-3.677 3.668 0.011 0.303 0.019 0.61 0.019 0.914 0 9.363-7.278 20.164-20.841 20.164-4.495 0-8.179-1.182-11.438-3.191 0.576 0.069 1.161 0.101 1.755 0.101 3.456 0 6.635-1.133 9.16-3.035-3.229-0.054-5.952-2.105-6.887-4.918 0.449 0.083 0.911 0.128 1.388 0.128 0.669 0 1.322-0.086 1.94-0.248-3.372-0.65-5.794-3.529-5.794-6.963v-0.091c0.994 0.531 2.129 0.851 3.34 0.888-1.979-1.272-3.28-3.438-3.28-5.896 0-1.299 0.362-2.517 0.997-3.56 3.635 4.282 8.95 7.119 15.079 7.418-0.128-0.517-0.193-1.064-0.193-1.614 0-3.914 2.932-7.066 7.007-7.066z"></path>
</svg>
