<!-- Generated by IcoMoon.io -->
<svg version="1.1" xmlns="http://www.w3.org/2000/svg" width="39" height="32" viewBox="0 0 39 32">
<title>twtr-filled</title>
<path d="M38.957 3.786c-1.434 0.643-2.972 1.078-4.589 1.273 1.651-1 2.914-2.585 3.513-4.468-1.548 0.926-3.257 1.598-5.078 1.962-1.458-1.573-3.532-2.553-5.833-2.553-4.413 0-7.992 3.619-7.992 8.079 0 0.633 0.071 1.251 0.207 1.841-6.641-0.337-12.529-3.555-16.471-8.444-0.689 1.192-1.081 2.58-1.081 4.062 0 2.804 1.412 5.278 3.554 6.725-1.31-0.044-2.541-0.409-3.62-1.014v0.101c0 3.914 2.756 7.181 6.41 7.924-0.669 0.182-1.375 0.283-2.106 0.283-0.516 0-1.015-0.052-1.504-0.15 1.018 3.213 3.968 5.549 7.464 5.613-2.734 2.166-6.181 3.454-9.925 3.454-0.645 0-1.28-0.039-1.906-0.111 3.537 2.297 7.736 3.636 12.25 3.636 14.701 0 22.737-12.314 22.737-22.992l-0.027-1.046c1.57-1.132 2.928-2.555 3.997-4.175z"></path>
</svg>
