<!-- Generated by IcoMoon.io -->
<svg version="1.1" xmlns="http://www.w3.org/2000/svg" width="37" height="32" viewBox="0 0 37 32">
<title>unfurnished</title>
<path d="M8.308 7.363l0.3-0.479 0.729 0.356-0.31 0.498 0.992 0.518-0.648 1.2-0.226 0.112-0.871-0.451 1.115-0.553-1.081-0.54-1.091 0.546-0.65-0.336 1.742-0.871zM24.337 16.656l1.943 0.958-0.74 0.515-1.943-0.958 0.739-0.515zM16.176 24.362l0.002-0.878 1.441 0.71-0.003 0.878-1.441-0.71zM13.809 23.196l0.003-0.878 1.457 0.718-0.003 0.878-1.457-0.718zM11.393 22.005l0.002-0.878 1.507 0.743-0.002 0.878-1.507-0.743zM13.802 25.876l0.003-0.878 1.456 0.716-0.002 0.878-1.457-0.716zM9.043 20.846l0.002-0.878 1.441 0.71-0.003 0.878-1.441-0.71zM11.386 24.69l0.002-0.878 1.507 0.74-0.002 0.878-1.507-0.74zM4.326 18.522l0.002-0.878 1.441 0.711-0.002 0.878-1.441-0.71zM6.685 16.823l0.002-0.878 1.457 0.718-0.002 0.878-1.457-0.718zM9.035 23.536l0.003-0.878 1.441 0.708-0.002 0.878-1.441-0.708zM6.669 22.374l0.002-0.878 1.457 0.715-0.002 0.878-1.457-0.715zM16.168 27.038l0.002-0.878 1.441 0.708-0.003 0.878-1.441-0.708zM11.401 19.149l0.003-0.878 1.507 0.743-0.002 0.878-1.507-0.743zM6.676 19.68l0.003-0.878 1.457 0.718-0.003 0.878-1.457-0.718zM4.318 21.22l0.003-0.878 1.441 0.708-0.002 0.878-1.442-0.708zM13.818 20.34l0.002-0.878 1.457 0.718-0.002 0.878-1.457-0.718zM9.051 17.99l0.003-0.878 1.441 0.71-0.002 0.878-1.441-0.711zM18.519 28.193l0.002-0.878 1.521 0.747-0.002 0.878-1.521-0.747zM22.261 29.11l-0.002 0.878-1.521-0.747 0.002-0.878 1.521 0.747zM18.526 25.521l0.002-0.878 1.522 0.75-0.003 0.878-1.521-0.75zM16.184 21.507l0.003-0.878 1.441 0.711-0.002 0.878-1.441-0.71zM18.534 22.666l0.003-0.878 1.521 0.75-0.002 0.878-1.522-0.75zM2.412 19.402l0.462 0.23 0.537 0.264-0.002 0.878-0.375-0.184v0.695l-0.992 0.497-0.992-0.497v-1.68l-0.676-0.338v-1.351l0.789 0.386v0.478l0.34 0.17-0.002 0.861 0.909 0.452 0.002-0.86zM2.874 16.53v0.396l0.545 0.269-0.003 0.878-1.331-0.656v-1.273l0.789 0.386zM1.162 15.693v1.718l-0.789-0.386v-1.718l0.789 0.386zM23.074 27.765l-0.789-0.391-1.328-0.655 0.002-0.878 1.325 0.653v-0.504l0.789 0.386v1.388zM23.667 28.062l0.001-1.395 0.615 0.301v1.396l-0.615-0.301zM29.82 20.070l0.003 0.877-1.424 0.705-0.003-0.874 1.424-0.708zM24.283 29.862l0.712-0.353 0.002 0.897-1 0.498-0.176-0.088-0.043-0.022v0.73l-0.992 0.497-0.992-0.497v-1.742l1.259 0.631 0.002-0.866 0.612 0.306 0-0.903 0.616 0.301v0.61zM27.487 21.231l0.002 0.871-1.603 0.794-0.002-0.868 1.603-0.798zM28.417 27.815l1.424-0.705 0.002 0.884-1.424 0.709-0.002-0.888zM33.146 25.461l1.252-0.627 0.002 0.882-1.252 0.627-0.002-0.882zM32.237 25.917l0.002 0.881-0.169 0.085 0.002 0.002-1.319 0.657-0.003-0.882 0.378-0.187 1.109-0.556zM25.904 29.059l1.603-0.794 0.003 0.89-1.603 0.798-0.003-0.894zM25.372 5.79l-0.739 0.514-2.023-1.003 0.739-0.514 2.023 1.003zM19.63 2.944l-0.739 0.514-1.751-0.868 0.739-0.514 1.751 0.868zM22.373 4.304l-0.739 0.514-1.767-0.876 0.739-0.514 1.767 0.876zM31.132 8.645l-0.739 0.514-1.78-0.882 0.739-0.514 1.78 0.882zM28.376 7.279l-0.739 0.514-2.027-1.004 0.739-0.514 2.027 1.005zM32.889 10.79l-0.739 0.514-1.85-0.916 0.739-0.514 1.85 0.916zM27.542 9.023l0.739-0.514 1.781 0.882-0.739 0.514-1.781-0.882zM24.538 7.534l0.739-0.514 2.027 1.004-0.739 0.514-2.027-1.004zM33.958 10.046l-0.739 0.514-1.849-0.917 0.739-0.514 1.85 0.917zM22.277 5.534l2.023 1.002-0.739 0.514-2.024-1.002 0.739-0.514zM16.066 3.338l0.739-0.514 1.751 0.867-0.739 0.514-1.751-0.867zM18.794 4.689l0.739-0.514 1.767 0.875-0.739 0.514-1.767-0.875zM7.307 9.597l0.873 0.452-1.129 0.563-0.875-0.453 1.131-0.561zM4.164 10.096l-1.298 0.649-0.65-0.336 1.299-0.649 0.65 0.336zM1.903 11.226l-0.869 0.435-0.66-0.331 0.88-0.44 0.65 0.336zM3.906 11.284l1.303-0.647 0.877 0.454-1.301 0.648-0.879-0.455zM6.254 9.051l-1.127 0.564-0.65-0.336 1.127-0.564 0.65 0.336zM8.51 11.351l0.902 0.435-1.235 0.615-0.901-0.435 1.234-0.615zM7.192 12.892l-1.417 0.706-0.899-0.434 1.416-0.706 0.9 0.434zM1.162 13.932v0.872l-0.789-0.386v-0.872l0.789 0.386zM4.79 14.088l-0.93 0.463 1.917 0.945-0.002 0.878-2.902-1.431v0.697l-0.789-0.386v-2.186l-0.922-0.461v0.435l-0.789-0.385v-1.327l1.711 0.856 0.855-0.424 0.881 0.456-0.947 0.472v1.471l1.018-0.508 0.899 0.434zM24.283 25.128v0.95l-0.614-0.301 0-0.949 0.614 0.3zM36.26 16.532v-1.509l0.789-0.386v1.509l-0.789 0.386zM23.769 21.369l0.991-0.498 0.578 0.372-0.991 0.498-0.578-0.372zM27.217 20.299l-0.979 0.492-0.578-0.372 0.979-0.492 0.578 0.372zM36.26 23.901v-1.367l0.789-0.386v2.241l-0.601 0.301v0.925l-0.992 0.496-0.985-0.492 0.839-0.42-0.002-0.822 0.952-0.477zM36.26 21.645v-1.739l0.789-0.386v1.739l-0.789 0.386zM36.26 19.017v-1.596l0.789-0.386v1.596l-0.789 0.386zM24.283 23.69v0.549l-0.613-0.3v-0.256l-0.596-0.293v2.097l-0.789-0.386v-0.586l-1.32-0.651 0.002-0.878 1.316 0.648 0.002-0.001v-1.52l0.584-0.293 0.579 0.372-0.501 0.252 1.047 0.524 0.981-0.488 0.003 0.865-0.695 0.344zM34.603 14.623l-0.568 0.97-0.709-0.347 0.568-0.97 0.709 0.346zM32.625 15.954l-0.675 1.084-0.726-0.355 0.678-1.082 0.723 0.353zM32.849 16.063l0.71 0.347-0.643 1.099-0.71-0.347 0.643-1.099zM34.935 10.53l2.114 1.048v2.17l-0.789 0.386v-1.461l-0.648 0.227-0.531 0.908-0.708-0.346 0.479-0.819-0.125-0.062-0.503 0.808-0.715-0.35 0.508-0.81-0.888-0.44 0.739-0.514 0.992 0.491 0.4-0.194-1.062-0.527 0.739-0.514zM32.405 14.797l0.598-0.955 0.718 0.351-0.596 0.957-0.72-0.352zM13.62 4.162l-0.465 1.129-0.71-0.348 0.465-1.129 0.71 0.348zM11.355 4.411l0.617-1.054 0.708 0.347-0.617 1.054-0.709-0.347zM12.796 6.165l-0.589 1.43-0.71-0.348 0.588-1.43 0.71 0.347zM11.806 3.275l-0.647 1.039-0.72-0.352 0.65-1.038 0.717 0.351zM9.619 7.378l0.71 0.348-0.31 0.53-0.7-0.365 0.3-0.512zM10.658 5.119l-0.82 1.316-0.726-0.355 0.824-1.315 0.722 0.353zM10.096 6.562l0.781-1.335 0.709 0.347-0.781 1.336-0.71-0.348zM31.373 18.585l-0.292-0.152 0.368-0.59-0.728-0.356-0.359 0.572-0.001-0-0.633 0.318 0.578 0.372 0.056-0.028 1.086 0.543-0.717 0.357 0.002 0.879 0.551-0.273 0.789-1.273 0.001 0 0.366-0.626-0.71-0.348-0.355 0.606zM32.071 18.95v0zM12.78 1.71l-0.473 0.761-0.714-0.349 0.478-0.763 2.195-1.073 0.963 0.477-0.75 0.509-0.215-0.107-0.406 0.199 1.972 0.976-0.739 0.514-0.774-0.383-0.336 0.818-0.71-0.348 0.338-0.821v-0l-0.449 0.768-0.708-0.346 0.451-0.771-0.121-0.060zM16.902 1.592l-0.739 0.514-0.71-0.352 0.75-0.509 0.699 0.346zM23.359 16.174l-0.74 0.515-1.438-0.709 0.74-0.515 1.438 0.709zM18.967 14.008l1.976 0.974-0.739 0.515-1.976-0.974 0.739-0.515zM15.023 12.063l-0.74 0.515-1.512-0.746 0.739-0.515 1.512 0.746zM15.261 13.061l0.739-0.515 1.989 0.981-0.74 0.515-1.989-0.981zM28.828 18.827l0.578 0.372-1.288 0.647-0.578-0.372 0.361-0.181-1.383-0.682 0.739-0.515 1.527 0.753 0.043-0.022zM12.533 10.836l-0.739 0.515-0.758-0.374-0.64 0.319-0.903-0.435 0.649-0.323 0.994-2.416 0.71 0.347-0.695 1.688 1.38 0.68z"></path>
</svg>
