<!-- Generated by IcoMoon.io -->
<svg version="1.1" xmlns="http://www.w3.org/2000/svg" width="32" height="32" viewBox="0 0 32 32">
<title>upload</title>
<path d="M11.377 20.816c-0.256-0.256-0.256-0.671 0-0.927l3.934-3.934c0.060-0.060 0.133-0.109 0.214-0.142 0.16-0.067 0.341-0.067 0.501 0 0.081 0.033 0.153 0.081 0.214 0.142l3.934 3.934c0.256 0.256 0.256 0.671 0 0.927-0.128 0.128-0.296 0.192-0.464 0.192s-0.336-0.064-0.464-0.192l-2.815-2.815v10.221c0 0.362-0.293 0.656-0.656 0.656s-0.656-0.294-0.656-0.656v-10.221l-2.815 2.815c-0.256 0.256-0.671 0.256-0.927 0zM23.644 26.254h-3.934c-0.363 0-0.656-0.293-0.656-0.656s0.293-0.656 0.656-0.656h3.934c4.305 0 6.557-3.749 6.557-7.451 0-4.108-3.314-7.451-7.388-7.451-0.145 0-0.291 0.009-0.436 0.025-0.303 0.041-0.594-0.145-0.695-0.436-1.18-3.391-4.362-5.67-7.918-5.67-4.628 0-8.393 3.797-8.393 8.464 0 0.394 0.033 0.794 0.103 1.224 0.051 0.317-0.135 0.625-0.441 0.727-2.204 0.732-3.685 2.8-3.685 5.144 0 2.991 2.412 5.424 5.377 5.424h5.115c0.363 0 0.656 0.293 0.656 0.656s-0.293 0.656-0.656 0.656h-5.115c-3.688 0-6.689-3.022-6.689-6.736 0-2.725 1.614-5.149 4.070-6.195-0.032-0.306-0.048-0.603-0.048-0.9 0-5.39 4.353-9.776 9.704-9.776 3.948 0 7.495 2.424 8.98 6.081 0.023-0.001 0.047-0.001 0.070-0.001 4.797 0 8.7 3.931 8.7 8.763 0 4.354-2.703 8.763-7.869 8.763z"></path>
</svg>
