<!-- Generated by IcoMoon.io -->
<svg version="1.1" xmlns="http://www.w3.org/2000/svg" width="32" height="32" viewBox="0 0 32 32">
<title>user-profile</title>
<path d="M16 1.333c-8.087 0-14.667 6.579-14.667 14.667 0 4.069 1.667 7.753 4.353 10.413 1.601-3.158 4.607-5.435 8.007-6.161-2.832-1-4.872-3.719-4.872-6.919 0-4.043 3.255-7.333 7.256-7.333s7.257 3.289 7.257 7.333c0 3.216-2.061 5.949-4.917 6.935 3.359 0.745 6.325 3.005 7.914 6.13 2.676-2.659 4.336-6.337 4.336-10.398 0-8.088-6.579-14.667-14.667-14.667zM16.077 19.334c3.266 0 5.923-2.692 5.923-6.001s-2.657-5.999-5.923-5.999-5.923 2.691-5.923 5.999c0 3.309 2.657 6.001 5.923 6.001zM25.299 27.332c-1.669-3.597-5.36-5.999-9.287-5.999-3.932 0-7.627 2.407-9.294 6.012 2.531 2.074 5.763 3.321 9.282 3.321 3.527 0 6.767-1.252 9.299-3.335zM16 32c-8.822 0-16-7.177-16-16s7.178-16 16-16 16 7.177 16 16c0 8.822-7.178 16-16 16z"></path>
</svg>
