<!-- Generated by IcoMoon.io -->
<svg version="1.1" xmlns="http://www.w3.org/2000/svg" width="32" height="32" viewBox="0 0 32 32">
<title>user-contact</title>
<path d="M13.52 5.658c-0.584-0.202-1.166-0.306-1.731-0.312-0.013 0.001-0.027 0.002-0.041 0.002-2.193 0-4.906 1.622-5.322 3.952l-0.004 4.352c0 0.039 0.036 4.024 2.73 6.228 0.023 0.019 0.035 0.044 0.054 0.066 0.021 0.025 0.046 0.044 0.062 0.073 0.001 0.001 0.001 0.003 0.001 0.005 0.022 0.040 0.031 0.084 0.040 0.127 0.004 0.018 0.014 0.035 0.016 0.052 0.003 0.030-0.006 0.060-0.008 0.090s-0 0.063-0.009 0.093c-0.005 0.016-0.017 0.029-0.023 0.045-0.018 0.042-0.036 0.085-0.065 0.121-0.001 0.001-0.001 0.003-0.002 0.004-0.009 0.010-0.021 0.014-0.030 0.023-0.033 0.034-0.066 0.069-0.11 0.093l-7.982 4.351v1.211c0 0.145 0.118 0.266 0.258 0.266h5.069c0.267 0 0.484 0.215 0.484 0.481s-0.217 0.48-0.484 0.48h-5.069c-0.676 0-1.227-0.551-1.227-1.228v-1.496c0-0.176 0.096-0.337 0.251-0.422l7.64-4.164c-2.537-2.53-2.566-6.331-2.565-6.502l0.004-4.392c0-0.027 0.002-0.052 0.006-0.078 0.477-2.852 3.601-4.772 6.239-4.794 0.015-0.001 0.030-0.002 0.045-0.002 0.686 0 1.389 0.123 2.089 0.364 0.252 0.088 0.386 0.362 0.298 0.612s-0.364 0.384-0.616 0.296zM30.634 25.061l-7.265-3.935c-0.162-0.088-0.968-0.555-0.968-1.143 0-0.534 0.63-0.867 1.215-0.949l3.566-0.498c-2.015-2.589-2.331-8.573-2.358-9.188-0.416-2.319-2.449-4.001-4.845-4.001s-4.429 1.682-4.845 4.001c-0.027 0.616-0.343 6.599-2.358 9.188l3.565 0.498c0.586 0.083 1.216 0.415 1.216 0.949 0 0.588-0.808 1.056-0.97 1.143l-7.262 3.935v1.189c0 0.139 0.118 0.256 0.258 0.256h20.79c0.14 0 0.258-0.117 0.258-0.256v-1.189zM30.376 27.468h-20.79c-0.676 0-1.227-0.546-1.227-1.218v-1.474c0-0.176 0.097-0.338 0.252-0.422l7.515-4.071c0.134-0.073 0.25-0.158 0.335-0.232-0.071-0.026-0.157-0.051-0.254-0.065l-4.526-0.633c-0.196-0.027-0.355-0.17-0.402-0.361s0.028-0.392 0.189-0.506c1.971-1.398 2.62-7.128 2.703-9.218 0-0.011 0.006-0.020 0.007-0.031s-0.002-0.021-0-0.032c0.487-2.793 2.928-4.819 5.804-4.819s5.316 2.026 5.804 4.819c0.002 0.011-0.002 0.021-0 0.032s0.007 0.020 0.007 0.031c0.083 2.090 0.732 7.82 2.703 9.218 0.161 0.114 0.236 0.314 0.189 0.506s-0.207 0.334-0.402 0.361l-4.527 0.633c-0.096 0.013-0.183 0.038-0.253 0.065 0.084 0.073 0.2 0.158 0.334 0.231l7.516 4.071c0.155 0.085 0.252 0.247 0.252 0.422v1.474c0 0.672-0.55 1.218-1.227 1.218z"></path>
</svg>
