<!-- Generated by IcoMoon.io -->
<svg version="1.1" xmlns="http://www.w3.org/2000/svg" width="32" height="32" viewBox="0 0 32 32">
<title>walk</title>
<path d="M16.649 6.666c-1.758 0-3.188-1.43-3.188-3.187s1.43-3.187 3.188-3.187c1.757 0 3.187 1.43 3.187 3.187s-1.43 3.187-3.187 3.187zM16.649 1.133c-1.293 0-2.346 1.052-2.346 2.345s1.053 2.345 2.346 2.345c1.293 0 2.345-1.052 2.345-2.345s-1.052-2.345-2.345-2.345zM21.901 31.709c-0.761 0-1.432-0.459-1.71-1.168-0-0.001-0.001-0.002-0.001-0.003l-5.374-10.692-0.985 4.075c-0.013 0.055-0.037 0.107-0.071 0.152l-4.639 6.259c-0.016 0.022-0.035 0.043-0.055 0.061-0.333 0.305-0.768 0.473-1.224 0.473-1.014 0-1.84-0.826-1.84-1.84 0-0.257 0.055-0.51 0.163-0.75 0.014-0.031 0.032-0.061 0.054-0.088l4.112-5.213c0.009-0.015 0.019-0.029 0.031-0.043l0.061-0.075 1.054-7.043 0.155-3.33-0.596 0.596-0.643 3.984c-0.17 0.775-0.845 1.317-1.612 1.317-0.908 0-1.646-0.739-1.646-1.646 0-0.182 0.031-0.363 0.091-0.54l0.798-4.872c0.014-0.087 0.055-0.167 0.117-0.229l3.421-3.433c0.493-0.799 1.376-1.293 2.317-1.293 0.016 0 0.031 0.001 0.046 0.003l2.535 0.28c0.011 0 0.022 0.001 0.029 0.002 0.659 0.073 1.267 0.381 1.713 0.867 0.020 0.021 0.037 0.044 0.052 0.069l0.501 0.842c0.008 0.012 0.014 0.025 0.020 0.037l2.564 4.323 3.292 0.917c0.794 0.133 1.367 0.811 1.367 1.621 0 0.908-0.739 1.647-1.646 1.647-0.246 0-0.493-0.057-0.716-0.165l-4.336-1.432c-0.094-0.032-0.173-0.096-0.225-0.18l-1.457-2.395-0.192 3.856 6.218 12.639c0.009 0.020 0.018 0.040 0.024 0.061 0.049 0.159 0.073 0.325 0.073 0.507 0 1.015-0.825 1.84-1.84 1.84zM20.985 30.259c0.157 0.37 0.514 0.608 0.916 0.608 0.55 0 0.997-0.448 0.997-0.998 0-0.085-0.009-0.161-0.027-0.23l-6.249-12.704c-0.032-0.064-0.046-0.135-0.043-0.206l0.266-5.323c0.009-0.167 0.114-0.316 0.269-0.376s0.331-0.026 0.449 0.091c0.024 0.024 0.048 0.054 0.066 0.083l2.085 3.427 0.864 0.292 3.349 1.098c0.021 0.007 0.041 0.015 0.060 0.025 0.115 0.059 0.238 0.088 0.365 0.088 0.444 0 0.804-0.36 0.804-0.804 0-0.399-0.285-0.733-0.678-0.792-0.016-0.003-0.033-0.006-0.050-0.011l-3.167-0.882c-0.067 0.017-0.138 0.018-0.207 0l-0.051-0.013c-0.112-0.028-0.208-0.101-0.265-0.202l-0.024-0.043c-0.005-0.007-0.009-0.013-0.013-0.021l-2.669-4.501c-0.007-0.012-0.013-0.024-0.019-0.037l-0.458-0.77c-0.302-0.315-0.704-0.515-1.14-0.567-0.011-0-0.021-0.001-0.029-0.002l-2.527-0.28c-0.664 0.008-1.26 0.352-1.598 0.925-0.018 0.030-0.040 0.059-0.065 0.084l-3.361 3.373-0.782 4.776c-0.004 0.027-0.011 0.053-0.021 0.079-0.035 0.095-0.053 0.192-0.053 0.287 0 0.443 0.361 0.804 0.804 0.804 0.374 0 0.704-0.265 0.784-0.63l0.016-0.113 0.644-3.985c0.014-0.088 0.056-0.168 0.118-0.231l1.461-1.461c0.123-0.123 0.308-0.157 0.468-0.088 0.159 0.070 0.259 0.231 0.251 0.405l-0.206 4.438c-0 0.014-0.002 0.028-0.004 0.043l-1.074 7.178c-0.011 0.076-0.043 0.147-0.091 0.205l-0.108 0.131c-0.007 0.011-0.014 0.021-0.022 0.030l-4.104 5.203c-0.046 0.117-0.070 0.237-0.070 0.36 0 0.55 0.448 0.998 0.997 0.998 0.232 0 0.453-0.080 0.627-0.227l0.323-0.439 4.239-5.718 1.235-5.108c0.042-0.172 0.186-0.299 0.361-0.319 0.179-0.023 0.345 0.072 0.424 0.229l5.907 11.752c0.011 0.021 0.019 0.043 0.026 0.066z"></path>
</svg>
