<?xml version="1.0" encoding="UTF-8"?>
<svg width="60px" height="60px" viewBox="0 0 60 60" version="1.1" xmlns="http://www.w3.org/2000/svg" xmlns:xlink="http://www.w3.org/1999/xlink">
    <!-- Generator: Sketch 49.3 (51167) - http://www.bohemiancoding.com/sketch -->
    <title>Mask</title>
    <desc>Created with Sketch.</desc>
    <defs>
        <path d="M23.0243902,53.804878 L24.3658537,52.3658537 L32.7560976,60 L30.2195122,60 C13.8780488,60 0.609756098,46.7073171 0.609756098,30.3902439 C0.609756098,17.7073171 8.65853659,6.46341463 20.6585366,2.36585366 L21.2926829,4.2195122 C10.0731707,8.02439024 2.56097561,18.5609756 2.56097561,30.3902439 C2.56097561,44.7317073 13.5365854,56.5609756 27.5365854,57.902439 L23.0243902,53.804878 Z M30.0243902,0.756097561 C46.3658537,0.756097561 59.6341463,14.0487805 59.6097561,30.3658537 C59.6097561,43.0487805 51.5609756,54.2926829 39.5609756,58.3902439 L38.9268293,56.5365854 C50.1463415,52.7317073 57.6585366,42.195122 57.6585366,30.3658537 C57.6585366,16.0243902 46.6829268,4.19512195 32.6829268,2.85365854 L37.195122,6.95121951 L35.8780488,8.3902439 L27.4878049,0.756097561 L30.0243902,0.756097561 Z M38.097561,26.6097561 C35.8536585,26.6097561 34.0487805,28.4390244 34.0487805,30.6585366 C34.0487805,32.902439 35.8780488,34.7073171 38.097561,34.7073171 C40.3414634,34.7073171 42.1463415,32.8780488 42.1463415,30.6585366 C42.1463415,28.4390244 40.3414634,26.6097561 38.097561,26.6097561 Z M38.097561,32.7804878 C36.9268293,32.7804878 36,31.8292683 36,30.6829268 C36,29.5121951 36.9512195,28.5853659 38.097561,28.5853659 C39.2682927,28.5853659 40.195122,29.5365854 40.195122,30.6829268 C40.195122,31.8292683 39.2682927,32.7804878 38.097561,32.7804878 Z M21.902439,26.6097561 C19.6585366,26.6097561 17.8536585,28.4390244 17.8536585,30.6585366 C17.8536585,32.902439 19.6829268,34.7073171 21.902439,34.7073171 C24.1219512,34.7073171 25.9512195,32.8780488 25.9512195,30.6585366 C25.9512195,28.4390244 24.1463415,26.6097561 21.902439,26.6097561 Z M21.902439,32.7804878 C20.7317073,32.7804878 19.804878,31.8292683 19.804878,30.6829268 C19.804878,29.5121951 20.7560976,28.5853659 21.902439,28.5853659 C23.0731707,28.5853659 24,29.5365854 24,30.6829268 C24,31.8292683 23.0487805,32.7804878 21.902439,32.7804878 Z M48.5365854,36.3902439 L48.5365854,25.8292683 C48.5365854,22.3170732 46.4390244,20.2926829 42.7560976,20.2926829 L18.1219512,20.2926829 C14.6585366,20.2926829 12.6829268,22.3170732 12.6829268,25.8292683 L12.6829268,36.3902439 C12.6829268,41.6341463 15.9512195,42.4146341 17.8780488,42.4146341 L23.4878049,42.4146341 C25.6585366,42.4146341 27.3170732,41.1463415 28.4390244,38.6341463 L28.6341463,38.2195122 C29.097561,37.1707317 29.4878049,36.3170732 29.6585366,36.097561 C29.7317073,36.097561 29.902439,36.097561 29.9756098,36.097561 C30.097561,36.097561 30.2926829,36.097561 30.3902439,36.1219512 C30.5853659,36.3170732 31,37.1707317 31.5121951,38.2682927 L31.7073171,38.6829268 C32.902439,41.1707317 34.6829268,42.4390244 36.9512195,42.4390244 L42.9756098,42.4390244 C45.0731707,42.4146341 48.5365854,41.6341463 48.5365854,36.3902439 Z M33.4878049,37.804878 L33.2926829,37.3902439 C31.9756098,34.6341463 31.7317073,34.1219512 30,34.1219512 C28.3170732,34.1219512 28.0731707,34.6829268 26.8536585,37.4146341 L26.6585366,37.8292683 C25.4878049,40.4634146 24.0243902,40.4634146 23.4878049,40.4634146 L17.8780488,40.4634146 C15,40.4634146 14.6341463,38.2926829 14.6341463,36.3902439 L14.6341463,25.8292683 C14.6341463,23.3902439 15.7560976,22.2439024 18.1219512,22.2439024 L42.7560976,22.2439024 C45.3658537,22.2439024 46.5853659,23.3902439 46.5853659,25.8292683 L46.5853659,36.3902439 C46.5853659,39.195122 45.4878049,40.4634146 43.0243902,40.4634146 L37,40.4634146 C36.3902439,40.4634146 34.7804878,40.4634146 33.4878049,37.804878 Z" id="path-1"></path>
    </defs>
    <g id="Symbols" stroke="none" stroke-width="1" fill="none" fill-rule="evenodd">
        <g id="05_icons/interface/360" transform="translate(-10.000000, -10.000000)">
            <g id="🎨Colour" transform="translate(10.000000, 10.000000)">
                <mask id="mask-2" fill="white">
                    <use xlink:href="#path-1"></use>
                </mask>
                <use id="Mask" fill="#000000" fill-rule="nonzero" xlink:href="#path-1"></use>
            </g>
        </g>
    </g>
</svg>