<?xml version="1.0" encoding="UTF-8"?>
<svg width="33px" height="60px" viewBox="0 0 33 60" version="1.1" xmlns="http://www.w3.org/2000/svg" xmlns:xlink="http://www.w3.org/1999/xlink">
    <!-- Generator: Sketch 49.3 (51167) - http://www.bohemiancoding.com/sketch -->
    <title>Mask</title>
    <desc>Created with Sketch.</desc>
    <defs>
        <path d="M2.95834456,37.5463392 L18.2211021,32.7767275 C18.961756,32.5452732 19.70042,33.1393411 19.6331975,33.9124003 L18.0902575,51.6562091 L29.771277,22.4536608 L14.5085194,27.2232725 C13.7678655,27.4547268 13.0292015,26.8606589 13.096424,26.0875997 L14.639364,8.34379092 L2.95834456,37.5463392 Z M1.41856912,40.3132228 C0.541342499,40.587356 -0.260938593,39.7202523 0.0803925516,38.8669243 L15.3520013,0.687902544 C15.8181291,-0.477416758 17.5602668,-0.0628445048 17.4515391,1.18752446 L15.4108373,24.6555944 L31.3110524,19.6867772 C32.188279,19.412644 32.9905601,20.2797477 32.649229,21.1330757 L17.3776202,59.3120975 C16.9114925,60.4774168 15.1693547,60.0628445 15.2780824,58.8124755 L17.3187842,35.3444056 L1.41856912,40.3132228 Z" id="activity"></path>
    </defs>
    <g id="Symbols" stroke="none" stroke-width="1" fill="none" fill-rule="evenodd">
        <g id="05_icons/interface/activity" transform="translate(-23.000000, -10.000000)">
            <g id="🎨Colour" transform="translate(23.000000, 10.000000)">
                <mask id="mask-2" fill="white">
                    <use xlink:href="#activity"></use>
                </mask>
                <use id="Mask" fill="#000000" fill-rule="nonzero" xlink:href="#activity"></use>
            </g>
        </g>
    </g>
</svg>