<?xml version="1.0" encoding="UTF-8"?>
<svg width="60px" height="60px" viewBox="0 0 60 60" version="1.1" xmlns="http://www.w3.org/2000/svg" xmlns:xlink="http://www.w3.org/1999/xlink">
    <!-- Generator: Sketch 49.3 (51167) - http://www.bohemiancoding.com/sketch -->
    <title>Mask</title>
    <desc>Created with Sketch.</desc>
    <defs>
        <path d="M1,0 L59,0 C59.5522847,-1.01453063e-16 60,0.44771525 60,1 L60,59 C60,59.5522847 59.5522847,60 59,60 L1,60 C0.44771525,60 6.76353751e-17,59.5522847 0,59 L0,1 C-6.76353751e-17,0.44771525 0.44771525,1.01453063e-16 1,0 Z M3,2 L57,2 C57.5522847,2 58,2.44771525 58,3 L58,57 C58,57.5522847 57.5522847,58 57,58 L3,58 C2.44771525,58 2,57.5522847 2,57 L2,3 C2,2.44771525 2.44771525,2 3,2 Z M16.7423417,28.9130435 C16.034133,28.9130435 15.4347826,29.4970209 15.4347826,30.2173913 C15.4347826,30.9166939 16.0201974,31.5217391 16.7423417,31.5217391 L28.4782609,31.5217391 L28.4782609,43.2576583 C28.4782609,43.965867 29.0622383,44.5652174 29.7826087,44.5652174 C30.4819113,44.5652174 31.0869565,43.9798026 31.0869565,43.2576583 L31.0869565,31.5217391 L42.8228757,31.5217391 C43.5310843,31.5217391 44.1304348,30.9377617 44.1304348,30.2173913 C44.1304348,29.5180887 43.54502,28.9130435 42.8228757,28.9130435 L31.0869565,28.9130435 L31.0869565,17.1771243 C31.0869565,16.4689157 30.5029791,15.8695652 29.7826087,15.8695652 C29.0833061,15.8695652 28.4782609,16.45498 28.4782609,17.1771243 L28.4782609,28.9130435 L16.7423417,28.9130435 Z" id="path-1"></path>
    </defs>
    <g id="Symbols" stroke="none" stroke-width="1" fill="none" fill-rule="evenodd">
        <g id="05_icons/interface/add-another" transform="translate(-10.000000, -10.000000)">
            <g id="🎨Colour" transform="translate(10.000000, 10.000000)">
                <g>
                    <mask id="mask-2" fill="white">
                        <use xlink:href="#path-1"></use>
                    </mask>
                    <g id="Mask"></g>
                </g>
            </g>
        </g>
    </g>
</svg>