<?xml version="1.0" encoding="UTF-8"?>
<svg width="60px" height="60px" viewBox="0 0 60 60" version="1.1" xmlns="http://www.w3.org/2000/svg" xmlns:xlink="http://www.w3.org/1999/xlink">
    <!-- Generator: Sketch 49.3 (51167) - http://www.bohemiancoding.com/sketch -->
    <title>Mask</title>
    <desc>Created with Sketch.</desc>
    <defs>
        <path d="M33,41 C33,42.6530008 31.6545,44 30,44 C28.3455,44 27,42.6530008 27,41 C27,39.3455014 28.3455,38 30,38 C31.6545,38 33,39.3455014 33,41 Z M31.50025,33.4986034 C31.50025,33.6665874 31.4612435,33.8195833 31.4057343,33.9650672 C31.3637273,34.0895606 31.3007168,34.1960467 31.2317053,34.30554 C31.176196,34.3925333 31.1356893,34.4900336 31.0651775,34.5635244 C30.9916653,34.6340199 30.8956493,34.6745154 30.810135,34.7285132 C30.6991165,34.7990087 30.5910985,34.8620042 30.4665778,34.9039972 C30.3210535,34.9610022 30.1665278,35 30,35 C29.831972,35 29.6789465,34.9610022 29.5334222,34.9039972 C29.3128855,34.8305065 29.1028505,34.7240084 28.9348225,34.5635244 C28.7742957,34.3940428 28.667778,34.1840538 28.5942657,33.9635696 C28.5372562,33.8180738 28.49975,33.6650898 28.49975,33.4986034 L28.49975,30.500315 C28.49975,29.6723759 29.171862,28.9989184 30,28.9989184 C33.3080513,28.9989184 35.9994999,26.3096169 35.9994999,22.9993582 C35.9994999,19.6920947 33.3080513,17.0012837 30,17.0012837 C26.6919487,17.0012837 24.0005001,19.6920947 24.0005001,22.9993582 C24.0005001,23.8272973 23.3283881,24.5007429 22.50025,24.5007429 C21.672112,24.5007429 21,23.8272973 21,22.9993582 C21,18.0377022 25.0371729,14 30,14 C34.9628271,14 39,18.0377022 39,22.9993582 C39,27.4495382 35.7474579,31.1287723 31.50025,31.8472181 L31.50025,33.4986034 Z M2.49999974,30.00063 C2.49999974,45.16594 14.8362507,57.502451 30.0000007,57.502451 C45.1637507,57.502451 57.5000007,45.16594 57.5000007,30.00063 C57.5000007,14.83781 45.1637507,2.50131 30.0000007,2.50131 C14.8362507,2.50131 2.49999974,14.83781 2.49999974,30.00063 Z M0,30.00063 C0,13.45903 13.4587507,0 30.0000007,0 C46.5412507,0 60.0000007,13.45903 60.0000007,30.00063 C60.0000007,46.54347 46.5412507,60.0012526 30.0000007,60.0012526 C13.4587507,60.0012526 0,46.54347 0,30.00063 Z" id="alert-help"></path>
    </defs>
    <g id="Symbols" stroke="none" stroke-width="1" fill="none" fill-rule="evenodd">
        <g id="05_icons/alerts/help" transform="translate(-10.000000, -10.000000)">
            <g id="🎨Colour" transform="translate(10.000000, 10.000000)">
                <mask id="mask-2" fill="white">
                    <use xlink:href="#alert-help"></use>
                </mask>
                <use id="Mask" fill="#000000" xlink:href="#alert-help"></use>
            </g>
        </g>
    </g>
</svg>