<?xml version="1.0" encoding="UTF-8"?>
<svg width="51px" height="60px" viewBox="0 0 51 60" version="1.1" xmlns="http://www.w3.org/2000/svg" xmlns:xlink="http://www.w3.org/1999/xlink">
    <!-- Generator: Sketch 49.3 (51167) - http://www.bohemiancoding.com/sketch -->
    <title>Mask</title>
    <desc>Created with Sketch.</desc>
    <defs>
        <path d="M50.6666667,45.3333333 C50.6666667,42.4666667 48.6666667,40.0666667 46,39.4666667 C46,39.4 46,39.4 46,39.3333333 L46,27.4666667 C46,22.3333333 44.0666667,17.4 40.5333333,13.6666667 C38.0666667,11 34.8666667,9.13333333 31.4,8.13333333 C31.6,7.53333333 31.6666667,6.93333333 31.6666667,6.33333333 C31.6666667,2.86666667 28.8,0 25.3333333,0 C21.8666667,0 19,2.86666667 19,6.33333333 C19,6.93333333 19.0666667,7.53333333 19.2666667,8.13333333 C15.8,9.13333333 12.6,11 10.1333333,13.6666667 C6.6,17.4 4.66666667,22.3333333 4.66666667,27.4666667 L4.66666667,39.3333333 C4.66666667,39.4 4.66666667,39.4666667 4.66666667,39.4666667 C2,40.0666667 0,42.4666667 0,45.3333333 C0,48.6666667 2.66666667,51.3333333 6,51.3333333 L17.3333333,51.3333333 C17.3333333,51.5333333 17.3333333,51.8 17.3333333,52 C17.3333333,56.4 20.9333333,60 25.3333333,60 C29.7333333,60 33.3333333,56.4 33.3333333,52 C33.3333333,51.8 33.3333333,51.5333333 33.3333333,51.3333333 L44.6666667,51.3333333 C48,51.3333333 50.6666667,48.6666667 50.6666667,45.3333333 Z M25.3333333,2.66666667 C27.3333333,2.66666667 29,4.33333333 29,6.33333333 C29,6.73333333 28.9333333,7.13333333 28.8,7.53333333 C28.2,7.46666667 27.6,7.4 26.9333333,7.33333333 C26.8666667,7.33333333 26.7333333,7.33333333 26.6666667,7.33333333 L25.8666667,7.33333333 L24.7333333,7.33333333 L24,7.33333333 C23.9333333,7.33333333 23.8,7.33333333 23.7333333,7.33333333 C23.1333333,7.33333333 22.4666667,7.4 21.8666667,7.53333333 C21.7333333,7.13333333 21.6666667,6.73333333 21.6666667,6.33333333 C21.6666667,4.33333333 23.3333333,2.66666667 25.3333333,2.66666667 Z M7.33333333,27.4666667 C7.33333333,23 9,18.7333333 12.0666667,15.5333333 C15.3333333,12 20,10 24.8,10 L25.9333333,10 C30.7333333,10 35.3333333,12 38.6666667,15.4666667 C41.7333333,18.7333333 43.4,22.9333333 43.4,27.4 L43.4,39.3333333 L7.33333333,39.3333333 L7.33333333,27.4666667 Z M25.3333333,57.3333333 C22.4,57.3333333 20,54.9333333 20,52 C20,51.8 20,51.5333333 20.0666667,51.3333333 L30.6,51.3333333 C30.6,51.5333333 30.6666667,51.8 30.6666667,52 C30.6666667,54.9333333 28.2666667,57.3333333 25.3333333,57.3333333 Z M6,48.6666667 C4.13333333,48.6666667 2.66666667,47.2 2.66666667,45.3333333 C2.66666667,43.4666667 4.13333333,42 6,42 L44.6666667,42 C46.5333333,42 48,43.4666667 48,45.3333333 C48,47.2 46.5333333,48.6666667 44.6666667,48.6666667 L6,48.6666667 Z" id="path-1"></path>
    </defs>
    <g id="Symbols" stroke="none" stroke-width="1" fill="none" fill-rule="evenodd">
        <g id="05_icons/alerts/notification" transform="translate(-15.000000, -10.000000)">
            <g id="🎨Colour" transform="translate(15.000000, 10.000000)">
                <mask id="mask-2" fill="white">
                    <use xlink:href="#path-1"></use>
                </mask>
                <use id="Mask" fill="#000000" fill-rule="nonzero" xlink:href="#path-1"></use>
            </g>
        </g>
    </g>
</svg>