<?xml version="1.0" encoding="UTF-8"?>
<svg width="71px" height="75px" viewBox="0 0 71 75" version="1.1" xmlns="http://www.w3.org/2000/svg" xmlns:xlink="http://www.w3.org/1999/xlink">
    <!-- Generator: Sketch 49.3 (51167) - http://www.bohemiancoding.com/sketch -->
    <title>Mask</title>
    <desc>Created with Sketch.</desc>
    <defs>
        <path d="M5.96173228,16.7492913 L39.8141732,36.3294488 L48.1888189,31.4933858 L14.4543307,11.9132283 L5.96173228,16.7492913 Z M10.6798425,16.7492913 L13.2748031,15.2159055 L13.2748031,18.1647244 L10.6798425,16.7492913 Z M15.6338583,19.5801575 L15.6338583,15.2159055 L43.7066142,31.4933858 L39.932126,33.6165354 L15.6338583,19.5801575 Z M0.535905512,17.9288189 L0.535905512,18.4006299 L0.417952756,48.1247244 L0.3,48.0067717 L0.417952756,50.1299213 L0.417952756,50.8376378 L0.771811024,51.6633071 L1.24362205,52.1351181 L40.2859843,74.6640945 L40.403937,74.6640945 C40.7577953,74.9 41.1116535,74.9 41.4655118,74.9 C41.9373228,74.9 42.4091339,74.7820472 42.8809449,74.5461417 L68.2407874,59.92 C68.9485039,59.5661417 69.5382677,58.8584252 70.0100787,58.1507087 C70.4818898,57.3250394 70.7177953,56.4993701 70.7177953,55.7916535 L70.7177953,24.8880315 C70.7177953,23.9444094 70.363937,23.1187402 69.5382677,22.6469291 L30.6138583,0.235905512 L29.6702362,0 L28.8445669,0.117952756 L2.77700787,15.0979528 L1.83338583,15.8056693 L1.71543307,15.923622 L0.535905512,17.9288189 Z M29.5522835,2.35905512 L65.999685,23.3546457 L41.4655118,37.5089764 L41.3475591,37.5089764 C41.2296063,37.6269291 41.1116535,37.6269291 40.875748,37.8628346 C40.7577953,37.9807874 40.5218898,38.0987402 40.403937,38.3346457 L3.95653543,17.2211024 L27.5470866,3.53858268 L29.5522835,2.35905512 Z M41.5834646,72.0691339 L41.5834646,41.6373228 C41.5834646,41.5193701 41.5834646,41.2834646 41.5834646,41.2834646 L42.0552756,40.2218898 L42.2911811,39.8680315 L66.3535433,25.8316535 L68.2407874,24.7700787 L68.3587402,24.7700787 C68.3587402,24.7700787 68.3587402,24.8880315 68.3587402,24.8880315 L68.3587402,55.6737008 C68.3587402,56.0275591 68.2407874,56.4993701 68.0048819,56.9711811 C67.7689764,57.4429921 67.4151181,57.7968504 67.0612598,57.9148031 L41.5834646,72.5409449 L41.5834646,72.0691339 Z M2.77700787,49.4222047 L2.77700787,19.344252 L2.77700787,19.1083465 L39.460315,40.2218898 C39.3423622,40.4577953 39.3423622,40.6937008 39.3423622,40.9296063 C39.3423622,41.1655118 39.3423622,41.4014173 39.3423622,41.5193701 L39.3423622,70.2998425 L2.77700787,49.4222047 Z M67.7689764,33.7344882 L62.3431496,30.6677165 L46.3015748,39.9859843 L46.3015748,46.7092913 L51.7274016,49.776063 L67.7689764,40.4577953 L67.7689764,33.7344882 Z M62.3431496,33.3806299 L64.2303937,34.4422047 L51.6094488,41.7552756 L49.7222047,40.6937008 L62.3431496,33.3806299 Z M52.9069291,46.3554331 L52.9069291,43.6425197 L65.527874,36.3294488 L65.527874,39.0423622 L52.9069291,46.3554331 Z M48.6606299,45.2938583 L48.6606299,42.5809449 L50.547874,43.6425197 L50.547874,46.3554331 L48.6606299,45.2938583 Z M55.5018898,27.3650394 L63.8765354,22.5289764 L30.8497638,3.42062992 L30.0240945,2.9488189 L21.5314961,7.78488189 L55.5018898,27.3650394 Z M55.5018898,24.652126 L31.0856693,10.615748 L31.0856693,6.25149606 L59.1584252,22.5289764 L55.5018898,24.652126 Z M26.2496063,7.78488189 L28.8445669,6.25149606 L28.8445669,9.20031496 L26.2496063,7.78488189 Z" id="path-1"></path>
    </defs>
    <g id="Symbols" stroke="none" stroke-width="1" fill="none" fill-rule="evenodd">
        <g id="05_icons/isometric/toast" transform="translate(-5.000000, -2.000000)">
            <g id="🎨Icon-Colour" transform="translate(5.000000, 2.000000)">
                <mask id="mask-2" fill="white">
                    <use xlink:href="#path-1"></use>
                </mask>
                <use id="Mask" fill="#000000" xlink:href="#path-1"></use>
            </g>
        </g>
    </g>
</svg>