<?xml version="1.0" encoding="UTF-8"?>
<svg width="72px" height="74px" viewBox="0 0 72 74" version="1.1" xmlns="http://www.w3.org/2000/svg" xmlns:xlink="http://www.w3.org/1999/xlink">
    <!-- Generator: Sketch 51.2 (57519) - http://www.bohemiancoding.com/sketch -->
    <title>oven</title>
    <desc>Created with Sketch.</desc>
    <defs>
        <path d="M70.7833333,18.5541667 L33.0666667,0.304166667 L1.28125,15.5125 L1.28125,28.2875 L0.36875,28.8958333 C0.520833333,29.0479167 0.825,29.2 1.12916667,29.3520833 C0.977083333,29.2 0.672916667,29.0479167 0.520833333,28.8958333 C0.520833333,28.8958333 0.36875,28.8958333 0.36875,28.8958333 C0.36875,28.8958333 0.36875,28.8958333 0.36875,29.0479167 L0.36875,30.2645833 C0.36875,30.2645833 0.36875,30.4166667 0.36875,30.4166667 C0.36875,30.4166667 0.520833333,30.56875 0.520833333,30.56875 C0.672916667,30.7208333 0.977083333,30.7208333 1.28125,30.8729167 L1.28125,54.75 L38.2375,73.1520833 L39.15,73.6083333 L71.2395833,57.4875 L70.7833333,18.5541667 Z M3.25833333,30.2645833 C3.71458333,30.4166667 4.17083333,30.7208333 4.62708333,30.8729167 C4.17083333,30.7208333 3.71458333,30.56875 3.25833333,30.2645833 Z M6.45208333,26.00625 C5.3875,25.3979167 4.62708333,24.18125 4.62708333,23.1166667 C4.62708333,22.35625 4.93125,21.7479167 5.53958333,21.44375 C5.99583333,21.1395833 6.75625,21.1395833 7.51666667,21.44375 C8.58125,22.0520833 9.34166667,23.26875 9.34166667,24.3333333 C9.34166667,25.09375 9.0375,25.7020833 8.42916667,26.00625 C8.27708333,26.1583333 7.82083333,26.3104167 7.51666667,26.3104167 C7.2125,26.3104167 6.75625,26.1583333 6.45208333,26.00625 Z M16.4895833,31.025 C15.5770833,30.56875 14.8166667,29.5041667 14.6645833,28.4395833 C14.6645833,28.2875 14.6645833,28.2875 14.6645833,28.1354167 C14.6645833,27.375 14.96875,26.7666667 15.5770833,26.4625 C16.0333333,26.1583333 16.79375,26.1583333 17.5541667,26.4625 C18.61875,27.0708333 19.3791667,28.2875 19.3791667,29.3520833 C19.3791667,30.1125 19.075,30.7208333 18.4666667,31.025 C18.3145833,31.1770833 17.8583333,31.3291667 17.5541667,31.3291667 C17.25,31.3291667 16.79375,31.1770833 16.4895833,31.025 Z M33.675,39.5416667 C32.7625,39.0854167 32.0020833,38.0208333 31.85,36.95625 C31.6979167,36.95625 31.6979167,36.8041667 31.85,36.6520833 C31.85,35.8916667 32.1541667,35.2833333 32.7625,34.9791667 C33.21875,34.675 33.9791667,34.675 34.7395833,34.9791667 C35.8041667,35.5875 36.5645833,36.8041667 36.5645833,37.86875 C36.5645833,38.6291667 36.2604167,39.2375 35.6520833,39.5416667 C35.3479167,39.69375 35.04375,39.8458333 34.7395833,39.8458333 C34.4354167,39.8458333 33.9791667,39.69375 33.675,39.5416667 Z M22.5729167,34.0666667 C21.5083333,33.4583333 20.7479167,32.2416667 20.7479167,31.1770833 C20.7479167,30.4166667 21.0520833,29.8083333 21.6604167,29.5041667 C22.1166667,29.2 22.8770833,29.2 23.6375,29.5041667 C24.7020833,30.1125 25.4625,31.3291667 25.4625,32.39375 C25.4625,33.1541667 25.1583333,33.7625 24.55,34.0666667 C24.2458333,34.21875 23.9416667,34.3708333 23.6375,34.3708333 C23.3333333,34.3708333 22.8770833,34.21875 22.5729167,34.0666667 Z M37.9333333,70.5666667 L3.25833333,53.2291667 L3.25833333,31.9375 C3.86666667,32.2416667 4.475,32.5458333 5.08333333,32.85 L5.08333333,52.0125 L35.5,67.2208333 L35.5,47.90625 L37.9333333,46.3854167 C37.9333333,49.4270833 37.9333333,70.5666667 37.9333333,70.5666667 Z M7.36458333,50.4916667 L7.36458333,34.0666667 C15.425,38.1729167 27.8958333,44.25625 33.21875,46.99375 L33.21875,63.41875 L7.36458333,50.4916667 Z M37.9333333,44.7125 L33.9791667,42.5833333 L32.4583333,43.4958333 L7.2125,31.025 L7.36458333,30.8729167 L7.36458333,29.65625 L5.84375,30.56875 L7.36458333,29.65625 L3.5625,27.6791667 L37.9333333,44.7125 C37.9333333,44.5604167 37.9333333,44.7125 37.9333333,44.7125 Z M37.9333333,42.1270833 L3.25833333,24.7895833 L3.25833333,18.8583333 L37.9333333,36.1958333 L37.9333333,42.1270833 Z M38.9979167,34.21875 L4.01875,16.7291667 L33.21875,2.88958333 L39.3020833,5.77916667 L40.3666667,6.3875 L68.0458333,19.7708333 L38.9979167,34.21875 Z M68.9583333,56.11875 L40.2145833,70.5666667 L40.2145833,36.3479167 L68.9583333,21.9 L68.9583333,56.11875 Z" id="path-1"></path>
    </defs>
    <g id="Symbols" stroke="none" stroke-width="1" fill="none" fill-rule="evenodd">
        <g id="Isometric/oven" transform="translate(-5.000000, -3.000000)">
            <g id="🎨Icon-Colour" transform="translate(5.000000, 3.000000)">
                <mask id="mask-2" fill="white">
                    <use xlink:href="#path-1"></use>
                </mask>
                <use id="oven" fill="#231F20" xlink:href="#path-1"></use>
            </g>
        </g>
    </g>
</svg>