<?xml version="1.0" encoding="UTF-8"?>
<svg width="61px" height="70px" viewBox="0 0 61 70" version="1.1" xmlns="http://www.w3.org/2000/svg" xmlns:xlink="http://www.w3.org/1999/xlink">
    <!-- Generator: Sketch 51.2 (57519) - http://www.bohemiancoding.com/sketch -->
    <title>Mask</title>
    <desc>Created with Sketch.</desc>
    <defs>
        <path d="M42.9195248,60.2756834 C44.4093093,60.2756834 46.0028837,59.7926611 47.6555385,58.8385923 C53.3017098,55.5779922 57.8956111,47.6204993 57.8956111,41.1000975 C57.8956111,36.4279546 55.5044511,33.4092648 51.8031431,33.4092648 C50.3125603,33.4092648 48.7189859,33.8930855 47.0671295,34.8471543 C41.4201597,38.1077544 36.8262584,46.0652473 36.8262584,52.5848507 C36.8262584,57.2569936 39.2182168,60.2756834 42.9195248,60.2756834 Z M55.7359825,37.7915944 C56.1136181,38.716123 56.3092222,39.8346589 56.3092222,41.1008959 C56.3092222,47.1159206 52.0714001,54.4570611 46.8627432,57.4637751 C44.572978,58.7858989 42.3822124,59.0525592 40.8485168,58.1599659 C42.4101558,58.4146504 44.1985359,57.9795311 46.0715447,56.8993176 C51.5005556,53.7640638 55.9172156,46.1131504 55.9172156,39.8442395 C55.9172156,39.1161134 55.8565385,38.4310999 55.7359825,37.7915944 Z M45.1398306,55.9420553 C43.1167256,57.110091 41.2381282,57.5164684 39.5942556,57.0126882 C38.8222183,55.9420553 38.4142441,54.4123516 38.4142441,52.5840523 C38.4142441,46.5690276 42.6520662,39.2286855 47.8607231,36.2219715 C50.2854152,34.8208077 52.5863578,34.6020505 54.1631661,35.7134009 C54.576729,36.7105825 54.786704,37.8937875 54.786704,39.2326774 C54.7859056,45.3754436 50.4586645,52.8714706 45.1398306,55.9420553 Z M56.2924561,31.3701922 L51.9300862,28.853686 C51.4797976,28.5942112 50.9887915,28.3874297 50.4706403,28.2397287 L51.8646187,14.5745889 C51.9508441,13.7314954 51.690571,13.0696351 51.1484683,12.757467 L29.3525862,0.171742269 C29.2464011,0.111065089 29.1290387,0.0663555869 28.9917167,0.0352186125 C28.9605797,0.0280331569 28.9294427,0.024839621 28.8975074,0.0216460852 L28.8408221,0.216451771 L28.8224593,0.0112670938 C28.7458144,-0.00150704957 28.6316455,-0.00310381748 28.6140811,0.0048800221 C28.5102911,0.00967032584 28.4017109,0.0288315408 28.256405,0.0607668992 C28.2172842,0.0679523548 28.1781634,0.0759361944 28.139841,0.0879119537 C27.9689868,0.141403679 27.8101084,0.210863083 27.6560203,0.300282087 L24.7554914,1.97529163 C24.3419285,2.21400843 23.9339543,2.58286182 23.5762783,3.0419326 C23.3455453,3.33733466 23.1435542,3.6590834 22.9750952,3.99839658 C22.8912648,4.16765398 22.8162168,4.34010491 22.7515476,4.51415262 C22.6174191,4.87502217 22.5327904,5.22870626 22.4984599,5.56243075 L21.8860994,11.5630846 C19.4374558,10.4645083 16.3477099,10.9163936 13.2523753,12.7047736 C6.35433792,16.6871128 0.743295465,26.4074375 0.743295465,34.374511 C0.743295465,37.5209422 1.60475176,40.051021 3.2350518,41.6980871 L3.2350518,42.9898723 C3.2350518,43.7459419 3.52167164,44.3287622 4.04301636,44.629753 L4.55078856,44.9227599 C2.03428232,46.4245201 0,49.9773287 0,52.8938253 C0,54.4498757 0.554876851,55.627492 1.56323579,56.2095139 L5.06893975,58.2374091 C6.06372616,58.8106488 7.38744676,58.7068589 8.72394151,57.9332249 C11.2508267,56.4753758 13.3114557,52.9361397 13.3529717,50.0044738 L22.0130425,55.0047525 L22.5272018,57.7727497 C20.8298375,59.6002506 19.7368498,62.1470954 19.7368498,64.2891595 C19.7368498,65.8444115 20.2917267,67.0228262 21.3000856,67.6056465 L24.8057896,69.6327434 C25.2281347,69.8762505 25.7071651,70 26.2309049,70 C26.9406683,70 27.6911492,69.7748557 28.4607913,69.3293575 C31.0100313,67.8619278 33.086628,64.2644096 33.0906199,61.310389 C33.0906199,59.7782902 32.5517107,58.6126496 31.5617146,58.0154584 L28.8168706,56.4274727 L30.7441695,55.3145255 C31.3661106,57.3535981 32.5117915,58.8992694 34.0670435,59.7974514 L38.4062603,62.3011835 L38.4294134,62.3155544 C39.4545384,62.9055601 40.6233725,63.2049541 41.9039804,63.2057525 C43.7107233,63.2057525 45.646006,62.6181419 47.6547401,61.4588884 C54.5527775,57.4757509 60.1646183,47.7554262 60.1646183,39.789151 C60.1662151,35.8020215 58.7898011,32.8120736 56.2924561,31.3701922 Z M47.7601267,33.4292244 C49.5548939,32.392922 51.2554517,31.8675854 52.8170907,31.8675854 C53.8525947,31.8675854 54.7883007,32.1047054 55.5986604,32.5725584 C57.6489105,33.7549651 58.7786238,36.3177776 58.7786238,39.7899494 C58.7786238,47.3139198 53.4773543,56.4953354 46.9617428,60.2573206 C45.1669757,61.2936229 43.4656194,61.8189596 41.9055772,61.8189596 C40.8708716,61.8189596 39.9351656,61.5818395 39.1248059,61.1131882 C37.0737575,59.9307815 35.9448426,57.3671706 35.9448426,53.8957972 C35.9440442,46.3718268 41.2445153,37.1904112 47.7601267,33.4292244 Z M23.0748932,67.0284149 L21.9946797,66.4040787 C21.4334157,66.0807332 21.1252395,65.3294538 21.1252395,64.2899579 C21.1252395,61.7846291 22.8904665,58.7268185 25.0604741,57.4741541 C25.6097622,57.1563973 26.1414859,56.9887366 26.5981616,56.9887366 C26.8744024,56.9887366 27.1195063,57.0494138 27.3286829,57.1707682 L28.4096948,57.7959028 C28.1973246,57.8869186 27.9833577,57.9954988 27.7693908,58.1184499 C25.1147642,59.6513471 23.034974,63.2528572 23.034974,66.3178532 C23.034974,66.5613603 23.0485465,66.8000771 23.0748932,67.0284149 Z M23.7798662,56.0250872 L23.8836561,56.5847544 C23.7726807,56.6613992 23.6617054,56.7436328 23.55073,56.831455 L23.3551259,55.7807817 L23.7798662,56.0250872 Z M26.6021535,55.6035405 C26.5422747,55.6035405 26.4807991,55.6059356 26.4193236,55.6107259 C26.4193236,55.5987502 26.4193236,55.5875728 26.4193236,55.575597 L26.4193236,51.8806761 C26.4193236,51.0655261 27.0620226,49.9517804 27.7677941,49.5446046 L30.5238155,47.9534254 C30.3050583,49.1701625 30.1932845,50.3214322 30.1932845,51.3784926 C30.1932845,52.252723 30.2643407,53.1038003 30.4040579,53.9101681 L27.3151104,55.6929595 C27.0755952,55.6330807 26.8408703,55.6035405 26.6021535,55.6035405 Z M24.8225556,51.8806761 L24.8225556,55.0295024 L22.7858782,53.8470958 L22.7443622,53.8255394 L4.73601364,43.4273867 C4.69210252,43.4026368 4.62184473,43.2605245 4.62184473,42.9898723 L4.62184473,39.2949514 C4.62184473,38.4798013 5.26454382,37.3660557 5.97031524,36.9588799 L20.9951029,28.2844382 L35.4282881,36.6179699 C33.4091751,39.4562249 31.882665,42.6353898 31.005241,45.8321192 L26.9702085,48.1618036 C25.7662455,48.8555993 24.8225556,50.4890928 24.8225556,51.8806761 Z M20.3532022,27.0533301 L6.628982,34.9772909 C7.42097889,27.7630935 12.3869271,19.843923 18.3085409,16.4252429 C19.3943431,15.7977131 20.4745566,15.35461 21.5244315,15.107111 L20.3555974,26.5655175 C20.3396297,26.7259927 20.3388313,26.8832744 20.3532022,27.0533301 Z M21.6944873,13.445674 C20.3188717,13.6963665 18.9121192,14.2320822 17.5109553,15.0408451 C10.8388606,18.8938461 5.3300113,28.0824471 4.93481124,35.9976256 C3.94561352,36.7528968 3.23585018,38.1229237 3.23585018,39.2949514 L3.23585018,39.3652091 C2.51091755,38.0454805 2.1300884,36.3369388 2.1300884,34.374511 C2.1300884,26.8505406 7.43135788,17.6691251 13.9469694,13.9071399 C15.7409381,12.8708375 17.4422943,12.3462992 19.003135,12.3462992 C20.0186794,12.3462992 20.9384177,12.5738387 21.7383984,13.0241272 L21.6944873,13.445674 Z M46.3485839,14.2065339 C45.1206694,14.9154988 44.0404559,16.6280324 43.8887629,18.1074379 L42.7047595,29.7095536 L42.7039611,29.7095536 C40.5475261,30.9550325 38.4142441,32.8432106 36.5252677,35.1776853 L21.9324057,26.751541 C21.9332041,26.7419604 21.9340025,26.7331782 21.9348009,26.7235976 L24.0776634,5.7245027 C24.1638889,4.87661893 24.8656684,3.74530887 25.549085,3.35010881 L28.449614,1.67509926 C28.5326459,1.62639784 28.597315,1.60244632 28.634839,1.59126895 L48.4171967,13.0129498 L46.3485839,14.2065339 Z M43.3977568,30.9119198 C45.1917256,29.8756174 46.8930818,29.3502808 48.4539224,29.3502808 C49.488628,29.3502808 50.4251324,29.5874008 51.2362905,30.0560522 L51.7264983,30.3386801 C50.20398,30.525502 48.604817,31.0979433 46.9625412,32.0464234 C40.0070201,36.0622947 34.3480746,45.8640546 34.3480746,53.8957972 C34.3480746,55.7927575 34.6498638,57.4653719 35.247055,58.8769147 L34.7616375,58.5966819 C32.7105891,57.4134769 31.5816742,54.849866 31.5816742,51.3784926 C31.5808758,43.8545221 36.8813469,34.6731066 43.3977568,30.9119198 Z M50.4842128,14.4340733 L49.1014118,27.99702 C48.8770659,27.9770604 48.6662925,27.9674798 48.4619062,27.9674798 C47.1749113,27.9674798 45.808078,28.2700673 44.3933416,28.8680569 L45.4767486,18.2447599 C45.5693612,17.3433844 46.3174469,16.138623 47.0487666,15.7170763 L49.9484972,14.0157201 C50.029134,13.9686154 50.1488916,13.9582365 50.2502863,13.9582365 C50.3149554,13.9582365 50.3716407,13.9630268 50.4059712,13.9654219 L50.4490839,13.9686154 C50.4746322,14.0276959 50.5097611,14.1761953 50.4842128,14.4340733 Z M31.5609162,62.5446906 C31.5377631,61.6632747 31.215216,60.9894387 30.6292022,60.6517222 C30.3753161,60.5048196 30.0847043,60.4313683 29.7733346,60.4313683 C29.354183,60.4313683 28.8959106,60.5646984 28.435243,60.8297619 C26.8951604,61.7191616 25.690399,63.807734 25.690399,65.5849367 C25.690399,66.5166508 26.0249219,67.2224222 26.6316937,67.5737112 C26.8855798,67.7206138 27.1753932,67.7956619 27.4899564,67.7956619 L27.4915532,67.7956619 C27.8691888,67.7956619 28.2659856,67.6822914 28.6731615,67.4723164 C28.3809529,67.7206138 28.0807606,67.9473548 27.7677941,68.1277896 C26.8855798,68.6387554 26.0544621,68.7521259 25.5003836,68.4311755 C24.9391197,68.10783 24.6309435,67.3565507 24.6309435,66.3170548 C24.6309435,63.8117259 26.3961704,60.7539154 28.566178,59.501251 C29.1162646,59.1834941 29.6479883,59.0158335 30.1038655,59.0158335 C30.3801064,59.0158335 30.6252102,59.0773091 30.8335885,59.197865 L30.8335885,59.1986634 C31.3948524,59.5220089 31.7030286,60.2732882 31.7030286,61.3119858 C31.7046254,61.7111777 31.6455449,62.1263374 31.5609162,62.5446906 Z M28.3314531,66.5390055 C28.0272688,66.71465 27.7366571,66.8072626 27.4915532,66.8072626 C27.351836,66.8072626 27.2296833,66.776924 27.1266917,66.7178435 C26.8424671,66.5533765 26.6787983,66.1398136 26.6787983,65.5849367 C26.6787983,64.175789 27.709512,62.3906025 28.9294427,61.6864278 C29.233627,61.5107834 29.5234404,61.4181708 29.7693426,61.4181708 C29.9090598,61.4181708 30.0312126,61.4485094 30.1342041,61.5075898 C30.4184288,61.6720569 30.5820975,62.0848214 30.5820975,62.6396983 C30.5828959,64.048846 29.5521822,65.8348309 28.3314531,66.5390055 Z M8.53472451,47.2237024 L8.63931281,47.2843796 C8.61216775,47.3043392 8.58342593,47.3211053 8.55628088,47.3410649 L8.53472451,47.2237024 Z M9.44887414,52.142546 L8.80936859,48.7015112 C8.97463407,48.5554069 9.13910117,48.4085042 9.3115521,48.283158 L9.18460905,47.5981445 L9.35226968,47.694749 L9.50316425,52.1106107 L9.44887414,52.142546 Z M6.21142719,50.8068497 L6.52519209,52.4922382 C6.55872421,52.662294 6.66251413,52.8083982 6.81021516,52.8930269 L8.57224856,53.8989907 L8.62574028,53.9341196 C8.81974758,54.0227402 9.13191571,54.0019823 9.30915695,53.8255394 L10.6113212,53.0734617 C10.802135,52.9632847 10.9147071,52.7596968 10.9059249,52.5425364 L10.7678044,48.5122942 L11.8927274,49.1605819 C11.9422272,49.4176616 11.9669771,49.665959 11.9669771,49.9150548 C11.9669771,52.421182 10.2017502,55.4789926 8.03174262,56.731657 C7.14872996,57.2418244 6.31841064,57.3551949 5.76433218,57.0350429 C5.20306825,56.710899 4.89409366,55.9596197 4.89409366,54.9209222 C4.89409366,53.6283386 5.3699305,52.1513282 6.21142719,50.8068497 Z M3.33724494,55.6330807 L2.25703145,55.0087444 C1.69576753,54.6846005 1.38679293,53.9333212 1.38679293,52.8946237 C1.38679293,50.3892948 3.15201987,47.3314843 5.32282585,46.0788199 C5.325221,46.0772231 5.32761615,46.0756263 5.33080969,46.0740295 L5.80744491,48.6360437 C4.25618488,50.4611494 3.29572898,52.8610916 3.29572898,54.9217206 C3.29732575,55.1652277 3.31089827,55.4039445 3.33724494,55.6330807 Z" id="path-1"></path>
    </defs>
    <g id="Symbols" stroke="none" stroke-width="1" fill="none" fill-rule="evenodd">
        <g id="Isometric/disabled" transform="translate(-10.000000, -5.000000)">
            <g id="🎨Icon-Colour" transform="translate(10.000000, 5.000000)">
                <mask id="mask-2" fill="white">
                    <use xlink:href="#path-1"></use>
                </mask>
                <use id="Mask" fill="#000000" fill-rule="nonzero" xlink:href="#path-1"></use>
            </g>
        </g>
    </g>
</svg>