<?xml version="1.0" encoding="UTF-8"?>
<svg width="57px" height="73px" viewBox="0 0 57 73" version="1.1" xmlns="http://www.w3.org/2000/svg" xmlns:xlink="http://www.w3.org/1999/xlink">
    <!-- Generator: Sketch 49.3 (51167) - http://www.bohemiancoding.com/sketch -->
    <title>Mask</title>
    <desc>Created with Sketch.</desc>
    <defs>
        <path d="M54.6691192,2.50090613 C55.5062341,2.91946357 55.9247916,3.75657847 56.029431,5.01225082 L56.029431,33.1602392 C56.029431,34.3112722 55.6108735,35.4623052 54.9830373,36.6133382 C54.3552012,37.7643711 53.5180863,38.7061254 52.576332,39.2293222 L49.3325118,41.1128307 L49.3325118,47.6004712 C49.4371511,48.123668 49.4371511,48.8561435 49.4371511,49.4839797 C49.4371511,49.6932584 49.4371511,49.7978978 49.4371511,50.0071765 L49.4371511,50.5303733 L49.4371511,57.5412106 C49.4371511,57.6458499 49.4371511,57.7504893 49.4371511,57.959768 C49.4371511,58.1690468 49.4371511,58.2736861 49.4371511,58.3783255 L49.3325118,59.4247191 C48.809315,62.8778181 46.2979703,65.9123596 42.3216745,68.3190649 C37.9268213,70.9350489 32.067017,72.4 25.8932947,72.4 C19.7195723,72.4 13.859768,70.9350489 9.46491482,68.3190649 C5.3839797,65.9123596 2.97727437,62.8778181 2.45407756,59.4247191 L2.45407756,59.110801 C2.3494382,58.7968829 2.3494382,58.3783255 2.3494382,57.959768 C2.3494382,57.5412106 2.45407756,57.1226531 2.45407756,56.808735 L2.45407756,50.5303733 C2.45407756,50.1118159 2.45407756,49.6932584 2.45407756,49.3793403 C2.45407756,48.6468648 2.45407756,47.9143893 2.66335629,47.1819137 L2.66335629,31.7999275 C2.03552012,30.3349764 1.40768394,28.9746647 0.779847771,27.7189924 L0.570569047,27.3004349 L2.66335629,26.0447626 L2.66335629,14.7437115 C2.55871693,12.7555636 3.08191374,7.73287423 9.46491482,4.07049656 C18.5685393,-1.05683219 33.3226894,-1.05683219 42.3216745,4.07049656 C42.6355926,4.17513592 42.9495107,4.38441464 43.2634288,4.59369337 L49.5417905,0.931315694 L50.274266,0.72203697 L51.0067416,0.617397608 L51.7392171,0.826676332 L52.0531352,0.931315694 L54.6691192,2.50090613 Z M6.53501269,23.847336 L4.75614353,24.8937296 L4.75614353,21.8591881 C5.27934034,22.5916636 5.80253715,23.2194998 6.53501269,23.847336 Z M14.5922436,28.3468286 L14.5922436,43.205618 L8.83707865,31.4860094 L14.3829648,28.2421892 C14.4876042,28.3468286 14.4876042,28.3468286 14.5922436,28.3468286 Z M11.5577021,27.1957956 L7.58140631,29.4978615 C5.3839797,28.6607466 4.33758608,28.0329105 3.91902863,27.5097137 L8.10460312,25.1030083 C8.73243929,25.5215658 9.2556361,25.9401232 9.88347227,26.2540413 C10.4066691,26.5679594 10.9298659,26.8818775 11.5577021,27.1957956 Z M6.32573396,31.4860094 L14.2783255,47.4958318 C13.5458499,47.1819137 12.394817,46.5540776 10.8252265,45.0891265 L4.33758608,30.5442552 C4.96542225,30.9628126 5.69789779,31.3813701 6.32573396,31.4860094 Z M16.161834,49.7978978 L16.2664734,49.274701 C16.2664734,49.274701 16.161834,49.274701 16.161834,49.274701 L16.161834,28.765386 C24.8469011,31.1720913 35.3108373,30.1256977 42.1123958,26.149402 C44.3098224,24.8937296 45.9840522,23.4287785 47.1350852,21.7545487 L47.1350852,49.4839797 C47.1350852,49.7978978 47.1350852,50.1118159 47.1350852,50.425734 L47.1350852,50.6350127 C46.8211671,53.4602755 44.7283798,56.0762595 41.1706415,58.0644074 C32.7994926,62.8778181 19.0917361,62.8778181 10.7205872,58.0644074 C7.16284886,56.0762595 5.07006162,53.3556361 4.75614353,50.5303733 L4.75614353,50.3210946 L4.75614353,36.4040594 L5.07006162,37.136535 C6.53501269,40.3803552 8.10460312,43.7288148 9.46491482,46.5540776 L9.56955419,46.6587169 C11.243784,48.4375861 13.4412106,49.6932584 15.9525553,50.425734 L16.161834,49.7978978 C16.161834,49.7978978 16.161834,49.7978978 16.161834,49.7978978 Z M49.960348,30.9628126 L49.960348,31.5906488 L49.7510692,32.532403 L49.3325118,33.3695179 L49.3325118,13.9065966 C49.3325118,13.8019572 49.1232331,11.0813338 47.7629213,8.77926785 L49.960348,7.41895614 L49.960348,30.9628126 Z M40.8567235,5.64008699 C44.7283798,7.94215295 46.8211671,10.8720551 46.8211671,14.011236 C46.8211671,17.1504168 44.7283798,20.080319 40.8567235,22.3823849 C32.6948532,27.1957956 19.5102936,27.1957956 11.3484233,22.3823849 C7.47676694,20.080319 5.3839797,17.1504168 5.3839797,14.011236 C5.3839797,10.8720551 7.47676694,7.83751359 11.3484233,5.64008699 C15.4293585,3.23338166 20.7659659,2.08234868 26.1025734,2.08234868 C31.4391809,2.08234868 36.7757883,3.23338166 40.8567235,5.64008699 Z M4.75614353,59.9479159 C4.65150417,59.7386372 4.65150417,59.5293585 4.65150417,59.4247191 L4.54686481,59.2154404 C4.33758608,58.3783255 4.33758608,57.5412106 4.44222544,56.7040957 C5.69789779,58.3783255 7.37212758,59.8432765 9.56955419,61.0989489 C13.9644074,63.6102936 19.8242117,64.9706053 25.997934,64.9706053 C32.1716564,64.9706053 38.0314607,63.6102936 42.4263139,61.0989489 C44.6237405,59.8432765 46.2979703,58.3783255 47.5536426,56.7040957 C47.7629213,58.3783255 47.3443639,60.0525553 46.507249,61.6221457 C46.4026096,61.8314244 46.2979703,62.0407032 46.0886916,62.3546212 C45.0422979,63.9242117 43.4727075,65.2845234 41.4845596,66.5401957 C38.9732149,68.0051468 35.9386734,69.1561798 32.4855745,69.6793766 L32.2762958,69.6793766 C32.1716564,69.6793766 32.067017,69.6793766 31.9623777,69.6793766 L31.7530989,69.6793766 C29.8695904,69.9932947 27.9860819,70.097934 26.1025734,70.097934 C26.1025734,70.097934 26.1025734,70.097934 26.1025734,70.097934 C26.1025734,70.097934 26.1025734,70.097934 26.1025734,70.097934 C20.2427691,70.097934 14.8015223,68.7376223 10.7205872,66.330917 C7.47676694,64.5520478 5.48861906,62.3546212 4.75614353,59.9479159 Z M18.6731787,14.5344328 C18.9870968,15.476187 19.7195723,16.4179413 20.8706053,17.0457775 C22.3355564,17.8828924 24.1144255,18.3014498 26.1025734,18.3014498 C26.9396883,18.3014498 27.7768032,18.1968104 28.5092787,18.0921711 L29.1371149,17.8828924 C29.3463936,17.778253 29.6603117,17.778253 29.8695904,17.6736136 C29.9742298,17.6736136 30.0788692,17.5689743 30.2881479,17.5689743 C30.7067053,17.3596955 31.0206234,17.2550562 31.3345415,17.0457775 C31.7530989,16.8364987 31.8577383,16.7318594 32.067017,16.5225806 L32.2762958,16.3133019 C32.9041319,15.7901051 33.3226894,15.1622689 33.5319681,14.4297934 L33.6366075,14.4297934 L33.6366075,11.70917 C33.6366075,11.3952519 33.6366075,11.0813338 33.5319681,10.7674157 C33.3226894,9.61638275 32.4855745,8.46534976 31.1252628,7.73287423 C28.3,6.1632838 23.8005074,6.1632838 20.9752447,7.73287423 C19.7195723,8.46534976 18.8824574,9.51174339 18.6731787,10.558137 C18.5685393,10.9766945 18.5685393,11.2906125 18.5685393,11.6045306 L18.5685393,14.011236 L18.6731787,14.5344328 Z M31.2299021,11.0813338 C31.2299021,11.8138094 30.7067053,12.4416455 29.8695904,12.9648423 C27.7768032,14.1158753 24.4283436,14.1158753 22.3355564,12.9648423 C21.3938021,12.4416455 20.9752447,11.8138094 20.9752447,11.0813338 C20.9752447,10.3488583 21.4984415,9.72102211 22.3355564,9.1978253 C23.38195,8.56998913 24.7422617,8.25607104 26.1025734,8.25607104 C27.4628851,8.25607104 28.8231968,8.56998913 29.8695904,9.1978253 C30.8113447,9.72102211 31.2299021,10.3488583 31.2299021,11.0813338 Z" id="path-1"></path>
    </defs>
    <g id="Symbols" stroke="none" stroke-width="1" fill="none" fill-rule="evenodd">
        <g id="05_icons/isometric/kettle" transform="translate(-13.000000, -4.000000)">
            <g id="🎨Icon-Colour" transform="translate(13.000000, 4.000000)">
                <mask id="mask-2" fill="white">
                    <use xlink:href="#path-1"></use>
                </mask>
                <use id="Mask" fill="#000000" xlink:href="#path-1"></use>
            </g>
        </g>
    </g>
</svg>