<?xml version="1.0" encoding="UTF-8"?>
<svg width="60px" height="41px" viewBox="0 0 60 41" version="1.1" xmlns="http://www.w3.org/2000/svg" xmlns:xlink="http://www.w3.org/1999/xlink">
    <!-- Generator: Sketch 49.3 (51167) - http://www.bohemiancoding.com/sketch -->
    <title>Mask</title>
    <desc>Created with Sketch.</desc>
    <defs>
        <path d="M44.4,24 L42.8124,24 L38.3148,12.7536 C38.1312,12.2988 37.6908,12 37.2,12 L22.8,12 C22.3092,12 21.8688,12.2988 21.6852,12.7536 L17.1876,24 L15.6,24 C14.9376,24 14.4,24.5364 14.4,25.2 L14.4,34.8 C14.4,35.4636 14.9376,36 15.6,36 L16.8,36 L16.8,39.6 C16.8,40.2636 17.3376,40.8 18,40.8 C18.6624,40.8 19.2,40.2636 19.2,39.6 L19.2,36 L40.8,36 L40.8,39.6 C40.8,40.2636 41.3364,40.8 42,40.8 C42.6636,40.8 43.2,40.2636 43.2,39.6 L43.2,36 L44.4,36 C45.0636,36 45.6,35.4636 45.6,34.8 L45.6,25.2 C45.6,24.5364 45.0636,24 44.4,24 Z M23.6124,14.4 L36.3876,14.4 L40.2276,24 L19.7724,24 L23.6124,14.4 Z M43.2,33.6 L16.8,33.6 L16.8,26.4 L43.2,26.4 L43.2,33.6 Z M58.8,0 C59.4636,0 60,0.5376 60,1.2 C60,1.8624 59.4636,2.4 58.8,2.4 L55.2,2.4 L55.2,39.6 C55.2,40.2636 54.6636,40.8 54,40.8 C53.3364,40.8 52.8,40.2636 52.8,39.6 L52.8,2.4 L7.2,2.4 L7.2,39.6 C7.2,40.2636 6.6624,40.8 6,40.8 C5.3376,40.8 4.8,40.2636 4.8,39.6 L4.8,2.4 L1.2,2.4 C0.5376,2.4 0,1.8624 0,1.2 C0,0.5376 0.5376,0 1.2,0 L58.8,0 Z" id="path-1"></path>
    </defs>
    <g id="Symbols" stroke="none" stroke-width="1" fill="none" fill-rule="evenodd">
        <g id="05_icons/interface/car-park" transform="translate(-10.000000, -20.000000)">
            <g id="🎨Colour" transform="translate(10.000000, 20.000000)">
                <mask id="mask-2" fill="white">
                    <use xlink:href="#path-1"></use>
                </mask>
                <use id="Mask" fill="#000000" fill-rule="nonzero" xlink:href="#path-1"></use>
            </g>
        </g>
    </g>
</svg>