<?xml version="1.0" encoding="UTF-8"?>
<svg width="60px" height="48px" viewBox="0 0 60 48" version="1.1" xmlns="http://www.w3.org/2000/svg" xmlns:xlink="http://www.w3.org/1999/xlink">
    <!-- Generator: Sketch 49.3 (51167) - http://www.bohemiancoding.com/sketch -->
    <title>Mask</title>
    <desc>Created with Sketch.</desc>
    <defs>
        <path d="M30.5109313,44.9249973 C32.9229241,44.9249973 34.8856484,42.9686986 34.8856484,40.5682406 C34.8856484,38.1640389 32.9229241,36.2102336 30.5109313,36.2102336 C28.0989305,36.2102336 26.1362062,38.1640389 26.1362062,40.5682406 C26.1362062,42.9686986 28.0989305,44.9249973 30.5109313,44.9249973 M30.5109313,33.7199503 C34.3021044,33.7199503 37.3867452,36.7916386 37.3867452,40.5682406 C37.3867452,44.3423491 34.3021044,47.4152854 30.5109313,47.4152854 C26.7197502,47.4152854 23.6363644,44.3423491 23.6363644,40.5682406 C23.6363644,36.7916386 26.7197502,33.7199503 30.5109313,33.7199503 M30.5209711,22.5124044 C36.8308108,22.5124044 42.6474575,25.6527143 46.080976,30.9127558 C46.4574634,31.4891724 46.2930604,32.2602063 45.7145364,32.6357465 C45.5037069,32.7717426 45.2677778,32.8366229 45.0343586,32.8366229 C44.6252495,32.8366229 44.2249175,32.6369936 43.9852234,32.2701909 C41.0135233,27.7188051 35.9799631,25.0039427 30.5209711,25.0039427 C25.0619792,25.0039427 20.029666,27.7188051 17.057966,32.2701909 C16.6814786,32.8465997 15.9071849,33.0100396 15.328653,32.6357465 C14.7501289,32.2602063 14.5857339,31.4891724 14.9622134,30.9127558 C18.3957318,25.6527143 24.2123785,22.5124044 30.5209711,22.5124044 M30.5987723,11.3073527 C39.2528436,11.3073527 47.4965508,15.0165888 53.2165716,21.4806021 C53.6733701,21.9971268 53.6231707,22.7831416 53.104878,23.2385272 C52.5865932,23.6939207 51.7972318,23.6427663 51.3404334,23.1274887 C46.0947808,17.1987064 38.5350163,13.7976439 30.5987723,13.7976439 C22.6750781,13.7976439 15.1153135,17.2061969 9.85711116,23.1474501 C9.60988716,23.4269248 9.26603727,23.5679093 8.91842242,23.5679093 C8.624764,23.5679093 8.33110559,23.4668475 8.09266648,23.2572415 C7.57437693,22.8031029 7.52543413,22.0170882 7.98223576,21.5005714 C13.7135435,15.0215772 21.9572508,11.3073527 30.5987723,11.3073527 M59.63183,14.0272113 C59.388371,14.2680025 59.0696129,14.3890256 58.7508627,14.3890256 C58.4295946,14.3890256 58.1083265,14.2667554 57.8636125,14.020968 C50.4343663,6.58503644 40.5015134,2.48903627 29.8947498,2.48903627 C19.4159945,2.48903627 9.55593073,6.51516776 2.129189,13.8225936 C1.63850753,14.3066782 0.846640105,14.3004427 0.360977862,13.8126169 C-0.124684223,13.322289 -0.119664444,12.5337801 0.372272326,12.0521976 C8.26961136,4.27940151 18.7546415,0 29.8947498,0 C41.1716513,0 51.7332276,4.35675274 59.63685,12.265545 C60.1225052,12.7521237 60.1212581,13.5406247 59.63183,14.0272113" id="path-1"></path>
    </defs>
    <g id="Symbols" stroke="none" stroke-width="1" fill="none" fill-rule="evenodd">
        <g id="05_icons/network/wifi" transform="translate(-10.000000, -16.000000)">
            <g id="🎨Colour" transform="translate(10.000000, 16.000000)">
                <mask id="mask-2" fill="white">
                    <use xlink:href="#path-1"></use>
                </mask>
                <use id="Mask" fill="#000000" xlink:href="#path-1"></use>
            </g>
        </g>
    </g>
</svg>