<?xml version="1.0" encoding="UTF-8"?>
<svg width="60px" height="36px" viewBox="0 0 60 36" version="1.1" xmlns="http://www.w3.org/2000/svg" xmlns:xlink="http://www.w3.org/1999/xlink">
    <!-- Generator: Sketch 49.3 (51167) - http://www.bohemiancoding.com/sketch -->
    <title>Mask</title>
    <desc>Created with Sketch.</desc>
    <defs>
        <path d="M58.8,14.4 L51.6,14.4 C50.9364,14.4 50.4,14.9376 50.4,15.6 L50.4,19.2 L9.6,19.2 L9.6,1.2 C9.6,0.5376 9.0624,0 8.4,0 L1.2,0 C0.5376,0 0,0.5376 0,1.2 L0,34.8 C0,35.4636 0.5376,36 1.2,36 L8.4,36 C9.0624,36 9.6,35.4636 9.6,34.8 L9.6,31.2 L50.4,31.2 L50.4,34.8 C50.4,35.4636 50.9364,36 51.6,36 L58.8,36 C59.4636,36 60,35.4636 60,34.8 L60,15.6 C60,14.9376 59.4636,14.4 58.8,14.4 Z M7.2,33.6 L2.4,33.6 L2.4,2.4 L7.2,2.4 L7.2,33.6 Z M9.6,28.8 L9.6,21.6 L50.4,21.6 L50.4,28.8 L9.6,28.8 Z M57.6,33.6 L52.8,33.6 L52.8,16.8 L57.6,16.8 L57.6,33.6 Z M17.1516,14.0484 L14.7516,11.6484 C14.2824,11.1792 14.2824,10.4208 14.7516,9.9516 C15.2208,9.4824 15.9792,9.4824 16.4484,9.9516 L18.8484,12.3516 C19.3176,12.8208 19.3176,13.5792 18.8484,14.0484 C18.6144,14.2824 18.3072,14.4 18,14.4 C17.6928,14.4 17.3856,14.2824 17.1516,14.0484 Z M25.2,14.4 C24.5376,14.4 24,13.8624 24,13.2 C24,12.5376 24.5376,12 25.2,12 L44.4,12 C45.0636,12 45.6,12.5376 45.6,13.2 C45.6,13.8624 45.0636,14.4 44.4,14.4 L25.2,14.4 Z" id="path-1"></path>
    </defs>
    <g id="Symbols" stroke="none" stroke-width="1" fill="none" fill-rule="evenodd">
        <g id="05_icons/property/beds" transform="translate(-10.000000, -22.000000)">
            <g id="🎨Colour" transform="translate(10.000000, 22.000000)">
                <mask id="mask-2" fill="white">
                    <use xlink:href="#path-1"></use>
                </mask>
                <use id="Mask" fill="#000000" fill-rule="nonzero" xlink:href="#path-1"></use>
            </g>
        </g>
    </g>
</svg>