<?xml version="1.0" encoding="UTF-8"?>
<svg width="73px" height="43px" viewBox="0 0 73 43" version="1.1" xmlns="http://www.w3.org/2000/svg" xmlns:xlink="http://www.w3.org/1999/xlink">
    <!-- Generator: Sketch 51.2 (57519) - http://www.bohemiancoding.com/sketch -->
    <title>Mask</title>
    <desc>Created with Sketch.</desc>
    <defs>
        <path d="M36.5,0.845964593 L32.0092591,3.42815949 C31.7218456,2.78242217 31.4065206,2.17063133 31.0051979,1.64936441 C31.0059523,1.65011877 31.0067066,1.65162751 31.007461,1.65238187 C30.3549344,0.805228828 29.484396,0.188157422 28.1702904,0.0063552103 C28.1288002,-0.00118844992 28.0360132,0.00182901417 28.0360132,0.00182901417 C26.2760773,-0.0509766074 25.4243981,1.04964342 25.0819159,2.00617954 C24.7039785,2.98308354 24.6202439,4.09803652 24.6149633,4.98667969 C23.9631911,4.1515965 23.0964245,3.54282312 21.7951431,3.36403838 C21.7589336,3.35649472 21.6593572,3.35800345 21.6593572,3.35800345 C19.9047019,3.30670656 19.0477421,4.40430912 18.7045055,5.36235397 C18.316007,6.37094134 18.2435879,7.53040192 18.2435879,8.42885185 C18.2435879,9.25488265 18.3107265,9.8598842 18.316007,9.87572588 C18.3627777,10.2898728 18.8508525,10.6112328 19.4015397,10.5991629 C19.4754676,10.5968998 19.5388343,10.5742688 19.6067273,10.5606902 L0,21.8331817 L36.5,42.8211532 L73,21.8331817 L36.5,0.845964593 Z M31.7965278,10.3117494 C31.9232613,10.9778546 32.0507492,11.6673452 32.1782371,12.3598532 L27.6354449,14.8273845 C27.5064483,14.1303503 27.375943,13.4416141 27.2484551,12.7830525 L31.7769143,10.3230649 L31.7965278,10.3117494 Z M32.5335435,14.1733491 C32.6791361,14.9805208 32.8073783,15.6813268 32.9114808,16.223716 L28.3686886,18.6912472 C28.2593056,18.1043505 28.1333264,17.4073163 27.9960318,16.6393716 L32.5335435,14.1733491 Z M26.9912163,2.49727182 C27.3344528,1.68331088 27.6920223,1.46379037 28.0352589,1.49773684 L28.0352589,1.48566698 C28.6440322,1.50829796 29.6827943,2.61721601 30.3790741,4.36583645 L26.6653302,6.50144666 C26.6645758,6.48786808 26.6721195,6.47579822 26.6706107,6.46221963 C26.6706107,6.45769343 26.6034722,5.9122868 26.6034722,5.15264022 C26.6027178,4.32434632 26.6902242,3.25993587 26.9912163,2.49727182 Z M28.5059833,7.93097028 L31.0323551,6.57311144 C31.1817195,7.22337495 31.3446626,8.00565251 31.514395,8.86261231 L26.9595329,11.3369329 C26.7905549,10.5116564 26.6306293,9.7821845 26.4850367,9.18774407 L26.4541077,9.04667762 L28.5059833,7.93097028 Z M20.2260618,8.50881465 C20.2260618,7.68127512 20.3196032,6.61912776 20.6213496,5.85420062 C20.9577968,5.04023968 21.3168751,4.82071917 21.6593572,4.85617437 L21.6593572,4.84184141 C22.2967965,4.86371803 23.4049602,6.08579099 24.0974682,7.97774097 L20.1619407,10.240839 C20.2569908,10.117123 20.3188488,9.9775653 20.2992353,9.8199028 L20.2992353,9.81688533 C20.2984809,9.81613097 20.2260618,9.27072433 20.2260618,8.50881465 Z M4.77815439,21.8331817 L24.7613103,10.3426785 C24.9129379,11.0140642 25.069846,11.7729564 25.2267542,12.5688126 L6.9469567,23.0801487 L4.77815439,21.8331817 Z M36.5,40.0737521 L9.33603389,24.4538493 L25.6989873,15.0453962 C26.1357652,17.4080706 26.5242637,19.640994 26.7294513,20.4987082 C26.8124315,20.8615583 27.2371396,21.1316213 27.7101271,21.1504805 C27.7674589,21.1534979 27.8240364,21.1504805 27.8874031,21.1459543 C28.346812,21.1044641 28.6757156,20.8223312 28.7028728,20.4873927 C28.7028728,20.4843753 28.7036272,20.4821122 28.7043815,20.4790947 C28.7081534,20.4232716 28.7058903,20.3666942 28.6915573,20.308608 C28.6794874,20.2603285 28.6666632,20.201488 28.6530846,20.1388756 L33.3806965,17.5702593 C33.3806965,17.5702593 33.3912576,17.5687506 33.4070993,17.5649788 C33.5881472,17.6969928 33.8257725,17.7829905 34.0815025,17.794306 C34.1441149,17.7958148 34.2006924,17.7958148 34.2580242,17.7897798 C34.7076263,17.7482897 35.030495,17.4767179 35.0734939,17.1515862 C35.0757569,17.1387619 35.0795288,17.1266921 35.0802831,17.1138679 C35.0833006,17.0603079 35.0802831,17.0059935 35.0682133,16.9509248 C34.8328511,15.9883538 34.3493025,13.1421308 33.8265268,10.3728531 L36.5015087,8.83470077 L63.6662292,24.4546036 L36.5,40.0737521 Z M36.5,6.08729972 L33.338452,7.90532183 C33.1657022,7.07476484 32.9959698,6.31738135 32.8352899,5.70106431 L36.5,3.59412001 L68.2226,21.8339361 L66.0537977,23.0809031 L36.5,6.08729972 Z M35.4951845,20.6805104 C35.7463883,20.7446315 35.8980159,21.001116 35.8323861,21.2530742 C35.3669422,23.0756225 34.4707554,24.3263614 33.1709827,24.9720987 C33.03746,25.0384829 32.9001653,25.0980779 32.7636251,25.1486204 C31.3786091,25.6691329 29.9845407,25.4020874 29.2595949,25.1901105 C28.7104165,26.5185491 27.88514,27.4426474 26.8026248,27.940529 C26.7045572,27.9842823 26.6095071,28.025018 26.5137026,28.0604732 C25.9366126,28.2777306 25.3557507,28.3554303 24.8201509,28.3554303 C23.5015191,28.3554303 22.4552134,27.8839516 22.3948641,27.8552857 C22.1587475,27.7474113 22.0561538,27.4690503 22.1632737,27.2329337 L22.3503565,26.8233129 C22.4559678,26.5894595 22.7275395,26.4838482 22.9674279,26.5879507 C23.0383383,26.6196341 24.737925,27.346843 26.2277979,26.6739485 C27.1571768,26.2454686 27.8338431,25.3175984 28.2366746,23.9159863 C28.2713754,23.7967965 28.3513382,23.6957114 28.4607213,23.6353621 C28.5708587,23.5742585 28.699101,23.5614343 28.8190452,23.5946264 L29.2113155,23.7077813 C29.2445076,23.7145706 29.276191,23.7243773 29.3086287,23.7372015 C29.3206986,23.7424821 31.09195,24.4530949 32.5569288,23.7243773 C33.4757466,23.2672315 34.1260101,22.3197478 34.4865971,20.9075746 C34.5175261,20.7876304 34.5952258,20.6835279 34.7023458,20.6194068 C34.8094657,20.5552857 34.9369536,20.5364265 35.0584065,20.5688643 L35.4951845,20.6805104 Z M39.7777204,28.2317143 C39.5416038,28.12384 39.43901,27.8454789 39.5453756,27.6101167 L39.7324584,27.200496 C39.8380696,26.9666425 40.1096414,26.8610312 40.3495298,26.9651338 C40.4204402,26.9968171 42.1200269,27.724026 43.6098998,27.0511315 C44.5392787,26.6226516 45.215945,25.6947814 45.6187765,24.2931693 C45.6534773,24.1739795 45.7334401,24.0728944 45.8428232,24.0125451 C45.9529606,23.9514415 46.0812029,23.9386173 46.201147,23.9718094 L46.5934174,24.0849643 C46.6266095,24.0917536 46.6582929,24.1015603 46.6907306,24.1143846 C46.7028005,24.1196651 48.4740519,24.8302779 49.9390307,24.1015603 C50.8578485,23.6444145 51.508112,22.6969308 51.868699,21.2847576 C51.899628,21.1648134 51.9773277,21.0607109 52.0844477,20.9965898 C52.1915676,20.9324687 52.3190555,20.9136095 52.4405084,20.9460473 L52.8772863,21.0576934 C53.1284902,21.1218145 53.2801178,21.378299 53.2159967,21.6295029 C52.7505529,23.4520512 51.854366,24.7027901 50.5545934,25.3485274 C50.4210706,25.4149116 50.283776,25.4745065 50.1472357,25.525049 C48.7614653,26.0455616 47.3673969,25.778516 46.6424512,25.5665392 C46.0932727,26.8949777 45.2679963,27.8190761 44.185481,28.3169577 C44.0874135,28.3607109 43.9923633,28.4014467 43.8965589,28.4369019 C43.3194688,28.6541593 42.738607,28.731859 42.2030071,28.731859 C40.8843753,28.731859 39.8380696,28.2603802 39.7777204,28.2317143 Z" id="path-1"></path>
    </defs>
    <g id="Symbols" stroke="none" stroke-width="1" fill="none" fill-rule="evenodd">
      <mask id="mask-2" fill="white">
        <use xlink:href="#path-1"></use>
      </mask>
      <use id="Mask" fill="#000000" fill-rule="nonzero" xlink:href="#path-1"></use>
    </g>
</svg>