<?xml version="1.0" encoding="UTF-8"?>
<svg width="59px" height="78px" viewBox="0 0 59 78" version="1.1" xmlns="http://www.w3.org/2000/svg" xmlns:xlink="http://www.w3.org/1999/xlink">
    <!-- Generator: Sketch 49.3 (51167) - http://www.bohemiancoding.com/sketch -->
    <title>Mask</title>
    <desc>Created with Sketch.</desc>
    <defs>
        <path d="M24.0445205,0 L0.202054795,11.5480519 L0,11.5480519 L0,11.7506494 L0,11.9532468 L0,60.374026 L34.5513699,77.7974026 L34.9554795,78 L34.9554795,77.7974026 L58.7979452,66.8571429 L59,66.8571429 L59,17.4233766 L24.0445205,0 Z M56.3732877,20.0571429 L56.3732877,65.0337662 L34.9554795,74.961039 L34.9554795,30.3896104 L56.3732877,20.0571429 Z M32.3287671,30.5922078 L32.3287671,74.1506494 L2.42465753,58.9558442 L2.42465753,15.3974026 L32.3287671,30.5922078 Z M3.03082192,12.9662338 L24.0445205,2.63376623 L54.7568493,18.0311688 L33.5410959,28.3636364 L3.03082192,12.9662338 Z M17.1746575,24.1090909 L3.43493151,17.2207792 L3.43493151,23.9064935 L17.1746575,30.9974026 L17.1746575,24.1090909 Z M5.85958904,22.4883117 L5.85958904,21.2727273 L14.75,25.7298701 L14.75,26.9454545 L5.85958904,22.4883117 Z M16.9726027,33.225974 C14.9520548,32.212987 12.9315068,31.6051948 11.1130137,31.6051948 C6.66780822,31.6051948 3.6369863,34.8467532 3.6369863,39.9116883 C3.6369863,47.2051948 9.49657534,56.1194805 16.7705479,59.7662338 C18.7910959,60.7792208 20.8116438,61.387013 22.630137,61.387013 C27.0753425,61.387013 30.1061644,58.1454545 30.1061644,53.0805195 C30.1061644,45.787013 24.2465753,36.8727273 16.9726027,33.225974 Z M27.6815068,53.0805195 C27.6815068,56.7272727 25.8630137,58.9558442 22.630137,58.9558442 C21.2157534,58.9558442 19.5993151,58.5506494 17.7808219,57.7402597 C11.3150685,54.4987013 6.06164384,46.3948052 6.06164384,40.1142857 C6.06164384,36.4675325 7.88013699,34.238961 11.1130137,34.238961 C12.5273973,34.238961 14.1438356,34.6441558 15.9623288,35.4545455 C22.2260274,38.6961039 27.6815068,46.8 27.6815068,53.0805195 Z M14.9520548,35.8597403 C13.3356164,35.2519481 11.9212329,35.0493506 10.7089041,35.2519481 C9.29452055,35.4545455 8.08219178,36.4675325 7.4760274,37.6831169 C6.86986301,39.1012987 6.66780822,40.9246753 7.07191781,42.9506494 C8.08219178,48.825974 13.3356164,55.3090909 18.7910959,57.3350649 C20.0034247,57.7402597 21.0136986,57.9428571 21.8219178,57.9428571 C22.2260274,57.9428571 22.630137,57.9428571 22.8321918,57.9428571 C24.2465753,57.7402597 25.4589041,56.7272727 26.0650685,55.5116883 C26.6712329,54.0935065 26.8732877,52.2701299 26.4691781,50.2441558 C25.6609589,44.3688312 20.4075342,37.8857143 14.9520548,35.8597403 Z M14.3458904,38.2909091 C18.9931507,40.1142857 23.640411,45.5844156 24.4486301,50.6493506 C24.6506849,51.4597403 24.6506849,52.4727273 24.4486301,53.4857143 C24.2465753,54.4987013 23.4383562,55.1064935 22.4280822,55.3090909 C21.619863,55.5116883 20.4075342,55.3090909 19.1952055,54.9038961 C14.5479452,53.0805195 9.90068493,47.6103896 9.09246575,42.5454545 C8.89041096,41.7350649 8.89041096,40.7220779 9.09246575,39.7090909 C9.29452055,38.6961039 10.1027397,38.0883117 11.1130137,37.8857143 C11.3150685,37.8857143 11.5171233,37.8857143 11.9212329,37.8857143 C12.7294521,37.8857143 13.5376712,37.8857143 14.3458904,38.2909091 Z M29.2979452,35.0493506 C28.2876712,34.6441558 27.4794521,33.4285714 27.4794521,32.4155844 C27.4794521,31.6051948 28.0856164,31.2 28.6917808,31.2 C28.8938356,31.2 29.2979452,31.2 29.5,31.4025974 C30.510274,31.8077922 31.3184932,33.0233766 31.3184932,34.0363636 C31.3184932,34.8467532 30.7123288,35.2519481 30.1061644,35.2519481 C29.9041096,35.2519481 29.5,35.2519481 29.2979452,35.0493506 Z M24.0445205,32.4155844 C23.0342466,31.8077922 22.2260274,30.5922078 22.2260274,29.7818182 C22.2260274,28.9714286 22.8321918,28.5662338 23.4383562,28.5662338 C23.640411,28.5662338 24.0445205,28.5662338 24.2465753,28.7688312 C25.2568493,29.174026 26.0650685,30.3896104 26.0650685,31.4025974 C26.0650685,32.212987 25.4589041,32.6181818 24.8527397,32.6181818 C24.6506849,32.6181818 24.2465753,32.6181818 24.0445205,32.4155844 Z" id="path-1"></path>
    </defs>
    <g id="Symbols" stroke="none" stroke-width="1" fill="none" fill-rule="evenodd">
        <g id="05_icons/isometric/washingMachine" transform="translate(-10.000000, -1.000000)">
            <g id="🎨Icon-Colour" transform="translate(10.000000, 1.000000)">
                <mask id="mask-2" fill="white">
                    <use xlink:href="#path-1"></use>
                </mask>
                <use id="Mask" fill="#000000" xlink:href="#path-1"></use>
            </g>
        </g>
    </g>
</svg>