<?xml version="1.0" encoding="UTF-8"?>
<svg width="60px" height="51px" viewBox="0 0 60 51" version="1.1" xmlns="http://www.w3.org/2000/svg" xmlns:xlink="http://www.w3.org/1999/xlink">
    <!-- Generator: Sketch 49.3 (51167) - http://www.bohemiancoding.com/sketch -->
    <title>Mask</title>
    <desc>Created with Sketch.</desc>
    <defs>
        <path d="M58.8,28.8001714 L4.8,28.8001714 L4.8,6.00003571 C4.8,4.0152239 6.4152,2.40001429 8.4,2.40001429 C9.5256,2.40001429 10.566,2.91241734 11.2536,3.80522265 C11.658,4.33082578 12.4116,4.42682635 12.936,4.02482396 C13.4616,3.62042155 13.56,2.86681706 13.1556,2.34241394 C12.0096,0.853205079 10.2768,0 8.4,0 C5.0916,0 2.4,2.69161602 2.4,6.00003571 L2.4,28.8001714 L1.2,28.8001714 C0.5376,28.8001714 0,29.3365746 0,30.0001786 C0,30.6637825 0.5376,31.2001857 1.2,31.2001857 L2.4612,31.2001857 C2.8152,36.5366175 5.4984,41.2346454 9.51,44.2982637 L7.3272,48.6638897 C7.0308,49.2566932 7.2708,49.9778975 7.8636,50.2742993 C8.0352,50.3594998 8.2188,50.4003 8.3988,50.4003 C8.8392,50.4003 9.2628,50.1578986 9.474,49.7366961 L11.5236,45.6386717 C14.1456,47.1338806 17.1708,48.0002857 20.4,48.0002857 L39.6,48.0002857 C42.8292,48.0002857 45.8544,47.1338806 48.4776,45.6386717 L50.526,49.7366961 C50.7372,50.1578986 51.1608,50.4003 51.6012,50.4003 C51.7812,50.4003 51.9648,50.3594998 52.1364,50.2742993 C52.7292,49.9778975 52.9692,49.2566932 52.6728,48.6638897 L50.4912,44.2982637 C54.5016,41.2346454 57.1848,36.5366175 57.5388,31.2001857 L58.8,31.2001857 C59.4636,31.2001857 60,30.6637825 60,30.0001786 C60,29.3365746 59.4636,28.8001714 58.8,28.8001714 Z M39.6,45.6003 L20.4,45.6003 C12.2016,45.6003 5.46,39.2439 4.8456,31.2003 L55.1544,31.2003 C54.5388,39.2439 47.7984,45.6003 39.6,45.6003 Z M9.576,9.7743 C9.108,9.3051 9.108,8.5455 9.576,8.0763 L17.3016,0.3519 C17.7708,-0.1173 18.5292,-0.1173 18.9984,0.3519 C19.4676,0.8211 19.4676,1.5795 18.9984,2.0487 L11.2728,9.7743 C11.0388,10.0083 10.7316,10.1259 10.4244,10.1259 C10.1172,10.1259 9.81,10.0083 9.576,9.7743 Z M16.4484,14.7519 L18.8484,17.1519 C19.3176,17.6211 19.3176,18.3795 18.8484,18.8487 C18.6144,19.0827 18.3072,19.2003 18,19.2003 C17.6928,19.2003 17.3856,19.0827 17.1516,18.8487 L14.7516,16.4487 C14.2824,15.9795 14.2824,15.2211 14.7516,14.7519 C15.2208,14.2827 15.9792,14.2827 16.4484,14.7519 Z M24.3516,16.4487 L21.9516,14.0487 C21.4824,13.5795 21.4824,12.8211 21.9516,12.3519 C22.4208,11.8827 23.1792,11.8827 23.6484,12.3519 L26.0484,14.7519 C26.5176,15.2211 26.5176,15.9795 26.0484,16.4487 C25.8144,16.6827 25.5072,16.8003 25.2,16.8003 C24.8928,16.8003 24.5856,16.6827 24.3516,16.4487 Z M26.7516,9.2487 L24.3516,6.8487 C23.8824,6.3795 23.8824,5.6211 24.3516,5.1519 C24.8208,4.6827 25.5792,4.6827 26.0484,5.1519 L28.4484,7.5519 C28.9176,8.0211 28.9176,8.7795 28.4484,9.2487 C28.2144,9.4827 27.9072,9.6003 27.6,9.6003 C27.2928,9.6003 26.9856,9.4827 26.7516,9.2487 Z" id="path-1"></path>
    </defs>
    <g id="Symbols" stroke="none" stroke-width="1" fill="none" fill-rule="evenodd">
        <g id="05_icons/property/bathroom" transform="translate(-10.000000, -15.000000)">
            <g id="🎨Colour" transform="translate(10.000000, 15.000000)">
                <mask id="mask-2" fill="white">
                    <use xlink:href="#path-1"></use>
                </mask>
                <use id="Mask" fill="#000000" fill-rule="nonzero" xlink:href="#path-1"></use>
            </g>
        </g>
    </g>
</svg>