<?xml version="1.0" encoding="UTF-8"?>
<svg width="68px" height="77px" viewBox="0 0 68 77" version="1.1" xmlns="http://www.w3.org/2000/svg" xmlns:xlink="http://www.w3.org/1999/xlink">
    <!-- Generator: Sketch 49.3 (51167) - http://www.bohemiancoding.com/sketch -->
    <title>Mask</title>
    <desc>Created with Sketch.</desc>
    <defs>
        <path d="M46.8635167,74.4386717 L46.8547586,74.4428756 L12.6275558,57.4152722 L12.6275558,57.4067113 L46.8635167,74.4386717 Z M67.866028,32.7817101 L66.9711991,32.3342957 L2.68118915,0.189290715 L2.30260772,0 L0.925947974,0.688329871 L0.0655356342,1.11853604 L0.0655356342,40.9040026 L23.795708,52.7260682 L23.795708,53.5004393 L21.0595967,52.1409878 L12.6275558,56.4430495 L11.7671434,56.8732556 L11.7671434,59.1447442 L46.0115546,76.352991 L46.8719669,76.7831972 L47.7323792,76.352991 L56.3365026,72.0509293 L56.3365026,69.7794407 L55.4932985,69.3492345 L45.1683505,64.1867605 L45.1683505,63.3779729 L64.9578343,73.2555066 L65.8010384,73.6685045 L66.6786589,73.2899231 L67.8832362,72.7736757 L67.8832362,32.7817101 L67.866028,32.7817101 Z M53.5143502,70.2956881 L50.0727008,72.0165128 L46.9580081,73.496422 L22.7115884,61.4506493 L14.6237124,57.4239195 L21.1456379,54.1027279 L23.8817492,55.4621794 L23.8817492,58.8177875 L43.0861526,68.5576552 L45.1511422,67.1121625 L45.1511422,66.0796677 L53.5143502,70.2956881 Z M25.5165326,57.8369174 L25.5165326,54.0683114 L42.208532,62.3282699 L42.208532,66.2517501 L25.5165326,57.8369174 Z M65.0955002,71.6035149 L1.99285927,40.0435903 L1.99285927,3.2351504 L19.5968957,12.0457728 L65.147125,34.7606585 L65.0955002,71.6035149 Z" id="path-1"></path>
    </defs>
    <g id="Symbols" stroke="none" stroke-width="1" fill="none" fill-rule="evenodd">
        <g id="05_icons/isometric/tv" transform="translate(-6.000000, -2.000000)">
            <g id="🎨Icon-Colour" transform="translate(6.000000, 2.000000)">
                <mask id="mask-2" fill="white">
                    <use xlink:href="#path-1"></use>
                </mask>
                <use id="Mask" fill="#000000" xlink:href="#path-1"></use>
            </g>
        </g>
    </g>
</svg>