<?xml version="1.0" encoding="UTF-8"?>
<svg width="37px" height="61px" viewBox="0 0 37 61" version="1.1" xmlns="http://www.w3.org/2000/svg" xmlns:xlink="http://www.w3.org/1999/xlink">
    <!-- Generator: Sketch 49.3 (51167) - http://www.bohemiancoding.com/sketch -->
    <title>Mask</title>
    <desc>Created with Sketch.</desc>
    <defs>
        <path d="M19.6817354,3.96053 L19.6817354,27.68738 L33.8411954,16.54069 L19.6817354,3.96053 Z M19.6817354,56.099659 L33.8411954,43.51824 L19.6817354,32.37155 L19.6817354,56.099659 Z M36.5360454,17.58914 L20.7311854,30.0301 L36.5360454,42.47105 C36.8272154,42.70181 37.0006754,43.0492 37.0118254,43.42293 C37.0229854,43.79666 36.8693454,44.15534 36.5918054,44.40115 L19.3509254,59.7215807 C19.3496854,59.724089 19.3459654,59.7253431 19.3447254,59.7278514 L19.3199454,59.7491716 C19.2914454,59.7742541 19.2579954,59.783033 19.2282554,59.8043532 C19.1402854,59.8733302 19.0498454,59.9372908 18.9408054,59.9774229 C18.8007954,60.0313504 18.6545954,60.0589412 18.5071554,60.0589412 L18.5059154,60.0589412 C17.8256954,60.0589412 17.2037054,59.5623065 17.2037054,58.871282 L17.2037054,32.80674 L1.9910924,44.78115 C1.7655924,44.95924 1.4992044,45.04452 1.2352944,45.04452 C0.866068396,45.04452 0.503036796,44.87772 0.258950996,44.56168 C-0.158596804,44.01488 -0.0607147044,43.22854 0.477017496,42.8059 L16.7056254,30.0301 L0.477017496,17.25429 C-0.0607147044,16.83165 -0.158596804,16.04531 0.258950996,15.49977 C0.677737796,14.95297 1.4521214,14.85515 1.9910924,15.27779 L17.2037054,27.25346 L17.2037054,1.18139 C17.2037054,0.56435 17.7030354,0.13043 18.2928054,0.03762 C18.3510354,0.02759 18.4043154,0.01003 18.4625454,0.00752 C18.4774154,0.00752 18.4910454,0 18.5059154,0 C18.5926454,0 18.6657454,0.02884 18.7450454,0.04389 C18.8020354,0.05643 18.8590354,0.05643 18.9147854,0.0765 C19.0647054,0.12666 19.1972854,0.20191 19.3075554,0.3035 C19.3112754,0.30726 19.3162254,0.30726 19.3199454,0.31102 L19.3236654,0.31478 C19.3348154,0.32482 19.3484454,0.33485 19.3583554,0.34614 L36.5918054,15.65904 C36.8693454,15.90485 37.0229854,16.26479 37.0118254,16.63601 C37.0006754,17.01099 36.8272154,17.35839 36.5360454,17.58914 Z" id="path-1"></path>
    </defs>
    <g id="Symbols" stroke="none" stroke-width="1" fill="none" fill-rule="evenodd">
        <g id="05_icons/network/bluetooth" transform="translate(-21.000000, -10.000000)">
            <g id="🎨Colour" transform="translate(21.000000, 10.000000)">
                <mask id="mask-2" fill="white">
                    <use xlink:href="#path-1"></use>
                </mask>
                <use id="Mask" fill="#000000" xlink:href="#path-1"></use>
            </g>
        </g>
    </g>
</svg>