<?xml version="1.0" encoding="UTF-8"?>
<svg width="58px" height="74px" viewBox="0 0 58 74" version="1.1" xmlns="http://www.w3.org/2000/svg" xmlns:xlink="http://www.w3.org/1999/xlink">
    <!-- Generator: Sketch 51.2 (57519) - http://www.bohemiancoding.com/sketch -->
    <title>Mask</title>
    <desc>Created with Sketch.</desc>
    <defs>
        <path d="M0.114476812,12.5932911 L0,52.8276819 L36.6502565,73.8720553 L36.8741597,74 L37.2815625,73.7466359 L56.8074346,62.2871703 L57.0161865,62.1651178 L57.1306633,21.6950394 L57.1306633,20.8810756 L21.1723181,0.122052484 L20.961041,0 L0.528613516,11.8736023 L0.116160295,12.1177073 L0.114476812,12.5932911 Z M23.1546188,40.6300092 L23.0906464,63.2400214 L17.232969,59.857905 L17.2969413,37.2470511 L23.1546188,40.6300092 Z M15.1361915,36.0189506 L15.0722191,58.6121279 L9.20864946,55.2274863 L9.2726218,32.6326254 L15.1361915,36.0189506 Z M7.24655057,29.1116217 L7.1758443,54.0540989 L2.52943251,51.3723113 L2.62959972,14.0520287 L35.519798,33.0417117 L35.4196308,70.3561021 L25.1293438,64.4159339 L25.20005,39.4650393 L7.24655057,29.1116217 Z M53.0019224,21.4147396 L36.7706255,30.848134 L4.73311114,12.3508696 L20.9660915,2.91747523 L53.0019224,21.4147396 Z M55.0860737,23.1259996 L54.9859065,60.4218716 L37.953272,70.3359003 L38.0534392,33.0223516 L55.0860737,23.1259996 Z M20.5401704,29.3750867 L13.0486731,25.0502201 C12.0596271,24.4795195 11.256606,24.9374268 11.253239,26.0737775 L11.249872,27.4012035 C11.2465051,28.5375542 12.0444758,29.9196933 13.0335218,30.4903939 L20.5250191,34.8161023 C21.5081729,35.3842776 22.3170862,34.9288956 22.3204532,33.7933866 L22.3238201,32.4659607 C22.3271871,31.3279265 21.5241659,29.9424203 20.5401704,29.3750867 Z M21.1277058,33.1031588 C21.1268641,33.4794172 20.8575069,33.6334558 20.5292278,33.444064 L13.0377305,29.1191974 C12.7102931,28.9298056 12.4417777,28.4660062 12.4434611,28.0889061 L12.4468281,26.7614801 C12.4476699,26.38438 12.7178688,26.2311831 13.0453062,26.4205749 L20.5368034,30.7462833 C20.8650825,30.935675 21.1327562,31.3994745 21.1310728,31.7765746 L21.1277058,33.1031588 Z M26.7022672,51.1030894 C26.6072854,51.0477602 26.5113815,50.950012 26.4385314,50.823677 C26.291909,50.5700848 26.2928312,50.2989718 26.4403757,50.2150558 L27.5681691,49.572315 C27.6419414,49.5298959 27.7378453,49.5437282 27.8337493,49.5981353 C27.9296532,49.6525423 28.024635,49.7502906 28.0984073,49.8775477 L29.2197456,51.8186803 C29.366368,52.0722725 29.3654459,52.3433856 29.2179013,52.4273015 C29.1468955,52.4715649 29.0509916,52.4586547 28.9550877,52.4033255 C28.8591837,52.3479963 28.7632798,52.2502481 28.6931961,52.1248352 L27.8300607,50.637402 L26.9678474,51.1289097 C26.8940751,51.1713288 26.7981712,51.1584186 26.7022672,51.1030894 Z M27.5513719,55.3084225 L26.4309557,53.3599126 C26.2843333,53.1063205 26.2852555,52.8352074 26.4328,52.7512915 C26.5065723,52.712561 26.6024762,52.7273155 26.6983802,52.7826447 C26.7942841,52.8379739 26.8892659,52.9338778 26.9630382,53.0574464 L27.8197185,54.5485682 L28.6883869,54.0533719 C28.7584706,54.0127972 28.8543745,54.0275516 28.9502784,54.0828808 C29.0461824,54.13821 29.1420863,54.2341139 29.21217,54.3558382 C29.3587923,54.6094303 29.3578702,54.8805434 29.2103257,54.9644593 L28.0816101,55.6145774 C28.0078378,55.6533078 27.9119339,55.6385534 27.8160299,55.5832242 C27.720126,55.527895 27.6251442,55.431991 27.5513719,55.3084225 Z" id="path-1"></path>
    </defs>
    <g id="Symbols" stroke="none" stroke-width="1" fill="none" fill-rule="evenodd">
        <g id="Isometric/elevator" transform="translate(-12.000000, -3.000000)">
            <g id="🎨Icon-Colour" transform="translate(12.000000, 3.000000)">
                <mask id="mask-2" fill="white">
                    <use xlink:href="#path-1"></use>
                </mask>
                <use id="Mask" fill="#000000" fill-rule="nonzero" xlink:href="#path-1"></use>
            </g>
        </g>
    </g>
</svg>