<?xml version="1.0" encoding="UTF-8"?>
<svg width="56px" height="72px" viewBox="0 0 56 72" version="1.1" xmlns="http://www.w3.org/2000/svg" xmlns:xlink="http://www.w3.org/1999/xlink">
    <!-- Generator: Sketch 51.2 (57519) - http://www.bohemiancoding.com/sketch -->
    <title>Mask</title>
    <desc>Created with Sketch.</desc>
    <defs>
        <path d="M54.9828448,43.4801692 C52.7574975,41.2442675 51.2100652,37.1426788 50.3299935,34.2418521 C50.3973791,33.5956002 50.4436559,32.9428533 50.4436559,32.2779283 C50.4436559,29.7830387 49.939482,27.4123659 49.0529153,25.2357311 C49.8339383,22.6775153 50.6937132,19.3025541 50.5297146,16.0380078 C50.3998147,13.4416339 50.2731623,11.8016479 48.7208588,11.8016479 C48.2101899,11.8016479 47.5460767,11.9786365 46.6765594,12.3577818 C44.7629718,13.1915766 42.4158434,14.8542951 40.9252422,15.9511372 C38.8720123,14.7787908 36.5825269,13.9742234 34.141221,13.6437906 C32.4979876,10.8347057 26.0768742,0.707386364 21.9704142,0.707386364 C19.6849882,0.707386364 18.9884001,13.6129394 19.879838,17.6268457 C16.4334319,20.3977725 13.9750766,24.3483525 13.1477768,28.8753633 C13.1063712,29.1002525 13.0722725,29.3275773 13.0389856,29.5549021 C13.0381738,29.5581496 13.0357381,29.5605852 13.0349263,29.5646446 C12.5754054,31.8508824 11.1164674,38.0219386 7.9899397,40.2683946 C5.5973463,41.9879443 3.56522506,43.4403873 2.74036082,44.0289961 C2.62832218,44.1028767 2.51953103,44.1808166 2.4131755,44.2628159 C2.37258179,44.2920434 2.34416619,44.3123403 2.34416619,44.3123403 C2.34416619,44.3123403 2.34578994,44.3147759 2.34578994,44.3147759 C1.20348288,45.2118969 0.386737384,46.5060245 0.115571385,47.9925662 C0.0506214456,48.348979 0.0165227273,48.716758 0.0165227273,49.0918439 C0.0165227273,51.6443766 1.59237064,53.8258827 3.82258919,54.7262512 C3.40772145,56.1827536 3.1730898,58.1052718 4.02068651,59.7257728 C3.64235311,61.2066314 3.61069002,62.9083199 4.4623461,64.6059489 C5.27990347,66.2345687 6.75589085,67.0228985 8.42348055,67.0228985 C8.64025097,67.0228985 8.85945702,67.0099086 9.08109869,66.9831167 C10.9143107,66.7647225 12.5193861,65.6857417 12.8993433,62.8141425 C16.1914933,62.4195716 21.0684219,60.5587558 28.2778652,54.2862154 C26.4032476,61.3121751 27.052747,70.958053 28.7601185,71.100131 C29.8309807,71.1894372 30.8571897,71.2324665 31.8428051,71.2324665 C56.8980562,71.2324665 54.9828448,43.4801692 54.9828448,43.4801692 Z M39.8340833,19.1466742 L39.9574881,19.0419425 C39.9956462,19.0094675 44.1443236,15.468072 47.4121175,14.0456684 C47.9203508,13.8240267 48.2540311,13.7241662 48.461059,13.6787012 C48.5990776,14.2510725 48.6559088,15.3966271 48.6924432,16.1305614 C49.0001435,22.2821326 46.2170386,27.9985392 45.0641772,29.8349987 C43.4615374,28.9476201 40.8675992,25.8024193 38.7015187,21.2737848 C38.3913827,20.6242854 38.267166,20.0616565 39.693629,19.2294854 L39.8340833,19.1466742 Z M22.5728249,2.68835952 C24.7470241,3.59847055 28.4654082,7.78287042 31.7226477,13.1591017 L30.3976689,13.5325638 C27.7054939,13.7087405 25.1724462,14.4524174 22.908129,15.6442487 L21.4597453,16.0526215 C21.0400063,12.3504749 21.6765157,5.10368541 22.5728249,2.68835952 Z M11.1310812,62.2141674 C10.9427263,64.5848402 9.93031915,65.0289354 8.86432826,65.1555878 C8.7149434,65.173449 8.56718229,65.1823796 8.42348055,65.1823796 C7.35343029,65.1823796 6.57403101,64.7106807 6.10720332,63.7802728 C4.93729253,61.4501937 6.09015396,58.9536804 6.97022565,57.5686229 C7.91524727,59.1387877 9.54630263,60.2445605 11.4517715,60.4694496 C11.2942679,61.028831 11.1789817,61.6109448 11.1310812,62.2141674 Z M5.30425969,56.7640556 C5.34485341,56.2420204 5.45445643,55.7240447 5.59003943,55.2434151 C5.61033628,55.244227 5.62982127,55.2515338 5.65011812,55.2515338 C5.80437423,55.2515338 5.95132347,55.2174351 6.09340146,55.1687227 C6.09340146,55.1687227 6.09421333,55.1687227 6.09421333,55.1687227 C6.11045082,55.1687227 6.12587643,55.1662871 6.14211392,55.1662871 C6.1551039,55.2758901 6.17702451,55.3814337 6.19569762,55.489413 C5.99354093,55.7386584 5.66067249,56.1827536 5.30425969,56.7640556 Z M13.2443898,60.8688918 C13.2906667,60.7089525 13.3434385,60.557132 13.3994578,60.4053116 C13.6795544,60.3525397 13.9555917,60.2851542 14.2235102,60.1877293 C14.2235102,60.1877293 14.2235102,60.1877293 14.2235102,60.1877293 C14.2267577,60.1877293 14.3120045,60.1463237 14.3144401,60.1455118 C14.7999409,59.9595926 18.046626,58.5696639 21.9704142,56.8801536 C18.7212935,59.1038771 15.8074768,60.4312915 13.2443898,60.8688918 Z M13.6828019,58.4162197 L13.546407,58.472239 L13.5261102,58.4819815 C13.1364105,58.6126932 12.6915035,58.6768313 12.1702802,58.6768313 C10.0285559,58.6768313 8.22213573,57.0741915 7.96801909,54.9487048 L7.7975255,53.5198061 C9.10626679,53.6156072 10.1511489,53.2697488 10.4815818,52.5033395 C11.0076763,51.2847163 9.53899576,49.4799198 7.20323355,48.471572 C4.86665947,47.4632242 2.65836152,47.4275017 2.13307889,48.646125 C1.73688426,49.5643548 2.41073988,50.9331747 3.76738174,51.9829281 C3.70161993,52.1550455 3.66021434,52.3393409 3.63261062,52.5285076 C2.56174849,51.7588508 1.85785352,50.5085645 1.85785352,49.0918439 C1.85785352,48.8328561 1.88139787,48.57468 1.92686283,48.322999 C2.11115828,47.3146512 2.66404464,46.4053521 3.48403763,45.7615358 L3.50677011,45.7436746 L3.50839386,45.7420508 L3.53112634,45.7241896 C3.60581877,45.6673584 3.68132307,45.6129628 3.759263,45.5610028 L3.78524298,45.5439535 L3.81041108,45.5260923 C4.63527531,44.9366715 6.66983218,43.4834166 9.0648612,41.7622432 C11.2764066,40.1725935 12.7442753,37.141055 13.6925444,34.2873171 C14.0432741,34.4919094 14.4459637,34.616938 14.8819402,34.616938 C16.1955527,34.616938 17.2607317,33.551759 17.2607317,32.2381465 C17.2607317,30.9245339 16.1955527,29.8593549 14.8819402,29.8593549 C14.8730096,29.8593549 14.8640789,29.8617905 14.8551483,29.8617905 L14.8616433,29.8187612 C14.8916827,29.613357 14.921722,29.4087647 14.9590682,29.2057962 C15.2708279,27.5016721 15.8431993,25.9055273 16.6104204,24.4335993 C16.9781995,25.0010994 17.4823734,25.5418077 18.1667834,25.8397655 C18.8032928,26.1149909 19.8408681,26.2806132 21.178025,25.4939071 C21.972038,25.0254557 22.6061118,24.5959742 23.1159688,24.2501158 C24.6431042,23.2141642 24.9191415,23.0290569 26.1061016,23.5876264 C27.220805,24.112909 27.2386662,24.8890608 27.1737163,26.2140396 C27.16235,26.450295 27.1509838,26.6792435 27.1509838,26.8960139 C27.1509838,27.8077487 27.5155153,28.600138 28.176381,29.1254206 C29.1839169,29.9267405 30.7654479,30.0834322 32.8795685,29.593872 C34.5658313,29.2041724 36.7010605,30.1711146 38.1965329,32.0027029 C39.5978279,33.7206288 42.3890515,38.7014773 38.2046516,47.9154382 C37.8092689,48.0810605 37.4155099,48.2937716 37.0038896,48.4309783 L36.9121478,48.4610177 L36.8244654,48.5007995 C35.225885,49.2266151 14.8104952,57.9851144 13.6828019,58.4162197 Z M43.35437,66.3068255 C40.255446,68.3925304 35.6058422,69.1832959 31.2144144,69.1832959 C30.7078049,69.1832959 30.1882053,69.1703059 29.6596752,69.1459497 C29.1368282,66.8321081 28.9338596,58.1401824 30.8344572,53.0521665 C31.8493,52.6129425 32.8016285,52.1996986 33.657344,51.828672 C33.9699156,52.2906285 34.6916718,53.1942445 35.9939181,53.9841981 C34.6868005,55.1175746 33.4836029,56.9467273 34.2548834,59.176134 C35.5205954,62.8311918 39.0205853,62.4528584 40.3382572,62.3099685 L40.5079389,62.2921073 C42.1990729,62.1167425 43.3600531,62.384661 43.780604,63.0439029 C44.1711155,63.6552442 43.9697707,65.1677659 43.308905,66.2800336 L43.35437,66.3068255 Z M46.5490951,63.2030302 C46.4281259,63.4189888 45.9328826,63.8517177 45.7826859,64.0579338 C45.7485871,63.4798793 45.6219348,62.5064421 45.3312838,62.0517925 C44.7540412,61.1498002 43.4144487,60.1414524 40.3195841,60.460519 L40.1401598,60.480004 C38.4425308,60.6642994 36.7197337,60.6683588 35.9947299,58.5737233 C35.1982813,56.2720598 38.1064149,54.7319343 38.228196,54.6686081 L40.0662793,53.7276459 L38.138078,52.9896522 C36.62718,52.4115977 35.787702,51.5745554 35.3882599,51.0760646 C36.5606063,50.5662076 37.3611143,50.2162898 37.5770729,50.118053 C38.202216,49.9102132 38.8062505,49.6601559 39.3997305,49.3906137 C39.4646805,49.2688325 40.2432679,47.8058351 40.8667873,46.2105022 C43.9316126,37.6005759 41.1038546,32.6562617 39.6221841,30.840099 C37.6631315,28.4401987 34.8540466,27.2451198 32.4638889,27.8028775 C30.3716889,28.2859426 29.5687453,27.8816293 29.3219355,27.6859676 C29.2399362,27.6210176 28.9915027,27.4237322 28.9915027,26.8968258 C28.9915027,26.7092828 29.0020571,26.5095618 29.0117996,26.3049695 C29.0726901,25.0692969 29.1733625,23.0014532 26.891184,21.9249079 C24.754331,20.9165601 23.6915876,21.6375044 22.0832647,22.7278515 C21.5701602,23.0753337 20.9872345,23.4707165 20.2435577,23.9091286 C19.4365547,24.3832631 19.0354888,24.2111458 18.9039652,24.1535027 C18.3486432,23.9131879 17.9532604,23.1557093 17.7316188,22.5695361 C20.822424,18.1440095 25.9453505,15.3154397 31.6438959,15.3154397 C34.412387,15.3154397 37.0176915,15.9957903 39.3266619,17.1795029 C38.9767441,17.4612233 38.7672805,17.6374 38.7672805,17.6374 C38.0771874,18.0400896 35.7771477,19.4202759 37.0420477,22.0653622 C38.3069478,24.7104485 42.2096273,31.6333002 45.6292416,31.918268 C45.6316773,31.918268 45.6349247,31.918268 45.6373604,31.918268 C45.9621101,31.918268 47.0207941,30.4211719 48.0445675,28.0172123 C48.4042278,29.3787254 48.6047607,30.8027528 48.6047607,32.2763046 C48.6047607,32.7488154 48.5844639,33.2180787 48.5463058,33.6824707 L48.5471177,33.6816589 C48.5471177,33.6816589 48.7054331,36.6433761 49.9630264,39.0960482 C50.9583842,41.0689026 52.4286884,43.9348187 53.0286635,44.6655056 C53.0546435,47.5971835 52.218413,57.1285871 46.5490951,63.2030302 Z M27.6096927,34.6177499 C28.9233053,34.6177499 29.9884843,35.6829289 29.9884843,36.9965414 C29.9884843,38.310154 28.9233053,39.375333 27.6096927,39.375333 C26.2960802,39.375333 25.2309012,38.310154 25.2309012,36.9965414 C25.2309012,35.6829289 26.2960802,34.6177499 27.6096927,34.6177499 Z" id="path-1"></path>
    </defs>
    <g id="Symbols" stroke="none" stroke-width="1" fill="none" fill-rule="evenodd">
        <g id="Isometric/pet" transform="translate(-11.000000, -3.000000)">
            <g id="🎨Icon-Colour" transform="translate(11.000000, 3.000000)">
                <mask id="mask-2" fill="white">
                    <use xlink:href="#path-1"></use>
                </mask>
                <use id="Mask" fill="#000000" fill-rule="nonzero" xlink:href="#path-1"></use>
            </g>
        </g>
    </g>
</svg>