<?xml version="1.0" encoding="UTF-8"?>
<svg width="69px" height="70px" viewBox="0 0 69 70" version="1.1" xmlns="http://www.w3.org/2000/svg" xmlns:xlink="http://www.w3.org/1999/xlink">
    <!-- Generator: Sketch 51.2 (57519) - http://www.bohemiancoding.com/sketch -->
    <title>Mask</title>
    <desc>Created with Sketch.</desc>
    <defs>
        <path d="M68.699862,18.3262448 C68.7030292,17.324616 67.9991177,16.1052417 67.1257607,15.601656 L40.4776825,0.216161799 C40.2235142,0.0696785286 39.9828066,0 39.769812,0 C39.6154107,0 39.4752619,0.0364228672 39.354908,0.106101396 L35.191616,2.58364817 C35.2042848,2.57573015 35.2201208,2.57335475 35.2335814,2.56622854 C34.9271543,2.72062982 34.7323711,3.07535688 34.7307875,3.59557044 L34.7094089,13.5065493 C33.1234305,14.4693799 31.8422958,15.7275524 30.876298,17.2929439 L2.28988983,33.9049386 C2.02384454,34.0593399 1.89161369,34.262041 1.89240549,34.465534 C1.89240549,34.465534 1.89240549,34.4647422 1.89240549,34.4647422 L1.89240549,39.8014841 L0,40.9012963 L0,40.9020881 L0,46.242789 L0,53.0578241 L2.01592652,54.2217723 L2.01592652,54.2241477 L4.02076782,53.0594077 L4.02235142,53.0586159 L4.02235142,48.5817705 L14.7670973,54.8267086 L27.8919983,62.4541321 L27.8919983,68.8344682 L29.9095084,70 L31.9143497,69.1709839 L31.9143497,68.8352601 L31.9143497,62.4691763 L63.6101622,44.0914644 L63.6101622,48.1391535 L65.6284641,49.3038934 L67.6333054,48.1391535 L67.6333054,41.7667353 L67.6333054,41.6558831 L68.1907337,41.3241183 C68.3047531,41.2576069 68.3950184,41.153881 68.4702396,41.0303599 C68.5351673,40.9234667 68.5898016,40.8031129 68.6190983,40.6558378 C68.6404769,40.5505282 68.6515621,40.4349252 68.6515621,40.3106124 L68.5905934,40.3470353 L68.6515621,40.3106124 L68.699862,18.3262448 Z M35.6065199,2.47675497 C35.8195145,2.47675497 36.0602222,2.5464335 36.3143904,2.69291677 C36.0602222,2.5464335 35.8195145,2.47675497 35.6065199,2.47675497 Z M58.6408162,27.9252539 C58.6043934,27.9830554 58.5600525,28.0535258 58.5157116,28.1247879 C58.5006674,28.1493338 58.4856231,28.1730878 58.4689953,28.1984254 C58.4088184,28.2934416 58.3430989,28.395584 58.2694613,28.5056444 C58.2678777,28.5080198 58.2662941,28.5103952 58.2647105,28.5127706 C58.195032,28.6164966 58.1190191,28.7273488 58.0382553,28.8405764 C58.0255865,28.8579961 58.0129177,28.8754157 58.0010407,28.8928353 C57.9147343,29.0116055 57.8244689,29.1343348 57.7262855,29.2586476 C57.0382101,30.1312128 56.0555845,31.0742484 54.8179988,31.3173314 C55.4268941,30.3370812 56.1474334,29.5112323 56.9637807,28.8176142 C57.417483,28.4320069 57.9004819,28.0875732 58.4238626,27.7985657 C58.4998756,27.7566002 58.5663869,27.7035495 58.6439834,27.6639595 L58.7619619,27.737597 C58.7287062,27.7858969 58.6867407,27.8516164 58.6408162,27.9252539 Z M56.0468746,27.3369455 C56.0460828,27.3377373 56.045291,27.3385291 56.0444992,27.3393209 C55.822003,27.5206434 55.6050494,27.7114675 55.3944302,27.9125851 C55.3944302,27.9125851 55.3944302,27.9125851 55.3944302,27.9125851 C54.2653214,28.9894351 53.3001154,30.3449992 52.5122729,31.9879872 L47.4312829,28.8049454 L47.4289075,28.8081126 L44.5261634,27.0099315 C44.3543425,26.9038301 44.2886229,26.6829174 44.3757211,26.5087211 C45.0606294,25.1460308 45.9727847,24.0343416 47.1264394,23.1388141 C47.359229,22.9582834 47.6023121,22.7864625 47.8564803,22.6241432 C47.8588557,22.6225596 47.8612311,22.620976 47.8636065,22.6193923 C48.116983,22.457073 48.3798611,22.3034636 48.6538244,22.1585639 C48.7947651,22.0841346 48.9317467,22.0057462 49.07823,21.9352759 C49.1391987,21.9059792 49.20571,21.890935 49.2714295,21.8925186 C49.3426917,21.8941022 49.409203,21.9131054 49.4685881,21.9495283 L56.9891184,26.6433274 C56.6621044,26.8539466 56.3509264,27.0899034 56.0468746,27.3369455 Z M45.9902043,20.6216773 C45.7708753,20.9700699 45.4541547,21.4506934 45.0471687,21.9392349 C44.3701785,22.7508314 43.4461462,23.5735131 42.3019931,23.7983847 C42.8594213,22.9012737 43.5086985,22.1308508 44.2395313,21.4728638 C44.6781893,21.0777549 45.1540619,20.7333213 45.6600231,20.4316449 C45.8167998,20.3382123 45.963283,20.2297355 46.1271859,20.1450128 L46.2451644,20.2178585 C46.1857792,20.3073321 46.0986811,20.4498563 45.9902043,20.6216773 Z M43.9869466,19.4648553 C43.9869466,19.4648553 43.9869466,19.4648553 43.9869466,19.4648553 C43.7589078,19.6311336 43.5364116,19.8061218 43.3202498,19.9914033 C43.3202498,19.9914033 43.3202498,19.9914033 43.3202498,19.9914033 C41.9979413,21.1236794 40.8854603,22.6146415 39.997059,24.4682488 L34.916069,21.2852069 L34.9136936,21.2883741 L32.0109495,19.490193 C31.8391286,19.3840916 31.773409,19.163179 31.8605072,18.9889826 C31.9634414,18.7831143 32.0758772,18.5875393 32.1891048,18.3927561 C32.4266453,17.9857702 32.6887315,17.6049137 32.9721965,17.2454358 C32.9880325,17.2256408 33.0038685,17.205054 33.0197045,17.1852589 C33.8946452,16.0941565 34.9865394,15.2192159 36.319933,14.5414338 C36.4014886,14.5002602 36.4782933,14.4543357 36.5614325,14.4147456 C36.6224012,14.385449 36.6889125,14.3704047 36.754632,14.3719883 C36.8258942,14.3735719 36.8924055,14.3925752 36.9517906,14.428998 L44.4723209,19.1227971 C44.3068344,19.2312739 44.1476823,19.3484605 43.9869466,19.4648553 Z M30.1795127,19.5614551 C30.2895731,20.1101735 30.6118363,20.6137592 31.1201728,20.9281044 L40.7936113,26.9552972 C40.7944031,26.9537135 40.7944031,26.9529217 40.7951949,26.9521299 L40.8007375,26.956089 C41.5315703,26.5807751 42.2141031,26.1817071 42.8562541,25.7731376 C42.389883,26.7296337 42.7287741,27.8872475 43.6353867,28.4486347 L53.3088252,34.4758274 C53.309617,34.4742438 53.309617,34.473452 53.3104088,34.4726602 L53.3159514,34.4766192 C55.8885144,33.153519 57.9384883,31.5683325 59.2188313,30.1217112 L60.4659186,30.8414587 L29.6474221,48.7520078 C29.6323779,48.7583422 29.5666584,48.7757618 29.4708504,48.7757618 C29.3782096,48.7757618 29.3140737,48.759134 29.3077393,48.759134 C29.3077393,48.759134 29.3069475,48.759134 29.3069475,48.759134 L4.54256498,34.461575 L30.1795127,19.5614551 Z M61.2347578,32.2595751 L61.2347578,37.2162523 L30.2634437,55.2115241 L30.2634437,50.254847 L61.2347578,32.2595751 Z M3.577359,35.7664638 L28.5008936,50.1566636 C28.5800738,50.2025881 28.6766735,50.2508879 28.7685225,50.28256 L28.826324,50.3158157 L28.826324,51.9493021 L28.826324,55.2891206 L3.50530507,40.6811755 L3.577359,35.7664638 Z M2.01671832,53.2906138 L0.806845689,52.5922449 L0.806845689,46.7115354 L2.01671832,47.4146551 L2.01671832,53.2906138 Z M29.9095084,69.0672579 L29.9079248,69.0680497 L28.6980522,68.368889 L28.6980522,62.9228785 L29.9095084,63.62679 L29.9095084,69.0672579 Z M29.4771848,61.413705 L29.4771848,61.5142637 L1.61289958,45.3147976 L1.61289958,43.7042735 L29.4771848,59.9005724 L29.4771848,61.413705 Z M62.6671267,42.8301247 L30.5484922,61.4018279 L30.5484922,59.7833857 L62.6671267,41.2116825 L62.6671267,42.8301247 Z M62.8817049,39.2250526 L29.9095084,58.2837138 L1.61289958,41.839581 L1.61289958,41.8332466 L2.01196751,41.6028324 C2.07451983,41.6867633 2.15845078,41.7659435 2.2780128,41.8348302 L28.5016854,56.9637807 C28.7701061,57.1189738 29.1208741,57.1957786 29.4716422,57.1957786 C29.8224102,57.1957786 30.1723865,57.118182 30.4392236,56.9637807 L62.7185938,38.1957107 L62.7185938,38.2060041 C62.7478904,38.1893763 62.7692691,38.1695813 62.7953985,38.1513698 L62.8072755,38.1450354 L62.8072755,38.1434518 C62.833405,38.1252404 62.8627016,38.1078207 62.8856639,38.0880257 L62.8817049,39.2250526 Z M62.9014999,30.4154695 C62.8476574,30.3663778 62.7858969,30.3188698 62.7114675,30.2753207 L60.1864127,28.8176142 C60.6226953,28.0693618 60.78739,27.4058322 60.6234871,26.9022465 L51.9532611,21.4958261 L51.9508857,21.4989933 L50.3569893,20.5116169 C50.0339343,20.3112911 49.6681221,20.2075651 49.2999344,20.2012307 C48.974504,20.1956881 48.64749,20.2645748 48.34423,20.4102663 C48.228627,20.4656924 48.1217338,20.5290365 48.0085062,20.586838 C48.1747845,20.1291768 48.21675,19.7182318 48.1066896,19.3817162 L39.4364636,13.9752958 L39.4364636,13.9800466 L37.843359,12.9926702 C37.5203041,12.7923444 37.1544918,12.6886184 36.7863041,12.682284 C36.6319028,12.6791168 36.4775015,12.6965364 36.3246838,12.7274167 L36.3436871,4.57186164 L62.1564147,19.4743569 C62.5309368,19.6905187 62.9252539,20.3706762 62.9244621,20.7990408 L62.9014999,30.4154695 Z M65.6284641,48.3703595 L65.6268805,48.3711513 L64.4162161,47.6727824 L64.4162161,44.0906726 L64.4162161,43.6243015 L65.6276723,42.924349 L65.6276723,48.3703595 L65.6284641,48.3703595 Z M67.0735018,19.2930344 L67.0560822,27.5269778 L67.0671674,27.4628419 L67.0394543,40.4428432 L64.4866864,41.9045087 L64.5056897,41.7960319 L64.4811438,41.811868 L64.5262765,20.670769 C64.5246929,20.6557247 64.5239011,20.6414723 64.5231093,20.6264281 C64.5096487,19.9771509 64.249146,19.5115716 64.0242744,19.171097 C63.7439767,18.7142275 63.3742054,18.3159514 62.9632604,18.078411 L49.6095288,10.3694319 L37.2510916,3.23450897 L39.8260299,1.70237314 L66.318915,16.9983938 C66.5010293,17.1037034 66.6878945,17.3182816 66.8320024,17.5605728 C66.8320024,17.5605728 67.0291609,18.2280614 67.0711264,19.0079859 L67.0735018,19.0064023 L67.0735018,19.0768726 C67.076669,19.1473429 67.080628,19.2170215 67.080628,19.2890754 L67.0735018,19.2930344 Z" id="path-1"></path>
    </defs>
    <g id="Symbols" stroke="none" stroke-width="1" fill="none" fill-rule="evenodd">
        <g id="05_icons/isometric/queen" transform="translate(-6.000000, -5.000000)">
            <g id="🎨Icon-Colour" transform="translate(6.000000, 5.000000)">
                <mask id="mask-2" fill="white">
                    <use xlink:href="#path-1"></use>
                </mask>
                <use id="Mask" fill="#070606" fill-rule="nonzero" xlink:href="#path-1"></use>
            </g>
        </g>
    </g>
</svg>