<?xml version="1.0" encoding="UTF-8"?>
<svg width="60px" height="36px" viewBox="0 0 60 36" version="1.1" xmlns="http://www.w3.org/2000/svg" xmlns:xlink="http://www.w3.org/1999/xlink">
    <!-- Generator: Sketch 49.3 (51167) - http://www.bohemiancoding.com/sketch -->
    <title>Mask</title>
    <desc>Created with Sketch.</desc>
    <defs>
        <path d="M54,9.6 C52.644,9.6 51.4056,10.0692 50.4,10.83 L50.4,10.8 C50.4,4.8456 45.5556,0 39.6,0 L20.4,0 C14.4456,0 9.6,4.8456 9.6,10.8 L9.6,10.83 C8.5944,10.0692 7.356,9.6 6,9.6 C2.6916,9.6 0,12.2916 0,15.6 L0,34.8 C0,35.4636 0.5376,36 1.2,36 L10.8,36 C11.4624,36 12,35.4636 12,34.8 L12,31.2 L48,31.2 L48,34.8 C48,35.4636 48.5364,36 49.2,36 L58.8,36 C59.4636,36 60,35.4636 60,34.8 L60,15.6 C60,12.2916 57.3084,9.6 54,9.6 Z M48,10.8 L48,19.2 L31.2,19.2 L31.2,2.4 L39.6,2.4 C44.2308,2.4 48,6.168 48,10.8 Z M12,10.8 C12,6.168 15.768,2.4 20.4,2.4 L28.8,2.4 L28.8,19.2 L12,19.2 L12,10.8 Z M57.6,33.6 L50.4,33.6 L50.4,30 C50.4,29.3364 49.8636,28.8 49.2,28.8 L10.8,28.8 C10.1376,28.8 9.6,29.3364 9.6,30 L9.6,33.6 L2.4,33.6 L2.4,15.6 C2.4,13.6152 4.0152,12 6,12 C7.9848,12 9.6,13.6152 9.6,15.6 L9.6,20.4 C9.6,21.0636 10.1376,21.6 10.8,21.6 L49.2,21.6 C49.8636,21.6 50.4,21.0636 50.4,20.4 L50.4,15.6 C50.4,13.6152 52.0152,12 54,12 C55.9848,12 57.6,13.6152 57.6,15.6 L57.6,33.6 Z" id="path-1"></path>
    </defs>
    <g id="Symbols" stroke="none" stroke-width="1" fill="none" fill-rule="evenodd">
        <g id="05_icons/property/furniture" transform="translate(-10.000000, -22.000000)">
            <g id="🎨Colour" transform="translate(10.000000, 22.000000)">
                <mask id="mask-2" fill="white">
                    <use xlink:href="#path-1"></use>
                </mask>
                <use id="Mask" fill="#000000" fill-rule="nonzero" xlink:href="#path-1"></use>
            </g>
        </g>
    </g>
</svg>