<?xml version="1.0" encoding="UTF-8"?>
<svg width="73px" height="75px" viewBox="0 0 73 75" version="1.1" xmlns="http://www.w3.org/2000/svg" xmlns:xlink="http://www.w3.org/1999/xlink">
    <!-- Generator: Sketch 49.3 (51167) - http://www.bohemiancoding.com/sketch -->
    <title>Mask</title>
    <desc>Created with Sketch.</desc>
    <defs>
        <path d="M35.7136929,46.3692946 L4.593361,30.8091286 L4.593361,52.9045643 L35.7136929,68.4647303 L35.7136929,46.3692946 Z M33.379668,64.5746888 L6.92738589,51.3485477 L6.92738589,34.3879668 L33.379668,47.6141079 L33.379668,64.5746888 Z M31.9792531,37.5 C31.8236515,37.5 31.8236515,37.3443983 31.9792531,37.1887967 C31.9792531,36.4107884 32.2904564,35.7883817 32.9128631,35.4771784 C33.379668,35.1659751 34.1576763,35.1659751 34.9356846,35.4771784 C36.0248963,36.0995851 36.8029046,37.3443983 36.8029046,38.43361 C36.8029046,39.2116183 36.4917012,39.8340249 35.8692946,40.1452282 C35.5580913,40.3008299 35.246888,40.4564315 34.9356846,40.4564315 C34.6244813,40.4564315 34.1576763,40.3008299 33.846473,40.1452282 C32.9128631,39.6784232 32.1348548,38.5892116 31.9792531,37.5 Z M22.4875519,34.5435685 C21.3983402,33.9211618 20.620332,32.6763485 20.620332,31.5871369 C20.620332,30.8091286 20.9315353,30.186722 21.5539419,29.8755187 C22.0207469,29.5643154 22.7987552,29.5643154 23.5767635,29.8755187 C24.6659751,30.4979253 25.4439834,31.7427386 25.4439834,32.8319502 C25.4439834,33.6099585 25.1327801,34.2323651 24.5103734,34.5435685 C24.1991701,34.6991701 23.8879668,34.8547718 23.5767635,34.8547718 C23.2655602,34.8547718 22.7987552,34.6991701 22.4875519,34.5435685 Z M14.3962656,28.7863071 C14.3962656,28.6307054 14.3962656,28.6307054 14.3962656,28.4751037 C14.3962656,27.6970954 14.7074689,27.0746888 15.3298755,26.7634855 C15.7966805,26.4522822 16.5746888,26.4522822 17.3526971,26.7634855 C18.4419087,27.3858921 19.219917,28.6307054 19.219917,29.719917 C19.219917,30.4979253 18.9087137,31.120332 18.2863071,31.4315353 C18.1307054,31.5871369 17.6639004,31.7427386 17.3526971,31.7427386 C17.0414938,31.7427386 16.5746888,31.5871369 16.2634855,31.4315353 C15.3298755,30.9647303 14.5518672,29.8755187 14.3962656,28.7863071 Z M5.99377593,26.2966805 C4.90456432,25.6742739 4.12655602,24.4294606 4.12655602,23.340249 C4.12655602,22.5622407 4.43775934,21.939834 5.06016598,21.6286307 C5.52697095,21.3174274 6.30497925,21.3174274 7.08298755,21.6286307 C8.17219917,22.2510373 8.95020747,23.4958506 8.95020747,24.5850622 C8.95020747,25.3630705 8.63900415,25.9854772 8.01659751,26.2966805 C7.86099585,26.4522822 7.39419087,26.6078838 7.08298755,26.6078838 C6.77178423,26.6078838 6.30497925,26.4522822 5.99377593,26.2966805 Z M71.813278,18.6721992 L33.2240664,0 L0.703319502,15.560166 L0.703319502,55.7053942 L38.5145228,74.533195 L39.4481328,75 L72.280083,58.5062241 L71.813278,18.6721992 Z M40.5373444,9.49170124 C40.5373444,9.95850622 39.9149378,10.5809129 38.9813278,11.0477178 C36.3360996,12.2925311 32.1348548,12.2925311 29.6452282,11.0477178 C28.7116183,10.5809129 28.0892116,9.95850622 28.0892116,9.49170124 C28.0892116,9.02489627 28.7116183,8.40248963 29.6452282,7.93568465 C32.2904564,6.69087137 36.4917012,6.69087137 38.9813278,7.93568465 C40.0705394,8.40248963 40.5373444,8.86929461 40.5373444,9.49170124 Z M38.2033195,71.8879668 L2.72614108,54.1493776 L2.72614108,27.5414938 L38.2033195,45.280083 L38.2033195,71.8879668 Z M38.2033195,42.7904564 L2.72614108,25.0518672 L2.72614108,18.9834025 L38.2033195,36.7219917 L38.2033195,42.7904564 Z M39.2925311,34.6991701 L3.50414938,16.8049793 L33.379668,2.64522822 L39.6037344,5.60165975 C36.3360996,4.35684647 31.8236515,4.35684647 28.8672199,5.91286307 C27,6.84647303 26.06639,8.09128631 26.06639,9.49170124 C26.06639,10.8921162 27,12.2925311 28.8672199,13.0705394 C30.4232365,13.8485477 32.4460581,14.3153527 34.6244813,14.3153527 C36.8029046,14.3153527 38.8257261,13.8485477 40.3817427,13.0705394 C41.9377593,12.1369295 42.8713693,10.8921162 42.8713693,9.49170124 C42.8713693,8.24688797 42.093361,7.00207469 40.6929461,6.22406639 L69.0124481,19.9170124 L39.2925311,34.6991701 Z M69.9460581,57.1058091 L40.5373444,71.8879668 L40.5373444,36.8775934 L69.9460581,22.0954357 L69.9460581,57.1058091 Z M42.093361,21.3174274 C38.8257261,19.7614108 33.846473,19.7614108 30.5788382,21.3174274 C28.7116183,22.2510373 27.7780083,23.4958506 27.7780083,24.8962656 C27.7780083,26.2966805 28.7116183,27.6970954 30.5788382,28.4751037 C32.1348548,29.253112 34.1576763,29.719917 36.3360996,29.719917 C38.5145228,29.719917 40.5373444,29.253112 42.093361,28.4751037 C43.9605809,27.5414938 44.8941909,26.2966805 44.8941909,24.8962656 C44.8941909,23.4958506 43.8049793,22.2510373 42.093361,21.3174274 Z M41.0041494,26.6078838 C38.3589212,27.8526971 34.1576763,27.8526971 31.6680498,26.6078838 C30.7344398,26.1410788 30.1120332,25.5186722 30.1120332,25.0518672 C30.1120332,24.5850622 30.7344398,23.9626556 31.6680498,23.4958506 C34.313278,22.2510373 38.5145228,22.2510373 41.0041494,23.4958506 C41.9377593,23.9626556 42.560166,24.5850622 42.560166,25.0518672 C42.560166,25.5186722 41.9377593,26.1410788 41.0041494,26.6078838 Z M24.8215768,13.0705394 C21.5539419,11.5145228 16.5746888,11.5145228 13.3070539,13.0705394 C11.5954357,14.0041494 10.5062241,15.2489627 10.5062241,16.8049793 C10.5062241,18.3609959 11.439834,19.6058091 13.3070539,20.3838174 C14.8630705,21.1618257 16.8858921,21.6286307 19.0643154,21.6286307 C21.2427386,21.6286307 23.2655602,21.1618257 24.8215768,20.3838174 C26.6887967,19.4502075 27.6224066,18.2053942 27.6224066,16.8049793 C27.6224066,15.4045643 26.533195,14.0041494 24.8215768,13.0705394 Z M23.7323651,18.3609959 C21.0871369,19.6058091 16.8858921,19.6058091 14.3962656,18.3609959 C13.4626556,17.8941909 12.840249,17.2717842 12.840249,16.8049793 C12.840249,16.3381743 13.4626556,15.7157676 14.3962656,15.2489627 C15.6410788,14.626556 17.3526971,14.3153527 19.0643154,14.3153527 C20.7759336,14.3153527 22.4875519,14.626556 23.7323651,15.2489627 C24.6659751,15.7157676 25.2883817,16.3381743 25.2883817,16.8049793 C25.2883817,17.2717842 24.6659751,17.8941909 23.7323651,18.3609959 Z M57.4979253,14.3153527 C54.2302905,12.7593361 49.2510373,12.7593361 45.9834025,14.3153527 C44.1161826,15.2489627 43.1825726,16.4937759 43.1825726,17.8941909 C43.1825726,19.2946058 44.1161826,20.6950207 45.9834025,21.473029 C47.5394191,22.2510373 49.5622407,22.7178423 51.7406639,22.7178423 C53.9190871,22.7178423 55.9419087,22.2510373 57.4979253,21.473029 C59.3651452,20.5394191 60.2987552,19.2946058 60.2987552,17.8941909 C60.2987552,16.4937759 59.3651452,15.2489627 57.4979253,14.3153527 Z M56.5643154,19.6058091 C53.9190871,20.8506224 49.7178423,20.8506224 47.2282158,19.6058091 C46.2946058,19.1390041 45.6721992,18.5165975 45.6721992,18.0497925 C45.6721992,17.5829876 46.2946058,16.9605809 47.2282158,16.4937759 C49.873444,15.2489627 54.0746888,15.2489627 56.5643154,16.4937759 C57.4979253,16.9605809 58.120332,17.5829876 58.120332,18.0497925 C58.120332,18.5165975 57.4979253,19.1390041 56.5643154,19.6058091 Z" id="path-1"></path>
    </defs>
    <g id="Symbols" stroke="none" stroke-width="1" fill="none" fill-rule="evenodd">
        <g id="05_icons/isometric/stove" transform="translate(-4.000000, -3.000000)">
            <g id="🎨Icon-Colour" transform="translate(4.000000, 3.000000)">
                <mask id="mask-2" fill="white">
                    <use xlink:href="#path-1"></use>
                </mask>
                <use id="Mask" fill="#000000" xlink:href="#path-1"></use>
            </g>
        </g>
    </g>
</svg>