<?xml version="1.0" encoding="UTF-8"?>
<svg width="70px" height="68px" viewBox="0 0 70 68" version="1.1" xmlns="http://www.w3.org/2000/svg" xmlns:xlink="http://www.w3.org/1999/xlink">
    <!-- Generator: Sketch 51.2 (57519) - http://www.bohemiancoding.com/sketch -->
    <title>Mask</title>
    <desc>Created with Sketch.</desc>
    <defs>
        <path d="M69.1533333,26.7091494 L65.9542069,24.8622069 L62.9395402,26.6137931 L62.9270345,30.4569655 L50.0930115,37.9158621 L48.3195402,36.891954 L48.3234483,35.4811494 L45.1243218,33.6342069 L43.9042299,34.3431264 L27.2856552,24.7488736 L27.3575632,2.57774713 L24.1584368,0.730804598 L21.1437701,2.4823908 L21.1234483,6.35604598 L6.5308046,14.8411954 L6.54096552,11.3685057 L3.34183908,9.52156322 L0.327172414,11.2731494 L0.255264368,36.755954 L0.253701149,36.7567356 L0.241195402,41.2165977 L45.2337471,67.1933793 L45.2337471,67.1902529 L69.0712644,53.3377931 L69.0837701,48.8810575 L69.0837701,48.877931 L69.0814253,48.8794943 L69.1533333,26.7091494 Z M65.9565517,26.2175172 L66.813977,26.7130575 L66.1371034,27.1069885 L65.2796782,26.6114483 L65.9565517,26.2175172 Z M64.1072644,27.2875402 L65.5571494,28.1246437 L65.5454253,31.945931 L64.0955402,31.1088276 L64.1072644,27.2875402 Z M48.3234483,43.8224828 L48.3250115,42.059954 L64.4597701,32.6837701 L64.4582069,34.5088276 L48.3234483,43.8224828 Z M58.3038161,39.4165517 L58.242069,53.8036322 L56.9211494,54.5703908 L56.9852414,40.1786207 L58.3038161,39.4165517 Z M55.8081379,40.8570575 L55.747954,54.500046 L54.3746667,53.7090575 L54.4371954,41.6433563 L55.8081379,40.8570575 Z M62.9067126,36.7575172 L62.8785747,45.2981609 L59.4637241,43.3261609 L59.484046,38.7349885 L62.9067126,36.7575172 Z M59.4551264,45.1262069 L62.8731034,47.0997701 L62.8684138,48.7857011 L64.5074483,49.7322299 L59.4207356,52.6882759 L59.4551264,45.1262069 Z M64.0423908,48.1103908 L64.079908,36.0798621 L65.5352644,35.2388506 L65.4930575,48.9482759 L64.0423908,48.1103908 Z M48.314069,38.6943448 L48.5344828,38.8217471 L48.3132874,38.9507126 L48.314069,38.6943448 Z M48.3093793,40.3083678 L62.9489195,31.8005517 L63.2975172,32.0022069 L48.3085977,40.7132414 L48.3093793,40.3083678 Z M48.296092,45.1988966 L53.2663448,42.3272644 L53.1991264,54.3843678 L54.8553563,55.3410575 L48.2554483,59.1764138 L48.296092,45.1988966 Z M42.3464828,35.2490115 L42.1104368,35.3865747 L42.108092,36.3393563 L24.6696092,26.2698851 L25.7286897,25.6547586 L42.3464828,35.2490115 Z M26.1155862,24.0735632 L24.8525057,24.8012414 L24.9173793,3.99011494 L26.1804598,3.26243678 L26.1155862,24.0735632 Z M24.1615632,2.08611494 L25.0189885,2.58165517 L24.3421149,2.97558621 L23.4846897,2.48004598 L24.1615632,2.08611494 Z M22.3114943,3.15613793 L23.7387126,3.98386207 L23.719954,7.81609195 L22.2927356,6.99227586 L22.3114943,3.15613793 Z M10.1035402,17.8589885 L11.1415172,18.4584828 L13.6598621,16.9953103 L13.6473563,19.9052414 L10.1035402,17.8589885 Z M14.8338391,16.3121839 L16.1555402,15.5438621 L16.1305287,21.3387126 L14.8158621,20.5797701 L14.8338391,16.3121839 Z M17.1622529,14.9592184 L21.1070345,12.6667586 L21.0742069,24.1931494 L17.3037241,22.0155862 L17.3357701,14.9131034 L17.1622529,14.9592184 Z M9.97066667,17.7823908 L8.3925977,16.8710345 L22.6772874,8.56956322 L22.6757241,10.3985287 L9.97066667,17.7823908 Z M22.2794483,11.985977 L23.7113563,11.1535632 L23.6746207,24.8067126 L22.2474023,23.9789885 L22.2794483,11.985977 Z M23.6324138,8.01462069 L23.7191724,7.9645977 L23.7191724,7.96616092 L23.6324138,8.01462069 Z M21.1594023,7.69181609 L21.508,7.89347126 L7.22409195,16.1941609 L7.55862069,16.3895632 L7.22487356,16.1972874 L6.87627586,15.9956322 L21.1594023,7.69181609 Z M42.1041839,37.4906667 L42.1018391,38.3293333 L5.07075862,16.9210575 L5.79531034,16.4997701 L42.1041839,37.4906667 Z M37.094069,54.5227126 L37.1636322,39.7706207 L42.0901149,42.6156782 L42.0432184,59.0794943 L35.6269885,55.3754483 L37.094069,54.5227126 Z M34.6022989,54.6133793 L34.6632644,38.3269885 L35.9865287,39.0906207 L35.9232184,53.8466207 L34.6022989,54.6133793 Z M4.09062069,19.5457011 L4.09296552,17.4845977 L42.0987126,39.4298391 L42.0932414,41.4885977 L4.09062069,19.5457011 Z M33.4916322,37.6563678 L33.5057011,38.015908 L33.4924138,37.6563678 L33.4275402,54.5430345 L32.0542529,53.752046 L32.1183448,36.802069 L33.4916322,37.6563678 Z M25.5903448,47.8704368 L25.659908,33.1277241 L30.9506207,36.1822529 L30.888092,52.6374713 L24.1154483,48.7270805 L25.5903448,47.8704368 Z M23.0993563,47.9618851 L23.1603218,31.6856552 L24.4835862,32.4492874 L24.4202759,47.1951264 L23.0993563,47.9618851 Z M21.987908,31.008 L21.9245977,47.8907586 L20.5513103,47.0997701 L20.6130575,30.2146667 L21.987908,31.008 Z M15.5325977,42.0873103 L15.5583908,36.5933793 L15.5802759,31.909977 L17.2622989,30.9321839 L17.274023,28.2872184 L17.800046,28.5912644 L19.4453333,29.5409195 L19.3828046,45.9969195 L14.0764598,42.9330115 L15.5325977,42.0873103 Z M13.0416092,42.177977 L13.1025747,25.8775172 L14.4258391,26.6411494 L14.3625287,41.4104368 L13.0416092,42.177977 Z M15.5873103,30.5491954 L15.5998161,27.8385747 L15.6021609,27.3211494 L16.0476782,27.5782989 L16.103954,27.6111264 L16.0922299,30.2568736 L15.5873103,30.5491954 Z M11.9309425,25.2014253 L11.8676322,42.1076322 L10.4943448,41.3166437 L10.556092,24.4073103 L11.9309425,25.2014253 Z M6.46827586,36.8536552 L6.47374713,34.9496552 L9.3531954,33.2762299 L9.32662069,40.1895632 L5.01291954,37.6993563 L6.46827586,36.8536552 Z M4.09374713,36.873977 L4.13673563,20.7001379 L5.33728736,21.3934253 L5.29742529,36.1775632 L4.09374713,36.873977 Z M6.47843678,33.1394483 L6.50970115,22.0710805 L9.38914943,23.7335632 L9.35944828,31.4652414 L6.47843678,33.1394483 Z M5.35291954,15.6274943 L4.14845977,16.3270345 L4.15783908,12.7496092 L5.36229885,12.0531954 L5.35291954,15.6274943 Z M3.3434023,10.8768736 L4.20082759,11.3724138 L3.52395402,11.7663448 L2.66652874,11.2708046 L3.3434023,10.8768736 Z M1.49411494,13.3006437 L1.49411494,11.9468966 L2.97370115,12.8144828 L2.90882759,36.9505747 L1.42924138,36.0829885 L1.49411494,13.3006437 Z M44.6170575,65.0377011 L1.80675862,40.3154023 L1.80910345,39.4595402 L1.80910345,37.6555862 L3.4536092,38.6052414 L3.4543908,38.6044598 L9.31958621,41.9911724 L10.0269425,42.3991724 L44.6194023,62.3755402 L44.6170575,65.0377011 Z M44.6186207,60.5661149 L43.214069,59.7548046 L43.2765977,37.7063908 L43.2773793,37.5234943 L43.2773793,37.4132874 L43.2773793,36.0595402 L44.681931,36.8708506 L44.6186207,60.5661149 Z M44.4490115,35.3826667 L45.1258851,34.9887356 L45.9833103,35.4842759 L45.3064368,35.8782069 L44.4490115,35.3826667 Z M47.1447816,36.1658391 L47.0806897,59.7407356 L45.7793103,60.4488736 L45.8434023,36.873977 L47.1447816,36.1658391 Z M67.5103908,52.4365977 L45.7785287,65.0377011 L45.7808736,62.3950805 L66.065977,50.6326437 L66.0667586,50.6334253 L66.7584828,50.2308966 L67.511954,49.793977 L67.5103908,52.4365977 Z M67.9105747,48.2049655 L66.663908,48.9287356 L66.7287816,28.1183908 L67.9754483,27.3938391 L67.9105747,48.2049655 Z" id="path-1"></path>
    </defs>
    <g id="Symbols" stroke="none" stroke-width="1" fill="none" fill-rule="evenodd">
        <g id="Isometric/balcony" transform="translate(-6.000000, -6.000000)">
            <g id="🎨Icon-Colour" transform="translate(6.000000, 6.000000)">
                <mask id="mask-2" fill="white">
                    <use xlink:href="#path-1"></use>
                </mask>
                <use id="Mask" fill="#000000" fill-rule="nonzero" xlink:href="#path-1"></use>
            </g>
        </g>
    </g>
</svg>