<?xml version="1.0" encoding="UTF-8"?>
<svg width="77px" height="59px" viewBox="0 0 77 59" version="1.1" xmlns="http://www.w3.org/2000/svg" xmlns:xlink="http://www.w3.org/1999/xlink">
    <!-- Generator: Sketch 49.3 (51167) - http://www.bohemiancoding.com/sketch -->
    <title>Mask</title>
    <desc>Created with Sketch.</desc>
    <defs>
        <path d="M2.88328307,39.5896502 L6.32145627,41.5849974 L6.32145627,39.687782 L2.88328307,37.6924348 L2.88328307,39.5896502 Z M68.0939681,29.0077679 C67.7665231,28.8115042 67.0461439,28.5988853 66.0146919,29.3512293 C65.3925463,29.7928225 64.7867729,30.5124559 64.3119776,31.3302212 C63.0185696,33.5545427 63.2805256,35.2554944 64.1809996,35.7788641 C64.3283498,35.8606406 64.5739336,35.9587725 64.8850065,35.9587725 C65.245196,35.9587725 65.7036191,35.82793 66.276648,35.4354027 C66.8987936,34.9938095 67.504567,34.2741761 67.9793623,33.4564108 C68.4541577,32.6222903 68.7652305,31.7554591 68.8470918,30.9867598 C68.9780698,29.711046 68.4377854,29.1876762 68.0939681,29.0077679 Z M67.5373115,30.839562 C67.4718225,31.4119977 67.2262387,32.1152758 66.8333046,32.7858433 C66.4403705,33.4564108 65.9655752,34.0288465 65.4907798,34.3723079 C65.0814735,34.6667034 64.852262,34.6667034 64.8358897,34.6503481 C64.6557949,34.5522162 64.6066782,33.4564108 65.4416631,32.0007887 C65.8345972,31.3302212 66.3093925,30.7577855 66.7841879,30.4143241 C67.1116329,30.1689945 67.3244722,30.1362839 67.4063335,30.1362839 C67.4227057,30.1362839 67.439078,30.1362839 67.439078,30.1362839 C67.4718225,30.1526392 67.5864283,30.3325476 67.5373115,30.839562 Z M40.3921155,47.898145 C40.5394657,46.4425229 39.9009479,45.8373766 39.4916415,45.6084024 C39.0823352,45.3794281 38.2473503,45.1177432 37.0521758,45.9682191 C36.3972857,46.4425229 35.7587678,47.1785116 35.2512279,48.0616981 C34.7436881,48.9285293 34.4326153,49.8607816 34.3343817,50.6621916 C34.1870315,52.1178137 34.8255493,52.72296 35.2348557,52.9519343 C35.4804395,53.099132 35.77514,53.1645532 36.0698406,53.1645532 C36.0698406,53.1645532 36.0698406,53.1645532 36.0698406,53.1645532 C37.2322706,53.1645532 38.4929341,52.1668796 39.458897,50.4986385 C39.9828091,49.6154521 40.3102542,48.699555 40.3921155,47.898145 Z M38.4438173,47.6855261 C38.3947006,48.2088958 38.1491168,48.8794633 37.7889272,49.5009649 C37.1995261,50.5149938 36.5937527,50.9729424 36.2990521,51.1364954 C36.2990521,51.0710742 36.2990521,50.9729424 36.3154244,50.8420999 C36.3645411,50.3187302 36.6101249,49.6481627 36.9703145,49.0266611 C37.3305041,48.4051595 37.7889272,47.8654344 38.2146058,47.5546836 C38.3128393,47.4892624 38.3947006,47.4401965 38.4601896,47.4074859 C38.4438173,47.4729071 38.4438173,47.5710389 38.4438173,47.6855261 Z M75.5924601,16.0380111 L54.5377424,3.90237487 C54.3085308,3.77153243 54.0465748,3.73882182 53.7846187,3.80424304 L50.5592848,4.6874295 L42.8643257,0.222431265 C42.5532529,0.0425229115 42.1766911,0.0425229115 41.8819905,0.222431265 L19.0918139,13.3557411 C18.8953468,13.4702282 18.7479966,13.6337813 18.6661353,13.8300449 L14.573072,23.9376234 L0.44381732,34.0288465 L0.411072813,34.0615571 C0.214605773,34.2414655 0.1,34.5031503 0.1,34.7811905 L0.1,44.2672674 C0.1,44.6107288 0.280094787,44.9378349 0.5911676,45.1177432 L22.8738044,57.9566576 C23.0211547,58.0384341 23.1848772,58.0875 23.364972,58.0875 C23.5286945,58.0875 23.7087893,58.0384341 23.8561396,57.9566576 C23.8725118,57.9566576 29.1280052,54.8982155 31.2891426,53.6388571 C31.6329599,54.8655049 32.3042223,55.7977573 33.2865575,56.3538377 C33.9087031,56.7136544 34.5963378,56.8935627 35.3330892,56.8935627 C36.2171909,56.8935627 37.1340371,56.6482332 38.0672555,56.157574 C39.6553641,55.3234535 41.0961224,53.851476 42.1603188,52.0360372 C43.208143,50.2369536 43.7484274,48.2743171 43.6829384,46.4915888 L60.137053,36.9891567 C60.4972426,38.1013174 61.1521327,38.9681486 62.0526066,39.4915183 C62.6747523,39.851335 63.3623869,40.0312434 64.1155106,40.0312434 C66.538604,40.0312434 69.2072813,38.1176727 70.9263679,35.1573625 C72.2034037,32.9493964 72.7109436,30.5778772 72.3671262,28.5988853 L75.5760879,25.9166153 C75.7889272,25.7367069 75.9199052,25.475022 75.9199052,25.1806265 L76.1,16.9211976 C76.1,16.5613809 75.903533,16.2179195 75.5924601,16.0380111 Z M22.3662645,54.276714 L22.3662645,55.40523 L2.0646704,43.6948317 L2.0646704,42.4845391 L22.3662645,54.276714 Z M22.3662645,48.1761852 L22.3662645,52.0033266 L2.0646704,40.2111517 L2.0646704,36.3840104 L22.3662645,48.1761852 Z M63.0676863,30.6269431 C63.9354158,29.122255 65.114218,27.9283178 66.3748815,27.2577503 C67.0133994,26.9142889 67.635545,26.7507358 68.1922016,26.7507358 C68.5851357,26.7507358 68.9453253,26.8488676 69.2563981,27.0124207 C70.025894,27.4540139 70.4679449,28.4680428 70.4843171,29.7764672 C70.5006894,31.1503128 70.0422663,32.7531327 69.2236536,34.1760442 C68.4050409,35.5989558 67.2426109,36.792893 66.0474364,37.4634605 C64.9013787,38.1013174 63.8044377,38.2321599 63.0349418,37.7905666 C62.2818182,37.3653287 61.8561396,36.4330763 61.8070228,35.1737178 C61.7415338,33.734451 62.1999569,32.1316311 63.0676863,30.6269431 Z M65.4580353,25.5240879 C63.8699268,26.3582085 62.4291685,27.8301859 61.364972,29.6456248 C60.3826368,31.3465765 59.8423524,33.1947259 59.8259802,34.8793223 L43.2900043,44.4308204 C42.9134425,43.4331468 42.2912969,42.6644475 41.4563119,42.1901436 C38.7712624,40.652745 34.8746661,42.5499603 32.5825506,46.5242994 C32.4024558,46.8350502 32.2387333,47.145801 32.091383,47.4729071 L24.3309349,51.9542607 L24.3309349,48.1271193 L38.1491168,38.2812258 C38.1982335,38.2485152 38.230978,38.2158045 38.2800948,38.1667386 L68.9125808,20.5030093 L74.0698406,18.3768197 L73.9388626,24.6899674 L71.6140026,26.6362487 C71.253813,26.0801683 70.7953899,25.6222198 70.2223611,25.311469 C68.8798363,24.5264143 67.1934942,24.6081909 65.4580353,25.5240879 Z M34.2525205,54.652886 C32.6152951,53.7042783 32.6316674,50.3677961 34.285265,47.5056177 C35.6114175,45.215875 37.7070659,43.6294105 39.4097803,43.6294105 C39.8027143,43.6294105 40.1629039,43.711187 40.4739767,43.8910953 C41.2271004,44.3163333 41.652779,45.2485857 41.7018957,46.5079441 C41.7510125,47.9308557 41.3089617,49.5500308 40.4412322,51.0547189 C39.5735028,52.5594069 38.3947006,53.7533442 37.1340371,54.4239117 C36.0207238,54.9963474 35.0056441,55.0781239 34.2525205,54.652886 Z M50.0517449,23.4633195 L50.0517449,29.1058997 L39.5898751,35.1410072 L42.5696252,27.78112 L50.0517449,23.4633195 Z M68.863464,18.4095303 L65.4416631,13.4211623 C65.3598018,13.2903199 65.2615683,13.1921881 65.1305903,13.1104115 C65.0814735,13.0777009 57.7794485,8.85803225 52.9496338,6.06127511 L53.8992245,5.79959024 L72.8746661,16.7412892 L68.863464,18.4095303 Z M63.1822921,21.5497489 L62.0362344,16.5450256 L64.2956053,15.2366012 L67.0788884,19.2927168 L63.1822921,21.5497489 Z M52.0164153,27.9773837 L52.0164153,22.3184482 L60.2516588,17.5590545 L61.3977165,22.5474225 L52.0164153,27.9773837 Z M21.4494184,14.2552829 L42.3731581,2.20142316 L62.6092632,13.9445321 L41.7673847,25.9820365 L21.4494184,14.2552829 Z M16.6523481,24.0521105 L20.0250323,15.6945497 L40.555838,27.5357904 L37.1831538,35.8933513 L16.6523481,24.0521105 Z M35.9552348,37.4471052 L23.3158552,46.4588782 L2.94877208,34.6339928 L15.5226626,25.6712857 L35.9552348,37.4471052 Z M31.1909091,50.253309 C31.1090478,50.6785469 31.0763033,51.0874295 31.0599311,51.4963121 L24.3473072,55.4215853 L24.3473072,54.2112927 L31.1909091,50.253309 Z M21.8750969,48.5032913 L21.8750969,51.1528507 L17.7820336,48.7649762 L17.7820336,46.1154168 L21.8750969,48.5032913 Z" id="path-1"></path>
    </defs>
    <g id="Symbols" stroke="none" stroke-width="1" fill="none" fill-rule="evenodd">
        <g id="05_icons/isometric/car" transform="translate(-2.000000, -12.000000)">
            <g id="🎨Icon-Colour" transform="translate(2.000000, 12.000000)">
                <mask id="mask-2" fill="white">
                    <use xlink:href="#path-1"></use>
                </mask>
                <use id="Mask" fill="#000000" xlink:href="#path-1"></use>
            </g>
        </g>
    </g>
</svg>