<?xml version="1.0" encoding="UTF-8"?>
<svg width="43px" height="79px" viewBox="0 0 43 79" version="1.1" xmlns="http://www.w3.org/2000/svg" xmlns:xlink="http://www.w3.org/1999/xlink">
    <!-- Generator: Sketch 49.3 (51167) - http://www.bohemiancoding.com/sketch -->
    <title>Mask</title>
    <desc>Created with Sketch.</desc>
    <defs>
        <path d="M41.9350746,13.7641791 L41.9350746,13.5977612 L41.7686567,13.7641791 L16.3067164,0.95 L16.1402985,0.95 L0.663432836,8.10597015 L0.497014925,7.93955224 L0.497014925,65.5201493 L0.663432836,65.5201493 L26.7910448,79 L41.4358209,71.6776119 L41.9350746,71.511194 L42.1014925,71.3447761 L41.9350746,13.7641791 Z M39.9380597,68.3492537 L39.9380597,70.0134328 L27.9559701,76.1708955 L27.9559701,74.3402985 L39.9380597,68.3492537 Z M27.9559701,48.3791045 L27.9559701,22.9171642 L39.9380597,16.9261194 L39.9380597,42.3880597 L27.9559701,48.3791045 Z M39.9380597,45.3835821 L39.9380597,66.019403 L27.9559701,72.0104478 L27.9559701,52.3731343 L27.9559701,51.3746269 L39.9380597,45.3835821 Z M16.1402985,3.11343284 L39.438806,14.7626866 L26.7910448,21.0865672 L2.99328358,9.27089552 L16.1402985,3.11343284 Z M2.49402985,64.3552239 L2.49402985,62.6910448 L25.7925373,74.3402985 L25.7925373,76.3373134 L2.49402985,64.3552239 Z M2.49402985,60.361194 L2.49402985,39.7253731 L25.7925373,51.3746269 L25.7925373,72.0104478 L2.49402985,60.361194 Z M2.49402985,37.0626866 L2.49402985,11.2679104 L25.7925373,22.9171642 L25.7925373,48.7119403 L2.49402985,37.0626866 Z M22.1313433,57.3656716 L22.630597,57.5320896 L23.1298507,57.3656716 L22.630597,57.5320896 L22.1313433,57.3656716 L22.1313433,63.6895522 L22.630597,64.0223881 L23.1298507,63.6895522 L24.6276119,63.0238806 L24.6276119,62.5246269 L23.1298507,63.1902985 L24.6276119,62.5246269 L23.9619403,62.191791 L23.1298507,62.6910448 L23.1298507,57.8649254 L24.6276119,57.1992537 L24.6276119,56.7 L23.1298507,57.3656716 L24.6276119,56.7 L23.9619403,56.3671642 L22.1313433,57.3656716 Z M22.1313433,30.738806 L22.630597,30.9052239 L23.1298507,30.738806 L22.630597,30.9052239 L22.1313433,30.738806 L22.1313433,37.0626866 L22.630597,37.3955224 L23.1298507,37.0626866 L24.6276119,36.3970149 L24.6276119,35.8977612 L23.1298507,36.5634328 L24.6276119,35.8977612 L23.9619403,35.5649254 L23.1298507,36.0641791 L23.1298507,31.2380597 L24.6276119,30.5723881 L24.6276119,30.0731343 L23.1298507,30.738806 L24.6276119,30.0731343 L23.9619403,29.7402985 L22.1313433,30.738806 Z" id="path-1"></path>
    </defs>
    <g id="Symbols" stroke="none" stroke-width="1" fill="none" fill-rule="evenodd">
        <g id="05_icons/isometric/fridge" transform="translate(-18.000000, 0.000000)">
            <g id="🎨Icon-Colour" transform="translate(18.000000, 0.000000)">
                <mask id="mask-2" fill="white">
                    <use xlink:href="#path-1"></use>
                </mask>
                <use id="Mask" fill="#231F20" fill-rule="nonzero" xlink:href="#path-1"></use>
            </g>
        </g>
    </g>
</svg>