<?xml version="1.0" encoding="UTF-8"?>
<svg width="76px" height="60px" viewBox="0 0 76 60" version="1.1" xmlns="http://www.w3.org/2000/svg" xmlns:xlink="http://www.w3.org/1999/xlink">
    <!-- Generator: Sketch 49.3 (51167) - http://www.bohemiancoding.com/sketch -->
    <title>Mask</title>
    <desc>Created with Sketch.</desc>
    <defs>
        <path d="M76,34.4029851 L76,13.358209 C76,13.3432836 76,13.3283582 75.9851563,13.3134328 C75.9851563,13.2537313 75.9703125,13.1791045 75.9554687,13.119403 C75.940625,13.0447761 75.9257812,12.9701493 75.9109375,12.9104478 C75.8960937,12.880597 75.8960937,12.8507463 75.88125,12.8208955 C75.88125,12.8059701 75.88125,12.7910448 75.8664062,12.7761194 C75.8367188,12.7313433 75.8070312,12.7014925 75.7773437,12.6567164 C75.7476562,12.5970149 75.703125,12.5373134 75.6585937,12.4776119 C75.6289062,12.4477612 75.6140625,12.4328358 75.584375,12.4029851 C75.525,12.358209 75.465625,12.3134328 75.40625,12.2835821 C75.3765625,12.2537313 75.3320312,12.2238806 75.2875,12.1940299 L51.2257813,0.119402985 C51.1960938,0.104477612 51.1664063,0.104477612 51.1367188,0.0895522388 C50.825,-0.0298507463 50.4835938,-0.0298507463 50.171875,0.0895522388 C50.1421875,0.104477612 50.1125,0.104477612 50.0828125,0.119402985 L45.0210937,2.67164179 C45.00625,2.67164179 45.00625,2.68656716 44.9914062,2.70149254 C44.9765625,2.71641791 44.946875,2.71641791 44.9171875,2.73134328 C44.8132812,2.79104478 44.7242187,2.88059701 44.6351563,2.97014925 C44.6203125,2.98507463 44.6054688,3.01492537 44.590625,3.04477612 C44.5164062,3.14925373 44.4570312,3.25373134 44.4125,3.35820896 C44.3976562,3.3880597 44.3828125,3.41791045 44.3828125,3.44776119 C44.3382813,3.56716418 44.3234375,3.68656716 44.3234375,3.82089552 L44.3234375,13.2238806 L10.4054688,30.238806 L6.2640625,28.1492537 C6.234375,28.1343284 6.2046875,28.1343284 6.175,28.119403 C5.86328125,28 5.521875,28 5.21015625,28.119403 C5.18046875,28.1343284 5.15078125,28.1343284 5.12109375,28.1492537 L0.69765625,30.3731343 C0.178125,30.641791 -0.0890625,31.2238806 0.059375,31.7910448 C0.0296875,31.9104478 0,32.0298507 0,32.1492537 L0,47.238806 L12.6320312,53.6119403 C12.6320312,53.5970149 12.6320312,53.6268657 12.6320312,53.6119403 L19,56.8059701 L25.353125,60 L31.6765625,56.8059701 L62.7296875,41.1940299 L76,34.4029851 Z M40.25625,18.3880597 L41.8296875,19.1791045 C39.1875,20.4776119 36.8421875,22.4029851 37.4804688,23.880597 L37.5695313,24.0895522 L49.6078125,30.6119403 C50.1867188,31.0447761 50.8992188,31.2537313 51.6117188,31.1940299 C51.7453125,31.1940299 51.89375,31.1940299 52.0421875,31.1791045 C53.5265625,31.0447761 54.98125,30.641791 56.346875,30.0149254 C57.4898438,29.5223881 58.5585938,28.8656716 59.5382813,28.0895522 L61.9726563,29.3134328 L50.70625,34.9552239 L28.7226562,23.8955224 L40.0632813,18.2089552 C40.0929688,18.2835821 40.1671875,18.3432836 40.25625,18.3880597 Z M62.7,30.358209 L62.7,32.7164179 L51.3,38.4477612 L51.3,36.0746269 L62.7,30.358209 Z M58.425,24.9104478 C58.54375,24.8955224 58.6625,24.8955224 58.7664063,24.8955224 C59.5085938,24.8955224 59.9390625,25.0746269 60.0132813,25.2537313 C60.2359375,25.761194 58.8109375,27.5074627 55.8125,28.8358209 C54.5953125,29.4029851 53.2890625,29.761194 51.953125,29.8955224 C50.9882813,29.9552239 50.4539063,29.761194 50.3648438,29.5522388 C50.1421875,29.0447761 51.5671875,27.2985075 54.565625,25.9701493 C55.7679688,25.4029851 57.0742188,25.0447761 58.425,24.9104478 Z M54.0460938,24.8059701 C51.7007813,25.8507463 49.5929688,27.4477612 49.1625,28.9253731 L38.653125,23.2238806 C38.8164063,22.6865672 40.1820313,21.2835821 42.9726563,20.0447761 C44.3976563,19.3432836 45.95625,18.9402985 47.559375,18.8656716 L57.296875,23.7761194 C56.16875,23.9850746 55.0703125,24.3432836 54.0460938,24.8059701 Z M45.6,15.4179104 L67.5984375,26.4776119 L63.3828125,28.5970149 L60.4882813,27.1492537 C61.1710938,26.5522388 61.4382813,25.6119403 61.1710938,24.7462687 C60.978125,24.3432836 60.6515625,24.0447761 60.2359375,23.880597 L60.2507813,23.8507463 L47.7523438,17.6119403 C46.2382813,17.6268657 44.7539063,17.9402985 43.3585938,18.5223881 L41.3992188,17.5373134 L45.6,15.4179104 Z M68.4,27.4925373 L68.4,29.8507463 L63.9617188,32.0746269 L63.9617188,29.7164179 L68.4,27.4925373 Z M46.8617187,5.86567164 L68.4,16.6865672 L68.4,24.0298507 L46.8617187,13.2089552 L46.8617187,5.86567164 Z M70.9382813,37.0746269 L73.4765625,35.8059701 L70.9382813,37.0746269 Z M70.9382813,16.7014925 L73.4765625,15.4328358 L73.4765625,32.9552239 L70.9382813,34.2238806 L70.9382813,16.7014925 Z M48.4351563,3.80597015 L50.6617188,2.68656716 L71.903125,13.358209 L69.6765625,14.4776119 L48.4351563,3.80597015 Z M31.6617188,49.7313433 L68.4,31.2686567 L68.4,35.5074627 L31.6617188,53.9701493 L31.6617188,49.7313433 Z M31.6617188,45.9104478 L44.9617188,39.238806 L44.9617188,41.6119403 L31.6617188,48.2985075 L31.6617188,45.9104478 Z M44.2046875,38.2089552 L31.6765625,44.4925373 L31.6765625,41.7014925 C31.6765625,41.5820896 31.6617187,41.4477612 31.6171875,41.3283582 C31.6023437,41.2985075 31.5875,41.2686567 31.5875,41.238806 C31.5429687,41.119403 31.4835937,41.0149254 31.409375,40.9253731 C31.3945312,40.8955224 31.3796875,40.880597 31.3648437,40.8507463 C31.290625,40.761194 31.1867187,40.6716418 31.0828125,40.6119403 C31.0679687,40.5970149 31.0382812,40.5970149 31.0085937,40.5820896 C30.99375,40.5820896 30.99375,40.5671642 30.9789062,40.5522388 L13.240625,31.6567164 L22.2953125,27.119403 L44.2046875,38.2089552 Z M26.6,59.358209 L29.1382812,58.0895522 L26.6,59.358209 Z M26.6,45.0298507 L29.1382812,43.761194 L29.1382812,55.238806 L26.6,56.5074627 L26.6,45.0298507 Z M3.45859375,31.8358209 L5.68515625,30.7164179 L27.55,41.7164179 L25.3234375,42.8358209 L3.45859375,31.8358209 Z M21.5382812,58.0895522 L24.0765625,59.358209 L21.5382812,58.0895522 Z M7.6,51.0895522 L10.1382812,52.358209 L7.6,51.0895522 Z M2.53828125,48.5373134 L5.0765625,49.8059701 L2.53828125,48.5373134 Z M2.53828125,45.6865672 L2.53828125,34.2089552 L24.0765625,45.0298507 L24.0765625,56.5074627 L2.53828125,45.6865672 Z" id="path-1"></path>
    </defs>
    <g id="Symbols" stroke="none" stroke-width="1" fill="none" fill-rule="evenodd">
        <g id="05_icons/isometric/bed" transform="translate(-2.000000, -12.000000)">
            <g id="🎨Icon-Colour" transform="translate(2.000000, 12.000000)">
                <mask id="mask-2" fill="white">
                    <use xlink:href="#path-1"></use>
                </mask>
                <use id="Mask" fill="#000000" xlink:href="#path-1"></use>
            </g>
        </g>
    </g>
</svg>