<?xml version="1.0" encoding="UTF-8"?>
<svg width="74px" height="66px" viewBox="0 0 74 66" version="1.1" xmlns="http://www.w3.org/2000/svg" xmlns:xlink="http://www.w3.org/1999/xlink">
    <!-- Generator: Sketch 49.3 (51167) - http://www.bohemiancoding.com/sketch -->
    <title>Mask</title>
    <desc>Created with Sketch.</desc>
    <defs>
        <path d="M70.8507755,23.7874567 L28.9655172,2.84482759 L1.03448276,16.5517241 L0,14.4827586 L28.9655172,7.81597009e-14 L73.4482759,22.2413793 L73.3008589,22.5730676 L73.4482759,22.5 L73.4482759,50.9482759 L44.7413793,65.4310345 L43.4482759,63.1034483 L70.862069,49.3965517 L70.862069,26.637931 L45,39.5689655 L43.7068966,37.2413793 L70.8507755,23.7874567 Z M9.31034483,35.4310345 C9.56896552,35.4310345 10.0862069,35.4310345 10.3448276,35.6896552 C11.3793103,36.4655172 12.4137931,37.7586207 12.4137931,39.0517241 C12.4137931,39.8275862 11.8965517,40.3448276 11.1206897,40.3448276 C10.862069,40.3448276 10.3448276,40.3448276 10.0862069,40.0862069 C9.05172414,39.3103448 8.01724138,38.0172414 8.01724138,36.7241379 C8.01724138,35.9482759 8.53448276,35.4310345 9.31034483,35.4310345 Z M0,14.2241379 L44.7413793,36.7241379 L44.7413793,65.4310345 L0,42.9310345 L0,14.2241379 Z M2.5862069,18.6206897 L2.5862069,41.3793103 L42.1551724,61.2931034 L42.1551724,38.5344828 L2.5862069,18.6206897 Z M6.98275862,26.5086207 L13.7068966,29.8706897 L13.7068966,27.6724138 L6.98275862,24.3103448 L6.98275862,26.5086207 Z M6.98275862,29.612069 L6.98275862,40.0862069 L13.7068966,43.4482759 L13.7068966,32.9741379 L6.98275862,29.612069 Z M15.2586207,28.4482759 L15.2586207,44.2241379 L38.0172414,55.6034483 L38.0172414,39.8275862 L15.2586207,28.4482759 Z M4.9137931,20.4310345 C5.17241379,20.4310345 5.17241379,20.4310345 5.43103448,20.6896552 L39.3103448,38.0172414 C39.8275862,38.2758621 40.3448276,39.0517241 40.3448276,39.5689655 L40.3448276,58.9655172 C40.3448276,59.2241379 40.0862069,59.4827586 39.8275862,59.4827586 C39.5689655,59.4827586 39.5689655,59.2241379 39.3103448,59.2241379 L5.43103448,42.1551724 C4.9137931,41.8965517 4.39655172,41.1206897 4.39655172,40.6034483 L4.39655172,21.2068966 C4.39655172,20.6896552 4.65517241,20.4310345 4.9137931,20.4310345 Z" id="path-1"></path>
    </defs>
    <g id="Symbols" stroke="none" stroke-width="1" fill="none" fill-rule="evenodd">
        <g id="05_icons/isometric/oven" transform="translate(-3.000000, -6.000000)">
            <g id="🎨Icon-Colour" transform="translate(3.000000, 6.000000)">
                <mask id="mask-2" fill="white">
                    <use xlink:href="#path-1"></use>
                </mask>
                <use id="Mask" fill="#231F20" fill-rule="nonzero" xlink:href="#path-1"></use>
            </g>
        </g>
    </g>
</svg>