<?xml version="1.0" encoding="UTF-8"?>
<svg width="60px" height="78px" viewBox="0 0 60 78" version="1.1" xmlns="http://www.w3.org/2000/svg" xmlns:xlink="http://www.w3.org/1999/xlink">
    <!-- Generator: Sketch 51.2 (57519) - http://www.bohemiancoding.com/sketch -->
    <title>Mask</title>
    <desc>Created with Sketch.</desc>
    <defs>
        <path d="M24.1093005,0 L0.202516148,11.5483599 L0,11.5483599 L0,11.750876 L0,11.9533922 L0,60.3745092 L34.6442563,77.7974839 L35.0492886,78 L35.0492886,77.7974839 L58.956073,66.8574957 L59.1585891,66.8574957 L59.1585891,17.4237979 L24.1093005,0 Z M32.4157555,74.1505467 L2.43184025,58.956073 L2.43184025,15.3978131 L32.4165787,30.5922869 L32.4165787,74.1505467 L32.4157555,74.1505467 Z M33.6316756,28.363786 L3.03938869,12.9659729 L24.1093005,2.63353316 L54.9041035,18.0305231 L33.6316756,28.363786 Z M56.5250559,65.0340271 L35.0501119,74.9606113 L35.0501119,30.3897708 L56.5250559,20.057331 L56.5250559,65.0340271 Z M17.4325,24.405 L3.48666667,17.4325 L3.48666667,24.2 L17.4325,31.3775 L17.4325,24.405 Z M14.9716667,27.2758333 L5.94833333,22.7641667 L5.94833333,21.5333333 L14.9716667,26.045 L14.9716667,27.2758333 Z M17.2275,33.6333333 C15.1766667,32.6075 13.1258333,31.9925 11.28,31.9925 C6.76833333,31.9925 3.69166667,35.2741667 3.69166667,40.4008333 C3.69166667,47.7841667 9.63916667,56.8075 17.0216667,60.4991667 C19.0725,61.5241667 21.1233333,62.14 22.9691667,62.14 C27.4808333,62.14 30.5575,58.8583333 30.5575,53.7316667 C30.5575,46.3483333 24.61,37.325 17.2275,33.6333333 Z M22.97,59.6791667 C21.5341667,59.6791667 19.8941667,59.2691667 18.0483333,58.4483333 C11.4858333,55.1666667 6.15333333,46.9641667 6.15333333,40.6058333 C6.15333333,36.9141667 7.99916667,34.6583333 11.28,34.6583333 C12.7158333,34.6583333 14.3558333,35.0683333 16.2016667,35.8891667 C22.5591667,39.1708333 28.0966667,47.3741667 28.0966667,53.7316667 C28.0966667,57.4233333 26.2508333,59.6791667 22.97,59.6791667 Z M19.2933333,47.1766667 C19.255,47.2333333 18.3208333,48.5808333 16.8833333,47.9591667 C14.9808333,47.1325 15.3866667,45.6833333 15.4366667,45.5258333 C15.545,45.2108333 15.3875,44.8666667 15.0791667,44.7425 C14.7691667,44.6208333 14.4183333,44.7591667 14.2783333,45.0608333 C14.0116667,45.64 13.1191667,45.8008333 12.7191667,45.7308333 C11.7983333,45.5616667 11.71,44.5725 11.7025,44.4616667 L11.0783333,44.4958333 L10.4541667,44.5258333 C10.4891667,45.2441667 10.9591667,46.6791667 12.4933333,46.96 C12.9533333,47.045 13.6058333,46.9875 14.1966667,46.7275 C14.3966667,47.5791667 14.9975,48.5041667 16.385,49.1058333 C17.6583333,49.6608333 18.7533333,49.2758333 19.4983333,48.725 C19.7233333,49.2358333 20.0833333,49.8008333 20.6225,50.2508333 C21.1108333,50.6566667 21.895,51.0858333 23.0358333,51.0858333 C23.3208333,51.0858333 23.6291667,51.0591667 23.9591667,50.9983333 L23.7333333,49.7691667 C22.8033333,49.9383333 22.035,49.7866667 21.45,49.3133333 C20.6491667,48.6666667 20.4391667,47.6541667 20.435,47.5258333 C20.435,47.2508333 20.2558333,47.0083333 19.9925,46.9283333 C19.7325,46.8483333 19.4475,46.9483333 19.2933333,47.1766667 Z M15.1766667,36.3 C13.5358333,35.685 12.1008333,35.48 10.87,35.685 C9.43416667,35.89 8.20416667,36.9158333 7.58833333,38.1458333 C6.97333333,39.5816667 6.76833333,41.4275 7.17833333,43.4783333 C8.20416667,49.4258333 13.5358333,55.9883333 19.0733333,58.0391667 C20.3041667,58.4491667 21.3291667,58.6541667 22.1491667,58.6541667 C22.5591667,58.6541667 22.9691667,58.6541667 23.1741667,58.6541667 C24.61,58.4491667 25.84,57.4233333 26.4558333,56.1933333 C27.0708333,54.7575 27.2758333,52.9116667 26.8658333,50.8608333 C26.0458333,44.9133333 20.7141667,38.35 15.1766667,36.3 Z M24.8158333,54.1416667 C24.6108333,55.1675 23.7908333,55.7825 22.765,55.9875 C21.945,56.1925 20.7141667,55.9875 19.4833333,55.5775 C14.7666667,53.7316667 10.0491667,48.1941667 9.22916667,43.0675 C9.02416667,42.2475 9.02416667,41.2216667 9.22916667,40.1966667 C9.43416667,39.1716667 10.255,38.5558333 11.28,38.3508333 C11.485,38.3508333 11.69,38.3508333 12.1,38.3508333 C12.92,38.3508333 13.7408333,38.3508333 14.5608333,38.7608333 C19.2775,40.6066667 23.995,46.1433333 24.815,51.2708333 C25.0208333,52.0908333 25.0208333,53.1166667 24.8158333,54.1416667 Z M24.405,32.8133333 C23.38,32.1983333 22.5591667,30.9675 22.5591667,30.1475 C22.5591667,29.3266667 23.175,28.9166667 23.79,28.9166667 C23.995,28.9166667 24.405,28.9166667 24.61,29.1216667 C25.6358333,29.5316667 26.4558333,30.7625 26.4558333,31.7875 C26.4558333,32.6083333 25.84,33.0183333 25.225,33.0183333 C25.02,33.0183333 24.61,33.0183333 24.405,32.8133333 Z M29.7375,35.4791667 C28.7116667,35.0691667 27.8916667,33.8383333 27.8916667,32.8133333 C27.8916667,31.9925 28.5075,31.5825 29.1225,31.5825 C29.3275,31.5825 29.7375,31.5825 29.9425,31.7875 C30.9683333,32.1975 31.7883333,33.4283333 31.7883333,34.4533333 C31.7883333,35.2741667 31.1725,35.6841667 30.5575,35.6841667 C30.3525,35.6841667 29.9425,35.6841667 29.7375,35.4791667 Z" id="path-1"></path>
    </defs>
    <g id="Symbols" stroke="none" stroke-width="1" fill="none" fill-rule="evenodd">
        <g id="Isometric/washing" transform="translate(-10.000000, -1.000000)">
            <g id="🎨Icon-Colour" transform="translate(10.000000, 1.000000)">
                <mask id="mask-2" fill="white">
                    <use xlink:href="#path-1"></use>
                </mask>
                <use id="Mask" fill="#231F20" fill-rule="nonzero" xlink:href="#path-1"></use>
            </g>
        </g>
    </g>
</svg>