<?xml version="1.0" encoding="UTF-8"?>
<svg width="75px" height="47px" viewBox="0 0 75 47" version="1.1" xmlns="http://www.w3.org/2000/svg" xmlns:xlink="http://www.w3.org/1999/xlink">
    <!-- Generator: Sketch 51.2 (57519) - http://www.bohemiancoding.com/sketch -->
    <title>Mask</title>
    <desc>Created with Sketch.</desc>
    <defs>
        <path d="M13.7189472,29.7490405 C13.1497235,29.4197039 12.5796866,29.2416182 12.0576272,29.2416182 C11.7120271,29.2416182 11.3875696,29.3196831 11.0980786,29.4855712 C9.64574502,30.3109456 9.63923961,33.0058132 11.0810019,35.5014526 C11.8006633,36.7496788 12.7488274,37.7132932 13.6953651,38.2613744 C14.265402,38.5898978 14.836252,38.7687966 15.3583115,38.7687966 C15.7039116,38.7687966 16.0283691,38.6907317 16.3170468,38.5256568 C17.7677541,37.7002824 17.776699,35.0054148 16.3349367,32.5097754 C15.613649,31.2582964 14.6679244,30.2971216 13.7189472,29.7490405 Z M15.3583115,36.8911716 C15.2924442,36.8911716 15.0460516,36.8724685 14.6353974,36.6358341 C13.9368786,36.2316853 13.2342939,35.4762441 12.7065422,34.5622335 C11.6664892,32.7618602 11.8112346,31.3412405 12.0129025,31.1224959 C12.0129025,31.1224959 12.0267265,31.1192432 12.0576272,31.1192432 C12.1234945,31.1192432 12.3690739,31.1379463 12.7805413,31.3753939 C13.4790601,31.7787295 14.1824579,32.5341707 14.7102096,33.4481814 C15.7494495,35.2469283 15.6038909,36.6683612 15.3583115,36.8911716 Z M63.4690989,16.7260153 L59.8927477,18.8101872 L61.4995849,19.7380218 L63.4650331,18.6060799 L72.9190256,24.1137258 L71.0048076,25.2261515 L59.8935609,18.8101872 L59.8732315,25.8303418 L47.5080663,34.5890683 C47.2576079,34.3817082 46.9656774,34.1930512 46.6395936,34.0255368 L46.6900105,28.0787755 L55.8496331,22.7727974 C58.002925,21.5457137 58.5981704,18.643486 58.0175622,15.3956582 C58.7965855,11.1825896 55.2218607,4.69587888 49.7459286,1.53343462 C48.6229316,0.885332771 46.8794807,0.578765147 45.2661381,0.578765147 C43.9105725,0.578765147 42.647709,0.795070155 41.9256081,1.20653758 L1.99863115,24.2731084 L1.99700479,24.2739216 C1.99700479,24.2739216 -0.49863456,26.1360963 1.10088405,29.4205171 C1.53755995,30.317451 2.30926465,30.6768751 3.23384659,30.6768751 C3.99091411,30.6768751 4.8504419,30.4288562 5.71240923,30.0442236 C5.84333068,32.264196 6.6109695,34.808626 8.03158923,37.2684856 C9.60183348,39.9869354 11.665676,42.0857445 13.731958,43.2786747 C14.9761184,43.9967098 16.221092,44.3870346 17.3603526,44.3870346 C18.112541,44.3870346 18.8183784,44.2170807 19.4477772,43.8584697 C19.4672934,43.8470852 19.483557,43.8316349 19.5030732,43.8202504 L19.4990073,43.8291954 L39.00793,32.5284785 L38.994106,34.1434474 C38.994106,34.1434474 38.9932929,34.1434474 38.9932929,34.1434474 C37.9784483,34.7289347 37.34661,35.5364192 37.3401046,36.4301004 C37.3401046,36.4455507 37.3433573,36.4601879 37.3441705,36.4756383 L37.3409178,36.4715724 L37.3653131,42.8696468 C37.3539286,44.6862836 39.9056771,46.1134088 42.9250023,46.1134088 C43.3657441,46.1134088 43.816244,46.0833212 44.2699966,46.0190803 C46.0923256,45.7637428 48.5342953,44.7212502 48.546493,42.8834708 L48.5432403,42.0629755 L60.1521511,38.8956522 L70.9486984,45.1302781 L74.5095993,43.0599302 L74.5657085,23.1566168 L63.4690989,16.7260153 Z M42.7322794,2.61983871 C43.0941431,2.41329183 44.018725,2.20511859 45.2677644,2.20511859 C46.720098,2.20511859 48.1586077,2.49379632 48.9335651,2.9418567 C52.5831022,5.04879758 56.5139985,9.95306638 56.5018008,14.2019147 C56.4977349,15.6087105 56.0073894,16.5999729 55.03483,17.1545594 L30.4403001,31.4119868 C28.7553979,32.1023739 27.2794822,32.4382159 25.9296088,32.4382159 C22.7029236,32.4382159 20.482138,30.4548778 17.6701729,27.9437881 C17.4319121,27.7307358 17.18308,27.5128045 16.939127,27.2956863 C15.9625018,26.2540069 14.9216356,25.4058636 13.8758903,24.7886625 C12.1649665,23.5566997 10.4906356,22.6825348 8.86509537,22.1848706 L42.7322794,2.61983871 Z M5.76038665,28.2243341 L5.57091648,28.3137835 C4.6585322,28.7886787 3.82827877,29.0497085 3.23384659,29.0497085 C2.72967702,29.0497085 2.64510664,28.8756887 2.56297579,28.7073611 C1.70100847,26.9370754 2.55809673,25.9360548 2.91426813,25.6229818 L6.87281241,23.3973171 C7.42008034,23.4761952 8.00882029,23.6136221 8.63496636,23.8209822 L8.06736901,24.1495056 C8.22431212,24.0600561 8.38694746,23.9819912 8.55283551,23.9153107 C8.38613428,23.9819912 8.22431212,24.0592429 8.06736901,24.1495056 C6.74595684,24.9057599 5.98157072,26.3767966 5.76038665,28.2243341 Z M19.8771345,40.4301167 C19.6234234,41.3652699 19.1778025,42.019064 18.5500301,42.3760486 C18.1865401,42.5834086 17.7588092,42.6891216 17.2798481,42.6891216 C16.4561001,42.6891216 15.4924856,42.3849935 14.495531,41.8092644 C12.6252245,40.7285525 10.7793134,38.7687966 9.43106637,36.4317267 C7.62906676,33.3123808 6.90371312,29.9198076 7.53880414,27.5778586 C7.79251528,26.6435186 8.23813612,25.9897245 8.86672173,25.6319267 C9.22939854,25.4245667 9.65631632,25.3196669 10.1352774,25.3196669 C10.9582122,25.3196669 11.9210135,25.6246081 12.9187813,26.2003372 C13.3375673,26.4418507 13.754727,26.7337812 14.1653812,27.0582387 C14.306874,27.1737098 14.4459272,27.2908072 14.5841672,27.4070915 C15.8527229,28.5008142 17.0415873,29.9433897 17.9864986,31.5786881 C19.7876851,34.6964076 20.5122255,38.0881677 19.8771345,40.4301167 Z M21.5823661,40.7334316 C22.1532162,38.406933 21.6945845,35.2623786 20.2024052,32.125956 C21.894626,33.285546 23.6974387,34.0645693 25.9296088,34.0645693 C27.4437439,34.0645693 29.1546677,33.7083979 31.1615879,32.8740786 L55.8504463,18.5621683 C56.1269263,18.404412 56.3725057,18.2222604 56.5961293,18.0238453 C56.5408333,19.2484895 56.2090572,20.6967572 55.03483,21.3660016 L21.5823661,40.7334316 Z M45.0555253,29.0245 L44.9920975,36.4260345 C44.9506255,36.4756383 44.8538575,36.5659009 44.6741454,36.6667348 C44.198437,36.9350831 43.5552143,37.0830813 42.8615745,37.0830813 C41.6019638,37.0830813 40.774963,36.6244496 40.6001301,36.4065183 L40.6407889,31.5811276 L45.0555253,29.0245 Z M44.0414939,44.4089904 C43.6723117,44.4610337 43.2966241,44.4870553 42.9241891,44.4870553 C41.175046,44.4870553 39.8219199,43.9137657 39.2567621,43.3453552 C39.1567414,43.2445213 38.9900401,43.0509852 38.9908533,42.8631414 L38.9827216,38.7330169 C39.9886212,39.313625 41.3742743,39.6730491 42.9079256,39.6754887 C44.4505218,39.677115 45.8516253,39.3168777 46.8664699,38.7313905 C46.8819202,38.7224456 46.894931,38.7126874 46.9095682,38.7037425 L46.9095682,40.514687 L46.9193263,42.8728995 C46.9152605,43.3868272 45.6320676,44.1869931 44.0414939,44.4089904 Z M49.006751,40.2512178 L49.0043115,39.4795131 L66.7616515,31.5266448 L66.7697833,35.4046845 L49.006751,40.2512178 Z M69.3288504,42.318313 L62.3591127,38.2939014 L68.3977631,36.6464054 L68.3823127,29.0188078 L48.5253504,37.9117084 L48.5196581,36.4439244 C48.5204713,36.2650255 48.4887574,36.0918189 48.4415932,35.9210518 L61.2995435,26.8118461 L66.5502255,29.8384899 L68.3831259,29.0179946 L61.5012113,25.0505054 L61.5109694,21.6221523 L69.3752015,26.1629311 L69.3288504,42.318313 Z M72.8848722,42.1231506 L72.5823705,42.2987968 L72.6287215,26.1637443 L72.9312233,25.9880981 L72.8848722,42.1231506 Z" id="path-1"></path>
    </defs>
    <g id="Symbols" stroke="none" stroke-width="1" fill="none" fill-rule="evenodd">
        <g id="Isometric/24security" transform="translate(-2.000000, -12.000000)">
            <g id="🎨Icon-Colour" transform="translate(2.000000, 12.000000)">
                <mask id="mask-2" fill="white">
                    <use xlink:href="#path-1"></use>
                </mask>
                <use id="Mask" fill="#000000" fill-rule="nonzero" xlink:href="#path-1"></use>
            </g>
        </g>
    </g>
</svg>