<?xml version="1.0" encoding="UTF-8"?>
<svg width="30px" height="41px" viewBox="0 0 30 41" version="1.1" xmlns="http://www.w3.org/2000/svg" xmlns:xlink="http://www.w3.org/1999/xlink">
    <!-- Generator: Sketch 49.3 (51167) - http://www.bohemiancoding.com/sketch -->
    <title>Mask</title>
    <desc>Created with Sketch.</desc>
    <defs>
        <path d="M0.624957998,25.0002445 C0.78945802,25.0002445 0.952958042,25.0607207 1.07595806,25.1807207 L14.9999599,38.8188159 L28.9239618,25.1807207 C29.1629618,24.946435 29.5584619,24.9392921 29.8074619,25.1631017 C30.0564619,25.3869112 30.0649619,25.7583398 29.8264619,25.9921493 L15.45096,40.0721493 C15.2154599,40.3035779 14.7844599,40.3035779 14.5489599,40.0721493 L0.173457938,25.9921493 C-0.0650420942,25.7583398 -0.0565420931,25.3869112 0.19245794,25.1631017 C0.313457956,25.054054 0.468957977,25.0002445 0.624957998,25.0002445 Z M29.3749618,15.2454762 C29.2104618,15.2454762 29.0469618,15.185 28.9239618,15.065 L14.9999599,1.42690476 L1.07595806,15.065 C0.836958026,15.2992857 0.441457973,15.3064286 0.19245794,15.082619 C-0.0565420931,14.8588095 -0.0650420942,14.487381 0.173457938,14.2535714 L14.5489599,0.173571429 C14.7844599,-0.0578571429 15.2154599,-0.0578571429 15.45096,0.173571429 L29.8264619,14.2535714 C30.0649619,14.487381 30.0564619,14.8588095 29.8074619,15.082619 C29.6864619,15.1916667 29.5309619,15.2454762 29.3749618,15.2454762 Z" id="arrow-sort"></path>
    </defs>
    <g id="Symbols" stroke="none" stroke-width="1" fill="none" fill-rule="evenodd">
        <g id="05_icons/arrow/sort" transform="translate(-25.000000, -19.000000)">
            <g id="🎨Colour-Copy" transform="translate(40.000000, 39.500000) rotate(-180.000000) translate(-40.000000, -39.500000) translate(25.000000, 19.000000)">
                <mask id="mask-2" fill="white">
                    <use xlink:href="#arrow-sort"></use>
                </mask>
                <use id="Mask" fill="#242424" xlink:href="#arrow-sort"></use>
            </g>
        </g>
    </g>
</svg>