<?xml version="1.0" encoding="UTF-8"?>
<svg width="34px" height="60px" viewBox="0 0 34 60" version="1.1" xmlns="http://www.w3.org/2000/svg" xmlns:xlink="http://www.w3.org/1999/xlink">
    <!-- Generator: Sketch 49.3 (51167) - http://www.bohemiancoding.com/sketch -->
    <title>Mask</title>
    <desc>Created with Sketch.</desc>
    <defs>
        <path d="M33.6759809,42.102 L17.8899809,59.601 C17.8849809,59.606 17.8769809,59.609 17.8719809,59.614 C17.7839809,59.707 17.6769809,59.776 17.5649809,59.839 C17.5339809,59.855 17.5109809,59.884 17.4789809,59.897 C17.3329809,59.962 17.1709809,60 16.9999809,60 C16.8309809,60 16.6729809,59.964 16.5309809,59.9 C16.3739809,59.831 16.2289809,59.732 16.1119809,59.601 L0.323980884,42.102 C-0.132019116,41.597 -0.103019116,40.805 0.387980884,40.336 C0.879980884,39.866 1.64898088,39.894 2.10398088,40.401 L15.8309809,55.617 L15.8309809,1.25 C15.8309809,0.559 16.3299809,0 16.9999809,0 C17.6699809,0 18.2139809,0.559 18.2139809,1.25 L18.2139809,55.567 L31.8969809,40.401 C32.3539809,39.894 33.1199809,39.866 33.6139809,40.336 C34.1039809,40.805 34.1309809,41.597 33.6759809,42.102" id="path-1"></path>
    </defs>
    <g id="Symbols" stroke="none" stroke-width="1" fill="none" fill-rule="evenodd">
        <g id="05_icons/arrow/down" transform="translate(-23.000000, -10.000000)">
            <g id="🎨Colour" transform="translate(23.000000, 10.000000)">
                <mask id="mask-2" fill="white">
                    <use xlink:href="#path-1"></use>
                </mask>
                <use id="Mask" fill="#242424" xlink:href="#path-1"></use>
            </g>
        </g>
    </g>
</svg>