<?xml version="1.0" encoding="UTF-8"?>
<svg width="60px" height="60px" viewBox="0 0 60 60" version="1.1" xmlns="http://www.w3.org/2000/svg" xmlns:xlink="http://www.w3.org/1999/xlink">
    <!-- Generator: Sketch 49.3 (51167) - http://www.bohemiancoding.com/sketch -->
    <title>Mask</title>
    <desc>Created with Sketch.</desc>
    <defs>
        <path d="M19.2589286,39.5357143 C18.8035714,39.5357143 18.3214286,39.3214286 18,38.9464286 C17.4375,38.25 17.5446429,37.2321429 18.2410714,36.6964286 L29.0892857,27.8839286 C29.6785714,27.4017857 30.5357143,27.4017857 31.125,27.8839286 L41.4107143,36.2142857 C42.1071429,36.7767857 42.2142857,37.7946429 41.6517857,38.4642857 C41.0892857,39.1607143 40.0714286,39.2678571 39.4017857,38.7053571 L30.1071429,31.1785714 L20.2767857,39.1875 C19.9553571,39.4285714 19.6071429,39.5357143 19.2589286,39.5357143 Z M19.2589286,29.9732143 C18.8035714,29.9732143 18.3214286,29.7589286 18,29.3839286 C17.4375,28.6875 17.5446429,27.6696429 18.2410714,27.1339286 L29.0892857,18.3214286 C29.6785714,17.8392857 30.5357143,17.8392857 31.125,18.3214286 L41.4107143,26.6517857 C42.1071429,27.2142857 42.2142857,28.2321429 41.6517857,28.9017857 C41.0892857,29.5982143 40.0714286,29.7053571 39.4017857,29.1428571 L30.1071429,21.6160714 L20.2767857,29.625 C19.9553571,29.8660714 19.6071429,29.9732143 19.2589286,29.9732143 Z M29.8125,59.625 C13.3660714,59.625 0,46.2589286 0,29.8125 C0,13.3660714 13.3660714,0 29.8125,0 C46.2589286,0 59.625,13.3928571 59.625,29.8125 C59.625,46.2321429 46.2589286,59.625 29.8125,59.625 Z M29.8125,3.21428571 C15.1339286,3.21428571 3.21428571,15.1607143 3.21428571,29.8125 C3.21428571,44.4642857 15.1607143,56.4107143 29.8125,56.4107143 C44.4642857,56.4107143 56.4107143,44.4642857 56.4107143,29.8125 C56.4107143,15.1607143 44.4910714,3.21428571 29.8125,3.21428571 Z" id="path-1"></path>
    </defs>
    <g id="Symbols" stroke="none" stroke-width="1" fill="none" fill-rule="evenodd">
        <g id="05_icons/arrow/twirlUp" transform="translate(-10.000000, -10.000000)">
            <g id="🎨Colour" transform="translate(10.000000, 10.000000)">
                <mask id="mask-2" fill="white">
                    <use xlink:href="#path-1"></use>
                </mask>
                <use id="Mask" fill="#231F20" fill-rule="nonzero" xlink:href="#path-1"></use>
            </g>
        </g>
    </g>
</svg>