<?xml version="1.0" encoding="UTF-8"?>
<svg width="60px" height="35px" viewBox="0 0 60 35" version="1.1" xmlns="http://www.w3.org/2000/svg" xmlns:xlink="http://www.w3.org/1999/xlink">
    <!-- Generator: Sketch 49.3 (51167) - http://www.bohemiancoding.com/sketch -->
    <title>Mask</title>
    <desc>Created with Sketch.</desc>
    <defs>
        <path d="M59.837,16.9192046 C59.853,16.9512046 59.882,16.9742046 59.896,17.0072046 C59.962,17.1592046 60,17.3262046 60,17.5022046 C60,17.6772046 59.962,17.8442046 59.896,17.9962046 C59.884,18.0232046 59.859,18.0442046 59.846,18.0712046 C59.782,18.1912046 59.711,18.3062046 59.613,18.3992046 C59.608,18.4052046 59.606,18.4122046 59.601,18.4172046 L42.101,34.6692046 C41.859,34.8932046 41.555,35.0032046 41.25,35.0032046 C40.913,35.0032046 40.58,34.8682046 40.335,34.6032046 C39.865,34.0972046 39.893,33.3062046 40.398,32.8362046 L55.566,18.7512046 L1.25,18.7512046 C0.558,18.7512046 0,18.1912046 0,17.5022046 C0,16.8112046 0.558,16.2512046 1.25,16.2512046 L55.566,16.2512046 L40.398,2.16620462 C39.893,1.69520462 39.865,0.905204622 40.335,0.399204622 C40.802,-0.106795378 41.594,-0.135795378 42.101,0.335204622 L59.601,16.5842046 C59.607,16.5902046 59.608,16.5982046 59.615,16.6042046 C59.707,16.6942046 59.776,16.8042046 59.837,16.9192046" id="path-1"></path>
    </defs>
    <g id="Symbols" stroke="none" stroke-width="1" fill="none" fill-rule="evenodd">
        <g id="05_icons/arrow/right" transform="translate(-10.000000, -22.000000)">
            <g id="🎨Colour" transform="translate(10.000000, 22.000000)">
                <mask id="mask-2" fill="white">
                    <use xlink:href="#path-1"></use>
                </mask>
                <use id="Mask" fill="#242424" xlink:href="#path-1"></use>
            </g>
        </g>
    </g>
</svg>