<?xml version="1.0" encoding="UTF-8"?>
<svg width="60px" height="35px" viewBox="0 0 60 35" version="1.1" xmlns="http://www.w3.org/2000/svg" xmlns:xlink="http://www.w3.org/1999/xlink">
    <!-- Generator: Sketch 49.3 (51167) - http://www.bohemiancoding.com/sketch -->
    <title>Mask</title>
    <desc>Created with Sketch.</desc>
    <defs>
        <path d="M58.75,18.7513484 L4.434,18.7513484 L19.602,32.8363484 C20.106,33.3063484 20.135,34.0973484 19.666,34.6033484 C19.42,34.8683484 19.085,35.0033484 18.75,35.0033484 C18.445,35.0033484 18.14,34.8933484 17.899,34.6683484 L0.398,18.4173484 C0.394,18.4123484 0.391,18.4053484 0.386,18.3983484 C0.295,18.3123484 0.23,18.2043484 0.169,18.0923484 C0.15,18.0573484 0.119,18.0313484 0.103,17.9943484 C0.038,17.8423484 0,17.6773484 0,17.5013484 C0,17.3263484 0.038,17.1603484 0.103,17.0083484 C0.119,16.9713484 0.151,16.9433484 0.17,16.9083484 C0.231,16.7993484 0.295,16.6913484 0.385,16.6043484 C0.391,16.5993484 0.393,16.5903484 0.398,16.5843484 L17.899,0.334348438 C18.406,-0.135651562 19.195,-0.106651562 19.666,0.399348438 C20.135,0.905348438 20.106,1.69534844 19.602,2.16634844 L4.434,16.2513484 L58.75,16.2513484 C59.44,16.2513484 60,16.8113484 60,17.5013484 C60,18.1913484 59.44,18.7513484 58.75,18.7513484" id="path-1"></path>
    </defs>
    <g id="Symbols" stroke="none" stroke-width="1" fill="none" fill-rule="evenodd">
        <g id="05_icons/arrow/left" transform="translate(-10.000000, -22.000000)">
            <g id="🎨Colour" transform="translate(10.000000, 22.000000)">
                <mask id="mask-2" fill="white">
                    <use xlink:href="#path-1"></use>
                </mask>
                <use id="Mask" fill="#242424" xlink:href="#path-1"></use>
            </g>
        </g>
    </g>
</svg>