<?xml version="1.0" encoding="UTF-8"?>
<svg width="60px" height="60px" viewBox="0 0 60 60" version="1.1" xmlns="http://www.w3.org/2000/svg" xmlns:xlink="http://www.w3.org/1999/xlink">
    <!-- Generator: Sketch 49 (51002) - http://www.bohemiancoding.com/sketch -->
    <title>Mask</title>
    <desc>Created with Sketch.</desc>
    <defs>
        <path d="M35.884,43.386 C35.64,43.63 35.32,43.752 35,43.752 C34.68,43.752 34.36,43.63 34.116,43.386 L21.616,30.885 C21.128,30.397 21.128,29.606 21.616,29.117 L34.116,16.618 C34.605,16.129 35.395,16.129 35.884,16.618 C36.373,17.107 36.373,17.897 35.884,18.386 L24.268,30.001 L35.884,41.618 C36.373,42.106 36.373,42.897 35.884,43.386 M30,2.501 C14.837,2.501 2.5,14.838 2.5,30.001 C2.5,45.166 14.837,57.502 30,57.502 C45.164,57.502 57.5,45.166 57.5,30.001 C57.5,14.838 45.164,2.501 30,2.501 M30,60.001 C13.458,60.001 0,46.543 0,30.001 C0,13.459 13.458,0 30,0 C46.541,0 60,13.459 60,30.001 C60,46.543 46.541,60.001 30,60.001" id="path-1"></path>
    </defs>
    <g id="Symbols" stroke="none" stroke-width="1" fill="none" fill-rule="evenodd">
        <g id="05_icons/arrow/circle-left" transform="translate(-10.000000, -10.000000)">
            <g id="🎨Colour" transform="translate(10.000000, 10.000000)">
                <mask id="mask-2" fill="white">
                    <use xlink:href="#path-1"></use>
                </mask>
                <use id="Mask" fill="#242424" xlink:href="#path-1"></use>
            </g>
        </g>
    </g>
</svg>