<?xml version="1.0" encoding="UTF-8"?>
<svg width="60px" height="60px" viewBox="0 0 60 60" version="1.1" xmlns="http://www.w3.org/2000/svg" xmlns:xlink="http://www.w3.org/1999/xlink">
    <!-- Generator: Sketch 49.3 (51167) - http://www.bohemiancoding.com/sketch -->
    <title>Mask</title>
    <desc>Created with Sketch.</desc>
    <defs>
        <path d="M40.3660714,20.0892857 C40.8214286,20.0892857 41.3035714,20.3035714 41.625,20.6785714 C42.1875,21.375 42.0803571,22.3928571 41.3839286,22.9285714 L30.5357143,31.7410714 C29.9464286,32.2232143 29.0892857,32.2232143 28.5,31.7410714 L18.2142857,23.4107143 C17.5178571,22.8482143 17.4107143,21.8303571 17.9732143,21.1607143 C18.5357143,20.4642857 19.5535714,20.3571429 20.2232143,20.9196429 L29.5178571,28.4464286 L39.3482143,20.4375 C39.6696429,20.1964286 40.0178571,20.0892857 40.3660714,20.0892857 Z M40.3660714,29.6517857 C40.8214286,29.6517857 41.3035714,29.8660714 41.625,30.2410714 C42.1875,30.9375 42.0803571,31.9553571 41.3839286,32.4910714 L30.5357143,41.3035714 C29.9464286,41.7857143 29.0892857,41.7857143 28.5,41.3035714 L18.2142857,32.9732143 C17.5178571,32.4107143 17.4107143,31.3928571 17.9732143,30.7232143 C18.5357143,30.0267857 19.5535714,29.9196429 20.2232143,30.4821429 L29.5178571,38.0089286 L39.3482143,30 C39.6696429,29.7589286 40.0178571,29.6517857 40.3660714,29.6517857 Z M29.8125,0 C46.2589286,0 59.625,13.3660714 59.625,29.8125 C59.625,46.2589286 46.2589286,59.625 29.8125,59.625 C13.3660714,59.625 0,46.2321429 0,29.8125 C0,13.3928571 13.3660714,0 29.8125,0 Z M29.8125,56.4107143 C44.4910714,56.4107143 56.4107143,44.4642857 56.4107143,29.8125 C56.4107143,15.1607143 44.4642857,3.21428571 29.8125,3.21428571 C15.1607143,3.21428571 3.21428571,15.1607143 3.21428571,29.8125 C3.21428571,44.4642857 15.1339286,56.4107143 29.8125,56.4107143 Z" id="arrow-twirl-down"></path>
    </defs>
    <g id="Symbols" stroke="none" stroke-width="1" fill="none" fill-rule="evenodd">
        <g id="05_icons/arrow/twirlDown" transform="translate(-10.000000, -10.000000)">
            <g id="🎨Colour" transform="translate(10.000000, 10.000000)">
                <mask id="mask-2" fill="white">
                    <use xlink:href="#arrow-twirl-down"></use>
                </mask>
                <use id="Mask" fill="#231F20" fill-rule="nonzero" xlink:href="#arrow-twirl-down"></use>
            </g>
        </g>
    </g>
</svg>