<?xml version="1.0" encoding="UTF-8"?>
<svg width="56px" height="60px" viewBox="0 0 56 60" version="1.1" xmlns="http://www.w3.org/2000/svg" xmlns:xlink="http://www.w3.org/1999/xlink">
    <!-- Generator: Sketch 49.3 (51167) - http://www.bohemiancoding.com/sketch -->
    <title>Mask</title>
    <desc>Created with Sketch.</desc>
    <defs>
        <path d="M54,57.6 L48,57.6 L48,1.2 C48,0.5376 47.4636,0 46.8,0 L8.4,0 C7.7376,0 7.2,0.5376 7.2,1.2 L7.2,57.6 L1.2,57.6 C0.5376,57.6 0,58.1364 0,58.8 C0,59.4636 0.5376,60 1.2,60 L54,60 C54.6636,60 55.2,59.4636 55.2,58.8 C55.2,58.1364 54.6636,57.6 54,57.6 Z M9.6,57.6 L9.6,2.4 L45.6,2.4 L45.6,57.6 L9.6,57.6 Z M22.8,7.2 L15.6,7.2 C14.9376,7.2 14.4,7.7376 14.4,8.4 L14.4,15.6 C14.4,16.2624 14.9376,16.8 15.6,16.8 L22.8,16.8 C23.4624,16.8 24,16.2624 24,15.6 L24,8.4 C24,7.7376 23.4624,7.2 22.8,7.2 Z M21.6,14.4 L16.8,14.4 L16.8,9.6 L21.6,9.6 L21.6,14.4 Z M39.6,7.2 L32.4,7.2 C31.7364,7.2 31.2,7.7376 31.2,8.4 L31.2,15.6 C31.2,16.2624 31.7364,16.8 32.4,16.8 L39.6,16.8 C40.2636,16.8 40.8,16.2624 40.8,15.6 L40.8,8.4 C40.8,7.7376 40.2636,7.2 39.6,7.2 Z M38.4,14.4 L33.6,14.4 L33.6,9.6 L38.4,9.6 L38.4,14.4 Z M22.8,24 L15.6,24 C14.9376,24 14.4,24.5376 14.4,25.2 L14.4,32.4 C14.4,33.0636 14.9376,33.6 15.6,33.6 L22.8,33.6 C23.4624,33.6 24,33.0636 24,32.4 L24,25.2 C24,24.5376 23.4624,24 22.8,24 Z M21.6,31.2 L16.8,31.2 L16.8,26.4 L21.6,26.4 L21.6,31.2 Z M39.6,24 L32.4,24 C31.7364,24 31.2,24.5376 31.2,25.2 L31.2,32.4 C31.2,33.0636 31.7364,33.6 32.4,33.6 L39.6,33.6 C40.2636,33.6 40.8,33.0636 40.8,32.4 L40.8,25.2 C40.8,24.5376 40.2636,24 39.6,24 Z M38.4,31.2 L33.6,31.2 L33.6,26.4 L38.4,26.4 L38.4,31.2 Z M22.8,40.8 L15.6,40.8 C14.9376,40.8 14.4,41.3364 14.4,42 L14.4,49.2 C14.4,49.8636 14.9376,50.4 15.6,50.4 L22.8,50.4 C23.4624,50.4 24,49.8636 24,49.2 L24,42 C24,41.3364 23.4624,40.8 22.8,40.8 Z M21.6,48 L16.8,48 L16.8,43.2 L21.6,43.2 L21.6,48 Z M39.6,40.8 L32.4,40.8 C31.7364,40.8 31.2,41.3364 31.2,42 L31.2,49.2 C31.2,49.8636 31.7364,50.4 32.4,50.4 L39.6,50.4 C40.2636,50.4 40.8,49.8636 40.8,49.2 L40.8,42 C40.8,41.3364 40.2636,40.8 39.6,40.8 Z M38.4,48 L33.6,48 L33.6,43.2 L38.4,43.2 L38.4,48 Z" id="path-1"></path>
    </defs>
    <g id="Symbols" stroke="none" stroke-width="1" fill="none" fill-rule="evenodd">
        <g id="05_icons/property/apartmentBuilding" transform="translate(-12.000000, -10.000000)">
            <g id="🎨Colour" transform="translate(12.000000, 10.000000)">
                <mask id="mask-2" fill="white">
                    <use xlink:href="#path-1"></use>
                </mask>
                <use id="Mask" fill="#000000" fill-rule="nonzero" xlink:href="#path-1"></use>
            </g>
        </g>
    </g>
</svg>