<?xml version="1.0" encoding="UTF-8"?>
<svg width="45px" height="60px" viewBox="0 0 45 60" version="1.1" xmlns="http://www.w3.org/2000/svg" xmlns:xlink="http://www.w3.org/1999/xlink">
    <!-- Generator: Sketch 49.3 (51167) - http://www.bohemiancoding.com/sketch -->
    <title>Mask</title>
    <desc>Created with Sketch.</desc>
    <defs>
        <path d="M35.0000012,49.999787 C35.0000012,51.378566 33.8775012,52.49984 32.5000012,52.49984 C31.1212512,52.49984 30.0000012,51.378566 30.0000012,49.999787 C30.0000012,48.62101 31.1212512,47.49974 32.5000012,47.49974 C33.8775012,47.49974 35.0000012,48.62101 35.0000012,49.999787 Z M35.0000012,39.99958 C35.0000012,41.37836 33.8775012,42.50088 32.5000012,42.50088 C31.1212512,42.50088 30.0000012,41.37836 30.0000012,39.99958 C30.0000012,38.6208 31.1212512,37.49953 32.5000012,37.49953 C33.8775012,37.49953 35.0000012,38.6208 35.0000012,39.99958 Z M35.0000012,29.99937 C35.0000012,31.3794 33.8775012,32.49942 32.5000012,32.49942 C31.1212512,32.49942 30.0000012,31.3794 30.0000012,29.99937 C30.0000012,28.62184 31.1212512,27.49932 32.5000012,27.49932 C33.8775012,27.49932 35.0000012,28.62184 35.0000012,29.99937 Z M25.0000012,49.999787 C25.0000012,51.378566 23.8775012,52.49984 22.5000012,52.49984 C21.1212512,52.49984 20.0000012,51.378566 20.0000012,49.999787 C20.0000012,48.62101 21.1212512,47.49974 22.5000012,47.49974 C23.8775012,47.49974 25.0000012,48.62101 25.0000012,49.999787 Z M25.0000012,39.99958 C25.0000012,41.37836 23.8775012,42.50088 22.5000012,42.50088 C21.1212512,42.50088 20.0000012,41.37836 20.0000012,39.99958 C20.0000012,38.6208 21.1212512,37.49953 22.5000012,37.49953 C23.8775012,37.49953 25.0000012,38.6208 25.0000012,39.99958 Z M25.0000012,29.99937 C25.0000012,31.3794 23.8775012,32.49942 22.5000012,32.49942 C21.1212512,32.49942 20.0000012,31.3794 20.0000012,29.99937 C20.0000012,28.62184 21.1212512,27.49932 22.5000012,27.49932 C23.8775012,27.49932 25.0000012,28.62184 25.0000012,29.99937 Z M15.0000012,49.999787 C15.0000012,51.378566 13.8775012,52.49984 12.5000012,52.49984 C11.1212512,52.49984 10.0000002,51.378566 10.0000002,49.999787 C10.0000002,48.62101 11.1212512,47.49974 12.5000012,47.49974 C13.8775012,47.49974 15.0000012,48.62101 15.0000012,49.999787 Z M15.0000012,39.99958 C15.0000012,41.37836 13.8775012,42.50088 12.5000012,42.50088 C11.1212512,42.50088 10.0000002,41.37836 10.0000002,39.99958 C10.0000002,38.6208 11.1212512,37.49953 12.5000012,37.49953 C13.8775012,37.49953 15.0000012,38.6208 15.0000012,39.99958 Z M15.0000012,29.99937 C15.0000012,31.3794 13.8775012,32.49942 12.5000012,32.49942 C11.1212512,32.49942 10.0000002,31.3794 10.0000002,29.99937 C10.0000002,28.62184 11.1212512,27.49932 12.5000012,27.49932 C13.8775012,27.49932 15.0000012,28.62184 15.0000012,29.99937 Z M35.0000012,9.99895 L10.0000002,9.99895 L10.0000002,17.50036 L35.0000012,17.50036 L35.0000012,9.99895 Z M8.7500002,19.99916 C8.0587502,19.99916 7.5000002,19.43915 7.5000002,18.74914 L7.5000002,8.75018 C7.5000002,8.06016 8.0587502,7.4989 8.7500002,7.4989 L36.2500012,7.4989 C36.9412512,7.4989 37.5000012,8.06016 37.5000012,8.75018 L37.5000012,18.74914 C37.5000012,19.43915 36.9412512,19.99916 36.2500012,19.99916 L8.7500002,19.99916 Z M42.5000012,3.16506 C42.5000012,2.8038 42.1875012,2.4988 41.8187512,2.4988 L3.1812502,2.4988 C2.8125002,2.4988 2.5000002,2.8038 2.5000002,3.16506 L2.5000002,56.83368 C2.5000002,57.194937 2.8125002,57.501194 3.1812502,57.501194 L41.8187512,57.501194 C42.1875012,57.501194 42.5000012,57.194937 42.5000012,56.83368 L42.5000012,3.16506 Z M3.1812502,60.0012457 C1.4275002,60.0012457 0,58.5799662 0,56.83368 L0,3.16506 C0,1.41878 1.4275002,0 3.1812502,0 L41.8187512,0 C43.5725012,0 45.0000012,1.41878 45.0000012,3.16506 L45.0000012,56.83368 C45.0000012,58.5799662 43.5725012,60.0012457 41.8187512,60.0012457 L3.1812502,60.0012457 Z" id="path-1"></path>
    </defs>
    <g id="Symbols" stroke="none" stroke-width="1" fill="none" fill-rule="evenodd">
        <g id="05_icons/finance/calculator" transform="translate(-17.000000, -10.000000)">
            <g id="🎨Colour" transform="translate(17.000000, 10.000000)">
                <mask id="mask-2" fill="white">
                    <use xlink:href="#path-1"></use>
                </mask>
                <use id="Mask" fill="#000000" xlink:href="#path-1"></use>
            </g>
        </g>
    </g>
</svg>