<?xml version="1.0" encoding="UTF-8"?>
<svg width="53px" height="60px" viewBox="0 0 53 60" version="1.1" xmlns="http://www.w3.org/2000/svg" xmlns:xlink="http://www.w3.org/1999/xlink">
    <!-- Generator: Sketch 49.3 (51167) - http://www.bohemiancoding.com/sketch -->
    <title>Mask</title>
    <desc>Created with Sketch.</desc>
    <defs>
        <path d="M49.5720429,21.5692886 L3.04143,21.5692886 L3.04143,57.3021771 L49.5720429,57.3021771 L49.5720429,21.5692886 Z M49.5720429,10.4810057 L49.5720429,19.1061857 L3.04143,19.1061857 L3.04143,10.4810057 L15.2863286,10.4810057 L15.2863286,14.1750429 C15.2863286,14.8552029 15.8336743,15.4084457 16.5108171,15.4084457 C17.18796,15.4084457 17.7353057,14.8552029 17.7353057,14.1750429 L17.7353057,10.4810057 L34.8781629,10.4810057 L34.8781629,14.1750429 C34.8781629,14.8552029 35.4255086,15.4084457 36.1026514,15.4084457 C36.7797943,15.4084457 37.3271486,14.8552029 37.3271486,14.1750429 L37.3271486,10.4810057 L49.5720429,10.4810057 Z M19.272052,30.0636145 L26.3850932,37.1766556 L33.4981343,30.0636145 C33.9358199,29.6259289 34.6573476,29.6378268 35.081189,30.0616682 C35.5177994,30.4982786 35.5084819,31.2154835 35.0792426,31.6447228 L27.9662015,38.757764 L35.0792426,45.8708051 C35.5169282,46.3084907 35.5050304,47.0300184 35.081189,47.4538598 C34.6445786,47.8904702 33.9273736,47.8811527 33.4981343,47.4519134 L26.3850932,40.3388723 L19.272052,47.4519134 C18.8343665,47.889599 18.1128387,47.8777012 17.6889973,47.4538598 C17.2523869,47.0172494 17.2617044,46.3000444 17.6909437,45.8708051 L24.8039848,38.757764 L17.6909437,31.6447228 C17.2532581,31.2070373 17.265156,30.4855095 17.6889973,30.0616682 C18.1256078,29.6250577 18.8428127,29.6343752 19.272052,30.0636145 Z M50.7965314,59.7665139 L1.81694057,59.7665139 C1.1397978,59.7665139 0.5924508,59.2157346 0.5924508,58.5343457 L0.5924508,9.24760286 C0.5924508,8.56745143 1.1397978,8.01543429 1.81694057,8.01543429 L15.2863286,8.01543429 L15.2863286,1.85459143 C15.2863286,1.17444 15.8336743,0.622422857 16.5108171,0.622422857 C17.18796,0.622422857 17.7353057,1.17444 17.7353057,1.85459143 L17.7353057,8.01543429 L34.8781629,8.01543429 L34.8781629,1.85459143 C34.8781629,1.17444 35.4255086,0.622422857 36.1026514,0.622422857 C36.7797943,0.622422857 37.3271486,1.17444 37.3271486,1.85459143 L37.3271486,8.01543429 L50.7965314,8.01543429 C51.4736743,8.01543429 52.02102,8.56745143 52.02102,9.24760286 L52.02102,58.5343457 C52.02102,59.2157346 51.4736743,59.7665139 50.7965314,59.7665139 Z" id="path-1"></path>
    </defs>
    <g id="Symbols" stroke="none" stroke-width="1" fill="none" fill-rule="evenodd">
        <g id="05_icons/interface/calendar-delete" transform="translate(-14.000000, -10.000000)">
            <g id="🎨Icon-Colour" transform="translate(14.000000, 10.000000)">
                <mask id="mask-2" fill="white">
                    <use xlink:href="#path-1"></use>
                </mask>
                <use id="Mask" fill="#000000" xlink:href="#path-1"></use>
            </g>
        </g>
    </g>
</svg>