<?xml version="1.0" encoding="UTF-8"?>
<svg width="53px" height="60px" viewBox="0 0 53 60" version="1.1" xmlns="http://www.w3.org/2000/svg" xmlns:xlink="http://www.w3.org/1999/xlink">
    <!-- Generator: Sketch 49.3 (51167) - http://www.bohemiancoding.com/sketch -->
    <title>Mask</title>
    <desc>Created with Sketch.</desc>
    <defs>
        <path d="M49.5720429,21.5692886 L3.04143,21.5692886 L3.04143,57.3021771 L49.5720429,57.3021771 L49.5720429,21.5692886 Z M49.5720429,10.4810057 L49.5720429,19.1061857 L3.04143,19.1061857 L3.04143,10.4810057 L15.2863286,10.4810057 L15.2863286,14.1750429 C15.2863286,14.8552029 15.8336743,15.4084457 16.5108171,15.4084457 C17.18796,15.4084457 17.7353057,14.8552029 17.7353057,14.1750429 L17.7353057,10.4810057 L34.8781629,10.4810057 L34.8781629,14.1750429 C34.8781629,14.8552029 35.4255086,15.4084457 36.1026514,15.4084457 C36.7797943,15.4084457 37.3271486,14.8552029 37.3271486,14.1750429 L37.3271486,10.4810057 L49.5720429,10.4810057 Z M15.2077215,37.6397516 L25.2670807,37.6397516 L25.2670807,27.5803923 C25.2670807,26.9614114 25.7856909,26.4596273 26.3850932,26.4596273 C27.0025535,26.4596273 27.5031056,26.9733563 27.5031056,27.5803923 L27.5031056,37.6397516 L37.5624648,37.6397516 C38.1814457,37.6397516 38.6832298,38.1583617 38.6832298,38.757764 C38.6832298,39.3752243 38.1695009,39.8757764 37.5624648,39.8757764 L27.5031056,39.8757764 L27.5031056,49.9351357 C27.5031056,50.5541165 26.9844954,51.0559006 26.3850932,51.0559006 C25.7676328,51.0559006 25.2670807,50.5421717 25.2670807,49.9351357 L25.2670807,39.8757764 L15.2077215,39.8757764 C14.5887406,39.8757764 14.0869565,39.3571662 14.0869565,38.757764 C14.0869565,38.1403036 14.6006855,37.6397516 15.2077215,37.6397516 Z M50.7965314,59.7665139 L1.81694057,59.7665139 C1.1397978,59.7665139 0.5924508,59.2157346 0.5924508,58.5343457 L0.5924508,9.24760286 C0.5924508,8.56745143 1.1397978,8.01543429 1.81694057,8.01543429 L15.2863286,8.01543429 L15.2863286,1.85459143 C15.2863286,1.17444 15.8336743,0.622422857 16.5108171,0.622422857 C17.18796,0.622422857 17.7353057,1.17444 17.7353057,1.85459143 L17.7353057,8.01543429 L34.8781629,8.01543429 L34.8781629,1.85459143 C34.8781629,1.17444 35.4255086,0.622422857 36.1026514,0.622422857 C36.7797943,0.622422857 37.3271486,1.17444 37.3271486,1.85459143 L37.3271486,8.01543429 L50.7965314,8.01543429 C51.4736743,8.01543429 52.02102,8.56745143 52.02102,9.24760286 L52.02102,58.5343457 C52.02102,59.2157346 51.4736743,59.7665139 50.7965314,59.7665139 Z" id="path-1"></path>
    </defs>
    <g id="Symbols" stroke="none" stroke-width="1" fill="none" fill-rule="evenodd">
        <g id="05_icons/interface/calendar-create" transform="translate(-14.000000, -10.000000)">
            <g id="🎨Icon-Colour" transform="translate(14.000000, 10.000000)">
                <mask id="mask-2" fill="white">
                    <use xlink:href="#path-1"></use>
                </mask>
                <use id="Mask" fill="#000000" xlink:href="#path-1"></use>
            </g>
        </g>
    </g>
</svg>