<?xml version="1.0" encoding="UTF-8"?>
<svg width="53px" height="60px" viewBox="0 0 53 60" version="1.1" xmlns="http://www.w3.org/2000/svg" xmlns:xlink="http://www.w3.org/1999/xlink">
    <!-- Generator: Sketch 49.3 (51167) - http://www.bohemiancoding.com/sketch -->
    <title>Mask</title>
    <desc>Created with Sketch.</desc>
    <defs>
        <path d="M49.5720429,21.5692886 L3.04143,21.5692886 L3.04143,57.3021771 L49.5720429,57.3021771 L49.5720429,21.5692886 Z M49.5720429,10.4810057 L37.3271486,10.4810057 L37.3271486,14.1750429 C37.3271486,14.8552029 36.7797943,15.4084457 36.1026514,15.4084457 C35.4255086,15.4084457 34.8781629,14.8552029 34.8781629,14.1750429 L34.8781629,10.4810057 L17.7353057,10.4810057 L17.7353057,14.1750429 C17.7353057,14.8552029 17.18796,15.4084457 16.5108171,15.4084457 C15.8336743,15.4084457 15.2863286,14.8552029 15.2863286,14.1750429 L15.2863286,10.4810057 L3.04143,10.4810057 L3.04143,19.1061857 L49.5720429,19.1061857 L49.5720429,10.4810057 Z M50.7965314,59.7665139 L1.81694057,59.7665139 C1.1397978,59.7665139 0.5924508,59.2157346 0.5924508,58.5343457 L0.5924508,9.24760286 C0.5924508,8.56745143 1.1397978,8.01543429 1.81694057,8.01543429 L15.2863286,8.01543429 L15.2863286,1.85459143 C15.2863286,1.17444 15.8336743,0.622422857 16.5108171,0.622422857 C17.18796,0.622422857 17.7353057,1.17444 17.7353057,1.85459143 L17.7353057,8.01543429 L34.8781629,8.01543429 L34.8781629,1.85459143 C34.8781629,1.17444 35.4255086,0.622422857 36.1026514,0.622422857 C36.7797943,0.622422857 37.3271486,1.17444 37.3271486,1.85459143 L37.3271486,8.01543429 L50.7965314,8.01543429 C51.4736743,8.01543429 52.02102,8.56745143 52.02102,9.24760286 L52.02102,58.5343457 C52.02102,59.2157346 51.4736743,59.7665139 50.7965314,59.7665139 Z M25.7188557,26.5622886 C18.7044678,26.5622886 13,32.2667519 13,39.2811443 C13,46.2955367 18.7044678,52 25.7188557,52 C32.7332436,52 38.4377114,46.2955367 38.4377114,39.2811443 C38.4377114,32.2667519 32.7332436,26.5622886 25.7188557,26.5622886 Z M25.7188557,28.258136 C31.8167398,28.258136 36.741864,33.1832557 36.741864,39.2811443 C36.741864,45.3790159 31.8167398,50.3041526 25.7188557,50.3041526 C19.6209716,50.3041526 14.6958474,45.3790159 14.6958474,39.2811443 C14.6958474,33.1832557 19.6209716,28.258136 25.7188557,28.258136 Z M25.7100232,30.7842421 C25.4835883,30.7865744 25.2674918,30.8793736 25.1098776,31.041965 C24.9522634,31.2045565 24.8662255,31.4234329 24.870932,31.6498309 L24.870932,39.2811443 C24.8727159,39.5031745 24.961511,39.7156486 25.1182431,39.8729244 L30.5149242,45.2696055 C30.7227075,45.5075648 31.0455395,45.6102984 31.3526321,45.5361859 C31.6597247,45.4620735 31.9001636,45.2234025 31.9765404,44.9168652 C32.0529171,44.610328 31.9525689,44.2867465 31.7161495,44.0772128 L26.5667794,38.9278427 L26.5667794,31.6498309 C26.5715502,31.4203692 26.4831084,31.1987729 26.3216538,31.0356539 C26.1601993,30.8725348 25.9395217,30.7818249 25.7100232,30.7842421 Z" id="path-1"></path>
    </defs>
    <g id="Symbols" stroke="none" stroke-width="1" fill="none" fill-rule="evenodd">
        <g id="05_icons/interface/calendar-reminder" transform="translate(-14.000000, -10.000000)">
            <g id="🎨Icon-Colour" transform="translate(14.000000, 10.000000)">
                <mask id="mask-2" fill="white">
                    <use xlink:href="#path-1"></use>
                </mask>
                <use id="Mask" fill="#000000" xlink:href="#path-1"></use>
            </g>
        </g>
    </g>
</svg>