<?xml version="1.0" encoding="UTF-8"?>
<svg width="57px" height="19px" viewBox="0 0 57 19" version="1.1" xmlns="http://www.w3.org/2000/svg" xmlns:xlink="http://www.w3.org/1999/xlink">
    <!-- Generator: Sketch 51.1 (57501) - http://www.bohemiancoding.com/sketch -->
    <title>noun_Car_490030</title>
    <desc>Created with Sketch.</desc>
    <defs></defs>
    <g id="↳-(W)_page.website.03.ipp.00" stroke="none" stroke-width="1" fill="none" fill-rule="evenodd">
        <g id="↳-(W)_page.website.03.ipp.01.01---Landing-with-maps" transform="translate(-43.000000, -4717.000000)" fill="#242424" fill-rule="nonzero">
            <g id="Group-3" transform="translate(21.000000, 4594.000000)">
                <g id="noun_Car_490030" transform="translate(22.000000, 123.000000)">
                    <path d="M5.13057236,17 L2.15765129,17 C1.56306708,17 0.241768829,16.8031838 0.0435740915,15.8847082 C-0.0885557337,15.4254703 0.109639004,15.0974433 0.241768829,14.9006271 C0.307833742,14.7038109 0.373898654,14.6382055 0.307833742,14.3101785 C0.0435740915,13.3917028 -0.220685559,9.19295707 1.03454778,8.34008683 C1.82732673,7.81524361 4.13959867,6.24071394 14.5117899,5.51905451 C23.1002286,0.992281717 24.6857865,0.467438495 27.1962532,0.205016884 C29.9049146,-0.12301013 33.6706146,-0.0574047274 37.2381199,0.401833092 C40.2771059,0.729860106 46.1568831,2.8948384 48.9976743,3.87891944 C49.7243884,4.14134105 50.3850375,4.40376266 50.5171673,4.40376266 C50.9796217,4.53497347 53.4240235,4.73178968 54.8774515,4.86300048 C55.0756463,4.86300048 55.3399059,4.92860589 55.6041656,5.12542209 C56.0005551,5.45344911 56.1987498,6.10950314 56.1987498,7.09358418 C57.6521779,12.4076218 56.8593989,15.4254703 55.9344901,16.1471298 C55.7362954,16.343946 55.4720358,16.5407622 50.9796217,16.8031838 C50.6492971,16.8031838 50.3189726,16.5407622 50.2529077,16.2127352 C50.2529077,15.8191027 50.5171673,15.5566811 50.8474919,15.4910757 C53.9525428,15.2942595 54.8113866,15.1630487 55.0756463,15.0974433 C55.4720358,14.6382055 56.06662,12.0139894 54.8113866,7.35600579 L54.8113866,7.15918958 C54.8113866,6.56874096 54.8113866,6.30631934 54.7453217,6.17510854 C54.1507375,6.10950314 50.9135568,5.91268693 50.1868428,5.71587072 C49.988648,5.65026532 49.5261936,5.51905451 48.5352199,5.12542209 C45.7604936,4.14134105 39.9467813,2.04196816 37.0399251,1.71394115 C33.6045497,1.32030873 29.9049146,1.25470333 27.328383,1.51712494 C25.0161111,1.77954655 23.4966181,2.30438977 14.9742443,6.76555716 C14.9081794,6.83116257 14.7760496,6.83116257 14.7099847,6.83116257 C8.03742852,7.29040039 3.67714428,8.14327062 1.76126182,9.45537868 C1.29880743,9.8490111 1.23274252,12.932465 1.49700217,13.9821515 C1.76126182,14.7694163 1.56306708,15.2286541 1.36487234,15.5566811 C1.56306708,15.6222865 1.89339164,15.6878919 2.15765129,15.6878919 L5.06450745,15.6878919 C5.46089692,15.6878919 5.72515657,15.9503136 5.72515657,16.343946 C5.72515657,16.7375784 5.46089692,17 5.13057236,17 Z" id="Shape"></path>
                    <path d="M39.4639225,17.0909091 L16.9064199,17.0909091 C16.5106742,17.0909091 16.2468438,16.8181818 16.2468438,16.4090909 C16.2468438,16 16.5106742,15.7272727 16.9064199,15.7272727 L39.4639225,15.7272727 C39.8596682,15.7272727 40.1234986,16 40.1234986,16.4090909 C40.1234986,16.75 39.7937106,17.0909091 39.4639225,17.0909091 Z M10.970235,19 C8.33193057,19 6.15532944,16.75 6.15532944,14.0227273 C6.15532944,11.2954545 8.33193057,9.04545455 10.970235,9.04545455 C13.6085394,9.04545455 15.7851405,11.2954545 15.7851405,14.0227273 C15.7851405,16.75 13.6085394,19 10.970235,19 Z M10.970235,10.4090909 C9.05746428,10.4090909 7.47448164,12.0454545 7.47448164,14.0227273 C7.47448164,16 9.05746428,17.6363636 10.970235,17.6363636 C12.8830057,17.6363636 14.4659883,16 14.4659883,14.0227273 C14.4659883,11.9772727 12.8830057,10.4090909 10.970235,10.4090909 Z M45.2681922,19 C42.6298878,19 40.4532867,16.75 40.4532867,14.0227273 C40.4532867,11.2954545 42.6298878,9.04545455 45.2681922,9.04545455 C47.9064966,9.04545455 50.0830978,11.2954545 50.0830978,14.0227273 C50.0830978,16.75 47.9064966,19 45.2681922,19 Z M45.2681922,10.4090909 C43.3554215,10.4090909 41.7724389,12.0454545 41.7724389,14.0227273 C41.7724389,16 43.3554215,17.6363636 45.2681922,17.6363636 C47.1809629,17.6363636 48.7639456,16 48.7639456,14.0227273 C48.7639456,11.9772727 47.1809629,10.4090909 45.2681922,10.4090909 Z M54.3043848,10.0681818 C54.1724696,10.0681818 54.0405544,10 53.9086391,9.93181818 C52.9852326,9.18181818 52.4575717,8.84090909 52.1277837,8.70454545 C51.6001228,8.43181818 51.2703347,8.15909091 51.2703347,7.40909091 C51.2703347,7.06818182 51.40225,6.79545455 51.6001228,6.59090909 C52.1937413,6.04545455 53.3150207,6.04545455 53.6448087,6.04545455 C54.0405544,6.04545455 54.3043848,6.38636364 54.3043848,6.72727273 C54.3043848,7.13636364 53.9745968,7.40909091 53.6448087,7.40909091 C53.3150207,7.40909091 52.9852326,7.40909091 52.7873598,7.47727273 C53.1171478,7.68181818 53.7767239,8.02272727 54.7660881,8.84090909 C55.0299185,9.04545455 55.0958761,9.52272727 54.8320457,9.79545455 C54.7001305,10 54.5022576,10.0681818 54.3043848,10.0681818 Z M18.3574873,6.86363636 C18.0276993,6.86363636 17.6979112,6.59090909 17.6979112,6.18181818 C17.6979112,5.77272727 17.9617416,5.5 18.3574873,5.5 C18.5553601,5.5 35.5064659,5.02272727 36.8915757,4.95454545 C37.1554062,4.95454545 37.5511518,4.88636364 38.0128551,4.88636364 C39.3320073,4.81818182 42.8277606,4.61363636 43.3554215,4.20454545 C43.619252,3.93181818 44.0149976,3.93181818 44.2788281,4.20454545 C44.5426585,4.47727273 44.5426585,4.88636364 44.2788281,5.15909091 C43.6852096,5.77272727 41.7724389,5.97727273 38.0788127,6.18181818 C37.6171095,6.18181818 37.2213638,6.25 36.9575334,6.25 C35.5064659,6.45454545 19.083021,6.86363636 18.3574873,6.86363636 Z M30.4936876,9.72727273 L28.1851712,9.72727273 C27.7894255,9.72727273 27.5255951,9.45454545 27.5255951,9.04545455 C27.5255951,8.63636364 27.7894255,8.36363636 28.1851712,8.36363636 L30.4936876,8.36363636 C30.8894332,8.36363636 31.1532637,8.63636364 31.1532637,9.04545455 C31.1532637,9.45454545 30.8894332,9.72727273 30.4936876,9.72727273 Z M2.6595761,11.7727273 C2.32978805,11.7727273 2,11.5 2,11.1590909 C2,10.75 2.26383044,10.4772727 2.59361849,10.4090909 C3.05532176,10.3409091 3.51702503,10.2727273 3.91277069,10.2045455 C3.64894025,10 3.58298264,9.65909091 3.71489786,9.38636364 C3.91277069,9.04545455 4.30851635,8.90909091 4.57234679,9.11363636 C4.83617723,9.25 5.69362617,9.72727273 5.56171095,10.5454545 C5.56171095,10.75 5.42979572,11.5681818 2.6595761,11.7727273 C2.72553371,11.7727273 2.72553371,11.7727273 2.6595761,11.7727273 Z" id="Shape"></path>
                </g>
            </g>
        </g>
    </g>
</svg>