<?xml version="1.0" encoding="UTF-8"?>
<svg width="30px" height="8px" viewBox="0 0 30 8" version="1.1" xmlns="http://www.w3.org/2000/svg" xmlns:xlink="http://www.w3.org/1999/xlink">
    <!-- Generator: Sketch 50.2 (55047) - http://www.bohemiancoding.com/sketch -->
    <title>Mask</title>
    <desc>Created with Sketch.</desc>
    <defs>
        <path d="M3.74999995,1.50026 C2.37124995,1.50026 1.24999995,2.622155 1.24999995,4.00031 C1.24999995,5.37909 2.37124995,6.50036 3.74999995,6.50036 C5.12874995,6.50036 6.24999845,5.37909 6.24999845,4.00031 C6.24999845,2.622155 5.12874995,1.50026 3.74999995,1.50026 M3.74999995,7.751015 C1.68187495,7.751015 0,6.06848 0,4.00031 C0,1.93214 1.68187495,0.25023 3.74999995,0.25023 C5.81812345,0.25023 7.49999845,1.93214 7.49999845,4.00031 C7.49999845,6.06848 5.81812345,7.751015 3.74999995,7.751015 M14.9999984,1.50026 C13.6212484,1.50026 12.4999984,2.622155 12.4999984,4.00031 C12.4999984,5.37909 13.6212484,6.50036 14.9999984,6.50036 C16.3787484,6.50036 17.4999984,5.37909 17.4999984,4.00031 C17.4999984,2.622155 16.3787484,1.50026 14.9999984,1.50026 M14.9999984,7.751015 C12.9318734,7.751015 11.2499984,6.06848 11.2499984,4.00031 C11.2499984,1.93214 12.9318734,0.25023 14.9999984,0.25023 C17.0681235,0.25023 18.7499984,1.93214 18.7499984,4.00031 C18.7499984,6.06848 17.0681235,7.751015 14.9999984,7.751015 M26.2499985,1.50026 C24.8712485,1.50026 23.7499985,2.622155 23.7499985,4.00031 C23.7499985,5.37909 24.8712485,6.50036 26.2499985,6.50036 C27.6287485,6.50036 28.7499985,5.37909 28.7499985,4.00031 C28.7499985,2.622155 27.6287485,1.50026 26.2499985,1.50026 M26.2499985,7.751015 C24.1818735,7.751015 22.4999985,6.06848 22.4999985,4.00031 C22.4999985,1.93214 24.1818735,0.25023 26.2499985,0.25023 C28.3181235,0.25023 29.9999985,1.93214 29.9999985,4.00031 C29.9999985,6.06848 28.3181235,7.751015 26.2499985,7.751015" id="path-1"></path>
    </defs>
    <g id="Symbols" stroke="none" stroke-width="1" fill="none" fill-rule="evenodd">
        <g id="01_components/large/tiles/mod.propertyTile.01" transform="translate(-425.000000, -42.000000)">
            <g id="mod.propertyTile.01">
                <g id="🎨Icon-Colour" transform="translate(425.000000, 42.000000)">
                    <mask id="mask-2" fill="white">
                        <use xlink:href="#path-1"></use>
                    </mask>
                    <use id="Mask" fill="#000000" xlink:href="#path-1"></use>
                </g>
            </g>
        </g>
    </g>
</svg>