<?xml version="1.0" encoding="UTF-8"?>
<svg width="60px" height="40px" viewBox="0 0 60 40" version="1.1" xmlns="http://www.w3.org/2000/svg" xmlns:xlink="http://www.w3.org/1999/xlink">
    <!-- Generator: Sketch 49.3 (51167) - http://www.bohemiancoding.com/sketch -->
    <title>Mask</title>
    <desc>Created with Sketch.</desc>
    <defs>
        <path d="M51.2500012,15.00047 C50.5587512,15.00047 50.0000012,14.44045 50.0000012,13.75043 L50.0000012,9.11653 L34.6012512,23.41573 C34.5937512,23.42323 34.5837512,23.42448 34.5762512,23.43198 C34.5712512,23.43698 34.5687512,23.44323 34.5625012,23.44823 C34.4950012,23.50698 34.4162512,23.53823 34.3400012,23.57948 C34.2875012,23.60823 34.2412512,23.64949 34.1862512,23.66949 C34.0450012,23.72324 33.8975012,23.75074 33.7500012,23.75074 C33.5775012,23.75074 33.4075012,23.71324 33.2475012,23.64324 C33.1962512,23.61948 33.1562512,23.57448 33.1075012,23.54448 C33.0125012,23.48573 32.9137512,23.43698 32.8350012,23.35073 C32.8287512,23.34448 32.8275012,23.33573 32.8212512,23.32823 C32.8150012,23.32198 32.8075012,23.32073 32.8012512,23.31448 L26.0962512,15.49048 L13.2912512,25.96831 C13.0587512,26.15706 12.7800012,26.25082 12.5012512,26.25082 C12.1387512,26.25082 11.7800012,26.09331 11.5325012,25.79205 C11.0950012,25.25704 11.1750012,24.46951 11.7087512,24.03325 L25.4587512,12.7829 C25.5237512,12.73039 25.6000012,12.70914 25.6712512,12.67164 C25.7425012,12.63289 25.8087512,12.58164 25.8850012,12.55789 C25.9662512,12.53289 26.0500012,12.53664 26.1350012,12.52914 C26.2100012,12.52164 26.2850012,12.50164 26.3600012,12.50789 C26.4425012,12.51539 26.5187512,12.55039 26.5987512,12.57414 C26.6725012,12.59539 26.7487512,12.60414 26.8187512,12.63914 C26.9037512,12.68289 26.9725012,12.7554 27.0475012,12.81915 C27.0962512,12.8604 27.1550012,12.88665 27.1987512,12.93665 L27.2125012,12.95415 C27.2137512,12.9554 27.2162512,12.95665 27.2175012,12.9579 C27.2187512,12.95915 27.2187512,12.96165 27.2200012,12.9629 L33.8525012,20.69939 L48.0675012,7.49898 L43.7500012,7.49898 C43.0587512,7.49898 42.5000012,6.94021 42.5000012,6.25019 C42.5000012,5.56017 43.0587512,5.00015 43.7500012,5.00015 L51.2500012,5.00015 C51.2575012,5.00015 51.2650012,5.0039 51.2725012,5.0039 C51.3737512,5.0064 51.4687512,5.03765 51.5662512,5.06391 C51.6275012,5.08016 51.6925012,5.08141 51.7487512,5.10641 C51.8062512,5.13141 51.8525012,5.17891 51.9075012,5.21266 C51.9912512,5.26641 52.0787512,5.31391 52.1475012,5.38517 C52.1525012,5.39017 52.1600012,5.39267 52.1650012,5.39892 C52.2075012,5.44392 52.2250012,5.50142 52.2587512,5.55142 C52.3137512,5.63017 52.3725012,5.70518 52.4087512,5.79518 C52.4425012,5.88268 52.4487512,5.97393 52.4625012,6.06519 C52.4725012,6.12769 52.5000012,6.18394 52.5000012,6.25019 L52.5000012,13.75043 C52.5000012,14.44045 51.9412512,15.00047 51.2500012,15.00047 M58.7500012,40.0012465 L1.2500002,40.0012465 C0.55875,40.0012465 0,39.441229 0,38.751207 L0,1.24879 C0,0.55876 0.55875,0 1.2500002,0 C1.9412502,0 2.5000002,0.55876 2.5000002,1.24879 L2.5000002,37.501168 L58.7500012,37.501168 C59.4412512,37.501168 60.0000012,38.061186 60.0000012,38.751207 C60.0000012,39.441229 59.4412512,40.0012465 58.7500012,40.0012465" id="path-1"></path>
    </defs>
    <g id="Symbols" stroke="none" stroke-width="1" fill="none" fill-rule="evenodd">
        <g id="05_icons/finance/trend-up" transform="translate(-10.000000, -20.000000)">
            <g id="🎨Colour" transform="translate(10.000000, 20.000000)">
                <mask id="mask-2" fill="white">
                    <use xlink:href="#path-1"></use>
                </mask>
                <use id="Mask" fill="#000000" xlink:href="#path-1"></use>
            </g>
        </g>
    </g>
</svg>