<?xml version="1.0" encoding="UTF-8"?>
<svg width="60px" height="40px" viewBox="0 0 60 40" version="1.1" xmlns="http://www.w3.org/2000/svg" xmlns:xlink="http://www.w3.org/1999/xlink">
    <!-- Generator: Sketch 49.3 (51167) - http://www.bohemiancoding.com/sketch -->
    <title>Mask</title>
    <desc>Created with Sketch.</desc>
    <defs>
        <path d="M52.4087485,25.45579 C52.3724985,25.5483 52.3124985,25.62455 52.2562485,25.70455 C52.2224985,25.7533 52.2062485,25.8083 52.1649985,25.85205 C52.1599985,25.8583 52.1537485,25.85955 52.1487485,25.86455 C52.0412485,25.97581 51.9137485,26.06456 51.7712485,26.12956 C51.7599985,26.13581 51.7512485,26.14706 51.7399985,26.15206 C51.5887485,26.21582 51.4237485,26.25207 51.2499985,26.25207 L43.7499985,26.25207 C43.0587485,26.25207 42.4999985,25.69205 42.4999985,25.00203 C42.4999985,24.31076 43.0587485,23.75199 43.7499985,23.75199 L48.0662485,23.75199 L33.8524985,10.55158 L27.2174985,18.29307 L27.1987485,18.31557 C27.1187485,18.40807 27.0162485,18.46182 26.9187485,18.52433 C26.8674985,18.55933 26.8249985,18.61183 26.7687485,18.63683 C26.6049985,18.71183 26.4274985,18.75183 26.2499985,18.75183 L26.2487485,18.75183 C26.1074985,18.75183 25.9662485,18.72683 25.8299985,18.67808 C25.7862485,18.66183 25.7487485,18.62933 25.7074985,18.60808 C25.6224985,18.56683 25.5349985,18.53183 25.4587485,18.46932 L11.7087485,7.21897 C11.1749985,6.78146 11.0949985,5.99393 11.5324985,5.46017 C11.9699985,4.92515 12.7562485,4.8464 13.2912485,5.28391 L26.0962485,15.76049 L32.8012485,7.93775 C32.8074985,7.93024 32.8149985,7.92899 32.8212485,7.92274 C32.8262485,7.91524 32.8287485,7.90649 32.8349985,7.90024 C32.8899985,7.84024 32.9624985,7.80899 33.0262485,7.76274 C33.0899985,7.71649 33.1462485,7.65899 33.2162485,7.62649 C33.2937485,7.58898 33.3774985,7.57898 33.4599985,7.55898 C33.5337485,7.54148 33.6037485,7.51273 33.6787485,7.50773 C33.7612485,7.50273 33.8399985,7.52523 33.9224985,7.53648 C33.9999985,7.54648 34.0762485,7.54648 34.1512485,7.57273 C34.2312485,7.59898 34.3012485,7.65274 34.3749985,7.69774 C34.4374985,7.73399 34.5062485,7.75399 34.5624985,7.80149 C34.5687485,7.80774 34.5712485,7.81524 34.5774985,7.82149 C34.5849985,7.82774 34.5937485,7.82899 34.6012485,7.83524 L49.9999985,22.13444 L49.9999985,17.50179 C49.9999985,16.81052 50.5587485,16.25175 51.2499985,16.25175 C51.9412485,16.25175 52.4999985,16.81052 52.4999985,17.50179 L52.4999985,25.00203 C52.4999985,25.06703 52.4724985,25.12328 52.4624985,25.18578 C52.4487485,25.27704 52.4424985,25.36829 52.4087485,25.45579 M58.7499985,40.0024965 L1.25,40.0024965 C0.55874998,40.0024965 0,39.442479 0,38.752457 L0,1.25129 C0,0.56126 0.55874998,0 1.25,0 C1.9412495,0 2.4999995,0.56126 2.4999995,1.25129 L2.4999995,37.501168 L58.7499985,37.501168 C59.4412485,37.501168 59.9999985,38.062436 59.9999985,38.752457 C59.9999985,39.442479 59.4412485,40.0024965 58.7499985,40.0024965" id="path-1"></path>
    </defs>
    <g id="Symbols" stroke="none" stroke-width="1" fill="none" fill-rule="evenodd">
        <g id="05_icons/finance/trend-down" transform="translate(-10.000000, -20.000000)">
            <g id="🎨Colour" transform="translate(10.000000, 20.000000)">
                <mask id="mask-2" fill="white">
                    <use xlink:href="#path-1"></use>
                </mask>
                <use id="Mask" fill="#000000" xlink:href="#path-1"></use>
            </g>
        </g>
    </g>
</svg>