<?xml version="1.0" encoding="UTF-8"?>
<svg width="60px" height="60px" viewBox="0 0 60 60" version="1.1" xmlns="http://www.w3.org/2000/svg" xmlns:xlink="http://www.w3.org/1999/xlink">
    <!-- Generator: Sketch 49.3 (51167) - http://www.bohemiancoding.com/sketch -->
    <title>Mask</title>
    <desc>Created with Sketch.</desc>
    <defs>
        <path d="M31.249997,18.8254 C36.454997,19.40291 40.594997,23.54674 41.173747,28.7506 L57.438747,28.7506 C56.796247,14.58781 45.413747,3.20507 31.249997,2.56381 L31.249997,18.8254 Z M29.999997,38.74956 C34.823747,38.74956 38.749997,34.82573 38.749997,30.00063 C38.749997,25.17678 34.823747,21.25045 29.999997,21.25045 C25.176247,21.25045 21.249997,25.17678 21.249997,30.00063 C21.249997,34.82573 25.176247,38.74956 29.999997,38.74956 Z M28.749997,2.56381 C14.168747,3.22382 2.5,15.25907 2.5,30.00063 C2.5,45.16469 14.836247,57.501201 29.999997,57.501201 C37.136247,57.501201 43.622497,54.749893 48.506247,50.2748 L37.011247,38.77831 C35.086247,40.31959 32.652497,41.25086 29.999997,41.25086 C23.796247,41.25086 18.749997,36.20326 18.749997,30.00063 C18.749997,24.22051 23.132497,19.44916 28.749997,18.8254 L28.749997,2.56381 Z M50.271247,48.50351 C54.463747,43.89967 57.136247,37.88454 57.436247,31.25065 L41.176247,31.25065 C40.936247,33.4157 40.073747,35.39324 38.779997,37.01202 L50.271247,48.50351 Z M29.999997,60.0012528 C13.458747,60.0012528 0,46.54222 0,30.00063 C0,13.45778 13.458747,0 29.999997,0 C46.541247,0 59.999997,13.45778 59.999997,30.00063 C59.999997,38.2458 56.653747,45.72346 51.249997,51.152319 C45.722497,56.654933 38.246247,60.0012528 29.999997,60.0012528 Z" id="path-1"></path>
    </defs>
    <g id="Symbols" stroke="none" stroke-width="1" fill="none" fill-rule="evenodd">
        <g id="05_icons/finance/reports" transform="translate(-10.000000, -10.000000)">
            <g id="🎨Colour" transform="translate(10.000000, 10.000000)">
                <mask id="mask-2" fill="white">
                    <use xlink:href="#path-1"></use>
                </mask>
                <use id="Mask" fill="#000000" xlink:href="#path-1"></use>
            </g>
        </g>
    </g>
</svg>