<?xml version="1.0" encoding="UTF-8"?>
<svg width="60px" height="55px" viewBox="0 0 60 55" version="1.1" xmlns="http://www.w3.org/2000/svg" xmlns:xlink="http://www.w3.org/1999/xlink">
    <!-- Generator: Sketch 49 (51002) - http://www.bohemiancoding.com/sketch -->
    <title>Mask</title>
    <desc>Created with Sketch.</desc>
    <defs>
        <path d="M8.75,18.751 L26.25,18.751 C26.939,18.751 27.5,19.31 27.5,20 C27.5,20.691 26.939,21.251 26.25,21.251 L8.75,21.251 C8.061,21.251 7.5,20.691 7.5,20 C7.5,19.31 8.061,18.751 8.75,18.751 Z M33.75,13.751 L8.75,13.751 C8.061,13.751 7.5,13.191 7.5,12.5 C7.5,11.81 8.061,11.25 8.75,11.25 L33.75,11.25 C34.439,11.25 35,11.81 35,12.5 C35,13.191 34.439,13.751 33.75,13.751 Z M40,3.75 C40,3.061 39.439,2.501 38.75,2.501 L3.75,2.501 C3.061,2.501 2.5,3.061 2.5,3.75 L2.5,28.75 C2.5,29.44 3.061,30.001 3.75,30.001 L11.25,30.001 C11.939,30.001 12.5,30.56 12.5,31.251 L12.5,38.232 L20.361,30.372 C20.477,30.253 20.618,30.161 20.773,30.096 C20.914,30.039 21.064,30.012 21.214,30.007 C21.226,30.007 21.236,30.001 21.249,30.001 L38.75,30.001 C39.439,30.001 40,29.44 40,28.75 L40,3.75 Z M38.75,32.501 L21.767,32.501 L12.134,42.133 C11.895,42.374 11.575,42.5 11.25,42.5 C11.089,42.5 10.926,42.47 10.771,42.405 C10.305,42.212 10,41.756 10,41.251 L10,32.501 L3.75,32.501 C1.682,32.501 0,30.818 0,28.75 L0,3.75 C0,1.682 1.682,0 3.75,0 L38.75,0 C40.818,0 42.5,1.682 42.5,3.75 L42.5,28.75 C42.5,30.818 40.818,32.501 38.75,32.501 Z M56.25,45.001 L47.5,45.001 L47.5,53.75 C47.5,54.256 47.195,54.712 46.729,54.906 C46.574,54.97 46.411,55.001 46.25,55.001 C45.925,55.001 45.605,54.874 45.366,54.633 L35.734,45.001 L25,45.001 C23.621,45.001 22.5,43.88 22.5,42.5 L22.5,38.751 C22.5,38.061 23.061,37.501 23.75,37.501 C24.439,37.501 25,38.061 25,38.751 L25,42.5 L36.25,42.5 C36.412,42.5 36.575,42.533 36.727,42.596 C36.88,42.66 37.02,42.751 37.134,42.867 L45,50.732 L45,43.75 C45,43.06 45.561,42.5 46.25,42.5 L56.25,42.5 C56.939,42.5 57.5,41.94 57.5,41.251 L57.5,18.751 C57.5,18.062 56.939,17.5 56.25,17.5 L48.75,17.5 C48.061,17.5 47.5,16.941 47.5,16.251 C47.5,15.56 48.061,15.001 48.75,15.001 L56.25,15.001 C58.318,15.001 60,16.682 60,18.751 L60,41.251 C60,43.318 58.318,45.001 56.25,45.001 Z" id="path-1"></path>
    </defs>
    <g id="Symbols" stroke="none" stroke-width="1" fill="none" fill-rule="evenodd">
        <g id="05_icons/communications/chat" transform="translate(-10.000000, -12.000000)">
            <g id="🎨Colour" transform="translate(10.000000, 12.000000)">
                <mask id="mask-2" fill="white">
                    <use xlink:href="#path-1"></use>
                </mask>
                <use id="Mask" fill="#242424" xlink:href="#path-1"></use>
            </g>
        </g>
    </g>
</svg>