<?xml version="1.0" encoding="UTF-8"?>
<svg width="60px" height="60px" viewBox="0 0 60 60" version="1.1" xmlns="http://www.w3.org/2000/svg" xmlns:xlink="http://www.w3.org/1999/xlink">
    <!-- Generator: Sketch 48.2 (47327) - http://www.bohemiancoding.com/sketch -->
    <desc>Created with Sketch.</desc>
    <defs>
        <path d="M27.3262461,40.85085 C27.0962461,41.0996 26.7762461,41.24336 26.4387461,41.25086 L26.4112461,41.25086 C26.0824961,41.25086 25.7674961,41.12085 25.5337461,40.89085 L14.1224961,29.63937 C13.6312461,29.15561 13.6249961,28.36434 14.1099961,27.87183 C14.5937461,27.38057 15.3862461,27.37557 15.8774961,27.86058 L26.3724961,38.20704 L44.0849961,19.14915 C44.5537461,18.64164 45.3462461,18.61539 45.8512461,19.08415 C46.3562461,19.55416 46.3849961,20.34542 45.9149961,20.85168 L27.3262461,40.85085 Z M29.9999961,2.50005 C14.8362461,2.50005 2.50000005,14.83531 2.50000005,30.00062 C2.50000005,45.16469 14.8362461,57.499946 29.9999961,57.499946 C45.1637461,57.499946 57.4999961,45.16469 57.4999961,30.00062 C57.4999961,14.83531 45.1637461,2.50005 29.9999961,2.50005 Z M29.999998,60 C13.4587469,60 0,46.5422216 0,30.000621 C0,13.4577804 13.4587469,0 29.999998,0 C46.5412491,0 60,13.4577804 60,30.000621 C60,46.5422216 46.5412491,60 29.999998,60 Z" id="checked"></path>
    </defs>
    <g id="Symbols" stroke="none" stroke-width="1" fill="none" fill-rule="evenodd">
        <g id="05_icons/interface/check-ok" transform="translate(-10.000000, -10.000000)">
            <g id="🎨Colour" transform="translate(10.000000, 10.000000)">
                <mask id="mask-2" fill="white">
                    <use xlink:href="#checked"></use>
                </mask>
                <use id="Mask" fill="#000000" xlink:href="#checked"></use>
            </g>
        </g>
    </g>
</svg>