<?xml version="1.0" encoding="UTF-8"?>
<svg width="60px" height="60px" viewBox="0 0 60 60" version="1.1" xmlns="http://www.w3.org/2000/svg" xmlns:xlink="http://www.w3.org/1999/xlink">
    <!-- Generator: Sketch 48.2 (47327) - http://www.bohemiancoding.com/sketch -->
    <title>Mask</title>
    <desc>Created with Sketch.</desc>
    <defs>
        <path d="M15.8775015,27.86058 L26.3725015,38.20829 L44.0850015,19.1504 C44.5537515,18.64289 45.3462515,18.61539 45.8512515,19.0854 C46.3562515,19.55541 46.3850015,20.34667 45.9150015,20.85168 L27.3262515,40.85335 C27.0962515,41.0996 26.7762515,41.24336 26.4387515,41.25211 L26.4112515,41.25211 C26.0825015,41.25211 25.7675015,41.1221 25.5337515,40.89085 L14.1225015,29.64062 C13.6312515,29.15686 13.6250015,28.36559 14.1100015,27.87308 C14.5937515,27.38182 15.3862515,27.37682 15.8775015,27.86058 Z M57.5000015,2.5013 L2.50000048,2.5013 L2.50000048,57.502446 L57.5000015,57.502446 L57.5000015,2.5013 Z M58.7500015,60.001248 L1.25000048,60.001248 C0.55999998,60.001248 0,59.4424863 0,58.752472 L0,1.25127 C0,0.56126 0.55999998,0 1.25000048,0 L58.7500015,0 C59.4400015,0 60.0000015,0.56126 60.0000015,1.25127 L60.0000015,58.752472 C60.0000015,59.4424863 59.4400015,60.001248 58.7500015,60.001248 Z" id="path-1"></path>
    </defs>
    <g id="05_icons/interface/check-true" stroke="none" stroke-width="1" fill="none" fill-rule="evenodd" transform="translate(-10.000000, -10.000000)">
        <g id="🎨Colour" transform="translate(10.000000, 10.000000)">
            <mask id="mask-2" fill="white">
                <use xlink:href="#path-1"></use>
            </mask>
            <use id="Mask" fill="#000000" xlink:href="#path-1"></use>
        </g>
    </g>
</svg>