<?xml version="1.0" encoding="UTF-8"?>
<svg width="60px" height="53px" viewBox="0 0 60 53" version="1.1" xmlns="http://www.w3.org/2000/svg" xmlns:xlink="http://www.w3.org/1999/xlink">
    <!-- Generator: Sketch 49.3 (51167) - http://www.bohemiancoding.com/sketch -->
    <title>Mask</title>
    <desc>Created with Sketch.</desc>
    <defs>
        <path d="M23.7504666,43.4775149 L58.7502782,43.4775149 C59.4409478,43.4775149 60,44.0345167 60,44.7211072 C60,45.4052064 59.4409478,45.9622038 58.7502782,45.9622038 L23.7504666,45.9622038 C23.059797,45.9622038 22.5007448,45.4052064 22.5007448,44.7211072 C22.5007448,44.0345167 23.059797,43.4775149 23.7504666,43.4775149 Z M7.87508011,11.8856254 C7.63315749,12.2345297 7.2420705,12.4226863 6.84471568,12.4226863 C6.60906088,12.4226863 6.37089825,12.3566428 6.16031302,12.2195732 L0.564755869,8.56606858 C-0.0131006996,8.18974681 -0.1735468,7.41966849 0.205005683,6.84522496 C0.58481161,6.27203361 1.36197263,6.11252925 1.93606833,6.48885102 L6.5112887,9.47570344 L12.7223092,0.536320104 C13.1133962,-0.026906029 13.8905528,-0.170210389 14.460892,0.21981573 C15.0287181,0.609841849 15.1716138,1.38365061 14.7792746,1.94688544 L7.87508011,11.8856254 Z M7.50028791,21.1178435 C4.74387464,21.1178435 2.50013707,23.3470785 2.50013707,26.0872091 C2.50013707,28.8273398 4.74387464,31.0565835 7.50028791,31.0565835 C10.2579525,31.0565835 12.5004396,28.8273398 12.5004396,26.0872091 C12.5004396,23.3470785 10.2579525,21.1178435 7.50028791,21.1178435 Z M7.50028791,33.5400184 C3.36504149,33.5400184 0.000687649353,30.1967834 0.000687649353,26.0872091 C0.000687649353,21.9776349 3.36504149,18.6331564 7.50028791,18.6331564 C11.6355352,18.6331564 14.999892,21.9776349 14.999892,26.0872091 C14.999892,30.1967834 11.6355352,33.5400184 7.50028791,33.5400184 Z M7.50028791,39.751732 C4.74387464,39.751732 2.50013707,41.9797322 2.50013707,44.7211072 C2.50013707,47.4599935 4.74387464,49.6892328 7.50028791,49.6892328 C10.2579525,49.6892328 12.5004396,47.4599935 12.5004396,44.7211072 C12.5004396,41.9797322 10.2579525,39.751732 7.50028791,39.751732 Z M7.50028791,52.1739183 C3.36504149,52.1739183 0.000687649353,48.8294371 0.000687649353,44.7211072 C0.000687649353,40.6102886 3.36504149,37.2670535 7.50028791,37.2670535 C11.6355352,37.2670535 14.999892,40.6102886 14.999892,44.7211072 C14.999892,48.8294371 11.6355352,52.1739183 7.50028791,52.1739183 Z M58.7502782,7.32247718 L23.6526927,7.32247718 C22.9620231,7.32247718 22.5007448,6.8975641 22.5007448,6.21097274 C22.5007448,5.52562486 22.9620231,4.83031176 23.6526927,4.83031176 L58.7502782,4.83031176 C59.4409478,4.83031176 60,5.52562486 60,6.21097274 C60,6.8975641 59.4409478,7.32247718 58.7502782,7.32247718 Z M58.7502782,27.2610179 L23.6526927,27.2610179 C22.9620231,27.2610179 22.5007448,26.7738005 22.5007448,26.0872091 C22.5007448,25.4006178 22.9620231,24.767609 23.6526927,24.767609 L58.7502782,24.767609 C59.4409478,24.767609 60,25.4006178 60,26.0872091 C60,26.7738005 59.4409478,27.2610179 58.7502782,27.2610179 Z" id="path-1"></path>
    </defs>
    <g id="Symbols" stroke="none" stroke-width="1" fill="none" fill-rule="evenodd">
        <g id="05_icons/interface/check-list" transform="translate(-10.000000, -14.000000)">
            <g id="🎨Colour" transform="translate(10.000000, 14.000000)">
                <mask id="mask-2" fill="white">
                    <use xlink:href="#path-1"></use>
                </mask>
                <use id="Mask" fill="#000000" xlink:href="#path-1"></use>
            </g>
        </g>
    </g>
</svg>