<?xml version="1.0" encoding="UTF-8"?>
<svg width="60px" height="60px" viewBox="0 0 60 60" version="1.1" xmlns="http://www.w3.org/2000/svg" xmlns:xlink="http://www.w3.org/1999/xlink">
    <!-- Generator: Sketch 49.3 (51167) - http://www.bohemiancoding.com/sketch -->
    <title>Mask</title>
    <desc>Created with Sketch.</desc>
    <defs>
        <path d="M42.5,37.501 C42.18,37.501 41.86,37.38 41.616,37.135 L30,25.52 L18.384,37.135 C17.895,37.624 17.105,37.624 16.616,37.135 C16.127,36.647 16.127,35.856 16.616,35.367 L29.116,22.868 C29.605,22.379 30.395,22.379 30.884,22.868 L43.384,35.367 C43.873,35.856 43.873,36.647 43.384,37.135 C43.14,37.38 42.82,37.501 42.5,37.501 M30,2.501 C14.836,2.501 2.5,14.838 2.5,30.001 C2.5,45.166 14.836,57.502 30,57.502 C45.164,57.502 57.5,45.166 57.5,30.001 C57.5,14.838 45.164,2.501 30,2.501 M30,60.001 C13.459,60.001 0,46.543 0,30.001 C0,13.459 13.459,0 30,0 C46.541,0 60,13.459 60,30.001 C60,46.543 46.541,60.001 30,60.001" id="close-cancel"></path>
    </defs>
    <g id="Symbols" stroke="none" stroke-width="1" fill="none" fill-rule="evenodd">
        <g id="05_icons/arrow/circle-up" transform="translate(-10.000000, -10.000000)">
            <g id="🎨Colour" transform="translate(10.000000, 10.000000)">
                <mask id="mask-2" fill="white">
                    <use xlink:href="#close-cancel"></use>
                </mask>
                <use id="Mask" fill="#242424" xlink:href="#close-cancel"></use>
            </g>
        </g>
    </g>
</svg>