<?xml version="1.0" encoding="UTF-8"?>
<svg width="60px" height="60px" viewBox="0 0 60 60" version="1.1" xmlns="http://www.w3.org/2000/svg" xmlns:xlink="http://www.w3.org/1999/xlink">
    <!-- Generator: Sketch 49.3 (51167) - http://www.bohemiancoding.com/sketch -->
    <title>Mask</title>
    <desc>Created with Sketch.</desc>
    <defs>
        <path d="M30,0 C13.455144,0 0,13.4551333 0,30 C0,46.5448667 13.455144,60 30,60 C46.544856,60 60,46.5448667 60,30 C60,13.4551333 46.544856,0 30,0 Z M30,4 C44.383096,4 56,15.6168933 56,30 C56,44.3830667 44.383096,56 30,56 C15.616904,56 4,44.3830667 4,30 C4,15.6168933 15.616904,4 30,4 Z M29.9791667,9.95833333 C29.445074,9.96383456 28.9353666,10.1827203 28.5636016,10.5662252 C28.1918367,10.9497301 27.9888987,11.4659944 28,12 L28,30 C28.0042077,30.5237034 28.213649,31.0248664 28.5833333,31.3958333 L41.3125,44.125 C41.8025989,44.6862752 42.5640638,44.9285931 43.2884039,44.7537839 C44.012744,44.5789747 44.579868,44.0160208 44.760018,43.2929905 C44.9401681,42.5699602 44.7034764,41.8067278 44.1458333,41.3125 L32,29.1666667 L32,12 C32.0112529,11.4587682 31.8026449,10.9360884 31.4218216,10.551339 C31.0409983,10.1665897 30.5204854,9.95263201 29.9791667,9.95833333 Z" id="path-1"></path>
    </defs>
    <g id="Symbols" stroke="none" stroke-width="1" fill="none" fill-rule="evenodd">
        <g id="05_icons/interface/clock" transform="translate(-10.000000, -10.000000)">
            <g id="🎨Icon-Colour" transform="translate(10.000000, 10.000000)">
                <mask id="mask-2" fill="white">
                    <use xlink:href="#path-1"></use>
                </mask>
                <use id="Mask" fill="#000000" fill-rule="nonzero" xlink:href="#path-1"></use>
            </g>
        </g>
    </g>
</svg>