<?xml version="1.0" encoding="UTF-8"?>
<svg width="59px" height="60px" viewBox="0 0 59 60" version="1.1" xmlns="http://www.w3.org/2000/svg" xmlns:xlink="http://www.w3.org/1999/xlink">
    <!-- Generator: Sketch 49.3 (51167) - http://www.bohemiancoding.com/sketch -->
    <title>🎨Colour</title>
    <desc>Created with Sketch.</desc>
    <defs>
        <path d="M31.2411778,30.0006275 L58.6470478,57.8676975 C59.1271178,58.3561535 59.1271178,59.1464516 58.6470478,59.6349082 C58.4063978,59.877884 58.0916978,60.0006244 57.7782277,60.0006244 C57.4635378,60.0006244 57.1488377,59.877884 56.9081878,59.6349082 L29.5035478,31.7678375 L2.09891175,59.6349082 C1.85826075,59.877884 1.54479675,60.0006244 1.23009875,60.0006244 C0.91540075,60.0006244 0.60070275,59.877884 0.36005145,59.6349082 C-0.12001715,59.1464516 -0.12001715,58.3561535 0.36005145,57.8676975 L27.7646878,30.0006275 L0.36005145,2.1348075 C-0.12001715,1.6475975 -0.12001715,0.8547975 0.36005145,0.3663375 C0.84135375,-0.1208625 1.61884275,-0.1208625 2.09891175,0.3663375 L29.5023178,28.2321575 L56.9057178,0.3663375 C57.3857878,-0.1221125 58.1645078,-0.1221125 58.6445778,0.3663375 C59.1246478,0.8547975 59.1246478,1.6450975 58.6445778,2.1348075 L31.2411778,30.0006275 Z" id="path-1"></path>
    </defs>
    <g id="Symbols" stroke="none" stroke-width="1" fill="none" fill-rule="evenodd">
        <g id="05_icons/interface/close-cancel" transform="translate(-10.000000, -10.000000)">
            <g id="🎨Colour" transform="translate(10.000000, 10.000000)">
                <mask id="mask-2" fill="white">
                    <use xlink:href="#path-1"></use>
                </mask>
                <use id="Mask" fill="#000000" xlink:href="#path-1"></use>
            </g>
        </g>
    </g>
</svg>