<?xml version="1.0" encoding="UTF-8"?>
<svg width="60px" height="60px" viewBox="0 0 60 60" version="1.1" xmlns="http://www.w3.org/2000/svg" xmlns:xlink="http://www.w3.org/1999/xlink">
    <!-- Generator: Sketch 49.3 (51167) - http://www.bohemiancoding.com/sketch -->
    <title>Mask</title>
    <desc>Created with Sketch.</desc>
    <defs>
        <path d="M53.7499983,16.25034 L43.9012483,16.25034 C45.2949983,20.17167 46.0662483,24.373 46.1962483,28.74935 L57.4574983,28.74935 C57.2512483,24.20675 55.9437483,19.95166 53.7849983,16.24284 C53.7724983,16.24284 53.7624983,16.25034 53.7499983,16.25034 Z M36.0737483,3.19881 C38.9499983,6.32263 41.2174983,9.88895 42.9012483,13.75028 L52.1337483,13.75028 C48.2737483,8.51767 42.6212483,4.68259 36.0737483,3.19881 Z M31.2499983,2.5638 L31.2499983,13.75028 L40.1499983,13.75028 C38.1662483,9.5602 35.4224983,5.77262 31.9174983,2.59755 C31.6962483,2.5813 31.4712483,2.57755 31.2499983,2.5638 Z M18.7862483,16.25034 C17.2899983,20.14667 16.4487483,24.3505 16.3074983,28.74935 L28.7499983,28.74935 L28.7499983,16.25034 L18.7862483,16.25034 Z M28.7499983,2.56255 C28.5299983,2.57755 28.3062483,2.5813 28.0862483,2.5963 C24.5799983,5.77262 21.8362483,9.56145 19.8524983,13.75028 L28.7499983,13.75028 L28.7499983,2.56255 Z M7.8662503,13.75028 L17.1012483,13.75028 C18.7862483,9.88895 21.0537483,6.32138 23.9312483,3.19756 C17.3812483,4.68009 11.7274983,8.51642 7.8662503,13.75028 Z M6.2137503,16.24284 C4.0562503,19.95166 2.7487503,24.20675 2.5425003,28.74935 L13.8037483,28.74935 C13.9337483,24.37425 14.7062483,20.17167 16.0999983,16.25034 L6.2500003,16.25034 C6.2375003,16.25034 6.2262503,16.24284 6.2137503,16.24284 Z M6.2500003,43.74966 L16.1449983,43.74966 C14.7324983,39.79958 13.9399983,35.58449 13.8049983,31.25065 L2.5425003,31.25065 C2.7487503,35.79324 4.0562503,40.04833 6.2137503,43.75716 C6.2262503,43.75716 6.2375003,43.74966 6.2500003,43.74966 Z M23.9324983,56.80368 C21.0987483,53.702365 18.8399983,50.11979 17.1512483,46.24971 L7.8662503,46.24971 C11.7274983,51.484819 17.3824983,55.321149 23.9324983,56.80368 Z M28.7499983,57.437443 L28.7499983,46.24971 L19.8474983,46.24971 C21.8299983,50.439797 24.5712483,54.227376 28.0737483,57.403692 C28.2974983,57.418693 28.5249983,57.422443 28.7499983,57.437443 Z M28.7499983,31.25065 L16.3074983,31.25065 C16.4487483,35.65074 17.2887483,39.85333 18.7824983,43.74966 L28.7499983,43.74966 L28.7499983,31.25065 Z M41.2149983,43.74966 C42.7099983,39.85333 43.5512483,35.64949 43.6924983,31.25065 L31.2499983,31.25065 L31.2499983,43.74966 L41.2149983,43.74966 Z M31.2499983,57.437443 C31.4724983,57.422443 31.6962483,57.418693 31.9187483,57.403692 C35.4237483,54.227376 38.1662483,50.439797 40.1499983,46.24971 L31.2499983,46.24971 L31.2499983,57.437443 Z M52.1337483,46.24971 L42.8999983,46.24971 C41.2162483,50.11104 38.9499983,53.678615 36.0737483,56.80243 C42.6212483,55.318649 48.2737483,51.483569 52.1337483,46.24971 Z M31.2499983,28.74935 L43.6924983,28.74935 C43.5512483,24.3505 42.7099983,20.14667 41.2149983,16.25034 L31.2499983,16.25034 L31.2499983,28.74935 Z M53.7862483,43.75716 C55.9437483,40.04833 57.2512483,35.79324 57.4574983,31.25065 L46.1962483,31.25065 C46.0662483,35.62699 45.2937483,39.82833 43.9012483,43.74966 L53.7499983,43.74966 C53.7624983,43.74966 53.7737483,43.75716 53.7862483,43.75716 Z M29.9999991,60 C13.4587487,60 0,46.5422229 0,29.9993718 C0,13.4577808 13.4587487,0 29.9999991,0 C46.5412496,0 60,13.4577808 60,29.9993718 C60,46.5422229 46.5412496,60 29.9999991,60 Z" id="path-1"></path>
    </defs>
    <g id="Symbols" stroke="none" stroke-width="1" fill="none" fill-rule="evenodd">
        <g id="05_icons/interface/country" transform="translate(-10.000000, -10.000000)">
            <g id="🎨Colour" transform="translate(10.000000, 10.000000)">
                <mask id="mask-2" fill="white">
                    <use xlink:href="#path-1"></use>
                </mask>
                <use id="Mask" fill="#000000" xlink:href="#path-1"></use>
            </g>
        </g>
    </g>
</svg>