<?xml version="1.0" encoding="UTF-8"?>
<svg width="61px" height="41px" viewBox="0 0 61 41" version="1.1" xmlns="http://www.w3.org/2000/svg" xmlns:xlink="http://www.w3.org/1999/xlink">
    <!-- Generator: Sketch 49.3 (51167) - http://www.bohemiancoding.com/sketch -->
    <title>Mask</title>
    <desc>Created with Sketch.</desc>
    <defs>
        <path d="M50.59314,32.940499 L43.09314,32.940499 C42.40189,32.940499 41.84314,32.381731 41.84314,31.69171 C41.84314,31.001688 42.40189,30.44167 43.09314,30.44167 L50.59314,30.44167 C51.28439,30.44167 51.84314,31.001688 51.84314,31.69171 C51.84314,32.381731 51.28439,32.940499 50.59314,32.940499 Z M58.09314,14.19116 L3.09314,14.19116 L3.09314,35.441827 C3.09314,36.82062 4.25189,37.940655 5.67564,37.940655 L55.51064,37.940655 C56.93439,37.940655 58.09314,36.82062 58.09314,35.441827 L58.09314,14.19116 Z M58.09314,5.44089 C58.09314,4.0621 56.93439,2.94081 55.51064,2.94081 L5.67564,2.94081 C4.25189,2.94081 3.09314,4.0621 3.09314,5.44089 L3.09314,9.19101 L58.09314,9.19101 L58.09314,5.44089 Z M55.51064,40.4419828 L5.67564,40.4419828 C2.87314,40.4419828 0.5931396,38.199413 0.5931396,35.441827 L0.5931396,5.44089 C0.5931396,2.6833 2.87314,0.44073 5.67564,0.44073 L55.51064,0.44073 C58.31314,0.44073 60.59314,2.6833 60.59314,5.44089 L60.59314,35.441827 C60.59314,38.199413 58.31314,40.4419828 55.51064,40.4419828 Z" id="path-1"></path>
    </defs>
    <g id="Symbols" stroke="none" stroke-width="1" fill="none" fill-rule="evenodd">
        <g id="05_icons/finance/payment" transform="translate(-9.000000, -20.000000)">
            <g id="🎨Colour" transform="translate(9.000000, 20.000000)">
                <mask id="mask-2" fill="white">
                    <use xlink:href="#path-1"></use>
                </mask>
                <use id="Mask" fill="#000000" xlink:href="#path-1"></use>
            </g>
        </g>
    </g>
</svg>