<?xml version="1.0" encoding="UTF-8"?>
<svg width="61px" height="61px" viewBox="0 0 61 61" version="1.1" xmlns="http://www.w3.org/2000/svg" xmlns:xlink="http://www.w3.org/1999/xlink">
    <!-- Generator: Sketch 49.3 (51167) - http://www.bohemiancoding.com/sketch -->
    <title>Mask</title>
    <desc>Created with Sketch.</desc>
    <defs>
        <path d="M14.31897,48.08405 L47.54272,48.08405 L47.54272,14.85461 L14.31897,48.08405 Z M12.54272,13.08582 L12.54272,46.32526 L45.77647,13.08582 L12.54272,13.08582 Z M58.7927245,50.5853497 L50.0427238,50.5853497 L50.0427238,59.3355336 C50.0427238,60.0267983 49.4839738,60.58556 48.7927237,60.58556 C48.1014737,60.58556 47.5427236,60.0267983 47.5427236,59.3355336 L47.5427236,50.5853497 L13.191471,50.5853497 C11.4552209,50.5853497 10.0427208,49.1715697 10.0427208,47.4365397 L10.0427208,13.0858199 L1.2927251,13.0858199 C0.601474643,13.0858199 0.04272461,12.5270599 0.04272461,11.8370499 C0.04272461,11.1457799 0.601474643,10.5870199 1.2927251,10.5870199 L10.0427208,10.5870199 L10.0427208,1.83558999 C10.0427208,1.14557 10.6014708,0.58556 11.2927209,0.58556 C11.9839709,0.58556 12.542721,1.14557 12.542721,1.83558999 L12.542721,10.5870199 L46.8927236,10.5870199 C47.3027236,10.5870199 47.6902237,10.6707699 48.0489737,10.8132699 L55.4089743,3.45186998 C55.8977243,2.96310998 56.6877244,2.96310998 57.1764744,3.45186998 C57.6652244,3.94062998 57.6652244,4.73064997 57.1764744,5.21940997 L49.8164738,12.5808099 C49.9589738,12.9395699 50.0427238,13.3270799 50.0427238,13.7358299 L50.0427238,48.0840497 L58.7927245,48.0840497 C59.4839746,48.0840497 60.0427246,48.6453097 60.0427246,49.3353297 C60.0427246,50.0253397 59.4839746,50.5853497 58.7927245,50.5853497 Z" id="path-1"></path>
    </defs>
    <g id="Symbols" stroke="none" stroke-width="1" fill="none" fill-rule="evenodd">
        <g id="05_icons/interface/crop" transform="translate(-10.000000, -9.000000)">
            <g id="🎨Colour" transform="translate(10.000000, 9.000000)">
                <mask id="mask-2" fill="white">
                    <use xlink:href="#path-1"></use>
                </mask>
                <use id="Mask" fill="#000000" xlink:href="#path-1"></use>
            </g>
        </g>
    </g>
</svg>