<?xml version="1.0" encoding="UTF-8"?>
<svg width="60px" height="60px" viewBox="0 0 60 60" version="1.1" xmlns="http://www.w3.org/2000/svg" xmlns:xlink="http://www.w3.org/1999/xlink">
    <!-- Generator: Sketch 49.1 (51147) - http://www.bohemiancoding.com/sketch -->
    <title>Mask</title>
    <desc>Created with Sketch.</desc>
    <defs>
        <path d="M40.8837527,40.8846 C40.6400027,41.12836 40.3200027,41.25086 40.0000027,41.25086 C39.6800027,41.25086 39.3600027,41.12836 39.1162527,40.8846 L30.0000027,31.76691 L20.8837527,40.8846 C20.6400027,41.12836 20.3200027,41.25086 20.0000027,41.25086 C19.6800027,41.25086 19.3600027,41.12836 19.1162527,40.8846 C18.6275027,40.39584 18.6275027,39.60582 19.1162527,39.11706 L28.2325027,30.00062 L19.1162527,20.88293 C18.6275027,20.39542 18.6275027,19.60416 19.1162527,19.1154 C19.6050027,18.62789 20.3950027,18.62789 20.8837527,19.1154 L30.0000027,28.23309 L39.1162527,19.1154 C39.6050027,18.62789 40.3950027,18.62789 40.8837527,19.1154 C41.3725027,19.60416 41.3725027,20.39542 40.8837527,20.88293 L31.7675027,30.00062 L40.8837527,39.11706 C41.3725027,39.60582 41.3725027,40.39584 40.8837527,40.8846 M30.0000027,2.50005 C14.8362527,2.50005 2.4999997,14.83531 2.4999997,30.00062 C2.4999997,45.16469 14.8362527,57.499946 30.0000027,57.499946 C45.1637527,57.499946 57.5000027,45.16469 57.5000027,30.00062 C57.5000027,14.83531 45.1637527,2.50005 30.0000027,2.50005 M30.0000013,60 C13.4587521,60 0,46.5422216 0,30.000621 C0,13.4577804 13.4587521,0 30.0000013,0 C46.5412506,0 60,13.4577804 60,30.000621 C60,46.5422216 46.5412506,60 30.0000013,60" id="delete"></path>
    </defs>
    <g id="Symbols" stroke="none" stroke-width="1" fill="none" fill-rule="evenodd">
        <g id="05_icons/interface/close" transform="translate(-10.000000, -10.000000)">
            <g id="🎨Colour" transform="translate(10.000000, 10.000000)">
                <mask id="mask-2" fill="white">
                    <use xlink:href="#delete"></use>
                </mask>
                <use id="Mask" fill="#000000" xlink:href="#delete"></use>
            </g>
        </g>
    </g>
</svg>