<?xml version="1.0" encoding="UTF-8"?>
<svg width="60px" height="60px" viewBox="0 0 60 60" version="1.1" xmlns="http://www.w3.org/2000/svg" xmlns:xlink="http://www.w3.org/1999/xlink">
    <!-- Generator: Sketch 49.3 (51167) - http://www.bohemiancoding.com/sketch -->
    <title>Mask</title>
    <desc>Created with Sketch.</desc>
    <defs>
        <path d="M1.2500002,57.501197 L43.7500022,57.501197 C44.4400022,57.501197 45.0000022,58.059959 45.0000022,58.749973 C45.0000022,59.4412376 44.4400022,59.9999992 43.7500022,59.9999992 L1.2500002,59.9999992 C0.5600002,59.9999992 0,59.4412376 0,58.749973 C0,58.059959 0.5600002,57.501197 1.2500002,57.501197 Z M1.2500002,44.99969 L58.7500022,44.99969 C59.4400022,44.99969 60.0000022,45.5597 60.0000022,46.25096 C60.0000022,46.94098 59.4400022,47.50099 58.7500022,47.50099 L1.2500002,47.50099 C0.5600002,47.50099 0,46.94098 0,46.25096 C0,45.5597 0.5600002,44.99969 1.2500002,44.99969 Z M25.0000022,2.4988 L2.5000002,2.4988 L2.5000002,22.50047 L25.0000022,22.50047 L25.0000022,2.4988 Z M26.2500022,24.99927 L1.2500002,24.99927 C0.5600002,24.99927 0,24.44051 0,23.75049 L0,1.25003 C0,0.55876 0.5600002,0 1.2500002,0 L26.2500022,0 C26.9400022,0 27.5000022,0.55876 27.5000022,1.25003 L27.5000022,23.75049 C27.5000022,24.44051 26.9400022,24.99927 26.2500022,24.99927 Z M58.7500022,2.4988 L35.0000022,2.4988 C34.3100022,2.4988 33.7500022,1.94004 33.7500022,1.25003 C33.7500022,0.55876 34.3100022,0 35.0000022,0 L58.7500022,0 C59.4400022,0 60.0000022,0.55876 60.0000022,1.25003 C60.0000022,1.94004 59.4400022,2.4988 58.7500022,2.4988 Z M58.7500022,13.75029 L35.0000022,13.75029 C34.3100022,13.75029 33.7500022,13.19027 33.7500022,12.50026 C33.7500022,11.809 34.3100022,11.24898 35.0000022,11.24898 L58.7500022,11.24898 C59.4400022,11.24898 60.0000022,11.809 60.0000022,12.50026 C60.0000022,13.19027 59.4400022,13.75029 58.7500022,13.75029 Z M58.7500022,24.99927 L35.0000022,24.99927 C34.3100022,24.99927 33.7500022,24.44051 33.7500022,23.75049 C33.7500022,23.05923 34.3100022,22.50047 35.0000022,22.50047 L58.7500022,22.50047 C59.4400022,22.50047 60.0000022,23.05923 60.0000022,23.75049 C60.0000022,24.44051 59.4400022,24.99927 58.7500022,24.99927 Z M58.7500022,36.2495 L1.2500002,36.2495 C0.5600002,36.2495 0,35.69199 0,35.00073 C0,34.30946 0.5600002,33.74945 1.2500002,33.74945 L58.7500022,33.74945 C59.4400022,33.74945 60.0000022,34.30946 60.0000022,35.00073 C60.0000022,35.69199 59.4400022,36.2495 58.7500022,36.2495 Z" id="path-1"></path>
    </defs>
    <g id="Symbols" stroke="none" stroke-width="1" fill="none" fill-rule="evenodd">
        <g id="05_icons/interface/description" transform="translate(-10.000000, -10.000000)">
            <g id="🎨Colour" transform="translate(10.000000, 10.000000)">
                <mask id="mask-2" fill="white">
                    <use xlink:href="#path-1"></use>
                </mask>
                <use id="Mask" fill="#000000" xlink:href="#path-1"></use>
            </g>
        </g>
    </g>
</svg>