<?xml version="1.0" encoding="UTF-8"?>
<svg width="60px" height="53px" viewBox="0 0 60 53" version="1.1" xmlns="http://www.w3.org/2000/svg" xmlns:xlink="http://www.w3.org/1999/xlink">
    <!-- Generator: Sketch 49.3 (51167) - http://www.bohemiancoding.com/sketch -->
    <title>Mask</title>
    <desc>Created with Sketch.</desc>
    <defs>
        <path d="M23.3837492,43.2274916 L28.7499989,48.6389672 L28.7499989,28.9897572 C28.7499989,28.2939425 29.3100018,27.7304896 30.0000017,27.7304896 C30.6900017,27.7304896 31.2499958,28.2939425 31.2499958,28.9897572 L31.2499958,48.6389672 L36.6162455,43.2274916 C37.1049984,42.734627 37.8949954,42.734627 38.3837483,43.2274916 C38.8725012,43.7203651 38.8725012,44.5170204 38.3837483,45.0098895 L30.8837487,52.5718337 C30.7687517,52.6878029 30.6312458,52.7798219 30.4774958,52.8441091 C30.3249988,52.9083964 30.1624958,52.9411703 30.0000017,52.9411703 C29.8374988,52.9411703 29.6749959,52.9083964 29.5224988,52.8441091 C29.3687488,52.7798219 29.2312518,52.6878029 29.1162459,52.5718337 L21.6162463,45.0098895 C21.1275022,44.5170204 21.1275022,43.7203651 21.6162463,43.2274916 C22.1049992,42.734627 22.8949962,42.734627 23.3837492,43.2274916 M45.1562479,45.3691421 C45.1037479,45.3741839 45.049995,45.3792256 44.997495,45.3792256 C44.3775009,45.3792256 43.839998,44.9140889 43.759995,44.2762589 C43.6737451,43.5854887 44.158748,42.9539622 44.843745,42.8669799 C51.9399975,41.9644388 57.4999943,35.6680744 57.4999943,28.5334484 C57.4999943,20.6349429 51.1812446,14.2087404 43.4149951,14.2087404 C43.1374951,14.2087404 42.857498,14.2251257 42.5799981,14.2578962 C41.992501,14.3133609 41.4499952,13.9755433 41.2587452,13.4183816 C39.0099983,6.90142019 32.9449957,2.5210675 26.1675019,2.5210675 C17.3437524,2.5210675 10.1662529,9.81955532 10.1662529,18.7933048 C10.1662529,19.5483606 10.2300029,20.3198106 10.362497,21.1454547 C10.459997,21.7568193 10.103747,22.3480046 9.52249701,22.5421311 C5.3224999,23.9514074 2.49999947,27.9246072 2.49999947,32.4297599 C2.49999947,38.1803184 7.09749921,42.8581564 12.7487498,42.8581564 L15.0000026,42.8581564 C15.6900025,42.8581564 16.2499966,43.4216181 16.2499966,44.117431 C16.2499966,44.8145065 15.6900025,45.3792256 15.0000026,45.3792256 L12.7487498,45.3792256 C5.71874958,45.3792256 0,39.5694242 0,32.4297599 C0,27.1934984 3.07749944,22.5333075 7.75749917,20.5227518 C7.69624976,19.9328194 7.66624977,19.3618048 7.66624977,18.7933048 C7.66624977,8.43044952 15.9662496,0 26.1675019,0 C33.6912456,0 40.4524952,4.65892914 43.282501,11.6889346 C43.327501,11.6876729 43.371248,11.6876729 43.4149951,11.6876729 C52.5600004,11.6876729 60,19.2445754 60,28.5334484 C60,36.9134802 53.4799945,44.3090322 45.1562479,45.3691421" id="path-1"></path>
    </defs>
    <g id="Symbols" stroke="none" stroke-width="1" fill="none" fill-rule="evenodd">
        <g id="05_icons/network/download" transform="translate(-10.000000, -14.000000)">
            <g id="🎨Colour" transform="translate(10.000000, 14.000000)">
                <mask id="mask-2" fill="white">
                    <use xlink:href="#path-1"></use>
                </mask>
                <use id="Mask" fill="#000000" xlink:href="#path-1"></use>
            </g>
        </g>
    </g>
</svg>