<?xml version="1.0" encoding="UTF-8"?>
<svg width="60px" height="60px" viewBox="0 0 60 60" version="1.1" xmlns="http://www.w3.org/2000/svg" xmlns:xlink="http://www.w3.org/1999/xlink">
    <!-- Generator: Sketch 49 (51002) - http://www.bohemiancoding.com/sketch -->
    <title>Mask</title>
    <desc>Created with Sketch.</desc>
    <defs>
        <path d="M10.4347826,10.4347826 L1.2897,10.4347826 C0.585936522,10.4347826 0,11.0122017 0,11.7244826 L0,58.7103 C0,59.4140635 0.57741913,60 1.2897,60 L48.2755174,60 C48.9792809,60 49.5652174,59.4225809 49.5652174,58.7103 L49.5652174,49.5652174 L58.7076809,49.5652174 C59.4371661,49.5652174 60,48.9877983 60,48.2755174 L60,1.2897 C60,0.585936522 59.4225809,0 58.7103,0 L11.7244826,0 C11.0207191,0 10.4347826,0.578590435 10.4347826,1.29231913 L10.4347826,10.4347826 Z M13.0434783,10.4347826 L13.0434783,2.60869565 L57.3913043,2.60869565 L57.3913043,46.9565217 L49.5652174,46.9565217 L49.5652174,11.7244826 C49.5652174,11.0207191 48.9877983,10.4347826 48.2755174,10.4347826 L13.0434783,10.4347826 Z M2.60869565,57.3913043 L2.60869565,13.0434783 L46.9565217,13.0434783 L46.9565217,57.3913043 L2.60869565,57.3913043 Z M11.7423417,33.9130435 C11.034133,33.9130435 10.4347826,34.4970209 10.4347826,35.2173913 C10.4347826,35.9166939 11.0201974,36.5217391 11.7423417,36.5217391 L23.4782609,36.5217391 L23.4782609,48.2576583 C23.4782609,48.965867 24.0622383,49.5652174 24.7826087,49.5652174 C25.4819113,49.5652174 26.0869565,48.9798026 26.0869565,48.2576583 L26.0869565,36.5217391 L37.8228757,36.5217391 C38.5310843,36.5217391 39.1304348,35.9377617 39.1304348,35.2173913 C39.1304348,34.5180887 38.54502,33.9130435 37.8228757,33.9130435 L26.0869565,33.9130435 L26.0869565,22.1771243 C26.0869565,21.4689157 25.5029791,20.8695652 24.7826087,20.8695652 C24.0833061,20.8695652 23.4782609,21.45498 23.4782609,22.1771243 L23.4782609,33.9130435 L11.7423417,33.9130435 Z" id="duplicate"></path>
    </defs>
    <g id="Symbols" stroke="none" stroke-width="1" fill="none" fill-rule="evenodd">
        <g id="icons/interface/duplicate" transform="translate(-10.000000, -10.000000)">
            <g id="🎨Colour" transform="translate(10.000000, 10.000000)">
                <mask id="mask-2" fill="white">
                    <use xlink:href="#duplicate"></use>
                </mask>
                <use id="Mask" fill="#000000" fill-rule="nonzero" xlink:href="#duplicate"></use>
            </g>
        </g>
    </g>
</svg>