<?xml version="1.0" encoding="UTF-8"?>
<svg width="60px" height="60px" viewBox="0 0 60 60" version="1.1" xmlns="http://www.w3.org/2000/svg" xmlns:xlink="http://www.w3.org/1999/xlink">
    <!-- Generator: Sketch 49.3 (51167) - http://www.bohemiancoding.com/sketch -->
    <title>Mask</title>
    <desc>Created with Sketch.</desc>
    <defs>
        <path d="M32.5119521,9.97584058 L2.5013981,9.97584058 L2.5013981,57.4993186 L49.7284821,57.4980676 L49.7284821,27.4745506 C49.7284821,26.7840106 50.2802021,26.2235706 50.9711021,26.2235706 C51.6620021,26.2235706 52.2137221,26.7840106 52.2137221,27.4745506 L52.2137221,58.7490472 C52.2137221,59.4395881 51.9627121,60.0000271 51.2718121,60.0000271 L1.2500771,60.0000271 C0.5604225,60.0000271 0,59.4395881 0,58.7490472 L0,8.72486058 C0,8.03432058 0.5604225,7.47513058 1.2500771,7.47513058 L32.5119521,7.47513058 C33.2028521,7.47513058 33.7632721,8.03432058 33.7632721,8.72486058 C33.7632721,9.41540058 33.2028521,9.97584058 32.5119521,9.97584058 M56.1913521,3.86230058 C55.1798621,2.77770058 54.0764121,2.52501058 53.3283521,2.50249058 C52.4050921,2.47872058 51.4843021,2.80147058 50.8816321,3.37692058 L50.8803921,3.37692058 L26.1025121,28.1575806 L23.2357821,36.7605706 L31.8384521,33.8920806 L56.5939621,9.13393058 C57.5980021,7.96427058 58.0925721,5.89139058 56.1913521,3.86230058 M58.4641121,10.7952306 C58.4554121,10.8052406 58.4417421,10.8089906 58.4330421,10.8190006 C58.4218621,10.8315106 58.4181321,10.8465206 58.4057121,10.8590306 L33.3967021,35.8711306 C33.3867621,35.8798806 33.3743321,35.8823806 33.3643921,35.8911406 C33.3047521,35.9486906 33.2289521,35.9849706 33.1568721,36.0300006 C33.0848021,36.0737806 33.0177021,36.1250706 32.9406621,36.1538506 C32.9282321,36.1588506 32.9207821,36.1688606 32.9083521,36.1726106 L21.6539221,39.9255506 C21.5234521,39.9680906 21.3904921,39.9893506 21.2575321,39.9893506 C20.9319621,39.9893506 20.6126121,39.8617506 20.3740221,39.6228106 C20.0385221,39.2863006 19.9217121,38.7921606 20.0720721,38.3418106 L23.8235421,27.0880006 C23.8272721,27.0742406 23.8372121,27.0667306 23.8421821,27.0529706 C23.8707621,26.9766606 23.9217121,26.9103606 23.9652021,26.8390506 C24.0099421,26.7677406 24.0472121,26.6914406 24.1043721,26.6301406 C24.1130721,26.6213806 24.1155621,26.6076206 24.1255021,26.5988606 L49.1345121,1.58552058 C49.1382321,1.58177058 49.1432021,1.58052058 49.1481721,1.57801058 C49.1519021,1.57426058 49.1519021,1.56801058 49.1568721,1.56550058 C50.2478921,0.524690578 51.8036621,-0.0470094218 53.4016721,0.0030305782 C55.1314021,0.0530705782 56.7716621,0.817420578 58.0180121,2.15346058 C60.8723121,5.20085058 60.2994621,8.68983058 58.4641121,10.7952306" id="edit"></path>
    </defs>
    <g id="Symbols" stroke="none" stroke-width="1" fill="none" fill-rule="evenodd">
        <g id="05_icons/interface/create-new" transform="translate(-10.000000, -10.000000)">
            <g id="🎨Colour" transform="translate(10.000000, 10.000000)">
                <mask id="mask-2" fill="white">
                    <use xlink:href="#edit"></use>
                </mask>
                <use id="Mask" fill="#000000" xlink:href="#edit"></use>
            </g>
        </g>
    </g>
</svg>