<?xml version="1.0" encoding="UTF-8"?>
<svg width="60px" height="60px" viewBox="0 0 60 60" version="1.1" xmlns="http://www.w3.org/2000/svg" xmlns:xlink="http://www.w3.org/1999/xlink">
    <!-- Generator: Sketch 49 (51002) - http://www.bohemiancoding.com/sketch -->
    <title>Mask</title>
    <desc>Created with Sketch.</desc>
    <defs>
        <path d="M26.242,2.8875 L3.1,22.5205 L15.361,38.2895 L23.958,30.8195 C25.252,29.7365 27.242,29.7475 28.506,30.8335 L36.212,38.2015 L49.507,22.6515 L26.242,2.8875 Z M2.506,49.4615 L13.474,39.9295 L2.506,25.8225 L2.506,49.4615 Z M51.269,35.0145 C50.581,35.0145 50.023,34.4545 50.023,33.7645 L50.023,25.8905 L37.25,40.8295 C37.243,40.8385 37.232,40.8415 37.224,40.8505 C37.217,40.8595 37.215,40.8715 37.206,40.8805 C37.115,40.9755 37.004,41.0375 36.895,41.0985 C36.864,41.1145 36.839,41.1445 36.807,41.1595 C36.651,41.2285 36.486,41.2625 36.318,41.2645 C36.312,41.2645 36.307,41.2675 36.303,41.2675 C36.155,41.2675 36.008,41.2405 35.867,41.1875 C35.842,41.1785 35.82,41.1565 35.794,41.1445 C35.688,41.0965 35.583,41.0455 35.492,40.9665 C35.482,40.9585 35.479,40.9485 35.471,40.9395 C35.462,40.9315 35.45,40.9305 35.442,40.9215 L26.834,32.6905 C26.549,32.4465 25.912,32.4425 25.574,32.7235 L4.231,51.2725 L35.056,51.2725 C35.745,51.2725 36.304,51.8325 36.304,52.5225 C36.304,53.2125 35.745,53.7745 35.056,53.7745 L3.875,53.7745 C1.812,53.7745 0,52.0815 0,50.0135 L0,22.4565 C0,22.1945 0.126,21.9545 0.29,21.7365 C0.302,21.7135 0.325,21.6995 0.339,21.6765 C0.401,21.6015 0.449,21.5165 0.524,21.4505 C0.544,21.4325 0.553,21.4065 0.574,21.3875 L25.436,0.2955 C25.902,-0.0985 26.584,-0.0985 27.049,0.2955 L52.076,21.5545 C52.077,21.5545 52.077,21.5565 52.077,21.5575 C52.079,21.5575 52.081,21.5585 52.081,21.5585 C52.154,21.6205 52.195,21.7015 52.25,21.7755 C52.257,21.7835 52.263,21.7915 52.269,21.8005 C52.27,21.8005 52.27,21.8015 52.27,21.8015 C52.354,21.9215 52.414,22.0485 52.451,22.1855 C52.452,22.1885 52.453,22.1915 52.453,22.1955 C52.454,22.1955 52.454,22.1965 52.454,22.1965 C52.477,22.2845 52.505,22.3715 52.509,22.4625 C52.51,22.4795 52.517,22.4925 52.517,22.5095 L52.517,33.7645 C52.517,34.4545 51.958,35.0145 51.269,35.0145 Z M47.527,42.5175 C44.777,42.5175 42.539,44.7615 42.539,47.5205 C42.539,50.2785 44.777,52.5225 47.527,52.5225 C50.278,52.5225 52.517,50.2785 52.517,47.5205 C52.517,44.7615 50.278,42.5175 47.527,42.5175 Z M59.635,59.6595 C59.392,59.9045 59.072,60.0255 58.754,60.0255 C58.434,60.0255 58.115,59.9045 57.872,59.6595 L51.85,53.6215 C50.628,54.4965 49.141,55.0245 47.527,55.0245 C43.401,55.0245 40.045,51.6585 40.045,47.5205 C40.045,43.3825 43.401,40.0175 47.527,40.0175 C51.654,40.0175 55.012,43.3825 55.012,47.5205 C55.012,49.1365 54.487,50.6275 53.615,51.8535 L59.635,57.8925 C60.122,58.3795 60.122,59.1705 59.635,59.6595 Z" id="path-1"></path>
    </defs>
    <g id="Symbols" stroke="none" stroke-width="1" fill="none" fill-rule="evenodd">
        <g id="05_icons/email/search" transform="translate(-10.000000, -10.000000)">
            <g id="🎨Colour" transform="translate(10.000000, 10.000000)">
                <mask id="mask-2" fill="white">
                    <use xlink:href="#path-1"></use>
                </mask>
                <use id="Mask" fill="#242424" xlink:href="#path-1"></use>
            </g>
        </g>
    </g>
</svg>