<?xml version="1.0" encoding="UTF-8"?>
<svg width="60px" height="53px" viewBox="0 0 60 53" version="1.1" xmlns="http://www.w3.org/2000/svg" xmlns:xlink="http://www.w3.org/1999/xlink">
    <!-- Generator: Sketch 49.3 (51167) - http://www.bohemiancoding.com/sketch -->
    <title>Mask</title>
    <desc>Created with Sketch.</desc>
    <defs>
        <path d="M49.348,24.9431966 C40.252,15.7501966 26.484,16.3941966 26.347,16.4031966 C26.335,16.4041966 26.327,16.3961966 26.317,16.3961966 C26.303,16.3981966 26.29,16.4041966 26.276,16.4041966 C25.586,16.4041966 25.273,15.7861966 25.273,15.0891966 L25.273,3.71419657 L3.183,22.7151966 L25.273,41.6321966 L25.273,30.2571966 C25.273,29.5591966 25.586,29.0231966 26.276,29.0231966 C38.593,29.0231966 47.809,32.0361966 53.672,37.9751966 C55.17,39.4931966 56.308,41.0651966 57.172,42.5811966 C56.304,35.2361966 53.684,29.3271966 49.348,24.9431966 M59.899,51.8111966 C59.861,52.4801966 59.309,53.0001966 58.649,53.0001966 L58.61,53.0001966 C57.932,52.9791966 57.395,52.4171966 57.397,51.7331966 C57.396,50.9251966 57.01,32.2141966 27.797,31.5781966 L27.797,44.1611966 C27.797,44.6521966 27.242,45.1061966 26.799,45.3131966 C26.632,45.3901966 26.453,45.4281966 26.275,45.4281966 C25.983,45.4281966 25.694,45.3261966 25.465,45.1291966 L0.44,23.6751966 C0.161,23.4371966 0,23.0851966 0,22.7151966 C0,22.3441966 0.161,21.9941966 0.44,21.7541966 L25.465,0.300196568 C25.836,-0.0188034324 26.357,-0.0898034324 26.799,0.117196568 C27.242,0.323196568 27.797,0.693196568 27.797,1.18519657 L27.797,13.8661966 C31.892,13.9461966 42.994,14.9611966 51.101,23.1411966 C57.641,29.7401966 60.6,39.3851966 59.899,51.8111966" id="path-1"></path>
    </defs>
    <g id="Symbols" stroke="none" stroke-width="1" fill="none" fill-rule="evenodd">
        <g id="05_icons/communications/email-reply" transform="translate(-10.000000, -13.000000)">
            <g id="🎨Colour" transform="translate(10.000000, 13.000000)">
                <mask id="mask-2" fill="white">
                    <use xlink:href="#path-1"></use>
                </mask>
                <use id="Mask" fill="#242424" xlink:href="#path-1"></use>
            </g>
        </g>
    </g>
</svg>