<?xml version="1.0" encoding="UTF-8"?>
<svg width="60px" height="59px" viewBox="0 0 60 59" version="1.1" xmlns="http://www.w3.org/2000/svg" xmlns:xlink="http://www.w3.org/1999/xlink">
    <!-- Generator: Sketch 49 (51002) - http://www.bohemiancoding.com/sketch -->
    <title>Mask</title>
    <desc>Created with Sketch.</desc>
    <defs>
        <path d="M48.776,2.512 L11.361,2.512 C10.672,2.512 10.113,1.949 10.113,1.255 C10.113,0.563 10.672,0 11.361,0 L48.776,0 C49.464,0 50.023,0.563 50.023,1.255 C50.023,1.949 49.464,2.512 48.776,2.512 Z M57.65,33.895 L41.221,33.895 C40.598,39.535 35.834,43.937 30.066,43.937 C24.298,43.937 19.532,39.535 18.909,33.895 L2.506,33.895 L2.506,55.236 C2.506,55.927 3.19,56.491 3.878,56.491 L56.259,56.491 C56.946,56.491 57.65,55.927 57.65,55.236 L57.65,33.895 Z M52.517,17.566 L52.517,31.384 L57.006,31.384 L52.517,17.566 Z M50.13,15.568 C50.063,15.411 50.023,15.243 50.023,15.064 C50.023,14.883 50.063,14.715 50.13,14.561 L50.13,8.787 L10.026,8.787 L10.026,14.63 C10.076,14.767 10.113,14.909 10.113,15.064 C10.113,15.217 10.076,15.361 10.026,15.497 L10.026,31.384 L20.089,31.384 C20.776,31.384 21.336,31.946 21.336,32.64 C21.336,37.485 25.252,41.426 30.066,41.426 C34.88,41.426 38.796,37.485 38.796,32.64 C38.796,31.946 39.354,31.384 40.043,31.384 L50.13,31.384 L50.13,15.568 Z M7.619,17.566 L3.131,31.384 L7.619,31.384 L7.619,17.566 Z M60,55.236 C60,57.313 58.322,59.001 56.259,59.001 L3.878,59.001 C1.814,59.001 0,57.313 0,55.236 L0,32.639 C0,32.357 0.141,32.13 0.325,31.94 L5.934,14.674 C6.102,14.159 6.58,13.809 7.12,13.809 L7.619,13.809 L7.619,7.533 C7.619,6.839 8.178,6.276 8.866,6.276 L51.27,6.276 C51.958,6.276 52.517,6.839 52.517,7.533 L52.517,13.809 L53.017,13.809 C53.556,13.809 54.035,14.159 54.202,14.674 L59.857,32.084 C59.943,32.253 60,32.438 60,32.64 C60,32.656 59.993,32.666 59.993,32.681 C59.993,32.696 60,32.706 60,32.722 L60,55.236 Z" id="email-inbox"></path>
    </defs>
    <g id="Symbols" stroke="none" stroke-width="1" fill="none" fill-rule="evenodd">
        <g id="05_icons/email/inbox" transform="translate(-10.000000, -10.000000)">
            <g id="🎨Colour" transform="translate(10.000000, 10.000000)">
                <mask id="mask-2" fill="white">
                    <use xlink:href="#email-inbox"></use>
                </mask>
                <use id="Mask" fill="#242424" xlink:href="#email-inbox"></use>
            </g>
        </g>
    </g>
</svg>