<?xml version="1.0" encoding="UTF-8"?>
<svg width="60px" height="61px" viewBox="0 0 60 61" version="1.1" xmlns="http://www.w3.org/2000/svg" xmlns:xlink="http://www.w3.org/1999/xlink">
    <!-- Generator: Sketch 49 (51002) - http://www.bohemiancoding.com/sketch -->
    <title>Mask</title>
    <desc>Created with Sketch.</desc>
    <defs>
        <path d="M57.5,28.92925 L42.299,42.21825 L57.403,55.60725 C57.46,55.39525 57.5,55.17725 57.5,54.94725 L57.5,28.92925 Z M52.5,22.41125 L52.5,29.97825 L56.846,26.17925 L52.5,22.41125 Z M10.001,10.00325 L10.001,32.18425 L19.563,40.56725 L27.715,33.34125 C29.002,32.23825 30.998,32.23625 32.27,33.32725 L40.413,40.54625 L50,32.16425 L50,10.00325 L10.001,10.00325 Z M30,2.90425 L24.697,7.50125 L35.304,7.50125 L30,2.90425 Z M3.154,26.18125 L7.5,29.99225 L7.5,22.41125 L3.154,26.18125 Z M2.501,54.94725 C2.501,55.17725 2.54,55.39525 2.598,55.60725 L17.677,42.24025 L2.501,28.93425 L2.501,54.94725 Z M5.083,57.52225 L54.917,57.52225 C55.177,57.52225 55.423,57.47125 55.659,57.40025 L30.628,35.21225 C30.313,34.94125 29.687,34.94225 29.357,35.22625 L4.342,57.40025 C4.578,57.47125 4.824,57.52225 5.083,57.52225 Z M54.917,60.02325 L5.083,60.02325 C2.281,60.02325 0,57.74525 0,54.94725 L0,26.25825 C0,26.24525 0.004,26.23525 0.008,26.22325 C0,26.04625 0.04,25.87225 0.107,25.70425 C0.126,25.65825 0.158,25.62025 0.181,25.57525 C0.224,25.50025 0.25,25.41925 0.311,25.35225 C0.332,25.32625 0.362,25.31725 0.386,25.29425 C0.405,25.27525 0.411,25.24825 0.431,25.23125 L7.5,19.10325 L7.5,8.75325 C7.5,8.06225 8.06,7.50125 8.75,7.50125 L20.879,7.50125 L29.182,0.30525 C29.653,-0.10175 30.348,-0.10175 30.819,0.30525 L39.122,7.50125 L51.251,7.50125 C51.941,7.50125 52.5,8.06225 52.5,8.75325 L52.5,19.10125 L59.57,25.23125 C59.59,25.24825 59.596,25.27525 59.615,25.29425 C59.639,25.31725 59.67,25.32725 59.691,25.35325 C59.75,25.42025 59.778,25.50125 59.82,25.57625 C59.843,25.62025 59.875,25.65925 59.894,25.70625 C59.961,25.87225 59.999,26.04525 59.993,26.22125 C59.997,26.23425 60,26.24525 60,26.25825 L60,54.94725 C60,57.74525 57.72,60.02325 54.917,60.02325 Z" id="path-1"></path>
    </defs>
    <g id="Symbols" stroke="none" stroke-width="1" fill="none" fill-rule="evenodd">
        <g id="05_icons/email/unread" transform="translate(-10.000000, -10.000000)">
            <g id="🎨Colour" transform="translate(10.000000, 10.000000)">
                <mask id="mask-2" fill="white">
                    <use xlink:href="#path-1"></use>
                </mask>
                <use id="Mask" fill="#242424" xlink:href="#path-1"></use>
            </g>
        </g>
    </g>
</svg>