<?xml version="1.0" encoding="UTF-8"?>
<svg width="60px" height="60px" viewBox="0 0 60 60" version="1.1" xmlns="http://www.w3.org/2000/svg" xmlns:xlink="http://www.w3.org/1999/xlink">
    <!-- Generator: Sketch 49 (51002) - http://www.bohemiancoding.com/sketch -->
    <title>icon/interface/error</title>
    <desc>Created with Sketch.</desc>
    <defs></defs>
    <g id="Symbols" stroke="none" stroke-width="1" fill="none" fill-rule="evenodd">
        <g id="05_icons/interface/error" transform="translate(-10.000000, -10.000000)" fill="#C7622B" fill-rule="nonzero">
            <g id="icon/interface/error" transform="translate(10.000000, 10.000000)">
                <g id="Group">
                    <path d="M30,59.6052632 C46.3421053,59.6052632 59.6052632,46.3421053 59.6052632,30 C59.6052632,13.6578947 46.3421053,0.394736842 30,0.394736842 C13.6578947,0.394736842 0.394736842,13.6578947 0.394736842,30 C0.394736842,46.3421053 13.6578947,59.6052632 30,59.6052632 Z M30,2.76315789 C45,2.76315789 57.2368421,15 57.2368421,30 C57.2368421,45 45,57.2368421 30,57.2368421 C15,57.2368421 2.76315789,45 2.76315789,30 C2.76315789,15 15,2.76315789 30,2.76315789 Z" id="Shape"></path>
                    <path d="M29.6052632,34.3421053 C30.2368421,34.3421053 30.7894737,33.7894737 30.7894737,33.1578947 L30.7894737,18.1578947 C30.7894737,17.5263158 30.2368421,16.9736842 29.6052632,16.9736842 C28.9736842,16.9736842 28.4210526,17.5263158 28.4210526,18.1578947 L28.4210526,33.1578947 C28.4210526,33.7894737 28.9736842,34.3421053 29.6052632,34.3421053 Z" id="Shape"></path>
                    <path d="M29.6052632,43.8157895 C30.2368421,43.8157895 30.7894737,43.2631579 30.7894737,42.6315789 L30.7894737,40.2631579 C30.7894737,39.6315789 30.2368421,39.0789474 29.6052632,39.0789474 C28.9736842,39.0789474 28.4210526,39.6315789 28.4210526,40.2631579 L28.4210526,42.6315789 C28.4210526,43.2631579 28.9736842,43.8157895 29.6052632,43.8157895 Z" id="Shape"></path>
                </g>
            </g>
        </g>
    </g>
</svg>