<?xml version="1.0" encoding="UTF-8"?>
<svg width="60px" height="60px" viewBox="0 0 60 60" version="1.1" xmlns="http://www.w3.org/2000/svg" xmlns:xlink="http://www.w3.org/1999/xlink">
    <!-- Generator: Sketch 49.3 (51167) - http://www.bohemiancoding.com/sketch -->
    <title>Mask</title>
    <desc>Created with Sketch.</desc>
    <defs>
        <path d="M30.414,20.1796149 C29.9,19.7166071 29.859,18.9265938 30.321,18.4125851 C30.781,17.9005764 31.574,17.8595758 32.086,18.3205835 L44.586,29.5707734 C44.594,29.5767735 44.597,29.5897737 44.605,29.5967738 C44.696,29.6817753 44.763,29.787777 44.824,29.8987789 C44.845,29.9347795 44.877,29.96278 44.894,30.0017807 C44.961,30.1547832 45,30.3227861 45,30.498789 C45,30.676792 44.961,30.8447949 44.894,30.9967974 C44.876,31.0377981 44.841,31.0697987 44.819,31.1097994 C44.757,31.2158011 44.694,31.3198029 44.605,31.4038043 C44.597,31.4098044 44.594,31.4218046 44.586,31.4298048 L32.086,42.6789946 C31.847,42.8949982 31.549,43 31.25,43 C30.908,43 30.567,42.8619977 30.321,42.585993 C29.859,42.0729844 29.9,41.283971 30.414,40.8209632 L40.491,31.7508102 L1.25,31.7508102 C0.56,31.7508102 0,31.1898007 0,30.498789 C0,29.8097774 0.56,29.2487679 1.25,29.2487679 L40.494,29.2487679 L30.414,20.1796149 Z M57.5,60 L22.5,60 C21.121,60 20,58.879 20,57.5 L20,40.001 C20,39.31 20.56,38.75 21.25,38.75 C21.939,38.75 22.5,39.31 22.5,40.001 L22.5,57.5 L57.5,57.5 L57.5,2.499 L22.5,2.499 L22.5,19.999 C22.5,20.69 21.939,21.249 21.25,21.249 C20.56,21.249 20,20.69 20,19.999 L20,2.499 C20,1.121 21.121,0 22.5,0 L57.5,0 C58.879,0 60,1.121 60,2.499 L60,57.5 C60,58.879 58.879,60 57.5,60 Z" id="path-1"></path>
    </defs>
    <g id="Symbols" stroke="none" stroke-width="1" fill="none" fill-rule="evenodd">
        <g id="05_icons/interface/exit" transform="translate(-10.000000, -10.000000)">
            <g id="🎨Colour" transform="translate(10.000000, 10.000000)">
                <mask id="mask-2" fill="white">
                    <use xlink:href="#path-1"></use>
                </mask>
                <use id="Mask" fill="#242424" xlink:href="#path-1"></use>
            </g>
        </g>
    </g>
</svg>