<?xml version="1.0" encoding="UTF-8"?>
<svg width="61px" height="61px" viewBox="0 0 61 61" version="1.1" xmlns="http://www.w3.org/2000/svg" xmlns:xlink="http://www.w3.org/1999/xlink">
    <!-- Generator: Sketch 49.3 (51167) - http://www.bohemiancoding.com/sketch -->
    <title>Mask</title>
    <desc>Created with Sketch.</desc>
    <defs>
        <path d="M37.31616,21.69197 L20.33291,21.69322 C19.6428,21.69322 19.08296,21.13321 19.08296,20.44319 C19.08296,19.75318 19.6428,19.19317 20.33291,19.19317 L40.33332,19.19317 C41.02342,19.19317 41.54695,19.75068 41.54695,20.44069 L41.54695,40.44111 C41.54695,41.13238 41.02342,41.68864 40.33332,41.68864 C39.64322,41.68864 39.04204,41.13238 39.04204,40.44111 L39.04204,23.50076 L2.466667,60.07527 C2.222439,60.3190251 1.903063,60.4415276 1.582436,60.4415276 C1.26306,60.4415276 0.9436847,60.3190251 0.6994564,60.07527 C0.2109999,59.5877599 0.2109999,58.795243 0.6994564,58.307733 L37.31616,21.69197 Z M59.08379,60.4415276 L19.08296,60.4415276 C18.39286,60.4415276 17.83301,59.881516 17.83301,59.1915016 C17.83301,58.501487 18.39286,57.941476 19.08296,57.941476 L57.83384,57.941476 L57.83384,2.94033 L2.720915,2.94033 L2.720915,42.94241 C2.720915,43.63243 2.273789,44.19119 1.582436,44.19119 C0.8923341,44.19119 0.3324878,43.63243 0.3324878,42.94241 L0.3324878,1.6903 C0.3324878,1.00029 0.8923341,0.44153 1.582436,0.44153 L59.08379,0.44153 C59.77389,0.44153 60.33374,1.00029 60.33374,1.6903 L60.33374,59.1915016 C60.33374,59.881516 59.77389,60.4415276 59.08379,60.4415276 Z" id="expand-detail"></path>
    </defs>
    <g id="Symbols" stroke="none" stroke-width="1" fill="none" fill-rule="evenodd">
        <g id="05_icons/interface/expand" transform="translate(-10.000000, -10.000000)">
            <g id="🎨Icon-Colour" transform="translate(10.000000, 10.000000)">
                <mask id="mask-2" fill="white">
                    <use xlink:href="#expand-detail"></use>
                </mask>
                <use id="Mask" fill="#000000" xlink:href="#expand-detail"></use>
            </g>
        </g>
    </g>
</svg>