<?xml version="1.0" encoding="UTF-8"?>
<svg width="60px" height="60px" viewBox="0 0 60 60" version="1.1" xmlns="http://www.w3.org/2000/svg" xmlns:xlink="http://www.w3.org/1999/xlink">
    <!-- Generator: Sketch 48.2 (47327) - http://www.bohemiancoding.com/sketch -->
    <title>Mask</title>
    <desc>Created with Sketch.</desc>
    <defs>
        <path d="M30.8591874,37.1371874 C30.6141874,37.3811874 30.2941874,37.5011874 29.9741874,37.5001874 C29.6541874,37.4991874 29.3351874,37.3771874 29.0911874,37.1311874 L16.6351874,24.5891874 C16.1481874,24.0981874 16.1511874,23.3061874 16.6411874,22.8211874 C17.1301874,22.3341874 17.9221874,22.3371874 18.4091874,22.8271874 L29.9841874,34.4841874 L41.6411874,22.9081874 C42.1301874,22.4211874 42.9221874,22.4241874 43.4091874,22.9141874 C43.8961874,23.4031874 43.8931874,24.1951874 43.4021874,24.6821874 L30.8591874,37.1371874 Z M2.50018742,29.9051874 C2.44718742,45.0701874 14.7411874,57.4491874 29.9041874,57.5021874 C45.0681874,57.5541874 57.4471874,45.2611874 57.5001874,30.0961874 C57.5531874,14.9331874 45.2591874,2.55418741 30.0961874,2.50118741 C14.9321874,2.44818741 2.55318742,14.7411874 2.50018742,29.9051874 Z M0.000187422334,29.8961874 C0.0581874223,13.3541874 13.5621874,-0.0578125916 30.1051874,0.000187408434 C46.6461874,0.0571874084 60.0581874,13.5631874 60.0001874,30.1051874 C59.9421874,46.6471874 46.4371874,60.0581874 29.8961874,60.0011874 C13.3531874,59.9431874 -0.0578125777,46.4381874 0.000187422334,29.8961874 Z" id="expand"></path>
    </defs>
    <g id="05_icons/arrow/circle-down" stroke="none" stroke-width="1" fill="none" fill-rule="evenodd" transform="translate(-10.000000, -10.000000)">
        <g id="🎨Colour" transform="translate(10.000000, 10.000000)">
            <mask id="mask-2" fill="white">
                <use xlink:href="#expand"></use>
            </mask>
            <use id="Mask" fill="#242424" xlink:href="#expand"></use>
        </g>
    </g>
</svg>