<?xml version="1.0" encoding="UTF-8"?>
<svg width="61px" height="61px" viewBox="0 0 61 61" version="1.1" xmlns="http://www.w3.org/2000/svg" xmlns:xlink="http://www.w3.org/1999/xlink">
    <!-- Generator: Sketch 49.3 (51167) - http://www.bohemiancoding.com/sketch -->
    <title>Mask</title>
    <desc>Created with Sketch.</desc>
    <defs>
        <path d="M29.19927,0.98297 C29.20552,0.97422 29.21677,0.97172 29.22302,0.96422 C29.30802,0.87672 29.41177,0.81297 29.51802,0.75297 C29.55677,0.73047 29.58677,0.69672 29.62802,0.67922 C29.78052,0.61297 29.94802,0.57422 30.12427,0.57422 C30.30177,0.57422 30.46802,0.61297 30.62052,0.67922 C30.66052,0.69672 30.69052,0.73047 30.72927,0.75172 C30.83677,0.81297 30.94052,0.87672 31.02552,0.96422 C31.03177,0.97172 31.04302,0.97422 31.04927,0.98297 L43.54927,14.73297 C44.01302,15.24422 43.97552,16.03422 43.46552,16.49922 C42.95552,16.96172 42.16302,16.92547 41.69927,16.41547 L31.37427,5.05672 L31.37427,44.32297 C31.37427,45.01422 30.81552,45.57422 30.12427,45.57422 C29.43302,45.57422 28.87427,45.01422 28.87427,44.32297 L28.87427,5.05672 L18.54927,16.41547 C18.08302,16.92547 17.29052,16.96172 16.78302,16.49922 C16.27302,16.03422 16.23552,15.24422 16.69927,14.73297 L29.19927,0.98297 Z M57.62427,60.57547 L2.624268,60.57547 C1.245518,60.57547 0.1242676,59.45297 0.1242676,58.07422 L0.1242676,40.57422 C0.1242676,39.88422 0.6830176,39.32422 1.374268,39.32422 C2.065518,39.32422 2.624268,39.88422 2.624268,40.57422 L2.624268,58.07422 L57.62427,58.07422 L57.62427,40.57422 C57.62427,39.88422 58.18302,39.32422 58.87427,39.32422 C59.56552,39.32422 60.12427,39.88422 60.12427,40.57422 L60.12427,58.07422 C60.12427,59.45297 59.00177,60.57547 57.62427,60.57547 Z" id="path-1"></path>
    </defs>
    <g id="Symbols" stroke="none" stroke-width="1" fill="none" fill-rule="evenodd">
        <g id="05_icons/interface/export" transform="translate(-10.000000, -9.000000)">
            <g id="🎨Colour" transform="translate(10.000000, 9.000000)">
                <mask id="mask-2" fill="white">
                    <use xlink:href="#path-1"></use>
                </mask>
                <use id="Mask" fill="#000000" xlink:href="#path-1"></use>
            </g>
        </g>
    </g>
</svg>