<?xml version="1.0" encoding="UTF-8"?>
<svg width="44px" height="60px" viewBox="0 0 44 60" version="1.1" xmlns="http://www.w3.org/2000/svg" xmlns:xlink="http://www.w3.org/1999/xlink">
    <!-- Generator: Sketch 49.3 (51167) - http://www.bohemiancoding.com/sketch -->
    <title>Mask</title>
    <desc>Created with Sketch.</desc>
    <defs>
        <path d="M44.6340629,44.6334315 L29.9678094,59.6349924 C29.7338815,59.8737473 29.421571,60 29.1043617,60 C29.0284286,60 28.9549449,59.9687493 28.8802416,59.954999 C28.8055282,59.9687493 28.7369435,60 28.658561,60 L4.65978391,60 C2.63773826,60 0.992912994,58.3187149 0.992912994,56.2511719 L0.992912994,3.75008013 C0.992912994,1.68128006 2.63773826,0 4.65978391,0 L41.3260397,0 C43.3480893,0 44.992913,1.68128006 44.992913,3.75008013 L44.992913,43.4159014 C45.0308845,43.9396615 44.9169799,44.3446715 44.6340629,44.6334315 Z M30.3266594,55.7336609 L40.8202223,44.9996915 L30.3266594,44.9996915 L30.3266594,55.7336609 Z M42.6438662,3.75008013 C42.6438662,3.0588101 41.9996496,2.49880008 41.3260397,2.49880008 L4.65978391,2.49880008 C3.98617694,2.49880008 3.43749314,3.0588101 3.43749314,3.75008013 L3.43749314,56.2511719 C3.43749314,56.9411859 3.98617694,57.5011979 4.65978391,57.5011979 L27.8820739,57.5011979 L27.8820739,43.7509115 C27.8820739,43.0596514 28.4283122,42.4996314 29.1043617,42.4996314 L42.6438662,42.4996314 L42.6438662,3.75008013 Z" id="path-1"></path>
    </defs>
    <g id="Symbols" stroke="none" stroke-width="1" fill="none" fill-rule="evenodd">
        <g id="05_icons/interface/file" transform="translate(-19.000000, -10.000000)">
            <g id="🎨Colour" transform="translate(41.500000, 40.000000) scale(-1, 1) translate(-41.500000, -40.000000) translate(19.000000, 10.000000)">
                <mask id="mask-2" fill="white">
                    <use xlink:href="#path-1"></use>
                </mask>
                <use id="Mask" fill="#000000" transform="translate(22.996456, 30.000000) rotate(-180.000000) translate(-22.996456, -30.000000) " xlink:href="#path-1"></use>
            </g>
        </g>
    </g>
</svg>