<?xml version="1.0" encoding="UTF-8"?>
<svg width="61px" height="61px" viewBox="0 0 61 61" version="1.1" xmlns="http://www.w3.org/2000/svg" xmlns:xlink="http://www.w3.org/1999/xlink">
    <!-- Generator: Sketch 49.3 (51167) - http://www.bohemiancoding.com/sketch -->
    <title>Mask</title>
    <desc>Created with Sketch.</desc>
    <defs>
        <path d="M6.25000034,26.2518 C4.18250034,26.2518 2.50000034,27.93308 2.50000034,30.00062 C2.50000034,32.06817 4.18250034,33.7507 6.25000034,33.7507 C8.31750034,33.7507 10.0000023,32.06817 10.0000023,30.00062 C10.0000023,27.93308 8.31750034,26.2518 6.25000034,26.2518 M7.50000034,36.12575 L7.50000034,58.7512219 C7.50000034,59.4424863 6.94000034,60.001248 6.25000034,60.001248 C5.56000034,60.001248 5.00000034,59.4424863 5.00000034,58.7512219 L5.00000034,36.12575 C2.15125034,35.54449 0,33.01944 0,30.00062 C0,26.98306 2.15125034,24.45801 5.00000034,23.87675 L5.00000034,1.25002 C5.00000034,0.56001 5.56000034,0 6.25000034,0 C6.94000034,0 7.50000034,0.56001 7.50000034,1.25002 L7.50000034,23.87675 C10.3487523,24.45801 12.5000023,26.98306 12.5000023,30.00062 C12.5000023,33.01944 10.3487523,35.54449 7.50000034,36.12575 M30.0000023,37.50078 C27.9325023,37.50078 26.2500023,39.18331 26.2500023,41.25086 C26.2500023,43.3184 27.9325023,45.00219 30.0000023,45.00219 C32.0675023,45.00219 33.7500023,43.3184 33.7500023,41.25086 C33.7500023,39.18331 32.0675023,37.50078 30.0000023,37.50078 M31.2500023,47.37474 L31.2500023,58.7512219 C31.2500023,59.4424863 30.6900023,60.001248 30.0000023,60.001248 C29.3100023,60.001248 28.7500023,59.4424863 28.7500023,58.7512219 L28.7500023,47.37474 C25.9012523,46.79472 23.7500023,44.26967 23.7500023,41.25086 C23.7500023,38.23204 25.9012523,35.70824 28.7500023,35.12823 L28.7500023,1.25002 C28.7500023,0.56001 29.3100023,0 30.0000023,0 C30.6900023,0 31.2500023,0.56001 31.2500023,1.25002 L31.2500023,35.12823 C34.0987523,35.70824 36.2500023,38.23204 36.2500023,41.25086 C36.2500023,44.26967 34.0987523,46.79472 31.2500023,47.37474 M53.7500023,15.00031 C51.6825023,15.00031 50.0000023,16.68285 50.0000023,18.75164 C50.0000023,20.81918 51.6825023,22.50047 53.7500023,22.50047 C55.8175023,22.50047 57.5000023,20.81918 57.5000023,18.75164 C57.5000023,16.68285 55.8175023,15.00031 53.7500023,15.00031 M55.0000023,24.87427 L55.0000023,58.7512219 C55.0000023,59.4424863 54.4400023,60.001248 53.7500023,60.001248 C53.0600023,60.001248 52.5000023,59.4424863 52.5000023,58.7512219 L52.5000023,24.87427 C49.6512523,24.29425 47.5000023,21.77045 47.5000023,18.75164 C47.5000023,15.73283 49.6512523,13.20777 52.5000023,12.62651 L52.5000023,1.25002 C52.5000023,0.56001 53.0600023,0 53.7500023,0 C54.4400023,0 55.0000023,0.56001 55.0000023,1.25002 L55.0000023,12.62651 C57.8487523,13.20777 60.0000023,15.73283 60.0000023,18.75164 C60.0000023,21.77045 57.8487523,24.29425 55.0000023,24.87427" id="path-1"></path>
    </defs>
    <g id="Symbols" stroke="none" stroke-width="1" fill="none" fill-rule="evenodd">
        <g id="05_icons/interface/filter" transform="translate(-10.000000, -10.000000)">
            <g id="🎨Colour" transform="translate(40.000000, 40.500000) rotate(-270.000000) translate(-40.000000, -40.500000) translate(10.000000, 10.000000)">
                <mask id="mask-2" fill="white">
                    <use xlink:href="#path-1"></use>
                </mask>
                <use id="Mask" fill="#000000" xlink:href="#path-1"></use>
            </g>
        </g>
    </g>
</svg>