<?xml version="1.0" encoding="UTF-8"?>
<svg width="60px" height="55px" viewBox="0 0 60 55" version="1.1" xmlns="http://www.w3.org/2000/svg" xmlns:xlink="http://www.w3.org/1999/xlink">
    <!-- Generator: Sketch 49.3 (51167) - http://www.bohemiancoding.com/sketch -->
    <title>Mask</title>
    <desc>Created with Sketch.</desc>
    <defs>
        <path d="M41.253747,30.00068 L41.248747,30.00068 L41.243747,30.00068 L40.087497,30.00068 C40.694997,34.23453 44.347497,37.50085 48.748747,37.50085 C53.148747,37.50085 56.802497,34.23453 57.411247,30.00068 L41.253747,30.00068 Z M48.749997,10.20273 L42.982497,27.50062 L54.516247,27.50062 L48.749997,10.20273 Z M5.48375,27.50062 L17.017497,27.50062 L11.251247,10.20273 L5.48375,27.50062 Z M3.75,30.00068 L3.745,30.00068 L2.58875,30.00068 C3.1975,34.23453 6.84875,37.50085 11.249997,37.50085 C15.649997,37.50085 19.303747,34.23453 19.912497,30.00068 L3.755,30.00068 L3.75,30.00068 Z M48.748747,40.00216 C42.544997,40.00216 37.498747,34.95454 37.498747,28.75065 C37.498747,28.06063 38.057497,27.50062 38.748747,27.50062 L40.348747,27.50062 L47.016247,7.50017 L31.249997,7.50017 L31.249997,52.50119 L39.999997,52.50119 C40.691247,52.50119 41.249997,53.061203 41.249997,53.751218 C41.249997,54.4412341 40.691247,55.0024969 39.999997,55.0024969 L19.999997,55.0024969 C19.308747,55.0024969 18.749997,54.4412341 18.749997,53.751218 C18.749997,53.061203 19.308747,52.50119 19.999997,52.50119 L28.749997,52.50119 L28.749997,7.50017 L12.984997,7.50017 L19.651247,27.50062 L21.251247,27.50062 C21.942497,27.50062 22.501247,28.06063 22.501247,28.75065 C22.501247,34.95454 17.453747,40.00216 11.249997,40.00216 C5.04625,40.00216 0,34.95454 0,28.75065 C0,28.06063 0.55875,27.50062 1.25,27.50062 L2.84875,27.50062 L9.5175,7.50017 L5.0825,7.50017 C4.3925,7.50017 3.8325,6.94141 3.8325,6.25139 C3.8325,5.56137 4.3925,5.00011 5.0825,5.00011 L28.749997,5.00011 L28.749997,1.25003 C28.749997,0.55876 29.308747,0 29.999997,0 C30.691247,0 31.249997,0.55876 31.249997,1.25003 L31.249997,5.00011 L54.916247,5.00011 C55.607497,5.00011 56.167497,5.56137 56.167497,6.25139 C56.167497,6.94141 55.607497,7.50017 54.916247,7.50017 L50.483747,7.50017 L57.149997,27.50062 L58.749997,27.50062 C59.441247,27.50062 59.999997,28.06063 59.999997,28.75065 C59.999997,34.95454 54.952497,40.00216 48.748747,40.00216 Z" id="path-1"></path>
    </defs>
    <g id="Symbols" stroke="none" stroke-width="1" fill="none" fill-rule="evenodd">
        <g id="05_icons/finance/balance" transform="translate(-10.000000, -12.000000)">
            <g id="🎨Colour" transform="translate(10.000000, 12.000000)">
                <mask id="mask-2" fill="white">
                    <use xlink:href="#path-1"></use>
                </mask>
                <use id="Mask" fill="#000000" xlink:href="#path-1"></use>
            </g>
        </g>
    </g>
</svg>