<!-- Generated by IcoMoon.io -->
<svg version="1.1" xmlns="http://www.w3.org/2000/svg" width="782" height="512" viewBox="0 0 782 512">
<title></title>
<g id="icomoon-ignore">
</g>
<path fill="#000" d="M772.763 248.566c0.205 0.41 0.577 0.703 0.755 1.126 0.845 1.946 1.332 4.083 1.332 6.336 0 2.24-0.486 4.378-1.332 6.324-0.154 0.346-0.473 0.614-0.64 0.96-0.819 1.536-1.728 3.007-2.982 4.198-0.064 0.077-0.090 0.166-0.154 0.231l-224.003 208.029c-3.098 2.867-6.989 4.275-10.893 4.275-4.314 0-8.576-1.728-11.712-5.12-6.016-6.477-5.658-16.602 0.807-22.618l194.153-180.291h-695.254c-8.858 0-16-7.168-16-15.987 0-8.845 7.143-16.013 16-16.013h695.254l-194.153-180.291c-6.465-6.029-6.822-16.141-0.807-22.617 5.977-6.477 16.115-6.849 22.605-0.819l224.003 207.989c0.077 0.077 0.090 0.179 0.179 0.256 1.178 1.151 2.061 2.56 2.841 4.032z"></path>
</svg>
