<?xml version="1.0" encoding="UTF-8"?>
<svg width="60px" height="60px" viewBox="0 0 60 60" version="1.1" xmlns="http://www.w3.org/2000/svg" xmlns:xlink="http://www.w3.org/1999/xlink">
    <!-- Generator: Sketch 49.3 (51167) - http://www.bohemiancoding.com/sketch -->
    <title>Mask</title>
    <desc>Created with Sketch.</desc>
    <defs>
        <path d="M57.5000015,2.5013 L2.50000048,2.5013 L2.50000048,57.502446 L57.5000015,57.502446 L57.5000015,2.5013 Z M58.7500015,60.001248 L1.25000048,60.001248 C0.55999998,60.001248 0,59.4424863 0,58.752472 L0,1.25127 C0,0.56126 0.55999998,0 1.25000048,0 L58.7500015,0 C59.4400015,0 60.0000015,0.56126 60.0000015,1.25127 L60.0000015,58.752472 C60.0000015,59.4424863 59.4400015,60.001248 58.7500015,60.001248 Z M30.3970646,28.4657288 C33.5780868,28.4657288 36.167417,31.0568974 36.167417,34.2423699 C36.167417,36.924643 34.3205647,39.1673362 31.8389344,39.8136768 L31.840371,42.9080548 C31.840371,43.7062261 31.1955473,44.3525767 30.3985011,44.3540232 C29.6028914,44.3540232 28.9566313,43.7062261 28.9566313,42.9095013 L28.9551947,40.0190109 L26.071455,40.0190109 C25.2743988,40.0190109 24.6295852,39.3726603 24.6295852,38.574489 C24.6295852,37.7777542 25.2743988,37.1299671 26.071455,37.1299671 L30.3970646,37.1299671 C31.9882939,37.1299671 33.2822408,35.8343828 33.2822408,34.2423699 C33.2822408,32.6489104 31.9882939,31.3547726 30.3970646,31.3547726 C27.2160424,31.3547726 24.6295852,28.7621474 24.6295852,25.576685 C24.6295852,22.8944119 26.475001,20.6517186 28.9566313,20.0068146 L28.9566313,16.9110001 C28.9566313,16.1142754 29.6014549,15.4679248 30.3985011,15.4679248 C31.1955473,15.4679248 31.840371,16.1142754 31.840371,16.9110001 L31.840371,19.8014905 L34.7255472,19.8014905 C35.5226034,19.8014905 36.167417,20.4492877 36.167417,21.247459 C36.167417,22.0441837 35.5226034,22.6905343 34.7255472,22.6905343 L30.3970646,22.6905343 C28.8072717,22.6905343 27.5133249,23.9846721 27.5133249,25.576685 C27.5133249,27.1701445 28.8072717,28.4657288 30.3970646,28.4657288" id="path-1"></path>
    </defs>
    <g id="Symbols" stroke="none" stroke-width="1" fill="none" fill-rule="evenodd">
        <g id="05_icons/form/burdget" transform="translate(-10.000000, -10.000000)">
            <g id="🎨Colour" transform="translate(10.000000, 10.000000)">
                <mask id="mask-2" fill="white">
                    <use xlink:href="#path-1"></use>
                </mask>
                <use id="Mask" fill="#000000" xlink:href="#path-1"></use>
            </g>
        </g>
    </g>
</svg>