<?xml version="1.0" encoding="UTF-8"?>
<svg width="74px" height="64px" viewBox="0 0 74 64" version="1.1" xmlns="http://www.w3.org/2000/svg" xmlns:xlink="http://www.w3.org/1999/xlink">
    <!-- Generator: Sketch 51.2 (57519) - http://www.bohemiancoding.com/sketch -->
    <title>Mask</title>
    <desc>Created with Sketch.</desc>
    <defs>
        <path d="M73.1037234,23.0541031 L27.7550958,0.576861702 L23.3865276,2.71325174 L15.8969926,14.6640025 L17.328319,15.410679 L24.7997955,3.41281937 L25.0400511,3.53216199 L17.9101143,15.7145316 L19.3037535,16.4415795 L26.4454675,4.22780388 L26.4462527,4.22780388 L19.5510754,20.9813102 L5.08156715,28.1968281 L5.08156715,25.2682229 L18.0145391,18.8300023 L19.3037535,16.4407943 L15.8977778,14.6640025 L0.103723404,22.5610297 L1.41806259,23.2205547 L15.8962075,15.9814822 L18.0475154,17.0571362 L3.50969914,24.266373 L0.103723404,22.5626 L0.103723404,38.3558692 L1.53504977,39.0711398 L1.53504977,42.4504205 L3.51048429,43.4381377 L5.48591881,42.4504205 L5.48591881,41.0316565 L42.8252429,59.3664526 L42.8252429,62.8352402 L44.8006775,63.8229575 L46.776112,62.8352402 L46.776112,61.346598 L47.1247181,61.520901 L63.1982854,53.519449 L63.1943597,53.5170936 L68.059142,51.0807767 L70.0180884,52.0606425 L71.9935229,51.0729252 L71.9935229,49.1100531 L73.1037234,48.5541677 L73.1037234,23.0541031 Z M63.19593,37.7285353 L63.1024973,37.774859 L63.19593,37.7285353 Z M5.07999685,30.94956 L5.07999685,29.7545635 L24.6835935,39.420531 L43.7179572,48.8062005 L43.7179572,52.7445071 L5.07999685,33.6999365 L5.07999685,30.94956 Z M59.7923097,37.2668677 L61.9530394,38.3472326 L47.1184369,45.7268466 L45.0346518,44.684169 L59.7923097,37.2668677 Z M61.8062165,37.0007023 L61.2252064,36.6976348 L68.4784115,25.0491664 L68.728874,25.1732199 L61.8062165,37.0007023 Z M27.7503849,2.3269585 L69.5391476,23.0391853 L68.7414364,23.4262637 L26.9416816,2.72188838 L27.7503849,2.3269585 Z M27.8548097,4.92737151 L67.0651436,24.3488136 L59.7946652,35.9509582 L59.7930949,35.9501731 L56.6548549,37.526752 L21.5602713,20.2228564 L27.8548097,4.92737151 Z M21.3278673,21.8583214 L54.8953363,38.4100445 L43.7179572,44.0254291 L43.7179572,47.0506076 L43.7140314,47.0529631 L7.04443929,28.9725552 L21.3278673,21.8583214 Z M1.67402112,25.1041268 L3.50969914,26.0219658 L3.50969914,28.9725552 L3.50969914,33.4840205 L3.50969914,34.6758765 L43.717172,54.4946039 L45.2874697,55.2719013 L45.2874697,46.5669559 L46.4730445,47.1495364 L46.4667633,59.4308348 L44.3986812,58.3975789 L44.4010367,58.392868 L5.07999685,39.0844873 L3.50969914,38.3040494 L1.67402112,37.3854252 L1.67402112,25.1041268 Z M47.693951,47.1628839 L61.6272026,40.2637809 L63.1967151,37.7293204 L63.1982854,37.7301056 L70.242641,25.6835667 L71.5334257,25.2313209 L71.5334257,47.5821534 L61.3194242,52.7005388 L47.6947361,59.4465377 L47.6947361,47.1628839 L47.693951,47.1628839 Z" id="path-1"></path>
    </defs>
    <g id="Symbols" stroke="none" stroke-width="1" fill="none" fill-rule="evenodd">
        <g id="05_icons/isometric/furnished" transform="translate(-3.000000, -8.000000)">
            <g id="🎨Icon-Colour" transform="translate(3.000000, 8.000000)">
                <mask id="mask-2" fill="white">
                    <use xlink:href="#path-1"></use>
                </mask>
                <use id="Mask" fill="#000000" fill-rule="nonzero" xlink:href="#path-1"></use>
            </g>
        </g>
    </g>
</svg>