<?xml version="1.0" encoding="UTF-8"?>
<svg width="60px" height="60px" viewBox="0 0 60 60" version="1.1" xmlns="http://www.w3.org/2000/svg" xmlns:xlink="http://www.w3.org/1999/xlink">
    <!-- Generator: Sketch 50.2 (55047) - http://www.bohemiancoding.com/sketch -->
    <title>Mask</title>
    <desc>Created with Sketch.</desc>
    <defs>
        <path d="M17.3028052,1.82851106 L2.20261535,1.82851106 L2.20261535,16.4648464 L17.3028052,16.4648464 L17.3028052,1.82851106 Z M18.1417045,18.2933574 L1.36371599,18.2933574 C0.900643541,18.2933574 0.524816493,17.8844816 0.524816493,17.3795556 L0.524816493,0.914716534 C0.524816493,0.408875795 0.900643541,0 1.36371599,0 L18.1417045,0 C18.604777,0 18.9806039,0.408875795 18.9806039,0.914716534 L18.9806039,17.3795556 C18.9806039,17.8844816 18.604777,18.2933574 18.1417045,18.2933574 Z M17.3028052,22.5360175 L2.20261535,22.5360175 L2.20261535,37.1723529 L17.3028052,37.1723529 L17.3028052,22.5360175 Z M18.1417045,39.0008639 L1.36371599,39.0008639 C0.900643541,39.0008639 0.524816493,38.5919881 0.524816493,38.0870621 L0.524816493,21.622223 C0.524816493,21.1163823 0.900643541,20.7075065 1.36371599,20.7075065 L18.1417045,20.7075065 C18.604777,20.7075065 18.9806039,21.1163823 18.9806039,21.622223 L18.9806039,38.0870621 C18.9806039,38.5919881 18.604777,39.0008639 18.1417045,39.0008639 Z M17.3028052,43.243524 L2.20261535,43.243524 L2.20261535,57.8798593 L17.3028052,57.8798593 L17.3028052,43.243524 Z M18.1417045,59.7083704 L1.36371599,59.7083704 C0.900643541,59.7083704 0.524816493,59.2994946 0.524816493,58.7945685 L0.524816493,42.3297295 C0.524816493,41.8238887 0.900643541,41.4150129 1.36371599,41.4150129 L18.1417045,41.4150129 C18.604777,41.4150129 18.9806039,41.8238887 18.9806039,42.3297295 L18.9806039,58.7945685 C18.9806039,59.2994946 18.604777,59.7083704 18.1417045,59.7083704 Z M37.6417882,1.82851106 L22.5415984,1.82851106 L22.5415984,16.4648464 L37.6417882,16.4648464 L37.6417882,1.82851106 Z M38.4806876,18.2933574 L21.702699,18.2933574 C21.2396266,18.2933574 20.8637995,17.8844816 20.8637995,17.3795556 L20.8637995,0.914716534 C20.8637995,0.408875795 21.2396266,0 21.702699,0 L38.4806876,0 C38.94376,0 39.3195869,0.408875795 39.3195869,0.914716534 L39.3195869,17.3795556 C39.3195869,17.8844816 38.94376,18.2933574 38.4806876,18.2933574 Z M37.6417882,22.5360175 L22.5415984,22.5360175 L22.5415984,37.1723529 L37.6417882,37.1723529 L37.6417882,22.5360175 Z M38.4806876,39.0008639 L21.702699,39.0008639 C21.2396266,39.0008639 20.8637995,38.5919881 20.8637995,38.0870621 L20.8637995,21.622223 C20.8637995,21.1163823 21.2396266,20.7075065 21.702699,20.7075065 L38.4806876,20.7075065 C38.94376,20.7075065 39.3195869,21.1163823 39.3195869,21.622223 L39.3195869,38.0870621 C39.3195869,38.5919881 38.94376,39.0008639 38.4806876,39.0008639 Z M37.6417882,43.243524 L22.5415984,43.243524 L22.5415984,57.8798593 L37.6417882,57.8798593 L37.6417882,43.243524 Z M38.4806876,59.7083704 L21.702699,59.7083704 C21.2396266,59.7083704 20.8637995,59.2994946 20.8637995,58.7945685 L20.8637995,42.3297295 C20.8637995,41.8238887 21.2396266,41.4150129 21.702699,41.4150129 L38.4806876,41.4150129 C38.94376,41.4150129 39.3195869,41.8238887 39.3195869,42.3297295 L39.3195869,58.7945685 C39.3195869,59.2994946 38.94376,59.7083704 38.4806876,59.7083704 Z M57.9807713,1.82851106 L42.8805814,1.82851106 L42.8805814,16.4648464 L57.9807713,16.4648464 L57.9807713,1.82851106 Z M58.8196706,18.2933574 L42.0416821,18.2933574 C41.5786096,18.2933574 41.2027826,17.8844816 41.2027826,17.3795556 L41.2027826,0.914716534 C41.2027826,0.408875795 41.5786096,0 42.0416821,0 L58.8196706,0 C59.2827431,0 59.65857,0.408875795 59.65857,0.914716534 L59.65857,17.3795556 C59.65857,17.8844816 59.2827431,18.2933574 58.8196706,18.2933574 Z M57.9807713,22.5360175 L42.8805814,22.5360175 L42.8805814,37.1723529 L57.9807713,37.1723529 L57.9807713,22.5360175 Z M58.8196706,39.0008639 L42.0416821,39.0008639 C41.5786096,39.0008639 41.2027826,38.5919881 41.2027826,38.0870621 L41.2027826,21.622223 C41.2027826,21.1163823 41.5786096,20.7075065 42.0416821,20.7075065 L58.8196706,20.7075065 C59.2827431,20.7075065 59.65857,21.1163823 59.65857,21.622223 L59.65857,38.0870621 C59.65857,38.5919881 59.2827431,39.0008639 58.8196706,39.0008639 Z M57.9807713,43.243524 L42.8805814,43.243524 L42.8805814,57.8798593 L57.9807713,57.8798593 L57.9807713,43.243524 Z M58.8196706,59.7083704 L42.0416821,59.7083704 C41.5786096,59.7083704 41.2027826,59.2994946 41.2027826,58.7945685 L41.2027826,42.3297295 C41.2027826,41.8238887 41.5786096,41.4150129 42.0416821,41.4150129 L58.8196706,41.4150129 C59.2827431,41.4150129 59.65857,41.8238887 59.65857,42.3297295 L59.65857,58.7945685 C59.65857,59.2994946 59.2827431,59.7083704 58.8196706,59.7083704 Z" id="path-1"></path>
    </defs>
    <g id="Symbols" stroke="none" stroke-width="1" fill="none" fill-rule="evenodd">
        <g id="05_icons/interface/view-grid" transform="translate(-10.000000, -10.000000)">
            <g id="🎨Colour" transform="translate(10.000000, 10.000000)">
                <mask id="mask-2" fill="white">
                    <use xlink:href="#path-1"></use>
                </mask>
                <use id="Mask" fill="#000000" xlink:href="#path-1"></use>
            </g>
        </g>
    </g>
</svg>