<?xml version="1.0" encoding="UTF-8"?>
<svg width="25px" height="60px" viewBox="0 0 25 60" version="1.1" xmlns="http://www.w3.org/2000/svg" xmlns:xlink="http://www.w3.org/1999/xlink">
    <!-- Generator: Sketch 49.3 (51167) - http://www.bohemiancoding.com/sketch -->
    <title>Mask</title>
    <desc>Created with Sketch.</desc>
    <defs>
        <path d="M12.4999955,17.5 C6.9862495,17.5 2.4999995,21.9875 2.4999995,27.5 C2.4999995,27.52125 2.4887495,27.53875 2.4874995,27.55875 C2.4887495,27.58 2.4999995,27.59625 2.4999995,27.6175 L2.4999995,37.50125 L6.2499995,37.50125 C6.3087495,37.50125 6.3587495,37.52625 6.4149995,37.53375 C6.4987495,37.54625 6.5787495,37.555 6.6574995,37.58375 C6.7374995,37.61125 6.8062495,37.6525 6.8787495,37.695 C6.9437495,37.73375 7.0062495,37.77 7.0624995,37.81875 C7.1274995,37.875 7.1774995,37.94 7.2299995,38.00875 C7.2749995,38.06875 7.3199995,38.12625 7.3549995,38.195 C7.3937495,38.27125 7.4137495,38.3525 7.4362495,38.43625 C7.4512495,38.49125 7.4824995,38.5375 7.4899995,38.59625 L9.8537455,57.500001 L15.1462455,57.500001 L17.5099955,38.59625 C17.5174955,38.5375 17.5487455,38.49 17.5637455,38.43375 C17.5862455,38.3525 17.6062455,38.2725 17.6437455,38.1975 C17.6799955,38.125 17.7274955,38.06375 17.7762455,38 C17.8249955,37.9375 17.8712455,37.87625 17.9299955,37.82375 C17.9912455,37.76875 18.0599955,37.73 18.1312455,37.6875 C18.1987455,37.64875 18.2624955,37.61125 18.3362455,37.585 C18.4162455,37.55625 18.4999955,37.545 18.5862455,37.53375 C18.6424955,37.52625 18.6924955,37.50125 18.7499955,37.50125 L22.4999955,37.50125 L22.4999955,27.6175 C22.4999955,27.59625 22.5112455,27.58 22.5112455,27.55875 C22.5112455,27.53875 22.4999955,27.52125 22.4999955,27.5 C22.4999955,21.9875 18.0137455,17.5 12.4999955,17.5 Z M17.4999955,7.50125 C17.4999955,4.74375 15.2562455,2.50125 12.4999955,2.50125 C9.7424955,2.50125 7.4999995,4.74375 7.4999995,7.50125 C7.4999995,10.25875 9.7424955,12.5025 12.4999955,12.5025 C15.2562455,12.5025 17.4999955,10.25875 17.4999955,7.50125 Z M24.9999955,38.75125 C24.9999955,39.44125 24.4399955,40 23.7499955,40 L19.8537455,40 L17.4899955,58.9062511 C17.4124955,59.5312511 16.8799955,60.0012511 16.2499955,60.0012511 L8.7499995,60.0012511 C8.1199995,60.0012511 7.5874995,59.5312511 7.5099995,58.9062511 L5.1462495,40 L1.2499995,40 C0.56,40 0,39.44125 0,38.75125 L0,27.6175 C0,27.59625 0.01125,27.58 0.01125,27.55875 C0.01125,27.53875 0,27.52125 0,27.5 C0,20.61375 5.5974995,15.01125 12.4824955,15.0025 C8.3549995,14.9925 4.9999995,11.6325 4.9999995,7.50125 C4.9999995,3.365 8.3637495,0 12.4999955,0 C16.6362455,0 19.9999955,3.365 19.9999955,7.50125 C19.9999955,11.6325 16.6449955,14.9925 12.5174955,15.0025 C19.4024955,15.01125 24.9999955,20.61375 24.9999955,27.5 C24.9999955,27.52125 24.9887455,27.53875 24.9874955,27.55875 C24.9887455,27.58 24.9999955,27.59625 24.9999955,27.6175 L24.9999955,38.75125 Z" id="path-1"></path>
    </defs>
    <g id="Symbols" stroke="none" stroke-width="1" fill="none" fill-rule="evenodd">
        <g id="05_icons/user/guests" transform="translate(-28.000000, -10.000000)">
            <g id="🎨Colour" transform="translate(28.000000, 10.000000)">
                <mask id="mask-2" fill="white">
                    <use xlink:href="#path-1"></use>
                </mask>
                <use id="Mask" fill="#000000" xlink:href="#path-1"></use>
            </g>
        </g>
    </g>
</svg>