<?xml version="1.0" encoding="UTF-8"?>
<svg width="65px" height="58px" viewBox="0 0 65 58" version="1.1" xmlns="http://www.w3.org/2000/svg" xmlns:xlink="http://www.w3.org/1999/xlink">
    <!-- Generator: Sketch 51.2 (57519) - http://www.bohemiancoding.com/sketch -->
    <title>Mask</title>
    <desc>Created with Sketch.</desc>
    <defs>
        <path d="M63.0644673,26.1442566 C62.843479,21.3921378 61.037291,17.8006426 57.9860862,16.031866 L53.4410351,13.4078473 C52.0750837,12.6213377 50.5246854,12.2228627 48.8333418,12.2228627 C46.155381,12.2228627 43.1859592,13.240801 40.2234978,15.1705336 C40.2756997,9.83288277 38.4294902,5.70109729 35.1190157,3.78963536 L30.5957154,1.1786671 C27.5566911,-0.571838771 23.5815115,-0.371731241 19.3818635,1.7737695 C18.9494572,1.69633658 18.5118307,1.65718511 18.0794244,1.65718511 C14.4696586,1.65718511 10.229119,4.08979665 6.70809653,8.17373034 L6.67155515,8.15284955 C6.28787072,7.9309912 5.85633448,7.81875698 5.38912689,7.81875698 C3.87526993,7.81875698 2.11867382,9.09944517 1.01721237,11.0039468 C-0.467063481,13.5775037 -0.309587555,16.3546482 1.37566586,17.3273448 L1.38436619,17.332565 C-0.682831601,23.1504739 -0.407901255,28.6334203 2.1099735,31.7020257 C2.3518426,36.4089029 4.15542047,39.9655967 7.19444483,41.7213228 L11.6133411,44.2679086 L11.7377558,44.3392513 C13.1002271,45.1231508 14.6480153,45.5216258 16.3384889,45.5216258 C18.9938289,45.5216258 21.9510701,44.5089077 24.9117916,42.5887454 C24.9091815,42.6722686 24.9074414,42.7549217 24.9074414,42.8375748 C24.9074414,48.0925725 26.73016,52.039041 30.0397645,53.950503 L34.5213032,56.5345002 L34.5735051,56.5666914 C35.9385865,57.352331 37.4889849,57.750806 39.1811985,57.750806 C41.2788475,57.750806 43.5322323,57.1330827 45.8804506,55.9159069 C46.263265,55.9681089 46.5964876,55.9924698 46.9218798,55.9924698 C50.7970056,55.9924698 55.2881147,53.2579569 58.9466023,48.6754945 C60.2681821,48.3309615 61.6367436,47.1607675 62.5363574,45.6025388 C63.1984523,44.4567057 63.562996,43.2134289 63.562996,42.1032671 C63.562996,41.7117524 63.5038338,41.3237178 63.3820292,40.9208927 C65.6484645,35.00467 65.5257899,29.3572875 63.0644673,26.1442566 Z M3.56988843,12.6004569 C3.05917922,13.4844102 2.58066121,14.4301358 2.14651487,15.4158829 C1.81068223,14.8521017 1.84635358,13.4687496 2.70507589,11.9792535 C3.44808385,10.6933452 4.62871828,9.72760881 5.43523863,9.76850035 C4.74965283,10.688995 4.12322926,11.6408108 3.56988843,12.6004569 Z M15.966985,3.92275037 C12.5077348,6.51805803 9.2929638,10.2330978 6.83773141,14.4875579 C4.33290715,18.822061 2.75553779,23.3531916 2.24308851,27.6624637 C1.28257236,23.8891317 2.40926476,18.5071092 5.25601189,13.5757636 C8.10449908,8.64267798 12.2101836,4.97461995 15.966985,3.92275037 Z M58.4985355,39.8690231 C58.4419833,39.9107846 58.3871713,39.9568964 58.3332292,40.0030081 L58.2618866,40.0630404 C58.1226813,40.1787547 57.9852161,40.2988192 57.8503611,40.4293242 C57.7729282,40.505887 57.6981053,40.5833199 57.6241526,40.6624929 C57.477117,40.8190988 57.3361717,40.983535 57.1995766,41.1575416 L57.1491147,41.2193139 C57.1169235,41.2584654 57.0856023,41.2976168 57.0542811,41.3385084 L57.0542811,41.3393784 C56.8472133,41.6169188 56.6749468,41.8761886 56.5287813,42.1311082 C56.386096,42.3781975 56.2695116,42.6322471 56.1668477,42.8567155 L56.1250861,42.9402386 C56.1024653,42.9828702 56.0807145,43.0263719 56.0607037,43.0707436 C56.0380829,43.1255556 56.0198122,43.1803677 56.0015415,43.2343097 L55.9676102,43.3326234 C55.6909398,44.0547506 55.5317238,44.7655673 55.5004026,45.4146118 L53.3227107,44.1582845 C52.798951,43.8555131 52.6745363,42.2416023 53.6794241,40.4989268 C54.4076415,39.2382493 55.562175,38.2873035 56.3626051,38.2873035 C56.4817996,38.2873035 56.5853335,38.3116645 56.6705967,38.3621264 L58.8543789,39.6210637 C58.7360544,39.6976266 58.6168599,39.7802797 58.4985355,39.8690231 Z M57.476247,45.3441391 L57.4901675,45.2171143 C57.4997379,45.1196707 57.5093082,45.022227 57.528449,44.9204332 C57.5336692,44.8943322 57.5406294,44.8673612 57.5475897,44.8403901 L57.5676004,44.7586071 C57.6928851,44.1913457 57.9095233,43.6380049 58.2114247,43.1151152 C58.9396421,41.8544378 60.0941755,40.903492 60.8954757,40.903492 C61.0146701,40.903492 61.118204,40.9278529 61.2191278,40.9809249 C61.4696973,41.1384008 61.6141227,41.5464462 61.6141227,42.100657 C61.6141227,42.8758562 61.3426725,43.77286 60.850234,44.6254921 C60.2272905,45.7025926 59.2650343,46.5717553 58.4541638,46.7875234 C58.3114784,46.8249348 58.0443784,46.8736567 57.8590614,46.7649026 C57.8155598,46.7405417 57.768578,46.69617 57.6911451,46.6056866 C57.6589539,46.5621849 57.6293728,46.4960625 57.5797809,46.3846983 C57.5719506,46.3672976 57.5623802,46.350767 57.55542,46.3264061 C57.5432395,46.2916048 57.5362793,46.2515833 57.5275789,46.2124318 L57.5093082,46.1297787 C57.4953877,46.0680063 57.4814672,46.005364 57.4736369,45.9357614 C57.4710268,45.9131405 57.4710268,45.8887796 57.4701568,45.8644187 L57.4675467,45.8017763 C57.4614564,45.6947623 57.4579763,45.5877483 57.4631965,45.4729039 C57.4658066,45.4320124 57.4710268,45.3876407 57.476247,45.3441391 Z M51.9924306,39.5253601 C50.5064147,42.0980469 50.6630206,44.8751915 52.348274,45.8487581 L56.6932175,48.3501022 C53.5837205,51.9198466 49.9461136,54.0427264 46.9227499,54.0427264 C45.9639738,54.0427264 45.0948111,53.8226082 44.3274422,53.3797615 C44.1795366,53.2944983 44.0455516,53.1909644 43.9106965,53.0883005 L43.844574,53.0369686 C43.8080326,53.0099976 43.7714913,52.9838966 43.7332098,52.9586656 C43.6897082,52.9290845 43.6453365,52.8995034 43.5766039,52.835991 L43.526142,52.7846591 C42.1045085,51.4996207 41.3528003,49.3480298 41.3528003,46.5621849 C41.3528003,43.9703574 42.010545,41.0853288 43.2555619,38.219441 C43.4382687,37.8009552 43.6375062,37.3807294 43.8463141,36.9613736 L43.9193968,36.8038977 C44.1603959,36.3262497 44.4196657,35.8468617 44.6893758,35.3796541 C47.9032768,29.8131847 52.6258145,25.917178 56.7210586,25.4551907 C56.9846785,25.4256095 57.2509085,25.409949 57.5136584,25.409949 C57.7511773,25.409949 57.9886963,25.4238695 58.2183849,25.4508405 C58.8195775,25.5239232 59.4007594,25.7048901 59.9427898,25.9902608 C59.9723709,26.0059214 60.001952,26.0198419 60.0324032,26.0337624 C60.0576341,26.0459429 60.0828651,26.0563833 60.1046159,26.0694338 C63.2637048,27.8973726 64.0014925,33.1428 61.9656159,39.1703868 L57.6432933,36.6716527 C57.2596088,36.4506644 56.8280726,36.3384302 56.3617351,36.3384302 C54.8470081,36.3393002 53.090412,37.6191184 51.9924306,39.5253601 Z M51.8801964,14.9478053 C51.6705185,14.9747763 51.4608406,15.0104476 51.2485526,15.048729 C51.045835,15.0861405 50.8439874,15.1244219 50.6386597,15.1714037 C50.4263717,15.2201255 50.2140837,15.2775477 50.0009257,15.3367099 C49.796468,15.393262 49.5920103,15.4515542 49.3849425,15.5185467 C49.1778747,15.5855393 48.9699369,15.6621021 48.7411183,15.7464953 C48.5349205,15.8230582 48.3287228,15.8996211 48.121655,15.9848843 C47.9058869,16.0753677 47.6909888,16.1736814 47.4760907,16.2728651 L47.4090982,16.3041863 C47.2246512,16.3894495 47.0402043,16.4729726 46.8557573,16.5669362 C46.6591299,16.6652499 46.4625025,16.7731339 46.2658751,16.881888 L46.0944787,16.9758516 C45.9274324,17.067205 45.7595161,17.1594285 45.5924698,17.2586122 C45.3941023,17.3751966 45.1974749,17.5004813 44.9999775,17.6275061 L44.8712127,17.7092892 C44.6919859,17.8223934 44.5136292,17.9354977 44.3352725,18.0555622 C44.1543057,18.1799769 43.9742089,18.3096118 43.7949822,18.4401167 L43.5879144,18.5897623 C43.4217381,18.7098268 43.2555619,18.8290213 43.0911257,18.9569161 C42.9162491,19.0900311 42.7431126,19.2318465 42.569106,19.3736618 L42.2880854,19.6033504 C42.1462701,19.7181948 42.0044548,19.8339091 41.8635095,19.9539736 C41.6999433,20.0940489 41.5389873,20.2410844 41.3780312,20.38812 L41.0857002,20.65348 C40.9430148,20.7822448 40.8003295,20.9110097 40.6593842,21.0458647 C40.4975581,21.2007306 40.3383421,21.3616866 40.1791261,21.5226427 L39.8754847,21.8280242 C39.7441097,21.9593991 39.6127348,22.0907741 39.4830999,22.2273692 C39.3195337,22.4005057 39.1585777,22.5797325 38.9984917,22.7598292 L38.7018105,23.0887016 C38.5808759,23.2218166 38.4590714,23.3558017 38.3407469,23.4941369 C38.1780508,23.682934 38.0188348,23.8795614 37.8596188,24.0770588 L37.5568474,24.4485628 C37.4498334,24.5773276 37.3428193,24.7069625 37.2375454,24.8418176 C37.0635388,25.066286 36.8930124,25.2977147 36.723356,25.5300135 L36.4501658,25.8989074 C36.3596824,26.0198419 36.2683289,26.1407765 36.1795856,26.2660612 C35.977738,26.5523019 35.7819806,26.847243 35.5870933,27.1421841 L35.367845,27.4693165 C35.3008525,27.5667601 35.23473,27.6650738 35.1703476,27.7651276 C34.8406052,28.280187 34.5186931,28.8074268 34.2159217,29.3329266 C31.1360058,34.6670973 29.4394419,40.3910427 29.4394419,45.4502831 C29.4394419,46.1088979 29.4707631,46.7553322 29.5342755,47.4269975 C29.5447159,47.5296613 29.5595065,47.627105 29.575167,47.7254187 C29.5856074,47.7915412 29.5960478,47.8576637 29.6047482,47.9246562 C29.6586902,48.3648928 29.7222026,48.8312303 29.8118159,49.2705969 C29.8370469,49.3941415 29.8683681,49.512466 29.9005593,49.6307904 L29.9545013,49.8378582 C30.0449847,50.204142 30.1424284,50.5913066 30.265103,50.9584604 C30.3146949,51.1063659 30.371247,51.2473112 30.4286692,51.3891266 L30.4956617,51.5570429 C30.5670044,51.7406198 30.6339969,51.9067961 30.7009894,52.065142 C28.217916,50.442531 26.8563147,47.1833883 26.8563147,42.8349647 C26.8563147,38.112427 28.4597851,32.7347546 31.3700446,27.6903048 C36.0386403,19.6042205 43.0571944,14.171736 48.8342118,14.171736 C50.0426873,14.171736 51.151109,14.4223055 52.1333759,14.9164841 C52.0481127,14.9269245 51.9645896,14.9364948 51.8801964,14.9478053 Z M35.9020451,30.3073633 C40.5715108,22.221279 47.590935,16.7887945 53.3670824,16.7887945 C53.7055251,16.7887945 54.0378776,16.8079353 54.3536995,16.8462167 C54.6016588,16.8757978 54.8609286,16.9245196 55.1706602,16.9984724 L55.2889847,17.0202232 C55.5169333,17.0776454 55.7535822,17.1550783 56.0537435,17.2699226 C56.0789744,17.280363 56.1050754,17.2881933 56.1711979,17.3082041 C56.2486308,17.3395253 56.3225836,17.3786767 56.3965364,17.4169582 L56.6827771,17.5552934 C56.7915312,17.6057553 56.8994153,17.6544771 57.0038192,17.7153794 C59.0649268,18.9064542 60.4117375,21.1737595 60.9180965,24.2884768 L56.5427019,21.7653818 C55.4864821,21.1563589 54.287577,20.8466272 52.9781777,20.8466272 C48.0781533,20.8466272 42.2471939,25.2446427 38.4686417,31.789899 C36.1482644,35.8094503 34.8701863,40.1274228 34.8701863,43.9468665 C34.8701863,47.9611976 36.2744191,50.9836913 38.8253551,52.4557867 L43.2120602,54.986712 C40.2382883,56.1090542 37.62471,56.0655526 35.5470718,54.8744777 C35.4069965,54.7926947 35.2791017,54.6969911 35.1494668,54.6012875 L35.0006912,54.4916633 C34.9493593,54.4542519 34.8962873,54.4185806 34.8440853,54.3829092 C34.7527319,54.3211369 34.6613784,54.2593646 34.5761152,54.1880219 C34.463011,54.0923183 34.3586071,53.9835642 34.2550732,53.8756802 L33.9923233,53.6111902 C33.9105402,53.5328873 33.8287571,53.4554543 33.7539343,53.367581 C33.6608408,53.2579569 33.5764476,53.1361523 33.4920544,53.0152178 L33.2632358,52.6993959 C33.189283,52.6010822 33.1144602,52.5018985 33.0474677,52.3940144 C32.9735149,52.2739499 32.9082625,52.143445 32.84301,52.0129401 L32.6481227,51.640566 C32.5828702,51.5213716 32.5176178,51.4030471 32.4610656,51.2734122 C32.4027735,51.1402972 32.3531816,50.9976118 32.3035897,50.8549265 L32.1495939,50.4364407 C32.0956519,50.2981055 32.0425799,50.1597703 31.9982082,50.0127348 C31.9520965,49.8569989 31.9146851,49.6925627 31.8781437,49.5263865 L31.7659095,49.0565688 C31.7293681,48.9130134 31.6919567,48.768588 31.6632456,48.6163322 C31.620614,48.3849035 31.5919029,48.1404243 31.5631919,47.8959451 L31.5388309,47.6914874 C31.5292606,47.6097044 31.5170801,47.5305314 31.5048997,47.4513584 C31.487499,47.334774 31.4692283,47.2181896 31.4587879,47.095515 C31.4126762,46.564795 31.3891853,46.0123242 31.3891853,45.4520232 C31.3883153,40.7277454 32.9917856,35.350073 35.9020451,30.3073633 Z M55.7718529,23.6411724 C55.7144307,23.6498727 55.6570085,23.658573 55.6004564,23.6707535 C55.2942049,23.7351359 54.9844732,23.816049 54.6773517,23.9091425 C54.6138393,23.9274132 54.5503269,23.950904 54.4868145,23.9735249 L54.3354288,24.0265969 C54.1361913,24.0927194 53.9378238,24.1597119 53.7385863,24.2388849 C53.648973,24.2736862 53.5593596,24.3137077 53.4697462,24.3537292 L53.3009599,24.426812 C53.1330436,24.4990247 52.9651272,24.5703674 52.7963409,24.6512804 C52.6875868,24.7043524 52.5797027,24.7609045 52.4718187,24.8174567 L52.3030323,24.9062 C52.1542567,24.9836329 52.0054811,25.0610658 51.8567055,25.144589 C51.7305508,25.2168017 51.604396,25.2933646 51.4791113,25.3707975 L51.4216892,25.4055988 C51.2555129,25.5056526 51.0884666,25.6074464 50.9222904,25.7153304 C50.7813451,25.8066839 50.6421398,25.9041276 50.4837939,26.0146217 C50.3202277,26.127726 50.1575316,26.2425703 49.9957055,26.3617648 C49.84954,26.4696488 49.7042445,26.5827531 49.5589491,26.6958573 C49.398863,26.8211421 49.239647,26.9472968 49.0813011,27.0786718 C48.9360056,27.1987363 48.7924502,27.3214109 48.6480248,27.4466956 C48.4914189,27.5841608 48.334813,27.723366 48.1799472,27.8660514 C48.0390019,27.9956863 47.8989266,28.1270612 47.7588513,28.2619163 C47.6031155,28.413302 47.4491197,28.5672978 47.2959939,28.7221636 C47.1602688,28.8604988 47.0254137,28.998834 46.8905586,29.1415194 C46.7365628,29.3059556 46.5843071,29.475612 46.4337915,29.6452683 C46.3050266,29.7896938 46.1762618,29.9332492 46.048367,30.0820248 C45.9082917,30.2455909 45.7725666,30.4143773 45.6351014,30.5831636 L45.5019864,30.7467298 C45.412373,30.8572239 45.3227596,30.9677181 45.2348863,31.0808224 C45.0826306,31.2774498 44.933855,31.4792974 44.7650687,31.708986 L44.6510944,31.8647219 C44.5849719,31.9534652 44.5188494,32.0422085 44.454467,32.134432 C44.2769803,32.3858715 44.1055838,32.6451412 43.9341874,32.905281 L43.8419639,33.0418762 C43.7975923,33.1071286 43.7532206,33.171511 43.710589,33.2393736 C43.4678498,33.6195779 43.2312009,34.0076125 43.0032524,34.4034774 C40.682875,38.4221586 39.4047969,42.7401311 39.4047969,46.5621849 C39.4047969,48.183926 39.6344856,49.6508012 40.0886427,50.9323594 L39.8006618,50.7670532 C37.8787595,49.6586315 36.8199297,47.2355903 36.8199297,43.9459965 C36.8199297,40.4632554 38.0049143,36.492426 40.1556352,32.7634657 C43.5983548,26.8002613 48.7515587,22.7946305 52.9790478,22.7946305 C53.9404339,22.7946305 54.8122067,23.0164889 55.5691352,23.4532453 L55.8658164,23.6237717 L55.7718529,23.6411724 Z M29.0357467,2.71775502 C28.8260689,2.74472604 28.6146509,2.78039738 28.4014929,2.81867882 C28.2005153,2.85609023 27.9995378,2.89437167 27.7968201,2.9404834 C27.581922,2.99007527 27.3661539,3.04749743 27.1503858,3.10752969 C26.9485382,3.16321178 26.7475606,3.22063394 26.543973,3.28675643 C26.3255948,3.35809912 26.1063465,3.43814213 25.8557771,3.53123563 C25.6643699,3.60170828 25.4747027,3.67305097 25.2832955,3.75309398 C25.0614372,3.84444742 24.8395788,3.94624125 24.578569,4.0671758 C24.391512,4.15330904 24.205325,4.23857225 24.0173979,4.33340582 C23.8146803,4.43519965 23.6119626,4.54656384 23.408375,4.65792803 L23.2291482,4.75624173 C23.0708023,4.84411504 22.9133264,4.93024828 22.7541104,5.02421182 C22.5479126,5.1460164 22.3425849,5.27739134 22.1363871,5.40876629 L21.9536802,5.52535067 C21.8014245,5.62105428 21.6491688,5.71849794 21.4977831,5.82116181 C21.3081159,5.94992665 21.1193188,6.08739182 20.9305217,6.224857 L20.6590715,6.4214844 C20.5233464,6.5197981 20.3876213,6.6181118 20.2527662,6.72164569 C20.059619,6.87042129 19.8682118,7.02702718 19.6759345,7.18363308 L19.4036143,7.40636146 C19.2774595,7.50815529 19.1513048,7.61081915 19.0260201,7.71870321 C18.8354829,7.88226937 18.6466858,8.05453585 18.4587587,8.2259323 L18.1881785,8.47128153 C18.0646339,8.58264572 17.9419593,8.69400991 17.8201547,8.8105943 C17.6339677,8.98895101 17.4503908,9.17513802 17.2668139,9.36132503 L16.9857933,9.64408567 C16.871819,9.75805996 16.7569747,9.87290428 16.6438704,9.99122873 C16.4585535,10.1887262 16.2758466,10.3923138 16.0931397,10.5959015 L15.808639,10.9125934 C15.7051051,11.0265677 15.6015712,11.140542 15.5006474,11.2579964 C15.3153304,11.4737645 15.1343636,11.6973629 14.9525268,11.9218314 L14.6784665,12.2585341 C14.5836329,12.3733784 14.4887993,12.4882227 14.3957058,12.6056771 C14.2086488,12.8449361 14.027682,13.0937655 13.8458451,13.3417248 L13.577875,13.7045285 C13.496962,13.8124125 13.4151789,13.9211666 13.3360059,14.0325308 C13.099357,14.3683634 12.8705384,14.7146365 12.6251892,15.0870105 L12.5077348,15.261017 C12.4459625,15.3506304 12.3841901,15.4402438 12.3258979,15.5324673 C11.9952855,16.0492667 11.6733734,16.5765065 11.370602,17.1020063 C8.28981605,22.435307 6.59325221,28.1592524 6.59325221,33.2193628 C6.59325221,33.8710174 6.62544342,34.5374624 6.68808578,35.1969473 C6.69765614,35.2943909 6.71157666,35.3883545 6.72636722,35.482318 C6.73680761,35.5458304 6.74637797,35.6093428 6.7550783,35.6754653 C6.80989036,36.120922 6.87340275,36.5942198 6.96736629,37.0483769 C6.99085717,37.1632212 7.02043828,37.2737154 7.0500194,37.3842096 L7.09961126,37.5756168 C7.19183473,37.9566911 7.29536863,38.3595163 7.42326344,38.7423307 C7.46676508,38.8737056 7.51722698,38.9981203 7.56681884,39.123405 L7.6346814,39.2939314 C7.69993385,39.4618477 7.77214657,39.6462947 7.85305962,39.8350918 C5.37085621,38.2124807 4.010125,34.9533381 4.010125,30.6057845 C4.010125,25.8832468 5.61359534,20.5055744 8.52385486,15.4611246 C13.1924505,7.37504028 20.2110047,1.94255585 25.9880221,1.94255585 C27.1964975,1.94255585 28.3049192,2.19312528 29.2871862,2.68817391 C29.2036631,2.69774427 29.1192699,2.70731463 29.0357467,2.71775502 Z M13.0575955,18.0781831 C17.7261912,9.99209876 24.7438752,4.5587443 30.5208926,4.5587443 C30.8584653,4.5587443 31.1908178,4.57788502 31.5075098,4.61616646 C32.4654158,4.73275085 33.3571994,5.02595188 34.1584995,5.48793927 L34.2089614,5.51665035 C36.8782219,7.09227964 38.3372668,10.4540861 38.316386,14.993047 C38.3146459,15.4524242 38.2876749,15.9640035 38.2319928,16.5991274 C36.2143869,18.1982476 34.3151054,20.1471209 32.5820002,22.3944155 L26.7379903,18.900364 C26.3543058,18.6793757 25.9227696,18.5671415 25.4564321,18.5671415 C23.9417051,18.5671415 22.1851089,19.8478296 21.0853876,21.7532013 C20.3763109,22.9816876 20.0152473,24.3015272 20.0683193,25.4682411 C20.1231314,26.6706264 20.6112197,27.5972113 21.4386209,28.0748592 L27.3087318,31.5880514 C26.1289674,34.4913507 25.374649,37.3650688 25.0640473,40.131773 C22.0319832,42.3825477 19.0147096,43.5710124 16.3358788,43.5710124 C14.9925483,43.5710124 13.7710223,43.2604107 12.6947918,42.6409474 C12.5790775,42.5739549 12.4720634,42.4930418 12.3650494,42.4138688 L12.0509676,42.1902704 C11.9404734,42.1163176 11.8299793,42.0414948 11.7281854,41.9553616 C11.6316118,41.8727085 11.5419984,41.779615 11.4532551,41.6865215 L11.185285,41.4194214 C11.0904514,41.328938 10.9947478,41.2375846 10.9077446,41.1349207 C10.8250915,41.0383471 10.7511387,40.931333 10.6763159,40.824319 L10.441407,40.5015369 C10.3587539,40.3919127 10.2761008,40.2822886 10.202148,40.1622241 C10.1342855,40.0517299 10.0751232,39.9316654 10.015091,39.8124709 L9.81585348,39.4322666 C9.74625086,39.3052419 9.67664824,39.1782171 9.61661598,39.042492 C9.56093388,38.9154672 9.51395212,38.7806121 9.46697035,38.644887 L9.31036446,38.219441 C9.25555239,38.0767556 9.1998703,37.9340703 9.15375856,37.7818145 C9.10764683,37.6260787 9.07110545,37.4616425 9.03369404,37.2954662 L8.92232985,36.8334788 C8.88491845,36.6873133 8.846637,36.5402778 8.81792592,36.386282 C8.77703439,36.1635536 8.74919334,35.9286448 8.72135229,35.6928659 L8.69438128,35.4683975 C8.68394088,35.3883545 8.67263046,35.3109215 8.66045,35.2326186 C8.64217931,35.110814 8.62390862,34.9907495 8.6125982,34.8628547 C8.56648646,34.3321347 8.54299558,33.7796639 8.54299558,33.2193628 C8.54386561,28.4968251 10.147336,23.1191527 13.0575955,18.0781831 Z M22.772381,22.727638 C23.5005985,21.4669606 24.6551319,20.5160148 25.4564321,20.5160148 C25.5756265,20.5160148 25.6791604,20.5403757 25.7609435,20.5873575 L31.4178964,23.9813552 C30.7888627,24.8887993 30.2059408,25.8084239 29.6821811,26.7167381 C29.1392806,27.6555035 28.6190011,28.6638714 28.0943713,29.7923039 L22.4165377,26.3869957 C21.8927779,26.0850944 21.7674932,24.4703136 22.772381,22.727638 Z" id="path-1"></path>
    </defs>
    <g id="Symbols" stroke="none" stroke-width="1" fill="none" fill-rule="evenodd">
        <g id="Isometric/gym" transform="translate(-8.000000, -12.000000)">
            <g id="🎨Icon-Colour" transform="translate(8.000000, 12.000000)">
                <mask id="mask-2" fill="white">
                    <use xlink:href="#path-1"></use>
                </mask>
                <use id="Mask" fill="#000000" fill-rule="nonzero" xlink:href="#path-1"></use>
            </g>
        </g>
    </g>
</svg>