<?xml version="1.0" encoding="UTF-8"?>
<svg width="60px" height="53px" viewBox="0 0 60 53" version="1.1" xmlns="http://www.w3.org/2000/svg" xmlns:xlink="http://www.w3.org/1999/xlink">
    <!-- Generator: Sketch 49.3 (51167) - http://www.bohemiancoding.com/sketch -->
    <title>Mask</title>
    <desc>Created with Sketch.</desc>
    <defs>
        <path d="M15.1896939,0 C11.299373,0 7.42358563,1.49214529 4.45308526,4.51676389 C-1.48759956,10.5660011 -1.48112306,20.3303778 4.45308526,26.3848041 L29.4310356,51.8811119 C29.7387673,52.1853681 30.2340231,52.1853681 30.5417547,51.8811119 C38.8770846,43.3938213 47.2090973,34.896816 55.5444272,26.4095254 C61.4851909,20.3602329 61.4851909,10.6153646 55.5444272,4.56612743 C49.6035844,-1.48310978 39.9874878,-1.48318876 34.0465661,4.56612743 L30.0233981,8.66330124 L25.9509455,4.51676389 C22.9805242,1.49214529 19.0800147,0 15.1896939,0 Z M15.1896939,1.5549515 C18.6649661,1.5549515 22.1421338,2.90521413 24.8155841,5.62744354 L29.4557569,10.3416616 C29.7634886,10.6459177 30.2587443,10.6459177 30.566476,10.3416616 L35.1819275,5.65212531 C40.5289071,0.207587507 49.0868073,0.207666488 54.433708,5.65212531 C59.7806087,11.0965841 59.7806087,19.8543553 54.433708,25.2988063 C46.2859596,33.5952772 38.1465832,41.9063597 29.9987558,50.2027516 L5.56380439,25.274164 C0.221563643,19.8237104 0.216982707,11.0719024 5.56380439,5.62744354 C8.23733292,2.90521413 11.7144217,1.5549515 15.1896939,1.5549515 Z" id="path-1"></path>
    </defs>
    <g id="Symbols" stroke="none" stroke-width="1" fill="none" fill-rule="evenodd">
        <g id="05_icons/interface/heart" transform="translate(-10.000000, -14.000000)">
            <g id="🎨Colour" transform="translate(10.000000, 14.000000)">
                <mask id="mask-2" fill="white">
                    <use xlink:href="#path-1"></use>
                </mask>
                <use id="Mask" fill="#000000" fill-rule="nonzero" xlink:href="#path-1"></use>
            </g>
        </g>
    </g>
</svg>