<?xml version="1.0" encoding="UTF-8"?>
<svg width="60px" height="56px" viewBox="0 0 60 56" version="1.1" xmlns="http://www.w3.org/2000/svg" xmlns:xlink="http://www.w3.org/1999/xlink">
    <!-- Generator: Sketch 49.3 (51167) - http://www.bohemiancoding.com/sketch -->
    <title>Mask</title>
    <desc>Created with Sketch.</desc>
    <defs>
        <path d="M21.6475014,45.4146256 C23.9212521,46.1412302 27.0424983,46.5751742 29.9999999,46.5751742 C48.9724984,46.5751742 57.5000031,31.5662655 57.5000031,27.6935701 C57.5000031,25.8745363 55.9062461,21.4367055 51.6312461,17.2713485 C51.135,16.7882101 51.1212461,15.9909578 51.6012461,15.4914162 C52.0812461,14.9918839 52.8724984,14.9792655 53.3687538,15.4624039 C57.9249969,19.8989793 60,24.9132993 60,27.6935701 C60,32.6763578 50.6487507,49.0930585 29.9999999,49.0930585 C26.7525045,49.0930585 23.4325014,48.6275776 20.8912521,47.8151942 C20.2337537,47.6045296 19.8699967,46.8968481 20.0775044,46.2333173 C20.286249,45.5697856 20.9912491,45.203961 21.6475014,45.4146256 Z M29.9987537,39.0227886 C29.3437476,39.0227886 28.7937506,38.509364 28.7524983,37.8420533 C28.7099999,37.1482502 29.2337537,36.5515732 29.9224983,36.5074225 C34.6612522,36.2097209 38.4574984,32.3874809 38.7525045,27.6166224 C38.7962491,26.9215547 39.3987507,26.3892163 40.0774984,26.4384163 C40.7662522,26.4813024 41.2899968,27.0792347 41.2474984,27.7730378 C40.8749999,33.8091486 36.0724984,38.6443456 30.0775014,39.0202594 C30.0512491,39.0227886 30.0249968,39.0227886 29.9987537,39.0227886 Z M29.9999999,8.81196696 C11.0275013,8.81196696 2.50000035,23.8208747 2.50000035,27.6935701 C2.50000035,29.6614501 5.85375021,37.630124 13.581249,42.4728902 L21.2249998,34.7754348 C19.6237475,32.770964 18.7499998,30.3010132 18.7499998,27.6935701 C18.7499998,21.4467947 23.7975044,16.3643516 29.9999999,16.3643516 C32.585003,16.3643516 35.045003,17.2410716 37.0349999,18.8532255 L44.135003,11.7032377 C41.3812522,10.4228562 36.9825045,8.81196696 29.9999999,8.81196696 Z M23.026246,32.9614502 L35.2287507,20.6722593 C33.721246,19.5318901 31.9137506,18.8822378 29.9999999,18.8822378 C25.1750029,18.8822378 21.2499967,22.8344101 21.2499967,27.6935701 C21.2499967,29.6261332 21.8925044,31.4439025 23.026246,32.9614502 Z M4.65874959,55.0181583 C4.4137502,55.2641439 4.0937499,55.386506 3.77500036,55.386506 C3.45500005,55.386506 3.13499974,55.2641439 2.8912502,55.0181583 C2.40250035,54.5261871 2.40250035,53.728941 2.8912502,53.2382315 L11.7675044,44.2994933 C3.63874959,38.9470963 0,30.2795701 0,27.6935701 C0,22.7095178 9.351249,6.2940808 29.9999999,6.2940808 C38.210003,6.2940808 43.2625015,8.46001619 46.0149969,9.80978543 L55.3912523,0.368979232 C55.8787477,-0.122993077 56.67,-0.122993077 57.1587508,0.368979232 C57.6462461,0.859686927 57.6462461,1.65693924 57.1587508,2.14891155 L4.65874959,55.0181583 Z" id="hide"></path>
    </defs>
    <g id="Symbols" stroke="none" stroke-width="1" fill="none" fill-rule="evenodd">
        <g id="05_icons/interface/visibility-false" transform="translate(-10.000000, -12.000000)">
            <g id="🎨Colour" transform="translate(10.000000, 12.000000)">
                <mask id="mask-2" fill="white">
                    <use xlink:href="#hide"></use>
                </mask>
                <use id="Mask" fill="#000000" xlink:href="#hide"></use>
            </g>
        </g>
    </g>
</svg>