<?xml version="1.0" encoding="UTF-8"?>
<svg width="43px" height="55px" viewBox="0 0 43 55" version="1.1" xmlns="http://www.w3.org/2000/svg" xmlns:xlink="http://www.w3.org/1999/xlink">
    <!-- Generator: Sketch 49.3 (51167) - http://www.bohemiancoding.com/sketch -->
    <title>Mask</title>
    <desc>Created with Sketch.</desc>
    <defs>
        <path d="M43,0 L0,0 L0,2.29166667 L5.97222222,2.29166667 L5.97222222,14.8946875 C5.97222222,20.9114583 14.6498611,25.4798958 19.1111111,27.5 C14.6498611,29.5201042 5.97222222,34.0885417 5.97222222,40.1053125 L5.97222222,52.7083333 L0,52.7083333 L0,55 L43,55 L43,52.7083333 L37.0277778,52.7083333 L37.0277778,40.1053125 C37.0277778,34.0885417 28.3501389,29.5201042 23.8888889,27.5 C28.3501389,25.4798958 37.0277778,20.91375 37.0277778,14.8958333 L37.0277778,2.29166667 L43,2.29166667 L43,0 Z M34.6388889,40.1053125 L34.6388889,52.7083333 L8.36111111,52.7083333 L8.36111111,40.1053125 C8.36111111,35.0785417 17.3409444,30.298125 21.5,28.6458333 C25.6590556,30.2992708 34.6388889,35.0796875 34.6388889,40.1053125 Z M34.6388889,14.8946875 C34.6388889,19.9214583 25.6566667,24.701875 21.5,26.3541667 C17.3409444,24.7007292 8.36111111,19.9203125 8.36111111,14.8946875 L8.36111111,2.29166667 L34.6388889,2.29166667 L34.6388889,14.8946875 Z" id="path-1"></path>
    </defs>
    <g id="Symbols" stroke="none" stroke-width="1" fill="none" fill-rule="evenodd">
        <g id="05_icons/interface/hour_glass" transform="translate(-18.000000, -12.000000)">
            <g id="🎨Colour" transform="translate(18.000000, 12.000000)">
                <mask id="mask-2" fill="white">
                    <use xlink:href="#path-1"></use>
                </mask>
                <use id="Mask" fill="#000000" fill-rule="nonzero" xlink:href="#path-1"></use>
            </g>
        </g>
    </g>
</svg>