<?xml version="1.0" encoding="UTF-8"?>
<svg width="47px" height="60px" viewBox="0 0 47 60" version="1.1" xmlns="http://www.w3.org/2000/svg" xmlns:xlink="http://www.w3.org/1999/xlink">
    <!-- Generator: Sketch 49.3 (51167) - http://www.bohemiancoding.com/sketch -->
    <title>Mask</title>
    <desc>Created with Sketch.</desc>
    <defs>
        <path d="M32.8606452,16.1290323 C33.3948387,16.1290323 33.8283871,16.5619355 33.8283871,17.0967742 L33.8283871,59.0322581 C33.8283871,59.5664516 33.3948387,60 32.8606452,60 C32.3264516,60 31.8929032,59.5664516 31.8929032,59.0322581 L31.8929032,17.0967742 C31.8929032,16.5619355 32.3264516,16.1290323 32.8606452,16.1290323 Z M36.0864516,12.9032258 C36.6206452,12.9032258 37.0541935,13.336129 37.0541935,13.8709677 C37.0541935,14.4058065 36.6206452,14.8387097 36.0864516,14.8387097 L29.6348387,14.8387097 C29.1006452,14.8387097 28.6670968,14.4058065 28.6670968,13.8709677 C28.6670968,13.336129 29.1006452,12.9032258 29.6348387,12.9032258 L36.0864516,12.9032258 Z M45.763871,9.67741935 C46.2980645,9.67741935 46.7316129,10.1103226 46.7316129,10.6451613 C46.7316129,11.18 46.2980645,11.6129032 45.763871,11.6129032 L19.9574194,11.6129032 C19.4225806,11.6129032 18.9896774,11.18 18.9896774,10.6451613 C18.9896774,10.1103226 19.4225806,9.67741935 19.9574194,9.67741935 L45.763871,9.67741935 Z M45.763871,0 C46.2980645,0 46.7316129,0.432903226 46.7316129,0.967741935 L46.7316129,7.41935484 C46.7316129,7.95419355 46.2980645,8.38709677 45.763871,8.38709677 C45.2296774,8.38709677 44.796129,7.95419355 44.796129,7.41935484 L44.796129,0.967741935 C44.796129,0.432903226 45.2296774,0 45.763871,0 Z M42.5380645,8.38709677 C42.003871,8.38709677 41.5703226,7.95419355 41.5703226,7.41935484 L41.5703226,0.967741935 C41.5703226,0.432903226 42.003871,0 42.5380645,0 C43.0722581,0 43.5058065,0.432903226 43.5058065,0.967741935 L43.5058065,7.41935484 C43.5058065,7.95419355 43.0722581,8.38709677 42.5380645,8.38709677 Z M39.3122581,8.38709677 C38.7780645,8.38709677 38.3445161,7.95419355 38.3445161,7.41935484 L38.3445161,0.967741935 C38.3445161,0.432903226 38.7780645,0 39.3122581,0 C39.8464516,0 40.28,0.432903226 40.28,0.967741935 L40.28,7.41935484 C40.28,7.95419355 39.8464516,8.38709677 39.3122581,8.38709677 Z M36.0864516,8.38709677 C35.5522581,8.38709677 35.1187097,7.95419355 35.1187097,7.41935484 L35.1187097,0.967741935 C35.1187097,0.432903226 35.5522581,0 36.0864516,0 C36.6206452,0 37.0541935,0.432903226 37.0541935,0.967741935 L37.0541935,7.41935484 C37.0541935,7.95419355 36.6206452,8.38709677 36.0864516,8.38709677 Z M32.8606452,8.38709677 C32.3264516,8.38709677 31.8929032,7.95419355 31.8929032,7.41935484 L31.8929032,0.967741935 C31.8929032,0.432903226 32.3264516,0 32.8606452,0 C33.3948387,0 33.8283871,0.432903226 33.8283871,0.967741935 L33.8283871,7.41935484 C33.8283871,7.95419355 33.3948387,8.38709677 32.8606452,8.38709677 Z M29.6348387,8.38709677 C29.1006452,8.38709677 28.6670968,7.95419355 28.6670968,7.41935484 L28.6670968,0.967741935 C28.6670968,0.432903226 29.1006452,0 29.6348387,0 C30.1690323,0 30.6025806,0.432903226 30.6025806,0.967741935 L30.6025806,7.41935484 C30.6025806,7.95419355 30.1690323,8.38709677 29.6348387,8.38709677 Z M26.4090323,8.38709677 C25.8748387,8.38709677 25.4412903,7.95419355 25.4412903,7.41935484 L25.4412903,0.967741935 C25.4412903,0.432903226 25.8748387,0 26.4090323,0 C26.9432258,0 27.3767742,0.432903226 27.3767742,0.967741935 L27.3767742,7.41935484 C27.3767742,7.95419355 26.9432258,8.38709677 26.4090323,8.38709677 Z M23.1832258,8.38709677 C22.6483871,8.38709677 22.2154839,7.95419355 22.2154839,7.41935484 L22.2154839,0.967741935 C22.2154839,0.432903226 22.6483871,0 23.1832258,0 C23.7180645,0 24.1509677,0.432903226 24.1509677,0.967741935 L24.1509677,7.41935484 C24.1509677,7.95419355 23.7180645,8.38709677 23.1832258,8.38709677 Z M19.9574194,8.38709677 C19.4225806,8.38709677 18.9896774,7.95419355 18.9896774,7.41935484 L18.9896774,0.967741935 C18.9896774,0.432903226 19.4225806,0 19.9574194,0 C20.4922581,0 20.9251613,0.432903226 20.9251613,0.967741935 L20.9251613,7.41935484 C20.9251613,7.95419355 20.4922581,8.38709677 19.9574194,8.38709677 Z M17.02,43.4122581 C17.02,39.9696774 14.4554839,37.1225806 11.1380645,36.6606452 C11.1529032,36.5935484 11.1625806,36.5232258 11.1625806,36.4516129 L11.1625806,0.967741935 C11.1625806,0.432903226 10.7296774,0 10.1948387,0 C9.66,0 9.22709677,0.432903226 9.22709677,0.967741935 L9.22709677,36.4516129 C9.22709677,36.5232258 9.23612903,36.5935484 9.25096774,36.6606452 C5.93354839,37.1225806 3.36967742,39.9696774 3.36967742,43.4122581 C3.36967742,55.9980645 0.00193548387,58.1632258 0,58.1664516 L0.432903226,60 L22.2341935,59.9941935 L20.6477419,58.3535484 C20.6109677,58.316129 17.02,54.4748387 17.02,43.4122581 Z M10.1948387,38.5232258 C12.8909677,38.5232258 15.0851613,40.716129 15.0851613,43.4122581 C15.0851613,43.7496774 15.0929032,44.0722581 15.0987097,44.3974194 L5.29419355,44.3974194 C5.29870968,44.0722581 5.30516129,43.7509677 5.30516129,43.4122581 C5.30451613,40.716129 7.49806452,38.5232258 10.1948387,38.5232258 Z M16.5683871,58.0645161 C15.7483871,56.8187097 15.0748387,55.5135484 15.0677419,55.1270968 C15.0587097,54.5987097 14.6277419,54.1677419 14.1,54.1677419 C14.0974194,54.1677419 14.0948387,54.1677419 14.0922581,54.1677419 C13.5612903,54.1722581 13.1329032,54.5954839 13.1322581,55.1264516 C13.1322581,55.9 13.7129032,57.0832258 14.2870968,58.0645161 L11.1625806,58.0645161 L11.1625806,55.1270968 C11.1625806,54.5929032 10.7296774,54.1593548 10.1948387,54.1593548 C9.66,54.1593548 9.22709677,54.5929032 9.22709677,55.1270968 L9.22709677,58.0645161 L6.10258065,58.0645161 C6.67677419,57.0832258 7.25741935,55.9006452 7.25741935,55.1270968 C7.25741935,54.596129 6.82903226,54.1722581 6.29806452,54.1677419 C6.29548387,54.1677419 6.29225806,54.1677419 6.28967742,54.1677419 C5.76193548,54.1677419 5.33096774,54.5987097 5.32193548,55.1264516 C5.31548387,55.5135484 4.64129032,56.8180645 3.82193548,58.0645161 L2.57935484,58.0645161 C3.68064516,56.2735484 4.94580645,52.8303226 5.24064516,46.3329032 L15.1703226,46.3329032 C15.5374194,52.5090323 17.0251613,56.1722581 18.1051613,58.0645161 L16.5683871,58.0645161 Z" id="path-1"></path>
    </defs>
    <g id="Symbols" stroke="none" stroke-width="1" fill="none" fill-rule="evenodd">
        <g id="05_icons/property/housekeeping" transform="translate(-17.000000, -10.000000)">
            <g id="🎨-Colour" transform="translate(17.000000, 10.000000)">
                <mask id="mask-2" fill="white">
                    <use xlink:href="#path-1"></use>
                </mask>
                <use id="Mask" fill="#000000" fill-rule="nonzero" xlink:href="#path-1"></use>
            </g>
        </g>
    </g>
</svg>