<?xml version="1.0" encoding="UTF-8"?>
<svg width="53px" height="60px" viewBox="0 0 53 60" version="1.1" xmlns="http://www.w3.org/2000/svg" xmlns:xlink="http://www.w3.org/1999/xlink">
    <!-- Generator: Sketch 49.3 (51167) - http://www.bohemiancoding.com/sketch -->
    <title>Mask</title>
    <desc>Created with Sketch.</desc>
    <defs>
        <path d="M49.5720429,21.5692886 L3.04143,21.5692886 L3.04143,57.3021771 L49.5720429,57.3021771 L49.5720429,21.5692886 Z M49.5720429,10.4810057 L37.3271486,10.4810057 L37.3271486,14.1750429 C37.3271486,14.8552029 36.7797943,15.4084457 36.1026514,15.4084457 C35.4255086,15.4084457 34.8781629,14.8552029 34.8781629,14.1750429 L34.8781629,10.4810057 L17.7353057,10.4810057 L17.7353057,14.1750429 C17.7353057,14.8552029 17.18796,15.4084457 16.5108171,15.4084457 C15.8336743,15.4084457 15.2863286,14.8552029 15.2863286,14.1750429 L15.2863286,10.4810057 L3.04143,10.4810057 L3.04143,19.1061857 L49.5720429,19.1061857 L49.5720429,10.4810057 Z M50.7965314,59.7665139 L1.81694057,59.7665139 C1.1397978,59.7665139 0.5924508,59.2157346 0.5924508,58.5343457 L0.5924508,9.24760286 C0.5924508,8.56745143 1.1397978,8.01543429 1.81694057,8.01543429 L15.2863286,8.01543429 L15.2863286,1.85459143 C15.2863286,1.17444 15.8336743,0.622422857 16.5108171,0.622422857 C17.18796,0.622422857 17.7353057,1.17444 17.7353057,1.85459143 L17.7353057,8.01543429 L34.8781629,8.01543429 L34.8781629,1.85459143 C34.8781629,1.17444 35.4255086,0.622422857 36.1026514,0.622422857 C36.7797943,0.622422857 37.3271486,1.17444 37.3271486,1.85459143 L37.3271486,8.01543429 L50.7965314,8.01543429 C51.4736743,8.01543429 52.02102,8.56745143 52.02102,9.24760286 L52.02102,58.5343457 C52.02102,59.2157346 51.4736743,59.7665139 50.7965314,59.7665139 Z M26.28666,51.6177114 C27.6399182,51.6177114 28.7411124,50.5195702 28.7411124,49.1721063 C28.7411124,47.8225409 27.6399182,46.7257993 26.28666,46.7257993 C24.9333974,46.7257993 23.8322032,47.8225409 23.8322032,49.1721063 C23.8322032,50.5195702 24.9333974,51.6177114 26.28666,51.6177114 M26.28666,45.3279132 C28.4137127,45.3279132 30.1443626,47.052163 30.1443626,49.1721063 C30.1443626,51.2906499 28.4137127,53.0156002 26.28666,53.0156002 C24.1596029,53.0156002 22.4296571,51.2906499 22.4296571,49.1721063 C22.4296571,47.052163 24.1596029,45.3279132 26.28666,45.3279132 M26.2922929,39.0367122 C29.8324535,39.0367122 33.0959061,40.7994818 35.0222952,43.7521333 C35.233525,44.0756968 35.1412861,44.5085061 34.8167028,44.7193104 C34.6984161,44.7956499 34.5660472,44.8320696 34.4350864,44.8320696 C34.2055541,44.8320696 33.9809463,44.7200104 33.8464649,44.5141108 C32.1791809,41.9592533 29.355082,40.4353028 26.2922929,40.4353028 C23.2295039,40.4353028 20.4061047,41.9592533 18.7388206,44.5141108 C18.5275909,44.8376699 18.0931703,44.9294146 17.7685827,44.7193104 C17.4439995,44.5085061 17.351765,44.0756968 17.5629903,43.7521333 C19.4893794,40.7994818 22.7528321,39.0367122 26.2922929,39.0367122 M26.3359435,32.7469113 C31.1913445,32.7469113 35.8165091,34.8290397 39.0257494,38.4575243 C39.282038,38.7474682 39.2538735,39.1886868 38.9630833,39.4443112 C38.6722976,39.6999401 38.2294232,39.6712252 37.9731346,39.3819813 C35.0300405,36.0539413 30.7886047,34.1448019 26.3359435,34.1448019 C21.8903236,34.1448019 17.6488877,36.0581459 14.6987525,39.3931863 C14.5600465,39.5500656 14.3671281,39.6292053 14.1720974,39.6292053 C14.0073392,39.6292053 13.842581,39.5724756 13.7088038,39.4548162 C13.4180154,39.1998918 13.3905558,38.7586733 13.6468462,38.4687337 C16.8624191,34.8318399 21.4875837,32.7469113 26.3359435,32.7469113 M42.6250555,34.2736663 C42.4884619,34.4088312 42.3096214,34.4767658 42.1307853,34.4767658 C41.9505366,34.4767658 41.7702879,34.4081311 41.6329901,34.2701617 C37.4647821,30.0961043 31.8919157,27.7968713 25.940949,27.7968713 C20.0618018,27.7968713 14.529774,30.0568845 10.3629712,34.158807 C10.0876724,34.4305412 9.64339202,34.427041 9.3709093,34.1532067 C9.09842666,33.877968 9.10124303,33.4353494 9.3772461,33.1650197 C13.8080794,28.801868 19.6907471,26.3996852 25.940949,26.3996852 C32.2678992,26.3996852 38.1935134,28.8452881 42.627872,33.2847793 C42.9003508,33.5579135 42.8996511,34.0005277 42.6250555,34.2736663" id="path-1"></path>
    </defs>
    <g id="Symbols" stroke="none" stroke-width="1" fill="none" fill-rule="evenodd">
        <g id="05_icons/interface/instant-booking" transform="translate(-14.000000, -10.000000)">
            <g id="🎨Icon-Colour" transform="translate(14.000000, 10.000000)">
                <mask id="mask-2" fill="white">
                    <use xlink:href="#path-1"></use>
                </mask>
                <use id="Mask" fill="#000000" xlink:href="#path-1"></use>
            </g>
        </g>
    </g>
</svg>