<?xml version="1.0" encoding="UTF-8"?>
<svg width="45px" height="60px" viewBox="0 0 45 60" version="1.1" xmlns="http://www.w3.org/2000/svg" xmlns:xlink="http://www.w3.org/1999/xlink">
    <!-- Generator: Sketch 49.3 (51167) - http://www.bohemiancoding.com/sketch -->
    <title>Mask</title>
    <desc>Created with Sketch.</desc>
    <defs>
        <path d="M8.7499997,43.75216 L23.7500027,43.75216 C24.4412527,43.75216 25.0000027,44.31092 25.0000027,45.00093 C25.0000027,45.69095 24.4412527,46.25096 23.7500027,46.25096 L8.7499997,46.25096 C8.0587497,46.25096 7.4999997,45.69095 7.4999997,45.00093 C7.4999997,44.31092 8.0587497,43.75216 8.7499997,43.75216 Z M8.7499997,35.00073 L23.7500027,35.00073 C24.4412527,35.00073 25.0000027,35.56074 25.0000027,36.25075 C25.0000027,36.94077 24.4412527,37.50078 23.7500027,37.50078 L8.7499997,37.50078 C8.0587497,37.50078 7.4999997,36.94077 7.4999997,36.25075 C7.4999997,35.56074 8.0587497,35.00073 8.7499997,35.00073 Z M25.0000027,27.50057 C25.0000027,28.19058 24.4412527,28.7506 23.7500027,28.7506 L8.7499997,28.7506 C8.0587497,28.7506 7.4999997,28.19058 7.4999997,27.50057 C7.4999997,26.81055 8.0587497,26.25054 8.7499997,26.25054 L23.7500027,26.25054 C24.4412527,26.25054 25.0000027,26.81055 25.0000027,27.50057 Z M32.5000027,13.75028 L12.5000027,13.75028 C11.8087527,13.75028 11.2500027,13.19027 11.2500027,12.50026 C11.2500027,11.80899 11.8087527,11.25023 12.5000027,11.25023 L32.5000027,11.25023 C33.1912527,11.25023 33.7500027,11.80899 33.7500027,12.50026 C33.7500027,13.19027 33.1912527,13.75028 32.5000027,13.75028 Z M36.2500027,28.7506 L31.2500027,28.7506 C30.5587527,28.7506 30.0000027,28.19058 30.0000027,27.50057 C30.0000027,26.81055 30.5587527,26.25054 31.2500027,26.25054 L36.2500027,26.25054 C36.9412527,26.25054 37.5000027,26.81055 37.5000027,27.50057 C37.5000027,28.19058 36.9412527,28.7506 36.2500027,28.7506 Z M36.2500027,37.50078 L31.2500027,37.50078 C30.5587527,37.50078 30.0000027,36.94077 30.0000027,36.25075 C30.0000027,35.56074 30.5587527,35.00073 31.2500027,35.00073 L36.2500027,35.00073 C36.9412527,35.00073 37.5000027,35.56074 37.5000027,36.25075 C37.5000027,36.94077 36.9412527,37.50078 36.2500027,37.50078 Z M36.2500027,46.25096 L31.2500027,46.25096 C30.5587527,46.25096 30.0000027,45.69095 30.0000027,45.00093 C30.0000027,44.31092 30.5587527,43.75216 31.2500027,43.75216 L36.2500027,43.75216 C36.9412527,43.75216 37.5000027,44.31092 37.5000027,45.00093 C37.5000027,45.69095 36.9412527,46.25096 36.2500027,46.25096 Z M42.5000027,3.16756 C42.5000027,2.80505 42.1875027,2.50005 41.8187527,2.50005 L3.1812497,2.50005 C2.8124997,2.50005 2.4999997,2.80505 2.4999997,3.16756 L2.4999997,56.83368 C2.4999997,57.194937 2.8124997,57.501194 3.1812497,57.501194 L41.8187527,57.501194 C42.1875027,57.501194 42.5000027,57.194937 42.5000027,56.83368 L42.5000027,3.16756 Z M41.8187527,60.0012459 L3.1812497,60.0012459 C1.4262497,60.0012459 0,58.5812164 0,56.83368 L0,3.16756 C0,1.42003 1.4262497,0 3.1812497,0 L41.8187527,0 C43.5725027,0 45.0000027,1.42003 45.0000027,3.16756 L45.0000027,56.83368 C45.0000027,58.5812164 43.5725027,60.0012459 41.8187527,60.0012459 Z" id="path-1"></path>
    </defs>
    <g id="Symbols" stroke="none" stroke-width="1" fill="none" fill-rule="evenodd">
        <g id="05_icons/finance/invoice" transform="translate(-17.000000, -10.000000)">
            <g id="🎨Colour" transform="translate(17.000000, 10.000000)">
                <mask id="mask-2" fill="white">
                    <use xlink:href="#path-1"></use>
                </mask>
                <use id="Mask" fill="#000000" xlink:href="#path-1"></use>
            </g>
        </g>
    </g>
</svg>