<?xml version="1.0" encoding="UTF-8"?>
<svg width="60px" height="60px" viewBox="0 0 60 60" version="1.1" xmlns="http://www.w3.org/2000/svg" xmlns:xlink="http://www.w3.org/1999/xlink">
    <!-- Generator: Sketch 49.3 (51167) - http://www.bohemiancoding.com/sketch -->
    <title>Mask</title>
    <desc>Created with Sketch.</desc>
    <defs>
        <path d="M45.6243471,13.75 C45.2799271,13.75 44.9993771,14.03125 44.9993771,14.375 C44.9993771,14.72 45.2799271,15.00125 45.6243471,15.00125 C45.9700271,15.00125 46.2493171,14.72 46.2493171,14.375 C46.2493171,14.03125 45.9700271,13.75 45.6243471,13.75 M45.6243471,17.5 C43.9022271,17.5 42.4994771,16.09875 42.4994771,14.375 C42.4994771,12.6525 43.9022271,11.25 45.6243471,11.25 C47.3477271,11.25 48.7492171,12.6525 48.7492171,14.375 C48.7492171,16.09875 47.3477271,17.5 45.6243471,17.5 M41.2495271,2.5 C32.2894871,2.5 25.0002071,9.79 25.0002071,18.75 C25.0002071,21.3175 25.5788371,23.77 26.7210771,26.03875 C26.7285971,26.05375 26.7273371,26.07 26.7348571,26.085 C26.7724271,26.16875 26.7862071,26.255 26.8049971,26.34375 C26.8200271,26.41625 26.8450671,26.485 26.8475771,26.55875 C26.8500771,26.64 26.8300471,26.7175 26.8162671,26.79875 C26.8037371,26.87625 26.7999871,26.9525 26.7736771,27.02625 C26.7473771,27.09875 26.6997871,27.16 26.6609571,27.2275 C26.6171271,27.30125 26.5795471,27.37625 26.5206871,27.44 C26.5081571,27.4525 26.5044071,27.47 26.4918771,27.4825 L2.4998961,51.603746 L2.4998961,57.498746 L11.2495271,57.498746 L11.2495271,51.252496 C11.2495271,50.562496 11.8093771,50.0025 12.4994771,50.0025 L18.7504671,50.0025 L18.7504671,43.7525 C18.7504671,43.0625 19.3090671,42.5025 20.0004171,42.5025 L26.2501571,42.5025 L26.2501571,40.1775 C26.2501571,40.17625 26.2514071,40.175 26.2514071,40.1725 C26.2514071,40.01 26.2839771,39.8475 26.3478471,39.695 C26.4117271,39.5425 26.5056571,39.40625 26.6208871,39.29125 C26.6221371,39.29 26.6233871,39.2875 26.6246371,39.28625 L32.5124171,33.49875 C32.5236971,33.48875 32.5387171,33.485 32.5499971,33.475 C32.6176271,33.4125 32.6965271,33.37375 32.7754371,33.32875 C32.8393071,33.29125 32.8969271,33.24625 32.9658071,33.22125 C33.0397071,33.195 33.1173571,33.19125 33.1950071,33.17875 C33.2764171,33.16625 33.3540671,33.145 33.4354771,33.14875 C33.5056171,33.15125 33.5719971,33.17625 33.6408771,33.19 C33.7323071,33.21 33.8224871,33.22375 33.9089071,33.26375 C33.9226771,33.27 33.9377071,33.26875 33.9514871,33.27625 C36.2209371,34.42125 38.6769971,35.00125 41.2495271,35.00125 C50.2108271,35.00125 57.5001071,27.71125 57.5001071,18.75 C57.5001071,9.79 50.2108271,2.5 41.2495271,2.5 M41.2495291,37.5025026 C38.593079,37.5025026 36.0518488,36.9337525 33.6646787,35.8725025 L28.7500585,40.7025028 L28.7500585,43.752503 C28.7500585,44.442503 28.1902085,45.0037531 27.5001084,45.0037531 L21.2503681,45.0037531 L21.2503681,51.2524995 C21.2503681,51.9437495 20.6905181,52.5037496 20.0004181,52.5037496 L13.7494278,52.5037496 L13.7494278,58.74875 C13.7494278,59.44 13.1908277,60 12.4994777,60 L1.24994816,60 C0.559846427,60 0,59.44 0,58.74875 L0,51.0899995 L0,51.0874995 C0,51.0687495 0.0100197005,51.0537495 0.0112721005,51.0349995 C0.0175344008,50.8899995 0.0400785019,50.7462495 0.0964388947,50.6099995 C0.146537005,50.4899995 0.225441531,50.3874994 0.308103415,50.2887494 C0.330647516,50.2624994 0.339414716,50.2299994 0.364463818,50.2050034 L24.1234883,26.3187518 C23.0651682,23.9350016 22.5003182,21.4000015 22.5003182,18.7500013 C22.5003182,8.41125057 30.9105386,0 41.2495291,0 C51.5885296,0 60,8.41125057 60,18.7500013 C60,29.091252 51.5885296,37.5025026 41.2495291,37.5025026" id="key"></path>
    </defs>
    <g id="Symbols" stroke="none" stroke-width="1" fill="none" fill-rule="evenodd">
        <g id="05_icons/interface/key" transform="translate(-10.000000, -10.000000)">
            <g id="🎨Colour" transform="translate(10.000000, 10.000000)">
                <mask id="mask-2" fill="white">
                    <use xlink:href="#key"></use>
                </mask>
                <use id="Mask" fill="#000000" xlink:href="#key"></use>
            </g>
        </g>
    </g>
</svg>