<?xml version="1.0" encoding="UTF-8"?>
<svg width="28px" height="27px" viewBox="0 0 28 27" version="1.1" xmlns="http://www.w3.org/2000/svg" xmlns:xlink="http://www.w3.org/1999/xlink">
    <!-- Generator: Sketch 49.3 (51167) - http://www.bohemiancoding.com/sketch -->
    <title>iconLinkedin</title>
    <desc>Created with Sketch.</desc>
    <defs></defs>
    <g id="Symbols" stroke="none" stroke-width="1" fill="none" fill-rule="evenodd">
        <g id="00_elements/buttons/btn.socialLinkedin.01" transform="translate(-22.000000, -9.000000)" fill="#FFFFFF" fill-rule="nonzero">
            <path d="M50,25.5536786 L50,36 L43.9986934,36 L43.9986934,26.2533102 C43.9986934,23.8048623 43.1306691,22.1338923 40.958395,22.1338923 C39.3001393,22.1338923 38.3133101,23.2600036 37.8791678,24.3493268 C37.720848,24.7387555 37.6800963,25.2807894 37.6800963,25.8259108 L37.6800963,36 L31.6767717,36 C31.6767717,36 31.7576241,19.4923066 31.6767717,17.7819865 L37.6795105,17.7819865 L37.6795105,20.364317 C37.667337,20.3836307 37.6515181,20.4044555 37.6400607,20.423178 L37.6795105,20.423178 L37.6795105,20.364317 C38.477033,19.1247537 39.9013245,17.3539958 43.0893315,17.3539958 C47.0390568,17.3539302 50,19.957808 50,25.5536786 Z M25.3970385,9 C23.3433089,9 22,10.3593875 22,12.1470285 C22,13.8957134 23.3044451,15.2963562 25.3173578,15.2963562 L25.3574586,15.2963562 C27.4509633,15.2963562 28.7529347,13.8959762 28.7529347,12.1470285 C28.7134849,10.3593875 27.4509633,9 25.3970385,9 Z M22.3565448,36 L28.3575911,36 L28.3575911,17.7819865 L22.3565448,17.7819865 L22.3565448,36 Z" id="iconLinkedin"></path>
        </g>
    </g>
</svg>