<?xml version="1.0" encoding="UTF-8"?>
<svg width="61px" height="61px" viewBox="0 0 61 61" version="1.1" xmlns="http://www.w3.org/2000/svg" xmlns:xlink="http://www.w3.org/1999/xlink">
    <!-- Generator: Sketch 48.2 (47327) - http://www.bohemiancoding.com/sketch -->
    <desc>Created with Sketch.</desc>
    <defs>
        <path d="M52.53019,38.72615 L57.53019,43.72678 C58.01894,44.21406 58.01894,45.00574 57.53019,45.49428 C57.28644,45.73855 56.96644,45.86131 56.64644,45.86131 C56.32644,45.86131 56.00644,45.73855 55.76269,45.49428 L50.76269,40.4924 C50.27394,40.00512 50.27394,39.21343 50.76269,38.72615 C51.25144,38.23761 52.04144,38.23761 52.53019,38.72615 Z M6.645187,23.35599 C6.645187,24.0462 6.086437,24.54977 5.395187,24.54977 L1.645187,24.54977 C0.9539374,24.54977 0.3951874,24.0462 0.3951874,23.35599 C0.3951874,22.66577 0.9539374,22.04445 1.645187,22.04445 L5.395187,22.04445 C6.086437,22.04445 6.645187,22.66577 6.645187,23.35599 Z M9.143937,8.35411 C8.823937,8.35411 8.503937,8.23135 8.260187,7.98708 L3.260187,2.98645 C2.771437,2.49917 2.771437,1.70748 3.260187,1.21895 C3.748937,0.73041 4.538937,0.73041 5.027687,1.21895 L10.02769,6.21957 C10.51644,6.70811 10.51644,7.49979 10.02769,7.98708 C9.783937,8.23135 9.463937,8.35411 9.143937,8.35411 Z M5.028937,45.49428 C4.785187,45.73855 4.465187,45.86131 4.145187,45.86131 C3.825187,45.86131 3.505187,45.73855 3.261437,45.49428 C2.772687,45.00574 2.772687,44.21406 3.261437,43.72678 L8.261437,38.72615 C8.750187,38.23761 9.540187,38.23761 10.02894,38.72615 C10.51769,39.21343 10.51769,40.00512 10.02894,40.4924 L5.028937,45.49428 Z M30.39269,7.10395 C21.43269,7.10395 14.14269,14.69884 14.14269,24.03493 C14.14269,31.16508 18.46894,35.89513 22.09894,38.60715 C22.12019,38.62343 22.13019,38.64598 22.14894,38.66352 C22.16644,38.67855 22.18894,38.68231 22.20519,38.69859 C24.08769,40.46234 24.14394,43.38981 24.14394,43.71926 L24.14394,45.67341 C25.92269,46.50017 31.21144,48.44681 36.64144,45.67968 L36.64144,43.71926 C36.64144,43.38229 36.69769,40.38843 38.60019,38.6798 C38.61519,38.66727 38.63269,38.66352 38.64769,38.65224 C38.66394,38.63846 38.67019,38.61967 38.68769,38.60715 C42.31644,35.89513 46.64269,31.16508 46.64269,24.03493 C46.64269,14.69884 39.35269,7.10395 30.39269,7.10395 Z M30.39269,58.362878 C35.49769,58.362878 36.49269,54.698842 36.64144,53.961024 L36.64144,48.44054 C34.56144,49.29987 32.52769,49.62306 30.67519,49.62306 C27.95894,49.62306 25.65769,48.95914 24.14394,48.37666 L24.14394,53.963529 C24.28769,54.678799 25.27519,58.362878 30.39269,58.362878 Z M40.26769,40.54376 C39.35019,41.37302 39.14144,43.15932 39.14144,43.71926 L39.14144,54.075016 C39.14144,54.138902 39.13644,54.202788 39.12644,54.265421 C38.77394,56.549023 36.49519,60.863191 30.39269,60.863191 C24.29144,60.863191 22.01144,56.549023 21.65894,54.265421 C21.64894,54.202788 21.64394,54.138902 21.64394,54.075016 L21.64394,43.72302 C21.63894,43.12926 21.42519,41.40685 20.50644,40.53249 C14.71144,36.1607 11.64269,30.46109 11.64269,24.03493 C11.64269,13.32091 20.05394,4.60364 30.39269,4.60364 C40.73144,4.60364 49.14269,13.32091 49.14269,24.03493 C49.14269,30.46735 46.07019,36.17072 40.26769,40.54376 Z M52.52894,7.98708 C52.28519,8.23135 51.96519,8.35411 51.64519,8.35411 C51.32519,8.35411 51.00519,8.23135 50.76144,7.98708 C50.27269,7.49979 50.27269,6.70811 50.76144,6.21957 L55.76144,1.21895 C56.25019,0.73041 57.04019,0.73041 57.52894,1.21895 C58.01769,1.70748 58.01769,2.49917 57.52894,2.98645 L52.52894,7.98708 Z M59.14519,24.54977 L55.39519,24.54977 C54.70394,24.54977 54.14519,24.0462 54.14519,23.35599 C54.14519,22.66577 54.70394,22.04445 55.39519,22.04445 L59.14519,22.04445 C59.83644,22.04445 60.39519,22.66577 60.39519,23.35599 C60.39519,24.0462 59.83644,24.54977 59.14519,24.54977 Z" id="path-1"></path>
    </defs>
    <g id="Symbols" stroke="none" stroke-width="1" fill="none" fill-rule="evenodd">
        <g id="05_icons/interface/light-bulb" transform="translate(-10.000000, -9.000000)">
            <g id="🎨Colour" transform="translate(10.000000, 9.000000)">
                <g>
                    <mask id="mask-2" fill="white">
                        <use xlink:href="#path-1"></use>
                    </mask>
                    <use id="Mask" fill="#000000" xlink:href="#path-1"></use>
                </g>
            </g>
        </g>
    </g>
</svg>