<?xml version="1.0" encoding="UTF-8"?>
<svg width="60px" height="57px" viewBox="0 0 60 57" version="1.1" xmlns="http://www.w3.org/2000/svg" xmlns:xlink="http://www.w3.org/1999/xlink">
    <!-- Generator: Sketch 50.2 (55047) - http://www.bohemiancoding.com/sketch -->
    <title>Mask</title>
    <desc>Created with Sketch.</desc>
    <defs>
        <path d="M17.0144251,1.7370855 L2.16590509,1.7370855 L2.16590509,15.6416041 L17.0144251,15.6416041 L17.0144251,1.7370855 Z M17.8393428,17.3786896 L1.34098739,17.3786896 C0.885632815,17.3786896 0.516069552,16.9902576 0.516069552,16.5105778 L0.516069552,0.868980707 C0.516069552,0.388432006 0.885632815,0 1.34098739,0 L17.8393428,0 C18.2946973,0 18.6642605,0.388432006 18.6642605,0.868980707 L18.6642605,16.5105778 C18.6642605,16.9902576 18.2946973,17.3786896 17.8393428,17.3786896 Z M57.8686389,4.42504918 L23.2172045,4.42504918 C22.2104891,4.42504918 21.3934448,3.87544918 21.3934448,3.19675082 C21.3934448,2.51681311 22.2104891,1.96721311 23.2172045,1.96721311 L57.8686389,1.96721311 C58.8753542,1.96721311 59.6923986,2.51681311 59.6923986,3.19675082 C59.6923986,3.87544918 58.8753542,4.42504918 57.8686389,4.42504918 Z M42.7280289,11.5576623 L22.460174,11.5576623 C21.8713395,11.5576623 21.3934448,11.0073757 21.3934448,10.3293584 C21.3934448,9.65011282 21.8713395,9.09982623 22.460174,9.09982623 L42.7280289,9.09982623 C43.3168634,9.09982623 43.7947581,9.65011282 43.7947581,10.3293584 C43.7947581,11.0073757 43.3168634,11.5576623 42.7280289,11.5576623 Z M17.0144251,21.4092167 L2.16590509,21.4092167 L2.16590509,35.3137352 L17.0144251,35.3137352 L17.0144251,21.4092167 Z M17.8393428,37.0508207 L1.34098739,37.0508207 C0.885632815,37.0508207 0.516069552,36.6623887 0.516069552,36.182709 L0.516069552,20.5411119 C0.516069552,20.0605632 0.885632815,19.6721311 1.34098739,19.6721311 L17.8393428,19.6721311 C18.2946973,19.6721311 18.6642605,20.0605632 18.6642605,20.5411119 L18.6642605,36.182709 C18.6642605,36.6623887 18.2946973,37.0508207 17.8393428,37.0508207 Z M57.8686389,24.0971803 L23.2172045,24.0971803 C22.2104891,24.0971803 21.3934448,23.5475803 21.3934448,22.868882 C21.3934448,22.1889443 22.2104891,21.6393443 23.2172045,21.6393443 L57.8686389,21.6393443 C58.8753542,21.6393443 59.6923986,22.1889443 59.6923986,22.868882 C59.6923986,23.5475803 58.8753542,24.0971803 57.8686389,24.0971803 Z M42.7280289,31.2297934 L22.460174,31.2297934 C21.8713395,31.2297934 21.3934448,30.6795069 21.3934448,30.0014895 C21.3934448,29.322244 21.8713395,28.7719574 22.460174,28.7719574 L42.7280289,28.7719574 C43.3168634,28.7719574 43.7947581,29.322244 43.7947581,30.0014895 C43.7947581,30.6795069 43.3168634,31.2297934 42.7280289,31.2297934 Z M17.0144251,41.0813478 L2.16590509,41.0813478 L2.16590509,54.9858664 L17.0144251,54.9858664 L17.0144251,41.0813478 Z M17.8393428,56.7229519 L1.34098739,56.7229519 C0.885632815,56.7229519 0.516069552,56.3345199 0.516069552,55.8548401 L0.516069552,40.213243 C0.516069552,39.7326943 0.885632815,39.3442623 1.34098739,39.3442623 L17.8393428,39.3442623 C18.2946973,39.3442623 18.6642605,39.7326943 18.6642605,40.213243 L18.6642605,55.8548401 C18.6642605,56.3345199 18.2946973,56.7229519 17.8393428,56.7229519 Z M57.8686389,43.7693115 L23.2172045,43.7693115 C22.2104891,43.7693115 21.3934448,43.2197115 21.3934448,42.5410131 C21.3934448,41.8610754 22.2104891,41.3114754 23.2172045,41.3114754 L57.8686389,41.3114754 C58.8753542,41.3114754 59.6923986,41.8610754 59.6923986,42.5410131 C59.6923986,43.2197115 58.8753542,43.7693115 57.8686389,43.7693115 Z M42.7280289,50.9019246 L22.460174,50.9019246 C21.8713395,50.9019246 21.3934448,50.351638 21.3934448,49.6736207 C21.3934448,48.9943751 21.8713395,48.4440885 22.460174,48.4440885 L42.7280289,48.4440885 C43.3168634,48.4440885 43.7947581,48.9943751 43.7947581,49.6736207 C43.7947581,50.351638 43.3168634,50.9019246 42.7280289,50.9019246 Z" id="path-1"></path>
    </defs>
    <g id="Symbols" stroke="none" stroke-width="1" fill="none" fill-rule="evenodd">
        <g id="05_icons/interface/view-list" transform="translate(-10.000000, -11.000000)">
            <g id="🎨Colour" transform="translate(10.000000, 11.000000)">
                <mask id="mask-2" fill="white">
                    <use xlink:href="#path-1"></use>
                </mask>
                <use id="Mask" fill="#000000" xlink:href="#path-1"></use>
            </g>
        </g>
    </g>
</svg>