<?xml version="1.0" encoding="UTF-8"?>
<svg width="45px" height="60px" viewBox="0 0 45 60" version="1.1" xmlns="http://www.w3.org/2000/svg" xmlns:xlink="http://www.w3.org/1999/xlink">
    <!-- Generator: Sketch 49.3 (51167) - http://www.bohemiancoding.com/sketch -->
    <title>Mask</title>
    <desc>Created with Sketch.</desc>
    <defs>
        <path d="M22.097774,0 C9.90284907,0 0,9.90284907 0,22.0978134 C0,26.4565204 1.01250422,29.449293 3.28013832,32.8014463 L21.4318812,59.6344576 C21.5767602,59.8621284 21.8279149,60 22.097774,60 C22.367633,60 22.6187877,59.8621284 22.7636667,59.6344576 L40.9154096,32.8014463 C43.1830831,29.449214 44.1955479,26.4565204 44.1955479,22.0978134 C44.1955479,9.90284907 34.2926988,0 22.097774,0 Z M22.097774,1.57841243 C33.4396616,1.57841243 42.6171355,10.7558863 42.6171355,22.0978134 C42.6171355,26.2218894 41.7381413,28.7285898 39.5836241,31.9135894 L22.097774,57.7600928 L4.6119238,31.9135894 C2.45744609,28.7286688 1.57841243,26.2218894 1.57841243,22.0978134 C1.57841243,10.7558863 10.7558863,1.57841243 22.097774,1.57841243 Z M22.097774,11.8380932 C16.4408543,11.8380932 11.8380932,16.4408622 11.8380932,22.0978134 C11.8380932,27.7546068 16.4408464,32.3575178 22.097774,32.3575178 C27.7547015,32.3575178 32.3574547,27.7546068 32.3574547,22.0978134 C32.3574547,16.4408622 27.7546936,11.8380932 22.097774,11.8380932 Z M22.097774,13.4165056 C26.9016564,13.4165056 30.7790423,17.2939152 30.7790423,22.0978134 C30.7790423,26.9015538 26.9016485,30.7791054 22.097774,30.7791054 C17.2938994,30.7791054 13.4165056,26.9015538 13.4165056,22.0978134 C13.4165056,17.2939152 17.2938915,13.4165056 22.097774,13.4165056 Z" id="path-1"></path>
    </defs>
    <g id="Symbols" stroke="none" stroke-width="1" fill="none" fill-rule="evenodd">
        <g id="05_icons/interface/location" transform="translate(-18.000000, -10.000000)">
            <g id="🎨Icon-Colour" transform="translate(18.000000, 10.000000)">
                <mask id="mask-2" fill="white">
                    <use xlink:href="#path-1"></use>
                </mask>
                <use id="Mask" fill="#000000" fill-rule="nonzero" xlink:href="#path-1"></use>
            </g>
        </g>
    </g>
</svg>