<?xml version="1.0" encoding="utf-8"?>
<!-- Svg Vector Icons : http://www.onlinewebfonts.com/icon -->
<!DOCTYPE svg PUBLIC "-//W3C//DTD SVG 1.1//EN" "http://www.w3.org/Graphics/SVG/1.1/DTD/svg11.dtd">
<svg version="1.1" xmlns="http://www.w3.org/2000/svg" xmlns:xlink="http://www.w3.org/1999/xlink" x="0px" y="0px" viewBox="0 0 1000 1000" enable-background="new 0 0 1000 1000" xml:space="preserve">
<metadata> Svg Vector Icons : http://www.onlinewebfonts.com/icon </metadata>
<g><path d="M500,561.4c-33.8,0-61.3,27.5-61.3,61.3c0,19.4,3.9,36.4,17.9,47.6c10.5,8.4,12.7,20,12.7,33.5l-30.6,102.4h122.5l-30.6-102.4c0-13.5,2.2-25.2,12.7-33.6c14-11.2,17.9-28.2,17.9-47.6C561.3,588.8,533.8,561.4,500,561.4L500,561.4z"/><path d="M806.4,377.3h-61.3V255.1C745.1,120,635.1,10,500,10c-135.1,0-245.1,110-245.1,245.1v122.2h-61.3c-33.8,0-61.3,27.7-61.3,61.6v490.2c0,33.8,27.5,60.9,61.3,60.9h612.7c33.8,0,61.3-27.1,61.3-60.9V438.9C867.6,405,840.2,377.3,806.4,377.3z M316.2,255.1c0-101.3,82.5-183.8,183.8-183.8s183.8,82.5,183.8,183.8v122.2H316.2V255.1z M806.4,928.7H193.6V438.6h61.3h490.2h61.3V928.7z"/></g>
</svg>