<?xml version="1.0" encoding="UTF-8"?>
<svg width="149px" height="18px" viewBox="0 0 149 18" version="1.1" xmlns="http://www.w3.org/2000/svg" xmlns:xlink="http://www.w3.org/1999/xlink">
    <!-- Generator: Sketch 48.2 (47327) - http://www.bohemiancoding.com/sketch -->
    <title>mr_logo_240px</title>
    <desc>Created with Sketch.</desc>
    <defs></defs>
    <g id="images/logo/mr-logo-fullcolor-inverse" stroke="none" stroke-width="1" fill="none" fill-rule="evenodd" transform="translate(-4.000000, -4.000000)">
        <g id="mr_logo_240px" transform="translate(4.000000, 4.000000)" fill-rule="nonzero">
            <path d="M0.128453985,12.7719962 L11.3039507,1.53263955 C11.3681777,1.46877956 11.4324047,1.40491958 11.4966317,1.3410596 C12.0104476,0.830179754 12.5242635,0.255439924 13.2949874,0.255439924 L15.5429322,0.255439924 C16.3778831,0.255439924 17.08438,0.957899716 17.08438,1.78807947 L17.08438,15.7734153 C17.08438,16.6035951 16.3778831,17.3060549 15.5429322,17.3060549 L1.54144782,17.3060549 C0.706496917,17.3060549 0,16.6035951 0,15.7734153 L0,13.0274361 C0,12.9635762 0.0642269925,12.8358562 0.128453985,12.7719962 Z" id="Shape" fill="#2A2733"></path>
            <path d="M17.08438,12.7719962 L5.84465631,1.53263955 C5.78042932,1.46877956 5.71620233,1.40491958 5.65197534,1.3410596 C5.1381594,0.766319773 4.62434346,0.255439924 3.85361955,0.255439924 L1.54144782,0.255439924 C0.706496917,0.255439924 0,0.957899716 0,1.78807947 L0,15.7734153 C0,16.6035951 0.706496917,17.3060549 1.54144782,17.3060549 L15.6071592,17.3060549 C16.4421101,17.3060549 17.148607,16.6035951 17.148607,15.7734153 L17.148607,13.0274361 C17.148607,12.9635762 17.148607,12.8358562 17.08438,12.7719962 Z" id="Shape" fill="#2BB6D6"></path>
            <path d="M8.60641699,4.27861873 L0.128453985,12.7719962 C0.0642269925,12.8358562 0,12.9635762 0,13.0274361 L0,15.7734153 C0,16.6035951 0.706496917,17.3060549 1.54144782,17.3060549 L15.6071592,17.3060549 C16.4421101,17.3060549 17.148607,16.6035951 17.148607,15.7734153 L17.148607,13.0274361 C17.148607,12.9635762 17.08438,12.8358562 17.020153,12.7719962 L8.60641699,4.27861873 Z" id="Shape" fill="#0095D6"></path>
            <g id="Group" transform="translate(22.479447, 1.915799)" fill="#FEFEFF">
                <polygon id="Shape" points="10.3405458 4.27861873 7.00074218 12.7081362 5.90888331 12.7081362 2.5690797 4.27861873 2.5690797 12.7081362 0.0642269925 12.7081362 0.0642269925 1.0217597 3.59671158 1.0217597 6.42269925 8.30179754 9.31291391 1.0217597 12.8453985 1.0217597 12.8453985 12.7081362 10.3405458 12.7081362"></polygon>
                <path d="M18.3046929,4.02317881 C20.8737726,4.02317881 22.5436744,5.93897824 22.5436744,8.68495743 L22.5436744,9.19583728 L16.1852021,9.19583728 C16.3136561,10.281457 17.212834,11.1754967 18.6258278,11.1754967 C19.3965517,11.1754967 20.3599566,10.8561968 20.8737726,10.3453169 L21.8371774,11.8140965 C21.0022265,12.5804163 19.6534597,12.9635762 18.3046929,12.9635762 C15.7356132,12.9635762 13.7445764,11.2393567 13.7445764,8.49337748 C13.8730304,6.00283822 15.6713862,4.02317881 18.3046929,4.02317881 Z M16.1852021,7.66319773 L20.3599566,7.66319773 C20.2957296,6.83301798 19.7176867,5.81125828 18.2404659,5.81125828 C16.891699,5.81125828 16.2494291,6.83301798 16.1852021,7.66319773 Z" id="Shape"></path>
                <path d="M23.8924412,10.6007569 L23.8924412,6.19441816 L22.4794474,6.19441816 L22.4794474,4.27861873 L23.8924412,4.27861873 L23.8924412,1.91579943 L26.1403859,1.91579943 L26.1403859,4.21475875 L27.8745147,4.21475875 L27.8745147,6.13055818 L26.1403859,6.13055818 L26.1403859,9.96215705 C26.1403859,10.4730369 26.3972939,10.9200568 26.9111098,10.9200568 C27.2322448,10.9200568 27.5533798,10.7923368 27.6818338,10.6646168 L28.1314227,12.3249763 C27.8102877,12.6442763 27.1680178,12.8997162 26.2688399,12.8997162 C24.7273921,12.8997162 23.8924412,12.1333964 23.8924412,10.6007569 Z" id="Shape"></path>
                <path d="M28.7094656,4.21475875 L30.9574104,4.21475875 L30.9574104,5.36423841 C31.5354533,4.59791864 32.6273122,4.02317881 33.6549441,4.02317881 L33.6549441,6.19441816 C33.5264901,6.13055818 33.2695821,6.13055818 33.0126741,6.13055818 C32.2419502,6.13055818 31.2785453,6.51371807 30.8931834,7.0884579 L30.8931834,12.7081362 L28.6452386,12.7081362 L28.6452386,4.21475875 L28.7094656,4.21475875 Z" id="Shape"></path>
                <path d="M33.847625,8.4295175 C33.847625,6.00283822 35.5175268,3.95931883 38.3435145,3.95931883 C41.1695022,3.95931883 42.839404,6.00283822 42.839404,8.4295175 C42.839404,10.8561968 41.1695022,12.8997162 38.3435145,12.8997162 C35.5175268,12.8997162 33.847625,10.8561968 33.847625,8.4295175 Z M40.5272322,8.4295175 C40.5272322,7.0884579 39.7565083,6.00283822 38.3435145,6.00283822 C36.9305207,6.00283822 36.1597968,7.15231788 36.1597968,8.4295175 C36.1597968,9.77057711 36.9305207,10.9200568 38.3435145,10.9200568 C39.6922813,10.9200568 40.5272322,9.77057711 40.5272322,8.4295175 Z" id="Shape"></path>
                <path d="M48.1702443,8.49337748 L46.3076616,8.49337748 L46.3076616,12.7081362 L43.8028089,12.7081362 L43.8028089,1.0217597 L49.3263302,1.0217597 C51.7669559,1.0217597 53.3084037,2.61825922 53.3084037,4.78949858 C53.3084037,6.83301798 52.0238639,7.98249763 50.739324,8.23793756 L53.3726307,12.7081362 L50.4824161,12.7081362 L48.1702443,8.49337748 Z M48.9409683,3.12913907 L46.3076616,3.12913907 L46.3076616,6.38599811 L48.9409683,6.38599811 C49.9686001,6.38599811 50.6750971,5.7473983 50.6750971,4.78949858 C50.6750971,3.83159886 49.9686001,3.12913907 48.9409683,3.12913907 Z" id="Shape"></path>
                <path d="M57.7400662,4.02317881 C60.3091459,4.02317881 61.9790477,5.93897824 61.9790477,8.68495743 L61.9790477,9.19583728 L55.6205755,9.19583728 C55.7490295,10.281457 56.6482074,11.1754967 58.0612012,11.1754967 C58.8319251,11.1754967 59.79533,10.8561968 60.3091459,10.3453169 L61.2725508,11.8140965 C60.4375999,12.5804163 59.0888331,12.9635762 57.7400662,12.9635762 C55.1709865,12.9635762 53.1799498,11.2393567 53.1799498,8.49337748 C53.3726307,6.00283822 55.1709865,4.02317881 57.7400662,4.02317881 Z M55.6848025,7.66319773 L59.859557,7.66319773 C59.79533,6.83301798 59.2172871,5.81125828 57.7400662,5.81125828 C56.3912994,5.81125828 55.7490295,6.83301798 55.6848025,7.66319773 Z" id="Shape"></path>
                <path d="M63.1993606,10.026017 C63.8416305,10.6007569 65.0619434,11.1754967 66.1538022,11.1754967 C67.1172071,11.1754967 67.5667961,10.8561968 67.5667961,10.3453169 C67.5667961,9.77057711 66.7960722,9.51513718 65.8326673,9.32355724 C64.3554464,9.06811731 62.4928637,8.68495743 62.4928637,6.70529801 C62.4928637,5.30037843 63.7774035,4.02317881 65.9611213,4.02317881 C67.4383421,4.02317881 68.530201,4.53405866 69.3651519,5.17265847 L68.465974,6.70529801 C67.952158,6.13055818 66.9887531,5.7473983 65.9611213,5.7473983 C65.1261704,5.7473983 64.6123544,6.0666982 64.6123544,6.51371807 C64.6123544,7.02459792 65.2546243,7.21617786 66.2180292,7.40775781 C67.6952501,7.66319773 69.6220598,8.04635762 69.6220598,10.153737 C69.6220598,11.6863765 68.273293,12.8997162 65.9611213,12.8997162 C64.4839004,12.8997162 63.0709066,12.3888363 62.1717287,11.5586566 L63.1993606,10.026017 Z" id="Shape"></path>
                <path d="M70.4570107,1.66035951 C70.4570107,0.894039735 71.0992807,0.319299905 71.8057776,0.319299905 C72.5765015,0.319299905 73.1545444,0.894039735 73.1545444,1.66035951 C73.1545444,2.42667928 72.5765015,3.00141911 71.8057776,3.00141911 C71.0350537,3.00141911 70.4570107,2.3628193 70.4570107,1.66035951 Z M70.6496917,4.21475875 L72.8976364,4.21475875 L72.8976364,12.7081362 L70.6496917,12.7081362 L70.6496917,4.21475875 Z" id="Shape"></path>
                <path d="M80.2837406,11.6225166 C79.6414707,12.4526963 78.6780658,12.8997162 77.6504339,12.8997162 C75.4667161,12.8997162 73.8610413,11.3032167 73.8610413,8.4295175 C73.8610413,5.68353832 75.4667161,3.95931883 77.6504339,3.95931883 C78.6780658,3.95931883 79.5772437,4.40633869 80.2837406,5.23651845 L80.2837406,1.0217597 L82.5316853,1.0217597 L82.5316853,12.7081362 L80.2837406,12.7081362 L80.2837406,11.6225166 Z M80.2837406,6.96073794 C79.8983786,6.38599811 79.1276547,6.00283822 78.3569308,6.00283822 C77.072391,6.00283822 76.1732131,7.02459792 76.1732131,8.49337748 C76.1732131,9.96215705 77.072391,10.9200568 78.3569308,10.9200568 C79.1276547,10.9200568 79.8983786,10.5368969 80.2837406,9.96215705 L80.2837406,6.96073794 Z" id="Shape"></path>
                <path d="M87.9267527,4.02317881 C90.4958324,4.02317881 92.1657342,5.93897824 92.1657342,8.68495743 L92.1657342,9.19583728 L85.8072619,9.19583728 C85.9357159,10.281457 86.8348938,11.1754967 88.2478876,11.1754967 C89.0186116,11.1754967 89.9820164,10.8561968 90.4958324,10.3453169 L91.4592373,11.8140965 C90.6242864,12.5804163 89.2755195,12.9635762 87.9267527,12.9635762 C85.357673,12.9635762 83.3666362,11.2393567 83.3666362,8.49337748 C83.4950902,6.00283822 85.293446,4.02317881 87.9267527,4.02317881 Z M85.8072619,7.66319773 L89.9820164,7.66319773 C89.9177894,6.83301798 89.3397465,5.81125828 87.8625257,5.81125828 C86.5137588,5.81125828 85.9357159,6.83301798 85.8072619,7.66319773 Z" id="Shape"></path>
                <path d="M98.8453414,7.59933775 C98.8453414,6.44985809 98.2030715,6.00283822 97.3038936,6.00283822 C96.4047157,6.00283822 95.7624458,6.51371807 95.3770838,7.02459792 L95.3770838,12.7081362 L93.1291391,12.7081362 L93.1291391,4.21475875 L95.3770838,4.21475875 L95.3770838,5.30037843 C95.9551267,4.66177862 96.9827586,3.95931883 98.3315255,3.95931883 C100.194108,3.95931883 101.093286,4.98107852 101.093286,6.64143803 L101.093286,12.6442763 L98.8453414,12.6442763 L98.8453414,7.59933775 Z" id="Shape"></path>
                <path d="M106.55258,4.02317881 C108.286709,4.02317881 109.378568,4.78949858 109.892384,5.55581835 L108.415163,6.89687796 C108.029801,6.32213813 107.387531,6.00283822 106.616807,6.00283822 C105.268041,6.00283822 104.304636,6.96073794 104.304636,8.4295175 C104.304636,9.89829707 105.268041,10.9200568 106.616807,10.9200568 C107.387531,10.9200568 108.029801,10.6007569 108.415163,10.026017 L109.892384,11.3670766 C109.314341,12.1333964 108.286709,12.8997162 106.55258,12.8997162 C103.919274,12.8997162 102.056691,11.0477767 102.056691,8.4295175 C102.056691,5.87511826 103.919274,4.02317881 106.55258,4.02317881 Z" id="Shape"></path>
                <path d="M114.580955,4.02317881 C117.150034,4.02317881 118.819936,5.93897824 118.819936,8.68495743 L118.819936,9.19583728 L112.461464,9.19583728 C112.589918,10.281457 113.489096,11.1754967 114.90209,11.1754967 C115.672813,11.1754967 116.636218,10.8561968 117.150034,10.3453169 L118.113439,11.8140965 C117.278488,12.5804163 115.929721,12.9635762 114.580955,12.9635762 C112.011875,12.9635762 110.020838,11.2393567 110.020838,8.49337748 C110.149292,6.00283822 111.947648,4.02317881 114.580955,4.02317881 Z M112.461464,7.66319773 L116.636218,7.66319773 C116.571991,6.83301798 115.993948,5.81125828 114.516728,5.81125828 C113.167961,5.81125828 112.589918,6.83301798 112.461464,7.66319773 Z" id="Shape"></path>
                <path d="M119.976022,10.026017 C120.618292,10.6007569 121.838605,11.1754967 122.930464,11.1754967 C123.893868,11.1754967 124.343457,10.8561968 124.343457,10.3453169 C124.343457,9.77057711 123.572734,9.51513718 122.609329,9.32355724 C121.132108,9.06811731 119.269525,8.68495743 119.269525,6.70529801 C119.269525,5.30037843 120.554065,4.02317881 122.737783,4.02317881 C124.215003,4.02317881 125.306862,4.53405866 126.141813,5.17265847 L125.242635,6.70529801 C124.728819,6.13055818 123.765414,5.7473983 122.737783,5.7473983 C121.902832,5.7473983 121.389016,6.0666982 121.389016,6.51371807 C121.389016,7.02459792 122.031286,7.21617786 122.994691,7.40775781 C124.471911,7.66319773 126.398721,8.04635762 126.398721,10.153737 C126.398721,11.6863765 125.049954,12.8997162 122.737783,12.8997162 C121.260562,12.8997162 119.847568,12.3888363 118.94839,11.5586566 L119.976022,10.026017 Z" id="Shape"></path>
            </g>
        </g>
    </g>
</svg>