<?xml version="1.0" encoding="UTF-8"?>
<svg width="60px" height="53px" viewBox="0 0 60 53" version="1.1" xmlns="http://www.w3.org/2000/svg" xmlns:xlink="http://www.w3.org/1999/xlink">
    <!-- Generator: Sketch 49 (51002) - http://www.bohemiancoding.com/sketch -->
    <title>Mask</title>
    <desc>Created with Sketch.</desc>
    <defs>
        <path d="M34.7649766,3.71311325 L34.7649766,14.4871133 C34.8969766,14.7011133 34.9869766,14.9421133 34.9709766,15.2131133 C34.9379766,15.8391133 34.4449766,16.3091133 33.8509766,16.3751133 C33.8059766,16.3801133 33.7719766,16.4051133 33.7229766,16.4051133 C33.7109766,16.4051133 33.7009766,16.3991133 33.6899766,16.3981133 C33.6759766,16.3981133 33.6659766,16.4031133 33.6539766,16.4021133 C33.5129766,16.3941133 19.7469766,15.7501133 10.6519766,24.9441133 C6.31497663,29.3271133 3.69797663,35.2361133 2.82797663,42.5811133 C3.69297663,41.0661133 4.82897663,39.4951133 6.32797663,37.9761133 C12.1919766,32.0361133 21.4079766,29.0251133 33.7229766,29.0251133 C34.4129766,29.0251133 34.9729766,29.5891133 34.9729766,30.2871133 C34.9729766,30.5321133 34.8859766,30.7481133 34.7649766,30.9431133 L34.7649766,41.6301133 L56.8169766,22.7161133 L34.7649766,3.71311325 Z M59.5579766,23.6771133 L34.5359766,45.1291133 C34.3039766,45.3261133 34.0169766,45.4311133 33.7249766,45.4311133 C33.5469766,45.4311133 33.3689766,45.3931133 33.2009766,45.3141133 C32.7569766,45.1071133 32.2419766,44.6511133 32.2419766,44.1571133 L32.2419766,31.5771133 C2.99097663,32.1981133 2.60397663,50.9271133 2.60097663,51.7371133 C2.60097663,52.4201133 2.06097663,52.9801133 1.38497663,52.9991133 C1.37297663,53.0001133 1.36197663,53.0001133 1.34897663,53.0001133 C0.687976632,53.0001133 0.138976632,52.4811133 0.100976632,51.8121133 C-0.601023368,39.3861133 2.35997663,29.7411133 8.89897663,23.1421133 C17.0359766,14.9321133 28.1809766,13.9421133 32.2419766,13.8671133 L32.2419766,1.18411325 C32.2419766,0.692113251 32.7569766,0.322113251 33.2009766,0.116113251 C33.6389766,-0.0898867488 34.1629766,-0.0178867488 34.5359766,0.301113251 L59.5579766,21.7541133 C59.8379766,21.9931133 59.9999766,22.3441133 59.9999766,22.7161133 C59.9999766,23.0851133 59.8379766,23.4371133 59.5579766,23.6771133 Z" id="path-1"></path>
    </defs>
    <g id="Symbols" stroke="none" stroke-width="1" fill="none" fill-rule="evenodd">
        <g id="05_icons/communications/forward" transform="translate(-10.000000, -13.000000)">
            <g id="🎨Colour" transform="translate(10.000000, 13.000000)">
                <mask id="mask-2" fill="white">
                    <use xlink:href="#path-1"></use>
                </mask>
                <use id="Mask" fill="#242424" xlink:href="#path-1"></use>
            </g>
        </g>
    </g>
</svg>