<?xml version="1.0" encoding="UTF-8"?>
<svg width="60px" height="45px" viewBox="0 0 60 45" version="1.1" xmlns="http://www.w3.org/2000/svg" xmlns:xlink="http://www.w3.org/1999/xlink">
    <!-- Generator: Sketch 49 (51002) - http://www.bohemiancoding.com/sketch -->
    <title>Mask</title>
    <desc>Created with Sketch.</desc>
    <defs>
        <path d="M46.74,41.399 L56.711,31.423 C56.734,31.399 56.764,31.392 56.79,31.371 C56.814,31.343 56.822,31.308 56.848,31.282 C57.269,30.864 57.5,30.308 57.5,29.717 C57.5,29.125 57.269,28.569 56.848,28.151 C56.429,27.731 55.874,27.5 55.283,27.5 C54.689,27.5 54.134,27.731 53.715,28.149 C53.691,28.173 53.661,28.18 53.636,28.202 C53.612,28.229 53.603,28.263 53.579,28.29 L43.597,38.274 L42.835,42.166 L46.74,41.399 Z M41.273,37.279 C41.293,37.216 41.318,37.16 41.347,37.099 C41.394,37.003 41.45,36.919 41.519,36.839 C41.539,36.818 41.545,36.791 41.564,36.77 L51.81,26.522 C51.834,26.498 51.865,26.489 51.889,26.468 C51.912,26.442 51.921,26.408 51.946,26.383 C52.838,25.491 54.021,25 55.283,25 C56.543,25 57.725,25.491 58.616,26.383 C59.507,27.27 60,28.456 60,29.717 C60,30.978 59.507,32.163 58.615,33.054 C58.591,33.077 58.56,33.085 58.536,33.106 C58.513,33.131 58.505,33.166 58.48,33.191 L48.236,43.439 C48.203,43.473 48.159,43.487 48.122,43.515 C48.066,43.56 48.01,43.597 47.946,43.633 C47.86,43.679 47.776,43.715 47.683,43.742 C47.65,43.751 47.624,43.774 47.589,43.781 L41.49,44.977 C41.41,44.992 41.33,45.001 41.25,45.001 C40.921,45.001 40.601,44.871 40.366,44.634 C40.072,44.339 39.944,43.919 40.024,43.51 L41.219,37.408 C41.228,37.361 41.259,37.325 41.273,37.279 Z M53.75,2.501 L6.25,2.501 C5.914,2.501 5.592,2.559 5.283,2.643 L30,23.368 L54.717,2.643 C54.408,2.559 54.086,2.501 53.75,2.501 Z M58.75,20 C58.06,20 57.5,19.441 57.5,18.751 L57.5,6.25 C57.5,5.461 57.254,4.733 56.838,4.128 L30.803,25.958 C30.57,26.153 30.285,26.251 30,26.251 C29.714,26.251 29.429,26.153 29.196,25.958 L3.162,4.128 C2.746,4.733 2.5,5.461 2.5,6.25 L2.5,33.751 C2.5,35.818 4.182,37.5 6.25,37.5 L33.75,37.5 C34.439,37.5 35,38.06 35,38.751 C35,39.441 34.439,40 33.75,40 L6.25,40 C2.803,40 0,37.196 0,33.751 L0,6.25 C0,2.804 2.803,0 6.25,0 L53.75,0 C57.196,0 60,2.804 60,6.25 L60,18.751 C60,19.441 59.439,20 58.75,20 Z" id="path-1"></path>
    </defs>
    <g id="Symbols" stroke="none" stroke-width="1" fill="none" fill-rule="evenodd">
        <g id="05_icons/email/create" transform="translate(-10.000000, -17.000000)">
            <g id="🎨Colour" transform="translate(10.000000, 17.000000)">
                <mask id="mask-2" fill="white">
                    <use xlink:href="#path-1"></use>
                </mask>
                <use id="Mask" fill="#242424" xlink:href="#path-1"></use>
            </g>
        </g>
    </g>
</svg>