<?xml version="1.0" encoding="UTF-8"?>
<svg width="60px" height="45px" viewBox="0 0 60 45" version="1.1" xmlns="http://www.w3.org/2000/svg" xmlns:xlink="http://www.w3.org/1999/xlink">
    <!-- Generator: Sketch 49 (51002) - http://www.bohemiancoding.com/sketch -->
    <title>Mask</title>
    <desc>Created with Sketch.</desc>
    <defs>
        <path d="M46.52,36.554 C46.798,36.838 46.923,37.238 46.859,37.627 L46.242,41.42 L49.395,39.675 C49.584,39.571 49.792,39.518 50.001,39.518 C50.208,39.518 50.418,39.571 50.605,39.675 L53.76,41.42 L53.144,37.627 C53.079,37.238 53.206,36.838 53.483,36.554 L56.158,33.814 L52.516,33.256 C52.104,33.194 51.749,32.929 51.573,32.551 L50.001,29.201 L48.43,32.551 C48.252,32.929 47.899,33.194 47.487,33.256 L43.846,33.814 L46.52,36.554 Z M41.062,31.711 L46.45,30.886 L48.87,25.726 C49.075,25.288 49.517,25.007 50.001,25.007 C50.485,25.007 50.926,25.288 51.132,25.726 L53.553,30.886 L58.942,31.711 C59.405,31.781 59.79,32.104 59.937,32.55 C60.086,32.994 59.975,33.484 59.647,33.82 L55.713,37.85 L56.643,43.562 C56.719,44.034 56.52,44.509 56.128,44.785 C55.913,44.936 55.661,45.012 55.409,45.012 C55.201,45.012 54.993,44.961 54.803,44.857 L50.001,42.198 L45.199,44.857 C44.781,45.087 44.266,45.062 43.874,44.785 C43.483,44.509 43.284,44.034 43.36,43.562 L44.291,37.85 L40.357,33.82 C40.03,33.484 39.917,32.993 40.066,32.55 C40.215,32.104 40.599,31.781 41.062,31.711 Z M53.752,2.5 L6.25,2.5 C5.913,2.5 5.593,2.56 5.281,2.643 L30,23.375 L54.72,2.643 C54.408,2.559 54.086,2.5 53.752,2.5 Z M58.752,26.3 C58.062,26.3 57.583,25.75 57.583,25.06 L57.583,6.273 C57.583,5.47 57.311,4.724 56.864,4.109 L30.804,25.965 C30.571,26.159 30.286,26.257 30,26.257 C29.715,26.257 29.43,26.159 29.198,25.965 L3.162,4.129 C2.746,4.733 2.499,5.463 2.499,6.251 L2.499,33.76 C2.499,35.827 4.182,37.511 6.25,37.511 L36.252,37.511 C36.941,37.511 37.501,38.07 37.501,38.762 C37.501,39.451 36.941,40.012 36.252,40.012 L6.25,40.012 C2.804,40.012 0,37.206 0,33.76 L0,6.251 C0,2.804 2.804,0 6.25,0 L53.752,0 C57.199,0 60.002,2.804 60.002,6.251 L60.002,25.049 C60.002,25.739 59.443,26.3 58.752,26.3 Z" id="path-1"></path>
    </defs>
    <g id="Symbols" stroke="none" stroke-width="1" fill="none" fill-rule="evenodd">
        <g id="05_icons/email/important" transform="translate(-10.000000, -17.000000)">
            <g id="🎨Colour" transform="translate(10.000000, 17.000000)">
                <mask id="mask-2" fill="white">
                    <use xlink:href="#path-1"></use>
                </mask>
                <use id="Mask" fill="#242424" xlink:href="#path-1"></use>
            </g>
        </g>
    </g>
</svg>