<?xml version="1.0" encoding="UTF-8"?>
<svg width="60px" height="46px" viewBox="0 0 60 46" version="1.1" xmlns="http://www.w3.org/2000/svg" xmlns:xlink="http://www.w3.org/1999/xlink">
    <!-- Generator: Sketch 49 (51002) - http://www.bohemiancoding.com/sketch -->
    <title>Mask</title>
    <desc>Created with Sketch.</desc>
    <defs>
        <path d="M3.1121803,19.8661171 L22.0741803,36.3741171 C22.5931803,36.8251171 22.6451803,37.6111171 22.1921803,38.1301171 C21.9441803,38.4091171 21.5981803,38.5531171 21.2501803,38.5531171 C20.9571803,38.5531171 20.6641803,38.4531171 20.4261803,38.2461171 L0.427180297,20.8341171 C0.162180297,20.6021171 0.0071802971,20.2701171 0.000180297101,19.9201171 C-0.0058197029,19.5691171 0.138180297,19.2311171 0.395180297,18.9911171 L20.3951803,0.338117075 C20.8991803,-0.133882925 21.6901803,-0.107882925 22.1631803,0.392117075 C22.6341803,0.894117075 22.6091803,1.68111708 22.1051803,2.15211708 L3.1121803,19.8661171 Z M48.5691803,19.6631171 C40.6821803,12.6251171 30.2411803,13.6621171 30.1351803,13.6731171 C30.1121803,13.6751171 30.0921803,13.6661171 30.0701803,13.6671171 C30.0461803,13.6691171 30.0251803,13.6801171 30.0001803,13.6801171 C29.9331803,13.6801171 29.8761803,13.6521171 29.8121803,13.6421171 C29.7341803,13.6301171 29.6561803,13.6221171 29.5831803,13.5961171 C29.5021803,13.5671171 29.4351803,13.5251171 29.3621803,13.4811171 C29.2961803,13.4411171 29.2311803,13.4051171 29.1731803,13.3551171 C29.1131803,13.3011171 29.0691803,13.2371171 29.0181803,13.1721171 C28.9711803,13.1101171 28.9231803,13.0501171 28.8871803,12.9781171 C28.8511803,12.9041171 28.8331803,12.8231171 28.8121803,12.7421171 C28.7971803,12.6831171 28.7651803,12.6341171 28.7581803,12.5711171 C28.7561803,12.5481171 28.7651803,12.5271171 28.7631803,12.5041171 C28.7621803,12.4801171 28.7511803,12.4621171 28.7511803,12.4361171 L28.7511803,4.11311708 L11.8621803,19.8661171 L28.7511803,34.5691171 L28.7511803,26.1171171 C28.7511803,26.0431171 28.7791803,25.9791171 28.7921803,25.9101171 C28.8071803,25.8271171 28.8121803,25.7451171 28.8411803,25.6691171 C28.8711803,25.5931171 28.9201803,25.5321171 28.9621803,25.4651171 C29.0051803,25.3971171 29.0401803,25.3261171 29.0961803,25.2681171 C29.1501803,25.2101171 29.2181803,25.1721171 29.2841803,25.1251171 C29.3501803,25.0781171 29.4071803,25.0271171 29.4811803,24.9931171 C29.5571803,24.9581171 29.6421803,24.9471171 29.7261803,24.9281171 C29.7931803,24.9131171 29.8531803,24.8801171 29.9241803,24.8761171 C29.9501803,24.8751171 29.9721803,24.8761171 29.9971803,24.8731171 L30.0001803,24.8731171 L30.0031803,24.8731171 C39.9291803,24.2901171 47.6811803,26.4021171 53.0281803,31.1501171 C54.5711803,32.5191171 55.7741803,33.9871171 56.7101803,35.4331171 C55.4611803,28.6701171 52.7381803,23.3861171 48.5691803,19.6631171 Z M58.7841803,46.0141171 L58.7501803,46.0141171 C58.0881803,46.0141171 57.5371803,45.5001171 57.5021803,44.8381171 C57.4991803,44.7721171 57.0421803,38.0231171 51.3291803,32.9751171 C46.6961803,28.8801171 39.9281803,27.0021171 31.2501803,27.3261171 L31.2501803,37.3091171 C31.2501803,37.7981171 30.9641803,38.2391171 30.5171803,38.4411171 C30.3511803,38.5161171 30.1761803,38.5531171 30.0001803,38.5531171 C29.7031803,38.5531171 29.4091803,38.4461171 29.1771803,38.2461171 L9.1761803,20.8341171 C8.9111803,20.6021171 8.7561803,20.2701171 8.7501803,19.9201171 C8.7441803,19.5691171 8.8871803,19.2311171 9.1451803,18.9911171 L29.1461803,0.338117075 C29.5091803,-0.00188292497 30.0421803,-0.093882925 30.4971803,0.103117075 C30.9551803,0.300117075 31.2501803,0.748117075 31.2501803,1.24411708 L31.2501803,11.1251171 C34.5741803,11.0531171 43.2121803,11.5401171 50.2381803,17.8121171 C56.7161803,23.5951171 60.0001803,32.6651171 60.0001803,44.7711171 C60.0001803,45.4451171 59.4611803,45.9961171 58.7841803,46.0141171 Z" id="path-1"></path>
    </defs>
    <g id="Symbols" stroke="none" stroke-width="1" fill="none" fill-rule="evenodd">
        <g id="05_icons/communications/email-reply-all" transform="translate(-10.000000, -17.000000)">
            <g id="🎨Colour" transform="translate(10.000000, 17.000000)">
                <mask id="mask-2" fill="white">
                    <use xlink:href="#path-1"></use>
                </mask>
                <use id="Mask" fill="#242424" xlink:href="#path-1"></use>
            </g>
        </g>
    </g>
</svg>