<?xml version="1.0" encoding="UTF-8"?>
<svg width="60px" height="58px" viewBox="0 0 60 58" version="1.1" xmlns="http://www.w3.org/2000/svg" xmlns:xlink="http://www.w3.org/1999/xlink">
    <!-- Generator: Sketch 49.3 (51167) - http://www.bohemiancoding.com/sketch -->
    <title>Mask</title>
    <desc>Created with Sketch.</desc>
    <defs>
        <path d="M58.9090909,49.5967762 L41.0909091,31.7785944 C40.8181818,31.5058672 40.3636364,31.4149581 40,31.5058672 L35.7272727,32.7785944 L31.7272727,28.7785944 L37.8181818,22.5967762 C41.8181818,23.7785944 46.0909091,22.6876853 49.0909091,19.6876853 C52,16.7785944 53.0909091,12.5058672 52,8.41495806 C51.9090909,8.0513217 51.6363636,7.77859443 51.3636364,7.68768534 C51.0909091,7.59677624 50.7272727,7.59677624 50.3636364,7.68768534 L43.5454545,11.2331399 L41,8.41495806 L44.7272727,2.0513217 C44.9090909,1.77859443 44.9090909,1.41495806 44.8181818,1.0513217 C44.7272727,0.687685335 44.4545455,0.505867153 44.0909091,0.414958062 C40.0909091,-0.675951029 35.7272727,0.414958062 32.8181818,3.32404897 C29.8181818,6.32404897 28.7272727,10.5967762 29.9090909,14.5967762 L23.8181818,20.7785944 L12.9090909,9.86950352 L13.8181818,8.96041261 C14.2727273,8.50586715 14.2727273,7.77859443 13.8181818,7.32404897 L8.72727273,2.23313988 C8.27272727,1.77859443 7.54545455,1.77859443 7.09090909,2.23313988 L3.72727273,5.59677624 C3.27272727,6.0513217 3.27272727,6.77859443 3.72727273,7.23313988 L8.81818182,12.324049 C9,12.5058672 9.36363636,12.6876853 9.63636364,12.6876853 C9.90909091,12.6876853 10.1818182,12.5967762 10.4545455,12.324049 L11.3636364,11.4149581 L22.2727273,22.324049 L0.363636364,44.2331399 C0.0909090909,44.5058672 0,44.7785944 0,45.1422308 L0.454545455,50.9604126 C0.545454545,51.5058672 0.909090909,51.9604126 1.45454545,51.9604126 L7.27272727,52.4149581 C7.27272727,52.4149581 7.36363636,52.4149581 7.36363636,52.4149581 C7.63636364,52.4149581 7.90909091,52.324049 8.18181818,52.0513217 L30.0909091,30.1422308 L34.0909091,34.1422308 L32.8181818,38.4149581 C32.7272727,38.7785944 32.8181818,39.2331399 33.0909091,39.5058672 L51,57.4149581 C51.1818182,57.5967762 51.5454545,57.7785944 51.8181818,57.7785944 C52.0909091,57.7785944 52.3636364,57.6876853 52.6363636,57.4149581 L58.9090909,51.1422308 C59.3636364,50.7785944 59.3636364,50.0513217 58.9090909,49.5967762 Z M6.09090909,6.41495806 L7.81818182,4.68768534 L11.2727273,8.14223079 L9.63636364,9.96041261 L6.09090909,6.41495806 Z M7,50.2331399 L2.63636364,49.8695035 L2.27272727,45.5058672 L32,15.7785944 C32.2727273,15.5058672 32.4545455,15.0513217 32.2727273,14.5967762 C31.0909091,11.2331399 31.9090909,7.50586715 34.4545455,4.96041261 C36.4545455,2.96041261 39.1818182,2.0513217 42,2.32404897 L38.6363636,8.0513217 C38.3636364,8.50586715 38.4545455,9.0513217 38.8181818,9.41495806 L42.5454545,13.5058672 C42.9090909,13.8695035 43.4545455,13.9604126 43.9090909,13.7785944 L50.0909091,10.5058672 C50.4545455,13.324049 49.4545455,16.1422308 47.4545455,18.1422308 C44.9090909,20.6876853 41.2727273,21.5058672 37.8181818,20.324049 C37.3636364,20.1422308 36.9090909,20.324049 36.6363636,20.5967762 L7,50.2331399 Z M51.8181818,55.1422308 L35.1818182,38.5058672 L36.2727273,34.8695035 L39.9090909,33.7785944 L56.5454545,50.4149581 L51.8181818,55.1422308 Z" id="path-1"></path>
    </defs>
    <g id="Symbols" stroke="none" stroke-width="1" fill="none" fill-rule="evenodd">
        <g id="05_icons/property/maintenance" transform="translate(-10.000000, -11.000000)">
            <g id="🎨Colour" transform="translate(10.000000, 11.000000)">
                <mask id="mask-2" fill="white">
                    <use xlink:href="#path-1"></use>
                </mask>
                <use id="Mask" fill="#000000" fill-rule="nonzero" xlink:href="#path-1"></use>
            </g>
        </g>
    </g>
</svg>