<?xml version="1.0" encoding="UTF-8"?>
<svg width="60px" height="60px" viewBox="0 0 60 60" version="1.1" xmlns="http://www.w3.org/2000/svg" xmlns:xlink="http://www.w3.org/1999/xlink">
    <!-- Generator: Sketch 49.3 (51167) - http://www.bohemiancoding.com/sketch -->
    <title>Mask</title>
    <desc>Created with Sketch.</desc>
    <defs>
        <path d="M26.9826788,29.5 C26.4399603,29.5 26,28.9403559 26,28.25 C26,27.5596441 26.4399603,27 26.9826788,27 L55.0173212,27 C55.5600397,27 56,27.5596441 56,28.25 C56,28.9403559 55.5600397,29.5 55.0173212,29.5 L26.9826788,29.5 Z M26.9826788,41.5 C26.4399603,41.5 26,40.9403559 26,40.25 C26,39.5596441 26.4399603,39 26.9826788,39 L55.0173212,39 C55.5600397,39 56,39.5596441 56,40.25 C56,40.9403559 55.5600397,41.5 55.0173212,41.5 L26.9826788,41.5 Z M26.9826788,53.5 C26.4399603,53.5 26,52.9403559 26,52.25 C26,51.5596441 26.4399603,51 26.9826788,51 L55.0173212,51 C55.5600397,51 56,51.5596441 56,52.25 C56,52.9403559 55.5600397,53.5 55.0173212,53.5 L26.9826788,53.5 Z M40.0000007,12.50131 C24.8362507,12.50131 12.4999997,24.83781 12.4999997,40.00063 C12.4999997,55.16594 24.8362507,67.502451 40.0000007,67.502451 C55.1637507,67.502451 67.5000007,55.16594 67.5000007,40.00063 C67.5000007,24.83781 55.1637507,12.50131 40.0000007,12.50131 M10,40.00063 C10,23.45903 23.4587507,10 40.0000007,10 C56.5412507,10 70.0000007,23.45903 70.0000007,40.00063 C70.0000007,56.54347 56.5412507,70.0012526 40.0000007,70.0012526 C23.4587507,70.0012526 10,56.54347 10,40.00063 Z" id="path-1"></path>
    </defs>
    <g id="Symbols" stroke="none" stroke-width="1" fill="none" fill-rule="evenodd">
        <g id="05_icons/interface/menu02" transform="translate(-10.000000, -10.000000)">
            <mask id="mask-2" fill="white">
                <use xlink:href="#path-1"></use>
            </mask>
            <use id="Mask" fill="#000000" xlink:href="#path-1"></use>
        </g>
    </g>
</svg>