<?xml version="1.0" encoding="UTF-8"?>
<svg width="60px" height="42px" viewBox="0 0 60 42" version="1.1" xmlns="http://www.w3.org/2000/svg" xmlns:xlink="http://www.w3.org/1999/xlink">
    <!-- Generator: Sketch 49.3 (51167) - http://www.bohemiancoding.com/sketch -->
    <title>Mask</title>
    <desc>Created with Sketch.</desc>
    <defs>
        <path d="M2.67045666,39.4775149 L58.0235337,39.4775149 C59.1158449,39.4775149 60,40.0345167 60,40.7211072 C60,41.4052064 59.1158449,41.9622038 58.0235337,41.9622038 L2.67045666,41.9622038 C1.57814538,41.9622038 0.693990322,41.4052064 0.693990322,40.7211072 C0.693990322,40.0345167 1.57814538,39.4775149 2.67045666,39.4775149 Z M58.0235337,3.32247718 L2.51582476,3.32247718 C1.42351348,3.32247718 0.693990322,2.8975641 0.693990322,2.21097274 C0.693990322,1.52562486 1.42351348,0.830311757 2.51582476,0.830311757 L58.0235337,0.830311757 C59.1158449,0.830311757 60,1.52562486 60,2.21097274 C60,2.8975641 59.1158449,3.32247718 58.0235337,3.32247718 Z M58.0235337,23.2610179 L2.51582476,23.2610179 C1.42351348,23.2610179 0.693990322,22.7738005 0.693990322,22.0872091 C0.693990322,21.4006178 1.42351348,20.767609 2.51582476,20.767609 L58.0235337,20.767609 C59.1158449,20.767609 60,21.4006178 60,22.0872091 C60,22.7738005 59.1158449,23.2610179 58.0235337,23.2610179 Z" id="path-1"></path>
    </defs>
    <g id="Symbols" stroke="none" stroke-width="1" fill="none" fill-rule="evenodd">
        <g id="05_icons/interface/menu" transform="translate(-10.000000, -18.000000)">
            <g id="🎨Colour" transform="translate(10.000000, 18.000000)">
                <mask id="mask-2" fill="white">
                    <use xlink:href="#path-1"></use>
                </mask>
                <use id="Mask" fill="#000000" xlink:href="#path-1"></use>
            </g>
        </g>
    </g>
</svg>