<?xml version="1.0" encoding="UTF-8"?>
<svg width="60px" height="60px" viewBox="0 0 60 60" version="1.1" xmlns="http://www.w3.org/2000/svg" xmlns:xlink="http://www.w3.org/1999/xlink">
    <!-- Generator: Sketch 49 (51002) - http://www.bohemiancoding.com/sketch -->
    <title>Mask</title>
    <desc>Created with Sketch.</desc>
    <defs>
        <path d="M52.4999969,57.501193 C55.2574969,57.501193 57.4999969,55.258646 57.4999969,52.501088 C57.4999969,49.74353 55.2574969,47.50098 52.4999969,47.50098 C49.7424969,47.50098 47.4999969,49.74353 47.4999969,52.501088 C47.4999969,55.258646 49.7424969,57.501193 52.4999969,57.501193 M52.4999969,45.00093 C56.6362469,45.00093 59.9999969,48.366 59.9999969,52.501088 C59.9999969,56.637425 56.6362469,60.0012446 52.4999969,60.0012446 C48.3637469,60.0012446 44.9999969,56.637425 44.9999969,52.501088 C44.9999969,48.366 48.3637469,45.00093 52.4999969,45.00093 M7.4999999,2.50005 C4.7424999,2.50005 2.4999999,4.74384 2.4999999,7.50015 C2.4999999,10.25771 4.7424999,12.50151 7.4999999,12.50151 C10.2574999,12.50151 12.4999969,10.25771 12.4999969,7.50015 C12.4999969,4.74384 10.2574999,2.50005 7.4999999,2.50005 M7.4999999,15.00031 C3.3637499,15.00031 0,11.63524 0,7.50015 C0,3.36382 3.3637499,0 7.4999999,0 C11.6362469,0 14.9999969,3.36382 14.9999969,7.50015 C14.9999969,11.63524 11.6362469,15.00031 7.4999999,15.00031 M7.4999999,25.00052 C4.7424999,25.00052 2.4999999,27.24431 2.4999999,30.00062 C2.4999999,32.75818 4.7424999,35.00072 7.4999999,35.00072 C10.2574999,35.00072 12.4999969,32.75818 12.4999969,30.00062 C12.4999969,27.24431 10.2574999,25.00052 7.4999999,25.00052 M7.4999999,37.50203 C3.3637499,37.50203 0,34.13696 0,30.00062 C0,25.86428 3.3637499,22.50046 7.4999999,22.50046 C11.6362469,22.50046 14.9999969,25.86428 14.9999969,30.00062 C14.9999969,34.13696 11.6362469,37.50203 7.4999999,37.50203 M7.4999999,47.50098 C4.7424999,47.50098 2.4999999,49.74353 2.4999999,52.501088 C2.4999999,55.258646 4.7424999,57.501193 7.4999999,57.501193 C10.2574999,57.501193 12.4999969,55.258646 12.4999969,52.501088 C12.4999969,49.74353 10.2574999,47.50098 7.4999999,47.50098 M7.4999999,60.0012446 C3.3637499,60.0012446 0,56.637425 0,52.501088 C0,48.366 3.3637499,45.00093 7.4999999,45.00093 C11.6362469,45.00093 14.9999969,48.366 14.9999969,52.501088 C14.9999969,56.637425 11.6362469,60.0012446 7.4999999,60.0012446 M29.9999969,2.50005 C27.2424969,2.50005 24.9999969,4.74384 24.9999969,7.50015 C24.9999969,10.25771 27.2424969,12.50151 29.9999969,12.50151 C32.7574969,12.50151 34.9999969,10.25771 34.9999969,7.50015 C34.9999969,4.74384 32.7574969,2.50005 29.9999969,2.50005 M29.9999969,15.00031 C25.8637469,15.00031 22.4999969,11.63524 22.4999969,7.50015 C22.4999969,3.36382 25.8637469,0 29.9999969,0 C34.1362469,0 37.4999969,3.36382 37.4999969,7.50015 C37.4999969,11.63524 34.1362469,15.00031 29.9999969,15.00031 M29.9999969,25.00052 C27.2424969,25.00052 24.9999969,27.24431 24.9999969,30.00062 C24.9999969,32.75818 27.2424969,35.00072 29.9999969,35.00072 C32.7574969,35.00072 34.9999969,32.75818 34.9999969,30.00062 C34.9999969,27.24431 32.7574969,25.00052 29.9999969,25.00052 M29.9999969,37.50203 C25.8637469,37.50203 22.4999969,34.13696 22.4999969,30.00062 C22.4999969,25.86428 25.8637469,22.50046 29.9999969,22.50046 C34.1362469,22.50046 37.4999969,25.86428 37.4999969,30.00062 C37.4999969,34.13696 34.1362469,37.50203 29.9999969,37.50203 M29.9999969,47.50098 C27.2424969,47.50098 24.9999969,49.74353 24.9999969,52.501088 C24.9999969,55.258646 27.2424969,57.501193 29.9999969,57.501193 C32.7574969,57.501193 34.9999969,55.258646 34.9999969,52.501088 C34.9999969,49.74353 32.7574969,47.50098 29.9999969,47.50098 M29.9999969,60.0012446 C25.8637469,60.0012446 22.4999969,56.637425 22.4999969,52.501088 C22.4999969,48.366 25.8637469,45.00093 29.9999969,45.00093 C34.1362469,45.00093 37.4999969,48.366 37.4999969,52.501088 C37.4999969,56.637425 34.1362469,60.0012446 29.9999969,60.0012446 M52.4999969,2.50005 C49.7424969,2.50005 47.4999969,4.74384 47.4999969,7.50015 C47.4999969,10.25771 49.7424969,12.50151 52.4999969,12.50151 C55.2574969,12.50151 57.4999969,10.25771 57.4999969,7.50015 C57.4999969,4.74384 55.2574969,2.50005 52.4999969,2.50005 M52.4999969,15.00031 C48.3637469,15.00031 44.9999969,11.63524 44.9999969,7.50015 C44.9999969,3.36382 48.3637469,0 52.4999969,0 C56.6362469,0 59.9999969,3.36382 59.9999969,7.50015 C59.9999969,11.63524 56.6362469,15.00031 52.4999969,15.00031 M52.4999969,25.00052 C49.7424969,25.00052 47.4999969,27.24431 47.4999969,30.00062 C47.4999969,32.75818 49.7424969,35.00072 52.4999969,35.00072 C55.2574969,35.00072 57.4999969,32.75818 57.4999969,30.00062 C57.4999969,27.24431 55.2574969,25.00052 52.4999969,25.00052 M52.4999969,37.50203 C48.3637469,37.50203 44.9999969,34.13696 44.9999969,30.00062 C44.9999969,25.86428 48.3637469,22.50046 52.4999969,22.50046 C56.6362469,22.50046 59.9999969,25.86428 59.9999969,30.00062 C59.9999969,34.13696 56.6362469,37.50203 52.4999969,37.50203" id="path-1"></path>
    </defs>
    <g id="Symbols" stroke="none" stroke-width="1" fill="none" fill-rule="evenodd">
        <g id="05_icons/interface/menu01" transform="translate(-10.000000, -10.000000)">
            <g id="🎨Icon-Colour" transform="translate(10.000000, 10.000000)">
                <mask id="mask-2" fill="white">
                    <use xlink:href="#path-1"></use>
                </mask>
                <use id="Mask" fill="#000000" xlink:href="#path-1"></use>
            </g>
        </g>
    </g>
</svg>