<?xml version="1.0" encoding="UTF-8"?>
<svg width="47px" height="42px" viewBox="0 0 47 42" version="1.1" xmlns="http://www.w3.org/2000/svg" xmlns:xlink="http://www.w3.org/1999/xlink">
    <!-- Generator: Sketch 49.3 (51167) - http://www.bohemiancoding.com/sketch -->
    <title>Mask</title>
    <desc>Created with Sketch.</desc>
    <defs>
        <path d="M34.0995944,4.545 C34.1079277,4.53333333 34.1229277,4.53 34.1312611,4.52 C34.2445944,4.40333333 34.3829277,4.31833333 34.5245944,4.23833333 C34.5762611,4.20833333 34.6162611,4.16333333 34.6712611,4.14 C34.8745944,4.05166667 35.0979277,4 35.3329277,4 C35.5695944,4 35.7912611,4.05166667 35.9945944,4.14 C36.0479277,4.16333333 36.0879277,4.20833333 36.1395944,4.23666667 C36.2829277,4.31833333 36.4212611,4.40333333 36.5345944,4.52 C36.5429277,4.53 36.5579277,4.53333333 36.5662611,4.545 L53.2329277,22.8783333 C53.8512611,23.56 53.8012611,24.6133333 53.1212611,25.2333333 C52.4412611,25.85 51.3845944,25.8016667 50.7662611,25.1216667 L36.9995944,9.97666667 L36.9995944,62.3316667 C36.9995944,63.2533333 36.2545944,64 35.3329277,64 C34.4112611,64 33.6662611,63.2533333 33.6662611,62.3316667 L33.6662611,9.97666667 L19.8995944,25.1216667 C19.2779277,25.8016667 18.2212611,25.85 17.5445944,25.2333333 C16.8645944,24.6133333 16.8145944,23.56 17.4329277,22.8783333 L34.0995944,4.545 Z" id="path-1"></path>
    </defs>
    <g id="Symbols" stroke="none" stroke-width="1" fill="none" fill-rule="evenodd">
        <g id="05_icons/interface/minimise" transform="translate(-17.000000, -19.000000)">
            <g id="🎨Colour" transform="translate(5.000000, 6.000000)">
                <mask id="mask-2" fill="white">
                    <use xlink:href="#path-1"></use>
                </mask>
                <use id="Mask" fill="#2A2733" transform="translate(35.332928, 34.000000) rotate(-132.000000) translate(-35.332928, -34.000000) " xlink:href="#path-1"></use>
            </g>
        </g>
    </g>
</svg>