<?xml version="1.0" encoding="UTF-8"?>
<svg width="60px" height="60px" viewBox="0 0 60 60" version="1.1" xmlns="http://www.w3.org/2000/svg" xmlns:xlink="http://www.w3.org/1999/xlink">
    <!-- Generator: Sketch 48.2 (47327) - http://www.bohemiancoding.com/sketch -->
    <desc>Created with Sketch.</desc>
    <defs>
        <path d="M30,59.6052632 C46.3421053,59.6052632 59.6052632,46.3421053 59.6052632,30 C59.6052632,13.6578947 46.3421053,0.394736842 30,0.394736842 C13.6578947,0.394736842 0.394736842,13.6578947 0.394736842,30 C0.394736842,46.3421053 13.6578947,59.6052632 30,59.6052632 Z M30,2.76315789 C45,2.76315789 57.2368421,15 57.2368421,30 C57.2368421,45 45,57.2368421 30,57.2368421 C15,57.2368421 2.76315789,45 2.76315789,30 C2.76315789,15 15,2.76315789 30,2.76315789 Z M16.5789474,31.5789474 L43.4210526,31.5789474 C44.0526316,31.5789474 44.6052632,31.0263158 44.6052632,30.3947368 C44.6052632,29.7631579 44.0526316,29.2105263 43.4210526,29.2105263 L16.5789474,29.2105263 C15.9473684,29.2105263 15.3947368,29.7631579 15.3947368,30.3947368 C15.3947368,31.0263158 15.9473684,31.5789474 16.5789474,31.5789474 Z" id="minus"></path>
    </defs>
    <g id="Symbols" stroke="none" stroke-width="1" fill="none" fill-rule="evenodd">
        <g id="05_icons/interface/minus" transform="translate(-10.000000, -10.000000)">
            <g id="🎨Colour" transform="translate(10.000000, 10.000000)">
                <mask id="mask-2" fill="white">
                    <use xlink:href="#minus"></use>
                </mask>
                <use id="Mask" fill="#000000" fill-rule="nonzero" xlink:href="#minus"></use>
            </g>
        </g>
    </g>
</svg>