<?xml version="1.0" encoding="UTF-8"?>
<svg width="51px" height="58px" viewBox="0 0 51 58" version="1.1" xmlns="http://www.w3.org/2000/svg" xmlns:xlink="http://www.w3.org/1999/xlink">
    <!-- Generator: Sketch 49.3 (51167) - http://www.bohemiancoding.com/sketch -->
    <title>Mask</title>
    <desc>Created with Sketch.</desc>
    <defs>
        <path d="M25.39731,35.7126819 C28.0347819,35.7126819 30.181666,37.8610902 30.181666,40.502252 C30.181666,42.7261975 28.6503906,44.5856754 26.5928035,45.1215739 L26.5939946,47.6872067 C26.5939946,48.3489922 26.0593538,48.8848991 25.3985011,48.8860985 C24.7388395,48.8860985 24.2030076,48.3489922 24.2030076,47.6884061 L24.2018166,45.291822 L21.8108297,45.291822 C21.1499687,45.291822 20.6153362,44.7559152 20.6153362,44.0941297 C20.6153362,43.4335352 21.1499687,42.8964373 21.8108297,42.8964373 L25.39731,42.8964373 C26.7166415,42.8964373 27.789488,41.8222331 27.789488,40.502252 C27.789488,39.1810714 26.7166415,38.1080667 25.39731,38.1080667 C22.7598381,38.1080667 20.6153362,35.9584506 20.6153362,33.3172972 C20.6153362,31.0933517 22.1454206,29.2338739 24.2030076,28.6991664 L24.2030076,26.1323425 C24.2030076,25.4717564 24.7376485,24.9358495 25.3985011,24.9358495 C26.0593538,24.9358495 26.5939946,25.4717564 26.5939946,26.1323425 L26.5939946,28.5289266 L28.9861726,28.5289266 C29.6470335,28.5289266 30.181666,29.0660328 30.181666,29.7278184 C30.181666,30.3884045 29.6470335,30.9243113 28.9861726,30.9243113 L25.39731,30.9243113 C24.0791696,30.9243113 23.0063231,31.9973161 23.0063231,33.3172972 C23.0063231,34.6384778 24.0791696,35.7126819 25.39731,35.7126819 M32.7036374,17.7257157 C32.5797993,17.7389091 32.4595345,17.7293139 32.3368959,17.7041349 L18.5934729,17.7041349 C18.510123,17.7257157 18.426773,17.742499 18.3410409,17.7448978 C15.9798141,19.7038925 2.90201555,31.2132417 2.90201555,40.7660033 C2.90201555,51.2071487 7.73281245,56.0710499 18.1028934,56.0710499 L32.9191629,56.0710499 C43.2892405,56.0710499 48.1200399,51.2071487 48.1200399,40.7660033 C48.1200399,31.1748776 35.021994,19.6271559 32.7036374,17.7257157 M37.1998375,3.68910612 C37.1057763,3.46251117 37.0236091,3.40496497 36.7830877,3.40496497 C35.5590086,3.40496497 34.8695786,3.84735194 33.9955826,4.40483964 C33.0227527,5.02706162 31.8105926,5.80034968 29.8327823,5.80034968 C28.6206221,5.80034968 27.7311422,5.14096296 26.9464515,4.55949559 C26.1117525,3.93967241 25.3913547,3.40496497 24.2268207,3.40496497 C23.0229898,3.40496497 22.2406812,4.2573801 21.4119376,5.15894563 C20.6189094,6.02094763 19.7199009,6.99804204 18.3970046,6.99804204 C17.0693356,6.99804204 15.9059927,5.83271682 14.7819385,4.70456466 C14.4437744,4.36767491 13.9400931,3.86174473 13.5781159,3.57880298 C12.8386692,5.75838735 16.1060343,11.5718117 18.9066329,15.3555101 L32.0404026,15.3555101 C36.0281572,11.1617919 37.9321378,5.45986172 37.1998375,3.68910612 M50.5110268,40.7660033 C50.5110268,52.5103433 44.5930881,58.4652351 32.9191629,58.4652351 L18.1028934,58.4652351 C6.42896154,58.4652351 0.5110268,52.5103433 0.5110268,40.7660033 C0.5110268,30.541861 13.1792155,19.209948 16.6359108,16.3086331 C14.3866196,13.1963072 9.20574708,5.28482431 11.8634572,1.76128744 C12.2052029,1.30690647 12.688636,1.03595872 13.2232768,0.998793983 C14.3997131,0.916068711 15.3523031,1.88956492 16.4739668,3.0117284 C17.0121808,3.55242451 18.0147792,4.55589739 18.4065248,4.60385672 C18.6720586,4.60385672 19.2150369,4.01160308 19.6520349,3.53684064 C20.6320029,2.47103229 21.9739564,1.01077965 24.2268207,1.01077965 C26.1808096,1.01077965 27.4465596,1.94950992 28.3705639,2.63407571 C29.0147499,3.11363574 29.4291259,3.40496497 29.8327823,3.40496497 C31.1128251,3.40496497 31.8177307,2.9553816 32.7095927,2.38590822 C33.7193291,1.74210537 34.8624321,1.01077965 36.7830877,1.01077965 C37.9892925,1.01077965 38.9466468,1.6533831 39.40984,2.77314779 C40.6351019,5.73560708 38.2631638,11.948265 34.356377,16.3937489 C37.9952479,19.4401328 50.5110268,30.6461672 50.5110268,40.7660033" id="path-1"></path>
    </defs>
    <g id="Symbols" stroke="none" stroke-width="1" fill="none" fill-rule="evenodd">
        <g id="05_icons/interface/money" transform="translate(-15.000000, -12.000000)">
            <g id="🎨Colour" transform="translate(15.000000, 11.000000)">
                <mask id="mask-2" fill="white">
                    <use xlink:href="#path-1"></use>
                </mask>
                <use id="Mask" fill="#000000" xlink:href="#path-1"></use>
            </g>
        </g>
    </g>
</svg>