<?xml version="1.0" encoding="UTF-8"?>
<svg width="60px" height="60px" viewBox="0 0 60 60" version="1.1" xmlns="http://www.w3.org/2000/svg" xmlns:xlink="http://www.w3.org/1999/xlink">
    <!-- Generator: Sketch 49.3 (51167) - http://www.bohemiancoding.com/sketch -->
    <title>Mask</title>
    <desc>Created with Sketch.</desc>
    <defs>
        <path d="M11.2500014,18.75 C11.9400014,18.75 12.5000014,19.31125 12.5000014,20.00125 C12.5000014,20.69125 11.9400014,21.25 11.2500014,21.25 C4.7987504,21.25 2.5000004,26.80375 2.5000004,32 C2.5000004,32.0225 2.4887504,32.04125 2.4875004,32.06375 C2.4887504,32.085 2.5000004,32.10375 2.5000004,32.12625 L2.5000004,38.75 L5.0000004,38.75 C5.0500004,38.75 5.0912504,38.7725 5.1400004,38.77875 C5.2287504,38.78875 5.3125004,38.8025 5.3950004,38.83 C5.4662504,38.85375 5.5287504,38.885 5.5937504,38.92125 C5.6687504,38.9625 5.7387504,39.00625 5.8037504,39.06375 C5.8612504,39.1125 5.9087504,39.16625 5.9562504,39.225 C6.0087504,39.28875 6.0550004,39.35375 6.0937504,39.4275 C6.1325004,39.50125 6.1575004,39.5775 6.1812504,39.6575 C6.1950004,39.70625 6.2250004,39.745 6.2325004,39.795 L8.5587504,53.751246 L13.9162514,53.751246 L15.0125014,46.0925 C15.1112514,45.41 15.7512514,44.93875 16.4262514,45.0325 C17.1112514,45.13125 17.5850014,45.765 17.4875014,46.4475 L16.2375014,55.177496 C16.1487514,55.793746 15.6225014,56.249996 15.0000014,56.249996 L7.5000004,56.249996 C6.8887504,56.249996 6.3675004,55.808746 6.2675004,55.206246 L3.9412504,41.25 L1.25,41.25 C0.56,41.25 0,40.69125 0,40.00125 L0,32.12625 C0,32.10375 0.01125,32.085 0.0125,32.06375 C0.01125,32.04125 0,32.0225 0,32 C0,23.95125 4.4162504,18.75 11.2500014,18.75 Z M11.2512514,6.25125 C8.4937504,6.25125 6.2500004,8.49375 6.2500004,11.25125 C6.2500004,14.00875 8.4937504,16.25 11.2512514,16.25 C14.0075014,16.25 16.2500014,14.00875 16.2500014,11.25125 C16.2500014,8.49375 14.0075014,6.25125 11.2512514,6.25125 Z M11.2512514,18.75 C7.1150004,18.75 3.7500004,15.38625 3.7500004,11.25125 C3.7500004,7.115 7.1150004,3.75125 11.2512514,3.75125 C15.3862514,3.75125 18.7500014,7.115 18.7500014,11.25125 C18.7500014,15.38625 15.3862514,18.75 11.2512514,18.75 Z M30.0000014,17.50125 C24.4862514,17.50125 20.0000014,21.98625 20.0000014,27.50125 C20.0000014,27.52125 19.9887514,27.53875 19.9875014,27.55875 C19.9887514,27.58 20.0000014,27.59625 20.0000014,27.6175 L20.0000014,37.50125 L23.7500014,37.50125 C23.8087514,37.50125 23.8600014,37.52625 23.9162514,37.535 C24.0000014,37.54625 24.0787514,37.555 24.1562514,37.5825 C24.2375014,37.61125 24.3075014,37.6525 24.3812514,37.69625 C24.4450014,37.735 24.5062514,37.77 24.5625014,37.81875 C24.6275014,37.875 24.6787514,37.94125 24.7300014,38.01 C24.7762514,38.07 24.8200014,38.12625 24.8550014,38.19375 C24.8937514,38.27125 24.9137514,38.3525 24.9362514,38.4375 C24.9512514,38.49125 24.9825014,38.5375 24.9900014,38.59625 L27.3537514,57.501246 L32.6462514,57.501246 L35.0100014,38.59625 C35.0175014,38.5375 35.0487514,38.49 35.0637514,38.435 C35.0862514,38.3525 35.1050014,38.27125 35.1437514,38.19625 C35.1800014,38.125 35.2262514,38.065 35.2750014,38.00125 C35.3237514,37.9375 35.3712514,37.87625 35.4312514,37.8225 C35.4912514,37.76875 35.5587514,37.73 35.6287514,37.69 C35.6975014,37.65 35.7625014,37.61125 35.8375014,37.58375 C35.9175014,37.55625 35.9987514,37.54625 36.0850014,37.53375 C36.1412514,37.52625 36.1912514,37.50125 36.2500014,37.50125 L40.0000014,37.50125 L40.0000014,27.6175 C40.0000014,27.59625 40.0112514,27.58 40.0112514,27.55875 C40.0112514,27.53875 40.0000014,27.52125 40.0000014,27.50125 C40.0000014,21.98625 35.5137514,17.50125 30.0000014,17.50125 Z M35.0000014,7.5 C35.0000014,4.74375 32.7562514,2.50125 30.0000014,2.50125 C27.2425014,2.50125 25.0000014,4.74375 25.0000014,7.5 C25.0000014,10.25875 27.2425014,12.5025 30.0000014,12.5025 C32.7562514,12.5025 35.0000014,10.25875 35.0000014,7.5 Z M42.5000014,27.50125 C42.5000014,27.52125 42.4887514,27.53875 42.4875014,27.55875 C42.4887514,27.58 42.5000014,27.59625 42.5000014,27.6175 L42.5000014,38.75 C42.5000014,39.44 41.9400014,40.00125 41.2500014,40.00125 L37.3537514,40.00125 L34.9900014,58.906246 C34.9125014,59.5312463 34.3800014,60.0012463 33.7500014,60.0012463 L26.2500014,60.0012463 C25.6200014,60.0012463 25.0875014,59.5312463 25.0100014,58.906246 L22.6462514,40.00125 L18.7500014,40.00125 C18.0600014,40.00125 17.5000014,39.44 17.5000014,38.75 L17.5000014,27.6175 C17.5000014,27.59625 17.5112514,27.58 17.5112514,27.55875 C17.5112514,27.53875 17.5000014,27.52125 17.5000014,27.50125 C17.5000014,20.61 23.1037514,15.005 29.9937514,15.00125 C25.8612514,14.99875 22.5000014,11.635 22.5000014,7.5 C22.5000014,3.36375 25.8637514,0 30.0000014,0 C34.1362514,0 37.5000014,3.36375 37.5000014,7.5 C37.5000014,11.635 34.1387514,14.99875 30.0062514,15.00125 C36.8962514,15.005 42.5000014,20.61 42.5000014,27.50125 Z M48.7487514,6.25125 C45.9925014,6.25125 43.7500014,8.49375 43.7500014,11.25125 C43.7500014,14.00875 45.9925014,16.25 48.7487514,16.25 C51.5062514,16.25 53.7500014,14.00875 53.7500014,11.25125 C53.7500014,8.49375 51.5062514,6.25125 48.7487514,6.25125 Z M48.7487514,18.75 C44.6137514,18.75 41.2500014,15.38625 41.2500014,11.25125 C41.2500014,7.115 44.6137514,3.75125 48.7487514,3.75125 C52.8850014,3.75125 56.2500014,7.115 56.2500014,11.25125 C56.2500014,15.38625 52.8850014,18.75 48.7487514,18.75 Z M60.0000014,40.00125 C60.0000014,40.69125 59.4400014,41.25 58.7500014,41.25 L56.0587514,41.25 L53.7325014,55.206246 C53.6325014,55.808746 53.1112514,56.249996 52.5000014,56.249996 L45.0000014,56.249996 C44.3775014,56.249996 43.8512514,55.793746 43.7625014,55.177496 L42.5125014,46.4475 C42.4150014,45.765 42.8887514,45.13125 43.5725014,45.0325 C44.2550014,44.93875 44.8900014,45.40875 44.9875014,46.0925 L46.0837514,53.751246 L51.4412514,53.751246 L53.7675014,39.795 C53.7750014,39.745 53.8050014,39.70625 53.8187514,39.65875 C53.8425014,39.5775 53.8687514,39.5 53.9075014,39.42625 C53.9462514,39.35375 53.9900014,39.2925 54.0400014,39.23 C54.0900014,39.1675 54.1400014,39.11125 54.2012514,39.05875 C54.2625014,39.00625 54.3287514,38.965 54.3987514,38.92625 C54.4675014,38.8875 54.5350014,38.85375 54.6112514,38.82875 C54.6912514,38.8025 54.7712514,38.78875 54.8550014,38.77875 C54.9050014,38.77375 54.9487514,38.75 55.0000014,38.75 L57.5000014,38.75 L57.5000014,32.12625 C57.5000014,32.10375 57.5112514,32.085 57.5125014,32.06375 C57.5112514,32.04125 57.5000014,32.0225 57.5000014,32 C57.5000014,26.80375 55.2012514,21.25 48.7500014,21.25 C48.0600014,21.25 47.5000014,20.69125 47.5000014,20.00125 C47.5000014,19.31125 48.0600014,18.75 48.7500014,18.75 C55.5837514,18.75 60.0000014,23.95125 60.0000014,32 C60.0000014,32.0225 59.9887514,32.04125 59.9875014,32.06375 C59.9887514,32.085 60.0000014,32.10375 60.0000014,32.12625 L60.0000014,40.00125 Z" id="path-1"></path>
    </defs>
    <g id="Symbols" stroke="none" stroke-width="1" fill="none" fill-rule="evenodd">
        <g id="05_icons/user/people" transform="translate(-10.000000, -10.000000)">
            <g id="🎨Colour" transform="translate(10.000000, 10.000000)">
                <mask id="mask-2" fill="white">
                    <use xlink:href="#path-1"></use>
                </mask>
                <use id="Mask" fill="#000000" xlink:href="#path-1"></use>
            </g>
        </g>
    </g>
</svg>