<?xml version="1.0" encoding="UTF-8"?>
<svg width="60px" height="60px" viewBox="0 0 60 60" version="1.1" xmlns="http://www.w3.org/2000/svg" xmlns:xlink="http://www.w3.org/1999/xlink">
    <!-- Generator: Sketch 49.3 (51167) - http://www.bohemiancoding.com/sketch -->
    <title>Mask</title>
    <desc>Created with Sketch.</desc>
    <defs>
        <path d="M56.2852693,7.414004 L39.1832693,7.414004 L42.1392693,10.368004 C42.6282693,10.856004 42.6282693,11.646004 42.1392693,12.135004 C41.8942693,12.379004 41.5752693,12.502004 41.2562693,12.502004 C40.9352693,12.502004 40.6152693,12.379004 40.3712693,12.135004 L35.3692693,7.135004 C35.1282693,6.893004 35.0082693,6.577004 35.0052693,6.261004 C35.0042693,6.258004 35.0032693,6.255004 35.0032693,6.251004 L35.0032693,6.250004 C35.0032693,6.088004 35.0352693,5.927004 35.0982693,5.775004 C35.1872693,5.546004 35.3442693,5.358004 35.5312693,5.205004 L40.3712693,0.366004003 C40.8592693,-0.121995997 41.6512693,-0.121995997 42.1392693,0.366004003 C42.6282693,0.855004003 42.6282693,1.645004 42.1392693,2.134004 L39.3642693,4.909004 L56.2852693,4.909004 C56.9752693,4.909004 57.5132693,5.561004 57.5132693,6.251004 C57.5132693,6.941004 56.9752693,7.414004 56.2852693,7.414004 Z M57.4192693,21.728004 C57.4082693,21.755004 57.3852693,21.772004 57.3732693,21.797004 C57.3122693,21.919004 57.2462693,22.038004 57.1462693,22.138004 L52.1442693,27.139004 C51.8992693,27.382004 51.5802693,27.504004 51.2602693,27.504004 C50.9392693,27.504004 50.6202693,27.382004 50.3752693,27.139004 C49.8872693,26.650004 49.8872693,25.860004 50.3752693,25.370004 L53.3002693,22.446004 L36.2662693,22.446004 C35.5772693,22.446004 35.0152693,21.884004 35.0152693,21.193004 C35.0152693,20.503004 35.5772693,19.941004 36.2662693,19.941004 L53.1812693,19.941004 L50.3752693,17.136004 C49.8872693,16.647004 49.8872693,15.857004 50.3752693,15.368004 C50.8642693,14.880004 51.6552693,14.880004 52.1442693,15.368004 L56.9902693,20.214004 C57.3002693,20.458004 57.5132693,20.834004 57.5132693,21.253004 C57.5132693,21.261004 57.5092693,21.266004 57.5092693,21.273004 C57.5072693,21.428004 57.4782693,21.581004 57.4192693,21.728004 Z M44.9552693,39.079004 L36.9782693,44.775004 C36.4802693,45.131004 35.8012693,45.073004 35.3692693,44.643004 L15.3602693,24.641004 C14.9272693,24.208004 14.8712693,23.527004 15.2252693,23.031004 L20.9222693,15.055004 L11.0552693,3.026004 L3.14426929,9.744004 C0.320269295,12.847004 6.71626929,25.601004 20.4132693,39.300004 C32.3692693,51.255004 43.4892693,57.511004 48.2952693,57.511004 C49.1852693,57.511004 49.8422693,57.306004 50.2462693,56.902004 L56.9892693,48.913004 L44.9552693,39.079004 Z M59.7202693,49.554004 L52.1392693,58.541004 C52.1132693,58.571004 52.0332693,58.652004 52.0042693,58.681004 C51.1252693,59.560004 49.8722693,60.012004 48.2952693,60.012004 C41.8892693,60.012004 29.9752693,52.398004 18.6442693,41.067004 C6.43926929,28.861004 -3.76773071,13.125004 1.35326929,8.001004 C1.37726929,7.977004 1.45126929,7.901004 1.47526929,7.880004 L10.4062693,0.296004003 C10.6612693,0.0790040032 10.9922693,-0.0219959968 11.3282693,0.00400400323 C11.6622693,0.0340040032 11.9692693,0.198004003 12.1812693,0.456004003 L23.4642693,14.208004 C23.8232693,14.645004 23.8432693,15.269004 23.5142693,15.729004 L17.8772693,23.621004 L36.3882693,42.124004 L44.2802693,36.489004 C44.7412693,36.163004 45.3622693,36.183004 45.7992693,36.539004 L59.5552693,47.782004 C59.8142693,47.993004 59.9762693,48.300004 60.0092693,48.634004 C60.0392693,48.967004 59.9352693,49.299004 59.7202693,49.554004 Z" id="path-1"></path>
    </defs>
    <g id="Symbols" stroke="none" stroke-width="1" fill="none" fill-rule="evenodd">
        <g id="05_icons/communications/phone-transfer" transform="translate(-10.000000, -10.000000)">
            <g id="🎨Colour" transform="translate(10.000000, 10.000000)">
                <mask id="mask-2" fill="white">
                    <use xlink:href="#path-1"></use>
                </mask>
                <use id="Mask" fill="#242424" xlink:href="#path-1"></use>
            </g>
        </g>
    </g>
</svg>