<?xml version="1.0" encoding="UTF-8"?>
<svg width="60px" height="60px" viewBox="0 0 60 60" version="1.1" xmlns="http://www.w3.org/2000/svg" xmlns:xlink="http://www.w3.org/1999/xlink">
    <!-- Generator: Sketch 49 (51002) - http://www.bohemiancoding.com/sketch -->
    <title>Mask</title>
    <desc>Created with Sketch.</desc>
    <defs>
        <path d="M3.14598662,9.74597756 C0.299986619,12.8059776 6.69398662,25.5789776 20.4159866,39.2979776 C32.3719866,51.2539776 43.4909866,57.5089776 48.2959866,57.5089776 C49.1869866,57.5089776 49.8429866,57.3059776 50.2469866,56.9009776 L56.9889866,48.9129776 L44.9559866,39.0789776 L36.9789866,44.7749776 C36.4819866,45.1279776 35.7999866,45.0729776 35.3689866,44.6419776 L15.3609866,24.6399776 C14.9279866,24.2079776 14.8719866,23.5259776 15.2269866,23.0299776 L20.9229866,15.0569776 L11.0569866,3.02797756 L3.14598662,9.74597756 Z M48.2959866,60.0099776 C41.8949866,60.0099776 29.9789866,52.3959776 18.6469866,41.0649776 C6.43998662,28.8609776 -3.76901338,13.1239776 1.35398662,8.00197756 C1.37798662,7.97697756 1.45398662,7.90197756 1.47898662,7.88097756 L10.4079866,0.298977563 C10.6639866,0.081977563 10.9949866,-0.030022437 11.3299866,0.00697756304 C11.6629866,0.035977563 11.9719866,0.199977563 12.1839866,0.458977563 L23.4649866,14.2109776 C23.8219866,14.6469776 23.8429866,15.2709776 23.5139866,15.7299776 L17.8779866,23.6199776 L36.3879866,42.1239776 L44.2799866,36.4899776 C44.7379866,36.1609776 45.3619866,36.1809776 45.7979866,36.5389776 L59.5549866,47.7789776 C59.8139866,47.9909776 59.9769866,48.2969776 60.0089866,48.6309776 C60.0399866,48.9649776 59.9359866,49.2959776 59.7189866,49.5529776 L52.1409866,58.5379776 C52.1159866,58.5699776 52.0349866,58.6509776 52.0059866,58.6789776 C51.1249866,59.5589776 49.8739866,60.0099776 48.2959866,60.0099776 Z" id="path-1"></path>
    </defs>
    <g id="Symbols" stroke="none" stroke-width="1" fill="none" fill-rule="evenodd">
        <g id="05_icons/communications/phone" transform="translate(-10.000000, -10.000000)">
            <g id="🎨Colour" transform="translate(10.000000, 10.000000)">
                <mask id="mask-2" fill="white">
                    <use xlink:href="#path-1"></use>
                </mask>
                <use id="Mask" fill="#242424" xlink:href="#path-1"></use>
            </g>
        </g>
    </g>
</svg>