<?xml version="1.0" encoding="UTF-8"?>
<svg width="60px" height="60px" viewBox="0 0 60 60" version="1.1" xmlns="http://www.w3.org/2000/svg" xmlns:xlink="http://www.w3.org/1999/xlink">
    <!-- Generator: Sketch 49 (51002) - http://www.bohemiancoding.com/sketch -->
    <title>Mask</title>
    <desc>Created with Sketch.</desc>
    <defs>
        <path d="M42.635426,54.983 C44.281426,56.621 46.467426,57.524 48.796426,57.524 C50.703426,57.524 52.496426,56.891 53.992426,55.773 L41.842426,43.681 C40.718426,45.171 40.083426,46.957 40.083426,48.852 C40.085426,51.168 40.991426,53.346 42.635426,54.983 Z M54.960426,42.72 C53.314426,41.083 51.125426,40.181 48.796426,40.181 C46.890426,40.181 45.097426,40.813 43.601426,41.929 L55.753426,54.021 C56.874426,52.533 57.509426,50.747 57.510426,48.852 C57.510426,46.534 56.604426,44.356 54.960426,42.72 Z M48.796426,37.704 C51.791426,37.704 54.604426,38.864 56.719426,40.968 C58.834426,43.072 59.999426,45.873 59.999426,48.852 C59.998426,51.832 58.834426,54.632 56.719426,56.735 C54.604426,58.84 51.791426,60 48.796426,60 C45.802426,60 42.989426,58.84 40.875426,56.734 C38.759426,54.629 37.594426,51.832 37.594426,48.852 C37.594426,45.874 38.759426,43.075 40.875426,40.968 C42.989426,38.864 45.802426,37.704 48.796426,37.704 Z M50.043426,3.128 C49.547426,2.671 48.888426,2.478 48.010426,2.478 C42.388426,2.478 31.126426,9.776 20.617426,20.231 C14.188426,26.628 8.84642604,33.361 5.57842604,39.19 C2.11142604,45.375 2.01942604,48.716 3.09042604,49.781 L11.046426,56.458 L20.835426,44.542 L15.164426,36.642 C14.811426,36.149 14.866426,35.474 15.297426,35.046 L35.212426,15.227 C35.641426,14.798 36.321426,14.742 36.815426,15.095 L44.755426,20.738 L56.731426,10.961 L50.043426,3.128 Z M45.596426,23.254 C45.162426,23.609 44.542426,23.63 44.084426,23.306 L36.227426,17.72 L17.802426,36.055 L23.414426,43.872 C23.741426,44.327 23.720426,44.943 23.365426,45.377 L12.173426,58.999 C11.962426,59.256 11.656426,59.419 11.324426,59.449 C11.286426,59.453 11.247426,59.455 11.208426,59.455 C10.916426,59.455 10.632426,59.352 10.407426,59.163 L1.46042604,51.655 C1.43742604,51.636 1.36242604,51.563 1.34042604,51.543 C-0.988573963,49.227 -0.271573963,44.541 3.40542604,37.984 C6.78142604,31.961 12.269426,25.034 18.857426,18.48 C29.968426,7.426 41.683426,0 48.010426,0 C49.608426,0 50.876426,0.454 51.778426,1.354 C51.802426,1.376 51.878426,1.451 51.899426,1.475 L59.448426,10.317 C59.663426,10.57 59.769426,10.9 59.739426,11.231 C59.708426,11.561 59.548426,11.867 59.288426,12.077 L45.596426,23.254 Z" id="path-1"></path>
    </defs>
    <g id="Symbols" stroke="none" stroke-width="1" fill="none" fill-rule="evenodd">
        <g id="05_icons/communications/phone-end" transform="translate(-10.000000, -10.000000)">
            <g id="🎨Colour" transform="translate(10.000000, 10.000000)">
                <mask id="mask-2" fill="white">
                    <use xlink:href="#path-1"></use>
                </mask>
                <use id="Mask" fill="#242424" xlink:href="#path-1"></use>
            </g>
        </g>
    </g>
</svg>