<?xml version="1.0" encoding="UTF-8"?>
<svg width="60px" height="60px" viewBox="0 0 60 60" version="1.1" xmlns="http://www.w3.org/2000/svg" xmlns:xlink="http://www.w3.org/1999/xlink">
    <!-- Generator: Sketch 49 (51002) - http://www.bohemiancoding.com/sketch -->
    <title>Mask</title>
    <desc>Created with Sketch.</desc>
    <defs>
        <path d="M24.653,44.149 C36.614,54.79 47.744,59.411 50.249,56.901 L56.992,48.913 L44.962,39.079 L36.986,44.774 C36.49,45.128 35.811,45.073 35.379,44.645 L30.381,39.688 C29.89,39.202 29.886,38.41 30.373,37.92 C30.859,37.431 31.652,37.426 32.141,37.913 L36.391,42.127 L44.286,36.489 C44.746,36.163 45.366,36.182 45.804,36.538 L59.558,47.78 C59.817,47.992 59.981,48.3 60.011,48.633 C60.042,48.966 59.938,49.298 59.723,49.554 L52.144,58.54 C52.116,58.569 52.037,58.651 52.009,58.68 C51.093,59.594 49.794,60.011 48.216,60.011 C42.019,60.011 31.516,53.6 22.991,46.017 C22.475,45.558 22.429,44.768 22.889,44.253 C23.347,43.738 24.137,43.691 24.653,44.149 Z M15.369,24.64 C14.938,24.208 14.882,23.526 15.236,23.03 L20.932,15.056 L11.066,3.026 L3.166,9.736 C3.153,9.751 3.139,9.764 3.134,9.771 C0.869,12.034 4.845,21.859 15.217,33.779 C15.373,33.959 18.226,37.197 19.547,38.696 L24.482,33.762 L15.369,24.64 Z M59.65,2.134 L2.134,59.643 C1.89,59.887 1.57,60.01 1.25,60.01 C0.93,60.01 0.611,59.887 0.366,59.643 C-0.122,59.154 -0.122,58.364 0.366,57.876 L17.775,40.468 C16.507,39.028 13.493,35.608 13.331,35.423 C4.21,24.938 -3.028,12.395 1.366,8.002 C1.39,7.978 1.464,7.902 1.49,7.879 L10.417,0.297 C10.672,0.08 11.002,-0.02 11.339,0.005 C11.672,0.036 11.979,0.199 12.194,0.457 L23.473,14.209 C23.83,14.648 23.851,15.27 23.524,15.73 L17.887,23.622 L26.25,31.994 L57.883,0.366 C58.371,-0.122 59.161,-0.122 59.65,0.366 C60.139,0.854 60.139,1.646 59.65,2.134 Z" id="path-1"></path>
    </defs>
    <g id="Symbols" stroke="none" stroke-width="1" fill="none" fill-rule="evenodd">
        <g id="05_icons/communications/phone-mute" transform="translate(-10.000000, -10.000000)">
            <g id="🎨Colour" transform="translate(10.000000, 10.000000)">
                <mask id="mask-2" fill="white">
                    <use xlink:href="#path-1"></use>
                </mask>
                <use id="Mask" fill="#242424" xlink:href="#path-1"></use>
            </g>
        </g>
    </g>
</svg>