<?xml version="1.0" encoding="UTF-8"?>
<svg width="60px" height="46px" viewBox="0 0 60 46" version="1.1" xmlns="http://www.w3.org/2000/svg" xmlns:xlink="http://www.w3.org/1999/xlink">
    <!-- Generator: Sketch 49.3 (51167) - http://www.bohemiancoding.com/sketch -->
    <title>Mask</title>
    <desc>Created with Sketch.</desc>
    <defs>
        <path d="M37.1786667,2 C39.7086667,2 41.7673333,4.05866667 41.7673333,6.58866667 L41.7673333,7.33 L41.7673333,9.33 L43.7673333,9.33 L53.5593333,9.33 C56.0086667,9.33 58.0006667,11.322 58.0006667,13.7713333 L58.0006667,39.0406667 C58.0006667,41.49 56.0086667,43.482 53.5593333,43.482 L37.1793333,43.482 L22.1293333,43.482 L6.44133333,43.482 C3.992,43.4813333 2,41.4893333 2,39.04 L2,13.7706667 C2,11.322 3.992,9.32933333 6.44133333,9.32933333 L15.5413333,9.32933333 L17.5413333,9.32933333 L17.5413333,7.32933333 L17.5413333,6.588 C17.5413333,4.058 19.6,1.99933333 22.13,1.99933333 L37.1786667,1.99933333 L37.1786667,2 Z M29.656,38.394 C36.438,38.394 41.9546667,32.8773333 41.9546667,26.0953333 C41.9546667,19.3133333 36.438,13.796 29.656,13.796 C22.8693333,13.796 17.3486667,19.3133333 17.3486667,26.0953333 C17.3486667,32.8773333 22.87,38.394 29.656,38.394 Z M37.1786667,0 L22.1293333,0 C18.5053333,0 15.5406667,2.96466667 15.5406667,6.58866667 L15.5406667,7.33 L6.44066667,7.33 C2.89866667,7.33 0,10.228 0,13.7706667 L0,39.04 C0,42.5826667 2.89866667,45.4813333 6.44133333,45.4813333 L22.13,45.4813333 L37.1786667,45.4813333 L53.5586667,45.4813333 C57.1013333,45.4813333 60,42.5826667 60,39.04 L60,13.7706667 C60,10.228 57.1013333,7.32933333 53.5586667,7.32933333 L43.7666667,7.32933333 L43.7666667,6.588 C43.7666667,2.96466667 40.802,0 37.1786667,0 Z M29.656,36.394 C23.9613333,36.394 19.3486667,31.7853333 19.3486667,26.0953333 C19.3486667,20.4046667 23.9613333,15.796 29.656,15.796 C35.342,15.796 39.9546667,20.4046667 39.9546667,26.0953333 C39.9553333,31.7853333 35.3426667,36.394 29.656,36.394 Z" id="path-1"></path>
    </defs>
    <g id="Symbols" stroke="none" stroke-width="1" fill="none" fill-rule="evenodd">
        <g id="05_icons/interface/photos" transform="translate(-10.000000, -17.000000)">
            <g id="🎨Colour" transform="translate(10.000000, 17.000000)">
                <mask id="mask-2" fill="white">
                    <use xlink:href="#path-1"></use>
                </mask>
                <use id="Mask" fill="#000000" fill-rule="nonzero" xlink:href="#path-1"></use>
            </g>
        </g>
    </g>
</svg>