<?xml version="1.0" encoding="UTF-8"?>
<svg width="61px" height="61px" viewBox="0 0 61 61" version="1.1" xmlns="http://www.w3.org/2000/svg" xmlns:xlink="http://www.w3.org/1999/xlink">
    <!-- Generator: Sketch 49.3 (51167) - http://www.bohemiancoding.com/sketch -->
    <title>Mask</title>
    <desc>Created with Sketch.</desc>
    <defs>
        <path d="M59.74786,24.82364 C57.96331,25.37809 56.10602,25.65845 54.22867,25.65845 C52.38267,25.65845 50.56176,25.38935 48.80605,24.85618 L36.02953,37.63241 C38.42983,43.04304 38.78598,49.09823 37.01899,54.786714 C36.88857,55.204745 36.54997,55.525152 36.12484,55.629034 C36.02451,55.655317 35.92544,55.666582 35.82511,55.666582 C35.49654,55.666582 35.17801,55.536416 34.94099,55.299866 L21.34555,41.70509 L2.748864,60.3012215 C2.504319,60.5452817 2.184529,60.6679375 1.8647402,60.6679375 C1.5449508,60.6679375 1.2251615,60.5452817 0.98061676,60.3012215 C0.4927813,59.813101 0.4927813,59.020844 0.98061676,58.532724 L19.57605,39.93659 L5.981871,26.34307 C5.672114,26.03267 5.546707,25.5846 5.652049,25.15906 C5.757391,24.73352 6.077181,24.39559 6.494788,24.26543 C12.07166,22.53072 18.28937,22.88993 23.6355,25.25168 L36.42456,12.46543 C35.35609,8.91717 35.36612,5.06603 36.46469,1.53529 C36.59511,1.11601 36.93371,0.7981 37.35885,0.69297 C37.78398,0.58909 38.23419,0.713 38.54269,1.02214 L60.26078,22.74474 C60.57053,23.05389 60.69594,23.50446 60.5906,23.93 C60.48526,24.35429 60.16672,24.69347 59.74786,24.82364 Z" id="path-1"></path>
    </defs>
    <g id="Symbols" stroke="none" stroke-width="1" fill="none" fill-rule="evenodd">
        <g id="05_icons/interface/pin-on" transform="translate(-9.000000, -9.000000)">
            <g id="🎨Icon-Colour" transform="translate(9.000000, 9.000000)">
                <mask id="mask-2" fill="white">
                    <use xlink:href="#path-1"></use>
                </mask>
                <use id="Mask" fill="#000000" xlink:href="#path-1"></use>
            </g>
        </g>
    </g>
</svg>