<?xml version="1.0" encoding="UTF-8"?>
<svg width="60px" height="60px" viewBox="0 0 60 60" version="1.1" xmlns="http://www.w3.org/2000/svg" xmlns:xlink="http://www.w3.org/1999/xlink">
    <!-- Generator: Sketch 49.3 (51167) - http://www.bohemiancoding.com/sketch -->
    <title>Mask</title>
    <desc>Created with Sketch.</desc>
    <defs>
        <path d="M56.8872126,3.11851374 C56.3457726,2.63731374 52.5368426,1.11600374 47.8154726,5.83656374 L34.6653426,19.6160037 C34.3745626,19.9192637 33.9496826,20.0558537 33.5373226,19.9831737 L6.67304856,15.0997137 L3.50207656,18.2701437 L25.4519726,26.6009737 C25.8342426,26.7463337 26.1225126,27.0708937 26.2215326,27.4668837 C26.3205426,27.8641237 26.2190226,28.2851837 25.9483026,28.5934537 L13.6166026,42.6673837 C13.3797226,42.9380637 13.0363026,43.0934537 12.6765926,43.0934537 L5.49114056,43.0934537 L3.62239756,44.8002137 L11.1688126,47.5295437 C11.7052426,47.4919437 12.2253826,47.7876837 12.4246626,48.3177637 L15.4941226,56.5019727 L17.5057426,54.4894407 L17.5057426,47.5069837 C17.5057426,47.1536037 17.6548926,46.8177637 17.9143326,46.5809237 L31.6685826,34.0796637 C31.9769126,33.7989637 32.4017926,33.6924437 32.8078826,33.7901937 C33.2114526,33.8891937 33.5398326,34.1824237 33.6839726,34.5721437 L41.7605526,56.4919467 L44.9177326,53.3365587 L40.0334326,26.4769137 C39.9582326,26.0633737 40.0961026,25.6398137 40.4006626,25.3490937 L54.1824926,12.1987137 C58.9038526,7.47565374 57.3822926,3.67239374 56.8872126,3.11851374 M55.9484526,13.9693937 C55.9446926,13.9731537 55.9396826,13.9744037 55.9359226,13.9781637 C55.9321626,13.9806737 55.9309126,13.9856837 55.9271526,13.9894437 L42.6140826,26.6924437 L47.4946226,53.5345537 C47.5685626,53.9368097 47.4394726,54.3515967 47.1486926,54.6410697 L42.1478326,59.64107 C41.9109526,59.8779121 41.5913426,60.0082379 41.2629726,60.0082379 C41.1739826,60.0082379 41.0837426,59.999466 40.9947526,59.9794159 C40.5786426,59.886684 40.2377326,59.5909447 40.0898326,59.1899422 L31.9781626,37.1774137 L20.0061726,48.0596137 L20.0061726,55.0069847 C20.0061726,55.3378117 19.8745726,55.6561077 19.6401926,55.8916967 L15.8889226,59.64107 C15.5881226,59.9418219 15.1569626,60.0708946 14.7396026,59.9794159 C14.3247426,59.8904434 13.9838326,59.593451 13.8334326,59.1962078 L10.3428526,49.8891907 L0.824923463,46.4468337 C0.413825063,46.2989637 0.109261333,45.9468337 0.0240336132,45.5157537 C-0.0611941068,45.0871837 0.0841943532,44.6435737 0.407558363,44.3490937 L4.16384456,40.9205137 C4.39446056,40.7099937 4.69526456,40.5934537 5.00734856,40.5934537 L12.1088226,40.5934537 L22.8813526,28.3002137 L0.807376563,19.9205137 C0.410065063,19.7701437 0.116781463,19.4292937 0.0277936632,19.0132537 C-0.0611941068,18.5997137 0.0666474732,18.1686437 0.366197863,17.8678837 L5.36831256,12.8678837 C5.65783656,12.5784137 6.07144156,12.4493437 6.47627356,12.5220237 L33.3217526,17.4017237 L46.0269526,4.08969374 C49.2518126,0.864123738 52.1833926,0.0921937378 54.0772026,0.00823373783 C56.2028826,-0.0857462622 57.9462926,0.641073738 58.6619526,1.35661374 C59.3776226,2.07214374 60.1058126,3.81275374 60.0105626,5.94182374 C59.9265826,7.83530374 59.1532726,10.7651337 55.9484526,13.9693937" id="path-1"></path>
    </defs>
    <g id="Symbols" stroke="none" stroke-width="1" fill="none" fill-rule="evenodd">
        <g id="05_icons/poi/plane" transform="translate(-10.000000, -10.000000)">
            <g id="🎨Colour" transform="translate(10.000000, 10.000000)">
                <mask id="mask-2" fill="white">
                    <use xlink:href="#path-1"></use>
                </mask>
                <use id="Mask" fill="#000000" xlink:href="#path-1"></use>
            </g>
        </g>
    </g>
</svg>