<?xml version="1.0" encoding="UTF-8"?>
<svg width="53px" height="60px" viewBox="0 0 53 60" version="1.1" xmlns="http://www.w3.org/2000/svg" xmlns:xlink="http://www.w3.org/1999/xlink">
    <!-- Generator: Sketch 49.3 (51167) - http://www.bohemiancoding.com/sketch -->
    <title>Mask</title>
    <desc>Created with Sketch.</desc>
    <defs>
        <path d="M26.08641,41.2500002 C23.3460933,41.2500002 21.1175745,39.0062471 21.1175745,36.2487481 C21.1175745,33.9275008 22.7063588,31.9862544 24.8442011,31.4275008 L24.8442011,28.7500002 C24.8442011,28.0599972 25.3994678,27.498748 26.08641,27.498748 C26.7733522,27.498748 27.3286189,28.0599972 27.3286189,28.7500002 L27.3286189,31.2500002 L29.8130453,31.2500002 C30.4999875,31.2500002 31.0552542,31.8112493 31.0552542,32.5012523 C31.0552542,33.1912553 30.4999875,33.7512523 29.8130453,33.7512523 L26.08641,33.7512523 C24.716256,33.7512523 23.6019923,34.8724985 23.6019923,36.2487481 C23.6019923,37.6287541 24.716256,38.7487481 26.08641,38.7487481 C28.8267267,38.7487481 31.0552542,40.9925013 31.0552542,43.7475047 C31.0552542,46.0712475 29.4664699,48.0125026 27.3286189,48.5712475 L27.3286189,51.2500003 C27.3286189,51.9400007 26.7733522,52.5000003 26.08641,52.5000003 C25.3994678,52.5000003 24.8442011,51.9400007 24.8442011,51.2500003 L24.8442011,48.7487481 L22.3597834,48.7487481 C21.6728412,48.7487481 21.1175745,48.1887511 21.1175745,47.4987481 C21.1175745,46.8087538 21.6728412,46.2487481 22.3597834,46.2487481 L26.08641,46.2487481 C27.4553293,46.2487481 28.5708364,45.1275019 28.5708364,43.7475047 C28.5708364,42.370003 27.4553293,41.2500002 26.08641,41.2500002 Z M49.6884045,21.2500001 L2.48441982,21.2500001 L2.48441982,57.5000003 L49.6884045,57.5000003 L49.6884045,21.2500001 Z M49.6884045,10.0012522 L37.2663072,10.0012522 L37.2663072,13.7487479 C37.2663072,14.4387509 36.7110318,15.0000001 36.0240896,15.0000001 C35.3371474,15.0000001 34.7818808,14.4387509 34.7818808,13.7487479 L34.7818808,10.0012522 L17.3909392,10.0012522 L17.3909392,13.7487479 C17.3909392,14.4387509 16.8356726,15.0000001 16.1487304,15.0000001 C15.4617882,15.0000001 14.9065215,14.4387509 14.9065215,13.7487479 L14.9065215,10.0012522 L2.48441982,10.0012522 L2.48441982,18.7512523 L49.6884045,18.7512523 L49.6884045,10.0012522 Z M50.9306134,60 L1.24221008,60 C0.55526798,60 0,59.44125 0,58.7500003 L0,8.75000005 C0,8.06000575 0.55526798,7.50000004 1.24221008,7.50000004 L14.9065215,7.50000004 L14.9065215,1.25000001 C14.9065215,0.560005707 15.4617882,0 16.1487304,0 C16.8356726,0 17.3909392,0.560005707 17.3909392,1.25000001 L17.3909392,7.50000004 L34.7818808,7.50000004 L34.7818808,1.25000001 C34.7818808,0.560005707 35.3371474,0 36.0240896,0 C36.7110318,0 37.2663072,0.560005707 37.2663072,1.25000001 L37.2663072,7.50000004 L50.9306134,7.50000004 C51.6175556,7.50000004 52.1728223,8.06000575 52.1728223,8.75000005 L52.1728223,58.7500003 C52.1728223,59.44125 51.6175556,60 50.9306134,60 Z" id="path-1"></path>
    </defs>
    <g id="Symbols" stroke="none" stroke-width="1" fill="none" fill-rule="evenodd">
        <g id="05_icons/interface/pricing" transform="translate(-14.000000, -10.000000)">
            <g id="🎨Colour" transform="translate(14.000000, 10.000000)">
                <mask id="mask-2" fill="white">
                    <use xlink:href="#path-1"></use>
                </mask>
                <use id="Mask" fill="#000000" xlink:href="#path-1"></use>
            </g>
        </g>
    </g>
</svg>