<?xml version="1.0" encoding="UTF-8"?>
<svg width="60px" height="60px" viewBox="0 0 60 60" version="1.1" xmlns="http://www.w3.org/2000/svg" xmlns:xlink="http://www.w3.org/1999/xlink">
    <!-- Generator: Sketch 49.3 (51167) - http://www.bohemiancoding.com/sketch -->
    <title>Mask</title>
    <desc>Created with Sketch.</desc>
    <defs>
        <path d="M48.8183213,25.0384131 L46.3593049,25.0384131 C45.6806164,25.0384131 45.1297967,24.4875934 45.1297967,23.8089049 C45.1297967,23.1302164 45.6806164,22.5793967 46.3593049,22.5793967 L48.8183213,22.5793967 C49.4970098,22.5793967 50.0478295,23.1302164 50.0478295,23.8089049 C50.0478295,24.4875934 49.4970098,25.0384131 48.8183213,25.0384131 Z M57.4248787,18.276118 C57.4248787,17.9416918 57.1248787,17.6613639 56.7695508,17.6613639 L46.3593049,17.6613639 L14.3920918,17.6613639 L3.98184393,17.6613639 C3.62651607,17.6613639 3.32651607,17.9416918 3.32651607,18.276118 L3.32651607,44.0957902 C3.32651607,44.4289869 3.62651607,44.7105443 3.98184393,44.7105443 L13.1625836,44.7105443 L13.1625836,33.6449705 C13.1625836,32.9650525 13.7134033,32.4154623 14.3920918,32.4154623 L46.3593049,32.4154623 C47.0379934,32.4154623 47.5888131,32.9650525 47.5888131,33.6449705 L47.5888131,44.7105443 L56.7695508,44.7105443 C57.1248787,44.7105443 57.4248787,44.4289869 57.4248787,44.0957902 L57.4248787,18.276118 Z M45.1297967,2.90726557 L15.6216,2.90726557 L15.6216,15.2023475 L45.1297967,15.2023475 L45.1297967,2.90726557 Z M15.6216,57.0043957 L45.1297967,57.0043957 L45.1297967,34.8732492 L15.6216,34.8732492 L15.6216,57.0043957 Z M56.7695508,47.1695607 L47.5888131,47.1695607 L47.5888131,58.2351334 C47.5888131,58.9150515 47.0379934,59.4646416 46.3593049,59.4646416 L14.3920918,59.4646416 C13.7134033,59.4646416 13.1625836,58.9150515 13.1625836,58.2351334 L13.1625836,47.1695607 L3.98184393,47.1695607 C2.26422098,47.1695607 0.867499672,45.791282 0.867499672,44.0957902 L0.867499672,18.276118 C0.867499672,16.5793967 2.26422098,15.2023475 3.98184393,15.2023475 L13.1625836,15.2023475 L13.1625836,1.67652787 C13.1625836,0.996609836 13.7134033,0.44824918 14.3920918,0.44824918 L46.3593049,0.44824918 C47.0379934,0.44824918 47.5888131,0.996609836 47.5888131,1.67652787 L47.5888131,15.2023475 L56.7695508,15.2023475 C58.4871738,15.2023475 59.8838951,16.5793967 59.8838951,18.276118 L59.8838951,44.0957902 C59.8838951,45.791282 58.4871738,47.1695607 56.7695508,47.1695607 Z" id="path-1"></path>
    </defs>
    <g id="Symbols" stroke="none" stroke-width="1" fill="none" fill-rule="evenodd">
        <g id="05_icons/interface/printer" transform="translate(-10.000000, -10.000000)">
            <g id="🎨Colour" transform="translate(10.000000, 10.000000)">
                <mask id="mask-2" fill="white">
                    <use xlink:href="#path-1"></use>
                </mask>
                <use id="Mask" fill="#000000" xlink:href="#path-1"></use>
            </g>
        </g>
    </g>
</svg>