<?xml version="1.0" encoding="UTF-8"?>
<svg width="56px" height="60px" viewBox="0 0 56 60" version="1.1" xmlns="http://www.w3.org/2000/svg" xmlns:xlink="http://www.w3.org/1999/xlink">
    <!-- Generator: Sketch 49.3 (51167) - http://www.bohemiancoding.com/sketch -->
    <title>Mask</title>
    <desc>Created with Sketch.</desc>
    <defs>
        <path d="M54,57.6 L48,57.6 L48,1.2 C48,0.5376 47.4636,0 46.8,0 L8.4,0 C7.7376,0 7.2,0.5376 7.2,1.2 L7.2,57.6 L1.2,57.6 C0.5376,57.6 0,58.1364 0,58.8 C0,59.4636 0.5376,60 1.2,60 L54,60 C54.6636,60 55.2,59.4636 55.2,58.8 C55.2,58.1364 54.6636,57.6 54,57.6 Z M9.6,57.6 L9.6,2.4 L45.6,2.4 L45.6,57.6 L40.8,57.6 L40.8,8.4 C40.8,7.7376 40.2636,7.2 39.6,7.2 L15.6,7.2 C14.9376,7.2 14.4,7.7376 14.4,8.4 L14.4,57.6 L10.8,57.6 L9.6,57.6 Z M16.8,57.6 L16.8,9.6 L38.4,9.6 L38.4,57.6 L16.8,57.6 Z M22.8,34.8 C24.1254834,34.8 25.2,33.7254834 25.2,32.4 C25.2,31.0745166 24.1254834,30 22.8,30 C21.4745166,30 20.4,31.0745166 20.4,32.4 C20.4,33.7254834 21.4745166,34.8 22.8,34.8 Z" id="path-1"></path>
    </defs>
    <g id="Symbols" stroke="none" stroke-width="1" fill="none" fill-rule="evenodd">
        <g id="05_icons/property/private-room" transform="translate(-12.000000, -10.000000)">
            <g id="🎨Colour" transform="translate(12.000000, 10.000000)">
                <mask id="mask-2" fill="white">
                    <use xlink:href="#path-1"></use>
                </mask>
                <use id="Mask" fill="#000000" fill-rule="nonzero" xlink:href="#path-1"></use>
            </g>
        </g>
    </g>
</svg>