<?xml version="1.0" encoding="UTF-8"?>
<svg width="61px" height="60px" viewBox="0 0 61 60" version="1.1" xmlns="http://www.w3.org/2000/svg" xmlns:xlink="http://www.w3.org/1999/xlink">
    <!-- Generator: Sketch 49.3 (51167) - http://www.bohemiancoding.com/sketch -->
    <title>Mask</title>
    <desc>Created with Sketch.</desc>
    <defs>
        <path d="M20.68085,21.1527541 C19.32489,21.1527541 18.18005,22.8435246 18.18005,24.8432852 C18.18005,26.8418066 19.32489,28.5313475 20.68085,28.5313475 C22.03681,28.5313475 23.18165,26.8418066 23.18165,24.8432852 C23.18165,22.8435246 22.03681,21.1527541 20.68085,21.1527541 Z M20.68085,30.9908754 C17.92243,30.9908754 15.67925,28.2322426 15.67925,24.8432852 C15.67925,21.4518492 17.92243,18.6932164 20.68085,18.6932164 C23.43927,18.6932164 25.68246,21.4518492 25.68246,24.8432852 C25.68246,28.2322426 23.43927,30.9908754 20.68085,30.9908754 Z M28.11917,41.2195574 C27.94449,41.7349475 27.4569,42.0612393 26.93286,42.0612393 C26.80216,42.0612393 26.67021,42.0402295 26.53826,41.9969705 C25.88353,41.7819148 25.52914,41.0848426 25.7478,40.4409148 L33.25021,18.3051344 C33.46887,17.6599672 34.1701,17.3101967 34.83238,17.5252525 C35.48585,17.7415377 35.84024,18.4386197 35.62158,19.0825377 L28.11917,41.2195574 Z M40.69104,30.9908754 C39.33508,30.9908754 38.18773,32.6816459 38.18773,34.6814066 C38.18773,36.6811672 39.33508,38.3707082 40.69104,38.3707082 C42.04575,38.3707082 43.18933,36.6811672 43.18933,34.6814066 C43.18933,32.6816459 42.04575,30.9908754 40.69104,30.9908754 Z M40.69104,40.8302361 C37.93136,40.8302361 35.68692,38.0728426 35.68692,34.6814066 C35.68692,31.2912098 37.93136,28.5313475 40.69104,28.5313475 C43.44695,28.5313475 45.69013,31.2912098 45.69013,34.6814066 C45.69013,38.0728426 43.44695,40.8302361 40.69104,40.8302361 Z M51.49476,18.5918754 C51.15797,18.3768197 50.94559,18.0159246 50.92422,17.6204164 L50.54722,10.2257607 L43.02973,9.85374098 C42.62759,9.83396066 42.26064,9.62632131 42.04198,9.29385246 L37.95524,3.07581639 L31.2546,6.45241967 C30.89644,6.63163279 30.4742,6.63163279 30.11478,6.45241967 L23.41414,3.07581639 L19.3274,9.29385246 C19.10874,9.62632131 18.74179,9.83396066 18.33965,9.85374098 L10.82216,10.2257607 L10.445155,17.6204164 C10.423791,18.0159246 10.211412,18.3768197 9.87462,18.5918754 L3.55224,22.6099279 L6.984246,29.1999934 C7.168978,29.5522328 7.168978,29.9687508 6.984246,30.3209902 L3.55224,36.9098164 L9.87462,40.929118 C10.211412,41.1454033 10.423791,41.5050689 10.445155,41.9005672 L10.82216,49.2952279 L18.33965,49.6672475 C18.74179,49.687023 19.10874,49.8946613 19.3274,50.2271311 L23.41414,56.4451721 L30.11478,53.0685698 C30.29449,52.9783456 30.48928,52.9338511 30.68532,52.9338511 C30.8801,52.9338511 31.07615,52.9783456 31.2546,53.0685698 L37.95524,56.4451721 L42.04198,50.2271311 C42.26064,49.8946613 42.62759,49.687023 43.02973,49.6672475 L50.54722,49.2952279 L50.92422,41.9005672 C50.94559,41.5050689 51.15797,41.1454033 51.49476,40.929118 L57.81714,36.9098164 L54.38513,30.3209902 C54.2004,29.9687508 54.2004,29.5522328 54.38513,29.1999934 L57.81714,22.6099279 L51.49476,18.5918754 Z M56.90353,29.7598721 L60.55797,36.7788098 C60.85078,37.3411672 60.66353,38.0295836 60.12441,38.373177 L53.38984,42.6544918 L52.9877,50.528702 C52.95503,51.1590334 52.44356,51.6645354 51.80139,51.6954344 L43.7938,52.0909367 L39.4419,58.7143682 C39.20438,59.0765002 38.8035,59.2767234 38.39005,59.2767234 C38.19904,59.2767234 38.00299,59.2334653 37.82077,59.1420053 L30.68532,55.5454043 L23.54861,59.1420053 C22.97304,59.4275087 22.27684,59.2433529 21.92748,58.7143682 L17.57558,52.0909367 L9.567989,51.6954344 C8.925823,51.6645354 8.414353,51.1590334 8.381679,50.528702 L7.97954,42.6544918 L1.2449667,38.373177 C0.705849,38.0295836 0.518603,37.3411672 0.8114105,36.7788098 L4.465849,29.7598721 L0.8114105,22.7421738 C0.518603,22.1798262 0.705849,21.4914 1.2449667,21.1478066 L7.97954,16.8677311 L8.381679,8.99228852 C8.414353,8.3619541 8.925823,7.85768852 9.567989,7.8255541 L17.57558,7.4300459 L21.92748,0.806616393 C22.27684,0.276393443 22.97304,0.0897737705 23.54861,0.378983607 L30.68532,3.97558033 L37.82077,0.378983607 C38.39382,0.0897737705 39.09254,0.276393443 39.4419,0.806616393 L43.7938,7.4300459 L51.80139,7.8255541 C52.44356,7.85768852 52.95503,8.3619541 52.9877,8.99228852 L53.38984,16.8677311 L60.12441,21.1478066 C60.66353,21.4914 60.85078,22.1798262 60.55797,22.7421738 L56.90353,29.7598721 Z" id="path-1"></path>
    </defs>
    <g id="Symbols" stroke="none" stroke-width="1" fill="none" fill-rule="evenodd">
        <g id="05_icons/finance/promo" transform="translate(-9.000000, -10.000000)">
            <g id="🎨Colour" transform="translate(9.000000, 10.000000)">
                <mask id="mask-2" fill="white">
                    <use xlink:href="#path-1"></use>
                </mask>
                <use id="Mask" fill="#000000" xlink:href="#path-1"></use>
            </g>
        </g>
    </g>
</svg>