<?xml version="1.0" encoding="UTF-8"?>
<svg width="60px" height="51px" viewBox="0 0 60 51" version="1.1" xmlns="http://www.w3.org/2000/svg" xmlns:xlink="http://www.w3.org/1999/xlink">
    <!-- Generator: Sketch 49.3 (51167) - http://www.bohemiancoding.com/sketch -->
    <title>Mask</title>
    <desc>Created with Sketch.</desc>
    <defs>
        <path d="M52.8600667,19.0714088 C52.203865,19.2741697 51.5024053,18.8927174 51.3025253,18.2223223 C48.5595255,8.98633651 39.7673663,2.53584574 29.9217631,2.53584574 C19.4010843,2.53584574 11.0489078,9.59082581 9.03377733,19.9040126 L15.549329,15.4266892 C16.1200502,15.0325643 16.8981957,15.1859022 17.2841257,15.7637876 C17.6725733,16.3429318 17.522978,17.1311901 16.950998,17.5253149 L7.73016601,23.8617527 C7.52148705,24.0049526 7.27635254,24.0784534 7.02870379,24.0784534 C6.93567879,24.0784534 6.84139583,24.0683154 6.74962795,24.046772 C6.41146759,23.9682022 6.11982057,23.7502258 5.94634091,23.446076 L0.167450249,13.3065117 C-0.176995291,12.7020224 0.0266549583,11.9264367 0.625034734,11.5766658 C1.22215705,11.2256276 1.9864743,11.4334659 2.33217736,12.0404982 L6.57363405,19.4820081 C8.80372822,8.08655979 18.3338102,0 29.9217631,0 C40.86105,0 50.6375203,7.19311935 53.6973002,17.4936336 C53.8959213,18.1627613 53.5213037,18.8699068 52.8600667,19.0714088 M59.3756184,39.1160868 C59.178256,39.2326743 58.9632957,39.2871662 58.7508446,39.2871662 C58.3196567,39.2871662 57.8985308,39.0603275 57.6672229,38.6535216 L53.4257611,31.2120117 C51.1969291,42.6074609 41.6655883,50.6914855 30.0776355,50.6914855 C19.1383485,50.6914855 9.36187821,43.4996315 6.30335718,33.2016535 C6.10473517,32.5312585 6.47809397,31.824113 7.13932927,31.6226194 C7.80056374,31.4211173 8.49699326,31.7987679 8.69687324,32.4691629 C11.439873,41.706416 20.2320322,48.1581783 30.0776355,48.1581783 C40.5983142,48.1581783 48.9517411,41.1006595 50.96688,30.78874 L44.4513284,35.2673306 C43.8793484,35.6601967 43.1024532,35.5081176 42.7152729,34.9289649 C42.3280841,34.3485535 42.4776794,33.5615625 43.0484005,33.1687049 L52.26923,26.8322671 C52.5571082,26.6345752 52.9141278,26.5674107 53.2510319,26.6459805 C53.5891864,26.7245504 53.8795822,26.9412595 54.053061,27.2479438 L59.8319486,37.3849736 C60.1776475,37.9907301 59.9727407,38.7663158 59.3756184,39.1160868" id="path-1"></path>
    </defs>
    <g id="Symbols" stroke="none" stroke-width="1" fill="none" fill-rule="evenodd">
        <g id="05_icons/interface/refresh" transform="translate(-10.000000, -15.000000)">
            <g id="🎨Colour" transform="translate(10.000000, 15.000000)">
                <mask id="mask-2" fill="white">
                    <use xlink:href="#path-1"></use>
                </mask>
                <use id="Mask" fill="#000000" xlink:href="#path-1"></use>
            </g>
        </g>
    </g>
</svg>