<?xml version="1.0" encoding="UTF-8"?>
<svg width="52px" height="60px" viewBox="0 0 52 60" version="1.1" xmlns="http://www.w3.org/2000/svg" xmlns:xlink="http://www.w3.org/1999/xlink">
    <!-- Generator: Sketch 49.3 (51167) - http://www.bohemiancoding.com/sketch -->
    <title>Mask</title>
    <desc>Created with Sketch.</desc>
    <defs>
        <path d="M25.9993849,60.0134591 C11.6636949,60.0134591 0,48.272755 0,33.842685 C0,19.311165 11.6451149,7.490285 25.9585249,7.490285 L29.1666549,7.490285 L23.8424649,2.131625 C23.3570949,1.643105 23.3570949,0.853965 23.8424649,0.365445 C24.3265949,-0.121815 25.1116049,-0.121815 25.5957349,0.365445 L33.0359749,7.854795 C33.4941049,8.317015 33.5213449,9.054795 33.1003649,9.549575 L25.6601149,18.287785 C25.4149549,18.575885 25.0670249,18.723695 24.7178649,18.723695 C24.4318449,18.723695 24.1458149,18.624735 23.9118049,18.424315 C23.3917649,17.974635 23.3310949,17.186735 23.7768449,16.663145 L29.4625849,9.986745 L25.9585249,9.986745 C13.0120749,9.986745 2.4800819,20.687785 2.4800819,33.842685 C2.4800819,46.894875 13.0306449,57.515756 25.9993849,57.515756 C38.9693549,57.515756 49.5199149,46.894875 49.5199149,33.842685 C49.5199149,33.152505 50.0746249,32.593835 50.7593349,32.593835 C51.4440549,32.593835 51.9999949,33.152505 51.9999949,33.842685 C51.9999949,48.272755 40.3363049,60.0134591 25.9993849,60.0134591" id="path-1"></path>
    </defs>
    <g id="Symbols" stroke="none" stroke-width="1" fill="none" fill-rule="evenodd">
        <g id="05_icons/interface/reload" transform="translate(-14.000000, -10.000000)">
            <g id="🎨Colour" transform="translate(14.000000, 10.000000)">
                <mask id="mask-2" fill="white">
                    <use xlink:href="#path-1"></use>
                </mask>
                <use id="Mask" fill="#000000" xlink:href="#path-1"></use>
            </g>
        </g>
    </g>
</svg>