<?xml version="1.0" encoding="UTF-8"?>
<svg width="60px" height="60px" viewBox="0 0 60 60" version="1.1" xmlns="http://www.w3.org/2000/svg" xmlns:xlink="http://www.w3.org/1999/xlink">
    <!-- Generator: Sketch 49.3 (51167) - http://www.bohemiancoding.com/sketch -->
    <title>Mask</title>
    <desc>Created with Sketch.</desc>
    <defs>
        <path d="M45.0048538,57.502391 L55.1193638,57.502391 L55.1193638,48.75203 L45.0048538,48.75203 L45.0048538,57.502391 Z M43.7547838,46.25192 L56.2566938,46.25192 C56.9468638,46.25192 57.6245038,46.81195 57.6245038,47.50197 L57.6245038,58.7524432 C57.6245038,59.442472 56.9468638,60.0012452 56.2566938,60.0012452 L43.7547838,60.0012452 C43.0633738,60.0012452 42.5936538,59.442472 42.5936538,58.7524432 L42.5936538,47.50197 C42.5936538,46.81195 43.0633738,46.25192 43.7547838,46.25192 Z M23.7524938,57.502391 L33.8256638,57.502391 L33.8256638,37.50031 L23.7524938,37.50031 L23.7524938,57.502391 Z M22.5024238,35.00145 L35.0043338,35.00145 C35.6944938,35.00145 36.2543938,35.56148 36.2543938,36.25151 L36.2543938,58.7524432 C36.2543938,59.442472 35.6944938,60.0012452 35.0043338,60.0012452 L22.5024238,60.0012452 C21.8122638,60.0012452 21.2999638,59.442472 21.2999638,58.7524432 L21.2999638,36.25151 C21.2999638,35.56148 21.8122638,35.00145 22.5024238,35.00145 Z M12.5019038,22.50093 L2.50013084,22.50093 L2.50013084,57.502391 L12.5019038,57.502391 L12.5019038,22.50093 Z M13.7519738,60.0012452 L1.25006484,60.0012452 C0.55989894,60.0012452 0,59.442472 0,58.7524432 L0,21.25088 C0,20.5596 0.55989894,19.99958 1.25006484,19.99958 L13.7519738,19.99958 C14.4421338,19.99958 15.0020338,20.5596 15.0020338,21.25088 L15.0020338,58.7524432 C15.0020338,59.442472 14.4421338,60.0012452 13.7519738,60.0012452 Z M47.5049838,14.3756 C47.5049838,7.82657 42.1778038,2.5001 35.6293638,2.5001 C29.0809238,2.5001 23.7524938,7.82657 23.7524938,14.3756 C23.7524938,20.92337 29.0809238,26.25109 35.6293638,26.25109 C42.1778038,26.25109 47.5049838,20.92337 47.5049838,14.3756 Z M59.6398838,40.27917 C59.3956338,40.52418 59.0762338,40.64544 58.7568238,40.64544 C58.4361638,40.64544 58.1167638,40.52418 57.8725138,40.27917 L43.7886038,26.19734 C41.4675938,27.80365 38.6580838,28.74994 35.6293638,28.74994 C27.7018438,28.74994 21.2523638,22.30218 21.2523638,14.3756 C21.2523638,6.44902 27.7018438,0 35.6293638,0 C43.5556338,0 50.0051138,6.44902 50.0051138,14.3756 C50.0051138,18.37201 48.3642438,21.98841 45.7225738,24.59602 L59.6398838,38.5116 C60.1283838,39.00037 60.1283838,39.79165 59.6398838,40.27917 Z" id="path-1"></path>
    </defs>
    <g id="Symbols" stroke="none" stroke-width="1" fill="none" fill-rule="evenodd">
        <g id="05_icons/finance/report-search" transform="translate(-10.000000, -10.000000)">
            <g id="🎨Colour" transform="translate(10.000000, 10.000000)">
                <mask id="mask-2" fill="white">
                    <use xlink:href="#path-1"></use>
                </mask>
                <use id="Mask" fill="#000000" xlink:href="#path-1"></use>
            </g>
        </g>
    </g>
</svg>