<?xml version="1.0" encoding="UTF-8"?>
<svg width="60px" height="61px" viewBox="0 0 60 61" version="1.1" xmlns="http://www.w3.org/2000/svg" xmlns:xlink="http://www.w3.org/1999/xlink">
    <!-- Generator: Sketch 49 (51002) - http://www.bohemiancoding.com/sketch -->
    <title>Mask</title>
    <desc>Created with Sketch.</desc>
    <defs>
        <path d="M47.1365077,27.13671 C46.8922577,27.3797 46.5728677,27.5012 46.2534677,27.5012 C45.9328177,27.5012 45.6134277,27.3797 45.3691877,27.13671 C44.8806977,26.64697 44.8806977,25.85537 45.3691877,25.36814 L55.8152977,14.92203 L12.8985677,14.92203 C12.7720577,14.96461 12.6417977,15.00219 12.5002577,15.00219 C6.9866187,15.00219 2.5000517,19.48876 2.5000517,25.00114 C2.5000517,30.51604 6.9866187,35.00135 12.5002577,35.00135 C12.5453477,35.00135 12.5841777,35.02139 12.6280177,35.0264 C12.6706077,35.02265 12.7069277,35.00135 12.7507677,35.00135 L47.2529877,35.00135 C47.2843077,35.00135 47.3106077,35.01764 47.3406677,35.02014 C47.3970277,35.01263 47.4458777,34.98757 47.5034977,34.98757 C54.3961777,34.98757 60.0037577,40.5939 60.0037577,47.48783 C60.0037577,54.380513 54.3961777,59.9880945 47.5034977,59.9880945 C47.4734377,59.9880945 47.4483877,59.9730641 47.4195777,59.970559 C47.3619577,59.9793267 47.3118577,60.0043774 47.2529877,60.0043774 L1.2500257,60.0043774 C0.5598814,60.0043774 0,59.444496 0,58.753099 C0,58.064207 0.5598814,57.503073 1.2500257,57.503073 L47.2529877,57.503073 C47.2830477,57.503073 47.3093577,57.518103 47.3394177,57.520608 C47.3945277,57.513093 47.4446277,57.488042 47.5034977,57.488042 C53.0171377,57.488042 57.5037077,53.002729 57.5037077,47.48783 C57.5037077,41.97294 53.0171377,37.48763 47.5034977,37.48763 C47.4721877,37.48763 47.4471277,37.47134 47.4170677,37.47009 C47.3607077,37.47761 47.3106077,37.50266 47.2529877,37.50266 L12.7507677,37.50266 C12.7044277,37.50266 12.6655977,37.48136 12.6217577,37.47635 C12.5791677,37.48136 12.5440977,37.5014 12.5002577,37.5014 C5.6075817,37.5014 0,31.89382 0,25.00114 C0,18.24374 5.3921467,12.73636 12.0994477,12.52218 C12.2234477,12.45705 12.3649877,12.41571 12.5290677,12.41571 L55.6512077,12.41571 L45.3691877,2.13368 C44.8806977,1.6452 44.8806977,0.85485 45.3691877,0.36636 C45.8576677,-0.12212 46.6480177,-0.12212 47.1365077,0.36636 L59.2848077,12.51466 C59.7294577,12.71256 60.0012477,13.20982 60.0037577,13.7459 L60.0037577,13.75091 C60.0037577,14.12667 59.8647277,14.42978 59.6342577,14.6377 L47.1365077,27.13671 Z" id="path-1"></path>
    </defs>
    <g id="Symbols" stroke="none" stroke-width="1" fill="none" fill-rule="evenodd">
        <g id="05_icons/arrows/s-arrow" transform="translate(-10.000000, -10.000000)">
            <g id="🎨Colour" transform="translate(10.000000, 10.000000)">
                <mask id="mask-2" fill="white">
                    <use xlink:href="#path-1"></use>
                </mask>
                <use id="Mask" fill="#000000" xlink:href="#path-1"></use>
            </g>
        </g>
    </g>
</svg>