<?xml version="1.0" encoding="UTF-8"?>
<svg width="60px" height="60px" viewBox="0 0 60 60" version="1.1" xmlns="http://www.w3.org/2000/svg" xmlns:xlink="http://www.w3.org/1999/xlink">
    <!-- Generator: Sketch 49.3 (51167) - http://www.bohemiancoding.com/sketch -->
    <title>Mask</title>
    <desc>Created with Sketch.</desc>
    <defs>
        <path d="M22.5019543,2.5013 C11.4733043,2.5013 2.5000783,11.47149 2.5000783,22.50046 C2.5000783,33.52944 11.4733043,42.50213 22.5019543,42.50213 C33.5318643,42.50213 42.5063443,33.52944 42.5063443,22.50046 C42.5063443,11.47149 33.5318643,2.5013 22.5019543,2.5013 M59.6386443,59.6349881 C59.3943943,59.8787432 59.0749943,60.0012458 58.7543443,60.0012458 C58.4349443,60.0012458 58.1155443,59.8787432 57.8713043,59.6349881 L37.4811343,39.24581 C33.4980443,42.81214 28.2573943,45.00218 22.5019543,45.00218 C10.0942543,45.00218 0,34.90697 0,22.50046 C0,10.09396 10.0942543,0 22.5019543,0 C34.9109143,0 45.0064143,10.09396 45.0064143,22.50046 C45.0064143,28.25433 42.8157243,33.49444 39.2497243,37.47828 L59.6386443,57.867451 C60.1271343,58.356212 60.1271343,59.147478 59.6386443,59.6349881" id="search"></path>
    </defs>
    <g id="Symbols" stroke="none" stroke-width="1" fill="none" fill-rule="evenodd">
        <g id="05_icons/interface/search" transform="translate(-10.000000, -10.000000)">
            <g id="🎨Colour" transform="translate(10.000000, 10.000000)">
                <mask id="mask-2" fill="white">
                    <use xlink:href="#search"></use>
                </mask>
                <use id="Mask" fill="#000000" xlink:href="#search"></use>
            </g>
        </g>
    </g>
</svg>