<?xml version="1.0" encoding="UTF-8"?>
<svg width="57px" height="60px" viewBox="0 0 57 60" version="1.1" xmlns="http://www.w3.org/2000/svg" xmlns:xlink="http://www.w3.org/1999/xlink">
    <!-- Generator: Sketch 49.3 (51167) - http://www.bohemiancoding.com/sketch -->
    <title>Mask</title>
    <desc>Created with Sketch.</desc>
    <defs>
        <path d="M13.6081315,57.488701 L35.5791515,57.488701 C32.0835615,54.997399 29.7899315,50.896063 29.7899315,46.25472 C29.7899315,41.59712 32.0996715,37.48078 35.6175615,34.99323 L13.6081315,34.99323 C7.46947848,34.99323 2.47454348,40.03959 2.47454348,46.24097 C2.47454348,52.442345 7.46947848,57.488701 13.6081315,57.488701 M54.5304115,46.25472 C54.5304115,40.05334 49.5354815,35.00698 43.3968215,35.00698 C37.2594115,35.00698 32.2644815,40.05334 32.2644815,46.25472 C32.2644815,52.358594 37.1032815,57.331197 43.1081115,57.488701 L43.2964615,57.488701 C43.3187615,57.488701 43.3373515,57.499951 43.3596515,57.501201 C43.3720415,57.501201 43.3844315,57.503701 43.3968215,57.503701 C49.5354815,57.503701 54.5304115,52.457346 54.5304115,46.25472 M13.6081315,32.49443 L43.2964615,32.49443 C43.3237215,32.49443 43.3472615,32.50818 43.3745215,32.50943 C43.3819615,32.50943 43.3893915,32.50818 43.3968215,32.50818 C50.9010015,32.50818 57.0049615,38.67456 57.0049615,46.25472 C57.0049615,53.836125 50.9010015,60.0012529 43.3968215,60.0012529 C43.3051315,60.0012529 43.2159115,59.9900027 43.1242215,59.9875026 L13.6081315,59.9875026 C6.10519548,59.9875026 0,53.821124 0,46.24097 C0,38.66081 6.10519548,32.49443 13.6081315,32.49443 M43.2964615,2.50006 L21.4877615,2.50006 C25.0056515,4.98761 27.3166315,9.10519 27.3166315,13.76279 C27.3166315,18.40164 25.0242415,22.50297 21.5298915,24.99427 L43.2964615,24.99427 C49.4351115,24.99427 54.4288015,19.94792 54.4288015,13.74529 C54.4288015,7.54516 49.4351115,2.50006 43.2964615,2.50006 M2.57615248,13.76279 C2.57615248,19.57416 6.96143448,24.36926 12.5635415,24.95052 C12.5722215,24.95177 12.5784115,24.94802 12.5870915,24.94802 C12.9216515,24.97927 13.2636515,24.99427 13.6081315,24.99427 L14.0331515,24.99427 C20.0206315,24.81802 24.8420915,19.85417 24.8420915,13.76279 C24.8420915,7.56016 19.8471515,2.51506 13.7085015,2.51506 C7.57108648,2.51506 2.57615248,7.56016 2.57615248,13.76279 M43.2964615,27.49433 L14.0158015,27.49433 C13.9129615,27.49683 13.8125915,27.50933 13.7085015,27.50933 C6.20556548,27.50933 0.10160868,21.34295 0.10160868,13.76279 C0.10160868,6.26388 6.07917348,0.15876 13.4705915,0.0275 C13.5176715,0.0225 13.5585615,0 13.6081315,0 L43.2964615,0 C50.7993915,0 56.9033515,6.16638 56.9033515,13.74529 C56.9033515,21.3267 50.7993915,27.49433 43.2964615,27.49433" id="path-1"></path>
    </defs>
    <g id="Symbols" stroke="none" stroke-width="1" fill="none" fill-rule="evenodd">
        <g id="05_icons/interface/settings-switch" transform="translate(-11.000000, -10.000000)">
            <g id="🎨Colour" transform="translate(11.000000, 10.000000)">
                <mask id="mask-2" fill="white">
                    <use xlink:href="#path-1"></use>
                </mask>
                <use id="Mask" fill="#000000" xlink:href="#path-1"></use>
            </g>
        </g>
    </g>
</svg>