<?xml version="1.0" encoding="UTF-8"?>
<svg width="60px" height="60px" viewBox="0 0 60 60" version="1.1" xmlns="http://www.w3.org/2000/svg" xmlns:xlink="http://www.w3.org/1999/xlink">
    <!-- Generator: Sketch 49.3 (51167) - http://www.bohemiancoding.com/sketch -->
    <title>Mask</title>
    <desc>Created with Sketch.</desc>
    <defs>
        <path d="M19.876664,29.96375 C19.876664,35.48 24.362034,39.965 29.877494,39.965 C35.391704,39.965 39.877074,35.48 39.877074,29.96375 C39.877074,24.45 35.391704,19.96375 29.877494,19.96375 C24.362034,19.96375 19.876664,24.45 19.876664,29.96375 Z M17.376454,29.96375 C17.376454,23.07125 22.984424,17.46375 29.877494,17.46375 C36.769314,17.46375 42.377284,23.07125 42.377284,29.96375 C42.377284,36.8575 36.769314,42.465 29.877494,42.465 C22.984424,42.465 17.376454,36.8575 17.376454,29.96375 Z M57.479794,27.26125 L50.905494,26.4 C50.389204,26.3325 49.967914,25.95125 49.851654,25.44375 C49.329114,23.19875 48.434034,21.07625 47.191434,19.13375 C46.910164,18.6925 46.932664,18.12625 47.246434,17.7075 L51.261774,12.37125 L47.485204,8.62 L42.132264,12.6975 C41.720984,13.01125 41.158434,13.03625 40.717144,12.765 C38.783234,11.56875 36.693064,10.7125 34.506634,10.22 C34.001584,10.105 33.619054,9.69125 33.545304,9.17875 L32.572714,2.50125 L27.253524,2.5175 L26.397204,9.16625 C26.330954,9.68625 25.945914,10.11 25.434624,10.22625 C23.193184,10.735 21.065514,11.6175 19.111604,12.84875 C18.669064,13.12875 18.101514,13.1025 17.687734,12.78625 L12.372294,8.74125 L8.63197799,12.50375 L12.698564,17.705 C13.024844,18.12375 13.052344,18.70125 12.767324,19.14875 C11.523464,21.09625 10.627144,23.22625 10.107104,25.4775 C9.99084399,25.9775 9.58205699,26.355 9.07576499,26.4325 L2.50396899,27.4225 L2.52271999,32.73125 L9.01075999,33.53875 C9.53455299,33.6025 9.96208399,33.99 10.077094,34.505 C10.578394,36.7425 11.460964,38.87375 12.698564,40.84 C12.972334,41.27375 12.952334,41.83 12.651064,42.24375 L8.72698599,47.6175 L12.521054,51.381254 L17.813994,47.38875 C18.035264,47.22 18.300284,47.135 18.566554,47.135 C18.795324,47.135 19.022844,47.19875 19.226614,47.32375 C21.163024,48.52375 23.259444,49.385 25.454624,49.882504 C25.957164,49.996254 26.337204,50.403754 26.414704,50.912504 L27.422294,57.496254 L32.743984,57.476254 L33.614054,50.920004 C33.682814,50.403754 34.066594,49.983754 34.574134,49.866254 C36.793074,49.3575 38.899494,48.48125 40.837154,47.26375 C41.272194,46.99125 41.829734,47.0125 42.243524,47.315 L47.621474,51.268754 L51.380534,47.485 L47.362694,42.2175 C47.046424,41.80375 47.020174,41.2375 47.296444,40.79625 C48.509044,38.85625 49.379114,36.75875 49.876654,34.5575 C49.990414,34.05875 50.397954,33.6775 50.905494,33.6 L57.496044,32.5825 L57.479794,27.26125 Z M52.109344,35.9425 C51.603054,37.8375 50.850484,39.65875 49.862904,41.375 L54.028254,46.835 C54.407034,47.33125 54.362034,48.03125 53.920744,48.475 L48.634054,53.796254 C48.200264,54.236254 47.507714,54.290004 47.006414,53.921254 L41.434704,49.823754 C39.717064,50.816254 37.889414,51.575004 35.980504,52.091254 L35.077924,58.8875035 C34.996674,59.5062535 34.469124,59.9700035 33.844074,59.9725035 L26.353454,60.0000035 C25.730904,60.0000035 25.205854,59.5487535 25.113344,58.9387535 L24.069514,52.116254 C22.180604,51.611254 20.364204,50.866254 18.650314,49.890004 L13.162354,54.028754 C12.666064,54.405004 11.969754,54.357504 11.529724,53.918754 L6.20302599,48.63375 C5.76423999,48.19875 5.71048499,47.50875 6.07426499,47.01 L10.140854,41.44125 C9.13076999,39.69625 8.36195599,37.8425 7.84816299,35.9125 L1.12260399,35.07625 C0.497551689,35 0.0287626991,34.46875 0.0262624991,33.84125 L1.03091161e-05,26.35125 C-0.00248989088,25.73125 0.450047689,25.20375 1.06259899,25.11 L7.87941599,24.08375 C8.40570899,22.14625 9.18077399,20.295 10.194604,18.5625 L5.98300799,13.17625 C5.59547599,12.67875 5.63797899,11.97 6.08301599,11.52375 L11.370954,6.2025 C11.812244,5.75625 12.518554,5.71125 13.013594,6.0875 L18.525304,10.2825 C20.257944,9.28 22.101844,8.51625 24.027004,8 L24.913334,1.11 C24.993334,0.48875 25.522134,0.02125 26.149684,0.02 L33.651554,0 C34.276614,0 34.801654,0.455 34.891664,1.07 L35.896744,7.98625 C37.774404,8.4875 39.580804,9.2275 41.288444,10.19625 L46.837654,5.97125 C47.331444,5.595 48.031504,5.63625 48.475294,6.08 L53.796984,11.36625 C54.240774,11.80625 54.290774,12.505 53.914494,13.005 L49.754144,18.5325 C50.767984,20.2575 51.544294,22.10125 52.071844,24.03125 L58.887404,24.925 C59.509954,25.005 59.972494,25.53375 59.974994,26.16125 L60.000004,33.65 C60.002504,34.2675 59.552464,34.795 58.939914,34.89 L52.109344,35.9425 Z" id="path-1"></path>
    </defs>
    <g id="Symbols" stroke="none" stroke-width="1" fill="none" fill-rule="evenodd">
        <g id="05_icons/interface/settings" transform="translate(-10.000000, -10.000000)">
            <g id="🎨Colour" transform="translate(10.000000, 10.000000)">
                <mask id="mask-2" fill="white">
                    <use xlink:href="#path-1"></use>
                </mask>
                <use id="Mask" fill="#000000" xlink:href="#path-1"></use>
            </g>
        </g>
    </g>
</svg>