<?xml version="1.0" encoding="UTF-8"?>
<svg width="60px" height="43px" viewBox="0 0 60 43" version="1.1" xmlns="http://www.w3.org/2000/svg" xmlns:xlink="http://www.w3.org/1999/xlink">
    <!-- Generator: Sketch 49.3 (51167) - http://www.bohemiancoding.com/sketch -->
    <title>Mask</title>
    <desc>Created with Sketch.</desc>
    <defs>
        <path d="M30.0000006,12.4554986 C25.1749983,12.4554986 21.2500031,16.3669197 21.2500031,21.1752208 C21.2500031,25.9835289 25.1749983,29.894943 30.0000006,29.894943 C34.8250028,29.894943 38.749998,25.9835289 38.749998,21.1752208 C38.749998,16.3669197 34.8250028,12.4554986 30.0000006,12.4554986 M30.0000006,32.3862982 C23.7974972,32.3862982 18.7500008,27.3562583 18.7500008,21.1752208 C18.7500008,14.9929409 23.7974972,9.9641504 30.0000006,9.9641504 C36.2024969,9.9641504 41.2500004,14.9929409 41.2500004,21.1752208 C41.2500004,27.3562583 36.2024969,32.3862982 30.0000006,32.3862982 M30.0000006,2.49134819 C11.0274997,2.49134819 2.49999991,17.3435291 2.49999991,21.1752208 C2.49999991,25.0081619 11.0274997,39.8603442 30.0000006,39.8603442 C48.9725014,39.8603442 57.4999977,25.0081619 57.4999977,21.1752208 C57.4999977,17.3435291 48.9725014,2.49134819 30.0000006,2.49134819 M30.0000006,42.3529391 C9.35124801,42.3529391 0,26.108096 0,21.1752208 C0,16.243595 9.35124801,0 30.0000006,0 C50.6487461,0 60,16.243595 60,21.1752208 C60,26.108096 50.6487461,42.3529391 30.0000006,42.3529391" id="path-1"></path>
    </defs>
    <g id="Symbols" stroke="none" stroke-width="1" fill="none" fill-rule="evenodd">
        <g id="05_icons/interface/visibility-true" transform="translate(-10.000000, -19.000000)">
            <g id="🎨Colour" transform="translate(10.000000, 19.000000)">
                <mask id="mask-2" fill="white">
                    <use xlink:href="#path-1"></use>
                </mask>
                <use id="Mask" fill="#000000" xlink:href="#path-1"></use>
            </g>
        </g>
    </g>
</svg>