<?xml version="1.0" encoding="UTF-8"?>
<svg width="50px" height="61px" viewBox="0 0 50 61" version="1.1" xmlns="http://www.w3.org/2000/svg" xmlns:xlink="http://www.w3.org/1999/xlink">
    <!-- Generator: Sketch 49.3 (51167) - http://www.bohemiancoding.com/sketch -->
    <title>Mask</title>
    <desc>Created with Sketch.</desc>
    <defs>
        <path d="M14.9997472,4.26908 L4.2668572,15.0025 L14.9997472,15.0025 L14.9997472,4.26908 Z M43.7506272,10.00209 C43.0593172,10.00209 42.5007472,9.44231 42.5007472,8.75229 L42.5007472,3.16705 C42.5007472,2.80514 41.6027972,2.4307 41.2333472,2.4307 L17.4381372,2.4307 L17.4381372,16.20721 C17.4381372,16.89848 16.8758172,17.45951 16.1857572,17.45951 L2.4095782,17.45951 L2.4095782,56.28068 C2.4095782,56.641341 2.8115922,57.512939 3.1810442,57.512939 L41.8194572,57.512939 C42.1876572,57.512939 42.5007472,57.207379 42.5007472,56.846717 L42.5007472,37.50876 C42.5007472,36.8175 43.0593172,36.25772 43.7506272,36.25772 C44.4406872,36.25772 45.0004972,36.8175 45.0004972,37.50876 L45.0004972,56.846717 C45.0004972,58.592418 43.5727872,60.0125213 41.8194572,60.0125213 L3.1810442,60.0125213 C1.4264602,60.0125213 0,58.592418 0,56.846717 L0,16.5854 C0,16.53907 0.0212905,16.50025 0.0263,16.45517 C-0.0388237,16.0632 0.0776476,15.65871 0.3656949,15.36943 L15.3666972,0.36567 C15.6685172,0.06261 16.0980872,-0.04884 16.5076172,0.03882 C16.5739872,0.0288 16.6341072,0 16.7042372,0 L41.8194572,0 C43.5727872,0 45.0004972,1.4201 45.0004972,3.16705 L45.0004972,8.75229 C45.0004972,9.44231 44.4406872,10.00209 43.7506272,10.00209 Z M46.7801372,18.22716 C45.8458572,17.29045 44.2277872,17.29295 43.2972672,18.22466 C43.2684572,18.25346 43.2308872,18.26473 43.1995772,18.28978 C43.1782872,18.31608 43.1695172,18.34864 43.1444772,18.37368 L41.6416172,19.87769 L45.1257372,23.36408 L46.6285972,21.86133 C46.6561472,21.83252 46.6924672,21.82251 46.7225272,21.79871 C46.7450672,21.77116 46.7550872,21.7361 46.7801372,21.7098 C47.2460172,21.24645 47.5015072,20.62782 47.5015072,19.97036 C47.5015072,19.31165 47.2447672,18.69177 46.7801372,18.22716 Z M20.8884372,44.12214 L26.4765572,42.02204 L43.3586272,25.13232 L39.8732572,21.64593 L22.9824172,38.54441 L20.8884372,44.12214 Z M48.5472372,23.48055 C48.5196872,23.5081 48.4833672,23.51811 48.4533072,23.54191 C48.4307672,23.56946 48.4219972,23.60327 48.3956972,23.62832 L28.0470372,43.98689 C28.0420272,43.9919 28.0357672,43.99315 28.0307572,43.99691 C27.9894272,44.03698 27.9318172,44.05952 27.8842272,44.09459 C27.7953072,44.15971 27.7088972,44.22858 27.6099572,44.26615 C27.6074572,44.26741 27.6049472,44.26991 27.6024472,44.27116 L19.1889572,47.4307 C19.0461872,47.48581 18.8971572,47.5121 18.7493772,47.5121 L7.5005012,47.5121 C6.8091872,47.5121 6.2493742,46.95108 6.2493742,46.25981 C6.2493742,45.56854 6.8091872,45.01002 7.5005012,45.01002 L17.8839772,45.01002 L20.7394072,37.40858 C20.7406572,37.40232 20.7456672,37.39981 20.7481672,37.39355 C20.7707172,37.3347 20.8170572,37.28711 20.8496172,37.23201 C20.9022172,37.14184 20.9485572,37.04667 21.0199372,36.97403 C21.0224472,36.97278 21.0224472,36.96902 21.0249472,36.96652 L41.3773672,16.60544 C41.4049172,16.57789 41.4424872,16.56662 41.4712972,16.54283 C41.4938372,16.51653 41.5026072,16.48397 41.5263972,16.45892 C43.4024672,14.57797 46.6724272,14.57797 48.5497472,16.45892 C49.4852672,17.39689 50.0012572,18.64293 50.0012572,19.97036 C50.0012572,21.29654 49.4852672,22.54383 48.5472372,23.48055 Z" id="path-1"></path>
    </defs>
    <g id="Symbols" stroke="none" stroke-width="1" fill="none" fill-rule="evenodd">
        <g id="05_icons/interface/sign-up" transform="translate(-15.000000, -10.000000)">
            <g id="🎨Colour" transform="translate(15.000000, 10.000000)">
                <mask id="mask-2" fill="white">
                    <use xlink:href="#path-1"></use>
                </mask>
                <use id="Mask" fill="#000000" xlink:href="#path-1"></use>
            </g>
        </g>
    </g>
</svg>