<?xml version="1.0" encoding="UTF-8"?>
<svg width="60px" height="60px" viewBox="0 0 60 60" version="1.1" xmlns="http://www.w3.org/2000/svg" xmlns:xlink="http://www.w3.org/1999/xlink">
    <!-- Generator: Sketch 49.3 (51167) - http://www.bohemiancoding.com/sketch -->
    <title>Mask</title>
    <desc>Created with Sketch.</desc>
    <defs>
        <path d="M53.3086203,41.4062915 L47.136317,47.5763147 C46.8925683,47.8200634 46.5725699,47.9425628 46.2525716,47.9425628 C45.9325733,47.9425628 45.6125749,47.8200634 45.3688262,47.5763147 C44.8800787,47.0875673 44.8800787,46.2975714 45.3688262,45.8088239 L51.5411033,39.638827 L46.7192917,34.8171587 L43.872584,37.6638663 C43.6275853,37.9076151 43.3075869,38.0301144 42.9888386,38.0301144 C42.6688403,38.0301144 42.3488419,37.9076151 42.1050932,37.6638663 C41.6163457,37.1751189 41.6163457,36.385123 42.1050932,35.8963755 L44.9517746,33.0496941 L40.1293381,28.227401 L33.9588856,34.4001333 C33.7151369,34.6438821 33.3951386,34.7663814 33.0751402,34.7663814 C32.7551419,34.7663814 32.4351436,34.6438821 32.1913948,34.4001333 C31.7026474,33.9113859 31.7026474,33.12139 32.1913948,32.6326425 L38.3618211,26.4599364 L33.5392727,21.6375313 L30.6926526,24.485185 C30.4489039,24.7289337 30.1289056,24.8514331 29.8089072,24.8514331 C29.4889089,24.8514331 29.1689106,24.7289337 28.9251618,24.485185 C28.4364144,23.9976875 28.4364144,23.2064416 28.9251618,22.7176942 L31.7717556,19.8700668 L26.949781,15.0482355 L20.7789543,21.220202 C20.5352055,21.4639507 20.2152072,21.5864501 19.8952089,21.5864501 C19.5752105,21.5864501 19.2552122,21.4639507 19.0114635,21.220202 C18.522716,20.7327045 18.522716,19.9414586 19.0114635,19.4527112 L25.1822639,13.2807709 L20.3610206,8.45967091 L17.5152213,11.3065036 C17.2714725,11.5502523 16.9514742,11.6727517 16.6314759,11.6727517 C16.3114775,11.6727517 15.9914792,11.5502523 15.7477305,11.3065036 C15.258983,10.8190062 15.258983,10.0277603 15.7477305,9.53901282 L18.5935036,6.69220638 L14.9189848,3.01779678 L3.01904678,14.9189848 L45.0825777,56.9825157 L56.9837657,45.0813277 L53.3086203,41.4062915 Z M45.0813277,60 C44.7488294,60 44.4313311,59.8687507 44.1975823,59.6337519 L0.366560591,15.8027302 C-0.122186864,15.3139827 -0.122186864,14.5239869 0.366560591,14.0352394 L14.0352394,0.366560591 C14.5239869,-0.122186864 15.3139827,-0.122186864 15.8027302,0.366560591 L59.6337519,44.1963323 C60.1224994,44.6850798 60.1224994,45.4750757 59.6337519,45.9638231 L45.9650731,59.6337519 C45.7313243,59.8687507 45.413826,60 45.0813277,60 Z" id="path-1"></path>
    </defs>
    <g id="Symbols" stroke="none" stroke-width="1" fill="none" fill-rule="evenodd">
        <g id="05_icons/property/size" transform="translate(-10.000000, -10.000000)">
            <g id="🎨Colour" transform="translate(10.000000, 10.000000)">
                <mask id="mask-2" fill="white">
                    <use xlink:href="#path-1"></use>
                </mask>
                <use id="Mask" fill="#000000" fill-rule="nonzero" xlink:href="#path-1"></use>
            </g>
        </g>
    </g>
</svg>