<?xml version="1.0" encoding="UTF-8"?>
<svg width="34px" height="61px" viewBox="0 0 34 61" version="1.1" xmlns="http://www.w3.org/2000/svg" xmlns:xlink="http://www.w3.org/1999/xlink">
    <!-- Generator: Sketch 49.3 (51167) - http://www.bohemiancoding.com/sketch -->
    <title>Mask</title>
    <desc>Created with Sketch.</desc>
    <defs>
        <path d="M17.05786,50.077884 C18.45782,50.077884 19.59632,51.199158 19.59632,52.577936 C19.59632,53.955465 18.45782,55.077988 17.05786,55.077988 C15.6579,55.077988 14.5194,53.955465 14.5194,52.577936 C14.5194,51.199158 15.6579,50.077884 17.05786,50.077884 Z M20.86555,8.82578 L13.25017,8.82578 C12.54955,8.82578 11.98094,8.26826 11.98094,7.577 C11.98094,6.88574 12.54955,6.32572 13.25017,6.32572 L20.86555,6.32572 C21.56617,6.32572 22.13478,6.88574 22.13478,7.577 C22.13478,8.26826 21.56617,8.82578 20.86555,8.82578 Z M31.0194,5.15945 C31.0194,3.73442 29.8809,2.5769 28.48094,2.5769 L5.634784,2.5769 C4.234823,2.5769 3.096323,3.73442 3.096323,5.15945 L3.096323,54.992987 C3.096323,56.418016 4.234823,57.576791 5.634784,57.576791 L28.48094,57.576791 C29.8809,57.576791 31.0194,56.418016 31.0194,54.992987 L31.0194,5.15945 Z M28.48094,60.0768426 L5.634784,60.0768426 C2.834861,60.0768426 0.5578613,57.798045 0.5578613,54.992987 L0.5578613,5.15945 C0.5578613,2.35689 2.834861,0.07559 5.634784,0.07559 L28.48094,0.07559 C31.28086,0.07559 33.55786,2.35689 33.55786,5.15945 L33.55786,54.992987 C33.55786,57.798045 31.28086,60.0768426 28.48094,60.0768426 Z" id="path-1"></path>
    </defs>
    <g id="Symbols" stroke="none" stroke-width="1" fill="none" fill-rule="evenodd">
        <g id="05_icons/devices/smartphone" transform="translate(-23.000000, -10.000000)">
            <g id="🎨Colour" transform="translate(23.000000, 10.000000)">
                <mask id="mask-2" fill="white">
                    <use xlink:href="#path-1"></use>
                </mask>
                <use id="Mask" fill="#000000" xlink:href="#path-1"></use>
            </g>
        </g>
    </g>
</svg>