<?xml version="1.0" encoding="UTF-8"?>
<svg width="19px" height="19px" viewBox="0 0 19 19" version="1.1" xmlns="http://www.w3.org/2000/svg" xmlns:xlink="http://www.w3.org/1999/xlink">
    <!-- Generator: Sketch 50.2 (55047) - http://www.bohemiancoding.com/sketch -->
    <title>⚙️ Icon</title>
    <desc>Created with Sketch.</desc>
    <defs>
        <filter x="-0.5%" y="-2.0%" width="102.0%" height="108.0%" filterUnits="objectBoundingBox" id="filter-1">
            <feOffset dx="1" dy="1" in="SourceAlpha" result="shadowOffsetOuter1"></feOffset>
            <feGaussianBlur stdDeviation="0.5" in="shadowOffsetOuter1" result="shadowBlurOuter1"></feGaussianBlur>
            <feColorMatrix values="0 0 0 0 0.141176471   0 0 0 0 0.141176471   0 0 0 0 0.141176471  0 0 0 0.2 0" type="matrix" in="shadowBlurOuter1" result="shadowMatrixOuter1"></feColorMatrix>
            <feMerge>
                <feMergeNode in="shadowMatrixOuter1"></feMergeNode>
                <feMergeNode in="SourceGraphic"></feMergeNode>
            </feMerge>
        </filter>
        <path d="M8.83341915,5.18298213 C8.772265,5.23975039 8.69490762,5.26800724 8.61755024,5.26800724 C8.53235258,5.26800724 8.44741626,5.23389537 8.3849554,5.16643533 L4.8092672,1.30492065 L4.8092672,15.1352477 C4.8092672,15.3108984 4.66709687,15.4534554 4.49199739,15.4534554 C4.31689791,15.4534554 4.1846586,15.3119166 4.1846586,15.1357568 L4.1846586,1.29371974 L0.598778036,5.16643533 C0.47934451,5.29524583 0.278894805,5.30262825 0.149791606,5.18298213 C0.021995119,5.06333602 0.0146775288,4.86197415 0.13358837,4.73290909 L4.25443705,0.282582796 C4.30984166,0.217159283 4.39216455,0.175919559 4.49199739,0.175919559 C4.58163787,0.175919559 4.66213136,0.214104489 4.71962672,0.274182112 C4.72119477,0.275709509 4.72276283,0.275964075 4.72433088,0.277491472 L8.84988373,4.73290909 C8.96931725,4.86197415 8.96173832,5.06333602 8.83341915,5.18298213" id="path-2"></path>
        <path d="M16.4288627,10.8936657 L12.3033098,15.3483196 C12.3020031,15.3495924 12.2999124,15.3503561 12.2986057,15.351629 C12.2756075,15.3753036 12.2476439,15.3928687 12.2183735,15.4089064 C12.2102719,15.4129794 12.204261,15.4203618 12.1958981,15.4236712 C12.1577421,15.440218 12.1154046,15.4498915 12.070715,15.4498915 C12.0265481,15.4498915 11.985256,15.4407271 11.9481454,15.4244349 C11.9071146,15.4068698 11.8692199,15.3816678 11.8386429,15.3483196 L7.71256732,10.8936657 C7.59339514,10.7651097 7.60097407,10.5634933 7.72929324,10.4441018 C7.85787376,10.3244557 8.05884615,10.3315835 8.17775699,10.4606486 L11.7652056,14.3341279 L11.7652056,0.494127308 C11.7652056,0.318222064 11.8956155,0.175919559 12.070715,0.175919559 C12.2458145,0.175919559 12.3879848,0.318222064 12.3879848,0.494127308 L12.3879848,14.3213996 L15.9639344,10.4606486 C16.0833679,10.3315835 16.2835562,10.3244557 16.4126594,10.4441018 C16.5407173,10.5634933 16.5477735,10.7651097 16.4288627,10.8936657" id="path-4"></path>
    </defs>
    <g id="↳-(W)_page.website.02.mlp.00" stroke="none" stroke-width="1" fill="none" fill-rule="evenodd">
        <g id="↳-(W)_page.website.02.mlp.01.01---Grid-View" transform="translate(-1555.000000, -237.000000)">
            <g id="elements/text-input/txt.btn.emptyIconButton.01.01-Copy" filter="url(#filter-1)" transform="translate(1393.000000, 220.000000)">
                <g id="05_icons/arrow/sort" transform="translate(158.000000, 13.000000)">
                    <g id="🎨Colour" transform="translate(4.062500, 4.687500)">
                        <mask id="mask-3" fill="white">
                            <use xlink:href="#path-2"></use>
                        </mask>
                        <use id="Mask" fill="#242424" xlink:href="#path-2"></use>
                        <mask id="mask-5" fill="white">
                            <use xlink:href="#path-4"></use>
                        </mask>
                        <use id="Mask" fill="#242424" xlink:href="#path-4"></use>
                        <g id="style-guide/colours/metro-black" mask="url(#mask-5)" fill="#242424">
                            <g transform="translate(-6.875000, -4.687500)" id="colour/metro-black">
                                <rect x="0" y="0" width="25" height="25"></rect>
                            </g>
                        </g>
                    </g>
                </g>
            </g>
        </g>
    </g>
</svg>