<?xml version="1.0" encoding="UTF-8"?>
<svg width="56px" height="54px" viewBox="0 0 56 54" version="1.1" xmlns="http://www.w3.org/2000/svg" xmlns:xlink="http://www.w3.org/1999/xlink">
    <!-- Generator: Sketch 49.3 (51167) - http://www.bohemiancoding.com/sketch -->
    <title>Mask</title>
    <desc>Created with Sketch.</desc>
    <defs>
        <path d="M11.287,53.548 C11.08,53.548 10.873,53.484 10.699,53.357 C10.391,53.133 10.237,52.754 10.302,52.379 L13.393,34.361 L0.302,21.602 C0.03,21.336 -0.068,20.939 0.049,20.578 C0.167,20.216 0.48,19.952 0.857,19.897 L18.947,17.268 L27.038,0.875 C27.206,0.533 27.554,0.317 27.934,0.317 C28.315,0.317 28.663,0.533 28.83,0.875 L36.92,17.268 L55.011,19.897 C55.388,19.952 55.7,20.215 55.819,20.578 C55.936,20.939 55.839,21.337 55.566,21.602 L42.475,34.363 L45.565,52.38 C45.629,52.755 45.475,53.134 45.168,53.358 C44.86,53.584 44.451,53.613 44.114,53.434 L27.934,44.928 L11.752,53.434 C11.606,53.51 11.446,53.548 11.287,53.548 Z M3.149,21.584 L15.165,33.297 C15.4,33.526 15.508,33.858 15.452,34.182 L12.615,50.72 L27.469,42.912 C27.76,42.758 28.107,42.758 28.4,42.912 L43.252,50.72 L40.416,34.182 C40.36,33.858 40.468,33.527 40.703,33.297 L52.719,21.584 L36.114,19.171 C35.788,19.124 35.507,18.919 35.361,18.624 L27.934,3.578 L20.507,18.625 C20.361,18.92 20.08,19.125 19.754,19.172 L3.149,21.584 Z M11.287,53.548 C11.08,53.548 10.873,53.484 10.699,53.357 C10.391,53.133 10.237,52.754 10.302,52.379 L13.393,34.361 L0.302,21.602 C0.03,21.336 -0.068,20.939 0.049,20.578 C0.167,20.216 0.48,19.952 0.857,19.897 L18.947,17.268 L27.038,0.875 C27.206,0.533 27.554,0.317 27.934,0.317 C28.315,0.317 28.663,0.533 28.83,0.875 L36.92,17.268 L55.011,19.897 C55.388,19.952 55.7,20.215 55.819,20.578 C55.936,20.939 55.839,21.337 55.566,21.602 L42.475,34.363 L45.565,52.38 C45.629,52.755 45.475,53.134 45.168,53.358 C44.86,53.584 44.451,53.613 44.114,53.434 L27.934,44.928 L11.752,53.434 C11.606,53.51 11.446,53.548 11.287,53.548 Z" id="path-1"></path>
    </defs>
    <g id="Symbols" stroke="none" stroke-width="1" fill="none" fill-rule="evenodd">
        <g id="05_icons/interface/star-ON" transform="translate(-12.000000, -13.000000)">
            <g id="🎨Colour" transform="translate(12.000000, 13.000000)">
                <mask id="mask-2" fill="white">
                    <use xlink:href="#path-1"></use>
                </mask>
                <use id="Mask" fill="#000000" fill-rule="nonzero" xlink:href="#path-1"></use>
            </g>
        </g>
    </g>
</svg>