<?xml version="1.0" encoding="UTF-8"?>
<svg width="35px" height="60px" viewBox="0 0 35 60" version="1.1" xmlns="http://www.w3.org/2000/svg" xmlns:xlink="http://www.w3.org/1999/xlink">
    <!-- Generator: Sketch 49.3 (51167) - http://www.bohemiancoding.com/sketch -->
    <title>Mask</title>
    <desc>Created with Sketch.</desc>
    <defs>
        <path d="M6.68416667,0 C2.98083333,0 0,3.0275 0,6.73666667 L0,39.5758333 C0,43.285 2.98083333,46.3133333 6.68416667,46.3133333 L7.15,46.3133333 C6.94083333,46.665 6.68416667,47.1108333 6.35833333,47.6741667 C5.63666667,48.895 4.705,50.5383333 3.77333333,52.1583333 C1.91,55.3975 0.0933333333,58.6133333 0.0933333333,58.6133333 C-0.0933333333,58.9183333 0.0233333333,59.3641667 0.325833333,59.5291667 C0.628333333,59.6941667 1.07166667,59.5758333 1.2575,59.27 C1.2575,59.27 2.25916667,57.51 2.725,56.6416667 L32.0941667,56.6416667 C32.5833333,57.51 33.585,59.27 33.585,59.27 C33.7475,59.5991667 34.1908333,59.7158333 34.4933333,59.5291667 C34.7958333,59.365 34.9125,58.9191667 34.75,58.6133333 C34.75,58.6133333 32.8866667,55.3975 31.0475,52.1583333 C30.1158333,50.5383333 29.1841667,48.895 28.485,47.6741667 C28.1591667,47.1108333 27.9033333,46.665 27.6933333,46.3133333 L28.1358333,46.3133333 C31.8391667,46.3133333 34.82,43.285 34.82,39.5758333 L34.82,6.73666667 C34.82,3.0275 31.8391667,0 28.1358333,0 L6.68416667,0 Z M6.68416667,1.315 L28.135,1.315 C31.1391667,1.315 33.515,3.7325 33.515,6.7375 L33.515,39.5758333 C33.515,42.58 31.1391667,44.975 28.135,44.975 L6.68416667,44.975 C3.70333333,44.975 1.3275,42.5808333 1.3275,39.5758333 L1.3275,6.73666667 C1.3275,3.7325 3.70333333,1.315 6.68416667,1.315 Z M4.1225,5.25833333 C3.82,5.305 3.58666667,5.61 3.58666667,5.91583333 L3.58666667,22.3941667 C3.58666667,22.7458333 3.88916667,23.0516667 4.23833333,23.0516667 L16.14,23.0516667 C16.4891667,23.0516667 16.8158333,22.7466667 16.8158333,22.3941667 L16.8158333,5.91583333 C16.8158333,5.56416667 16.49,5.25833333 16.14,5.25833333 L4.23833333,5.25833333 C4.215,5.25833333 4.215,5.25833333 4.19166667,5.25833333 C4.16833333,5.25833333 4.14583333,5.25833333 4.1225,5.25833333 Z M18.5633333,5.25833333 C18.2608333,5.305 18.0266667,5.61 18.0266667,5.91583333 L18.0266667,22.3941667 C18.0266667,22.7458333 18.3533333,23.0516667 18.68,23.0516667 L30.5808333,23.0516667 C30.93,23.0516667 31.2566667,22.7466667 31.2566667,22.3941667 L31.2566667,5.91583333 C31.2566667,5.56416667 30.93,5.25833333 30.5808333,5.25833333 L18.6791667,5.25833333 C18.6791667,5.25833333 18.6558333,5.25833333 18.6316667,5.25833333 C18.61,5.25833333 18.5858333,5.25833333 18.5633333,5.25833333 Z M4.91416667,6.5725 L15.4883333,6.5725 L15.4883333,21.7366667 L4.91416667,21.7366667 L4.91416667,6.5725 Z M19.355,6.5725 L29.9283333,6.5725 L29.9283333,21.7366667 L19.355,21.7366667 L19.355,6.5725 Z M8.5475,30.5858333 C6.335,30.5858333 4.54083333,32.4166667 4.54083333,34.6225 C4.54083333,36.8525 6.33416667,38.66 8.5475,38.66 C10.76,38.66 12.5533333,36.8525 12.5533333,34.6225 C12.5533333,32.4166667 10.76,30.5858333 8.5475,30.5858333 Z M26.295,30.5858333 C24.0825,30.5858333 22.2658333,32.4166667 22.2658333,34.6225 C22.2658333,36.8525 24.0825,38.66 26.295,38.66 C28.4841667,38.66 30.2775,36.8525 30.2775,34.6225 C30.2775,32.4166667 28.4841667,30.5858333 26.295,30.5858333 Z M8.5475,31.9233333 C10.0383333,31.9233333 11.2258333,33.1208333 11.2258333,34.6225 C11.2258333,36.1241667 10.0383333,37.3458333 8.5475,37.3458333 C7.05666667,37.3458333 5.86916667,36.125 5.86916667,34.6225 C5.86916667,33.12 7.05666667,31.9233333 8.5475,31.9233333 Z M26.295,31.9233333 C27.7625,31.9233333 28.9508333,33.1208333 28.9508333,34.6225 C28.9508333,36.1241667 27.7625,37.3458333 26.295,37.3458333 C24.805,37.3458333 23.5933333,36.125 23.5933333,34.6225 C23.5933333,33.12 24.805,31.9233333 26.295,31.9233333 Z M8.66416667,46.3133333 L26.155,46.3133333 C26.1783333,46.3133333 26.1783333,46.3358333 26.2025,46.3833333 C26.2725,46.4766667 26.365,46.6416667 26.4591667,46.8291667 C26.6916667,47.1816667 26.995,47.7208333 27.3441667,48.3316667 C27.5766667,48.7541667 27.9266667,49.3883333 28.23,49.905 L6.61416667,49.905 C6.89333333,49.3883333 7.2425,48.7541667 7.49916667,48.3316667 C7.84833333,47.7216667 8.15083333,47.1816667 8.36083333,46.8291667 C8.4775,46.6408333 8.5475,46.4766667 8.61666667,46.3833333 C8.64083333,46.3358333 8.66416667,46.3133333 8.66416667,46.3133333 Z M5.84583333,51.2183333 L28.9966667,51.2183333 C29.3233333,51.7816667 29.5783333,52.2508333 29.905,52.8141667 C30.6266667,54.0816667 30.7208333,54.27 31.3258333,55.3266667 L3.49333333,55.3266667 C4.09916667,54.27 4.215,54.0825 4.9375,52.8141667 C5.26333333,52.2516667 5.52,51.7816667 5.84583333,51.2183333 Z" id="path-1"></path>
    </defs>
    <g id="Symbols" stroke="none" stroke-width="1" fill="none" fill-rule="evenodd">
        <g id="05_icons/poi/train" transform="translate(-23.000000, -10.000000)">
            <g id="🎨Colour" transform="translate(23.000000, 10.000000)">
                <mask id="mask-2" fill="white">
                    <use xlink:href="#path-1"></use>
                </mask>
                <use id="Mask" fill="#000000" fill-rule="nonzero" xlink:href="#path-1"></use>
            </g>
        </g>
    </g>
</svg>