<?xml version="1.0" encoding="UTF-8"?>
<svg width="25px" height="32px" viewBox="0 0 25 32" version="1.1" xmlns="http://www.w3.org/2000/svg" xmlns:xlink="http://www.w3.org/1999/xlink">
    <!-- Generator: Sketch 51.1 (57501) - http://www.bohemiancoding.com/sketch -->
    <title>noun_transport_1467298</title>
    <desc>Created with Sketch.</desc>
    <defs></defs>
    <g id="↳-(W)_page.website.03.ipp.00" stroke="none" stroke-width="1" fill="none" fill-rule="evenodd">
        <g id="↳-(W)_page.website.03.ipp.01.01---Landing-with-maps" transform="translate(-195.000000, -4710.000000)" fill="#242424" fill-rule="nonzero">
            <g id="Group-3" transform="translate(21.000000, 4594.000000)">
                <g id="noun_transport_1467298" transform="translate(174.000000, 116.000000)">
                    <path d="M21.9117037,28.2524444 C22.2866173,28.2524444 23.3979259,28.1868642 24.1718519,27.4579753 C24.684642,26.9748148 24.9441975,26.310321 24.9438025,25.4818765 L24.9426173,6.56671605 C24.947358,6.50508642 25.0441481,5.03822222 23.660642,3.54330864 C21.7272099,1.45422222 18.0207407,0.394666667 12.6439506,0.394666667 C7.24859259,0.394666667 3.53619753,1.45619753 1.6102716,3.54844444 C0.23545679,5.0425679 0.340148148,6.50706173 0.343703704,6.53590123 L0.343703704,25.9843951 C0.343703704,27.2335802 1.35980247,28.249679 2.60898765,28.249679 L4.68898765,28.249679 L2.30834568,31.3564444 C2.17560494,31.5294815 2.20879012,31.7775802 2.38182716,31.910321 C2.4537284,31.9652346 2.5382716,31.9917037 2.62202469,31.9917037 C2.74054321,31.9917037 2.85787654,31.9383704 2.9357037,31.8368395 L3.82380247,30.6777284 L21.4629136,30.6777284 L22.3510123,31.8368395 C22.4288395,31.9383704 22.5461728,31.9917037 22.6646914,31.9917037 C22.7484444,31.9917037 22.8329877,31.9652346 22.9048889,31.910321 C23.0779259,31.7775802 23.110716,31.5294815 22.9783704,31.3564444 L20.5973333,28.2488889 L21.7844938,28.2488889 C21.7939753,28.2500741 21.8390123,28.2524444 21.9117037,28.2524444 Z M1.13264198,8.80316049 L24.153284,8.80316049 L24.153284,17.5356049 L1.13303704,17.5356049 L1.13264198,8.80316049 Z M2.19140741,4.08375309 C3.40859259,2.76108642 6.20958025,1.18479012 12.6435556,1.18479012 C19.0245926,1.18479012 21.8283457,2.74528395 23.0565926,4.05451852 C24.217679,5.29224691 24.1572346,6.45925926 24.153284,6.5362963 L24.153284,8.01303704 L1.13264198,8.01303704 L1.13264198,6.50350617 C1.13145679,6.49204938 1.04888889,5.3254321 2.19140741,4.08375309 Z M1.13382716,25.9843951 L1.1334321,18.3257284 L24.1532846,18.3257284 L24.153284,25.4818765 L24.153284,25.4822716 C24.153679,26.0823704 23.9786667,26.5520988 23.6329877,26.8792099 C22.9609877,27.5152593 21.8417778,27.4619259 21.8081975,27.4595556 L2.60898765,27.4595556 C1.79555556,27.4599506 1.13382716,26.7982222 1.13382716,25.9843951 Z M20.857679,29.8883951 L4.4294321,29.8883951 L5.68493827,28.249679 L19.6017778,28.249284 L20.857679,29.8883951 Z" id="Shape"></path>
                    <path d="M5.79832099,20.5677037 C4.60404938,20.5677037 3.63219753,21.5395556 3.63219753,22.7338272 C3.63219753,23.9280988 4.60365432,24.8995556 5.79832099,24.8995556 C6.99259259,24.8995556 7.96404938,23.9280988 7.96404938,22.7338272 C7.96404938,21.5395556 6.99259259,20.5677037 5.79832099,20.5677037 Z M5.79832099,24.1098272 C5.03980247,24.1098272 4.42232099,23.4927407 4.42232099,22.7342222 C4.42232099,21.9753086 5.03940741,21.3582222 5.79832099,21.3582222 C6.55723457,21.3582222 7.17392593,21.9753086 7.17392593,22.7342222 C7.17392593,23.4927407 6.55683951,24.1098272 5.79832099,24.1098272 Z" id="Shape"></path>
                    <path d="M19.436642,20.5677037 C18.2423704,20.5677037 17.2709136,21.5395556 17.2709136,22.7338272 C17.2709136,23.9280988 18.2423704,24.8995556 19.436642,24.8995556 C20.6309136,24.8995556 21.6027654,23.9280988 21.6027654,22.7338272 C21.6027654,21.5395556 20.6313086,20.5677037 19.436642,20.5677037 Z M19.436642,24.1098272 C18.6781235,24.1098272 18.061037,23.4927407 18.061037,22.7342222 C18.061037,21.9753086 18.6781235,21.3582222 19.436642,21.3582222 C20.1951605,21.3582222 20.812642,21.9753086 20.812642,22.7342222 C20.812642,23.4927407 20.1955556,24.1098272 19.436642,24.1098272 Z" id="Shape"></path>
                    <path d="M9.66123457,6.31348148 L15.6258765,6.31348148 C16.4207407,6.31348148 17.0674568,5.66637037 17.0674568,4.87150617 L17.0674568,4.76523457 C17.0674568,3.96997531 16.4207407,3.32365432 15.6258765,3.32365432 L9.66123457,3.32365432 C8.86597531,3.32365432 8.21925926,3.97037037 8.21925926,4.76523457 L8.21925926,4.87150617 C8.21925926,5.66676543 8.86597531,6.31348148 9.66123457,6.31348148 Z M9.00938272,4.76523457 C9.00938272,4.40612346 9.3017284,4.11377778 9.66123457,4.11377778 L15.6258765,4.11377778 C15.9853827,4.11377778 16.2773333,4.40612346 16.2773333,4.76523457 L16.2773333,4.87150617 C16.2773333,5.23101235 15.9849877,5.52335802 15.6258765,5.52335802 L9.66123457,5.52335802 C9.3017284,5.52335802 9.00938272,5.23101235 9.00938272,4.87150617 L9.00938272,4.76523457 Z" id="Shape"></path>
                </g>
            </g>
        </g>
    </g>
</svg>