<?xml version="1.0" encoding="UTF-8"?>
<svg width="47px" height="60px" viewBox="0 0 47 60" version="1.1" xmlns="http://www.w3.org/2000/svg" xmlns:xlink="http://www.w3.org/1999/xlink">
    <!-- Generator: Sketch 49.3 (51167) - http://www.bohemiancoding.com/sketch -->
    <title>Mask</title>
    <desc>Created with Sketch.</desc>
    <defs>
        <path d="M32.7926267,59.9447005 L12.5806452,59.9447005 C8.37788018,59.9447005 4.94930876,56.516129 4.94930876,52.3133641 L4.94930876,17.281106 C4.94930876,16.3686636 5.69585253,15.6221198 6.60829493,15.6221198 C7.52073733,15.6221198 8.26728111,16.3686636 8.26728111,17.281106 L8.26728111,52.3410138 C8.26728111,54.718894 10.202765,56.6543779 12.5806452,56.6543779 L32.7926267,56.6543779 C35.1705069,56.6543779 37.1059908,54.718894 37.1059908,52.3410138 L37.1059908,17.281106 C37.1059908,16.3686636 37.8525346,15.6221198 38.764977,15.6221198 C39.6774194,15.6221198 40.4239631,16.3686636 40.4239631,17.281106 L40.4239631,52.3410138 C40.3963134,56.5437788 36.9953917,59.9447005 32.7926267,59.9447005 Z M17.1428571,51.6774194 C16.2304147,51.6774194 15.483871,50.9308756 15.483871,50.0184332 L15.483871,16.8387097 C15.483871,15.9262673 16.2304147,15.1797235 17.1428571,15.1797235 C18.0552995,15.1797235 18.8018433,15.9262673 18.8018433,16.8387097 L18.8018433,50.0184332 C18.8018433,50.9308756 18.0552995,51.6774194 17.1428571,51.6774194 Z M29.3087558,51.6774194 C28.3963134,51.6774194 27.6497696,50.9308756 27.6497696,50.0184332 L27.6497696,16.8387097 C27.6497696,15.9262673 28.3963134,15.1797235 29.3087558,15.1797235 C30.2211982,15.1797235 30.9677419,15.9262673 30.9677419,16.8387097 L30.9677419,50.0184332 C30.9677419,50.9308756 30.2211982,51.6774194 29.3087558,51.6774194 Z M45.1520737,10.1474654 C44.875576,10.0645161 39.5668203,8.62672811 31.2718894,7.96313364 C30.8847926,3.53917051 27.1797235,0.0829493088 22.6728111,0.0829493088 C18.1382488,0.0829493088 14.40553,3.59447005 14.0737327,8.04608295 C6.33179724,8.73732719 1.57603687,10.0921659 1.29953917,10.1751152 C0.414746544,10.4239631 -0.0829493088,11.3364055 0.165898618,12.2211982 C0.414746544,13.1059908 1.35483871,13.6036866 2.21198157,13.3548387 C2.29493088,13.3271889 10.6451613,10.9769585 23.0322581,10.9769585 C35.4193548,10.9769585 44.1843318,13.3271889 44.2672811,13.3548387 C44.40553,13.4101382 44.5714286,13.4101382 44.7096774,13.4101382 C45.4285714,13.4101382 46.0921659,12.9124424 46.3133641,12.1935484 C46.562212,11.3087558 46.0368664,10.3963134 45.1520737,10.1474654 Z M23.0599078,7.63133641 C21.0967742,7.63133641 19.2165899,7.68663594 17.4470046,7.76958525 C17.8894009,5.28110599 20.0460829,3.37327189 22.6728111,3.37327189 C25.2718894,3.37327189 27.4562212,5.25345622 27.8986175,7.74193548 C26.3778802,7.68663594 24.7465438,7.63133641 23.0599078,7.63133641 Z" id="trash"></path>
    </defs>
    <g id="Symbols" stroke="none" stroke-width="1" fill="none" fill-rule="evenodd">
        <g id="05_icons/interface/delete" transform="translate(-17.000000, -10.000000)">
            <g id="🎨Colour" transform="translate(17.000000, 10.000000)">
                <mask id="mask-2" fill="white">
                    <use xlink:href="#trash"></use>
                </mask>
                <use id="Mask" fill="#000000" fill-rule="nonzero" xlink:href="#trash"></use>
            </g>
        </g>
    </g>
</svg>