<?xml version="1.0" encoding="UTF-8"?>
<svg width="28px" height="23px" viewBox="0 0 28 23" version="1.1" xmlns="http://www.w3.org/2000/svg" xmlns:xlink="http://www.w3.org/1999/xlink">
    <!-- Generator: Sketch 49.3 (51167) - http://www.bohemiancoding.com/sketch -->
    <title>iconTwitter</title>
    <desc>Created with Sketch.</desc>
    <defs></defs>
    <g id="Symbols" stroke="none" stroke-width="1" fill="none" fill-rule="evenodd">
        <g id="00_elements/buttons/btn.socialTwitter.01" transform="translate(-22.000000, -11.000000)" fill="#FFFFFF" fill-rule="nonzero">
            <path d="M50,13.7212619 C48.9694428,14.1830487 47.8636697,14.4962273 46.7018508,14.6360449 C47.8881469,13.9176636 48.7962268,12.77821 49.2266131,11.4246347 C48.1138401,12.089902 46.8855439,12.5729715 45.5767706,12.8348404 C44.5287362,11.7042237 43.0380082,11 41.3845415,11 C38.2123925,11 35.6403687,13.6009688 35.6403687,16.8070583 C35.6403687,17.2617663 35.6911073,17.7058793 35.7891075,18.1305603 C31.0160147,17.8881234 26.7835699,15.5755805 23.9508529,12.0615869 C23.4556821,12.9179814 23.1739888,13.9158592 23.1739888,14.9810548 C23.1739888,16.9963811 24.1888075,18.7745912 25.7285355,19.8149417 C24.7871941,19.7831103 23.9018528,19.5212414 23.1267731,19.0859653 L23.1267731,19.1585113 C23.1267731,21.9717975 25.1074103,24.3197343 27.7336499,24.8541134 C27.2524792,24.9850478 26.7450927,25.0575939 26.2201834,25.0575939 C25.8492743,25.0575939 25.4905809,25.0204418 25.1388875,24.9496539 C25.8702285,27.2586805 27.990866,28.9377875 30.5034126,28.9838228 C28.538514,30.5408785 26.0609674,31.4662566 23.3699892,31.4662566 C22.9063414,31.4662566 22.4496478,31.4379414 22,31.3866318 C24.5422852,33.0374699 27.5604797,34 30.8043673,34 C41.370633,34 47.1463287,25.1496181 47.1463287,17.4741299 L47.1270672,16.7221591 C48.2555788,15.908191 49.2318746,14.8855143 50,13.7212619 Z" id="iconTwitter"></path>
        </g>
    </g>
</svg>