<?xml version="1.0" encoding="UTF-8"?>
<svg width="73px" height="63px" viewBox="0 0 73 63" version="1.1" xmlns="http://www.w3.org/2000/svg" xmlns:xlink="http://www.w3.org/1999/xlink">
    <!-- Generator: Sketch 51.2 (57519) - http://www.bohemiancoding.com/sketch -->
    <title>Mask</title>
    <desc>Created with Sketch.</desc>
    <defs>
        <path d="M16.355883,14.4959362 L16.9468723,13.5523723 L18.3812447,14.2536383 L17.7710298,15.2341744 L19.7247553,16.2533723 L18.4495851,18.6165532 L18.0045957,18.837883 L16.2890957,17.950234 L18.4837553,16.8622234 L16.355883,15.7982872 L14.2070426,16.8723191 L12.9272128,16.209883 L16.355883,14.4959362 Z M47.9128511,32.7909787 L51.7383617,34.6773298 L50.2822447,35.6915638 L46.4575106,33.8052128 L47.9128511,32.7909787 Z M31.8458617,47.9633298 L31.8505213,46.2346277 L34.6882021,47.6332766 L34.682766,49.3619787 L31.8458617,47.9633298 Z M27.1870638,45.6677128 L27.1925,43.938234 L30.0604681,45.3516383 L30.0550319,47.081117 L27.1870638,45.6677128 Z M22.4304149,43.3231702 L22.4350745,41.5936915 L25.4016702,43.0560213 L25.3970106,44.7855 L22.4304149,43.3231702 Z M27.1723085,50.9439043 L27.1777447,49.2159787 L30.0449362,50.6247234 L30.0402766,52.3526489 L27.1723085,50.9439043 Z M17.8026809,41.0415319 L17.8073404,39.3128298 L20.6450213,40.7114787 L20.6395851,42.4401809 L17.8026809,41.0415319 Z M22.4156596,48.6086809 L22.4203191,46.8807553 L25.3869149,48.3368723 L25.3822553,50.0647979 L22.4156596,48.6086809 Z M8.51614894,36.4642766 L8.52080851,34.7347979 L11.3584894,36.1342234 L11.3538298,37.8629255 L8.51614894,36.4642766 Z M13.1601915,33.1210319 L13.1648511,31.3915532 L16.0328191,32.805734 L16.0281596,34.5352128 L13.1601915,33.1210319 Z M17.7871489,46.3355851 L17.7925851,44.6076596 L20.6294894,46.0008723 L20.6248298,47.7295745 L17.7871489,46.3355851 Z M13.1291277,44.0485106 L13.1337872,42.3205851 L16.0017553,43.7285532 L15.9970957,45.4564787 L13.1291277,44.0485106 Z M31.8311064,53.2317553 L31.835766,51.5038298 L34.6734468,52.8970426 L34.6680106,54.6249681 L31.8311064,53.2317553 Z M22.4459468,37.6998404 L22.451383,35.9703617 L25.4179787,37.4334681 L25.4133191,39.1621702 L25.0475426,38.982 L22.4459468,37.6998404 Z M13.143883,38.7459149 L13.1493191,37.0164362 L16.0172872,38.4298404 L16.0118511,40.1593191 L13.143883,38.7459149 Z M8.50061702,41.7761915 L8.50605319,40.048266 L11.343734,41.4414787 L11.3390745,43.1694043 L8.50061702,41.7761915 Z M27.2033723,40.0451596 L27.2080319,38.3156809 L30.076,39.7298617 L30.0713404,41.4593404 L27.2033723,40.0451596 Z M17.8182128,35.4174255 L17.8236489,33.6887234 L20.6605532,35.0873723 L20.6558936,36.8168511 L17.8182128,35.4174255 Z M36.4588404,55.5040745 L36.4635,53.7761489 L39.4588298,55.2470213 L39.4541702,56.9749468 L36.4588404,55.5040745 Z M43.8271809,57.3104362 L43.8225213,59.0383617 L40.8271915,57.5674894 L40.8318511,55.8395638 L43.8271809,57.3104362 Z M36.4735957,50.2449681 L36.4782553,48.5154894 L39.4743617,49.9917979 L39.4689255,51.7212766 L36.4735957,50.2449681 Z M31.8613936,42.3423298 L31.8668298,40.6128511 L34.703734,42.0122766 L34.6990745,43.7409787 L31.8613936,42.3423298 Z M36.4891277,44.6239681 L36.4945638,42.8944894 L39.4898936,44.3715745 L39.485234,46.1010532 L36.4891277,44.6239681 Z M4.74888298,38.1976383 L5.6575,38.649617 L6.7152234,39.1691596 L6.71056383,40.8970851 L6.0582234,40.5763511 L5.97279787,40.5344149 L5.97279787,41.902 L4.01888298,42.879734 L2.06574468,41.902 L2.06574468,38.5944787 L0.73543617,37.9289362 L0.73543617,35.2690957 L2.28862766,36.0286064 L2.28862766,36.9690638 L2.95882979,37.3045532 L2.95417021,39.0006383 L4.7442234,39.8898404 L4.74888298,38.1976383 Z M5.6575,32.5432447 L5.6575,33.3237234 L6.73075532,33.8525851 L6.72531915,35.5820638 L4.10430851,34.2898085 L4.10430851,33.1109362 L4.10430851,31.783734 L5.6575,32.5432447 Z M2.28862766,30.8960851 L2.28862766,34.2781596 L0.73543617,33.5186489 L0.73543617,30.1365745 L2.28862766,30.8960851 Z M45.4269681,54.6614681 L43.8737766,53.8926383 L41.2597553,52.6034894 L41.2644149,50.8747872 L43.8737766,52.1608298 L43.8737766,51.169117 L45.4269681,51.9286277 L45.4269681,54.6614681 Z M46.5949681,55.2470213 L46.5965213,52.5002021 L47.8064574,53.0919681 L47.8064574,55.8395638 L46.5949681,55.2470213 Z M58.7090851,39.5131915 L58.7145213,41.2387872 L55.9110106,42.6273404 L55.9055745,40.9071809 L58.7090851,39.5131915 Z M47.8064574,58.7906277 L49.2082128,58.0963511 L49.2128723,59.8623298 L47.2434255,60.8423936 L46.8978404,60.6699894 L46.8131915,60.6272766 L46.8131915,62.0647553 L44.8592766,63.0424894 L42.9053617,62.0647553 L42.9053617,58.6345319 L45.3842553,59.8770851 L45.3889149,58.1724574 L46.5934149,58.7743191 L46.5941915,56.9966915 L47.8064574,57.5900106 L47.8064574,58.7906277 Z M54.1155213,41.7979362 L54.1201809,43.5134362 L50.9640957,45.0767234 L50.9594362,43.3682128 L54.1155213,41.7979362 Z M55.9451809,54.7608723 L58.7486915,53.3730957 L58.7533511,55.1126702 L55.9498404,56.5082128 L55.9451809,54.7608723 Z M65.2565638,50.1269255 L67.7214787,48.8921383 L67.7261383,50.6278298 L65.2612234,51.862617 L65.2565638,50.1269255 Z M63.4665106,51.0238936 L63.4711702,52.7588085 L63.1380106,52.9257766 L63.1418936,52.928883 L60.5441809,54.2219149 L60.5387447,52.4862234 L61.2835,52.118117 L63.4665106,51.0238936 Z M50.998266,57.2102553 L54.1543511,55.6477447 L54.1597872,57.3997447 L51.0037021,58.9707979 L50.998266,57.2102553 Z M49.9514149,11.3996489 L48.4968511,12.4123298 L44.5144681,10.4382234 L45.9690319,9.42554255 L49.9514149,11.3996489 Z M38.645734,5.79573404 L37.1903936,6.80841489 L33.7438617,5.09990426 L35.1992021,4.0872234 L38.645734,5.79573404 Z M44.0461809,8.47265957 L42.591617,9.48534043 L39.1132447,7.76129787 L40.5678085,6.74861702 L44.0461809,8.47265957 Z M61.291266,17.0206489 L59.8367021,18.0325532 L56.3319255,16.2960851 L57.7864894,15.2834043 L61.291266,17.0206489 Z M55.8644149,14.3305213 L54.4090745,15.3424255 L50.4189255,13.3652128 L51.874266,12.3525319 L55.8644149,14.3305213 Z M64.7502234,21.243 L63.294883,22.2556809 L59.6526489,20.4516489 L61.1079894,19.4389681 L64.7502234,21.243 Z M54.2242447,17.7630745 L55.6788085,16.7503936 L59.1843617,18.4868617 L57.7297979,19.4995426 L54.2242447,17.7630745 Z M48.3096915,14.8329787 L49.7650319,13.8202979 L53.7559574,15.7975106 L52.300617,16.8101915 L48.3096915,14.8329787 Z M66.8555745,19.7783404 L65.400234,20.7902447 L61.7595532,18.9854362 L63.214117,17.9735319 L66.8555745,19.7783404 Z M43.8582447,10.8948617 L47.8414043,12.8681915 L46.3868404,13.8808723 L42.4029043,11.9075426 L43.8582447,10.8948617 Z M31.6299681,6.57155319 L33.0853085,5.55887234 L36.532617,7.26660638 L35.0772766,8.27928723 L31.6299681,6.57155319 Z M37.0009043,9.23139362 L38.4554681,8.21871277 L41.934617,9.94197872 L40.4800532,10.9546596 L37.0009043,9.23139362 Z M14.3864362,18.8937979 L16.1058191,19.783 L13.8824255,20.8904255 L12.1591596,19.998117 L14.3864362,18.8937979 Z M8.19852128,19.8769681 L5.64274468,21.1544681 L4.3621383,20.4920319 L6.91869149,19.2145319 L8.19852128,19.8769681 Z M3.74707447,22.1019149 L2.03545745,22.9585 L0.73543617,22.3061596 L2.46724468,21.4394787 L3.74707447,22.1019149 Z M7.69062766,22.2145213 L10.2565,20.9416809 L11.9828723,21.8355426 L9.42165957,23.1107128 L7.69062766,22.2145213 Z M12.3121489,17.819766 L10.0934149,18.9295213 L8.81358511,18.2670851 L11.0323191,17.1573298 L12.3121489,17.819766 Z M16.7535,22.3480957 L18.5287979,23.2046809 L16.0980532,24.4153936 L14.3243085,23.5595851 L16.7535,22.3480957 Z M14.1588936,25.3807021 L11.3693617,26.7700319 L9.5987234,25.9157766 L12.3867021,24.5256702 L14.1588936,25.3807021 Z M2.28862766,27.4293617 L2.28862766,29.1456383 L0.73543617,28.3861277 L0.73543617,26.6698511 L2.28862766,27.4293617 Z M9.43097872,27.736117 L7.60054255,28.6478404 L11.3747979,30.5085638 L11.3701383,32.2380426 L5.6575,29.4213298 L5.6575,30.6033085 L5.6575,30.7927979 L4.10430851,30.0332872 L4.10430851,28.648617 L4.10430851,25.7293936 L2.28862766,24.8215532 L2.28862766,25.6789149 L0.73543617,24.9201809 L0.73543617,22.3084894 L4.10430851,23.9929255 L5.78796809,23.1580851 L7.52210638,24.0558298 L5.6575,24.9846383 L5.6575,27.8813404 L7.66111702,26.8818617 L9.43097872,27.736117 Z M47.8064574,49.4714787 L47.8064574,51.3415213 L46.5972979,50.7497553 L46.5980745,48.8804894 L47.8064574,49.4714787 Z M71.386234,32.5471277 L71.386234,29.5758723 L72.9394255,28.8163617 L72.9394255,31.787617 L71.386234,32.5471277 Z M46.7953298,42.0697447 L48.7461383,41.0896809 L49.8846277,41.8220106 L47.9338191,42.8020745 L46.7953298,42.0697447 Z M53.5843298,39.9628404 L51.6560426,40.9312553 L50.5183298,40.1989255 L52.446617,39.2305106 L53.5843298,39.9628404 Z M71.386234,47.0554894 L71.386234,44.3645851 L72.9394255,43.6050745 L72.9394255,48.0169149 L71.8413191,48.5675213 L71.7558936,48.6094574 L71.7558936,50.4313511 L69.8027553,51.4083085 L67.8643723,50.439117 L69.5161915,49.6120426 L69.5115319,47.9943936 L71.386234,47.0554894 Z M71.386234,42.6141383 L71.386234,39.1909043 L72.9394255,38.4313936 L72.9394255,41.8546277 L71.386234,42.6141383 Z M71.386234,37.4404574 L71.386234,34.2975745 L72.9394255,33.5380638 L72.9394255,36.6809468 L71.386234,37.4404574 Z M47.8064574,46.6400106 L47.8064574,47.7210319 L46.5996277,47.1308191 L46.5996277,46.6268085 L45.4269681,46.0505745 L45.4269681,50.1781809 L43.8737766,49.4186702 L43.8737766,48.2654255 L41.2752872,46.9840426 L41.2799468,45.2545638 L43.8698936,46.5312872 L43.8737766,46.529734 L43.8737766,43.536734 L45.0231383,42.9597234 L46.1624043,43.6928298 L45.1761277,44.1882979 L47.2379894,45.219617 L49.1686064,44.2589681 L49.1740426,45.9628191 L47.8064574,46.6400106 Z M68.1245319,28.7899574 L67.0070106,30.700383 L65.6114681,30.0177553 L66.7289894,28.1081064 L68.1245319,28.7899574 Z M64.2299043,31.4086383 L62.9011489,33.5419468 L61.4722128,32.8430106 L62.8071809,30.7128085 L64.2299043,31.4086383 Z M64.6710106,31.6245319 L66.0681064,32.3071596 L64.8022553,34.4715319 L63.404383,33.7881277 L64.6710106,31.6245319 Z M68.7776489,20.7312234 L72.9394255,22.7938617 L72.9394255,27.0659149 L71.386234,27.8254255 L71.386234,24.9481383 L70.1095106,25.3946809 L69.0642128,27.1831809 L67.6694468,26.5013298 L68.612234,24.8898936 L68.3652766,24.7671915 L67.375117,26.3576596 L65.9671489,25.6688191 L66.9666277,24.0744681 L65.217734,23.2085638 L66.6730745,22.195883 L68.6254362,23.1627447 L69.4136809,22.779883 L67.3230851,21.7431277 L68.7776489,20.7312234 Z M63.798117,29.130883 L64.9762128,27.2507447 L66.3888404,27.9411383 L65.2161809,29.824383 L63.798117,29.130883 Z M26.8135213,8.1946383 L25.8986915,10.4172553 L24.5008191,9.73307447 L25.4156489,7.51045745 L26.8135213,8.1946383 Z M22.3550851,8.68389362 L23.5704574,6.60805319 L24.9652234,7.29068085 L23.7514043,9.36652128 L22.3550851,8.68389362 Z M25.1912128,12.1366383 L24.0325319,14.9517979 L22.6346596,14.267617 L23.7925638,11.453234 L25.1912128,12.1366383 Z M23.242734,6.44807447 L21.9683404,8.49440426 L20.5510532,7.80168085 L21.8316596,5.75768085 L23.242734,6.44807447 Z M18.9365106,14.5254468 L20.3351596,15.2096277 L19.7247553,16.2533723 L18.3462979,15.5342447 L18.9365106,14.5254468 Z M20.9820638,10.0786596 L19.3675213,12.6701596 L17.9378085,11.9712234 L19.560117,9.38282979 L20.9820638,10.0786596 Z M19.8769681,12.9186702 L21.4154043,10.2906702 L22.8117234,10.9732979 L21.2748404,13.6028511 L19.8769681,12.9186702 Z M61.765766,36.5885319 L61.1910851,36.288766 L61.9148723,35.1262021 L60.4812766,34.4249362 L59.7753511,35.551 L59.7737979,35.5502234 L58.5273617,36.1761596 L59.6642979,36.9077128 L59.7745745,36.8525745 L61.911766,37.9211702 L60.5006915,38.6232128 L60.5053511,40.3534681 L61.5894787,39.8168404 L63.1418936,37.3099894 L63.1434468,37.310766 L63.8633511,36.0790851 L62.4647021,35.3949043 L61.765766,36.5885319 Z M63.1395638,37.3084362 L63.0479255,37.3542553 L63.1395638,37.3084362 Z M25.1609255,3.36654255 L24.2290106,4.86381915 L22.8225957,4.17653191 L23.7638298,2.67459574 L28.0848085,0.561478723 L29.9797021,1.50038298 L28.5033936,2.50219149 L28.0801489,2.29251064 L27.2810319,2.68391489 L31.1624574,4.60598936 L29.707117,5.61867021 L28.1842128,4.86459574 L27.5217766,6.47447872 L26.1231277,5.79029787 L26.7886702,4.17342553 L26.7886702,4.17264894 L25.9049043,5.68390426 L24.5109149,5.00205319 L25.3985638,3.48458511 L25.1609255,3.36654255 Z M33.2763511,3.13434043 L31.8217872,4.14702128 L30.4239149,3.45429787 L31.9002234,2.45248936 L33.2763511,3.13434043 Z M45.9884468,31.8419787 L44.5323298,32.8562128 L41.7008617,31.4598936 L43.1569787,30.4456596 L45.9884468,31.8419787 Z M37.3418298,27.5784681 L41.2317979,29.4966596 L39.7764574,30.5108936 L35.8864894,28.5927021 L37.3418298,27.5784681 Z M29.5766489,23.7498511 L28.1205319,24.7640851 L25.1438404,23.2955426 L26.5991809,22.2820851 L29.5766489,23.7498511 Z M30.0457128,25.7130851 L31.5010532,24.6988511 L35.4174255,26.6294681 L33.9613085,27.6437021 L30.0457128,25.7130851 Z M56.7543936,37.0661383 L57.8913298,37.7976915 L55.3557447,39.0720851 L54.2188085,38.3397553 L54.9293936,37.9825213 L52.2074255,36.6405638 L53.662766,35.6263298 L56.6689681,37.1088511 L56.7543936,37.0661383 Z M24.6747766,21.3330851 L23.2194362,22.3465426 L21.7275957,21.6111064 L20.4679574,22.2385957 L18.6911064,21.381234 L19.969383,20.7444255 L21.9264043,15.9877766 L23.3250532,16.6711809 L21.9574681,19.9934574 L24.6747766,21.3330851 Z" id="path-1"></path>
    </defs>
    <g id="Symbols" stroke="none" stroke-width="1" fill="none" fill-rule="evenodd">
        <g id="05_icons/isometric/unfurnished" transform="translate(-4.000000, -11.000000)">
            <g id="🎨Icon-Colour" transform="translate(4.000000, 11.000000)">
                <mask id="mask-2" fill="white">
                    <use xlink:href="#path-1"></use>
                </mask>
                <use id="Mask" fill="#000000" fill-rule="nonzero" xlink:href="#path-1"></use>
            </g>
        </g>
    </g>
</svg>