<?xml version="1.0" encoding="UTF-8"?>
<svg width="61px" height="51px" viewBox="0 0 61 51" version="1.1" xmlns="http://www.w3.org/2000/svg" xmlns:xlink="http://www.w3.org/1999/xlink">
    <!-- Generator: Sketch 49.3 (51167) - http://www.bohemiancoding.com/sketch -->
    <title>Upload</title>
    <defs>
        <path d="M21.6882833,34.67955 C21.1995333,34.19205 21.1995333,33.4008 21.6882833,32.91205 L29.1870333,25.4133 C29.3020333,25.2983 29.4407833,25.2058 29.5945333,25.1433 C29.8995333,25.0158 30.2445333,25.0158 30.5495333,25.1433 C30.7032833,25.2058 30.8407833,25.2983 30.9570333,25.4133 L38.4557833,32.91205 C38.9445333,33.4008 38.9445333,34.19205 38.4557833,34.67955 C38.2120333,34.9233 37.8920333,35.0458 37.5720333,35.0458 C37.2520333,35.0458 36.9320333,34.9233 36.6882833,34.67955 L31.3220333,29.3133 L31.3220333,48.7970483 C31.3220333,49.4870479 30.7632833,50.0470479 30.0720333,50.0470479 C29.3807833,50.0470479 28.8220333,49.4870479 28.8220333,48.7970483 L28.8220333,29.3133 L23.4557833,34.67955 C22.9670333,35.1683 22.1770333,35.1683 21.6882833,34.67955 M45.0720333,45.0457983 L37.5720333,45.0457983 C36.8807833,45.0457983 36.3220333,44.4870483 36.3220333,43.7957983 C36.3220333,43.1045483 36.8807833,42.5457983 37.5720333,42.5457983 L45.0720333,42.5457983 C53.2782833,42.5457983 57.5720333,35.39955 57.5720333,28.34205 C57.5720333,20.5108 51.2545333,14.1383 43.4882833,14.1383 C43.2120333,14.1383 42.9332833,14.15455 42.6570333,14.1858 C42.0795333,14.2633 41.5245333,13.90955 41.3320333,13.35455 C39.0832833,6.88955 33.0170333,2.54705 26.2382833,2.54705 C17.4170333,2.54705 10.2395333,9.78455 10.2395333,18.68205 C10.2395333,19.4333 10.3032833,20.1958 10.4357833,21.0158 C10.5332833,21.6208 10.1782833,22.20705 9.59578333,22.4008 C5.39453417,23.79705 2.57203417,27.7383 2.57203417,32.2058 C2.57203417,37.90705 7.17078417,42.5457983 12.8220333,42.5457983 L22.5720333,42.5457983 C23.2632833,42.5457983 23.8220333,43.1045483 23.8220333,43.7957983 C23.8220333,44.4870483 23.2632833,45.0457983 22.5720333,45.0457983 L12.8220333,45.0457983 C5.79203417,45.0457983 0.0720342,39.2858 0.0720342,32.2058 C0.0720342,27.0108 3.14953417,22.3908 7.83078417,20.39705 C7.76953417,19.81455 7.73953417,19.24705 7.73953417,18.68205 C7.73953417,8.40705 16.0382833,0.04705 26.2382833,0.04705 C33.7632833,0.04705 40.5257833,4.66705 43.3557833,11.63955 C43.3995333,11.6383 43.4445333,11.6383 43.4882833,11.6383 C52.6332833,11.6383 60.0720333,19.13205 60.0720333,28.34205 C60.0720333,36.64205 54.9195333,45.0457983 45.0720333,45.0457983" id="upload"></path>
    </defs>
    <g id="Symbols" stroke="none" stroke-width="1" fill="none" fill-rule="evenodd">
        <g id="05_icons/network/upload" transform="translate(-10.000000, -15.000000)">
            <g id="🎨Colour" transform="translate(10.000000, 15.000000)">
                <mask id="mask-2" fill="white">
                    <use xlink:href="#upload"></use>
                </mask>
                <use id="Mask" fill="#000000" xlink:href="#upload"></use>
            </g>
        </g>
    </g>
</svg>