<?xml version="1.0" encoding="UTF-8"?>
<svg width="60px" height="60px" viewBox="0 0 60 60" version="1.1" xmlns="http://www.w3.org/2000/svg" xmlns:xlink="http://www.w3.org/1999/xlink">
    <!-- Generator: Sketch 49.3 (51167) - http://www.bohemiancoding.com/sketch -->
    <title>Mask</title>
    <desc>Created with Sketch.</desc>
    <defs>
        <path d="M30.0000008,2.50005 C14.8362508,2.50005 2.4999998,14.83656 2.4999998,30.00062 C2.4999998,37.62953 5.6262498,44.53843 10.6612508,49.52478 C13.6637508,43.60341 19.3000008,39.33457 25.6737508,37.97204 C20.3637508,36.097 16.5387508,30.99814 16.5387508,24.99927 C16.5387508,17.41786 22.6412508,11.25023 30.1437508,11.25023 C37.6462508,11.25023 43.7500008,17.41786 43.7500008,24.99927 C43.7500008,31.02939 39.8850008,36.15325 34.5312508,38.00329 C40.8300008,39.39957 46.3900008,43.63841 49.3700008,49.49728 C54.3875008,44.51217 57.5000008,37.61453 57.5000008,30.00062 C57.5000008,14.83656 45.1637508,2.50005 30.0000008,2.50005 M30.1437508,36.25075 C36.2675008,36.25075 41.2500008,31.20315 41.2500008,24.99927 C41.2500008,18.79664 36.2675008,13.75028 30.1437508,13.75028 C24.0200008,13.75028 19.0387508,18.79664 19.0387508,24.99927 C19.0387508,31.20315 24.0200008,36.25075 30.1437508,36.25075 M47.4362508,51.247315 C44.3075008,44.50217 37.3862508,39.99958 30.0225008,39.99958 C22.6500008,39.99958 15.7212508,44.51342 12.5962508,51.272316 C17.3412508,55.161147 23.4012508,57.499945 30.0000008,57.499945 C36.6137508,57.499945 42.6875008,55.152396 47.4362508,51.247315 M30.0000004,60 C13.4587506,60 0,46.542222 0,30.0006213 C0,13.4577806 13.4587506,0 30.0000004,0 C46.5412502,0 60,13.4577806 60,30.0006213 C60,46.542222 46.5412502,60 30.0000004,60" id="user-profile"></path>
    </defs>
    <g id="Symbols" stroke="none" stroke-width="1" fill="none" fill-rule="evenodd">
        <g id="05_icons/user/user-profile" transform="translate(-10.000000, -10.000000)">
            <g id="🎨Colour" transform="translate(10.000000, 10.000000)">
                <mask id="mask-2" fill="white">
                    <use xlink:href="#user-profile"></use>
                </mask>
                <use id="Mask" fill="#000000" xlink:href="#user-profile"></use>
            </g>
        </g>
    </g>
</svg>