<?xml version="1.0" encoding="UTF-8"?>
<svg width="61px" height="45px" viewBox="0 0 61 45" version="1.1" xmlns="http://www.w3.org/2000/svg" xmlns:xlink="http://www.w3.org/1999/xlink">
    <!-- Generator: Sketch 49.3 (51167) - http://www.bohemiancoding.com/sketch -->
    <title>Mask</title>
    <desc>Created with Sketch.</desc>
    <defs>
        <path d="M25.77302,2.78602 C24.65978,2.40102 23.55025,2.20209 22.47394,2.19201 C22.44902,2.19476 22.42225,2.19568 22.3964,2.19568 C18.21578,2.19568 13.04378,5.28674 12.25086,9.72992 L12.24255,18.02501 C12.24255,18.10018 12.31178,25.69583 17.44686,29.89792 C17.49025,29.93367 17.51425,29.98226 17.55025,30.02442 C17.58994,30.07118 17.63794,30.10876 17.6684,30.16376 C17.67025,30.16651 17.67025,30.17018 17.67117,30.17293 C17.71271,30.24901 17.73025,30.33243 17.74778,30.41585 C17.75517,30.44977 17.77455,30.48185 17.77825,30.51485 C17.78378,30.5726 17.76717,30.62852 17.76255,30.68627 C17.75702,30.74494 17.76163,30.80636 17.74502,30.86319 C17.73578,30.89344 17.71271,30.91911 17.70071,30.94936 C17.66655,31.03003 17.6324,31.1107 17.57609,31.18037 C17.57425,31.1822 17.57425,31.18587 17.5724,31.1877 C17.55578,31.20695 17.53178,31.21428 17.51425,31.2317 C17.45148,31.29678 17.38778,31.36279 17.30378,31.40862 L2.088708,39.702792 L2.088708,42.011924 C2.088708,42.287846 2.313938,42.519768 2.580708,42.519768 L12.24255,42.519768 C12.75209,42.519768 13.16563,42.930443 13.16563,43.4373702 C13.16563,43.9433808 12.75209,44.3531393 12.24255,44.3531393 L2.580708,44.3531393 C1.291169,44.3531393 0.2425537,43.302617 0.2425537,42.011924 L0.2425537,39.160115 C0.2425537,38.825524 0.426246,38.517518 0.7216306,38.356181 L15.28594,30.41768 C10.44994,25.595 10.39548,18.3486 10.3964,18.02317 L10.40471,9.65108 C10.40471,9.59975 10.4084,9.55116 10.41671,9.50166 C11.32594,4.06572 17.28071,0.40447 22.31055,0.36322 C22.33825,0.36047 22.36778,0.35956 22.3964,0.35956 C23.70348,0.35956 25.04471,0.59331 26.37948,1.0544 C26.8604,1.22124 27.11517,1.74375 26.94809,2.22135 C26.78102,2.69986 26.25486,2.95378 25.77302,2.78602 Z M58.3964,39.772461 L44.5484,32.27214 C44.24009,32.10438 42.70409,31.21428 42.70409,30.09318 C42.70409,29.07474 43.90502,28.44131 45.02102,28.28364 L51.81948,27.33395 C47.97855,22.39852 47.37578,10.99219 47.32409,9.81884 C46.53117,5.39766 42.65517,2.19201 38.08871,2.19201 C33.52225,2.19201 29.64625,5.39766 28.85332,9.81884 C28.80163,10.99219 28.19886,22.39852 24.35794,27.33395 L31.15455,28.28364 C32.2724,28.44131 33.47332,29.07474 33.47332,30.09318 C33.47332,31.21428 31.93363,32.1053 31.6244,32.27214 L17.78102,39.772461 L17.78102,42.038508 C17.78102,42.30343 18.00625,42.527101 18.27302,42.527101 L57.9044,42.527101 C58.17117,42.527101 58.3964,42.30343 58.3964,42.038508 L58.3964,39.772461 Z M57.9044,44.3604728 L18.27302,44.3604728 C16.98348,44.3604728 15.93486,43.3191178 15.93486,42.038508 L15.93486,39.227949 C15.93486,38.893359 16.11948,38.584436 16.41578,38.423099 L30.74102,30.66335 C30.99671,30.52402 31.21732,30.36268 31.37886,30.22151 C31.24409,30.17109 31.07886,30.12434 30.89517,30.09776 L22.26717,28.8914 C21.89425,28.84007 21.58963,28.56689 21.50009,28.20297 C21.41055,27.83813 21.55271,27.45587 21.86009,27.23862 C25.61794,24.57381 26.85394,13.6515 27.01271,9.66758 C27.01363,9.6465 27.02471,9.62908 27.02655,9.608 C27.02932,9.58783 27.02194,9.56767 27.02563,9.54658 C27.95425,4.22247 32.60748,0.35956 38.08871,0.35956 C43.56994,0.35956 48.22225,4.22247 49.15178,9.54658 C49.15548,9.56767 49.14809,9.58692 49.15086,9.608 C49.15271,9.62908 49.16378,9.64558 49.16471,9.66758 C49.32348,13.6515 50.55948,24.57381 54.31732,27.23862 C54.62471,27.45587 54.76686,27.83813 54.67732,28.20297 C54.58778,28.56689 54.28317,28.84007 53.91025,28.8914 L45.2804,30.09868 C45.09763,30.12434 44.9324,30.17109 44.79763,30.22335 C44.95825,30.36268 45.17794,30.52493 45.43363,30.66335 L59.76163,38.423099 C60.05794,38.584436 60.24255,38.893359 60.24255,39.227949 L60.24255,42.038508 C60.24255,43.3191178 59.19394,44.3604728 57.9044,44.3604728 Z" id="path-1"></path>
    </defs>
    <g id="Symbols" stroke="none" stroke-width="1" fill="none" fill-rule="evenodd">
        <g id="05_icons/user/contact" transform="translate(-10.000000, -18.000000)">
            <g id="🎨Colour" transform="translate(10.000000, 18.000000)">
                <mask id="mask-2" fill="white">
                    <use xlink:href="#path-1"></use>
                </mask>
                <use id="Mask" fill="#000000" xlink:href="#path-1"></use>
            </g>
        </g>
    </g>
</svg>