<?xml version="1.0" encoding="UTF-8"?>
<svg width="21px" height="32px" viewBox="0 0 21 32" version="1.1" xmlns="http://www.w3.org/2000/svg" xmlns:xlink="http://www.w3.org/1999/xlink">
    <!-- Generator: Sketch 51.1 (57501) - http://www.bohemiancoding.com/sketch -->
    <title>noun_Walk_736211</title>
    <desc>Created with Sketch.</desc>
    <defs></defs>
    <g id="↳-(W)_page.website.03.ipp.00" stroke="none" stroke-width="1" fill="none" fill-rule="evenodd">
        <g id="↳-(W)_page.website.03.ipp.01.01---Landing-with-maps" transform="translate(-313.000000, -4710.000000)" fill="#242424" fill-rule="nonzero">
            <g id="Group-3" transform="translate(21.000000, 4594.000000)">
                <g id="noun_Walk_736211" transform="translate(292.000000, 116.000000)">
                    <g id="Group">
                        <path d="M10.7536842,6.66652632 C8.99536842,6.66652632 7.56547368,5.23663158 7.56547368,3.47915789 C7.56547368,1.72168421 8.99536842,0.291789474 10.7536842,0.291789474 C12.5111579,0.291789474 13.9410526,1.72168421 13.9410526,3.47915789 C13.9410526,5.23663158 12.5111579,6.66652632 10.7536842,6.66652632 Z M10.7536842,1.13347368 C9.46021053,1.13347368 8.40757895,2.18568421 8.40757895,3.47873684 C8.40757895,4.77178947 9.46021053,5.824 10.7536842,5.824 C12.0467368,5.824 13.0989474,4.77178947 13.0989474,3.47873684 C13.0989474,2.18568421 12.0467368,1.13347368 10.7536842,1.13347368 Z" id="Shape"></path>
                        <path d="M16.0063158,31.7090526 C15.2454737,31.7090526 14.5747368,31.2501053 14.296,30.5406316 C14.2955789,30.5397895 14.2951579,30.5389474 14.2947368,30.5381053 L8.92042105,19.8463158 L7.93557895,23.9212632 C7.92210526,23.9764211 7.89810526,24.0282105 7.86442105,24.0732632 L3.22526316,30.3322105 C3.20884211,30.3545263 3.19073684,30.3751579 3.17052632,30.3936842 C2.83747368,30.6989474 2.40294737,30.8665263 1.94694737,30.8665263 C0.932631579,30.8665263 0.107368421,30.0408421 0.107368421,29.0261053 C0.107368421,28.7688421 0.162105263,28.5162105 0.270315789,28.2762105 C0.284631579,28.2450526 0.302736842,28.2151579 0.324210526,28.1882105 L4.43663158,22.9751579 C4.44589474,22.9604211 4.456,22.9456842 4.46736842,22.9322105 L4.52842105,22.8572632 L5.58231579,15.8143158 L5.73726316,12.4842105 L5.14105263,13.0804211 L4.49810526,17.0644211 C4.32842105,17.8391579 3.65263158,18.3818947 2.88631579,18.3818947 C1.97852632,18.3818947 1.24,17.6433684 1.24,16.7355789 C1.24,16.5536842 1.27073684,16.3722105 1.33136842,16.1957895 L2.12968421,11.3242105 C2.144,11.2374737 2.18484211,11.1574737 2.24673684,11.0951579 L5.66821053,7.66189474 C6.16126316,6.86315789 7.04421053,6.36926316 7.98484211,6.36926316 C8.00042105,6.36926316 8.01557895,6.37010526 8.03073684,6.37178947 L10.5654737,6.65221053 C10.5764211,6.65263158 10.5873684,6.65305263 10.5949474,6.65389474 C11.2534737,6.72673684 11.8623158,7.03452632 12.3077895,7.52084211 C12.3275789,7.54189474 12.3448421,7.56505263 12.3595789,7.59031579 L12.8602105,8.43242105 C12.8677895,8.44421053 12.8741053,8.45726316 12.88,8.46989474 L15.4437895,12.7928421 L18.7355789,13.7094737 C19.5296842,13.8429474 20.1027368,14.5204211 20.1027368,15.3301053 C20.1027368,16.2383158 19.3642105,16.9768421 18.4564211,16.9768421 C18.2105263,16.9768421 17.9637895,16.92 17.7406316,16.8113684 L13.4042105,15.3793684 C13.3098947,15.3477895 13.2307368,15.2837895 13.1793684,15.1995789 L11.7221053,12.8046316 L11.5305263,16.6606316 L17.7482105,29.2997895 C17.7574737,29.3195789 17.7658947,29.3402105 17.7726316,29.3612632 C17.8218947,29.52 17.8458947,29.6858947 17.8458947,29.8686316 C17.8458947,30.8833684 17.0206316,31.7090526 16.0063158,31.7090526 Z M15.0905263,30.2589474 C15.2475789,30.6290526 15.6042105,30.8665263 16.0063158,30.8665263 C16.5566316,30.8665263 17.0037895,30.4185263 17.0037895,29.8682105 C17.0037895,29.7827368 16.9949474,29.7069474 16.9764211,29.6378947 L10.7271579,16.9343158 C10.6955789,16.8703158 10.6812632,16.7995789 10.6842105,16.728 L10.9498947,11.4054737 C10.9587368,11.2387368 11.064,11.0892632 11.2193684,11.0290526 C11.3747368,10.9692632 11.5507368,11.0029474 11.6682105,11.1204211 C11.6922105,11.1444211 11.7166316,11.1747368 11.7343158,11.2033684 L13.8189474,14.6303158 L14.6833684,14.9221053 L18.032,16.0202105 C18.0526316,16.0269474 18.0728421,16.0353684 18.0922105,16.0454737 C18.2071579,16.1044211 18.3301053,16.1338947 18.4568421,16.1338947 C18.9006316,16.1338947 19.2610526,15.7734737 19.2610526,15.3296842 C19.2610526,14.9305263 18.9755789,14.5970526 18.5827368,14.5372632 C18.5663158,14.5347368 18.5494737,14.5313684 18.5330526,14.5267368 L15.3663158,13.6450526 C15.2997895,13.6618947 15.2286316,13.6631579 15.1595789,13.6454737 L15.1086316,13.6328421 C14.9962105,13.6050526 14.9006316,13.5322105 14.8437895,13.4311579 L14.8197895,13.3882105 C14.8147368,13.3814737 14.8109474,13.3747368 14.8063158,13.3671579 L12.1368421,8.86610526 C12.1296842,8.85431579 12.1233684,8.84168421 12.1174737,8.82947368 L11.6597895,8.05978947 C11.3578947,7.74526316 10.9553684,7.54484211 10.5195789,7.49263158 C10.5090526,7.49221053 10.4981053,7.49178947 10.4905263,7.49094737 L7.96336842,7.21136842 C7.29936842,7.21894737 6.70315789,7.56378947 6.36547368,8.13684211 C6.34778947,8.16715789 6.32589474,8.19578947 6.30063158,8.22063158 L2.93936842,11.5941053 L2.15705263,16.3696842 C2.15284211,16.3966316 2.14568421,16.4231579 2.13642105,16.4488421 C2.10105263,16.5435789 2.08294737,16.6404211 2.08294737,16.736 C2.08294737,17.1793684 2.44378947,17.5402105 2.88715789,17.5402105 C3.26147368,17.5402105 3.59115789,17.2753684 3.67157895,16.9103158 L3.688,16.7974737 L4.33221053,12.8122105 C4.34652632,12.7246316 4.38778947,12.6442105 4.45010526,12.5814737 L5.91157895,11.12 C6.03452632,10.9970526 6.21936842,10.9629474 6.37936842,11.0324211 C6.53810526,11.1027368 6.63789474,11.2635789 6.62989474,11.4374737 L6.42357895,15.8753684 C6.42315789,15.8892632 6.42147368,15.9035789 6.41936842,15.9183158 L5.34568421,23.096 C5.33473684,23.1717895 5.30315789,23.2425263 5.25473684,23.3014737 L5.14694737,23.4328421 C5.14021053,23.4433684 5.13263158,23.4534737 5.12505263,23.4631579 L1.02063158,28.6661053 C0.974315789,28.7827368 0.950736842,28.9035789 0.950736842,29.0256842 C0.950736842,29.576 1.39831579,30.024 1.94821053,30.024 C2.18021053,30.024 2.40126316,29.9435789 2.57473684,29.7970526 L2.89768421,29.3578947 L7.13684211,23.64 L8.37178947,18.5322105 C8.41347368,18.3604211 8.55747368,18.2328421 8.73305263,18.2130526 C8.91157895,18.1898947 9.07831579,18.2846316 9.15747368,18.4416842 L15.0644211,30.1932632 C15.0749474,30.2147368 15.0837895,30.2366316 15.0905263,30.2589474 Z" id="Shape"></path>
                    </g>
                </g>
            </g>
        </g>
    </g>
</svg>